<?xml version="1.0" encoding="utf-8"?>
<!-- Generator: Adobe Illustrator 28.1.0, SVG Export Plug-In . SVG Version: 6.00 Build 0)  -->
<svg version="1.1" id="Laag_1" xmlns="http://www.w3.org/2000/svg" xmlns:xlink="http://www.w3.org/1999/xlink" x="0px" y="0px"
	 viewBox="0 0 74.5 82.95" enable-background="new 0 0 74.5 82.95" xml:space="preserve">
<path fill="none" stroke="#1D1D1B" stroke-linecap="round" stroke-miterlimit="10" d="M33.97,40.86c0,0.34-0.28,0.62-0.62,0.62
	s-0.62-0.28-0.62-0.62c0-0.35,0.28-0.62,0.62-0.62S33.97,40.51,33.97,40.86z"/>
<path fill="none" stroke="#1D1D1B" stroke-linecap="round" stroke-miterlimit="10" d="M33.21,39.46c0-0.34,0.28-0.62,0.62-0.62
	c0.06,0,0.12,0.01,0.18,0.03c-0.03-0.07-0.04-0.14-0.04-0.21c0-0.34,0.28-0.62,0.62-0.62c0.34,0,0.62,0.28,0.62,0.62
	c0,0.35-0.28,0.62-0.62,0.62c-0.06,0-0.12-0.01-0.18-0.03c0.03,0.06,0.04,0.13,0.04,0.2c0,0.34-0.28,0.62-0.62,0.62
	C33.49,40.08,33.21,39.8,33.21,39.46z"/>
<path fill="none" stroke="#1D1D1B" stroke-linecap="round" stroke-miterlimit="10" d="M34.77,41c-0.34,0-0.62-0.28-0.62-0.62
	c0-0.34,0.28-0.62,0.62-0.62c0.34,0,0.62,0.28,0.62,0.62C35.39,40.73,35.11,41,34.77,41z"/>
<path fill="none" stroke="#1D1D1B" stroke-linecap="round" stroke-miterlimit="10" d="M35.84,41.85c0,0.34-0.28,0.62-0.62,0.62
	c-0.35,0-0.62-0.28-0.62-0.62c0-0.35,0.28-0.62,0.62-0.62C35.56,41.23,35.84,41.51,35.84,41.85z"/>
<path fill="none" stroke="#1D1D1B" stroke-linecap="round" stroke-miterlimit="10" d="M35.22,37.94c0-0.35,0.28-0.62,0.62-0.62
	c0.34,0,0.62,0.28,0.62,0.62c0,0.34-0.28,0.62-0.62,0.62C35.49,38.56,35.22,38.28,35.22,37.94z"/>
<path fill="none" stroke="#1D1D1B" stroke-linecap="round" stroke-miterlimit="10" d="M36.36,40.27c-0.35,0-0.62-0.28-0.62-0.62
	c0-0.34,0.28-0.62,0.62-0.62c0.34,0,0.62,0.28,0.62,0.62C36.98,39.99,36.71,40.27,36.36,40.27z"/>
<path fill="none" stroke="#1D1D1B" stroke-linecap="round" stroke-miterlimit="10" d="M37.42,41.23c0,0.34-0.28,0.62-0.62,0.62
	c-0.34,0-0.62-0.28-0.62-0.62c0-0.34,0.28-0.62,0.62-0.62C37.15,40.61,37.42,40.89,37.42,41.23z"/>
<path fill="none" stroke="#1D1D1B" stroke-linecap="round" stroke-miterlimit="10" d="M36.64,37.29c0-0.35,0.28-0.62,0.62-0.62
	s0.62,0.28,0.62,0.62c0,0.34-0.28,0.62-0.62,0.62S36.64,37.63,36.64,37.29z"/>
<path fill="none" stroke="#1D1D1B" stroke-linecap="round" stroke-miterlimit="10" d="M36.64,35.8c0-0.34,0.28-0.62,0.62-0.62
	s0.62,0.28,0.62,0.62c0,0.35-0.28,0.62-0.62,0.62S36.64,36.15,36.64,35.8z"/>
<path fill="none" stroke="#1D1D1B" stroke-linecap="round" stroke-miterlimit="10" d="M38.24,38.46c0.21,0.27,0.16,0.66-0.12,0.87
	c-0.27,0.21-0.67,0.16-0.87-0.12c-0.21-0.27-0.16-0.66,0.12-0.87C37.64,38.13,38.04,38.18,38.24,38.46z"/>
<path fill="none" stroke="#1D1D1B" stroke-linecap="round" stroke-miterlimit="10" d="M37.61,34.93c0-0.34,0.28-0.62,0.62-0.62
	c0.34,0,0.62,0.28,0.62,0.62c0,0.35-0.28,0.62-0.62,0.62C37.89,35.55,37.61,35.27,37.61,34.93z"/>
<path fill="none" stroke="#1D1D1B" stroke-linecap="round" stroke-miterlimit="10" d="M38.58,37.47c-0.31-0.16-0.44-0.53-0.28-0.84
	c0.15-0.31,0.52-0.43,0.83-0.28c0.31,0.15,0.43,0.53,0.28,0.84C39.26,37.49,38.89,37.62,38.58,37.47z"/>
<path fill="none" stroke="#1D1D1B" stroke-linecap="round" stroke-miterlimit="10" d="M38.93,33.12c0-0.34,0.28-0.62,0.62-0.62
	c0.35,0,0.62,0.28,0.62,0.62c0,0.35-0.28,0.62-0.62,0.62C39.21,33.75,38.93,33.47,38.93,33.12z"/>
<path fill="none" stroke="#1D1D1B" stroke-linecap="round" stroke-miterlimit="10" d="M39.89,34.04c0.34,0,0.62,0.28,0.62,0.62
	s-0.28,0.62-0.62,0.62c-0.34,0-0.62-0.28-0.62-0.62S39.54,34.04,39.89,34.04z"/>
<path fill="none" stroke="#1D1D1B" stroke-linecap="round" stroke-miterlimit="10" d="M40,37.99c0.21,0.27,0.16,0.67-0.12,0.87
	c-0.27,0.21-0.67,0.16-0.87-0.12c-0.21-0.27-0.16-0.66,0.12-0.87C39.4,37.66,39.79,37.72,40,37.99z"/>
<path fill="none" stroke="#1D1D1B" stroke-linecap="round" stroke-miterlimit="10" d="M40.71,36.68c-0.15,0.31-0.52,0.43-0.83,0.28
	c-0.31-0.16-0.44-0.53-0.28-0.84c0.15-0.31,0.52-0.43,0.83-0.28C40.74,36,40.86,36.38,40.71,36.68z"/>
<path fill="none" stroke="#1D1D1B" stroke-linecap="round" stroke-miterlimit="10" d="M40.47,32.86c-0.2-0.28-0.13-0.67,0.15-0.87
	c0.28-0.2,0.67-0.13,0.87,0.15c0.2,0.28,0.13,0.67-0.15,0.87C41.06,33.21,40.67,33.14,40.47,32.86z"/>
<path fill="none" stroke="#1D1D1B" stroke-linecap="round" stroke-miterlimit="10" d="M40.98,34.82c-0.31-0.15-0.43-0.52-0.28-0.83
	c0.15-0.31,0.52-0.44,0.83-0.28c0.31,0.15,0.43,0.52,0.28,0.83C41.66,34.84,41.29,34.97,40.98,34.82z"/>
<path fill="none" stroke="#1D1D1B" stroke-linecap="round" stroke-miterlimit="10" d="M42.63,36.08c-0.15,0.31-0.52,0.43-0.83,0.28
	c-0.31-0.15-0.43-0.52-0.28-0.83c0.15-0.31,0.52-0.44,0.83-0.28C42.66,35.4,42.79,35.77,42.63,36.08z"/>
<path fill="none" stroke="#1D1D1B" stroke-linecap="round" stroke-miterlimit="10" d="M41.89,30.34c-0.2-0.28-0.13-0.67,0.16-0.87
	c0.28-0.2,0.67-0.13,0.87,0.16c0.2,0.28,0.13,0.67-0.16,0.87C42.47,30.7,42.09,30.63,41.89,30.34z"/>
<path fill="none" stroke="#1D1D1B" stroke-linecap="round" stroke-miterlimit="10" d="M42.12,31.93c-0.2-0.28-0.13-0.67,0.15-0.87
	c0.28-0.2,0.67-0.13,0.87,0.15c0.2,0.28,0.13,0.67-0.15,0.87C42.71,32.28,42.32,32.21,42.12,31.93z"/>
<path fill="none" stroke="#1D1D1B" stroke-linecap="round" stroke-miterlimit="10" d="M43.33,33.36c-0.04,0.34-0.34,0.59-0.68,0.56
	c-0.34-0.04-0.59-0.34-0.56-0.68c0.04-0.34,0.34-0.59,0.68-0.56C43.12,32.71,43.37,33.02,43.33,33.36z"/>
<path fill="none" stroke="#1D1D1B" stroke-linecap="round" stroke-miterlimit="10" d="M43.89,34.94c-0.15,0.31-0.52,0.43-0.83,0.28
	c-0.31-0.15-0.43-0.52-0.28-0.83c0.15-0.31,0.52-0.44,0.83-0.28C43.92,34.26,44.05,34.63,43.89,34.94z"/>
<path fill="none" stroke="#1D1D1B" stroke-linecap="round" stroke-miterlimit="10" d="M43.14,29.12c-0.2-0.28-0.13-0.67,0.15-0.87
	c0.28-0.2,0.67-0.13,0.87,0.15c0.2,0.28,0.13,0.67-0.15,0.87C43.73,29.47,43.34,29.4,43.14,29.12z"/>
<path fill="none" stroke="#1D1D1B" stroke-linecap="round" stroke-miterlimit="10" d="M44.07,29.99c0.34,0.04,0.59,0.34,0.56,0.68
	c-0.04,0.34-0.34,0.59-0.69,0.56c-0.34-0.04-0.59-0.34-0.55-0.68C43.43,30.21,43.73,29.96,44.07,29.99z"/>
<path fill="none" stroke="#1D1D1B" stroke-linecap="round" stroke-miterlimit="10" d="M45.07,32.56c-0.04,0.34-0.34,0.59-0.68,0.56
	c-0.34-0.04-0.59-0.34-0.56-0.68c0.04-0.34,0.34-0.59,0.69-0.56C44.85,31.92,45.1,32.22,45.07,32.56z"/>
<path fill="none" stroke="#1D1D1B" stroke-linecap="round" stroke-miterlimit="10" d="M44.56,29.19c-0.23-0.25-0.22-0.65,0.03-0.88
	c0.25-0.24,0.65-0.22,0.88,0.03c0.23,0.25,0.22,0.65-0.03,0.88C45.19,29.45,44.8,29.44,44.56,29.19z"/>
<path fill="none" stroke="#1D1D1B" stroke-linecap="round" stroke-miterlimit="10" d="M45.06,30.63c-0.23-0.25-0.22-0.65,0.03-0.88
	c0.25-0.23,0.64-0.22,0.88,0.03c0.23,0.25,0.22,0.65-0.03,0.88C45.69,30.89,45.3,30.87,45.06,30.63z"/>
<path fill="none" stroke="#1D1D1B" stroke-linecap="round" stroke-miterlimit="10" d="M46.33,31.27c0.23,0.25,0.22,0.65-0.04,0.88
	c-0.25,0.23-0.65,0.22-0.88-0.03c-0.24-0.25-0.22-0.65,0.03-0.88C45.7,31.01,46.09,31.03,46.33,31.27z"/>
<path fill="none" stroke="#1D1D1B" stroke-linecap="round" stroke-miterlimit="10" d="M45.53,26.62c-0.2-0.28-0.13-0.67,0.15-0.87
	c0.28-0.2,0.67-0.13,0.87,0.16c0.2,0.28,0.13,0.67-0.15,0.87C46.11,26.97,45.72,26.9,45.53,26.62z"/>
<path fill="none" stroke="#1D1D1B" stroke-linecap="round" stroke-miterlimit="10" d="M47.06,27.8c0.14,0.31,0.01,0.68-0.31,0.82
	c-0.31,0.15-0.68,0.01-0.82-0.3c-0.15-0.31-0.01-0.68,0.3-0.83C46.54,27.35,46.91,27.48,47.06,27.8z"/>
<path fill="none" stroke="#1D1D1B" stroke-linecap="round" stroke-miterlimit="10" d="M47.57,29.26c0.14,0.31,0.01,0.69-0.31,0.83
	c-0.31,0.15-0.68,0.01-0.83-0.3c-0.14-0.31-0.01-0.69,0.31-0.83C47.05,28.81,47.42,28.94,47.57,29.26z"/>
<path fill="none" stroke="#1D1D1B" stroke-linecap="round" stroke-miterlimit="10" d="M46.85,24.9c-0.2-0.28-0.13-0.67,0.16-0.87
	c0.28-0.2,0.67-0.13,0.87,0.16c0.2,0.28,0.13,0.67-0.16,0.86c-0.05,0.04-0.1,0.06-0.16,0.08c0.22,0.02,0.42,0.15,0.52,0.36
	c0.15,0.31,0.01,0.69-0.3,0.83c-0.31,0.15-0.69,0.01-0.83-0.3c-0.15-0.31-0.01-0.69,0.3-0.83c0.03-0.01,0.06-0.03,0.08-0.03
	C47.15,25.15,46.97,25.06,46.85,24.9z"/>
<path fill="none" stroke="#1D1D1B" stroke-linecap="round" stroke-miterlimit="10" d="M48.65,27.28c0.14,0.31,0.01,0.68-0.31,0.83
	c-0.31,0.14-0.68,0-0.83-0.31c-0.14-0.31-0.01-0.68,0.31-0.83C48.14,26.83,48.51,26.97,48.65,27.28z"/>
<path fill="none" stroke="#1D1D1B" stroke-linecap="round" stroke-miterlimit="10" d="M48.17,23.54c-0.2-0.28-0.13-0.67,0.16-0.87
	c0.28-0.2,0.67-0.13,0.87,0.15c0.2,0.28,0.13,0.67-0.16,0.87S48.37,23.82,48.17,23.54z"/>
<path fill="none" stroke="#1D1D1B" stroke-linecap="round" stroke-miterlimit="10" d="M49.57,24.28c0.14,0.31,0.01,0.68-0.31,0.82
	c-0.31,0.15-0.68,0.01-0.83-0.3c-0.14-0.31-0.01-0.68,0.31-0.83C49.05,23.83,49.42,23.97,49.57,24.28z"/>
<path fill="none" stroke="#1D1D1B" stroke-linecap="round" stroke-miterlimit="10" d="M49.99,25.63c0.14,0.31,0.01,0.68-0.31,0.83
	c-0.31,0.14-0.68,0.01-0.82-0.31c-0.15-0.31-0.01-0.68,0.3-0.83C49.47,25.18,49.84,25.32,49.99,25.63z"/>
<path fill="none" stroke="#1D1D1B" stroke-linecap="round" stroke-miterlimit="10" d="M49.43,22.48c-0.2-0.28-0.13-0.67,0.15-0.87
	c0.28-0.2,0.67-0.13,0.87,0.15c0.2,0.28,0.13,0.67-0.15,0.87C50.01,22.83,49.62,22.76,49.43,22.48z"/>
<path fill="none" stroke="#1D1D1B" stroke-linecap="round" stroke-miterlimit="10" d="M51.63,26.17c0.14,0.31,0.01,0.68-0.31,0.82
	c-0.31,0.15-0.68,0.01-0.83-0.3c-0.14-0.31-0.01-0.68,0.31-0.83C51.12,25.72,51.49,25.86,51.63,26.17z"/>
<path fill="none" stroke="#1D1D1B" stroke-linecap="round" stroke-miterlimit="10" d="M51.63,24.28c0.14,0.31,0.01,0.68-0.31,0.82
	c-0.31,0.15-0.68,0.01-0.83-0.3c-0.08-0.17-0.07-0.35,0-0.51c-0.27,0.05-0.55-0.09-0.67-0.35c-0.15-0.31-0.01-0.68,0.3-0.83
	c0.31-0.14,0.69-0.01,0.83,0.31c0.08,0.17,0.08,0.36,0.01,0.51C51.24,23.88,51.51,24.03,51.63,24.28z"/>
<path fill="none" stroke="#1D1D1B" stroke-linecap="round" stroke-miterlimit="10" d="M50.94,20.66c0.03-0.02,0.06-0.04,0.1-0.06
	c-0.05-0.03-0.09-0.08-0.12-0.13c-0.2-0.28-0.13-0.67,0.16-0.87c0.28-0.2,0.67-0.13,0.87,0.16c0.2,0.28,0.13,0.67-0.16,0.87
	c-0.03,0.02-0.06,0.04-0.09,0.06c0.04,0.04,0.08,0.08,0.11,0.12c0.2,0.28,0.13,0.67-0.15,0.87c-0.28,0.2-0.67,0.13-0.87-0.16
	C50.59,21.24,50.67,20.86,50.94,20.66z"/>
<path fill="none" stroke="#1D1D1B" stroke-linecap="round" stroke-miterlimit="10" d="M52.37,23.42c-0.31,0.14-0.68,0.01-0.83-0.31
	c-0.14-0.31-0.01-0.68,0.31-0.83c0.31-0.14,0.68-0.01,0.83,0.31C52.82,22.91,52.69,23.28,52.37,23.42z"/>
<path fill="none" stroke="#1D1D1B" stroke-linecap="round" stroke-miterlimit="10" d="M53.65,23.45c0.2,0.28,0.13,0.67-0.16,0.87
	c-0.28,0.2-0.67,0.13-0.87-0.16c-0.2-0.28-0.13-0.67,0.16-0.86C53.06,23.09,53.45,23.16,53.65,23.45z"/>
<path fill="none" stroke="#1D1D1B" stroke-linecap="round" stroke-miterlimit="10" d="M52.63,21.52c-0.2-0.28-0.13-0.67,0.16-0.86
	c0.28-0.2,0.67-0.13,0.87,0.15c0.2,0.28,0.13,0.67-0.16,0.87C53.22,21.87,52.83,21.8,52.63,21.52z"/>
<path fill="none" stroke="#1D1D1B" stroke-linecap="round" stroke-miterlimit="10" d="M54.56,22.11c0.2,0.28,0.13,0.67-0.16,0.87
	c-0.28,0.2-0.67,0.13-0.87-0.16c-0.2-0.28-0.13-0.67,0.16-0.87C53.97,21.75,54.36,21.82,54.56,22.11z"/>
<path fill="#E5007E" stroke="#1D1D1B" stroke-width="0.75" stroke-linecap="round" stroke-miterlimit="10" d="M62.52,7.4
	C19.29-11.73-24.12,51.63,31.29,43.86l2.54,2.44C39.5,90.99,88.52,42.61,62.52,7.4z M55.85,22.14l-2.99,3.3
	c0.01-0.1-0.01-0.2-0.06-0.29c-0.15-0.31-0.51-0.45-0.83-0.3c-0.31,0.14-0.45,0.51-0.3,0.82c0.12,0.26,0.39,0.4,0.66,0.35
	l-7.16,7.89c0.01-0.03,0.02-0.07,0.02-0.1c0.04-0.34-0.22-0.65-0.56-0.68c-0.34-0.04-0.65,0.22-0.68,0.56
	c-0.04,0.34,0.22,0.65,0.56,0.68c0.1,0.01,0.19-0.01,0.27-0.03l-3.31,3.64c0.17-0.22,0.18-0.53,0.01-0.76
	c-0.21-0.27-0.59-0.33-0.87-0.12c-0.27,0.21-0.32,0.59-0.12,0.87c0.21,0.27,0.6,0.32,0.87,0.12c0.03-0.03,0.06-0.05,0.09-0.08
	l-2.47,2.72c0.17-0.22,0.18-0.52,0.01-0.75c-0.21-0.28-0.6-0.33-0.87-0.12c-0.28,0.21-0.33,0.6-0.12,0.87
	c0.21,0.28,0.6,0.33,0.87,0.12l-1.63,1.8c-0.52,0.58-1.24,0.87-1.97,0.87c-0.52,0-1.05-0.15-1.5-0.47c0.03,0.01,0.05,0.01,0.08,0.01
	c0.34,0,0.62-0.28,0.62-0.62c0-0.35-0.28-0.62-0.62-0.62c-0.34,0-0.62,0.28-0.62,0.62c0,0.04,0.01,0.09,0.01,0.13
	c-0.84-1-0.83-2.49,0.07-3.49l7.62-8.4c-0.1,0.19-0.09,0.43,0.05,0.62c0.2,0.28,0.58,0.35,0.86,0.16c0.28-0.2,0.35-0.58,0.16-0.87
	c-0.19-0.27-0.54-0.34-0.82-0.19l3.13-3.44c-0.03,0.15,0.01,0.31,0.1,0.44c0.2,0.28,0.58,0.35,0.87,0.16
	c0.28-0.2,0.35-0.58,0.15-0.87c-0.15-0.22-0.41-0.31-0.65-0.25l7.16-7.88c0.99-1.09,2.67-1.17,3.75-0.18
	C56.75,19.37,56.83,21.05,55.85,22.14z"/>
<path fill="#B17F49" stroke="#1D1D1B" stroke-linecap="round" stroke-miterlimit="10" d="M33.83,46.3
	C23.8,56.76,16.06,67.67,13,79.52l-2.52-1.53c4-10.1,11.7-21.8,20.82-34.12L33.83,46.3z"/>
<path fill="none" stroke="#B5B5B5" stroke-width="0.25" stroke-miterlimit="10" d="M32.56,8.06c-15.23,10.33-17.38,20.73-3.39,31.22
	"/>
<path fill="none" stroke="#B5B5B5" stroke-width="0.25" stroke-miterlimit="10" d="M45.52,5.85C30.2,12.58,22.98,27.44,29.76,38.4"
	/>
<path fill="none" stroke="#B5B5B5" stroke-width="0.25" stroke-miterlimit="10" d="M47.52,10.21c-10.8,7.77-16.26,17.03-13.68,26.63
	"/>
<path fill="none" stroke="#B5B5B5" stroke-width="0.25" stroke-miterlimit="10" d="M62.52,17.68c-1.82,9.81-5.86,18.72-19.59,23.67"
	/>
<path fill="none" stroke="#B5B5B5" stroke-width="0.25" stroke-miterlimit="10" d="M67.34,27.23c0.09,4.47-12.21,18.72-24.41,17.3"
	/>
<path fill="none" stroke="#B5B5B5" stroke-width="0.25" stroke-miterlimit="10" d="M68.08,37.29c-5.24,8.91-12.84,13.96-25.45,10.8"
	/>
<path fill="none" stroke="#B5B5B5" stroke-width="0.25" stroke-miterlimit="10" d="M38.93,52.67c2.89,5.2,9.67,6.21,20.34,3.03"/>
<path fill="none" stroke="#B5B5B5" stroke-width="0.25" stroke-miterlimit="10" d="M14.37,19.64c-6.72,10.79-3.54,18.28,11.82,21.72
	"/>
<path fill="#7E4E24" stroke="#1D1D1B" stroke-width="0.25" stroke-miterlimit="10" d="M55.66,18.39c-1.08-0.99-2.77-0.91-3.75,0.18
	l-7.16,7.88c0.24-0.06,0.5,0.04,0.65,0.25c0.2,0.28,0.13,0.67-0.15,0.87c-0.28,0.2-0.67,0.13-0.87-0.16
	c-0.1-0.14-0.13-0.29-0.1-0.44l-3.13,3.44c0.28-0.16,0.63-0.08,0.82,0.19c0.2,0.28,0.13,0.67-0.16,0.87
	c-0.28,0.2-0.67,0.13-0.86-0.16c-0.14-0.19-0.15-0.43-0.05-0.62l-7.62,8.4c-0.9,1-0.91,2.48-0.07,3.49c0-0.04-0.01-0.09-0.01-0.13
	c0-0.35,0.28-0.62,0.62-0.62c0.34,0,0.62,0.28,0.62,0.62c0,0.34-0.28,0.62-0.62,0.62c-0.03,0-0.05,0-0.08-0.01
	c0.45,0.32,0.98,0.47,1.5,0.47c0.73,0,1.45-0.29,1.97-0.87l1.63-1.8c-0.27,0.21-0.67,0.16-0.87-0.12c-0.21-0.27-0.16-0.66,0.12-0.87
	c0.27-0.21,0.66-0.16,0.87,0.12c0.17,0.23,0.16,0.53-0.01,0.75l2.47-2.72c-0.03,0.03-0.06,0.06-0.09,0.08
	c-0.27,0.21-0.67,0.16-0.87-0.12c-0.21-0.28-0.16-0.67,0.12-0.87c0.28-0.21,0.67-0.16,0.87,0.12c0.18,0.23,0.17,0.54-0.01,0.76
	l3.31-3.64c-0.09,0.03-0.18,0.04-0.27,0.03c-0.34-0.04-0.59-0.34-0.56-0.68c0.04-0.34,0.34-0.59,0.68-0.56
	c0.34,0.04,0.59,0.34,0.56,0.68c0,0.04-0.01,0.07-0.02,0.1l7.16-7.89c-0.27,0.05-0.54-0.1-0.66-0.35c-0.15-0.31-0.01-0.68,0.3-0.82
	c0.31-0.15,0.68-0.01,0.83,0.3c0.05,0.1,0.06,0.2,0.06,0.29l2.99-3.3C56.83,21.05,56.75,19.37,55.66,18.39z M52.79,20.66
	c0.28-0.2,0.67-0.13,0.87,0.15c0.2,0.28,0.13,0.67-0.16,0.87c-0.28,0.2-0.67,0.13-0.87-0.16C52.43,21.24,52.5,20.86,52.79,20.66z
	 M50.92,20.48c-0.2-0.28-0.13-0.67,0.16-0.87c0.28-0.2,0.67-0.13,0.87,0.16c0.2,0.28,0.13,0.67-0.16,0.87
	c-0.03,0.02-0.06,0.04-0.09,0.06c0.04,0.04,0.08,0.08,0.11,0.12c0.2,0.28,0.13,0.67-0.15,0.87c-0.28,0.2-0.67,0.13-0.87-0.16
	c-0.2-0.28-0.13-0.67,0.15-0.86c0.03-0.02,0.06-0.04,0.1-0.06C50.99,20.57,50.95,20.53,50.92,20.48z M49.58,21.61
	c0.28-0.2,0.67-0.13,0.87,0.15c0.2,0.28,0.13,0.67-0.15,0.87c-0.28,0.2-0.67,0.13-0.87-0.15C49.23,22.2,49.29,21.81,49.58,21.61z
	 M49.26,25.1c-0.31,0.15-0.68,0.01-0.83-0.3c-0.14-0.31-0.01-0.68,0.31-0.83c0.31-0.14,0.68-0.01,0.83,0.31
	C49.71,24.6,49.57,24.96,49.26,25.1z M48.33,22.68c0.28-0.2,0.67-0.13,0.87,0.15c0.2,0.28,0.13,0.67-0.16,0.87s-0.67,0.13-0.87-0.15
	C47.97,23.26,48.05,22.87,48.33,22.68z M47.01,24.03c0.28-0.2,0.67-0.13,0.87,0.16c0.2,0.28,0.13,0.67-0.16,0.86
	c-0.05,0.04-0.1,0.06-0.16,0.08c0.22,0.02,0.42,0.15,0.52,0.36c0.15,0.31,0.01,0.69-0.3,0.83c-0.31,0.15-0.69,0.01-0.83-0.3
	c-0.15-0.31-0.01-0.69,0.3-0.83c0.03-0.01,0.06-0.03,0.08-0.03c-0.19-0.01-0.37-0.09-0.48-0.26C46.65,24.62,46.72,24.23,47.01,24.03
	z M46.75,28.62c-0.31,0.15-0.68,0.01-0.82-0.3c-0.15-0.31-0.01-0.68,0.3-0.83c0.31-0.14,0.68-0.01,0.83,0.31
	C47.2,28.11,47.06,28.48,46.75,28.62z M45.68,25.75c0.28-0.2,0.67-0.13,0.87,0.16c0.2,0.28,0.13,0.67-0.15,0.87
	c-0.28,0.2-0.67,0.13-0.87-0.16C45.33,26.34,45.39,25.95,45.68,25.75z M44.59,28.31c0.25-0.24,0.65-0.22,0.88,0.03
	c0.23,0.25,0.22,0.65-0.03,0.88c-0.25,0.24-0.64,0.22-0.88-0.03C44.33,28.93,44.34,28.54,44.59,28.31z M44.63,30.67
	c-0.04,0.34-0.34,0.59-0.69,0.56c-0.34-0.04-0.59-0.34-0.55-0.68c0.04-0.34,0.34-0.59,0.68-0.56
	C44.42,30.03,44.66,30.33,44.63,30.67z M43.29,28.25c0.28-0.2,0.67-0.13,0.87,0.15c0.2,0.28,0.13,0.67-0.15,0.87
	c-0.28,0.2-0.67,0.13-0.87-0.15C42.95,28.84,43.01,28.45,43.29,28.25z M41.89,30.34c-0.2-0.28-0.13-0.67,0.16-0.87
	c0.28-0.2,0.67-0.13,0.87,0.16c0.2,0.28,0.13,0.67-0.16,0.87C42.47,30.7,42.09,30.63,41.89,30.34z M42.28,31.07
	c0.28-0.2,0.67-0.13,0.87,0.15c0.2,0.28,0.13,0.67-0.15,0.87c-0.28,0.2-0.67,0.13-0.87-0.15C41.93,31.65,41.99,31.26,42.28,31.07z
	 M43.33,33.36c-0.04,0.34-0.34,0.59-0.68,0.56c-0.34-0.04-0.59-0.34-0.56-0.68c0.04-0.34,0.34-0.59,0.68-0.56
	C43.12,32.71,43.37,33.02,43.33,33.36z M40.62,31.99c0.28-0.2,0.67-0.13,0.87,0.15c0.2,0.28,0.13,0.67-0.15,0.87
	c-0.28,0.2-0.67,0.13-0.87-0.15C40.27,32.58,40.34,32.19,40.62,31.99z M40.51,34.66c0,0.34-0.28,0.62-0.62,0.62
	c-0.34,0-0.62-0.28-0.62-0.62s0.28-0.62,0.62-0.62C40.23,34.04,40.51,34.32,40.51,34.66z M39.55,32.5c0.35,0,0.62,0.28,0.62,0.62
	c0,0.35-0.28,0.62-0.62,0.62c-0.34,0-0.62-0.28-0.62-0.62C38.93,32.78,39.21,32.5,39.55,32.5z M38.23,34.31
	c0.34,0,0.62,0.28,0.62,0.62c0,0.35-0.28,0.62-0.62,0.62c-0.34,0-0.62-0.28-0.62-0.62C37.61,34.58,37.89,34.31,38.23,34.31z
	 M37.27,35.18c0.34,0,0.62,0.28,0.62,0.62c0,0.35-0.28,0.62-0.62,0.62s-0.62-0.28-0.62-0.62C36.64,35.46,36.92,35.18,37.27,35.18z
	 M37.27,36.66c0.34,0,0.62,0.28,0.62,0.62c0,0.34-0.28,0.62-0.62,0.62s-0.62-0.28-0.62-0.62C36.64,36.94,36.92,36.66,37.27,36.66z
	 M35.84,37.31c0.34,0,0.62,0.28,0.62,0.62c0,0.34-0.28,0.62-0.62,0.62c-0.34,0-0.62-0.28-0.62-0.62
	C35.22,37.59,35.49,37.31,35.84,37.31z M33.83,38.84c0.06,0,0.12,0.01,0.18,0.03c-0.03-0.07-0.04-0.14-0.04-0.21
	c0-0.34,0.28-0.62,0.62-0.62c0.34,0,0.62,0.28,0.62,0.62c0,0.35-0.28,0.62-0.62,0.62c-0.06,0-0.12-0.01-0.18-0.03
	c0.03,0.06,0.04,0.13,0.04,0.2c0,0.34-0.28,0.62-0.62,0.62c-0.34,0-0.62-0.28-0.62-0.62C33.21,39.11,33.49,38.84,33.83,38.84z
	 M33.35,41.48c-0.34,0-0.62-0.28-0.62-0.62c0-0.35,0.28-0.62,0.62-0.62s0.62,0.28,0.62,0.62C33.97,41.2,33.69,41.48,33.35,41.48z
	 M34.14,40.38c0-0.34,0.28-0.62,0.62-0.62c0.34,0,0.62,0.28,0.62,0.62c0,0.35-0.28,0.62-0.62,0.62C34.42,41,34.14,40.73,34.14,40.38
	z M35.22,42.47c-0.35,0-0.62-0.28-0.62-0.62c0-0.35,0.28-0.62,0.62-0.62c0.34,0,0.62,0.28,0.62,0.62
	C35.84,42.2,35.56,42.47,35.22,42.47z M35.74,39.65c0-0.34,0.28-0.62,0.62-0.62c0.34,0,0.62,0.28,0.62,0.62
	c0,0.34-0.28,0.62-0.62,0.62C36.02,40.27,35.74,39.99,35.74,39.65z M36.8,41.85c-0.34,0-0.62-0.28-0.62-0.62
	c0-0.34,0.28-0.62,0.62-0.62c0.34,0,0.62,0.28,0.62,0.62C37.42,41.57,37.15,41.85,36.8,41.85z M38.13,39.33
	c-0.27,0.21-0.67,0.16-0.87-0.12c-0.21-0.27-0.16-0.66,0.12-0.87c0.27-0.21,0.67-0.16,0.87,0.12C38.46,38.73,38.4,39.12,38.13,39.33
	z M38.58,37.47c-0.31-0.16-0.44-0.53-0.28-0.84c0.15-0.31,0.52-0.43,0.83-0.28c0.31,0.15,0.43,0.53,0.28,0.84
	C39.26,37.49,38.89,37.62,38.58,37.47z M39.88,38.86c-0.27,0.21-0.67,0.16-0.87-0.12c-0.21-0.27-0.16-0.66,0.12-0.87
	c0.27-0.21,0.67-0.15,0.87,0.12C40.21,38.26,40.15,38.65,39.88,38.86z M40.71,36.68c-0.15,0.31-0.52,0.43-0.83,0.28
	c-0.31-0.16-0.44-0.53-0.28-0.84c0.15-0.31,0.52-0.43,0.83-0.28C40.74,36,40.86,36.38,40.71,36.68z M40.98,34.82
	c-0.31-0.15-0.43-0.52-0.28-0.83c0.15-0.31,0.52-0.44,0.83-0.28c0.31,0.15,0.43,0.52,0.28,0.83C41.66,34.84,41.29,34.97,40.98,34.82
	z M42.63,36.08c-0.15,0.31-0.52,0.43-0.83,0.28c-0.31-0.15-0.43-0.52-0.28-0.83c0.15-0.31,0.52-0.44,0.83-0.28
	C42.66,35.4,42.79,35.77,42.63,36.08z M43.89,34.94c-0.15,0.31-0.52,0.43-0.83,0.28c-0.31-0.15-0.43-0.52-0.28-0.83
	c0.15-0.31,0.52-0.44,0.83-0.28C43.92,34.26,44.05,34.63,43.89,34.94z M44.39,33.12c-0.34-0.04-0.59-0.34-0.56-0.68
	c0.04-0.34,0.34-0.59,0.69-0.56c0.34,0.04,0.59,0.34,0.55,0.68S44.73,33.16,44.39,33.12z M45.06,30.63
	c-0.23-0.25-0.22-0.65,0.03-0.88c0.25-0.23,0.64-0.22,0.88,0.03c0.23,0.25,0.22,0.65-0.03,0.88C45.69,30.89,45.3,30.87,45.06,30.63z
	 M46.29,32.15c-0.25,0.23-0.65,0.22-0.88-0.03c-0.24-0.25-0.22-0.65,0.03-0.88c0.25-0.23,0.65-0.22,0.88,0.03
	C46.56,31.52,46.54,31.92,46.29,32.15z M47.26,30.08c-0.31,0.15-0.68,0.01-0.83-0.3c-0.14-0.31-0.01-0.69,0.31-0.83
	c0.31-0.15,0.68-0.01,0.83,0.3C47.71,29.57,47.57,29.94,47.26,30.08z M48.35,28.11c-0.31,0.14-0.68,0-0.83-0.31
	c-0.14-0.31-0.01-0.68,0.31-0.83c0.31-0.14,0.68-0.01,0.83,0.31C48.8,27.59,48.66,27.96,48.35,28.11z M49.68,26.46
	c-0.31,0.14-0.68,0.01-0.82-0.31c-0.15-0.31-0.01-0.68,0.3-0.83c0.31-0.14,0.68-0.01,0.83,0.31C50.13,25.95,49.99,26.31,49.68,26.46
	z M51.63,26.17c0.14,0.31,0.01,0.68-0.31,0.82c-0.31,0.15-0.68,0.01-0.83-0.3c-0.14-0.31-0.01-0.68,0.31-0.83
	C51.12,25.72,51.49,25.86,51.63,26.17z M51.33,25.1c-0.31,0.15-0.68,0.01-0.83-0.3c-0.08-0.17-0.07-0.35,0-0.51
	c-0.27,0.05-0.55-0.09-0.67-0.35c-0.15-0.31-0.01-0.68,0.3-0.83c0.31-0.14,0.69-0.01,0.83,0.31c0.08,0.17,0.08,0.36,0.01,0.51
	c0.27-0.05,0.54,0.1,0.67,0.35C51.77,24.6,51.64,24.96,51.33,25.1z M51.55,23.11c-0.14-0.31-0.01-0.68,0.31-0.83
	c0.31-0.14,0.68-0.01,0.83,0.31c0.14,0.31,0.01,0.68-0.31,0.83C52.06,23.56,51.69,23.43,51.55,23.11z M53.5,24.31
	c-0.28,0.2-0.67,0.13-0.87-0.16c-0.2-0.28-0.13-0.67,0.16-0.86c0.28-0.2,0.67-0.13,0.87,0.15C53.85,23.73,53.78,24.12,53.5,24.31z
	 M54.4,22.97c-0.28,0.2-0.67,0.13-0.87-0.16c-0.2-0.28-0.13-0.67,0.16-0.87c0.28-0.2,0.67-0.13,0.87,0.16
	C54.75,22.39,54.68,22.78,54.4,22.97z"/>
<path fill="none" stroke="#1D1D1B" stroke-width="0.25" stroke-miterlimit="10" d="M33.35,41.48c-0.34,0-0.62-0.28-0.62-0.62
	c0-0.35,0.28-0.62,0.62-0.62s0.62,0.28,0.62,0.62C33.97,41.2,33.69,41.48,33.35,41.48z"/>
<path fill="none" stroke="#1D1D1B" stroke-width="0.25" stroke-miterlimit="10" d="M34.45,42.44c0,0.34-0.28,0.62-0.62,0.62
	c-0.03,0-0.05,0-0.08-0.01c-0.1-0.07-0.19-0.14-0.28-0.22c-0.09-0.09-0.18-0.17-0.25-0.27c0-0.04-0.01-0.09-0.01-0.13
	c0-0.35,0.28-0.62,0.62-0.62C34.17,41.82,34.45,42.1,34.45,42.44z"/>
<path fill="none" stroke="#1D1D1B" stroke-width="0.25" stroke-miterlimit="10" d="M33.21,39.46c0-0.34,0.28-0.62,0.62-0.62
	c0.06,0,0.12,0.01,0.18,0.03c-0.03-0.07-0.04-0.14-0.04-0.21c0-0.34,0.28-0.62,0.62-0.62c0.34,0,0.62,0.28,0.62,0.62
	c0,0.35-0.28,0.62-0.62,0.62c-0.06,0-0.12-0.01-0.18-0.03c0.03,0.06,0.04,0.13,0.04,0.2c0,0.34-0.28,0.62-0.62,0.62
	C33.49,40.08,33.21,39.8,33.21,39.46z"/>
<path fill="none" stroke="#1D1D1B" stroke-width="0.25" stroke-miterlimit="10" d="M35.39,40.38c0,0.35-0.28,0.62-0.62,0.62
	c-0.34,0-0.62-0.28-0.62-0.62c0-0.34,0.28-0.62,0.62-0.62C35.11,39.76,35.39,40.04,35.39,40.38z"/>
<path fill="none" stroke="#1D1D1B" stroke-width="0.25" stroke-miterlimit="10" d="M35.84,41.85c0,0.34-0.28,0.62-0.62,0.62
	c-0.35,0-0.62-0.28-0.62-0.62c0-0.35,0.28-0.62,0.62-0.62C35.56,41.23,35.84,41.51,35.84,41.85z"/>
<path fill="none" stroke="#1D1D1B" stroke-width="0.25" stroke-miterlimit="10" d="M35.22,37.94c0-0.35,0.28-0.62,0.62-0.62
	c0.34,0,0.62,0.28,0.62,0.62c0,0.34-0.28,0.62-0.62,0.62C35.49,38.56,35.22,38.28,35.22,37.94z"/>
<path fill="none" stroke="#1D1D1B" stroke-width="0.25" stroke-miterlimit="10" d="M36.36,40.27c-0.35,0-0.62-0.28-0.62-0.62
	c0-0.34,0.28-0.62,0.62-0.62c0.34,0,0.62,0.28,0.62,0.62C36.98,39.99,36.71,40.27,36.36,40.27z"/>
<path fill="none" stroke="#1D1D1B" stroke-width="0.25" stroke-miterlimit="10" d="M37.42,41.23c0,0.34-0.28,0.62-0.62,0.62
	c-0.34,0-0.62-0.28-0.62-0.62c0-0.34,0.28-0.62,0.62-0.62C37.15,40.61,37.42,40.89,37.42,41.23z"/>
<path fill="none" stroke="#1D1D1B" stroke-width="0.25" stroke-miterlimit="10" d="M36.64,37.29c0-0.35,0.28-0.62,0.62-0.62
	s0.62,0.28,0.62,0.62c0,0.34-0.28,0.62-0.62,0.62S36.64,37.63,36.64,37.29z"/>
<path fill="none" stroke="#1D1D1B" stroke-width="0.25" stroke-miterlimit="10" d="M36.64,35.8c0-0.34,0.28-0.62,0.62-0.62
	s0.62,0.28,0.62,0.62c0,0.35-0.28,0.62-0.62,0.62S36.64,36.15,36.64,35.8z"/>
<path fill="none" stroke="#1D1D1B" stroke-width="0.25" stroke-miterlimit="10" d="M38.13,39.33c-0.27,0.21-0.67,0.16-0.87-0.12
	c-0.21-0.27-0.16-0.66,0.12-0.87c0.27-0.21,0.67-0.16,0.87,0.12C38.46,38.73,38.4,39.12,38.13,39.33z"/>
<path fill="none" stroke="#1D1D1B" stroke-width="0.25" stroke-miterlimit="10" d="M37.61,34.93c0-0.34,0.28-0.62,0.62-0.62
	c0.34,0,0.62,0.28,0.62,0.62c0,0.35-0.28,0.62-0.62,0.62C37.89,35.55,37.61,35.27,37.61,34.93z"/>
<path fill="none" stroke="#1D1D1B" stroke-width="0.25" stroke-miterlimit="10" d="M38.98,39.98c0.17,0.23,0.16,0.53-0.01,0.75
	l-0.07,0.08c-0.02,0.02-0.03,0.04-0.05,0.05c-0.27,0.21-0.67,0.16-0.87-0.12c-0.21-0.27-0.16-0.66,0.12-0.87
	C38.38,39.65,38.77,39.7,38.98,39.98z"/>
<path fill="none" stroke="#1D1D1B" stroke-width="0.25" stroke-miterlimit="10" d="M39.13,36.35c0.31,0.15,0.43,0.53,0.28,0.84
	c-0.15,0.31-0.52,0.43-0.83,0.28c-0.31-0.16-0.44-0.53-0.28-0.84C38.45,36.32,38.82,36.2,39.13,36.35z"/>
<path fill="none" stroke="#1D1D1B" stroke-width="0.25" stroke-miterlimit="10" d="M38.93,33.12c0-0.34,0.28-0.62,0.62-0.62
	c0.35,0,0.62,0.28,0.62,0.62c0,0.35-0.28,0.62-0.62,0.62C39.21,33.75,38.93,33.47,38.93,33.12z"/>
<path fill="none" stroke="#1D1D1B" stroke-width="0.25" stroke-miterlimit="10" d="M39.89,34.04c0.34,0,0.62,0.28,0.62,0.62
	s-0.28,0.62-0.62,0.62c-0.34,0-0.62-0.28-0.62-0.62S39.54,34.04,39.89,34.04z"/>
<path fill="none" stroke="#1D1D1B" stroke-width="0.25" stroke-miterlimit="10" d="M40,37.99c0.21,0.27,0.16,0.67-0.12,0.87
	c-0.27,0.21-0.67,0.16-0.87-0.12c-0.21-0.27-0.16-0.66,0.12-0.87C39.4,37.66,39.79,37.72,40,37.99z"/>
<path fill="none" stroke="#1D1D1B" stroke-width="0.25" stroke-miterlimit="10" d="M40.71,36.68c-0.15,0.31-0.52,0.43-0.83,0.28
	c-0.31-0.16-0.44-0.53-0.28-0.84c0.15-0.31,0.52-0.43,0.83-0.28C40.74,36,40.86,36.38,40.71,36.68z"/>
<path fill="none" stroke="#1D1D1B" stroke-width="0.25" stroke-miterlimit="10" d="M41.47,37.22c0.18,0.23,0.17,0.54-0.01,0.76
	c-0.01,0.01-0.02,0.02-0.03,0.03c-0.03,0.03-0.06,0.06-0.09,0.08c-0.27,0.21-0.67,0.16-0.87-0.12c-0.21-0.28-0.16-0.67,0.12-0.87
	C40.88,36.89,41.27,36.95,41.47,37.22z"/>
<path fill="none" stroke="#1D1D1B" stroke-width="0.25" stroke-miterlimit="10" d="M40.47,32.86c-0.2-0.28-0.13-0.67,0.15-0.87
	c0.28-0.2,0.67-0.13,0.87,0.15c0.2,0.28,0.13,0.67-0.15,0.87C41.06,33.21,40.67,33.14,40.47,32.86z"/>
<path fill="none" stroke="#1D1D1B" stroke-width="0.25" stroke-miterlimit="10" d="M40.7,33.99c0.15-0.31,0.52-0.44,0.83-0.28
	c0.31,0.15,0.43,0.52,0.28,0.83c-0.15,0.31-0.52,0.43-0.83,0.28C40.67,34.67,40.55,34.3,40.7,33.99z"/>
<path fill="none" stroke="#1D1D1B" stroke-width="0.25" stroke-miterlimit="10" d="M40.96,31.31c-0.14-0.19-0.15-0.43-0.05-0.62
	l0.25-0.28c0.28-0.16,0.63-0.08,0.82,0.19c0.2,0.28,0.13,0.67-0.16,0.87C41.54,31.66,41.16,31.59,40.96,31.31z"/>
<path fill="none" stroke="#1D1D1B" stroke-width="0.25" stroke-miterlimit="10" d="M42.63,36.08c-0.15,0.31-0.52,0.43-0.83,0.28
	c-0.31-0.15-0.43-0.52-0.28-0.83c0.15-0.31,0.52-0.44,0.83-0.28C42.66,35.4,42.79,35.77,42.63,36.08z"/>
<path fill="none" stroke="#1D1D1B" stroke-width="0.25" stroke-miterlimit="10" d="M41.89,30.34c-0.2-0.28-0.13-0.67,0.16-0.87
	c0.28-0.2,0.67-0.13,0.87,0.16c0.2,0.28,0.13,0.67-0.16,0.87C42.47,30.7,42.09,30.63,41.89,30.34z"/>
<path fill="none" stroke="#1D1D1B" stroke-width="0.25" stroke-miterlimit="10" d="M42.12,31.93c-0.2-0.28-0.13-0.67,0.15-0.87
	c0.28-0.2,0.67-0.13,0.87,0.15c0.2,0.28,0.13,0.67-0.15,0.87C42.71,32.28,42.32,32.21,42.12,31.93z"/>
<path fill="none" stroke="#1D1D1B" stroke-width="0.25" stroke-miterlimit="10" d="M42.09,33.24c0.04-0.34,0.34-0.59,0.68-0.56
	c0.34,0.04,0.59,0.34,0.56,0.68c-0.04,0.34-0.34,0.59-0.68,0.56C42.31,33.88,42.06,33.58,42.09,33.24z"/>
<path fill="none" stroke="#1D1D1B" stroke-width="0.25" stroke-miterlimit="10" d="M43.89,34.94c-0.15,0.31-0.52,0.43-0.83,0.28
	c-0.31-0.15-0.43-0.52-0.28-0.83c0.15-0.31,0.52-0.44,0.83-0.28C43.92,34.26,44.05,34.63,43.89,34.94z"/>
<path fill="none" stroke="#1D1D1B" stroke-width="0.25" stroke-miterlimit="10" d="M43.14,29.12c-0.2-0.28-0.13-0.67,0.15-0.87
	c0.28-0.2,0.67-0.13,0.87,0.15c0.2,0.28,0.13,0.67-0.15,0.87C43.73,29.47,43.34,29.4,43.14,29.12z"/>
<path fill="none" stroke="#1D1D1B" stroke-width="0.25" stroke-miterlimit="10" d="M44.07,29.99c0.34,0.04,0.59,0.34,0.56,0.68
	c-0.04,0.34-0.34,0.59-0.69,0.56c-0.34-0.04-0.59-0.34-0.55-0.68C43.43,30.21,43.73,29.96,44.07,29.99z"/>
<path fill="none" stroke="#1D1D1B" stroke-width="0.25" stroke-miterlimit="10" d="M43.83,32.44c0.04-0.34,0.34-0.59,0.69-0.56
	c0.34,0.04,0.59,0.34,0.55,0.68s-0.34,0.59-0.68,0.56C44.04,33.09,43.8,32.78,43.83,32.44z"/>
<path fill="none" stroke="#1D1D1B" stroke-width="0.25" stroke-miterlimit="10" d="M45.19,33.81c0,0.04-0.01,0.07-0.02,0.1
	l-0.39,0.43c-0.09,0.03-0.18,0.04-0.27,0.03c-0.34-0.04-0.59-0.34-0.56-0.68c0.04-0.34,0.34-0.59,0.68-0.56
	C44.97,33.16,45.22,33.46,45.19,33.81z"/>
<path fill="none" stroke="#1D1D1B" stroke-width="0.25" stroke-miterlimit="10" d="M44.39,27.41c-0.1-0.14-0.13-0.29-0.1-0.44
	l0.47-0.52c0.24-0.06,0.5,0.04,0.65,0.25c0.2,0.28,0.13,0.67-0.15,0.87C44.97,27.76,44.58,27.69,44.39,27.41z"/>
<path fill="none" stroke="#1D1D1B" stroke-width="0.25" stroke-miterlimit="10" d="M44.56,29.19c-0.23-0.25-0.22-0.65,0.03-0.88
	c0.25-0.24,0.65-0.22,0.88,0.03c0.23,0.25,0.22,0.65-0.03,0.88C45.19,29.45,44.8,29.44,44.56,29.19z"/>
<path fill="none" stroke="#1D1D1B" stroke-width="0.25" stroke-miterlimit="10" d="M45.06,30.63c-0.23-0.25-0.22-0.65,0.03-0.88
	c0.25-0.23,0.64-0.22,0.88,0.03c0.23,0.25,0.22,0.65-0.03,0.88C45.69,30.89,45.3,30.87,45.06,30.63z"/>
<path fill="none" stroke="#1D1D1B" stroke-width="0.25" stroke-miterlimit="10" d="M46.33,31.27c0.23,0.25,0.22,0.65-0.04,0.88
	c-0.25,0.23-0.65,0.22-0.88-0.03c-0.24-0.25-0.22-0.65,0.03-0.88C45.7,31.01,46.09,31.03,46.33,31.27z"/>
<path fill="none" stroke="#1D1D1B" stroke-width="0.25" stroke-miterlimit="10" d="M45.53,26.62c-0.2-0.28-0.13-0.67,0.15-0.87
	c0.28-0.2,0.67-0.13,0.87,0.16c0.2,0.28,0.13,0.67-0.15,0.87C46.11,26.97,45.72,26.9,45.53,26.62z"/>
<path fill="none" stroke="#1D1D1B" stroke-width="0.25" stroke-miterlimit="10" d="M45.93,28.31c-0.15-0.31-0.01-0.68,0.3-0.83
	c0.31-0.14,0.68-0.01,0.83,0.31c0.14,0.31,0.01,0.68-0.31,0.82C46.44,28.76,46.07,28.63,45.93,28.31z"/>
<path fill="none" stroke="#1D1D1B" stroke-width="0.25" stroke-miterlimit="10" d="M47.57,29.26c0.14,0.31,0.01,0.69-0.31,0.83
	c-0.31,0.15-0.68,0.01-0.83-0.3c-0.14-0.31-0.01-0.69,0.31-0.83C47.05,28.81,47.42,28.94,47.57,29.26z"/>
<path fill="none" stroke="#1D1D1B" stroke-width="0.25" stroke-miterlimit="10" d="M46.85,24.9c-0.2-0.28-0.13-0.67,0.16-0.87
	c0.28-0.2,0.67-0.13,0.87,0.16c0.2,0.28,0.13,0.67-0.16,0.86c-0.05,0.04-0.1,0.06-0.16,0.08c0.22,0.02,0.42,0.15,0.52,0.36
	c0.15,0.31,0.01,0.69-0.3,0.83c-0.31,0.15-0.69,0.01-0.83-0.3c-0.15-0.31-0.01-0.69,0.3-0.83c0.03-0.01,0.06-0.03,0.08-0.03
	C47.15,25.15,46.97,25.06,46.85,24.9z"/>
<path fill="none" stroke="#1D1D1B" stroke-width="0.25" stroke-miterlimit="10" d="M48.65,27.28c0.14,0.31,0.01,0.68-0.31,0.83
	c-0.31,0.14-0.68,0-0.83-0.31c-0.14-0.31-0.01-0.68,0.31-0.83C48.14,26.83,48.51,26.97,48.65,27.28z"/>
<path fill="none" stroke="#1D1D1B" stroke-width="0.25" stroke-miterlimit="10" d="M48.17,23.54c-0.2-0.28-0.13-0.67,0.16-0.87
	c0.28-0.2,0.67-0.13,0.87,0.15c0.2,0.28,0.13,0.67-0.16,0.87S48.37,23.82,48.17,23.54z"/>
<path fill="none" stroke="#1D1D1B" stroke-width="0.25" stroke-miterlimit="10" d="M49.57,24.28c0.14,0.31,0.01,0.68-0.31,0.82
	c-0.31,0.15-0.68,0.01-0.83-0.3c-0.14-0.31-0.01-0.68,0.31-0.83C49.05,23.83,49.42,23.97,49.57,24.28z"/>
<path fill="none" stroke="#1D1D1B" stroke-width="0.25" stroke-miterlimit="10" d="M49.99,25.63c0.14,0.31,0.01,0.68-0.31,0.83
	c-0.31,0.14-0.68,0.01-0.82-0.31c-0.15-0.31-0.01-0.68,0.3-0.83C49.47,25.18,49.84,25.32,49.99,25.63z"/>
<path fill="none" stroke="#1D1D1B" stroke-width="0.25" stroke-miterlimit="10" d="M49.43,22.48c-0.2-0.28-0.13-0.67,0.15-0.87
	c0.28-0.2,0.67-0.13,0.87,0.15c0.2,0.28,0.13,0.67-0.15,0.87C50.01,22.83,49.62,22.76,49.43,22.48z"/>
<path fill="none" stroke="#1D1D1B" stroke-width="0.25" stroke-miterlimit="10" d="M51.63,26.17c0.14,0.31,0.01,0.68-0.31,0.82
	c-0.31,0.15-0.68,0.01-0.83-0.3c-0.14-0.31-0.01-0.68,0.31-0.83C51.12,25.72,51.49,25.86,51.63,26.17z"/>
<path fill="none" stroke="#1D1D1B" stroke-width="0.25" stroke-miterlimit="10" d="M50.5,24.29c-0.27,0.05-0.55-0.09-0.67-0.35
	c-0.15-0.31-0.01-0.68,0.3-0.83c0.31-0.14,0.69-0.01,0.83,0.31c0.08,0.17,0.08,0.36,0.01,0.51c0.27-0.05,0.54,0.1,0.67,0.35
	c0.14,0.31,0.01,0.68-0.31,0.82c-0.31,0.15-0.68,0.01-0.83-0.3C50.42,24.63,50.43,24.45,50.5,24.29z"/>
<path fill="none" stroke="#1D1D1B" stroke-width="0.25" stroke-miterlimit="10" d="M50.94,20.66c0.03-0.02,0.06-0.04,0.1-0.06
	c-0.05-0.03-0.09-0.08-0.12-0.13c-0.2-0.28-0.13-0.67,0.16-0.87c0.28-0.2,0.67-0.13,0.87,0.16c0.2,0.28,0.13,0.67-0.16,0.87
	c-0.03,0.02-0.06,0.04-0.09,0.06c0.04,0.04,0.08,0.08,0.11,0.12c0.2,0.28,0.13,0.67-0.15,0.87c-0.28,0.2-0.67,0.13-0.87-0.16
	C50.59,21.24,50.67,20.86,50.94,20.66z"/>
<path fill="none" stroke="#1D1D1B" stroke-width="0.25" stroke-miterlimit="10" d="M51.85,22.29c0.31-0.14,0.68-0.01,0.83,0.31
	c0.14,0.31,0.01,0.68-0.31,0.83c-0.31,0.14-0.68,0.01-0.83-0.31C51.41,22.8,51.54,22.43,51.85,22.29z"/>
<path fill="none" stroke="#1D1D1B" stroke-width="0.25" stroke-miterlimit="10" d="M52.8,25.15c0.05,0.1,0.06,0.2,0.06,0.29
	l-0.53,0.58c-0.27,0.05-0.54-0.1-0.66-0.35c-0.15-0.31-0.01-0.68,0.3-0.82C52.28,24.7,52.65,24.84,52.8,25.15z"/>
<path fill="none" stroke="#1D1D1B" stroke-width="0.25" stroke-miterlimit="10" d="M53.65,23.45c0.2,0.28,0.13,0.67-0.16,0.87
	c-0.28,0.2-0.67,0.13-0.87-0.16c-0.2-0.28-0.13-0.67,0.16-0.86C53.06,23.09,53.45,23.16,53.65,23.45z"/>
<path fill="none" stroke="#1D1D1B" stroke-width="0.25" stroke-miterlimit="10" d="M52.63,21.52c-0.2-0.28-0.13-0.67,0.16-0.86
	c0.28-0.2,0.67-0.13,0.87,0.15c0.2,0.28,0.13,0.67-0.16,0.87C53.22,21.87,52.83,21.8,52.63,21.52z"/>
<path fill="none" stroke="#1D1D1B" stroke-width="0.25" stroke-miterlimit="10" d="M54.4,22.97c-0.28,0.2-0.67,0.13-0.87-0.16
	c-0.2-0.28-0.13-0.67,0.16-0.87c0.28-0.2,0.67-0.13,0.87,0.16C54.75,22.39,54.68,22.78,54.4,22.97z"/>
<path fill="#D3D005" d="M35.84,41.85c0,0.34-0.28,0.62-0.62,0.62c-0.35,0-0.62-0.28-0.62-0.62c0-0.35,0.28-0.62,0.62-0.62
	C35.56,41.23,35.84,41.51,35.84,41.85z"/>
<path fill="#D3D005" d="M37.42,41.23c0,0.34-0.28,0.62-0.62,0.62c-0.34,0-0.62-0.28-0.62-0.62c0-0.34,0.28-0.62,0.62-0.62
	C37.15,40.61,37.42,40.89,37.42,41.23z"/>
<path fill="#D3D005" d="M35.39,40.38c0,0.35-0.28,0.62-0.62,0.62c-0.34,0-0.62-0.28-0.62-0.62c0-0.34,0.28-0.62,0.62-0.62
	C35.11,39.76,35.39,40.04,35.39,40.38z"/>
<path fill="#D3D005" d="M36.98,39.65c0,0.34-0.28,0.62-0.62,0.62c-0.35,0-0.62-0.28-0.62-0.62c0-0.34,0.28-0.62,0.62-0.62
	C36.71,39.03,36.98,39.31,36.98,39.65z"/>
<path fill="#D3D005" d="M36.46,37.94c0,0.34-0.28,0.62-0.62,0.62c-0.34,0-0.62-0.28-0.62-0.62c0-0.35,0.28-0.62,0.62-0.62
	C36.18,37.31,36.46,37.59,36.46,37.94z"/>
<path fill="#D3D005" d="M37.89,37.29c0,0.34-0.28,0.62-0.62,0.62s-0.62-0.28-0.62-0.62c0-0.35,0.28-0.62,0.62-0.62
	S37.89,36.94,37.89,37.29z"/>
<path fill="#D3D005" d="M37.89,35.8c0,0.35-0.28,0.62-0.62,0.62s-0.62-0.28-0.62-0.62c0-0.34,0.28-0.62,0.62-0.62
	S37.89,35.46,37.89,35.8z"/>
<path fill="#D3D005" d="M40.51,34.66c0,0.34-0.28,0.62-0.62,0.62c-0.34,0-0.62-0.28-0.62-0.62s0.28-0.62,0.62-0.62
	C40.23,34.04,40.51,34.32,40.51,34.66z"/>
<path fill="#D3D005" d="M38.85,34.93c0,0.35-0.28,0.62-0.62,0.62c-0.34,0-0.62-0.28-0.62-0.62c0-0.34,0.28-0.62,0.62-0.62
	C38.58,34.31,38.85,34.58,38.85,34.93z"/>
<path fill="#D3D005" d="M40.18,33.12c0,0.35-0.28,0.62-0.62,0.62c-0.34,0-0.62-0.28-0.62-0.62c0-0.34,0.28-0.62,0.62-0.62
	C39.9,32.5,40.18,32.78,40.18,33.12z"/>
<path fill="#D3D005" d="M41.34,33.01c-0.28,0.2-0.67,0.13-0.87-0.15c-0.2-0.28-0.13-0.67,0.15-0.87c0.28-0.2,0.67-0.13,0.87,0.15
	C41.69,32.43,41.62,32.81,41.34,33.01z"/>
<path fill="#D3D005" d="M42.99,32.08c-0.28,0.2-0.67,0.13-0.87-0.15c-0.2-0.28-0.13-0.67,0.15-0.87c0.28-0.2,0.67-0.13,0.87,0.15
	C43.34,31.5,43.27,31.89,42.99,32.08z"/>
<path fill="#D3D005" d="M41.82,31.46c-0.28,0.2-0.67,0.13-0.86-0.16c-0.14-0.19-0.15-0.43-0.05-0.62c0.04-0.1,0.11-0.18,0.2-0.25
	c0.02-0.01,0.03-0.02,0.05-0.03c0.28-0.16,0.63-0.08,0.82,0.19C42.17,30.88,42.1,31.27,41.82,31.46z"/>
<path fill="#D3D005" d="M42.75,30.5c-0.28,0.2-0.67,0.13-0.87-0.16c-0.2-0.28-0.13-0.67,0.16-0.87c0.28-0.2,0.67-0.13,0.87,0.16
	C43.11,29.92,43.04,30.3,42.75,30.5z"/>
<path fill="#D3D005" d="M44.01,29.27c-0.28,0.2-0.67,0.13-0.87-0.15c-0.2-0.28-0.13-0.67,0.15-0.87c0.28-0.2,0.67-0.13,0.87,0.15
	C44.36,28.69,44.29,29.08,44.01,29.27z"/>
<path fill="#D3D005" d="M45.25,27.57c-0.28,0.2-0.67,0.13-0.87-0.16c-0.1-0.14-0.13-0.29-0.1-0.44c0.02-0.17,0.11-0.32,0.25-0.42
	c0.07-0.05,0.14-0.08,0.22-0.1c0.24-0.06,0.5,0.04,0.65,0.25C45.6,26.98,45.54,27.37,45.25,27.57z"/>
<path fill="#D3D005" d="M46.39,26.77c-0.28,0.2-0.67,0.13-0.87-0.16c-0.2-0.28-0.13-0.67,0.15-0.87c0.28-0.2,0.67-0.13,0.87,0.16
	C46.74,26.19,46.67,26.58,46.39,26.77z"/>
<path fill="#D3D005" d="M50.29,22.63c-0.28,0.2-0.67,0.13-0.87-0.15c-0.2-0.28-0.13-0.67,0.15-0.87c0.28-0.2,0.67-0.13,0.87,0.15
	C50.64,22.05,50.57,22.43,50.29,22.63z"/>
<path fill="#D3D005" d="M51.66,21.68c-0.28,0.2-0.67,0.13-0.87-0.16c-0.2-0.28-0.13-0.67,0.15-0.86c0.03-0.02,0.06-0.04,0.1-0.06
	c0.22-0.11,0.47-0.07,0.66,0.09c0.04,0.04,0.08,0.08,0.11,0.12C52.01,21.09,51.94,21.48,51.66,21.68z"/>
<path fill="#D3D005" d="M49.04,23.69c-0.28,0.2-0.67,0.13-0.87-0.15c-0.2-0.28-0.13-0.67,0.16-0.87c0.28-0.2,0.67-0.13,0.87,0.15
	C49.39,23.11,49.32,23.5,49.04,23.69z"/>
<path fill="#D3D005" d="M47.72,25.05c-0.05,0.04-0.1,0.06-0.16,0.08c-0.07,0.03-0.15,0.04-0.23,0.03c-0.19-0.01-0.37-0.09-0.48-0.26
	c-0.2-0.28-0.13-0.67,0.16-0.87c0.28-0.2,0.67-0.13,0.87,0.16C48.07,24.46,48,24.85,47.72,25.05z"/>
<path fill="#D3D005" d="M53.5,21.68c-0.28,0.2-0.67,0.13-0.87-0.16c-0.2-0.28-0.13-0.67,0.16-0.86c0.28-0.2,0.67-0.13,0.87,0.15
	C53.85,21.09,53.78,21.48,53.5,21.68z"/>
<path fill="#D3D005" d="M51.78,20.63c-0.03,0.02-0.06,0.04-0.09,0.06c-0.22,0.1-0.48,0.07-0.66-0.09c-0.05-0.03-0.09-0.08-0.12-0.13
	c-0.2-0.28-0.13-0.67,0.16-0.87c0.28-0.2,0.67-0.13,0.87,0.16C52.14,20.05,52.07,20.44,51.78,20.63z"/>
<path fill="#D3D005" d="M54.4,22.97c-0.28,0.2-0.67,0.13-0.87-0.16c-0.2-0.28-0.13-0.67,0.16-0.87c0.28-0.2,0.67-0.13,0.87,0.16
	C54.75,22.39,54.68,22.78,54.4,22.97z"/>
<path fill="#D3D005" d="M53.5,24.31c-0.28,0.2-0.67,0.13-0.87-0.16c-0.2-0.28-0.13-0.67,0.16-0.86c0.28-0.2,0.67-0.13,0.87,0.15
	C53.85,23.73,53.78,24.12,53.5,24.31z"/>
<path fill="#D3D005" d="M52.85,25.44c-0.02,0.23-0.15,0.43-0.36,0.53c-0.05,0.03-0.11,0.04-0.17,0.05c-0.27,0.05-0.54-0.1-0.66-0.35
	c-0.15-0.31-0.01-0.68,0.3-0.82c0.31-0.15,0.68-0.01,0.83,0.3C52.84,25.25,52.86,25.35,52.85,25.44z"/>
<path fill="#D3D005" d="M51.33,25.1c-0.31,0.15-0.68,0.01-0.83-0.3c-0.08-0.17-0.07-0.35,0-0.51c0.06-0.13,0.17-0.25,0.31-0.31
	c0.06-0.02,0.11-0.04,0.16-0.05c0.27-0.05,0.54,0.1,0.67,0.35C51.77,24.6,51.64,24.96,51.33,25.1z"/>
<path fill="#D3D005" d="M52.37,23.42c-0.31,0.14-0.68,0.01-0.83-0.31c-0.14-0.31-0.01-0.68,0.31-0.83c0.31-0.14,0.68-0.01,0.83,0.31
	C52.82,22.91,52.69,23.28,52.37,23.42z"/>
<path fill="#D3D005" d="M50.97,23.93c-0.06,0.13-0.17,0.24-0.31,0.31c-0.05,0.03-0.11,0.04-0.16,0.05
	c-0.27,0.05-0.55-0.09-0.67-0.35c-0.15-0.31-0.01-0.68,0.3-0.83c0.31-0.14,0.69-0.01,0.83,0.31C51.04,23.59,51.04,23.77,50.97,23.93
	z"/>
<path fill="#D3D005" d="M49.26,25.1c-0.31,0.15-0.68,0.01-0.83-0.3c-0.14-0.31-0.01-0.68,0.31-0.83c0.31-0.14,0.68-0.01,0.83,0.31
	C49.71,24.6,49.57,24.96,49.26,25.1z"/>
<path fill="#D3D005" d="M49.68,26.46c-0.31,0.14-0.68,0.01-0.82-0.31c-0.15-0.31-0.01-0.68,0.3-0.83c0.31-0.14,0.68-0.01,0.83,0.31
	C50.13,25.95,49.99,26.31,49.68,26.46z"/>
<path fill="#D3D005" d="M51.33,26.99c-0.31,0.15-0.68,0.01-0.83-0.3c-0.14-0.31-0.01-0.68,0.31-0.83c0.31-0.14,0.68-0.01,0.83,0.31
	C51.77,26.48,51.64,26.85,51.33,26.99z"/>
<path fill="#D3D005" d="M48.35,28.11c-0.31,0.14-0.68,0-0.83-0.31c-0.14-0.31-0.01-0.68,0.31-0.83c0.31-0.14,0.68-0.01,0.83,0.31
	C48.8,27.59,48.66,27.96,48.35,28.11z"/>
<path fill="#D3D005" d="M47.78,26.31c-0.31,0.15-0.69,0.01-0.83-0.3c-0.15-0.31-0.01-0.69,0.3-0.83c0.03-0.01,0.06-0.03,0.08-0.03
	c0.08-0.03,0.15-0.03,0.23-0.03c0.22,0.02,0.42,0.15,0.52,0.36C48.23,25.8,48.09,26.17,47.78,26.31z"/>
<path fill="#D3D005" d="M46.75,28.62c-0.31,0.15-0.68,0.01-0.82-0.3c-0.15-0.31-0.01-0.68,0.3-0.83c0.31-0.14,0.68-0.01,0.83,0.31
	C47.2,28.11,47.06,28.48,46.75,28.62z"/>
<path fill="#D3D005" d="M47.26,30.08c-0.31,0.15-0.68,0.01-0.83-0.3c-0.14-0.31-0.01-0.69,0.31-0.83c0.31-0.15,0.68-0.01,0.83,0.3
	C47.71,29.57,47.57,29.94,47.26,30.08z"/>
<path fill="#D3D005" d="M46.29,32.15c-0.25,0.23-0.65,0.22-0.88-0.03c-0.24-0.25-0.22-0.65,0.03-0.88c0.25-0.23,0.65-0.22,0.88,0.03
	C46.56,31.52,46.54,31.92,46.29,32.15z"/>
<path fill="#D3D005" d="M45.94,30.66c-0.25,0.23-0.64,0.22-0.88-0.03c-0.23-0.25-0.22-0.65,0.03-0.88c0.25-0.23,0.64-0.22,0.88,0.03
	C46.21,30.03,46.2,30.42,45.94,30.66z"/>
<path fill="#D3D005" d="M44.63,30.67c-0.04,0.34-0.34,0.59-0.69,0.56c-0.34-0.04-0.59-0.34-0.55-0.68c0.04-0.34,0.34-0.59,0.68-0.56
	C44.42,30.03,44.66,30.33,44.63,30.67z"/>
<path fill="#D3D005" d="M45.07,32.56c-0.04,0.34-0.34,0.59-0.68,0.56c-0.34-0.04-0.59-0.34-0.56-0.68c0.04-0.34,0.34-0.59,0.69-0.56
	C44.85,31.92,45.1,32.22,45.07,32.56z"/>
<path fill="#D3D005" d="M43.33,33.36c-0.04,0.34-0.34,0.59-0.68,0.56c-0.34-0.04-0.59-0.34-0.56-0.68c0.04-0.34,0.34-0.59,0.68-0.56
	C43.12,32.71,43.37,33.02,43.33,33.36z"/>
<path fill="#D3D005" d="M45.19,33.81c0,0.04-0.01,0.07-0.02,0.1c-0.06,0.2-0.2,0.36-0.39,0.43c-0.09,0.03-0.18,0.04-0.27,0.03
	c-0.34-0.04-0.59-0.34-0.56-0.68c0.04-0.34,0.34-0.59,0.68-0.56C44.97,33.16,45.22,33.46,45.19,33.81z"/>
<path fill="#D3D005" d="M43.89,34.94c-0.15,0.31-0.52,0.43-0.83,0.28c-0.31-0.15-0.43-0.52-0.28-0.83c0.15-0.31,0.52-0.44,0.83-0.28
	C43.92,34.26,44.05,34.63,43.89,34.94z"/>
<path fill="#D3D005" d="M41.81,34.54c-0.15,0.31-0.52,0.43-0.83,0.28c-0.31-0.15-0.43-0.52-0.28-0.83c0.15-0.31,0.52-0.44,0.83-0.28
	C41.84,33.86,41.96,34.23,41.81,34.54z"/>
<path fill="#D3D005" d="M42.63,36.08c-0.15,0.31-0.52,0.43-0.83,0.28c-0.31-0.15-0.43-0.52-0.28-0.83c0.15-0.31,0.52-0.44,0.83-0.28
	C42.66,35.4,42.79,35.77,42.63,36.08z"/>
<path fill="#D3D005" d="M40.71,36.68c-0.15,0.31-0.52,0.43-0.83,0.28c-0.31-0.16-0.44-0.53-0.28-0.84c0.15-0.31,0.52-0.43,0.83-0.28
	C40.74,36,40.86,36.38,40.71,36.68z"/>
<path fill="#D3D005" d="M39.41,37.18c-0.15,0.31-0.52,0.43-0.83,0.28c-0.31-0.16-0.44-0.53-0.28-0.84c0.15-0.31,0.52-0.43,0.83-0.28
	C39.44,36.5,39.56,36.88,39.41,37.18z"/>
<path fill="#D3D005" d="M39.88,38.86c-0.27,0.21-0.67,0.16-0.87-0.12c-0.21-0.27-0.16-0.66,0.12-0.87c0.27-0.21,0.67-0.15,0.87,0.12
	C40.21,38.26,40.15,38.65,39.88,38.86z"/>
<path fill="#D3D005" d="M38.13,39.33c-0.27,0.21-0.67,0.16-0.87-0.12c-0.21-0.27-0.16-0.66,0.12-0.87c0.27-0.21,0.67-0.16,0.87,0.12
	C38.46,38.73,38.4,39.12,38.13,39.33z"/>
<path fill="#D3D005" d="M38.97,40.73l-0.07,0.08c-0.02,0.02-0.03,0.04-0.05,0.05c-0.27,0.21-0.67,0.16-0.87-0.12
	c-0.21-0.27-0.16-0.66,0.12-0.87c0.27-0.21,0.66-0.16,0.87,0.12C39.15,40.21,39.14,40.51,38.97,40.73z"/>
<path fill="#D3D005" d="M41.47,37.98c-0.01,0.01-0.02,0.02-0.03,0.03c-0.03,0.03-0.06,0.06-0.09,0.08
	c-0.27,0.21-0.67,0.16-0.87-0.12c-0.21-0.28-0.16-0.67,0.12-0.87c0.28-0.21,0.67-0.16,0.87,0.12
	C41.65,37.44,41.64,37.76,41.47,37.98z"/>
<path fill="#D3D005" d="M45.44,29.22c-0.25,0.24-0.64,0.22-0.88-0.03c-0.23-0.25-0.22-0.65,0.03-0.88c0.25-0.24,0.65-0.22,0.88,0.03
	C45.71,28.59,45.7,28.98,45.44,29.22z"/>
<path fill="#D3D005" d="M34.45,42.44c0,0.34-0.28,0.62-0.62,0.62c-0.03,0-0.05,0-0.08-0.01c-0.27-0.03-0.48-0.23-0.53-0.49
	c0-0.04-0.01-0.09-0.01-0.13c0-0.35,0.28-0.62,0.62-0.62C34.17,41.82,34.45,42.1,34.45,42.44z"/>
<path fill="#D3D005" d="M34.45,39.46c0,0.34-0.28,0.62-0.62,0.62c-0.34,0-0.62-0.28-0.62-0.62c0-0.34,0.28-0.62,0.62-0.62
	c0.06,0,0.12,0.01,0.18,0.03c0.19,0.05,0.35,0.2,0.41,0.39C34.44,39.32,34.45,39.39,34.45,39.46z"/>
<path fill="#D3D005" d="M33.97,40.86c0,0.34-0.28,0.62-0.62,0.62s-0.62-0.28-0.62-0.62c0-0.35,0.28-0.62,0.62-0.62
	S33.97,40.51,33.97,40.86z"/>
<path fill="#D3D005" d="M35.22,38.66c0,0.35-0.28,0.62-0.62,0.62c-0.06,0-0.12-0.01-0.18-0.03c-0.19-0.06-0.34-0.2-0.41-0.39
	c-0.03-0.07-0.04-0.14-0.04-0.21c0-0.34,0.28-0.62,0.62-0.62C34.93,38.04,35.22,38.32,35.22,38.66z"/>
</svg>
