<?xml version="1.0" encoding="utf-8"?>
<!-- Generator: Adobe Illustrator 28.1.0, SVG Export Plug-In . SVG Version: 6.00 Build 0)  -->
<svg version="1.1" id="Laag_1" xmlns="http://www.w3.org/2000/svg" xmlns:xlink="http://www.w3.org/1999/xlink" x="0px" y="0px"
	 viewBox="0 0 105.04 103.14" enable-background="new 0 0 105.04 103.14" xml:space="preserve">
<path fill="none" stroke="#1D1D1B" stroke-width="0.75" stroke-linecap="round" stroke-linejoin="round" stroke-miterlimit="10" d="
	M85.74,26.76H17.11c0-10.48,15.37-18.97,34.32-18.97C70.38,7.79,85.74,16.28,85.74,26.76z"/>
<path fill="none" stroke="#1D1D1B" stroke-width="0.75" stroke-linecap="round" stroke-linejoin="round" stroke-miterlimit="10" d="
	M84.35,42.99c0,9.48-15.36,17.16-34.31,17.16c-18.95,0-34.32-7.68-34.32-17.16H84.35z"/>
<g>
	<path fill="#F8B572" stroke="#1D1D1B" stroke-miterlimit="10" d="M214.59-112.42L214.59-112.42c-6.6,0-11.95-5.35-11.95-11.95V-128
		h22.82v4.71C225.46-117.29,220.59-112.42,214.59-112.42z"/>
	<path fill="#F8B572" stroke="#1D1D1B" stroke-miterlimit="10" d="M253.96-112.42L253.96-112.42c-8.43,0-15.26-6.83-15.26-15.26
		v-10.31h29.14v11.7C267.84-118.63,261.62-112.42,253.96-112.42z"/>
	<path fill="#3DA936" stroke="#000000" stroke-width="0.5" stroke-miterlimit="10" d="M250.12-98.11l1.06,0.16l2.09,4.23l3.26-3.41
		h0.01l-7.02-14.16l-10.99,11.42l2.09,4.23l3.27-3.41l1.16,0.17v0.04c-0.76,4.84-6.13,8.05-12.03,7.16
		c-5.92-0.89-10.09-5.54-9.33-10.39v-0.04l-5.03-0.76v0.04c-1.09,7.13,5.05,13.97,13.73,15.29c8.67,1.31,16.61-3.4,17.71-10.53
		L250.12-98.11z"/>
</g>
<g>
	<path fill="#FFFFFF" stroke="#1D1D1B" stroke-miterlimit="10" d="M95.83-106.83H85.68c-1.97,0-3.57-1.6-3.57-3.57l0,0
		c0-1.97,1.6-3.57,3.57-3.57h10.15c1.97,0,3.57,1.6,3.57,3.57l0,0C99.41-108.43,97.8-106.83,95.83-106.83z"/>
	<g>
		
			<line fill="none" stroke="#1D1D1B" stroke-miterlimit="10" stroke-dasharray="3.5812" x1="85.09" y1="-119.91" x2="88.67" y2="-119.91"/>
	</g>
	<circle fill="#FFEC00" stroke="#1D1D1B" stroke-miterlimit="10" cx="96.3" cy="-119.91" r="6.18"/>
	<circle fill="#FFFFFF" stroke="#1D1D1B" stroke-miterlimit="10" cx="84.92" cy="-114.92" r="3.85"/>
	<circle fill="#FFFFFF" stroke="#1D1D1B" stroke-miterlimit="10" cx="89.36" cy="-117.1" r="4.44"/>
	<circle fill="#FFFFFF" stroke="#1D1D1B" stroke-miterlimit="10" cx="96.12" cy="-114.28" r="4.15"/>
	<circle fill="#FFFFFF" stroke="#1D1D1B" stroke-miterlimit="10" cx="89.29" cy="-111" r="4.25"/>
	<circle fill="#FFFFFF" stroke="#1D1D1B" stroke-miterlimit="10" cx="98.81" cy="-111.53" r="4.25"/>
	<circle fill="#FFFFFF" stroke="#1D1D1B" stroke-miterlimit="10" cx="82.86" cy="-110.8" r="3.48"/>
	<g>
		
			<line fill="none" stroke="#1D1D1B" stroke-miterlimit="10" stroke-dasharray="3.5812" x1="96.3" y1="-131.12" x2="96.3" y2="-127.54"/>
	</g>
	<g>
		
			<line fill="none" stroke="#1D1D1B" stroke-miterlimit="10" stroke-dasharray="3.5812" x1="90.7" y1="-129.62" x2="92.49" y2="-126.52"/>
	</g>
	<g>
		
			<line fill="none" stroke="#1D1D1B" stroke-miterlimit="10" stroke-dasharray="3.5812" x1="86.6" y1="-125.52" x2="89.7" y2="-123.73"/>
	</g>
	<g>
		
			<line fill="none" stroke="#1D1D1B" stroke-miterlimit="10" stroke-dasharray="3.5812" x1="106.01" y1="-114.31" x2="102.91" y2="-116.1"/>
	</g>
	<g>
		
			<line fill="none" stroke="#1D1D1B" stroke-miterlimit="10" stroke-dasharray="3.5812" x1="107.51" y1="-119.91" x2="103.93" y2="-119.91"/>
	</g>
	<g>
		
			<line fill="none" stroke="#1D1D1B" stroke-miterlimit="10" stroke-dasharray="3.5812" x1="106.01" y1="-125.52" x2="102.91" y2="-123.73"/>
	</g>
	<g>
		
			<line fill="none" stroke="#1D1D1B" stroke-miterlimit="10" stroke-dasharray="3.5812" x1="101.91" y1="-129.62" x2="100.12" y2="-126.52"/>
	</g>
</g>
<g>
	<circle fill="#FFEC00" stroke="#1D1D1B" stroke-miterlimit="10" cx="132.78" cy="-118.99" r="6.94"/>
	<g>
		
			<line fill="none" stroke="#1D1D1B" stroke-miterlimit="10" stroke-dasharray="6.0535" x1="132.78" y1="-134.6" x2="132.78" y2="-128.54"/>
	</g>
	<g>
		
			<line fill="none" stroke="#1D1D1B" stroke-miterlimit="10" stroke-dasharray="6.0535" x1="124.97" y1="-132.51" x2="128" y2="-127.26"/>
	</g>
	<g>
		
			<line fill="none" stroke="#1D1D1B" stroke-miterlimit="10" stroke-dasharray="6.0535" x1="119.26" y1="-126.79" x2="124.5" y2="-123.77"/>
	</g>
	<g>
		
			<line fill="none" stroke="#1D1D1B" stroke-miterlimit="10" stroke-dasharray="6.0535" x1="117.17" y1="-118.99" x2="123.22" y2="-118.99"/>
	</g>
	<g>
		
			<line fill="none" stroke="#1D1D1B" stroke-miterlimit="10" stroke-dasharray="6.0535" x1="119.26" y1="-111.19" x2="124.5" y2="-114.21"/>
	</g>
	<g>
		
			<line fill="none" stroke="#1D1D1B" stroke-miterlimit="10" stroke-dasharray="6.0535" x1="124.97" y1="-105.47" x2="128" y2="-110.72"/>
	</g>
	<g>
		
			<line fill="none" stroke="#1D1D1B" stroke-miterlimit="10" stroke-dasharray="6.0535" x1="132.78" y1="-103.38" x2="132.78" y2="-109.44"/>
	</g>
	<g>
		
			<line fill="none" stroke="#1D1D1B" stroke-miterlimit="10" stroke-dasharray="6.0535" x1="140.58" y1="-105.47" x2="137.55" y2="-110.72"/>
	</g>
	<g>
		
			<line fill="none" stroke="#1D1D1B" stroke-miterlimit="10" stroke-dasharray="6.0535" x1="146.29" y1="-111.19" x2="141.05" y2="-114.21"/>
	</g>
	<g>
		
			<line fill="none" stroke="#1D1D1B" stroke-miterlimit="10" stroke-dasharray="6.0535" x1="148.38" y1="-118.99" x2="142.33" y2="-118.99"/>
	</g>
	<g>
		
			<line fill="none" stroke="#1D1D1B" stroke-miterlimit="10" stroke-dasharray="6.0535" x1="146.29" y1="-126.79" x2="141.05" y2="-123.77"/>
	</g>
	<g>
		
			<line fill="none" stroke="#1D1D1B" stroke-miterlimit="10" stroke-dasharray="6.0535" x1="140.58" y1="-132.51" x2="137.55" y2="-127.26"/>
	</g>
</g>
<g>
	<path fill="#D9D9D9" stroke="#B1B1B1" stroke-miterlimit="10" d="M20.69-117.31H10.54c-1.97,0-3.57-1.6-3.57-3.57v0
		c0-1.97,1.6-3.57,3.57-3.57h10.15c1.97,0,3.57,1.6,3.57,3.57v0C24.26-118.91,22.66-117.31,20.69-117.31z"/>
	<circle fill="#D9D9D9" stroke="#B1B1B1" stroke-miterlimit="10" cx="9.77" cy="-125.4" r="3.85"/>
	<circle fill="#D9D9D9" stroke="#B1B1B1" stroke-miterlimit="10" cx="14.21" cy="-127.58" r="4.44"/>
	<circle fill="#D9D9D9" stroke="#B1B1B1" stroke-miterlimit="10" cx="20.97" cy="-124.76" r="4.15"/>
	<circle fill="#D9D9D9" stroke="#B1B1B1" stroke-miterlimit="10" cx="14.14" cy="-121.48" r="4.25"/>
	<circle fill="#D9D9D9" stroke="#B1B1B1" stroke-miterlimit="10" cx="23.67" cy="-122.01" r="4.25"/>
	<circle fill="#D9D9D9" stroke="#B1B1B1" stroke-miterlimit="10" cx="7.72" cy="-121.28" r="3.48"/>
</g>
<g>
	<circle fill="#FFFFFF" stroke="#FFFFFF" stroke-width="2" stroke-miterlimit="10" cx="42.87" cy="-99.69" r="0.29"/>
	<line fill="none" stroke="#FFFFFF" stroke-width="2" stroke-miterlimit="10" x1="52.31" y1="-97.87" x2="55.69" y2="-103.92"/>
	<circle fill="none" stroke="#FFFFFF" stroke-width="2" stroke-miterlimit="10" cx="51.45" cy="-96.35" r="0.29"/>
	<g>
		<g>
			<path fill="#D9D9D9" stroke="#B1B1B1" stroke-miterlimit="10" d="M62.81-113.16H46.1c-1.31,0-2.37-1.06-2.37-2.37v-4.13
				c0-1.31,1.06-2.37,2.37-2.37h16.71c1.31,0,2.37,1.06,2.37,2.37v4.13C65.18-114.22,64.12-113.16,62.81-113.16z"/>
			<circle fill="#D9D9D9" stroke="#B1B1B1" stroke-miterlimit="10" cx="47.2" cy="-123.2" r="4.78"/>
			<circle fill="#D9D9D9" stroke="#B1B1B1" stroke-miterlimit="10" cx="52.72" cy="-125.89" r="5.51"/>
			<circle fill="#D9D9D9" stroke="#B1B1B1" stroke-miterlimit="10" cx="61.11" cy="-122.4" r="5.15"/>
			<circle fill="#D9D9D9" stroke="#B1B1B1" stroke-miterlimit="10" cx="52.63" cy="-118.33" r="5.27"/>
			<circle fill="#D9D9D9" stroke="#B1B1B1" stroke-miterlimit="10" cx="64.45" cy="-118.99" r="5.27"/>
			<circle fill="#D9D9D9" stroke="#B1B1B1" stroke-miterlimit="10" cx="44.65" cy="-118.07" r="4.32"/>
		</g>
		<line fill="none" stroke="#FFFFFF" stroke-width="2" stroke-miterlimit="10" x1="43.72" y1="-101.21" x2="47.11" y2="-107.26"/>
		<line fill="none" stroke="#FFFFFF" stroke-width="2" stroke-miterlimit="10" x1="51.93" y1="-106.97" x2="48.55" y2="-100.91"/>
		<circle fill="#FFFFFF" stroke="#FFFFFF" stroke-width="2" stroke-miterlimit="10" cx="52.79" cy="-108.49" r="0.29"/>
		<line fill="none" stroke="#FFFFFF" stroke-width="2" stroke-miterlimit="10" x1="61.29" y1="-108.51" x2="57.9" y2="-102.47"/>
		<circle fill="#FFFFFF" stroke="#FFFFFF" stroke-width="2" stroke-miterlimit="10" cx="62.14" cy="-110.04" r="0.29"/>
	</g>
</g>
<g>
	<g>
		<g>
			<path fill="#BD1622" stroke="#1D1D1B" stroke-width="0.25" stroke-miterlimit="10" d="M-46.98,77.22
				c-0.64,0.06-1.07-0.22-1.29-0.83c0.63-0.16,1.04-0.21,1.04-0.21S-47.1,76.58-46.98,77.22z"/>
			<path fill="#648F1E" stroke="#1D1D1B" stroke-width="0.25" stroke-miterlimit="10" d="M-47.78,83.56
				c-0.64,1.01-1.39,1.86-2.16,2.51l-5.1-3.25c0.26-0.97,0.72-2.01,1.36-3.02c1.35-2.12,3.95-3.04,5.41-3.4
				c0.22,0.61,0.65,0.89,1.29,0.83C-46.7,78.69-46.43,81.45-47.78,83.56z"/>
			<line fill="none" stroke="#1D1D1B" stroke-width="0.25" stroke-miterlimit="10" x1="-46.98" y1="77.22" x2="-46.98" y2="77.22"/>
		</g>
		<g>
			<path fill="#BD1622" stroke="#1D1D1B" stroke-width="0.25" stroke-miterlimit="10" d="M-63.11,76.57
				c-0.27,0.58-0.72,0.82-1.36,0.71c0.18-0.62,0.34-1.01,0.34-1.01S-63.73,76.35-63.11,76.57z"/>
			<path fill="#648F1E" stroke="#1D1D1B" stroke-width="0.25" stroke-miterlimit="10" d="M-58.02,80.42
				c0.55,1.06,0.92,2.13,1.09,3.12l-5.37,2.79c-0.71-0.71-1.38-1.63-1.93-2.68c-1.16-2.23-0.65-4.94-0.24-6.38
				c0.64,0.12,1.09-0.12,1.36-0.71C-61.7,77.05-59.18,78.2-58.02,80.42z"/>
			<line fill="none" stroke="#1D1D1B" stroke-width="0.25" stroke-miterlimit="10" x1="-63.11" y1="76.56" x2="-63.11" y2="76.57"/>
		</g>
		<g>
			<path fill="#BD1622" stroke="#1D1D1B" stroke-width="0.25" stroke-miterlimit="10" d="M-54.96,74.73
				c-0.53,0.37-1.04,0.35-1.53-0.07c0.47-0.45,0.8-0.7,0.8-0.7S-55.38,74.24-54.96,74.73z"/>
			<path fill="#648F1E" stroke="#1D1D1B" stroke-width="0.25" stroke-miterlimit="10" d="M-52.48,80.62
				c-0.05,1.19-0.27,2.3-0.62,3.25l-6.04-0.26c-0.26-0.97-0.38-2.1-0.33-3.29c0.11-2.51,1.9-4.61,2.98-5.65
				c0.5,0.42,1.01,0.44,1.53,0.07C-53.98,75.86-52.37,78.11-52.48,80.62z"/>
			<line fill="none" stroke="#1D1D1B" stroke-width="0.25" stroke-miterlimit="10" x1="-54.95" y1="74.73" x2="-54.96" y2="74.73"/>
		</g>
		<g>
			<path fill="#BD1622" stroke="#1D1D1B" stroke-width="0.25" stroke-miterlimit="10" d="M-71.75,90.21
				c0.37,0.53,0.35,1.04-0.07,1.53c-0.45-0.47-0.7-0.8-0.7-0.8S-72.24,90.63-71.75,90.21z"/>
			<path fill="#648F1E" stroke="#1D1D1B" stroke-width="0.25" stroke-miterlimit="10" d="M-65.86,87.73
				c1.19,0.05,2.3,0.27,3.25,0.62l-0.26,6.04c-0.97,0.26-2.1,0.38-3.29,0.33c-2.51-0.11-4.61-1.9-5.65-2.98
				c0.42-0.5,0.44-1.01,0.07-1.53C-70.62,89.22-68.37,87.62-65.86,87.73z"/>
			<line fill="none" stroke="#1D1D1B" stroke-width="0.25" stroke-miterlimit="10" x1="-71.75" y1="90.2" x2="-71.75" y2="90.21"/>
		</g>
		<g>
			<path fill="#BD1622" stroke="#1D1D1B" stroke-width="0.25" stroke-miterlimit="10" d="M-69.26,82.23
				c0.06,0.64-0.22,1.07-0.83,1.29c-0.16-0.63-0.21-1.04-0.21-1.04S-69.9,82.35-69.26,82.23z"/>
			<path fill="#648F1E" stroke="#1D1D1B" stroke-width="0.25" stroke-miterlimit="10" d="M-62.92,83.03
				c1.01,0.64,1.86,1.39,2.51,2.16l-3.25,5.1c-0.97-0.26-2.01-0.72-3.02-1.36c-2.12-1.35-3.04-3.95-3.4-5.41
				c0.61-0.22,0.89-0.65,0.83-1.29C-67.79,81.94-65.04,81.68-62.92,83.03z"/>
			<line fill="none" stroke="#1D1D1B" stroke-width="0.25" stroke-miterlimit="10" x1="-69.26" y1="82.22" x2="-69.26" y2="82.23"/>
		</g>
		<g>
			<path fill="#BD1622" stroke="#1D1D1B" stroke-width="0.25" stroke-miterlimit="10" d="M-64.25,104.51
				c0.64-0.06,1.07,0.22,1.29,0.83c-0.63,0.16-1.04,0.21-1.04,0.21S-64.13,105.15-64.25,104.51z"/>
			<path fill="#648F1E" stroke="#1D1D1B" stroke-width="0.25" stroke-miterlimit="10" d="M-63.46,98.17
				c0.64-1.01,1.39-1.86,2.16-2.51l5.1,3.25c-0.26,0.97-0.72,2.01-1.36,3.02c-1.35,2.12-3.95,3.04-5.41,3.4
				c-0.22-0.61-0.65-0.89-1.29-0.83C-64.54,103.04-64.8,100.29-63.46,98.17z"/>
			
				<line fill="none" stroke="#1D1D1B" stroke-width="0.25" stroke-miterlimit="10" x1="-64.26" y1="104.51" x2="-64.25" y2="104.51"/>
		</g>
		<g>
			<path fill="#BD1622" stroke="#1D1D1B" stroke-width="0.25" stroke-miterlimit="10" d="M-69.92,98.36
				c0.58,0.27,0.82,0.72,0.71,1.36c-0.62-0.18-1.01-0.34-1.01-0.34S-70.13,98.98-69.92,98.36z"/>
			<path fill="#648F1E" stroke="#1D1D1B" stroke-width="0.25" stroke-miterlimit="10" d="M-66.06,93.27
				c1.06-0.55,2.13-0.92,3.12-1.09l2.79,5.37c-0.71,0.71-1.63,1.38-2.68,1.93c-2.23,1.16-4.94,0.65-6.38,0.24
				c0.12-0.64-0.12-1.09-0.71-1.36C-69.43,96.95-68.28,94.43-66.06,93.27z"/>
			<line fill="none" stroke="#1D1D1B" stroke-width="0.25" stroke-miterlimit="10" x1="-69.92" y1="98.36" x2="-69.92" y2="98.36"/>
		</g>
		<g>
			<path fill="#BD1622" stroke="#1D1D1B" stroke-width="0.25" stroke-miterlimit="10" d="M-48.12,105.17
				c0.27-0.58,0.72-0.82,1.36-0.71c-0.18,0.62-0.34,1.01-0.34,1.01S-47.51,105.38-48.12,105.17z"/>
			<path fill="#648F1E" stroke="#1D1D1B" stroke-width="0.25" stroke-miterlimit="10" d="M-53.21,101.31
				c-0.55-1.06-0.92-2.13-1.09-3.12l5.37-2.79c0.71,0.71,1.38,1.63,1.93,2.68c1.16,2.23,0.65,4.94,0.24,6.38
				c-0.64-0.12-1.09,0.12-1.36,0.71C-49.54,104.68-52.05,103.53-53.21,101.31z"/>
			
				<line fill="none" stroke="#1D1D1B" stroke-width="0.25" stroke-miterlimit="10" x1="-48.12" y1="105.17" x2="-48.12" y2="105.17"/>
		</g>
		<g>
			<path fill="#BD1622" stroke="#1D1D1B" stroke-width="0.25" stroke-miterlimit="10" d="M-56.28,107c0.53-0.37,1.04-0.35,1.53,0.07
				c-0.47,0.45-0.8,0.7-0.8,0.7S-55.85,107.49-56.28,107z"/>
			<path fill="#648F1E" stroke="#1D1D1B" stroke-width="0.25" stroke-miterlimit="10" d="M-58.75,101.11
				c0.05-1.19,0.27-2.3,0.62-3.25l6.04,0.26c0.26,0.97,0.38,2.1,0.33,3.29c-0.11,2.51-1.9,4.61-2.98,5.65
				c-0.5-0.42-1.01-0.44-1.53-0.07C-57.26,105.87-58.86,103.62-58.75,101.11z"/>
			<line fill="none" stroke="#1D1D1B" stroke-width="0.25" stroke-miterlimit="10" x1="-56.28" y1="107" x2="-56.28" y2="107"/>
		</g>
		<g>
			<path fill="#BD1622" stroke="#1D1D1B" stroke-width="0.25" stroke-miterlimit="10" d="M-39.49,91.52
				c-0.37-0.53-0.35-1.04,0.07-1.53c0.45,0.47,0.7,0.8,0.7,0.8S-38.99,91.1-39.49,91.52z"/>
			<path fill="#648F1E" stroke="#1D1D1B" stroke-width="0.25" stroke-miterlimit="10" d="M-45.37,94c-1.19-0.05-2.3-0.27-3.25-0.62
				l0.26-6.04c0.97-0.26,2.1-0.38,3.29-0.33c2.51,0.11,4.61,1.9,5.65,2.98c-0.42,0.5-0.44,1.01-0.07,1.53
				C-40.62,92.51-42.87,94.11-45.37,94z"/>
			<line fill="none" stroke="#1D1D1B" stroke-width="0.25" stroke-miterlimit="10" x1="-39.48" y1="91.53" x2="-39.49" y2="91.52"/>
		</g>
		<g>
			<path fill="#BD1622" stroke="#1D1D1B" stroke-width="0.25" stroke-miterlimit="10" d="M-41.98,99.5
				c-0.06-0.64,0.22-1.07,0.83-1.29c0.16,0.63,0.21,1.04,0.21,1.04S-41.34,99.38-41.98,99.5z"/>
			<path fill="#648F1E" stroke="#1D1D1B" stroke-width="0.25" stroke-miterlimit="10" d="M-48.31,98.7
				c-1.01-0.64-1.86-1.39-2.51-2.16l3.25-5.1c0.97,0.26,2.01,0.72,3.02,1.36c2.12,1.35,3.04,3.95,3.4,5.41
				c-0.61,0.22-0.89,0.65-0.83,1.29C-43.45,99.79-46.2,100.05-48.31,98.7z"/>
			<line fill="none" stroke="#1D1D1B" stroke-width="0.25" stroke-miterlimit="10" x1="-41.98" y1="99.51" x2="-41.98" y2="99.5"/>
		</g>
		<g>
			<path fill="#BD1622" stroke="#1D1D1B" stroke-width="0.25" stroke-miterlimit="10" d="M-41.32,83.37
				c-0.58-0.27-0.82-0.72-0.71-1.36c0.62,0.18,1.01,0.34,1.01,0.34S-41.1,82.75-41.32,83.37z"/>
			<path fill="#648F1E" stroke="#1D1D1B" stroke-width="0.25" stroke-miterlimit="10" d="M-45.18,88.46
				c-1.06,0.55-2.13,0.92-3.12,1.09l-2.79-5.37c0.71-0.71,1.63-1.38,2.68-1.93c2.23-1.16,4.94-0.65,6.38-0.24
				c-0.12,0.64,0.12,1.09,0.71,1.36C-41.81,84.79-42.95,87.3-45.18,88.46z"/>
			<line fill="none" stroke="#1D1D1B" stroke-width="0.25" stroke-miterlimit="10" x1="-41.31" y1="83.37" x2="-41.32" y2="83.37"/>
		</g>
	</g>
	<g>
		<g>
			<path fill="#BD1622" stroke="#1D1D1B" stroke-width="0.25" stroke-miterlimit="10" d="M-52.73,79.56
				c-0.43,0.18-0.79,0.09-1.07-0.28c0.4-0.25,0.67-0.38,0.67-0.38S-52.96,79.15-52.73,79.56z"/>
			<path fill="#648F1E" stroke="#1D1D1B" stroke-width="0.25" stroke-miterlimit="10" d="M-51.86,84.09
				c-0.22,0.83-0.54,1.59-0.92,2.2l-4.23-1.09c-0.04-0.73,0.04-1.54,0.26-2.38c0.45-1.76,2.04-2.97,2.95-3.55
				c0.29,0.37,0.65,0.46,1.07,0.28C-52.21,80.51-51.41,82.34-51.86,84.09z"/>
			<line fill="none" stroke="#1D1D1B" stroke-width="0.25" stroke-miterlimit="10" x1="-52.73" y1="79.56" x2="-52.73" y2="79.56"/>
		</g>
		<g>
			<path fill="#BD1622" stroke="#1D1D1B" stroke-width="0.25" stroke-miterlimit="10" d="M-63.96,82.72
				c-0.06,0.46-0.31,0.73-0.78,0.79c-0.02-0.47,0.01-0.77,0.01-0.77S-64.43,82.71-63.96,82.72z"/>
			<path fill="#648F1E" stroke="#1D1D1B" stroke-width="0.25" stroke-miterlimit="10" d="M-59.61,84.23c0.62,0.6,1.1,1.26,1.45,1.9
				l-3.06,3.12c-0.65-0.33-1.31-0.81-1.93-1.41c-1.29-1.27-1.55-3.25-1.59-4.33c0.46-0.06,0.72-0.33,0.78-0.79
				C-62.88,82.74-60.9,82.96-59.61,84.23z"/>
			<line fill="none" stroke="#1D1D1B" stroke-width="0.25" stroke-miterlimit="10" x1="-63.96" y1="82.71" x2="-63.96" y2="82.72"/>
		</g>
		<g>
			<path fill="#BD1622" stroke="#1D1D1B" stroke-width="0.25" stroke-miterlimit="10" d="M-58.77,79.63
				c-0.28,0.37-0.64,0.47-1.07,0.29c0.22-0.41,0.39-0.66,0.39-0.66S-59.17,79.39-58.77,79.63z"/>
			<path fill="#648F1E" stroke="#1D1D1B" stroke-width="0.25" stroke-miterlimit="10" d="M-55.75,83.12
				c0.23,0.83,0.33,1.64,0.3,2.37l-4.21,1.17c-0.4-0.61-0.73-1.36-0.96-2.19c-0.49-1.75,0.28-3.59,0.79-4.55
				c0.43,0.18,0.79,0.08,1.07-0.29C-57.84,80.19-56.24,81.38-55.75,83.12z"/>
			<line fill="none" stroke="#1D1D1B" stroke-width="0.25" stroke-miterlimit="10" x1="-58.77" y1="79.63" x2="-58.77" y2="79.63"/>
		</g>
		<g>
			<path fill="#BD1622" stroke="#1D1D1B" stroke-width="0.25" stroke-miterlimit="10" d="M-66.85,94.02
				c0.37,0.28,0.47,0.64,0.29,1.07c-0.41-0.22-0.66-0.39-0.66-0.39S-67.09,94.42-66.85,94.02z"/>
			<path fill="#648F1E" stroke="#1D1D1B" stroke-width="0.25" stroke-miterlimit="10" d="M-63.36,91c0.83-0.23,1.64-0.33,2.37-0.3
				l1.17,4.21c-0.61,0.4-1.36,0.73-2.19,0.96c-1.75,0.49-3.59-0.28-4.55-0.79c0.18-0.43,0.08-0.79-0.29-1.07
				C-66.29,93.09-65.1,91.49-63.36,91z"/>
			<line fill="none" stroke="#1D1D1B" stroke-width="0.25" stroke-miterlimit="10" x1="-66.85" y1="94.02" x2="-66.85" y2="94.02"/>
		</g>
		<g>
			<path fill="#BD1622" stroke="#1D1D1B" stroke-width="0.25" stroke-miterlimit="10" d="M-66.92,87.98
				c0.18,0.43,0.09,0.79-0.28,1.07c-0.25-0.4-0.38-0.67-0.38-0.67S-67.33,88.21-66.92,87.98z"/>
			<path fill="#648F1E" stroke="#1D1D1B" stroke-width="0.25" stroke-miterlimit="10" d="M-62.39,87.11
				c0.83,0.22,1.59,0.54,2.2,0.92l-1.09,4.23c-0.73,0.04-1.54-0.04-2.38-0.26c-1.76-0.45-2.97-2.04-3.55-2.95
				c0.37-0.29,0.46-0.65,0.28-1.07C-65.97,87.46-64.14,86.66-62.39,87.11z"/>
			<line fill="none" stroke="#1D1D1B" stroke-width="0.25" stroke-miterlimit="10" x1="-66.92" y1="87.98" x2="-66.92" y2="87.98"/>
		</g>
		<g>
			<path fill="#BD1622" stroke="#1D1D1B" stroke-width="0.25" stroke-miterlimit="10" d="M-58.5,102.17
				c0.43-0.18,0.79-0.09,1.07,0.28c-0.4,0.25-0.67,0.38-0.67,0.38S-58.27,102.58-58.5,102.17z"/>
			<path fill="#648F1E" stroke="#1D1D1B" stroke-width="0.25" stroke-miterlimit="10" d="M-59.37,97.64
				c0.22-0.83,0.54-1.59,0.92-2.2l4.23,1.09c0.04,0.73-0.04,1.54-0.26,2.38c-0.45,1.76-2.04,2.97-2.95,3.55
				c-0.29-0.37-0.65-0.46-1.07-0.28C-59.03,101.22-59.82,99.39-59.37,97.64z"/>
			
				<line fill="none" stroke="#1D1D1B" stroke-width="0.25" stroke-miterlimit="10" x1="-58.51" y1="102.17" x2="-58.5" y2="102.17"/>
		</g>
		<g>
			<path fill="#BD1622" stroke="#1D1D1B" stroke-width="0.25" stroke-miterlimit="10" d="M-63.77,99.21
				c0.46,0.06,0.73,0.31,0.79,0.78c-0.47,0.02-0.77-0.01-0.77-0.01S-63.78,99.68-63.77,99.21z"/>
			<path fill="#648F1E" stroke="#1D1D1B" stroke-width="0.25" stroke-miterlimit="10" d="M-62.25,94.85c0.6-0.62,1.26-1.1,1.9-1.45
				l3.12,3.06c-0.33,0.65-0.81,1.31-1.41,1.93c-1.27,1.29-3.25,1.55-4.33,1.59c-0.06-0.46-0.33-0.72-0.79-0.78
				C-63.75,98.13-63.52,96.15-62.25,94.85z"/>
			<line fill="none" stroke="#1D1D1B" stroke-width="0.25" stroke-miterlimit="10" x1="-63.77" y1="99.21" x2="-63.77" y2="99.21"/>
		</g>
		<g>
			<path fill="#BD1622" stroke="#1D1D1B" stroke-width="0.25" stroke-miterlimit="10" d="M-47.27,99.01
				c0.06-0.46,0.31-0.73,0.78-0.79c0.02,0.47-0.01,0.77-0.01,0.77S-46.8,99.02-47.27,99.01z"/>
			<path fill="#648F1E" stroke="#1D1D1B" stroke-width="0.25" stroke-miterlimit="10" d="M-51.63,97.5c-0.62-0.6-1.1-1.26-1.45-1.9
				l3.06-3.12c0.65,0.33,1.31,0.81,1.93,1.41c1.29,1.27,1.55,3.25,1.59,4.33c-0.46,0.06-0.72,0.33-0.78,0.79
				C-48.35,99-50.34,98.77-51.63,97.5z"/>
			<line fill="none" stroke="#1D1D1B" stroke-width="0.25" stroke-miterlimit="10" x1="-47.27" y1="99.02" x2="-47.27" y2="99.01"/>
		</g>
		<g>
			<path fill="#BD1622" stroke="#1D1D1B" stroke-width="0.25" stroke-miterlimit="10" d="M-52.46,102.1
				c0.28-0.37,0.64-0.47,1.07-0.29c-0.22,0.41-0.39,0.66-0.39,0.66S-52.06,102.34-52.46,102.1z"/>
			<path fill="#648F1E" stroke="#1D1D1B" stroke-width="0.25" stroke-miterlimit="10" d="M-55.48,98.61
				c-0.23-0.83-0.33-1.64-0.3-2.37l4.21-1.17c0.4,0.61,0.73,1.36,0.96,2.19c0.49,1.75-0.28,3.59-0.79,4.55
				c-0.43-0.18-0.79-0.08-1.07,0.29C-53.39,101.54-55,100.35-55.48,98.61z"/>
			<line fill="none" stroke="#1D1D1B" stroke-width="0.25" stroke-miterlimit="10" x1="-52.47" y1="102.1" x2="-52.46" y2="102.1"/>
		</g>
		<g>
			<path fill="#BD1622" stroke="#1D1D1B" stroke-width="0.25" stroke-miterlimit="10" d="M-44.39,87.71
				c-0.37-0.28-0.47-0.64-0.29-1.07c0.41,0.22,0.66,0.39,0.66,0.39S-44.14,87.31-44.39,87.71z"/>
			<path fill="#648F1E" stroke="#1D1D1B" stroke-width="0.25" stroke-miterlimit="10" d="M-47.88,90.73
				c-0.83,0.23-1.64,0.33-2.37,0.3l-1.17-4.21c0.61-0.4,1.36-0.73,2.19-0.96c1.75-0.49,3.59,0.28,4.55,0.79
				c-0.18,0.43-0.08,0.79,0.29,1.07C-44.94,88.64-46.13,90.24-47.88,90.73z"/>
			<line fill="none" stroke="#1D1D1B" stroke-width="0.25" stroke-miterlimit="10" x1="-44.38" y1="87.71" x2="-44.39" y2="87.71"/>
		</g>
		<g>
			<path fill="#BD1622" stroke="#1D1D1B" stroke-width="0.25" stroke-miterlimit="10" d="M-44.31,93.75
				c-0.18-0.43-0.09-0.79,0.28-1.07c0.25,0.4,0.38,0.67,0.38,0.67S-43.9,93.52-44.31,93.75z"/>
			<path fill="#648F1E" stroke="#1D1D1B" stroke-width="0.25" stroke-miterlimit="10" d="M-48.85,94.62
				c-0.83-0.22-1.59-0.54-2.2-0.92l1.09-4.23c0.73-0.04,1.54,0.04,2.38,0.26c1.76,0.45,2.97,2.04,3.55,2.95
				c-0.37,0.29-0.46,0.65-0.28,1.07C-45.26,94.27-47.09,95.07-48.85,94.62z"/>
			<line fill="none" stroke="#1D1D1B" stroke-width="0.25" stroke-miterlimit="10" x1="-44.31" y1="93.75" x2="-44.31" y2="93.75"/>
		</g>
		<g>
			<path fill="#BD1622" stroke="#1D1D1B" stroke-width="0.25" stroke-miterlimit="10" d="M-47.47,82.52
				c-0.46-0.06-0.73-0.31-0.79-0.78c0.47-0.02,0.77,0.01,0.77,0.01S-47.46,82.05-47.47,82.52z"/>
			<path fill="#648F1E" stroke="#1D1D1B" stroke-width="0.25" stroke-miterlimit="10" d="M-48.98,86.88c-0.6,0.62-1.26,1.1-1.9,1.45
				L-54,85.26c0.33-0.65,0.81-1.31,1.41-1.93c1.27-1.29,3.25-1.55,4.33-1.59c0.06,0.46,0.33,0.72,0.79,0.78
				C-47.49,83.6-47.71,85.58-48.98,86.88z"/>
			<line fill="none" stroke="#1D1D1B" stroke-width="0.25" stroke-miterlimit="10" x1="-47.46" y1="82.52" x2="-47.47" y2="82.52"/>
		</g>
	</g>
	<g>
		
			<path fill="#BD1622" stroke="#1D1D1B" stroke-width="0.25" stroke-linecap="round" stroke-linejoin="round" stroke-miterlimit="10" d="
			M-55.74,90.89c-0.5,0.08-0.81,0.35-1.01,0.74v0c-0.3,0.42-0.81,0.75-1.25-0.28c-0.24-0.59,0.09-0.91,0.73-1.08
			C-56.92,90.75-56.35,90.85-55.74,90.89z"/>
		
			<path fill="#63902F" stroke="#1D1D1B" stroke-width="0.25" stroke-linecap="round" stroke-linejoin="round" stroke-miterlimit="10" d="
			M-56.4,93.94c-3.97-0.7-4.22-2.77-1.65-5.87c0.11,0.87,0.37,1.61,0.79,2.2c-0.64,0.17-0.97,0.49-0.73,1.08
			c0.44,1.02,0.95,0.69,1.25,0.28c-0.02,0.03-0.03,0.06-0.05,0.1C-56.9,92.6-56.77,93.34-56.4,93.94z"/>
	</g>
	<g>
		
			<path fill="#BD1622" stroke="#1D1D1B" stroke-width="0.25" stroke-linecap="round" stroke-linejoin="round" stroke-miterlimit="10" d="
			M-55.74,90.89c-0.39,0.31-0.53,0.71-0.5,1.15l0,0c-0.05,0.51-0.33,1.05-1.22,0.38c-0.5-0.39-0.38-0.83,0.09-1.3
			C-56.83,91.36-56.29,91.16-55.74,90.89z"/>
		
			<path fill="#63902F" stroke="#1D1D1B" stroke-width="0.25" stroke-linecap="round" stroke-linejoin="round" stroke-miterlimit="10" d="
			M-54.79,93.87c-3.79,1.37-5.04-0.29-4.36-4.25c0.53,0.7,1.13,1.2,1.79,1.51c-0.47,0.47-0.59,0.91-0.09,1.3
			c0.89,0.67,1.17,0.12,1.22-0.38c0,0.04,0,0.07,0.01,0.11C-55.88,92.96-55.4,93.53-54.79,93.87z"/>
	</g>
	<g>
		
			<path fill="#BD1622" stroke="#1D1D1B" stroke-width="0.25" stroke-linecap="round" stroke-linejoin="round" stroke-miterlimit="10" d="
			M-55.74,90.89c-0.18,0.47-0.1,0.88,0.14,1.25l0,0c0.21,0.47,0.24,1.08-0.87,0.94c-0.63-0.09-0.74-0.53-0.57-1.17
			C-56.45,91.84-56.08,91.39-55.74,90.89z"/>
		
			<path fill="#63902F" stroke="#1D1D1B" stroke-width="0.25" stroke-linecap="round" stroke-linejoin="round" stroke-miterlimit="10" d="
			M-53.43,92.99c-2.59,3.08-4.51,2.27-5.91-1.5c0.81,0.34,1.58,0.48,2.3,0.41c-0.17,0.64-0.06,1.09,0.57,1.17
			c1.1,0.13,1.08-0.48,0.87-0.94c0.02,0.03,0.04,0.06,0.06,0.09C-54.83,92.75-54.13,93.01-53.43,92.99z"/>
	</g>
	<g>
		
			<path fill="#BD1622" stroke="#1D1D1B" stroke-width="0.25" stroke-linecap="round" stroke-linejoin="round" stroke-miterlimit="10" d="
			M-55.74,90.89c0.08,0.5,0.35,0.81,0.74,1.01h0c0.42,0.3,0.75,0.81-0.28,1.25c-0.59,0.24-0.91-0.09-1.08-0.73
			C-55.88,92.07-55.78,91.5-55.74,90.89z"/>
		
			<path fill="#63902F" stroke="#1D1D1B" stroke-width="0.25" stroke-linecap="round" stroke-linejoin="round" stroke-miterlimit="10" d="
			M-52.68,91.56c-0.7,3.97-2.77,4.22-5.87,1.65c0.87-0.11,1.61-0.37,2.2-0.79c0.17,0.64,0.49,0.97,1.08,0.73
			c1.02-0.44,0.69-0.95,0.28-1.25c0.03,0.02,0.06,0.03,0.1,0.05C-54.02,92.05-53.29,91.92-52.68,91.56z"/>
	</g>
	<g>
		
			<path fill="#BD1622" stroke="#1D1D1B" stroke-width="0.25" stroke-linecap="round" stroke-linejoin="round" stroke-miterlimit="10" d="
			M-55.74,90.89c0.31,0.39,0.71,0.53,1.15,0.5l0,0c0.51,0.05,1.05,0.33,0.38,1.22c-0.39,0.5-0.83,0.38-1.3-0.09
			C-55.27,91.99-55.47,91.44-55.74,90.89z"/>
		
			<path fill="#63902F" stroke="#1D1D1B" stroke-width="0.25" stroke-linecap="round" stroke-linejoin="round" stroke-miterlimit="10" d="
			M-52.76,89.94c1.37,3.79-0.29,5.04-4.25,4.36c0.7-0.53,1.2-1.13,1.51-1.79c0.47,0.47,0.91,0.59,1.3,0.09
			c0.67-0.89,0.12-1.17-0.38-1.22c0.04,0,0.07,0,0.11-0.01C-53.67,91.04-53.1,90.56-52.76,89.94z"/>
	</g>
	<g>
		
			<path fill="#BD1622" stroke="#1D1D1B" stroke-width="0.25" stroke-linecap="round" stroke-linejoin="round" stroke-miterlimit="10" d="
			M-55.74,90.89c0.47,0.18,0.88,0.1,1.25-0.14l0,0c0.47-0.21,1.08-0.24,0.94,0.87c-0.09,0.63-0.53,0.74-1.17,0.57
			C-54.78,91.61-55.23,91.23-55.74,90.89z"/>
		
			<path fill="#63902F" stroke="#1D1D1B" stroke-width="0.25" stroke-linecap="round" stroke-linejoin="round" stroke-miterlimit="10" d="
			M-53.63,88.58c3.08,2.59,2.27,4.51-1.5,5.91c0.34-0.81,0.48-1.58,0.41-2.3c0.64,0.17,1.09,0.06,1.17-0.57
			c0.13-1.1-0.48-1.08-0.94-0.87c0.03-0.02,0.06-0.04,0.09-0.06C-53.87,89.98-53.62,89.28-53.63,88.58z"/>
	</g>
	<g>
		
			<path fill="#BD1622" stroke="#1D1D1B" stroke-width="0.25" stroke-linecap="round" stroke-linejoin="round" stroke-miterlimit="10" d="
			M-55.74,90.89c0.5-0.08,0.81-0.35,1.01-0.74v0c0.3-0.42,0.81-0.75,1.25,0.28c0.24,0.59-0.09,0.91-0.73,1.08
			C-54.55,91.03-55.13,90.93-55.74,90.89z"/>
		
			<path fill="#63902F" stroke="#1D1D1B" stroke-width="0.25" stroke-linecap="round" stroke-linejoin="round" stroke-miterlimit="10" d="
			M-55.07,87.84c3.97,0.7,4.22,2.77,1.65,5.87c-0.11-0.87-0.37-1.61-0.79-2.2c0.64-0.17,0.97-0.49,0.73-1.08
			c-0.44-1.02-0.95-0.69-1.25-0.28c0.02-0.03,0.03-0.06,0.05-0.1C-54.57,89.17-54.71,88.44-55.07,87.84z"/>
	</g>
	<g>
		
			<path fill="#BD1622" stroke="#1D1D1B" stroke-width="0.25" stroke-linecap="round" stroke-linejoin="round" stroke-miterlimit="10" d="
			M-55.74,90.89c0.39-0.31,0.53-0.71,0.5-1.15l0,0c0.05-0.51,0.33-1.05,1.22-0.38c0.5,0.39,0.38,0.83-0.09,1.3
			C-54.64,90.42-55.19,90.62-55.74,90.89z"/>
		
			<path fill="#63902F" stroke="#1D1D1B" stroke-width="0.25" stroke-linecap="round" stroke-linejoin="round" stroke-miterlimit="10" d="
			M-56.68,87.91c3.79-1.37,5.04,0.29,4.36,4.25c-0.53-0.7-1.13-1.2-1.79-1.51c0.47-0.47,0.59-0.91,0.09-1.3
			c-0.89-0.67-1.17-0.12-1.22,0.38c0-0.04,0-0.07-0.01-0.11C-55.59,88.82-56.07,88.25-56.68,87.91z"/>
	</g>
	<g>
		
			<path fill="#BD1622" stroke="#1D1D1B" stroke-width="0.25" stroke-linecap="round" stroke-linejoin="round" stroke-miterlimit="10" d="
			M-55.74,90.89c0.18-0.47,0.1-0.88-0.14-1.25l0,0c-0.21-0.47-0.24-1.08,0.87-0.94c0.63,0.09,0.74,0.53,0.57,1.17
			C-55.02,89.94-55.39,90.38-55.74,90.89z"/>
		
			<path fill="#63902F" stroke="#1D1D1B" stroke-width="0.25" stroke-linecap="round" stroke-linejoin="round" stroke-miterlimit="10" d="
			M-58.04,88.79c2.59-3.08,4.51-2.27,5.91,1.5c-0.81-0.34-1.58-0.48-2.3-0.41c0.17-0.64,0.06-1.09-0.57-1.17
			c-1.1-0.13-1.08,0.48-0.87,0.94c-0.02-0.03-0.04-0.06-0.06-0.09C-56.64,89.03-57.34,88.77-58.04,88.79z"/>
	</g>
	<g>
		
			<path fill="#BD1622" stroke="#1D1D1B" stroke-width="0.25" stroke-linecap="round" stroke-linejoin="round" stroke-miterlimit="10" d="
			M-55.74,90.89c-0.08-0.5-0.35-0.81-0.74-1.01h0c-0.42-0.3-0.75-0.81,0.28-1.25c0.59-0.24,0.91,0.09,1.08,0.73
			C-55.59,89.71-55.69,90.28-55.74,90.89z"/>
		
			<path fill="#63902F" stroke="#1D1D1B" stroke-width="0.25" stroke-linecap="round" stroke-linejoin="round" stroke-miterlimit="10" d="
			M-58.79,90.22c0.7-3.97,2.77-4.22,5.87-1.65c-0.87,0.11-1.61,0.37-2.2,0.79c-0.17-0.64-0.49-0.97-1.08-0.73
			c-1.02,0.44-0.69,0.95-0.28,1.25c-0.03-0.02-0.06-0.03-0.1-0.05C-57.45,89.73-58.19,89.86-58.79,90.22z"/>
	</g>
	<g>
		
			<path fill="#BD1622" stroke="#1D1D1B" stroke-width="0.25" stroke-linecap="round" stroke-linejoin="round" stroke-miterlimit="10" d="
			M-55.74,90.89c-0.31-0.39-0.71-0.53-1.15-0.5l0,0c-0.51-0.05-1.05-0.33-0.38-1.22c0.39-0.5,0.83-0.38,1.3,0.09
			C-56.2,89.79-56,90.34-55.74,90.89z"/>
		
			<path fill="#63902F" stroke="#1D1D1B" stroke-width="0.25" stroke-linecap="round" stroke-linejoin="round" stroke-miterlimit="10" d="
			M-58.71,91.84c-1.37-3.79,0.29-5.04,4.25-4.36c-0.7,0.53-1.2,1.13-1.51,1.79c-0.47-0.47-0.91-0.59-1.3-0.09
			c-0.67,0.89-0.12,1.17,0.38,1.22c-0.04,0-0.07,0-0.11,0.01C-57.8,90.74-58.37,91.22-58.71,91.84z"/>
	</g>
	<g>
		
			<path fill="#BD1622" stroke="#1D1D1B" stroke-width="0.25" stroke-linecap="round" stroke-linejoin="round" stroke-miterlimit="10" d="
			M-55.74,90.89c-0.47-0.18-0.88-0.1-1.25,0.14l0,0c-0.47,0.21-1.08,0.24-0.94-0.87c0.09-0.63,0.53-0.74,1.17-0.57
			C-56.69,90.17-56.24,90.55-55.74,90.89z"/>
		
			<path fill="#63902F" stroke="#1D1D1B" stroke-width="0.25" stroke-linecap="round" stroke-linejoin="round" stroke-miterlimit="10" d="
			M-57.84,93.2c-3.08-2.59-2.27-4.51,1.5-5.91c-0.34,0.81-0.48,1.58-0.41,2.3c-0.64-0.17-1.09-0.06-1.17,0.57
			c-0.13,1.1,0.48,1.08,0.94,0.87c-0.03,0.02-0.06,0.04-0.09,0.06C-57.6,91.79-57.85,92.5-57.84,93.2z"/>
	</g>
	<g>
		
			<path fill="#BD1622" stroke="#1D1D1B" stroke-width="0.25" stroke-linecap="round" stroke-linejoin="round" stroke-miterlimit="10" d="
			M-57.55,90.26c-0.47-0.18-0.88-0.1-1.25,0.14l0,0c-0.47,0.21-1.08,0.24-0.94-0.87c0.09-0.63,0.53-0.74,1.17-0.57
			C-58.5,89.54-58.05,89.91-57.55,90.26z"/>
		
			<path fill="#63902F" stroke="#1D1D1B" stroke-width="0.25" stroke-linecap="round" stroke-linejoin="round" stroke-miterlimit="10" d="
			M-59.65,92.57c-3.08-2.59-2.27-4.51,1.5-5.91c-0.34,0.81-0.48,1.58-0.41,2.3c-0.64-0.17-1.09-0.06-1.17,0.57
			c-0.13,1.1,0.48,1.08,0.94,0.87c-0.03,0.02-0.06,0.04-0.09,0.06C-59.41,91.16-59.67,91.86-59.65,92.57z"/>
	</g>
	<g>
		
			<path fill="#BD1622" stroke="#1D1D1B" stroke-width="0.25" stroke-linecap="round" stroke-linejoin="round" stroke-miterlimit="10" d="
			M-57.19,92.14c-0.39,0.31-0.53,0.71-0.5,1.15l0,0c-0.05,0.51-0.33,1.05-1.22,0.38c-0.5-0.39-0.38-0.83,0.09-1.3
			C-58.29,92.61-57.74,92.41-57.19,92.14z"/>
		
			<path fill="#63902F" stroke="#1D1D1B" stroke-width="0.25" stroke-linecap="round" stroke-linejoin="round" stroke-miterlimit="10" d="
			M-56.24,95.12c-3.79,1.37-5.04-0.29-4.36-4.25c0.53,0.7,1.13,1.2,1.79,1.51c-0.47,0.47-0.59,0.91-0.09,1.3
			c0.89,0.67,1.17,0.12,1.22-0.38c0,0.04,0,0.07,0.01,0.11C-57.34,94.21-56.86,94.78-56.24,95.12z"/>
	</g>
	<g>
		
			<path fill="#BD1622" stroke="#1D1D1B" stroke-width="0.25" stroke-linecap="round" stroke-linejoin="round" stroke-miterlimit="10" d="
			M-55.38,92.77c0.08,0.5,0.35,0.81,0.74,1.01h0c0.42,0.3,0.75,0.81-0.28,1.25c-0.59,0.24-0.91-0.09-1.08-0.73
			C-55.52,93.96-55.42,93.38-55.38,92.77z"/>
		
			<path fill="#63902F" stroke="#1D1D1B" stroke-width="0.25" stroke-linecap="round" stroke-linejoin="round" stroke-miterlimit="10" d="
			M-52.33,93.44c-0.7,3.97-2.77,4.22-5.87,1.65c0.87-0.11,1.61-0.37,2.2-0.79c0.17,0.64,0.49,0.97,1.08,0.73
			c1.02-0.44,0.69-0.95,0.28-1.25c0.03,0.02,0.06,0.03,0.1,0.05C-53.66,93.94-52.93,93.81-52.33,93.44z"/>
	</g>
	<g>
		
			<path fill="#BD1622" stroke="#1D1D1B" stroke-width="0.25" stroke-linecap="round" stroke-linejoin="round" stroke-miterlimit="10" d="
			M-53.92,91.52c0.47,0.18,0.88,0.1,1.25-0.14l0,0c0.47-0.21,1.08-0.24,0.94,0.87c-0.09,0.63-0.53,0.74-1.17,0.57
			C-52.97,92.24-53.42,91.86-53.92,91.52z"/>
		
			<path fill="#63902F" stroke="#1D1D1B" stroke-width="0.25" stroke-linecap="round" stroke-linejoin="round" stroke-miterlimit="10" d="
			M-51.82,89.21c3.08,2.59,2.27,4.51-1.5,5.91c0.34-0.81,0.48-1.58,0.41-2.3c0.64,0.17,1.09,0.06,1.17-0.57
			c0.13-1.1-0.48-1.08-0.94-0.87c0.03-0.02,0.06-0.04,0.09-0.06C-52.06,90.62-51.81,89.91-51.82,89.21z"/>
	</g>
	<g>
		
			<path fill="#BD1622" stroke="#1D1D1B" stroke-width="0.25" stroke-linecap="round" stroke-linejoin="round" stroke-miterlimit="10" d="
			M-54.28,89.64c0.39-0.31,0.53-0.71,0.5-1.15l0,0c0.05-0.51,0.33-1.05,1.22-0.38c0.5,0.39,0.38,0.83-0.09,1.3
			C-53.19,89.17-53.73,89.37-54.28,89.64z"/>
		
			<path fill="#63902F" stroke="#1D1D1B" stroke-width="0.25" stroke-linecap="round" stroke-linejoin="round" stroke-miterlimit="10" d="
			M-55.23,86.66c3.79-1.37,5.04,0.29,4.36,4.25c-0.53-0.7-1.13-1.2-1.79-1.51c0.47-0.47,0.59-0.91,0.09-1.3
			c-0.89-0.67-1.17-0.12-1.22,0.38c0-0.04,0-0.07-0.01-0.11C-54.13,87.57-54.62,87-55.23,86.66z"/>
	</g>
	<g>
		
			<path fill="#BD1622" stroke="#1D1D1B" stroke-width="0.25" stroke-linecap="round" stroke-linejoin="round" stroke-miterlimit="10" d="
			M-56.09,89c-0.08-0.5-0.35-0.81-0.74-1.01h0c-0.42-0.3-0.75-0.81,0.28-1.25c0.59-0.24,0.91,0.09,1.08,0.73
			C-55.95,87.82-56.05,88.39-56.09,89z"/>
		
			<path fill="#63902F" stroke="#1D1D1B" stroke-width="0.25" stroke-linecap="round" stroke-linejoin="round" stroke-miterlimit="10" d="
			M-59.15,88.34c0.7-3.97,2.77-4.22,5.87-1.65c-0.87,0.11-1.61,0.37-2.2,0.79c-0.17-0.64-0.49-0.97-1.08-0.73
			c-1.02,0.44-0.69,0.95-0.28,1.25c-0.03-0.02-0.06-0.03-0.1-0.05C-57.81,87.84-58.55,87.97-59.15,88.34z"/>
	</g>
</g>
<g>
	<path fill="none" stroke="#1D1D1B" stroke-linecap="round" stroke-miterlimit="10" d="M-21.12,58.49c0,0.09-0.08,0.17-0.17,0.17
		c-0.09,0-0.17-0.08-0.17-0.17c0-0.1,0.08-0.17,0.17-0.17C-21.2,58.31-21.12,58.39-21.12,58.49z"/>
	<path fill="none" stroke="#1D1D1B" stroke-linecap="round" stroke-miterlimit="10" d="M-21.33,58.1c0-0.09,0.08-0.17,0.17-0.17
		c0.02,0,0.03,0,0.05,0.01c-0.01-0.02-0.01-0.04-0.01-0.06c0-0.09,0.08-0.17,0.17-0.17c0.09,0,0.17,0.08,0.17,0.17
		c0,0.1-0.08,0.17-0.17,0.17c-0.02,0-0.03,0-0.05-0.01c0.01,0.02,0.01,0.03,0.01,0.05c0,0.09-0.08,0.17-0.17,0.17
		C-21.26,58.27-21.33,58.19-21.33,58.1z"/>
	<path fill="none" stroke="#1D1D1B" stroke-linecap="round" stroke-miterlimit="10" d="M-20.91,58.52c-0.09,0-0.17-0.08-0.17-0.17
		c0-0.09,0.08-0.17,0.17-0.17c0.09,0,0.17,0.08,0.17,0.17C-20.74,58.45-20.81,58.52-20.91,58.52z"/>
	<path fill="none" stroke="#1D1D1B" stroke-linecap="round" stroke-miterlimit="10" d="M-20.61,58.76c0,0.09-0.08,0.17-0.17,0.17
		c-0.1,0-0.17-0.08-0.17-0.17c0-0.1,0.08-0.17,0.17-0.17C-20.69,58.59-20.61,58.66-20.61,58.76z"/>
	<path fill="none" stroke="#1D1D1B" stroke-linecap="round" stroke-miterlimit="10" d="M-20.78,57.68c0-0.1,0.08-0.17,0.17-0.17
		c0.09,0,0.17,0.08,0.17,0.17c0,0.09-0.08,0.17-0.17,0.17C-20.71,57.85-20.78,57.78-20.78,57.68z"/>
	<path fill="none" stroke="#1D1D1B" stroke-linecap="round" stroke-miterlimit="10" d="M-20.47,58.32c-0.1,0-0.17-0.08-0.17-0.17
		c0-0.09,0.08-0.17,0.17-0.17c0.09,0,0.17,0.08,0.17,0.17C-20.3,58.25-20.37,58.32-20.47,58.32z"/>
	<path fill="none" stroke="#1D1D1B" stroke-linecap="round" stroke-miterlimit="10" d="M-20.18,58.59c0,0.09-0.08,0.17-0.17,0.17
		c-0.09,0-0.17-0.08-0.17-0.17c0-0.09,0.08-0.17,0.17-0.17C-20.25,58.42-20.18,58.49-20.18,58.59z"/>
	<path fill="none" stroke="#1D1D1B" stroke-linecap="round" stroke-miterlimit="10" d="M-20.39,57.51c0-0.1,0.08-0.17,0.17-0.17
		c0.09,0,0.17,0.08,0.17,0.17c0,0.09-0.08,0.17-0.17,0.17C-20.31,57.68-20.39,57.6-20.39,57.51z"/>
	<path fill="none" stroke="#1D1D1B" stroke-linecap="round" stroke-miterlimit="10" d="M-20.39,57.1c0-0.09,0.08-0.17,0.17-0.17
		c0.09,0,0.17,0.08,0.17,0.17c0,0.1-0.08,0.17-0.17,0.17C-20.31,57.27-20.39,57.19-20.39,57.1z"/>
	<path fill="none" stroke="#1D1D1B" stroke-linecap="round" stroke-miterlimit="10" d="M-19.95,57.83c0.06,0.07,0.04,0.18-0.03,0.24
		c-0.07,0.06-0.18,0.04-0.24-0.03c-0.06-0.07-0.04-0.18,0.03-0.24C-20.12,57.74-20.01,57.75-19.95,57.83z"/>
	<path fill="none" stroke="#1D1D1B" stroke-linecap="round" stroke-miterlimit="10" d="M-20.13,56.86c0-0.09,0.08-0.17,0.17-0.17
		c0.09,0,0.17,0.08,0.17,0.17c0,0.1-0.08,0.17-0.17,0.17C-20.05,57.03-20.13,56.95-20.13,56.86z"/>
	<path fill="none" stroke="#1D1D1B" stroke-linecap="round" stroke-miterlimit="10" d="M-19.86,57.55
		c-0.09-0.04-0.12-0.15-0.08-0.23c0.04-0.08,0.14-0.12,0.23-0.08c0.08,0.04,0.12,0.15,0.08,0.23
		C-19.67,57.56-19.78,57.6-19.86,57.55z"/>
	<path fill="none" stroke="#1D1D1B" stroke-linecap="round" stroke-miterlimit="10" d="M-19.76,56.36c0-0.09,0.08-0.17,0.17-0.17
		c0.1,0,0.17,0.08,0.17,0.17c0,0.1-0.08,0.17-0.17,0.17C-19.69,56.53-19.76,56.46-19.76,56.36z"/>
	<path fill="none" stroke="#1D1D1B" stroke-linecap="round" stroke-miterlimit="10" d="M-19.5,56.61c0.09,0,0.17,0.08,0.17,0.17
		c0,0.09-0.08,0.17-0.17,0.17c-0.09,0-0.17-0.08-0.17-0.17C-19.67,56.69-19.6,56.61-19.5,56.61z"/>
	<path fill="none" stroke="#1D1D1B" stroke-linecap="round" stroke-miterlimit="10" d="M-19.47,57.7c0.06,0.07,0.04,0.18-0.03,0.24
		c-0.07,0.06-0.18,0.04-0.24-0.03c-0.06-0.07-0.04-0.18,0.03-0.24C-19.64,57.61-19.53,57.62-19.47,57.7z"/>
	<path fill="none" stroke="#1D1D1B" stroke-linecap="round" stroke-miterlimit="10" d="M-19.28,57.34
		c-0.04,0.08-0.14,0.12-0.23,0.08c-0.09-0.04-0.12-0.15-0.08-0.23c0.04-0.08,0.14-0.12,0.23-0.08
		C-19.27,57.15-19.23,57.26-19.28,57.34z"/>
	<path fill="none" stroke="#1D1D1B" stroke-linecap="round" stroke-miterlimit="10" d="M-19.34,56.29
		c-0.05-0.08-0.04-0.18,0.04-0.24c0.08-0.05,0.18-0.04,0.24,0.04c0.05,0.08,0.04,0.18-0.04,0.24
		C-19.18,56.39-19.29,56.37-19.34,56.29z"/>
	<path fill="none" stroke="#1D1D1B" stroke-linecap="round" stroke-miterlimit="10" d="M-19.2,56.83c-0.08-0.04-0.12-0.14-0.08-0.23
		c0.04-0.09,0.14-0.12,0.23-0.08c0.08,0.04,0.12,0.14,0.08,0.23C-19.02,56.84-19.12,56.87-19.2,56.83z"/>
	<path fill="none" stroke="#1D1D1B" stroke-linecap="round" stroke-miterlimit="10" d="M-18.75,57.17
		c-0.04,0.08-0.14,0.12-0.23,0.08c-0.08-0.04-0.12-0.14-0.08-0.23c0.04-0.09,0.14-0.12,0.23-0.08
		C-18.74,56.99-18.71,57.09-18.75,57.17z"/>
	<path fill="none" stroke="#1D1D1B" stroke-linecap="round" stroke-miterlimit="10" d="M-18.95,55.6c-0.05-0.08-0.03-0.18,0.04-0.24
		c0.08-0.05,0.18-0.03,0.24,0.04c0.05,0.08,0.03,0.18-0.04,0.24C-18.79,55.7-18.9,55.68-18.95,55.6z"/>
	<path fill="none" stroke="#1D1D1B" stroke-linecap="round" stroke-miterlimit="10" d="M-18.89,56.04
		c-0.05-0.08-0.04-0.18,0.04-0.24c0.08-0.05,0.18-0.03,0.24,0.04c0.05,0.08,0.04,0.18-0.04,0.24
		C-18.73,56.13-18.83,56.11-18.89,56.04z"/>
	<path fill="none" stroke="#1D1D1B" stroke-linecap="round" stroke-miterlimit="10" d="M-18.56,56.43
		c-0.01,0.09-0.09,0.16-0.19,0.15c-0.09-0.01-0.16-0.09-0.15-0.19c0.01-0.09,0.09-0.16,0.19-0.15
		C-18.62,56.25-18.55,56.33-18.56,56.43z"/>
	<path fill="none" stroke="#1D1D1B" stroke-linecap="round" stroke-miterlimit="10" d="M-18.4,56.86c-0.04,0.08-0.14,0.12-0.23,0.08
		c-0.08-0.04-0.12-0.14-0.08-0.23c0.04-0.09,0.14-0.12,0.23-0.08C-18.39,56.67-18.36,56.78-18.4,56.86z"/>
	<path fill="none" stroke="#1D1D1B" stroke-linecap="round" stroke-miterlimit="10" d="M-18.61,55.27
		c-0.05-0.08-0.04-0.18,0.04-0.24c0.08-0.05,0.18-0.04,0.24,0.04c0.05,0.08,0.03,0.18-0.04,0.24
		C-18.45,55.36-18.56,55.34-18.61,55.27z"/>
	<path fill="none" stroke="#1D1D1B" stroke-linecap="round" stroke-miterlimit="10" d="M-18.35,55.51c0.09,0.01,0.16,0.09,0.15,0.19
		c-0.01,0.09-0.09,0.16-0.19,0.15c-0.09-0.01-0.16-0.09-0.15-0.19C-18.53,55.56-18.45,55.5-18.35,55.51z"/>
	<path fill="none" stroke="#1D1D1B" stroke-linecap="round" stroke-miterlimit="10" d="M-18.08,56.21
		c-0.01,0.09-0.09,0.16-0.19,0.15c-0.09-0.01-0.16-0.09-0.15-0.19c0.01-0.09,0.09-0.16,0.19-0.15
		C-18.14,56.03-18.07,56.12-18.08,56.21z"/>
	<path fill="none" stroke="#1D1D1B" stroke-linecap="round" stroke-miterlimit="10" d="M-18.22,55.28
		c-0.06-0.07-0.06-0.18,0.01-0.24c0.07-0.06,0.18-0.06,0.24,0.01c0.06,0.07,0.06,0.18-0.01,0.24
		C-18.05,55.36-18.15,55.35-18.22,55.28z"/>
	<path fill="none" stroke="#1D1D1B" stroke-linecap="round" stroke-miterlimit="10" d="M-18.08,55.68
		c-0.06-0.07-0.06-0.18,0.01-0.24c0.07-0.06,0.18-0.06,0.24,0.01c0.06,0.07,0.06,0.18-0.01,0.24
		C-17.91,55.75-18.02,55.75-18.08,55.68z"/>
	<path fill="none" stroke="#1D1D1B" stroke-linecap="round" stroke-miterlimit="10" d="M-17.74,55.86c0.06,0.07,0.06,0.18-0.01,0.24
		c-0.07,0.06-0.18,0.06-0.24-0.01c-0.06-0.07-0.06-0.18,0.01-0.24C-17.91,55.78-17.8,55.79-17.74,55.86z"/>
	<path fill="none" stroke="#1D1D1B" stroke-linecap="round" stroke-miterlimit="10" d="M-17.96,54.58
		c-0.05-0.08-0.04-0.18,0.04-0.24c0.08-0.05,0.18-0.03,0.24,0.04c0.05,0.08,0.04,0.18-0.04,0.24C-17.8,54.68-17.9,54.66-17.96,54.58
		z"/>
	<path fill="none" stroke="#1D1D1B" stroke-linecap="round" stroke-miterlimit="10" d="M-17.54,54.9c0.04,0.09,0,0.19-0.08,0.23
		c-0.09,0.04-0.19,0-0.23-0.08c-0.04-0.09,0-0.19,0.08-0.23C-17.68,54.78-17.58,54.82-17.54,54.9z"/>
	<path fill="none" stroke="#1D1D1B" stroke-linecap="round" stroke-miterlimit="10" d="M-17.4,55.3c0.04,0.09,0,0.19-0.08,0.23
		c-0.09,0.04-0.19,0-0.23-0.08c-0.04-0.09,0-0.19,0.08-0.23C-17.54,55.18-17.44,55.22-17.4,55.3z"/>
	<path fill="none" stroke="#1D1D1B" stroke-linecap="round" stroke-miterlimit="10" d="M-17.59,54.11
		c-0.05-0.08-0.03-0.18,0.04-0.24c0.08-0.05,0.18-0.03,0.24,0.04c0.05,0.08,0.03,0.18-0.04,0.24c-0.01,0.01-0.03,0.02-0.04,0.02
		c0.06,0,0.12,0.04,0.14,0.1c0.04,0.09,0,0.19-0.08,0.23c-0.09,0.04-0.19,0-0.23-0.08c-0.04-0.09,0-0.19,0.08-0.23
		c0.01,0,0.02-0.01,0.02-0.01C-17.51,54.18-17.56,54.15-17.59,54.11z"/>
	<path fill="none" stroke="#1D1D1B" stroke-linecap="round" stroke-miterlimit="10" d="M-17.1,54.76c0.04,0.09,0,0.19-0.08,0.23
		c-0.09,0.04-0.19,0-0.23-0.08c-0.04-0.09,0-0.19,0.08-0.23C-17.24,54.64-17.14,54.68-17.1,54.76z"/>
	<path fill="none" stroke="#1D1D1B" stroke-linecap="round" stroke-miterlimit="10" d="M-17.23,53.74
		c-0.05-0.08-0.03-0.18,0.04-0.24c0.08-0.05,0.18-0.03,0.24,0.04c0.05,0.08,0.03,0.18-0.04,0.24
		C-17.07,53.83-17.18,53.81-17.23,53.74z"/>
	<path fill="none" stroke="#1D1D1B" stroke-linecap="round" stroke-miterlimit="10" d="M-16.85,53.94c0.04,0.09,0,0.19-0.08,0.23
		c-0.09,0.04-0.19,0-0.23-0.08c-0.04-0.09,0-0.19,0.08-0.23C-16.99,53.82-16.89,53.85-16.85,53.94z"/>
	<path fill="none" stroke="#1D1D1B" stroke-linecap="round" stroke-miterlimit="10" d="M-16.73,54.31c0.04,0.09,0,0.19-0.08,0.23
		c-0.09,0.04-0.19,0-0.23-0.08c-0.04-0.09,0-0.19,0.08-0.23C-16.87,54.19-16.77,54.22-16.73,54.31z"/>
	<path fill="none" stroke="#1D1D1B" stroke-linecap="round" stroke-miterlimit="10" d="M-16.89,53.45
		c-0.05-0.08-0.04-0.18,0.04-0.24c0.08-0.05,0.18-0.04,0.24,0.04c0.05,0.08,0.04,0.18-0.04,0.24
		C-16.73,53.54-16.83,53.52-16.89,53.45z"/>
	<path fill="none" stroke="#1D1D1B" stroke-linecap="round" stroke-miterlimit="10" d="M-16.28,54.46c0.04,0.09,0,0.19-0.08,0.23
		c-0.09,0.04-0.19,0-0.23-0.08c-0.04-0.09,0-0.19,0.08-0.23C-16.42,54.34-16.32,54.37-16.28,54.46z"/>
	<path fill="none" stroke="#1D1D1B" stroke-linecap="round" stroke-miterlimit="10" d="M-16.28,53.94c0.04,0.09,0,0.19-0.08,0.23
		c-0.09,0.04-0.19,0-0.23-0.08c-0.02-0.05-0.02-0.1,0-0.14c-0.07,0.01-0.15-0.02-0.18-0.1c-0.04-0.09,0-0.19,0.08-0.23
		c0.09-0.04,0.19,0,0.23,0.08c0.02,0.05,0.02,0.1,0,0.14C-16.39,53.83-16.31,53.87-16.28,53.94z"/>
	<path fill="none" stroke="#1D1D1B" stroke-linecap="round" stroke-miterlimit="10" d="M-16.47,52.95c0.01-0.01,0.02-0.01,0.03-0.02
		c-0.01-0.01-0.02-0.02-0.03-0.03c-0.05-0.08-0.03-0.18,0.04-0.24c0.08-0.05,0.18-0.03,0.24,0.04c0.05,0.08,0.03,0.18-0.04,0.24
		c-0.01,0.01-0.02,0.01-0.02,0.02c0.01,0.01,0.02,0.02,0.03,0.03c0.05,0.08,0.04,0.18-0.04,0.24c-0.08,0.05-0.18,0.03-0.24-0.04
		C-16.57,53.11-16.55,53-16.47,52.95z"/>
	<path fill="none" stroke="#1D1D1B" stroke-linecap="round" stroke-miterlimit="10" d="M-16.08,53.7c-0.09,0.04-0.19,0-0.23-0.08
		c-0.04-0.09,0-0.19,0.08-0.23c0.09-0.04,0.19,0,0.23,0.08C-15.95,53.56-15.99,53.66-16.08,53.7z"/>
	<path fill="none" stroke="#1D1D1B" stroke-linecap="round" stroke-miterlimit="10" d="M-15.73,53.71c0.05,0.08,0.03,0.18-0.04,0.24
		c-0.08,0.05-0.18,0.03-0.24-0.04c-0.05-0.08-0.03-0.18,0.04-0.24C-15.89,53.61-15.78,53.63-15.73,53.71z"/>
	<path fill="none" stroke="#1D1D1B" stroke-linecap="round" stroke-miterlimit="10" d="M-16.01,53.18
		c-0.05-0.08-0.03-0.18,0.04-0.24c0.08-0.06,0.18-0.04,0.24,0.04c0.05,0.08,0.03,0.18-0.04,0.24
		C-15.85,53.28-15.95,53.26-16.01,53.18z"/>
	<path fill="none" stroke="#1D1D1B" stroke-linecap="round" stroke-miterlimit="10" d="M-15.48,53.34c0.05,0.08,0.03,0.18-0.04,0.24
		c-0.08,0.05-0.18,0.03-0.24-0.04c-0.05-0.08-0.03-0.18,0.04-0.24C-15.64,53.25-15.53,53.27-15.48,53.34z"/>
	<path fill="#E5007E" stroke="#1D1D1B" stroke-width="0.75" stroke-linecap="round" stroke-miterlimit="10" d="M-13.3,49.31
		c-11.86-5.24-23.76,12.13-8.56,10l0.7,0.67C-19.61,72.23-6.17,58.97-13.3,49.31z M-15.13,53.35l-0.82,0.91c0-0.03,0-0.05-0.02-0.08
		c-0.04-0.09-0.14-0.12-0.23-0.08c-0.09,0.04-0.12,0.14-0.08,0.23c0.03,0.07,0.11,0.11,0.18,0.1l-1.96,2.16c0-0.01,0-0.02,0.01-0.03
		c0.01-0.09-0.06-0.18-0.15-0.19c-0.09-0.01-0.18,0.06-0.19,0.15c-0.01,0.09,0.06,0.18,0.15,0.19c0.03,0,0.05,0,0.07-0.01l-0.91,1
		c0.05-0.06,0.05-0.15,0-0.21c-0.06-0.07-0.16-0.09-0.24-0.03c-0.07,0.06-0.09,0.16-0.03,0.24c0.06,0.07,0.16,0.09,0.24,0.03
		c0.01-0.01,0.02-0.01,0.02-0.02l-0.68,0.74c0.05-0.06,0.05-0.14,0-0.2c-0.06-0.08-0.16-0.09-0.24-0.03
		c-0.08,0.06-0.09,0.16-0.03,0.24c0.06,0.08,0.16,0.09,0.24,0.03l-0.45,0.49c-0.14,0.16-0.34,0.24-0.54,0.24
		c-0.14,0-0.29-0.04-0.41-0.13c0.01,0,0.01,0,0.02,0c0.09,0,0.17-0.08,0.17-0.17c0-0.1-0.08-0.17-0.17-0.17
		c-0.09,0-0.17,0.08-0.17,0.17c0,0.01,0,0.02,0,0.03c-0.23-0.27-0.23-0.68,0.02-0.96l2.09-2.3c-0.03,0.05-0.02,0.12,0.01,0.17
		c0.05,0.08,0.16,0.1,0.24,0.04c0.08-0.05,0.1-0.16,0.04-0.24c-0.05-0.07-0.15-0.09-0.23-0.05l0.86-0.94
		c-0.01,0.04,0,0.08,0.03,0.12c0.05,0.08,0.16,0.1,0.24,0.04c0.08-0.05,0.1-0.16,0.04-0.24c-0.04-0.06-0.11-0.08-0.18-0.07
		l1.96-2.16c0.27-0.3,0.73-0.32,1.03-0.05C-14.88,52.59-14.86,53.05-15.13,53.35z"/>
	<path fill="#B17F49" stroke="#1D1D1B" stroke-width="0.5" stroke-linecap="round" stroke-miterlimit="10" d="M-21.16,59.98
		c-2.75,2.87-4.87,5.86-5.71,9.11l-0.69-0.42c1.1-2.77,3.21-5.98,5.71-9.36L-21.16,59.98z"/>
	<path fill="none" stroke="#B5B5B5" stroke-width="0.25" stroke-miterlimit="10" d="M-21.51,49.49c-4.18,2.83-4.77,5.68-0.93,8.56"
		/>
	<path fill="none" stroke="#B5B5B5" stroke-width="0.25" stroke-miterlimit="10" d="M-17.96,48.88c-4.2,1.85-6.18,5.92-4.32,8.93"/>
	<path fill="none" stroke="#B5B5B5" stroke-width="0.25" stroke-miterlimit="10" d="M-17.41,50.08c-2.96,2.13-4.46,4.67-3.75,7.3"/>
	<path fill="none" stroke="#B5B5B5" stroke-width="0.25" stroke-miterlimit="10" d="M-13.3,52.13c-0.5,2.69-1.61,5.13-5.37,6.49"/>
	<path fill="none" stroke="#B5B5B5" stroke-width="0.25" stroke-miterlimit="10" d="M-11.97,54.75c0.02,1.23-3.35,5.13-6.69,4.74"/>
	<path fill="none" stroke="#B5B5B5" stroke-width="0.25" stroke-miterlimit="10" d="M-11.77,57.51c-1.44,2.44-3.52,3.83-6.98,2.96"
		/>
	<path fill="none" stroke="#B5B5B5" stroke-width="0.25" stroke-miterlimit="10" d="M-19.76,61.72c0.79,1.43,2.65,1.7,5.58,0.83"/>
	<path fill="none" stroke="#B5B5B5" stroke-width="0.25" stroke-miterlimit="10" d="M-26.5,52.67c-1.84,2.96-0.97,5.01,3.24,5.95"/>
	<path fill="#7E4E24" stroke="#1D1D1B" stroke-width="0.25" stroke-miterlimit="10" d="M-15.18,52.32c-0.3-0.27-0.76-0.25-1.03,0.05
		l-1.96,2.16c0.07-0.02,0.14,0.01,0.18,0.07c0.05,0.08,0.04,0.18-0.04,0.24c-0.08,0.05-0.18,0.03-0.24-0.04
		c-0.03-0.04-0.03-0.08-0.03-0.12l-0.86,0.94c0.08-0.04,0.17-0.02,0.23,0.05c0.05,0.08,0.03,0.18-0.04,0.24
		c-0.08,0.05-0.18,0.03-0.24-0.04c-0.04-0.05-0.04-0.12-0.01-0.17l-2.09,2.3c-0.25,0.27-0.25,0.68-0.02,0.96c0-0.01,0-0.02,0-0.03
		c0-0.1,0.08-0.17,0.17-0.17c0.09,0,0.17,0.08,0.17,0.17c0,0.09-0.08,0.17-0.17,0.17c-0.01,0-0.01,0-0.02,0
		c0.12,0.09,0.27,0.13,0.41,0.13c0.2,0,0.4-0.08,0.54-0.24l0.45-0.49c-0.07,0.06-0.18,0.04-0.24-0.03
		c-0.06-0.07-0.04-0.18,0.03-0.24c0.07-0.06,0.18-0.04,0.24,0.03c0.05,0.06,0.04,0.15,0,0.2l0.68-0.74
		c-0.01,0.01-0.02,0.02-0.02,0.02c-0.07,0.06-0.18,0.04-0.24-0.03c-0.06-0.08-0.04-0.18,0.03-0.24c0.08-0.06,0.18-0.04,0.24,0.03
		c0.05,0.06,0.05,0.15,0,0.21l0.91-1c-0.02,0.01-0.05,0.01-0.07,0.01c-0.09-0.01-0.16-0.09-0.15-0.19c0.01-0.09,0.09-0.16,0.19-0.15
		c0.09,0.01,0.16,0.09,0.15,0.19c0,0.01,0,0.02-0.01,0.03l1.96-2.16c-0.07,0.01-0.15-0.03-0.18-0.1c-0.04-0.08,0-0.19,0.08-0.23
		c0.09-0.04,0.19,0,0.23,0.08c0.01,0.03,0.02,0.05,0.02,0.08l0.82-0.91C-14.86,53.05-14.88,52.59-15.18,52.32z M-15.96,52.95
		c0.08-0.06,0.18-0.04,0.24,0.04c0.05,0.08,0.03,0.18-0.04,0.24c-0.08,0.05-0.18,0.03-0.24-0.04C-16.06,53.11-16.04,53-15.96,52.95z
		 M-16.48,52.9c-0.05-0.08-0.03-0.18,0.04-0.24c0.08-0.05,0.18-0.03,0.24,0.04c0.05,0.08,0.03,0.18-0.04,0.24
		c-0.01,0.01-0.02,0.01-0.02,0.02c0.01,0.01,0.02,0.02,0.03,0.03c0.05,0.08,0.04,0.18-0.04,0.24c-0.08,0.05-0.18,0.03-0.24-0.04
		c-0.05-0.08-0.03-0.18,0.04-0.24c0.01-0.01,0.02-0.01,0.03-0.02C-16.46,52.92-16.47,52.91-16.48,52.9z M-16.84,53.21
		c0.08-0.05,0.18-0.04,0.24,0.04c0.05,0.08,0.04,0.18-0.04,0.24c-0.08,0.05-0.18,0.04-0.24-0.04
		C-16.94,53.37-16.92,53.26-16.84,53.21z M-16.93,54.17c-0.09,0.04-0.19,0-0.23-0.08c-0.04-0.09,0-0.19,0.08-0.23
		c0.09-0.04,0.19,0,0.23,0.08C-16.81,54.03-16.85,54.13-16.93,54.17z M-17.19,53.5c0.08-0.05,0.18-0.03,0.24,0.04
		c0.05,0.08,0.03,0.18-0.04,0.24c-0.08,0.05-0.18,0.04-0.24-0.04C-17.28,53.66-17.26,53.55-17.19,53.5z M-17.55,53.87
		c0.08-0.05,0.18-0.03,0.24,0.04c0.05,0.08,0.03,0.18-0.04,0.24c-0.01,0.01-0.03,0.02-0.04,0.02c0.06,0,0.12,0.04,0.14,0.1
		c0.04,0.09,0,0.19-0.08,0.23c-0.09,0.04-0.19,0-0.23-0.08c-0.04-0.09,0-0.19,0.08-0.23c0.01,0,0.02-0.01,0.02-0.01
		c-0.05,0-0.1-0.02-0.13-0.07C-17.65,54.03-17.63,53.92-17.55,53.87z M-17.62,55.13c-0.09,0.04-0.19,0-0.23-0.08
		c-0.04-0.09,0-0.19,0.08-0.23c0.09-0.04,0.19,0,0.23,0.08C-17.5,54.99-17.53,55.09-17.62,55.13z M-17.91,54.34
		c0.08-0.05,0.18-0.03,0.24,0.04c0.05,0.08,0.04,0.18-0.04,0.24c-0.08,0.05-0.18,0.03-0.24-0.04C-18.01,54.5-17.99,54.4-17.91,54.34
		z M-18.21,55.04c0.07-0.06,0.18-0.06,0.24,0.01c0.06,0.07,0.06,0.18-0.01,0.24c-0.07,0.06-0.18,0.06-0.24-0.01
		C-18.28,55.22-18.28,55.11-18.21,55.04z M-18.2,55.69c-0.01,0.09-0.09,0.16-0.19,0.15c-0.09-0.01-0.16-0.09-0.15-0.19
		c0.01-0.09,0.09-0.16,0.19-0.15C-18.26,55.52-18.19,55.6-18.2,55.69z M-18.57,55.03c0.08-0.05,0.18-0.04,0.24,0.04
		c0.05,0.08,0.03,0.18-0.04,0.24c-0.08,0.05-0.18,0.03-0.24-0.04C-18.66,55.19-18.65,55.08-18.57,55.03z M-18.95,55.6
		c-0.05-0.08-0.03-0.18,0.04-0.24c0.08-0.05,0.18-0.03,0.24,0.04c0.05,0.08,0.03,0.18-0.04,0.24C-18.79,55.7-18.9,55.68-18.95,55.6z
		 M-18.85,55.8c0.08-0.05,0.18-0.03,0.24,0.04c0.05,0.08,0.04,0.18-0.04,0.24c-0.08,0.05-0.18,0.04-0.24-0.04
		S-18.92,55.85-18.85,55.8z M-18.56,56.43c-0.01,0.09-0.09,0.16-0.19,0.15c-0.09-0.01-0.16-0.09-0.15-0.19
		c0.01-0.09,0.09-0.16,0.19-0.15C-18.62,56.25-18.55,56.33-18.56,56.43z M-19.3,56.05c0.08-0.05,0.18-0.04,0.24,0.04
		c0.05,0.08,0.04,0.18-0.04,0.24c-0.08,0.05-0.18,0.04-0.24-0.04C-19.4,56.21-19.38,56.11-19.3,56.05z M-19.33,56.78
		c0,0.09-0.08,0.17-0.17,0.17c-0.09,0-0.17-0.08-0.17-0.17c0-0.09,0.08-0.17,0.17-0.17C-19.41,56.61-19.33,56.69-19.33,56.78z
		 M-19.59,56.19c0.1,0,0.17,0.08,0.17,0.17c0,0.1-0.08,0.17-0.17,0.17c-0.09,0-0.17-0.08-0.17-0.17
		C-19.76,56.27-19.69,56.19-19.59,56.19z M-19.95,56.69c0.09,0,0.17,0.08,0.17,0.17c0,0.1-0.08,0.17-0.17,0.17
		c-0.09,0-0.17-0.08-0.17-0.17C-20.13,56.76-20.05,56.69-19.95,56.69z M-20.22,56.93c0.09,0,0.17,0.08,0.17,0.17
		c0,0.1-0.08,0.17-0.17,0.17c-0.09,0-0.17-0.08-0.17-0.17C-20.39,57-20.31,56.93-20.22,56.93z M-20.22,57.33
		c0.09,0,0.17,0.08,0.17,0.17c0,0.09-0.08,0.17-0.17,0.17c-0.09,0-0.17-0.08-0.17-0.17C-20.39,57.41-20.31,57.33-20.22,57.33z
		 M-20.61,57.51c0.09,0,0.17,0.08,0.17,0.17c0,0.09-0.08,0.17-0.17,0.17c-0.09,0-0.17-0.08-0.17-0.17
		C-20.78,57.59-20.71,57.51-20.61,57.51z M-21.16,57.93c0.02,0,0.03,0,0.05,0.01c-0.01-0.02-0.01-0.04-0.01-0.06
		c0-0.09,0.08-0.17,0.17-0.17c0.09,0,0.17,0.08,0.17,0.17c0,0.1-0.08,0.17-0.17,0.17c-0.02,0-0.03,0-0.05-0.01
		c0.01,0.02,0.01,0.03,0.01,0.05c0,0.09-0.08,0.17-0.17,0.17c-0.09,0-0.17-0.08-0.17-0.17C-21.33,58.01-21.26,57.93-21.16,57.93z
		 M-21.3,58.66c-0.09,0-0.17-0.08-0.17-0.17c0-0.1,0.08-0.17,0.17-0.17c0.09,0,0.17,0.08,0.17,0.17
		C-21.12,58.58-21.2,58.66-21.3,58.66z M-21.08,58.35c0-0.09,0.08-0.17,0.17-0.17c0.09,0,0.17,0.08,0.17,0.17
		c0,0.1-0.08,0.17-0.17,0.17C-21,58.52-21.08,58.45-21.08,58.35z M-20.78,58.93c-0.1,0-0.17-0.08-0.17-0.17
		c0-0.1,0.08-0.17,0.17-0.17c0.09,0,0.17,0.08,0.17,0.17C-20.61,58.85-20.69,58.93-20.78,58.93z M-20.64,58.15
		c0-0.09,0.08-0.17,0.17-0.17c0.09,0,0.17,0.08,0.17,0.17c0,0.09-0.08,0.17-0.17,0.17C-20.56,58.32-20.64,58.25-20.64,58.15z
		 M-20.35,58.76c-0.09,0-0.17-0.08-0.17-0.17c0-0.09,0.08-0.17,0.17-0.17c0.09,0,0.17,0.08,0.17,0.17
		C-20.18,58.68-20.25,58.76-20.35,58.76z M-19.98,58.07c-0.07,0.06-0.18,0.04-0.24-0.03c-0.06-0.07-0.04-0.18,0.03-0.24
		c0.07-0.06,0.18-0.04,0.24,0.03C-19.89,57.9-19.91,58.01-19.98,58.07z M-19.86,57.55c-0.09-0.04-0.12-0.15-0.08-0.23
		c0.04-0.08,0.14-0.12,0.23-0.08c0.08,0.04,0.12,0.15,0.08,0.23C-19.67,57.56-19.78,57.6-19.86,57.55z M-19.5,57.94
		c-0.07,0.06-0.18,0.04-0.24-0.03c-0.06-0.07-0.04-0.18,0.03-0.24c0.07-0.06,0.18-0.04,0.24,0.03
		C-19.41,57.77-19.43,57.88-19.5,57.94z M-19.28,57.34c-0.04,0.08-0.14,0.12-0.23,0.08c-0.09-0.04-0.12-0.15-0.08-0.23
		c0.04-0.08,0.14-0.12,0.23-0.08C-19.27,57.15-19.23,57.26-19.28,57.34z M-19.2,56.83c-0.08-0.04-0.12-0.14-0.08-0.23
		c0.04-0.09,0.14-0.12,0.23-0.08c0.08,0.04,0.12,0.14,0.08,0.23C-19.02,56.84-19.12,56.87-19.2,56.83z M-18.75,57.17
		c-0.04,0.08-0.14,0.12-0.23,0.08c-0.08-0.04-0.12-0.14-0.08-0.23c0.04-0.09,0.14-0.12,0.23-0.08
		C-18.74,56.99-18.71,57.09-18.75,57.17z M-18.4,56.86c-0.04,0.08-0.14,0.12-0.23,0.08c-0.08-0.04-0.12-0.14-0.08-0.23
		c0.04-0.09,0.14-0.12,0.23-0.08C-18.39,56.67-18.36,56.78-18.4,56.86z M-18.27,56.36c-0.09-0.01-0.16-0.09-0.15-0.19
		c0.01-0.09,0.09-0.16,0.19-0.15c0.09,0.01,0.16,0.09,0.15,0.19S-18.17,56.37-18.27,56.36z M-18.08,55.68
		c-0.06-0.07-0.06-0.18,0.01-0.24c0.07-0.06,0.18-0.06,0.24,0.01c0.06,0.07,0.06,0.18-0.01,0.24
		C-17.91,55.75-18.02,55.75-18.08,55.68z M-17.75,56.1c-0.07,0.06-0.18,0.06-0.24-0.01c-0.06-0.07-0.06-0.18,0.01-0.24
		c0.07-0.06,0.18-0.06,0.24,0.01C-17.67,55.93-17.68,56.03-17.75,56.1z M-17.48,55.53c-0.09,0.04-0.19,0-0.23-0.08
		c-0.04-0.09,0-0.19,0.08-0.23c0.09-0.04,0.19,0,0.23,0.08C-17.36,55.39-17.39,55.49-17.48,55.53z M-17.18,54.99
		c-0.09,0.04-0.19,0-0.23-0.08c-0.04-0.09,0-0.19,0.08-0.23c0.09-0.04,0.19,0,0.23,0.08C-17.06,54.85-17.1,54.95-17.18,54.99z
		 M-16.82,54.54c-0.09,0.04-0.19,0-0.23-0.08c-0.04-0.09,0-0.19,0.08-0.23c0.09-0.04,0.19,0,0.23,0.08
		C-16.69,54.4-16.73,54.5-16.82,54.54z M-16.28,54.46c0.04,0.09,0,0.19-0.08,0.23c-0.09,0.04-0.19,0-0.23-0.08
		c-0.04-0.09,0-0.19,0.08-0.23C-16.42,54.34-16.32,54.37-16.28,54.46z M-16.37,54.17c-0.09,0.04-0.19,0-0.23-0.08
		c-0.02-0.05-0.02-0.1,0-0.14c-0.07,0.01-0.15-0.02-0.18-0.1c-0.04-0.09,0-0.19,0.08-0.23c0.09-0.04,0.19,0,0.23,0.08
		c0.02,0.05,0.02,0.1,0,0.14c0.07-0.01,0.15,0.03,0.18,0.1C-16.24,54.03-16.28,54.13-16.37,54.17z M-16.3,53.62
		c-0.04-0.09,0-0.19,0.08-0.23c0.09-0.04,0.19,0,0.23,0.08c0.04,0.09,0,0.19-0.08,0.23C-16.16,53.74-16.26,53.71-16.3,53.62z
		 M-15.77,53.95c-0.08,0.05-0.18,0.03-0.24-0.04c-0.05-0.08-0.03-0.18,0.04-0.24c0.08-0.06,0.18-0.04,0.24,0.04
		C-15.67,53.79-15.69,53.89-15.77,53.95z M-15.52,53.58c-0.08,0.05-0.18,0.03-0.24-0.04c-0.05-0.08-0.03-0.18,0.04-0.24
		c0.08-0.05,0.18-0.03,0.24,0.04C-15.43,53.42-15.45,53.53-15.52,53.58z"/>
	<path fill="none" stroke="#1D1D1B" stroke-width="0.25" stroke-miterlimit="10" d="M-21.3,58.66c-0.09,0-0.17-0.08-0.17-0.17
		c0-0.1,0.08-0.17,0.17-0.17c0.09,0,0.17,0.08,0.17,0.17C-21.12,58.58-21.2,58.66-21.3,58.66z"/>
	<path fill="none" stroke="#1D1D1B" stroke-width="0.25" stroke-miterlimit="10" d="M-20.99,58.92c0,0.09-0.08,0.17-0.17,0.17
		c-0.01,0-0.01,0-0.02,0c-0.03-0.02-0.05-0.04-0.08-0.06c-0.02-0.02-0.05-0.05-0.07-0.07c0-0.01,0-0.02,0-0.03
		c0-0.1,0.08-0.17,0.17-0.17C-21.07,58.75-20.99,58.82-20.99,58.92z"/>
	<path fill="none" stroke="#1D1D1B" stroke-width="0.25" stroke-miterlimit="10" d="M-21.33,58.1c0-0.09,0.08-0.17,0.17-0.17
		c0.02,0,0.03,0,0.05,0.01c-0.01-0.02-0.01-0.04-0.01-0.06c0-0.09,0.08-0.17,0.17-0.17c0.09,0,0.17,0.08,0.17,0.17
		c0,0.1-0.08,0.17-0.17,0.17c-0.02,0-0.03,0-0.05-0.01c0.01,0.02,0.01,0.03,0.01,0.05c0,0.09-0.08,0.17-0.17,0.17
		C-21.26,58.27-21.33,58.19-21.33,58.1z"/>
	<path fill="none" stroke="#1D1D1B" stroke-width="0.25" stroke-miterlimit="10" d="M-20.74,58.35c0,0.1-0.08,0.17-0.17,0.17
		c-0.09,0-0.17-0.08-0.17-0.17c0-0.09,0.08-0.17,0.17-0.17C-20.81,58.18-20.74,58.26-20.74,58.35z"/>
	<path fill="none" stroke="#1D1D1B" stroke-width="0.25" stroke-miterlimit="10" d="M-20.61,58.76c0,0.09-0.08,0.17-0.17,0.17
		c-0.1,0-0.17-0.08-0.17-0.17c0-0.1,0.08-0.17,0.17-0.17C-20.69,58.59-20.61,58.66-20.61,58.76z"/>
	<path fill="none" stroke="#1D1D1B" stroke-width="0.25" stroke-miterlimit="10" d="M-20.78,57.68c0-0.1,0.08-0.17,0.17-0.17
		c0.09,0,0.17,0.08,0.17,0.17c0,0.09-0.08,0.17-0.17,0.17C-20.71,57.85-20.78,57.78-20.78,57.68z"/>
	<path fill="none" stroke="#1D1D1B" stroke-width="0.25" stroke-miterlimit="10" d="M-20.47,58.32c-0.1,0-0.17-0.08-0.17-0.17
		c0-0.09,0.08-0.17,0.17-0.17c0.09,0,0.17,0.08,0.17,0.17C-20.3,58.25-20.37,58.32-20.47,58.32z"/>
	<path fill="none" stroke="#1D1D1B" stroke-width="0.25" stroke-miterlimit="10" d="M-20.18,58.59c0,0.09-0.08,0.17-0.17,0.17
		c-0.09,0-0.17-0.08-0.17-0.17c0-0.09,0.08-0.17,0.17-0.17C-20.25,58.42-20.18,58.49-20.18,58.59z"/>
	<path fill="none" stroke="#1D1D1B" stroke-width="0.25" stroke-miterlimit="10" d="M-20.39,57.51c0-0.1,0.08-0.17,0.17-0.17
		c0.09,0,0.17,0.08,0.17,0.17c0,0.09-0.08,0.17-0.17,0.17C-20.31,57.68-20.39,57.6-20.39,57.51z"/>
	<path fill="none" stroke="#1D1D1B" stroke-width="0.25" stroke-miterlimit="10" d="M-20.39,57.1c0-0.09,0.08-0.17,0.17-0.17
		c0.09,0,0.17,0.08,0.17,0.17c0,0.1-0.08,0.17-0.17,0.17C-20.31,57.27-20.39,57.19-20.39,57.1z"/>
	<path fill="none" stroke="#1D1D1B" stroke-width="0.25" stroke-miterlimit="10" d="M-19.98,58.07c-0.07,0.06-0.18,0.04-0.24-0.03
		c-0.06-0.07-0.04-0.18,0.03-0.24c0.07-0.06,0.18-0.04,0.24,0.03C-19.89,57.9-19.91,58.01-19.98,58.07z"/>
	<path fill="none" stroke="#1D1D1B" stroke-width="0.25" stroke-miterlimit="10" d="M-20.13,56.86c0-0.09,0.08-0.17,0.17-0.17
		c0.09,0,0.17,0.08,0.17,0.17c0,0.1-0.08,0.17-0.17,0.17C-20.05,57.03-20.13,56.95-20.13,56.86z"/>
	<path fill="none" stroke="#1D1D1B" stroke-width="0.25" stroke-miterlimit="10" d="M-19.75,58.24c0.05,0.06,0.04,0.15,0,0.2
		l-0.02,0.02c0,0.01-0.01,0.01-0.01,0.01c-0.07,0.06-0.18,0.04-0.24-0.03c-0.06-0.07-0.04-0.18,0.03-0.24
		C-19.91,58.15-19.81,58.17-19.75,58.24z"/>
	<path fill="none" stroke="#1D1D1B" stroke-width="0.25" stroke-miterlimit="10" d="M-19.71,57.25c0.08,0.04,0.12,0.15,0.08,0.23
		c-0.04,0.08-0.14,0.12-0.23,0.08c-0.09-0.04-0.12-0.15-0.08-0.23C-19.9,57.24-19.79,57.21-19.71,57.25z"/>
	<path fill="none" stroke="#1D1D1B" stroke-width="0.25" stroke-miterlimit="10" d="M-19.76,56.36c0-0.09,0.08-0.17,0.17-0.17
		c0.1,0,0.17,0.08,0.17,0.17c0,0.1-0.08,0.17-0.17,0.17C-19.69,56.53-19.76,56.46-19.76,56.36z"/>
	<path fill="none" stroke="#1D1D1B" stroke-width="0.25" stroke-miterlimit="10" d="M-19.5,56.61c0.09,0,0.17,0.08,0.17,0.17
		c0,0.09-0.08,0.17-0.17,0.17c-0.09,0-0.17-0.08-0.17-0.17C-19.67,56.69-19.6,56.61-19.5,56.61z"/>
	<path fill="none" stroke="#1D1D1B" stroke-width="0.25" stroke-miterlimit="10" d="M-19.47,57.7c0.06,0.07,0.04,0.18-0.03,0.24
		c-0.07,0.06-0.18,0.04-0.24-0.03c-0.06-0.07-0.04-0.18,0.03-0.24C-19.64,57.61-19.53,57.62-19.47,57.7z"/>
	<path fill="none" stroke="#1D1D1B" stroke-width="0.25" stroke-miterlimit="10" d="M-19.28,57.34c-0.04,0.08-0.14,0.12-0.23,0.08
		c-0.09-0.04-0.12-0.15-0.08-0.23c0.04-0.08,0.14-0.12,0.23-0.08C-19.27,57.15-19.23,57.26-19.28,57.34z"/>
	<path fill="none" stroke="#1D1D1B" stroke-width="0.25" stroke-miterlimit="10" d="M-19.07,57.49c0.05,0.06,0.05,0.15,0,0.21
		c0,0,0,0.01-0.01,0.01c-0.01,0.01-0.02,0.02-0.02,0.02c-0.07,0.06-0.18,0.04-0.24-0.03c-0.06-0.08-0.04-0.18,0.03-0.24
		C-19.23,57.4-19.12,57.41-19.07,57.49z"/>
	<path fill="none" stroke="#1D1D1B" stroke-width="0.25" stroke-miterlimit="10" d="M-19.34,56.29c-0.05-0.08-0.04-0.18,0.04-0.24
		c0.08-0.05,0.18-0.04,0.24,0.04c0.05,0.08,0.04,0.18-0.04,0.24C-19.18,56.39-19.29,56.37-19.34,56.29z"/>
	<path fill="none" stroke="#1D1D1B" stroke-width="0.25" stroke-miterlimit="10" d="M-19.28,56.6c0.04-0.09,0.14-0.12,0.23-0.08
		c0.08,0.04,0.12,0.14,0.08,0.23c-0.04,0.08-0.14,0.12-0.23,0.08C-19.29,56.79-19.32,56.69-19.28,56.6z"/>
	<path fill="none" stroke="#1D1D1B" stroke-width="0.25" stroke-miterlimit="10" d="M-19.21,55.87c-0.04-0.05-0.04-0.12-0.01-0.17
		l0.07-0.08c0.08-0.04,0.17-0.02,0.23,0.05c0.05,0.08,0.03,0.18-0.04,0.24C-19.05,55.96-19.15,55.94-19.21,55.87z"/>
	<path fill="none" stroke="#1D1D1B" stroke-width="0.25" stroke-miterlimit="10" d="M-18.75,57.17c-0.04,0.08-0.14,0.12-0.23,0.08
		c-0.08-0.04-0.12-0.14-0.08-0.23c0.04-0.09,0.14-0.12,0.23-0.08C-18.74,56.99-18.71,57.09-18.75,57.17z"/>
	<path fill="none" stroke="#1D1D1B" stroke-width="0.25" stroke-miterlimit="10" d="M-18.95,55.6c-0.05-0.08-0.03-0.18,0.04-0.24
		c0.08-0.05,0.18-0.03,0.24,0.04c0.05,0.08,0.03,0.18-0.04,0.24C-18.79,55.7-18.9,55.68-18.95,55.6z"/>
	<path fill="none" stroke="#1D1D1B" stroke-width="0.25" stroke-miterlimit="10" d="M-18.89,56.04c-0.05-0.08-0.04-0.18,0.04-0.24
		c0.08-0.05,0.18-0.03,0.24,0.04c0.05,0.08,0.04,0.18-0.04,0.24C-18.73,56.13-18.83,56.11-18.89,56.04z"/>
	<path fill="none" stroke="#1D1D1B" stroke-width="0.25" stroke-miterlimit="10" d="M-18.9,56.4c0.01-0.09,0.09-0.16,0.19-0.15
		c0.09,0.01,0.16,0.09,0.15,0.19c-0.01,0.09-0.09,0.16-0.19,0.15C-18.84,56.57-18.9,56.49-18.9,56.4z"/>
	<path fill="none" stroke="#1D1D1B" stroke-width="0.25" stroke-miterlimit="10" d="M-18.4,56.86c-0.04,0.08-0.14,0.12-0.23,0.08
		c-0.08-0.04-0.12-0.14-0.08-0.23c0.04-0.09,0.14-0.12,0.23-0.08C-18.39,56.67-18.36,56.78-18.4,56.86z"/>
	<path fill="none" stroke="#1D1D1B" stroke-width="0.25" stroke-miterlimit="10" d="M-18.61,55.27c-0.05-0.08-0.04-0.18,0.04-0.24
		c0.08-0.05,0.18-0.04,0.24,0.04c0.05,0.08,0.03,0.18-0.04,0.24C-18.45,55.36-18.56,55.34-18.61,55.27z"/>
	<path fill="none" stroke="#1D1D1B" stroke-width="0.25" stroke-miterlimit="10" d="M-18.35,55.51c0.09,0.01,0.16,0.09,0.15,0.19
		c-0.01,0.09-0.09,0.16-0.19,0.15c-0.09-0.01-0.16-0.09-0.15-0.19C-18.53,55.56-18.45,55.5-18.35,55.51z"/>
	<path fill="none" stroke="#1D1D1B" stroke-width="0.25" stroke-miterlimit="10" d="M-18.42,56.18c0.01-0.09,0.09-0.16,0.19-0.15
		c0.09,0.01,0.16,0.09,0.15,0.19s-0.09,0.16-0.19,0.15C-18.36,56.35-18.43,56.27-18.42,56.18z"/>
	<path fill="none" stroke="#1D1D1B" stroke-width="0.25" stroke-miterlimit="10" d="M-18.05,56.55c0,0.01,0,0.02-0.01,0.03
		l-0.11,0.12c-0.02,0.01-0.05,0.01-0.07,0.01c-0.09-0.01-0.16-0.09-0.15-0.19c0.01-0.09,0.09-0.16,0.19-0.15
		C-18.11,56.37-18.04,56.46-18.05,56.55z"/>
	<path fill="none" stroke="#1D1D1B" stroke-width="0.25" stroke-miterlimit="10" d="M-18.27,54.8c-0.03-0.04-0.03-0.08-0.03-0.12
		l0.13-0.14c0.07-0.02,0.14,0.01,0.18,0.07c0.05,0.08,0.04,0.18-0.04,0.24C-18.11,54.89-18.21,54.88-18.27,54.8z"/>
	<path fill="none" stroke="#1D1D1B" stroke-width="0.25" stroke-miterlimit="10" d="M-18.22,55.28c-0.06-0.07-0.06-0.18,0.01-0.24
		c0.07-0.06,0.18-0.06,0.24,0.01c0.06,0.07,0.06,0.18-0.01,0.24C-18.05,55.36-18.15,55.35-18.22,55.28z"/>
	<path fill="none" stroke="#1D1D1B" stroke-width="0.25" stroke-miterlimit="10" d="M-18.08,55.68c-0.06-0.07-0.06-0.18,0.01-0.24
		c0.07-0.06,0.18-0.06,0.24,0.01c0.06,0.07,0.06,0.18-0.01,0.24C-17.91,55.75-18.02,55.75-18.08,55.68z"/>
	<path fill="none" stroke="#1D1D1B" stroke-width="0.25" stroke-miterlimit="10" d="M-17.74,55.86c0.06,0.07,0.06,0.18-0.01,0.24
		c-0.07,0.06-0.18,0.06-0.24-0.01c-0.06-0.07-0.06-0.18,0.01-0.24C-17.91,55.78-17.8,55.79-17.74,55.86z"/>
	<path fill="none" stroke="#1D1D1B" stroke-width="0.25" stroke-miterlimit="10" d="M-17.96,54.58c-0.05-0.08-0.04-0.18,0.04-0.24
		c0.08-0.05,0.18-0.03,0.24,0.04c0.05,0.08,0.04,0.18-0.04,0.24C-17.8,54.68-17.9,54.66-17.96,54.58z"/>
	<path fill="none" stroke="#1D1D1B" stroke-width="0.25" stroke-miterlimit="10" d="M-17.85,55.05c-0.04-0.09,0-0.19,0.08-0.23
		c0.09-0.04,0.19,0,0.23,0.08c0.04,0.09,0,0.19-0.08,0.23C-17.71,55.17-17.81,55.13-17.85,55.05z"/>
	<path fill="none" stroke="#1D1D1B" stroke-width="0.25" stroke-miterlimit="10" d="M-17.4,55.3c0.04,0.09,0,0.19-0.08,0.23
		c-0.09,0.04-0.19,0-0.23-0.08c-0.04-0.09,0-0.19,0.08-0.23C-17.54,55.18-17.44,55.22-17.4,55.3z"/>
	<path fill="none" stroke="#1D1D1B" stroke-width="0.25" stroke-miterlimit="10" d="M-17.59,54.11c-0.05-0.08-0.03-0.18,0.04-0.24
		c0.08-0.05,0.18-0.03,0.24,0.04c0.05,0.08,0.03,0.18-0.04,0.24c-0.01,0.01-0.03,0.02-0.04,0.02c0.06,0,0.12,0.04,0.14,0.1
		c0.04,0.09,0,0.19-0.08,0.23c-0.09,0.04-0.19,0-0.23-0.08c-0.04-0.09,0-0.19,0.08-0.23c0.01,0,0.02-0.01,0.02-0.01
		C-17.51,54.18-17.56,54.15-17.59,54.11z"/>
	<path fill="none" stroke="#1D1D1B" stroke-width="0.25" stroke-miterlimit="10" d="M-17.1,54.76c0.04,0.09,0,0.19-0.08,0.23
		c-0.09,0.04-0.19,0-0.23-0.08c-0.04-0.09,0-0.19,0.08-0.23C-17.24,54.64-17.14,54.68-17.1,54.76z"/>
	<path fill="none" stroke="#1D1D1B" stroke-width="0.25" stroke-miterlimit="10" d="M-17.23,53.74c-0.05-0.08-0.03-0.18,0.04-0.24
		c0.08-0.05,0.18-0.03,0.24,0.04c0.05,0.08,0.03,0.18-0.04,0.24C-17.07,53.83-17.18,53.81-17.23,53.74z"/>
	<path fill="none" stroke="#1D1D1B" stroke-width="0.25" stroke-miterlimit="10" d="M-16.85,53.94c0.04,0.09,0,0.19-0.08,0.23
		c-0.09,0.04-0.19,0-0.23-0.08c-0.04-0.09,0-0.19,0.08-0.23C-16.99,53.82-16.89,53.85-16.85,53.94z"/>
	<path fill="none" stroke="#1D1D1B" stroke-width="0.25" stroke-miterlimit="10" d="M-16.73,54.31c0.04,0.09,0,0.19-0.08,0.23
		c-0.09,0.04-0.19,0-0.23-0.08c-0.04-0.09,0-0.19,0.08-0.23C-16.87,54.19-16.77,54.22-16.73,54.31z"/>
	<path fill="none" stroke="#1D1D1B" stroke-width="0.25" stroke-miterlimit="10" d="M-16.89,53.45c-0.05-0.08-0.04-0.18,0.04-0.24
		c0.08-0.05,0.18-0.04,0.24,0.04c0.05,0.08,0.04,0.18-0.04,0.24C-16.73,53.54-16.83,53.52-16.89,53.45z"/>
	<path fill="none" stroke="#1D1D1B" stroke-width="0.25" stroke-miterlimit="10" d="M-16.28,54.46c0.04,0.09,0,0.19-0.08,0.23
		c-0.09,0.04-0.19,0-0.23-0.08c-0.04-0.09,0-0.19,0.08-0.23C-16.42,54.34-16.32,54.37-16.28,54.46z"/>
	<path fill="none" stroke="#1D1D1B" stroke-width="0.25" stroke-miterlimit="10" d="M-16.59,53.94c-0.07,0.01-0.15-0.02-0.18-0.1
		c-0.04-0.09,0-0.19,0.08-0.23c0.09-0.04,0.19,0,0.23,0.08c0.02,0.05,0.02,0.1,0,0.14c0.07-0.01,0.15,0.03,0.18,0.1
		c0.04,0.09,0,0.19-0.08,0.23c-0.09,0.04-0.19,0-0.23-0.08C-16.61,54.04-16.61,53.99-16.59,53.94z"/>
	<path fill="none" stroke="#1D1D1B" stroke-width="0.25" stroke-miterlimit="10" d="M-16.47,52.95c0.01-0.01,0.02-0.01,0.03-0.02
		c-0.01-0.01-0.02-0.02-0.03-0.03c-0.05-0.08-0.03-0.18,0.04-0.24c0.08-0.05,0.18-0.03,0.24,0.04c0.05,0.08,0.03,0.18-0.04,0.24
		c-0.01,0.01-0.02,0.01-0.02,0.02c0.01,0.01,0.02,0.02,0.03,0.03c0.05,0.08,0.04,0.18-0.04,0.24c-0.08,0.05-0.18,0.03-0.24-0.04
		C-16.57,53.11-16.55,53-16.47,52.95z"/>
	<path fill="none" stroke="#1D1D1B" stroke-width="0.25" stroke-miterlimit="10" d="M-16.22,53.39c0.09-0.04,0.19,0,0.23,0.08
		c0.04,0.09,0,0.19-0.08,0.23c-0.09,0.04-0.19,0-0.23-0.08C-16.34,53.53-16.31,53.43-16.22,53.39z"/>
	<path fill="none" stroke="#1D1D1B" stroke-width="0.25" stroke-miterlimit="10" d="M-15.96,54.18c0.01,0.03,0.02,0.05,0.02,0.08
		l-0.15,0.16c-0.07,0.01-0.15-0.03-0.18-0.1c-0.04-0.08,0-0.19,0.08-0.23C-16.1,54.05-16,54.09-15.96,54.18z"/>
	<path fill="none" stroke="#1D1D1B" stroke-width="0.25" stroke-miterlimit="10" d="M-15.73,53.71c0.05,0.08,0.03,0.18-0.04,0.24
		c-0.08,0.05-0.18,0.03-0.24-0.04c-0.05-0.08-0.03-0.18,0.04-0.24C-15.89,53.61-15.78,53.63-15.73,53.71z"/>
	<path fill="none" stroke="#1D1D1B" stroke-width="0.25" stroke-miterlimit="10" d="M-16.01,53.18c-0.05-0.08-0.03-0.18,0.04-0.24
		c0.08-0.06,0.18-0.04,0.24,0.04c0.05,0.08,0.03,0.18-0.04,0.24C-15.85,53.28-15.95,53.26-16.01,53.18z"/>
	<path fill="none" stroke="#1D1D1B" stroke-width="0.25" stroke-miterlimit="10" d="M-15.52,53.58c-0.08,0.05-0.18,0.03-0.24-0.04
		c-0.05-0.08-0.03-0.18,0.04-0.24c0.08-0.05,0.18-0.03,0.24,0.04C-15.43,53.42-15.45,53.53-15.52,53.58z"/>
	<path fill="#D3D005" d="M-20.61,58.76c0,0.09-0.08,0.17-0.17,0.17c-0.1,0-0.17-0.08-0.17-0.17c0-0.1,0.08-0.17,0.17-0.17
		C-20.69,58.59-20.61,58.66-20.61,58.76z"/>
	<path fill="#D3D005" d="M-20.18,58.59c0,0.09-0.08,0.17-0.17,0.17c-0.09,0-0.17-0.08-0.17-0.17c0-0.09,0.08-0.17,0.17-0.17
		C-20.25,58.42-20.18,58.49-20.18,58.59z"/>
	<path fill="#D3D005" d="M-20.74,58.35c0,0.1-0.08,0.17-0.17,0.17c-0.09,0-0.17-0.08-0.17-0.17c0-0.09,0.08-0.17,0.17-0.17
		C-20.81,58.18-20.74,58.26-20.74,58.35z"/>
	<path fill="#D3D005" d="M-20.3,58.15c0,0.09-0.08,0.17-0.17,0.17c-0.1,0-0.17-0.08-0.17-0.17c0-0.09,0.08-0.17,0.17-0.17
		C-20.37,57.98-20.3,58.06-20.3,58.15z"/>
	<path fill="#D3D005" d="M-20.44,57.68c0,0.09-0.08,0.17-0.17,0.17c-0.09,0-0.17-0.08-0.17-0.17c0-0.1,0.08-0.17,0.17-0.17
		C-20.52,57.51-20.44,57.59-20.44,57.68z"/>
	<path fill="#D3D005" d="M-20.05,57.51c0,0.09-0.08,0.17-0.17,0.17c-0.09,0-0.17-0.08-0.17-0.17c0-0.1,0.08-0.17,0.17-0.17
		C-20.13,57.33-20.05,57.41-20.05,57.51z"/>
	<path fill="#D3D005" d="M-20.05,57.1c0,0.1-0.08,0.17-0.17,0.17c-0.09,0-0.17-0.08-0.17-0.17c0-0.09,0.08-0.17,0.17-0.17
		C-20.13,56.93-20.05,57-20.05,57.1z"/>
	<path fill="#D3D005" d="M-19.33,56.78c0,0.09-0.08,0.17-0.17,0.17c-0.09,0-0.17-0.08-0.17-0.17c0-0.09,0.08-0.17,0.17-0.17
		C-19.41,56.61-19.33,56.69-19.33,56.78z"/>
	<path fill="#D3D005" d="M-19.78,56.86c0,0.1-0.08,0.17-0.17,0.17c-0.09,0-0.17-0.08-0.17-0.17c0-0.09,0.08-0.17,0.17-0.17
		C-19.86,56.69-19.78,56.76-19.78,56.86z"/>
	<path fill="#D3D005" d="M-19.42,56.36c0,0.1-0.08,0.17-0.17,0.17c-0.09,0-0.17-0.08-0.17-0.17c0-0.09,0.08-0.17,0.17-0.17
		C-19.5,56.19-19.42,56.27-19.42,56.36z"/>
	<path fill="#D3D005" d="M-19.1,56.33c-0.08,0.05-0.18,0.04-0.24-0.04c-0.05-0.08-0.04-0.18,0.04-0.24
		c0.08-0.05,0.18-0.04,0.24,0.04C-19.01,56.17-19.03,56.28-19.1,56.33z"/>
	<path fill="#D3D005" d="M-18.65,56.08c-0.08,0.05-0.18,0.04-0.24-0.04s-0.04-0.18,0.04-0.24c0.08-0.05,0.18-0.03,0.24,0.04
		C-18.56,55.92-18.57,56.02-18.65,56.08z"/>
	<path fill="#D3D005" d="M-18.97,55.91c-0.08,0.05-0.18,0.03-0.24-0.04c-0.04-0.05-0.04-0.12-0.01-0.17
		c0.01-0.03,0.03-0.05,0.06-0.07c0,0,0.01-0.01,0.01-0.01c0.08-0.04,0.17-0.02,0.23,0.05C-18.87,55.75-18.89,55.85-18.97,55.91z"/>
	<path fill="#D3D005" d="M-18.72,55.64c-0.08,0.05-0.18,0.03-0.24-0.04c-0.05-0.08-0.03-0.18,0.04-0.24
		c0.08-0.05,0.18-0.03,0.24,0.04C-18.62,55.48-18.64,55.59-18.72,55.64z"/>
	<path fill="#D3D005" d="M-18.37,55.31c-0.08,0.05-0.18,0.03-0.24-0.04c-0.05-0.08-0.04-0.18,0.04-0.24
		c0.08-0.05,0.18-0.04,0.24,0.04C-18.28,55.15-18.3,55.25-18.37,55.31z"/>
	<path fill="#D3D005" d="M-18.03,54.84c-0.08,0.05-0.18,0.03-0.24-0.04c-0.03-0.04-0.03-0.08-0.03-0.12
		c0.01-0.05,0.03-0.09,0.07-0.12c0.02-0.01,0.04-0.02,0.06-0.03c0.07-0.02,0.14,0.01,0.18,0.07
		C-17.93,54.68-17.95,54.79-18.03,54.84z"/>
	<path fill="#D3D005" d="M-17.72,54.62c-0.08,0.05-0.18,0.03-0.24-0.04c-0.05-0.08-0.04-0.18,0.04-0.24
		c0.08-0.05,0.18-0.03,0.24,0.04C-17.62,54.46-17.64,54.57-17.72,54.62z"/>
	<path fill="#D3D005" d="M-16.65,53.49c-0.08,0.05-0.18,0.04-0.24-0.04c-0.05-0.08-0.04-0.18,0.04-0.24
		c0.08-0.05,0.18-0.04,0.24,0.04C-16.55,53.33-16.57,53.43-16.65,53.49z"/>
	<path fill="#D3D005" d="M-16.27,53.23c-0.08,0.05-0.18,0.03-0.24-0.04c-0.05-0.08-0.03-0.18,0.04-0.24
		c0.01-0.01,0.02-0.01,0.03-0.02c0.06-0.03,0.13-0.02,0.18,0.02c0.01,0.01,0.02,0.02,0.03,0.03C-16.18,53.07-16.2,53.17-16.27,53.23
		z"/>
	<path fill="#D3D005" d="M-16.99,53.78c-0.08,0.05-0.18,0.04-0.24-0.04c-0.05-0.08-0.03-0.18,0.04-0.24
		c0.08-0.05,0.18-0.03,0.24,0.04C-16.9,53.62-16.92,53.72-16.99,53.78z"/>
	<path fill="#D3D005" d="M-17.35,54.15c-0.01,0.01-0.03,0.02-0.04,0.02c-0.02,0.01-0.04,0.01-0.06,0.01c-0.05,0-0.1-0.02-0.13-0.07
		c-0.05-0.08-0.03-0.18,0.04-0.24c0.08-0.05,0.18-0.03,0.24,0.04C-17.26,53.99-17.28,54.1-17.35,54.15z"/>
	<path fill="#D3D005" d="M-15.77,53.23c-0.08,0.05-0.18,0.03-0.24-0.04c-0.05-0.08-0.03-0.18,0.04-0.24
		c0.08-0.06,0.18-0.04,0.24,0.04C-15.67,53.07-15.69,53.17-15.77,53.23z"/>
	<path fill="#D3D005" d="M-16.24,52.94c-0.01,0.01-0.02,0.01-0.02,0.02c-0.06,0.03-0.13,0.02-0.18-0.02
		c-0.01-0.01-0.02-0.02-0.03-0.03c-0.05-0.08-0.03-0.18,0.04-0.24c0.08-0.05,0.18-0.03,0.24,0.04
		C-16.14,52.78-16.16,52.89-16.24,52.94z"/>
	<path fill="#D3D005" d="M-15.52,53.58c-0.08,0.05-0.18,0.03-0.24-0.04c-0.05-0.08-0.03-0.18,0.04-0.24
		c0.08-0.05,0.18-0.03,0.24,0.04C-15.43,53.42-15.45,53.53-15.52,53.58z"/>
	<path fill="#D3D005" d="M-15.77,53.95c-0.08,0.05-0.18,0.03-0.24-0.04c-0.05-0.08-0.03-0.18,0.04-0.24
		c0.08-0.06,0.18-0.04,0.24,0.04C-15.67,53.79-15.69,53.89-15.77,53.95z"/>
	<path fill="#D3D005" d="M-15.95,54.26c0,0.06-0.04,0.12-0.1,0.15c-0.01,0.01-0.03,0.01-0.05,0.01c-0.07,0.01-0.15-0.03-0.18-0.1
		c-0.04-0.08,0-0.19,0.08-0.23c0.09-0.04,0.19,0,0.23,0.08C-15.95,54.2-15.95,54.23-15.95,54.26z"/>
	<path fill="#D3D005" d="M-16.37,54.17c-0.09,0.04-0.19,0-0.23-0.08c-0.02-0.05-0.02-0.1,0-0.14c0.02-0.04,0.05-0.07,0.08-0.09
		c0.02-0.01,0.03-0.01,0.04-0.01c0.07-0.01,0.15,0.03,0.18,0.1C-16.24,54.03-16.28,54.13-16.37,54.17z"/>
	<path fill="#D3D005" d="M-16.08,53.7c-0.09,0.04-0.19,0-0.23-0.08c-0.04-0.09,0-0.19,0.08-0.23c0.09-0.04,0.19,0,0.23,0.08
		C-15.95,53.56-15.99,53.66-16.08,53.7z"/>
	<path fill="#D3D005" d="M-16.46,53.84c-0.02,0.04-0.05,0.07-0.08,0.08c-0.01,0.01-0.03,0.01-0.04,0.01
		c-0.07,0.01-0.15-0.02-0.18-0.1c-0.04-0.09,0-0.19,0.08-0.23c0.09-0.04,0.19,0,0.23,0.08C-16.44,53.75-16.44,53.8-16.46,53.84z"/>
	<path fill="#D3D005" d="M-16.93,54.17c-0.09,0.04-0.19,0-0.23-0.08c-0.04-0.09,0-0.19,0.08-0.23c0.09-0.04,0.19,0,0.23,0.08
		C-16.81,54.03-16.85,54.13-16.93,54.17z"/>
	<path fill="#D3D005" d="M-16.82,54.54c-0.09,0.04-0.19,0-0.23-0.08c-0.04-0.09,0-0.19,0.08-0.23c0.09-0.04,0.19,0,0.23,0.08
		C-16.69,54.4-16.73,54.5-16.82,54.54z"/>
	<path fill="#D3D005" d="M-16.37,54.68c-0.09,0.04-0.19,0-0.23-0.08c-0.04-0.09,0-0.19,0.08-0.23c0.09-0.04,0.19,0,0.23,0.08
		C-16.24,54.54-16.28,54.64-16.37,54.68z"/>
	<path fill="#D3D005" d="M-17.18,54.99c-0.09,0.04-0.19,0-0.23-0.08c-0.04-0.09,0-0.19,0.08-0.23c0.09-0.04,0.19,0,0.23,0.08
		C-17.06,54.85-17.1,54.95-17.18,54.99z"/>
	<path fill="#D3D005" d="M-17.34,54.5c-0.09,0.04-0.19,0-0.23-0.08c-0.04-0.09,0-0.19,0.08-0.23c0.01,0,0.02-0.01,0.02-0.01
		c0.02-0.01,0.04-0.01,0.06-0.01c0.06,0,0.12,0.04,0.14,0.1C-17.22,54.36-17.25,54.46-17.34,54.5z"/>
	<path fill="#D3D005" d="M-17.62,55.13c-0.09,0.04-0.19,0-0.23-0.08c-0.04-0.09,0-0.19,0.08-0.23c0.09-0.04,0.19,0,0.23,0.08
		C-17.5,54.99-17.53,55.09-17.62,55.13z"/>
	<path fill="#D3D005" d="M-17.48,55.53c-0.09,0.04-0.19,0-0.23-0.08c-0.04-0.09,0-0.19,0.08-0.23c0.09-0.04,0.19,0,0.23,0.08
		C-17.36,55.39-17.39,55.49-17.48,55.53z"/>
	<path fill="#D3D005" d="M-17.75,56.1c-0.07,0.06-0.18,0.06-0.24-0.01c-0.06-0.07-0.06-0.18,0.01-0.24
		c0.07-0.06,0.18-0.06,0.24,0.01C-17.67,55.93-17.68,56.03-17.75,56.1z"/>
	<path fill="#D3D005" d="M-17.84,55.69c-0.07,0.06-0.18,0.06-0.24-0.01c-0.06-0.07-0.06-0.18,0.01-0.24
		c0.07-0.06,0.18-0.06,0.24,0.01C-17.77,55.52-17.77,55.62-17.84,55.69z"/>
	<path fill="#D3D005" d="M-18.2,55.69c-0.01,0.09-0.09,0.16-0.19,0.15c-0.09-0.01-0.16-0.09-0.15-0.19
		c0.01-0.09,0.09-0.16,0.19-0.15C-18.26,55.52-18.19,55.6-18.2,55.69z"/>
	<path fill="#D3D005" d="M-18.08,56.21c-0.01,0.09-0.09,0.16-0.19,0.15c-0.09-0.01-0.16-0.09-0.15-0.19
		c0.01-0.09,0.09-0.16,0.19-0.15C-18.14,56.03-18.07,56.12-18.08,56.21z"/>
	<path fill="#D3D005" d="M-18.56,56.43c-0.01,0.09-0.09,0.16-0.19,0.15c-0.09-0.01-0.16-0.09-0.15-0.19
		c0.01-0.09,0.09-0.16,0.19-0.15C-18.62,56.25-18.55,56.33-18.56,56.43z"/>
	<path fill="#D3D005" d="M-18.05,56.55c0,0.01,0,0.02-0.01,0.03c-0.02,0.06-0.06,0.1-0.11,0.12c-0.02,0.01-0.05,0.01-0.07,0.01
		c-0.09-0.01-0.16-0.09-0.15-0.19c0.01-0.09,0.09-0.16,0.19-0.15C-18.11,56.37-18.04,56.46-18.05,56.55z"/>
	<path fill="#D3D005" d="M-18.4,56.86c-0.04,0.08-0.14,0.12-0.23,0.08c-0.08-0.04-0.12-0.14-0.08-0.23
		c0.04-0.09,0.14-0.12,0.23-0.08C-18.39,56.67-18.36,56.78-18.4,56.86z"/>
	<path fill="#D3D005" d="M-18.97,56.75c-0.04,0.08-0.14,0.12-0.23,0.08c-0.08-0.04-0.12-0.14-0.08-0.23
		c0.04-0.09,0.14-0.12,0.23-0.08C-18.97,56.57-18.93,56.67-18.97,56.75z"/>
	<path fill="#D3D005" d="M-18.75,57.17c-0.04,0.08-0.14,0.12-0.23,0.08c-0.08-0.04-0.12-0.14-0.08-0.23
		c0.04-0.09,0.14-0.12,0.23-0.08C-18.74,56.99-18.71,57.09-18.75,57.17z"/>
	<path fill="#D3D005" d="M-19.28,57.34c-0.04,0.08-0.14,0.12-0.23,0.08c-0.09-0.04-0.12-0.15-0.08-0.23
		c0.04-0.08,0.14-0.12,0.23-0.08C-19.27,57.15-19.23,57.26-19.28,57.34z"/>
	<path fill="#D3D005" d="M-19.63,57.48c-0.04,0.08-0.14,0.12-0.23,0.08c-0.09-0.04-0.12-0.15-0.08-0.23
		c0.04-0.08,0.14-0.12,0.23-0.08C-19.62,57.29-19.59,57.39-19.63,57.48z"/>
	<path fill="#D3D005" d="M-19.5,57.94c-0.07,0.06-0.18,0.04-0.24-0.03c-0.06-0.07-0.04-0.18,0.03-0.24
		c0.07-0.06,0.18-0.04,0.24,0.03C-19.41,57.77-19.43,57.88-19.5,57.94z"/>
	<path fill="#D3D005" d="M-19.98,58.07c-0.07,0.06-0.18,0.04-0.24-0.03c-0.06-0.07-0.04-0.18,0.03-0.24
		c0.07-0.06,0.18-0.04,0.24,0.03C-19.89,57.9-19.91,58.01-19.98,58.07z"/>
	<path fill="#D3D005" d="M-19.75,58.45l-0.02,0.02c0,0.01-0.01,0.01-0.01,0.01c-0.07,0.06-0.18,0.04-0.24-0.03
		c-0.06-0.07-0.04-0.18,0.03-0.24c0.07-0.06,0.18-0.04,0.24,0.03C-19.7,58.31-19.71,58.39-19.75,58.45z"/>
	<path fill="#D3D005" d="M-19.07,57.7C-19.07,57.7-19.07,57.7-19.07,57.7c-0.01,0.02-0.02,0.02-0.03,0.03
		c-0.07,0.06-0.18,0.04-0.24-0.03c-0.06-0.08-0.04-0.18,0.03-0.24c0.08-0.06,0.18-0.04,0.24,0.03
		C-19.02,57.55-19.02,57.64-19.07,57.7z"/>
	<path fill="#D3D005" d="M-17.98,55.29c-0.07,0.06-0.18,0.06-0.24-0.01c-0.06-0.07-0.06-0.18,0.01-0.24
		c0.07-0.06,0.18-0.06,0.24,0.01C-17.91,55.12-17.91,55.23-17.98,55.29z"/>
	<path fill="#D3D005" d="M-20.99,58.92c0,0.09-0.08,0.17-0.17,0.17c-0.01,0-0.01,0-0.02,0c-0.07-0.01-0.13-0.06-0.15-0.13
		c0-0.01,0-0.02,0-0.03c0-0.1,0.08-0.17,0.17-0.17C-21.07,58.75-20.99,58.82-20.99,58.92z"/>
	<path fill="#D3D005" d="M-20.99,58.1c0,0.09-0.08,0.17-0.17,0.17c-0.09,0-0.17-0.08-0.17-0.17c0-0.09,0.08-0.17,0.17-0.17
		c0.02,0,0.03,0,0.05,0.01c0.05,0.01,0.1,0.06,0.11,0.11C-21,58.06-20.99,58.08-20.99,58.1z"/>
	<path fill="#D3D005" d="M-21.12,58.49c0,0.09-0.08,0.17-0.17,0.17c-0.09,0-0.17-0.08-0.17-0.17c0-0.1,0.08-0.17,0.17-0.17
		C-21.2,58.31-21.12,58.39-21.12,58.49z"/>
	<path fill="#D3D005" d="M-20.78,57.88c0,0.1-0.08,0.17-0.17,0.17c-0.02,0-0.03,0-0.05-0.01c-0.05-0.02-0.09-0.06-0.11-0.11
		c-0.01-0.02-0.01-0.04-0.01-0.06c0-0.09,0.08-0.17,0.17-0.17C-20.86,57.71-20.78,57.79-20.78,57.88z"/>
</g>
<g>
	<path fill="#FFFFFF" stroke="#1D1D1B" stroke-linecap="round" stroke-linejoin="round" stroke-miterlimit="10" d="M170.34-137.79v4
		h-2.76c-0.57,0-0.57-4,0-4H170.34z"/>
	
		<line fill="none" stroke="#1D1D1B" stroke-linecap="round" stroke-linejoin="round" stroke-miterlimit="10" x1="167.58" y1="-137.79" x2="167.47" y2="-137.79"/>
	<path fill="#FFFFFF" stroke="#1D1D1B" stroke-linecap="round" stroke-linejoin="round" stroke-miterlimit="10" d="M186.3-124.91
		h-5.15c-0.62,0-1.12-0.5-1.12-1.12l0,0c0-0.62,0.5-1.12,1.12-1.12h5.15c0.62,0,1.12,0.5,1.12,1.12l0,0
		C187.42-125.41,186.92-124.91,186.3-124.91z"/>
	
		<line fill="none" stroke="#60B4E5" stroke-linecap="round" stroke-miterlimit="10" x1="164.27" y1="-134.31" x2="156.32" y2="-131.94"/>
	
		<line fill="none" stroke="#60B4E5" stroke-linecap="round" stroke-miterlimit="10" x1="155.61" y1="-137" x2="163.64" y2="-136.22"/>
	
		<line fill="none" stroke="#60B4E5" stroke-linecap="round" stroke-miterlimit="10" x1="157.04" y1="-142.19" x2="164.42" y2="-137.32"/>
	
		<line fill="none" stroke="#1D1D1B" stroke-linecap="round" stroke-linejoin="round" stroke-miterlimit="10" x1="172.24" y1="-126.43" x2="173.12" y2="-126.43"/>
	<path fill="#617EBE" stroke="#1D1D1B" stroke-linecap="round" stroke-linejoin="round" stroke-miterlimit="10" d="M193-99.3
		c-0.38,0.45-0.96,0.73-1.59,0.73h-15.74c-0.68,0-1.28-0.32-1.66-0.81l4.68-25.44h9.48L193-99.3z"/>
	
		<line fill="none" stroke="#1D1D1B" stroke-linecap="round" stroke-linejoin="round" stroke-miterlimit="10" x1="181.45" y1="-127.06" x2="181.45" y2="-124.81"/>
	
		<line fill="none" stroke="#1D1D1B" stroke-linecap="round" stroke-linejoin="round" stroke-miterlimit="10" x1="183.51" y1="-127.15" x2="183.51" y2="-124.91"/>
	
		<line fill="none" stroke="#1D1D1B" stroke-linecap="round" stroke-linejoin="round" stroke-miterlimit="10" x1="185.65" y1="-127.15" x2="185.65" y2="-124.91"/>
	<polygon fill="#FFFFFF" stroke="#1D1D1B" stroke-linecap="round" stroke-linejoin="round" stroke-miterlimit="10" points="
		186.35,-137.79 186.35,-127.05 181.45,-127.06 176.58,-132.18 173.23,-132.16 172.23,-132.16 170.34,-133.79 170.34,-137.79 	"/>
	<path fill="none" stroke="#1D1D1B" stroke-linecap="round" stroke-linejoin="round" stroke-miterlimit="10" d="M173.24-132.17
		c1.93,2.02,2.18,3.95,0,5.73"/>
	<path fill="none" stroke="#1D1D1B" stroke-linecap="round" stroke-linejoin="round" stroke-miterlimit="10" d="M172.24-132.17
		c1.93,2.02,2.18,3.95,0,5.73"/>
</g>
</svg>
