<?xml version="1.0" encoding="utf-8"?>
<!-- Generator: Adobe Illustrator 28.1.0, SVG Export Plug-In . SVG Version: 6.00 Build 0)  -->
<svg version="1.1" id="Laag_1" xmlns="http://www.w3.org/2000/svg" xmlns:xlink="http://www.w3.org/1999/xlink" x="0px" y="0px"
	 viewBox="0 0 59.39 69.83" enable-background="new 0 0 59.39 69.83" xml:space="preserve">
<g>
	<path fill="#FFFFFF" stroke="#1D1D1B" stroke-miterlimit="10" d="M39.86,35.65H29.72c-1.97,0-3.57-1.6-3.57-3.57v0
		c0-1.97,1.6-3.57,3.57-3.57h10.15c1.97,0,3.57,1.6,3.57,3.57v0C43.44,34.05,41.84,35.65,39.86,35.65z"/>
	<g>
		
			<line fill="none" stroke="#1D1D1B" stroke-miterlimit="10" stroke-dasharray="3.5812" x1="29.12" y1="22.57" x2="32.71" y2="22.57"/>
	</g>
	<circle fill="#FFEC00" stroke="#1D1D1B" stroke-miterlimit="10" cx="40.33" cy="22.57" r="6.18"/>
	<circle fill="#FFFFFF" stroke="#1D1D1B" stroke-miterlimit="10" cx="28.95" cy="27.56" r="3.85"/>
	<circle fill="#FFFFFF" stroke="#1D1D1B" stroke-miterlimit="10" cx="33.39" cy="25.38" r="4.44"/>
	<circle fill="#FFFFFF" stroke="#1D1D1B" stroke-miterlimit="10" cx="40.15" cy="28.2" r="4.15"/>
	<circle fill="#FFFFFF" stroke="#1D1D1B" stroke-miterlimit="10" cx="33.32" cy="31.48" r="4.25"/>
	<circle fill="#FFFFFF" stroke="#1D1D1B" stroke-miterlimit="10" cx="42.84" cy="30.95" r="4.25"/>
	<circle fill="#FFFFFF" stroke="#1D1D1B" stroke-miterlimit="10" cx="26.89" cy="31.68" r="3.48"/>
	<g>
		
			<line fill="none" stroke="#1D1D1B" stroke-miterlimit="10" stroke-dasharray="3.5812" x1="40.33" y1="11.36" x2="40.33" y2="14.94"/>
	</g>
	<g>
		
			<line fill="none" stroke="#1D1D1B" stroke-miterlimit="10" stroke-dasharray="3.5812" x1="34.73" y1="12.86" x2="36.52" y2="15.96"/>
	</g>
	<g>
		
			<line fill="none" stroke="#1D1D1B" stroke-miterlimit="10" stroke-dasharray="3.5812" x1="30.63" y1="16.96" x2="33.73" y2="18.75"/>
	</g>
	<g>
		
			<line fill="none" stroke="#1D1D1B" stroke-miterlimit="10" stroke-dasharray="3.5812" x1="50.04" y1="28.17" x2="46.94" y2="26.38"/>
	</g>
	<g>
		
			<line fill="none" stroke="#1D1D1B" stroke-miterlimit="10" stroke-dasharray="3.5812" x1="51.54" y1="22.57" x2="47.96" y2="22.57"/>
	</g>
	<g>
		
			<line fill="none" stroke="#1D1D1B" stroke-miterlimit="10" stroke-dasharray="3.5812" x1="50.04" y1="16.96" x2="46.94" y2="18.75"/>
	</g>
	<g>
		
			<line fill="none" stroke="#1D1D1B" stroke-miterlimit="10" stroke-dasharray="3.5812" x1="45.94" y1="12.86" x2="44.15" y2="15.96"/>
	</g>
</g>
<g>
	<path fill="none" stroke="#1D1D1B" stroke-linecap="round" stroke-miterlimit="10" d="M24.02,47.1c0,0.16-0.14,0.3-0.3,0.3
		s-0.3-0.13-0.3-0.3c0-0.17,0.13-0.3,0.3-0.3S24.02,46.93,24.02,47.1z"/>
	<path fill="none" stroke="#1D1D1B" stroke-linecap="round" stroke-miterlimit="10" d="M23.65,46.42c0-0.16,0.13-0.3,0.3-0.3
		c0.03,0,0.06,0,0.08,0.01c-0.01-0.03-0.02-0.07-0.02-0.1c0-0.16,0.13-0.3,0.3-0.3c0.16,0,0.3,0.13,0.3,0.3c0,0.17-0.14,0.3-0.3,0.3
		c-0.03,0-0.06,0-0.08-0.01c0.01,0.03,0.02,0.06,0.02,0.09c0,0.16-0.13,0.3-0.3,0.3C23.79,46.72,23.65,46.59,23.65,46.42z"/>
	<path fill="none" stroke="#1D1D1B" stroke-linecap="round" stroke-miterlimit="10" d="M24.4,47.17c-0.16,0-0.3-0.13-0.3-0.3
		c0-0.16,0.14-0.3,0.3-0.3c0.16,0,0.3,0.13,0.3,0.3C24.7,47.03,24.57,47.17,24.4,47.17z"/>
	<path fill="none" stroke="#1D1D1B" stroke-linecap="round" stroke-miterlimit="10" d="M24.92,47.58c0,0.16-0.13,0.3-0.3,0.3
		c-0.17,0-0.3-0.13-0.3-0.3c0-0.17,0.13-0.3,0.3-0.3C24.78,47.27,24.92,47.41,24.92,47.58z"/>
	<path fill="none" stroke="#1D1D1B" stroke-linecap="round" stroke-miterlimit="10" d="M24.62,45.69c0-0.17,0.13-0.3,0.3-0.3
		c0.16,0,0.3,0.13,0.3,0.3c0,0.16-0.14,0.3-0.3,0.3C24.75,45.99,24.62,45.86,24.62,45.69z"/>
	<path fill="none" stroke="#1D1D1B" stroke-linecap="round" stroke-miterlimit="10" d="M25.17,46.81c-0.17,0-0.3-0.13-0.3-0.3
		c0-0.16,0.13-0.3,0.3-0.3c0.16,0,0.3,0.13,0.3,0.3C25.47,46.68,25.34,46.81,25.17,46.81z"/>
	<path fill="none" stroke="#1D1D1B" stroke-linecap="round" stroke-miterlimit="10" d="M25.68,47.27c0,0.16-0.13,0.3-0.3,0.3
		c-0.16,0-0.3-0.14-0.3-0.3c0-0.16,0.14-0.3,0.3-0.3C25.55,46.98,25.68,47.11,25.68,47.27z"/>
	<path fill="none" stroke="#1D1D1B" stroke-linecap="round" stroke-miterlimit="10" d="M25.31,45.38c0-0.17,0.14-0.3,0.3-0.3
		s0.3,0.13,0.3,0.3c0,0.16-0.13,0.3-0.3,0.3S25.31,45.54,25.31,45.38z"/>
	<path fill="none" stroke="#1D1D1B" stroke-linecap="round" stroke-miterlimit="10" d="M25.31,44.66c0-0.16,0.14-0.3,0.3-0.3
		s0.3,0.13,0.3,0.3c0,0.17-0.13,0.3-0.3,0.3S25.31,44.83,25.31,44.66z"/>
	<path fill="none" stroke="#1D1D1B" stroke-linecap="round" stroke-miterlimit="10" d="M26.08,45.94c0.1,0.13,0.08,0.32-0.06,0.42
		c-0.13,0.1-0.32,0.08-0.42-0.06c-0.1-0.13-0.08-0.32,0.06-0.42C25.79,45.78,25.98,45.81,26.08,45.94z"/>
	<path fill="none" stroke="#1D1D1B" stroke-linecap="round" stroke-miterlimit="10" d="M25.77,44.24c0-0.16,0.14-0.3,0.3-0.3
		c0.16,0,0.3,0.13,0.3,0.3c0,0.17-0.13,0.3-0.3,0.3C25.91,44.54,25.77,44.41,25.77,44.24z"/>
	<path fill="none" stroke="#1D1D1B" stroke-linecap="round" stroke-miterlimit="10" d="M26.24,45.46c-0.15-0.08-0.21-0.25-0.14-0.4
		c0.07-0.15,0.25-0.21,0.4-0.14c0.15,0.07,0.21,0.25,0.14,0.4C26.57,45.47,26.39,45.54,26.24,45.46z"/>
	<path fill="none" stroke="#1D1D1B" stroke-linecap="round" stroke-miterlimit="10" d="M26.41,43.37c0-0.16,0.13-0.3,0.3-0.3
		c0.17,0,0.3,0.13,0.3,0.3c0,0.17-0.13,0.3-0.3,0.3C26.54,43.67,26.41,43.54,26.41,43.37z"/>
	<path fill="none" stroke="#1D1D1B" stroke-linecap="round" stroke-miterlimit="10" d="M26.87,43.81c0.16,0,0.3,0.13,0.3,0.3
		s-0.14,0.3-0.3,0.3c-0.16,0-0.3-0.14-0.3-0.3S26.7,43.81,26.87,43.81z"/>
	<path fill="none" stroke="#1D1D1B" stroke-linecap="round" stroke-miterlimit="10" d="M26.92,45.71c0.1,0.13,0.08,0.32-0.06,0.42
		c-0.13,0.1-0.32,0.08-0.42-0.06c-0.1-0.13-0.08-0.32,0.06-0.42C26.63,45.56,26.82,45.58,26.92,45.71z"/>
	<path fill="none" stroke="#1D1D1B" stroke-linecap="round" stroke-miterlimit="10" d="M27.27,45.09c-0.07,0.15-0.25,0.21-0.4,0.14
		c-0.15-0.08-0.21-0.25-0.14-0.4c0.07-0.15,0.25-0.21,0.4-0.14C27.28,44.76,27.34,44.94,27.27,45.09z"/>
	<path fill="none" stroke="#1D1D1B" stroke-linecap="round" stroke-miterlimit="10" d="M27.15,43.25c-0.09-0.14-0.06-0.32,0.07-0.42
		c0.14-0.09,0.32-0.06,0.42,0.07c0.09,0.14,0.06,0.32-0.07,0.42C27.43,43.41,27.24,43.38,27.15,43.25z"/>
	<path fill="none" stroke="#1D1D1B" stroke-linecap="round" stroke-miterlimit="10" d="M27.39,44.19c-0.15-0.07-0.21-0.25-0.14-0.4
		c0.07-0.15,0.25-0.21,0.4-0.14c0.15,0.07,0.21,0.25,0.14,0.4C27.72,44.2,27.54,44.26,27.39,44.19z"/>
	<path fill="none" stroke="#1D1D1B" stroke-linecap="round" stroke-miterlimit="10" d="M28.19,44.8c-0.07,0.15-0.25,0.21-0.4,0.14
		c-0.15-0.07-0.21-0.25-0.14-0.4c0.07-0.15,0.25-0.21,0.4-0.14C28.2,44.47,28.27,44.65,28.19,44.8z"/>
	<path fill="none" stroke="#1D1D1B" stroke-linecap="round" stroke-miterlimit="10" d="M27.83,42.04c-0.09-0.14-0.06-0.32,0.08-0.42
		c0.14-0.09,0.32-0.06,0.42,0.08c0.09,0.14,0.06,0.32-0.08,0.42C28.11,42.2,27.93,42.17,27.83,42.04z"/>
	<path fill="none" stroke="#1D1D1B" stroke-linecap="round" stroke-miterlimit="10" d="M27.94,42.8c-0.09-0.14-0.06-0.32,0.07-0.42
		c0.14-0.09,0.32-0.06,0.42,0.07c0.09,0.14,0.06,0.32-0.07,0.42C28.23,42.97,28.04,42.94,27.94,42.8z"/>
	<path fill="none" stroke="#1D1D1B" stroke-linecap="round" stroke-miterlimit="10" d="M28.53,43.49c-0.02,0.16-0.16,0.29-0.33,0.27
		c-0.16-0.02-0.28-0.16-0.27-0.33c0.02-0.16,0.16-0.29,0.33-0.27C28.42,43.18,28.54,43.32,28.53,43.49z"/>
	<path fill="none" stroke="#1D1D1B" stroke-linecap="round" stroke-miterlimit="10" d="M28.8,44.24c-0.07,0.15-0.25,0.21-0.4,0.14
		c-0.15-0.07-0.21-0.25-0.14-0.4c0.07-0.15,0.25-0.21,0.4-0.14C28.81,43.92,28.87,44.1,28.8,44.24z"/>
	<path fill="none" stroke="#1D1D1B" stroke-linecap="round" stroke-miterlimit="10" d="M28.43,41.45c-0.09-0.14-0.06-0.32,0.07-0.42
		c0.14-0.09,0.32-0.06,0.42,0.07c0.09,0.14,0.06,0.32-0.07,0.42C28.72,41.61,28.53,41.58,28.43,41.45z"/>
	<path fill="none" stroke="#1D1D1B" stroke-linecap="round" stroke-miterlimit="10" d="M28.88,41.87c0.16,0.02,0.28,0.16,0.27,0.33
		c-0.02,0.16-0.16,0.29-0.33,0.27c-0.16-0.02-0.28-0.16-0.27-0.33C28.57,41.97,28.72,41.85,28.88,41.87z"/>
	<path fill="none" stroke="#1D1D1B" stroke-linecap="round" stroke-miterlimit="10" d="M29.36,43.1c-0.02,0.16-0.16,0.29-0.33,0.27
		c-0.16-0.02-0.28-0.16-0.27-0.33c0.02-0.16,0.16-0.29,0.33-0.27C29.26,42.79,29.38,42.94,29.36,43.1z"/>
	<path fill="none" stroke="#1D1D1B" stroke-linecap="round" stroke-miterlimit="10" d="M29.12,41.48c-0.11-0.12-0.11-0.31,0.01-0.42
		c0.12-0.11,0.31-0.11,0.42,0.01c0.11,0.12,0.11,0.31-0.01,0.42C29.42,41.61,29.23,41.6,29.12,41.48z"/>
	<path fill="none" stroke="#1D1D1B" stroke-linecap="round" stroke-miterlimit="10" d="M29.36,42.17c-0.11-0.12-0.11-0.31,0.01-0.42
		c0.12-0.11,0.31-0.11,0.42,0.01c0.11,0.12,0.11,0.31-0.01,0.42C29.66,42.3,29.47,42.29,29.36,42.17z"/>
	<path fill="none" stroke="#1D1D1B" stroke-linecap="round" stroke-miterlimit="10" d="M29.97,42.48c0.11,0.12,0.1,0.31-0.02,0.42
		c-0.12,0.11-0.31,0.11-0.42-0.01c-0.11-0.12-0.11-0.31,0.01-0.42C29.66,42.36,29.85,42.36,29.97,42.48z"/>
	<path fill="none" stroke="#1D1D1B" stroke-linecap="round" stroke-miterlimit="10" d="M29.58,40.24c-0.09-0.13-0.06-0.32,0.07-0.42
		c0.14-0.09,0.32-0.06,0.42,0.08c0.09,0.14,0.06,0.32-0.07,0.42C29.86,40.41,29.68,40.38,29.58,40.24z"/>
	<path fill="none" stroke="#1D1D1B" stroke-linecap="round" stroke-miterlimit="10" d="M30.32,40.81c0.07,0.15,0,0.33-0.15,0.4
		c-0.15,0.07-0.33,0-0.4-0.15c-0.07-0.15,0-0.33,0.15-0.4C30.07,40.59,30.25,40.66,30.32,40.81z"/>
	<path fill="none" stroke="#1D1D1B" stroke-linecap="round" stroke-miterlimit="10" d="M30.56,41.51c0.07,0.15,0,0.33-0.15,0.4
		c-0.15,0.07-0.33,0-0.4-0.15c-0.07-0.15,0-0.33,0.15-0.4C30.32,41.3,30.49,41.36,30.56,41.51z"/>
	<path fill="none" stroke="#1D1D1B" stroke-linecap="round" stroke-miterlimit="10" d="M30.22,39.41c-0.09-0.14-0.06-0.32,0.08-0.42
		c0.14-0.09,0.32-0.06,0.42,0.08c0.09,0.13,0.06,0.32-0.08,0.41c-0.02,0.02-0.05,0.03-0.08,0.04c0.11,0.01,0.2,0.07,0.25,0.17
		c0.07,0.15,0,0.33-0.15,0.4c-0.15,0.07-0.33,0-0.4-0.15c-0.07-0.15,0-0.33,0.15-0.4c0.01,0,0.03-0.01,0.04-0.01
		C30.36,39.53,30.28,39.49,30.22,39.41z"/>
	<path fill="none" stroke="#1D1D1B" stroke-linecap="round" stroke-miterlimit="10" d="M31.09,40.56c0.07,0.15,0,0.33-0.15,0.4
		c-0.15,0.07-0.33,0-0.4-0.15c-0.07-0.15,0-0.33,0.15-0.4C30.84,40.34,31.02,40.41,31.09,40.56z"/>
	<path fill="none" stroke="#1D1D1B" stroke-linecap="round" stroke-miterlimit="10" d="M30.86,38.76c-0.09-0.14-0.06-0.32,0.08-0.42
		c0.14-0.09,0.32-0.06,0.42,0.07c0.09,0.14,0.06,0.32-0.08,0.42C31.14,38.93,30.95,38.9,30.86,38.76z"/>
	<path fill="none" stroke="#1D1D1B" stroke-linecap="round" stroke-miterlimit="10" d="M31.53,39.12c0.07,0.15,0,0.33-0.15,0.4
		c-0.15,0.07-0.33,0-0.4-0.15c-0.07-0.15,0-0.33,0.15-0.4C31.28,38.9,31.46,38.97,31.53,39.12z"/>
	<path fill="none" stroke="#1D1D1B" stroke-linecap="round" stroke-miterlimit="10" d="M31.73,39.77c0.07,0.15,0,0.33-0.15,0.4
		c-0.15,0.07-0.33,0-0.4-0.15c-0.07-0.15,0-0.33,0.15-0.4C31.48,39.55,31.66,39.62,31.73,39.77z"/>
	<path fill="none" stroke="#1D1D1B" stroke-linecap="round" stroke-miterlimit="10" d="M31.46,38.25c-0.09-0.14-0.06-0.32,0.07-0.42
		c0.14-0.09,0.32-0.06,0.42,0.07c0.09,0.14,0.06,0.32-0.07,0.42C31.74,38.42,31.55,38.38,31.46,38.25z"/>
	<path fill="none" stroke="#1D1D1B" stroke-linecap="round" stroke-miterlimit="10" d="M32.52,40.03c0.07,0.15,0,0.33-0.15,0.4
		c-0.15,0.07-0.33,0-0.4-0.15c-0.07-0.15,0-0.33,0.15-0.4C32.27,39.81,32.45,39.88,32.52,40.03z"/>
	<path fill="none" stroke="#1D1D1B" stroke-linecap="round" stroke-miterlimit="10" d="M32.52,39.12c0.07,0.15,0,0.33-0.15,0.4
		c-0.15,0.07-0.33,0-0.4-0.15c-0.04-0.08-0.03-0.17,0-0.25c-0.13,0.02-0.26-0.04-0.32-0.17c-0.07-0.15,0-0.33,0.15-0.4
		c0.15-0.07,0.33,0,0.4,0.15c0.04,0.08,0.04,0.17,0,0.25C32.33,38.93,32.46,38.99,32.52,39.12z"/>
	<path fill="none" stroke="#1D1D1B" stroke-linecap="round" stroke-miterlimit="10" d="M32.19,37.37c0.01-0.01,0.03-0.02,0.05-0.03
		c-0.02-0.01-0.04-0.04-0.06-0.06c-0.09-0.14-0.06-0.32,0.08-0.42c0.14-0.09,0.32-0.06,0.42,0.08c0.09,0.14,0.06,0.32-0.08,0.42
		c-0.01,0.01-0.03,0.02-0.04,0.03c0.02,0.02,0.04,0.04,0.05,0.06c0.09,0.14,0.06,0.32-0.07,0.42c-0.14,0.09-0.32,0.06-0.42-0.08
		C32.02,37.65,32.06,37.47,32.19,37.37z"/>
	<path fill="none" stroke="#1D1D1B" stroke-linecap="round" stroke-miterlimit="10" d="M32.88,38.7c-0.15,0.07-0.33,0-0.4-0.15
		c-0.07-0.15,0-0.33,0.15-0.4c0.15-0.07,0.33,0,0.4,0.15C33.09,38.45,33.03,38.63,32.88,38.7z"/>
	<path fill="none" stroke="#1D1D1B" stroke-linecap="round" stroke-miterlimit="10" d="M33.49,38.71c0.09,0.14,0.06,0.32-0.08,0.42
		c-0.14,0.09-0.32,0.06-0.42-0.08c-0.09-0.13-0.06-0.32,0.08-0.41C33.21,38.54,33.4,38.58,33.49,38.71z"/>
	<path fill="none" stroke="#1D1D1B" stroke-linecap="round" stroke-miterlimit="10" d="M33,37.79c-0.09-0.13-0.06-0.32,0.08-0.41
		c0.13-0.1,0.32-0.06,0.42,0.07c0.09,0.14,0.06,0.32-0.08,0.42C33.28,37.96,33.1,37.92,33,37.79z"/>
	<path fill="none" stroke="#1D1D1B" stroke-linecap="round" stroke-miterlimit="10" d="M33.93,38.07c0.09,0.14,0.06,0.32-0.08,0.42
		c-0.14,0.09-0.32,0.06-0.42-0.08c-0.09-0.14-0.06-0.32,0.08-0.42C33.65,37.9,33.83,37.93,33.93,38.07z"/>
	<path fill="#E5007E" stroke="#1D1D1B" stroke-width="0.75" stroke-linecap="round" stroke-miterlimit="10" d="M37.76,30.99
		C16.95,21.78-3.94,52.28,22.73,48.54l1.22,1.17C26.68,71.23,50.28,47.94,37.76,30.99z M34.55,38.09l-1.44,1.59
		c0-0.05,0-0.09-0.03-0.14c-0.07-0.15-0.25-0.22-0.4-0.15c-0.15,0.07-0.22,0.25-0.15,0.4c0.06,0.12,0.19,0.19,0.32,0.17l-3.44,3.8
		c0-0.01,0.01-0.03,0.01-0.05c0.02-0.16-0.1-0.31-0.27-0.33s-0.31,0.1-0.33,0.27c-0.02,0.16,0.1,0.31,0.27,0.33
		c0.05,0,0.09,0,0.13-0.01l-1.59,1.75c0.08-0.1,0.09-0.26,0-0.37c-0.1-0.13-0.29-0.16-0.42-0.06c-0.13,0.1-0.16,0.29-0.06,0.42
		c0.1,0.13,0.29,0.16,0.42,0.06c0.01-0.01,0.03-0.02,0.04-0.04l-1.19,1.31c0.08-0.1,0.08-0.25,0-0.36c-0.1-0.13-0.29-0.16-0.42-0.06
		c-0.13,0.1-0.16,0.29-0.06,0.42c0.1,0.13,0.29,0.16,0.42,0.06l-0.79,0.87c-0.25,0.28-0.6,0.42-0.95,0.42
		c-0.25,0-0.5-0.07-0.72-0.23c0.01,0,0.02,0,0.04,0c0.16,0,0.3-0.13,0.3-0.3c0-0.17-0.13-0.3-0.3-0.3c-0.16,0-0.3,0.13-0.3,0.3
		c0,0.02,0,0.04,0,0.06c-0.41-0.48-0.4-1.2,0.03-1.68l3.67-4.04c-0.05,0.09-0.04,0.21,0.02,0.3c0.09,0.14,0.28,0.17,0.41,0.08
		c0.14-0.09,0.17-0.28,0.08-0.42c-0.09-0.13-0.26-0.16-0.4-0.09l1.51-1.66c-0.01,0.07,0,0.15,0.05,0.21
		c0.09,0.14,0.28,0.17,0.42,0.08c0.14-0.09,0.17-0.28,0.07-0.42c-0.07-0.1-0.2-0.15-0.31-0.12l3.44-3.79
		c0.48-0.52,1.29-0.56,1.81-0.09C34.99,36.75,35.03,37.56,34.55,38.09z"/>
	<path fill="#B17F49" stroke="#1D1D1B" stroke-linecap="round" stroke-miterlimit="10" d="M23.95,49.72
		C19.13,54.75,15.4,60,13.92,65.71l-1.22-0.74c1.92-4.86,5.63-10.5,10.02-16.43L23.95,49.72z"/>
	<path fill="none" stroke="#B5B5B5" stroke-width="0.25" stroke-miterlimit="10" d="M23.34,31.31c-7.33,4.97-8.37,9.98-1.63,15.03"
		/>
	<path fill="none" stroke="#B5B5B5" stroke-width="0.25" stroke-miterlimit="10" d="M29.58,30.24c-7.37,3.24-10.85,10.39-7.59,15.67
		"/>
	<path fill="none" stroke="#B5B5B5" stroke-width="0.25" stroke-miterlimit="10" d="M30.54,32.34c-5.2,3.74-7.83,8.2-6.59,12.82"/>
	<path fill="none" stroke="#B5B5B5" stroke-width="0.25" stroke-miterlimit="10" d="M37.76,35.94c-0.88,4.72-2.82,9.01-9.43,11.4"/>
	<path fill="none" stroke="#B5B5B5" stroke-width="0.25" stroke-miterlimit="10" d="M40.08,40.53c0.04,2.15-5.88,9.01-11.75,8.33"/>
	<path fill="none" stroke="#B5B5B5" stroke-width="0.25" stroke-miterlimit="10" d="M40.44,45.38c-2.52,4.29-6.18,6.72-12.25,5.2"/>
	<path fill="none" stroke="#B5B5B5" stroke-width="0.25" stroke-miterlimit="10" d="M26.41,52.78c1.39,2.5,4.65,2.99,9.79,1.46"/>
	<path fill="none" stroke="#B5B5B5" stroke-width="0.25" stroke-miterlimit="10" d="M14.58,36.88c-3.24,5.19-1.71,8.8,5.69,10.45"/>
	<path fill="#7E4E24" stroke="#1D1D1B" stroke-width="0.25" stroke-miterlimit="10" d="M34.46,36.28c-0.52-0.48-1.33-0.44-1.81,0.09
		l-3.44,3.79c0.12-0.03,0.24,0.02,0.31,0.12c0.09,0.14,0.06,0.32-0.07,0.42c-0.14,0.09-0.32,0.06-0.42-0.08
		c-0.05-0.07-0.06-0.14-0.05-0.21l-1.51,1.66c0.13-0.08,0.31-0.04,0.4,0.09c0.09,0.14,0.06,0.32-0.08,0.42
		c-0.13,0.09-0.32,0.06-0.41-0.08c-0.07-0.09-0.07-0.21-0.02-0.3l-3.67,4.04c-0.43,0.48-0.44,1.2-0.03,1.68c0-0.02,0-0.04,0-0.06
		c0-0.17,0.13-0.3,0.3-0.3c0.16,0,0.3,0.13,0.3,0.3c0,0.16-0.13,0.3-0.3,0.3c-0.01,0-0.02,0-0.04,0c0.22,0.15,0.47,0.23,0.72,0.23
		c0.35,0,0.7-0.14,0.95-0.42l0.79-0.87c-0.13,0.1-0.32,0.08-0.42-0.06c-0.1-0.13-0.08-0.32,0.06-0.42c0.13-0.1,0.32-0.08,0.42,0.06
		c0.08,0.11,0.08,0.25,0,0.36l1.19-1.31c-0.01,0.01-0.03,0.03-0.04,0.04c-0.13,0.1-0.32,0.08-0.42-0.06
		c-0.1-0.13-0.08-0.32,0.06-0.42c0.13-0.1,0.32-0.08,0.42,0.06c0.08,0.11,0.08,0.26,0,0.37l1.59-1.75
		c-0.04,0.01-0.08,0.02-0.13,0.01c-0.16-0.02-0.29-0.16-0.27-0.33c0.02-0.16,0.16-0.29,0.33-0.27s0.29,0.16,0.27,0.33
		c0,0.02,0,0.03-0.01,0.05l3.44-3.8c-0.13,0.02-0.26-0.05-0.32-0.17c-0.07-0.15,0-0.33,0.15-0.4c0.15-0.07,0.33,0,0.4,0.15
		c0.02,0.05,0.03,0.09,0.03,0.14l1.44-1.59C35.03,37.56,34.99,36.75,34.46,36.28z M33.08,37.37c0.13-0.1,0.32-0.06,0.42,0.07
		c0.09,0.14,0.06,0.32-0.08,0.42c-0.14,0.09-0.32,0.06-0.42-0.08C32.91,37.65,32.94,37.47,33.08,37.37z M32.18,37.29
		c-0.09-0.14-0.06-0.32,0.08-0.42c0.14-0.09,0.32-0.06,0.42,0.08c0.09,0.14,0.06,0.32-0.08,0.42c-0.01,0.01-0.03,0.02-0.04,0.03
		c0.02,0.02,0.04,0.04,0.05,0.06c0.09,0.14,0.06,0.32-0.07,0.42c-0.14,0.09-0.32,0.06-0.42-0.08c-0.09-0.13-0.06-0.32,0.07-0.41
		c0.01-0.01,0.03-0.02,0.05-0.03C32.21,37.33,32.19,37.31,32.18,37.29z M31.53,37.83c0.14-0.09,0.32-0.06,0.42,0.07
		c0.09,0.14,0.06,0.32-0.07,0.42c-0.14,0.09-0.32,0.06-0.42-0.07C31.37,38.11,31.4,37.93,31.53,37.83z M31.38,39.51
		c-0.15,0.07-0.33,0-0.4-0.15c-0.07-0.15,0-0.33,0.15-0.4c0.15-0.07,0.33,0,0.4,0.15C31.6,39.27,31.53,39.44,31.38,39.51z
		 M30.93,38.34c0.14-0.09,0.32-0.06,0.42,0.07c0.09,0.14,0.06,0.32-0.08,0.42c-0.14,0.09-0.32,0.06-0.42-0.07
		C30.76,38.62,30.79,38.44,30.93,38.34z M30.3,39c0.14-0.09,0.32-0.06,0.42,0.08c0.09,0.13,0.06,0.32-0.08,0.41
		c-0.02,0.02-0.05,0.03-0.08,0.04c0.11,0.01,0.2,0.07,0.25,0.17c0.07,0.15,0,0.33-0.15,0.4c-0.15,0.07-0.33,0-0.4-0.15
		c-0.07-0.15,0-0.33,0.15-0.4c0.01,0,0.03-0.01,0.04-0.01c-0.09,0-0.18-0.04-0.23-0.12C30.13,39.28,30.16,39.09,30.3,39z
		 M30.17,41.2c-0.15,0.07-0.33,0-0.4-0.15c-0.07-0.15,0-0.33,0.15-0.4c0.15-0.07,0.33,0,0.4,0.15
		C30.39,40.96,30.32,41.14,30.17,41.2z M29.65,39.82c0.14-0.09,0.32-0.06,0.42,0.08c0.09,0.14,0.06,0.32-0.07,0.42
		c-0.14,0.09-0.32,0.06-0.42-0.08C29.49,40.11,29.52,39.92,29.65,39.82z M29.13,41.06c0.12-0.11,0.31-0.11,0.42,0.01
		c0.11,0.12,0.11,0.31-0.01,0.42c-0.12,0.11-0.31,0.11-0.42-0.01C29.01,41.36,29.01,41.17,29.13,41.06z M29.15,42.19
		c-0.02,0.16-0.16,0.29-0.33,0.27c-0.16-0.02-0.28-0.16-0.27-0.33c0.02-0.16,0.16-0.29,0.33-0.27
		C29.05,41.88,29.17,42.03,29.15,42.19z M28.51,41.03c0.14-0.09,0.32-0.06,0.42,0.07c0.09,0.14,0.06,0.32-0.07,0.42
		c-0.14,0.09-0.32,0.06-0.42-0.07C28.34,41.31,28.37,41.12,28.51,41.03z M27.83,42.04c-0.09-0.14-0.06-0.32,0.08-0.42
		c0.14-0.09,0.32-0.06,0.42,0.08c0.09,0.14,0.06,0.32-0.08,0.42C28.11,42.2,27.93,42.17,27.83,42.04z M28.02,42.38
		c0.14-0.09,0.32-0.06,0.42,0.07c0.09,0.14,0.06,0.32-0.07,0.42c-0.14,0.09-0.32,0.06-0.42-0.07S27.88,42.48,28.02,42.38z
		 M28.53,43.49c-0.02,0.16-0.16,0.29-0.33,0.27c-0.16-0.02-0.28-0.16-0.27-0.33c0.02-0.16,0.16-0.29,0.33-0.27
		C28.42,43.18,28.54,43.32,28.53,43.49z M27.22,42.83c0.14-0.09,0.32-0.06,0.42,0.07c0.09,0.14,0.06,0.32-0.07,0.42
		c-0.14,0.09-0.32,0.06-0.42-0.07C27.05,43.11,27.09,42.92,27.22,42.83z M27.17,44.11c0,0.16-0.14,0.3-0.3,0.3
		c-0.16,0-0.3-0.14-0.3-0.3s0.13-0.3,0.3-0.3C27.03,43.81,27.17,43.95,27.17,44.11z M26.71,43.07c0.17,0,0.3,0.13,0.3,0.3
		c0,0.17-0.13,0.3-0.3,0.3c-0.16,0-0.3-0.13-0.3-0.3C26.41,43.21,26.54,43.07,26.71,43.07z M26.07,43.94c0.16,0,0.3,0.13,0.3,0.3
		c0,0.17-0.13,0.3-0.3,0.3c-0.16,0-0.3-0.13-0.3-0.3C25.77,44.08,25.91,43.94,26.07,43.94z M25.61,44.36c0.16,0,0.3,0.13,0.3,0.3
		c0,0.17-0.13,0.3-0.3,0.3s-0.3-0.13-0.3-0.3C25.31,44.5,25.44,44.36,25.61,44.36z M25.61,45.08c0.16,0,0.3,0.13,0.3,0.3
		c0,0.16-0.13,0.3-0.3,0.3s-0.3-0.13-0.3-0.3C25.31,45.21,25.44,45.08,25.61,45.08z M24.92,45.39c0.16,0,0.3,0.13,0.3,0.3
		c0,0.16-0.14,0.3-0.3,0.3c-0.16,0-0.3-0.13-0.3-0.3C24.62,45.52,24.75,45.39,24.92,45.39z M23.95,46.12c0.03,0,0.06,0,0.08,0.01
		c-0.01-0.03-0.02-0.07-0.02-0.1c0-0.16,0.13-0.3,0.3-0.3c0.16,0,0.3,0.13,0.3,0.3c0,0.17-0.14,0.3-0.3,0.3
		c-0.03,0-0.06,0-0.08-0.01c0.01,0.03,0.02,0.06,0.02,0.09c0,0.16-0.13,0.3-0.3,0.3c-0.16,0-0.3-0.13-0.3-0.3
		C23.65,46.26,23.79,46.12,23.95,46.12z M23.72,47.4c-0.16,0-0.3-0.13-0.3-0.3c0-0.17,0.13-0.3,0.3-0.3s0.3,0.13,0.3,0.3
		C24.02,47.26,23.88,47.4,23.72,47.4z M24.1,46.86c0-0.16,0.14-0.3,0.3-0.3c0.16,0,0.3,0.13,0.3,0.3c0,0.17-0.13,0.3-0.3,0.3
		C24.24,47.17,24.1,47.03,24.1,46.86z M24.62,47.87c-0.17,0-0.3-0.13-0.3-0.3c0-0.17,0.13-0.3,0.3-0.3c0.16,0,0.3,0.13,0.3,0.3
		C24.92,47.74,24.78,47.87,24.62,47.87z M24.87,46.52c0-0.16,0.13-0.3,0.3-0.3c0.16,0,0.3,0.13,0.3,0.3c0,0.16-0.13,0.3-0.3,0.3
		C25.01,46.81,24.87,46.68,24.87,46.52z M25.38,47.58c-0.16,0-0.3-0.14-0.3-0.3c0-0.16,0.14-0.3,0.3-0.3c0.16,0,0.3,0.13,0.3,0.3
		C25.68,47.44,25.55,47.58,25.38,47.58z M26.02,46.36c-0.13,0.1-0.32,0.08-0.42-0.06c-0.1-0.13-0.08-0.32,0.06-0.42
		c0.13-0.1,0.32-0.08,0.42,0.06C26.18,46.07,26.15,46.26,26.02,46.36z M26.24,45.46c-0.15-0.08-0.21-0.25-0.14-0.4
		c0.07-0.15,0.25-0.21,0.4-0.14c0.15,0.07,0.21,0.25,0.14,0.4C26.57,45.47,26.39,45.54,26.24,45.46z M26.87,46.13
		c-0.13,0.1-0.32,0.08-0.42-0.06c-0.1-0.13-0.08-0.32,0.06-0.42c0.13-0.1,0.32-0.07,0.42,0.06C27.02,45.85,27,46.03,26.87,46.13z
		 M27.27,45.09c-0.07,0.15-0.25,0.21-0.4,0.14c-0.15-0.08-0.21-0.25-0.14-0.4c0.07-0.15,0.25-0.21,0.4-0.14
		C27.28,44.76,27.34,44.94,27.27,45.09z M27.39,44.19c-0.15-0.07-0.21-0.25-0.14-0.4c0.07-0.15,0.25-0.21,0.4-0.14
		c0.15,0.07,0.21,0.25,0.14,0.4C27.72,44.2,27.54,44.26,27.39,44.19z M28.19,44.8c-0.07,0.15-0.25,0.21-0.4,0.14
		c-0.15-0.07-0.21-0.25-0.14-0.4c0.07-0.15,0.25-0.21,0.4-0.14C28.2,44.47,28.27,44.65,28.19,44.8z M28.8,44.24
		c-0.07,0.15-0.25,0.21-0.4,0.14c-0.15-0.07-0.21-0.25-0.14-0.4c0.07-0.15,0.25-0.21,0.4-0.14C28.81,43.92,28.87,44.1,28.8,44.24z
		 M29.03,43.37c-0.16-0.02-0.28-0.16-0.27-0.33c0.02-0.16,0.16-0.29,0.33-0.27c0.16,0.02,0.28,0.16,0.27,0.33
		S29.2,43.39,29.03,43.37z M29.36,42.17c-0.11-0.12-0.11-0.31,0.01-0.42c0.12-0.11,0.31-0.11,0.42,0.01
		c0.11,0.12,0.11,0.31-0.01,0.42C29.66,42.3,29.47,42.29,29.36,42.17z M29.95,42.91c-0.12,0.11-0.31,0.11-0.42-0.01
		c-0.11-0.12-0.11-0.31,0.01-0.42c0.12-0.11,0.31-0.1,0.42,0.01C30.08,42.6,30.07,42.79,29.95,42.91z M30.42,41.91
		c-0.15,0.07-0.33,0-0.4-0.15c-0.07-0.15,0-0.33,0.15-0.4c0.15-0.07,0.33,0,0.4,0.15C30.63,41.66,30.57,41.84,30.42,41.91z
		 M30.94,40.96c-0.15,0.07-0.33,0-0.4-0.15c-0.07-0.15,0-0.33,0.15-0.4c0.15-0.07,0.33,0,0.4,0.15
		C31.16,40.71,31.09,40.89,30.94,40.96z M31.58,40.16c-0.15,0.07-0.33,0-0.4-0.15c-0.07-0.15,0-0.33,0.15-0.4
		c0.15-0.07,0.33,0,0.4,0.15C31.8,39.92,31.73,40.09,31.58,40.16z M32.52,40.03c0.07,0.15,0,0.33-0.15,0.4
		c-0.15,0.07-0.33,0-0.4-0.15c-0.07-0.15,0-0.33,0.15-0.4C32.27,39.81,32.45,39.88,32.52,40.03z M32.37,39.51
		c-0.15,0.07-0.33,0-0.4-0.15c-0.04-0.08-0.03-0.17,0-0.25c-0.13,0.02-0.26-0.04-0.32-0.17c-0.07-0.15,0-0.33,0.15-0.4
		c0.15-0.07,0.33,0,0.4,0.15c0.04,0.08,0.04,0.17,0,0.25c0.13-0.02,0.26,0.05,0.32,0.17C32.59,39.27,32.52,39.44,32.37,39.51z
		 M32.48,38.55c-0.07-0.15,0-0.33,0.15-0.4c0.15-0.07,0.33,0,0.4,0.15c0.07,0.15,0,0.33-0.15,0.4
		C32.73,38.77,32.55,38.7,32.48,38.55z M33.42,39.13c-0.14,0.09-0.32,0.06-0.42-0.08c-0.09-0.13-0.06-0.32,0.08-0.41
		c0.13-0.1,0.32-0.06,0.42,0.07C33.59,38.85,33.56,39.04,33.42,39.13z M33.85,38.49c-0.14,0.09-0.32,0.06-0.42-0.08
		c-0.09-0.14-0.06-0.32,0.08-0.42c0.14-0.09,0.32-0.06,0.42,0.08C34.02,38.21,33.99,38.39,33.85,38.49z"/>
	<path fill="none" stroke="#1D1D1B" stroke-width="0.25" stroke-miterlimit="10" d="M23.72,47.4c-0.16,0-0.3-0.13-0.3-0.3
		c0-0.17,0.13-0.3,0.3-0.3s0.3,0.13,0.3,0.3C24.02,47.26,23.88,47.4,23.72,47.4z"/>
	<path fill="none" stroke="#1D1D1B" stroke-width="0.25" stroke-miterlimit="10" d="M24.25,47.86c0,0.16-0.13,0.3-0.3,0.3
		c-0.01,0-0.02,0-0.04,0c-0.05-0.03-0.09-0.07-0.14-0.11c-0.04-0.04-0.08-0.08-0.12-0.13c0-0.02,0-0.04,0-0.06
		c0-0.17,0.13-0.3,0.3-0.3C24.12,47.56,24.25,47.69,24.25,47.86z"/>
	<path fill="none" stroke="#1D1D1B" stroke-width="0.25" stroke-miterlimit="10" d="M23.65,46.42c0-0.16,0.13-0.3,0.3-0.3
		c0.03,0,0.06,0,0.08,0.01c-0.01-0.03-0.02-0.07-0.02-0.1c0-0.16,0.13-0.3,0.3-0.3c0.16,0,0.3,0.13,0.3,0.3c0,0.17-0.14,0.3-0.3,0.3
		c-0.03,0-0.06,0-0.08-0.01c0.01,0.03,0.02,0.06,0.02,0.09c0,0.16-0.13,0.3-0.3,0.3C23.79,46.72,23.65,46.59,23.65,46.42z"/>
	<path fill="none" stroke="#1D1D1B" stroke-width="0.25" stroke-miterlimit="10" d="M24.7,46.86c0,0.17-0.13,0.3-0.3,0.3
		c-0.16,0-0.3-0.13-0.3-0.3c0-0.16,0.14-0.3,0.3-0.3C24.57,46.57,24.7,46.7,24.7,46.86z"/>
	<path fill="none" stroke="#1D1D1B" stroke-width="0.25" stroke-miterlimit="10" d="M24.92,47.58c0,0.16-0.13,0.3-0.3,0.3
		c-0.17,0-0.3-0.13-0.3-0.3c0-0.17,0.13-0.3,0.3-0.3C24.78,47.27,24.92,47.41,24.92,47.58z"/>
	<path fill="none" stroke="#1D1D1B" stroke-width="0.25" stroke-miterlimit="10" d="M24.62,45.69c0-0.17,0.13-0.3,0.3-0.3
		c0.16,0,0.3,0.13,0.3,0.3c0,0.16-0.14,0.3-0.3,0.3C24.75,45.99,24.62,45.86,24.62,45.69z"/>
	<path fill="none" stroke="#1D1D1B" stroke-width="0.25" stroke-miterlimit="10" d="M25.17,46.81c-0.17,0-0.3-0.13-0.3-0.3
		c0-0.16,0.13-0.3,0.3-0.3c0.16,0,0.3,0.13,0.3,0.3C25.47,46.68,25.34,46.81,25.17,46.81z"/>
	<path fill="none" stroke="#1D1D1B" stroke-width="0.25" stroke-miterlimit="10" d="M25.68,47.27c0,0.16-0.13,0.3-0.3,0.3
		c-0.16,0-0.3-0.14-0.3-0.3c0-0.16,0.14-0.3,0.3-0.3C25.55,46.98,25.68,47.11,25.68,47.27z"/>
	<path fill="none" stroke="#1D1D1B" stroke-width="0.25" stroke-miterlimit="10" d="M25.31,45.38c0-0.17,0.14-0.3,0.3-0.3
		s0.3,0.13,0.3,0.3c0,0.16-0.13,0.3-0.3,0.3S25.31,45.54,25.31,45.38z"/>
	<path fill="none" stroke="#1D1D1B" stroke-width="0.25" stroke-miterlimit="10" d="M25.31,44.66c0-0.16,0.14-0.3,0.3-0.3
		s0.3,0.13,0.3,0.3c0,0.17-0.13,0.3-0.3,0.3S25.31,44.83,25.31,44.66z"/>
	<path fill="none" stroke="#1D1D1B" stroke-width="0.25" stroke-miterlimit="10" d="M26.02,46.36c-0.13,0.1-0.32,0.08-0.42-0.06
		c-0.1-0.13-0.08-0.32,0.06-0.42c0.13-0.1,0.32-0.08,0.42,0.06C26.18,46.07,26.15,46.26,26.02,46.36z"/>
	<path fill="none" stroke="#1D1D1B" stroke-width="0.25" stroke-miterlimit="10" d="M25.77,44.24c0-0.16,0.14-0.3,0.3-0.3
		c0.16,0,0.3,0.13,0.3,0.3c0,0.17-0.13,0.3-0.3,0.3C25.91,44.54,25.77,44.41,25.77,44.24z"/>
	<path fill="none" stroke="#1D1D1B" stroke-width="0.25" stroke-miterlimit="10" d="M26.43,46.67c0.08,0.11,0.08,0.25,0,0.36
		l-0.03,0.04c-0.01,0.01-0.01,0.02-0.02,0.02c-0.13,0.1-0.32,0.08-0.42-0.06c-0.1-0.13-0.08-0.32,0.06-0.42
		C26.14,46.52,26.33,46.54,26.43,46.67z"/>
	<path fill="none" stroke="#1D1D1B" stroke-width="0.25" stroke-miterlimit="10" d="M26.5,44.92c0.15,0.07,0.21,0.25,0.14,0.4
		c-0.07,0.15-0.25,0.21-0.4,0.14c-0.15-0.08-0.21-0.25-0.14-0.4C26.18,44.91,26.36,44.85,26.5,44.92z"/>
	<path fill="none" stroke="#1D1D1B" stroke-width="0.25" stroke-miterlimit="10" d="M26.41,43.37c0-0.16,0.13-0.3,0.3-0.3
		c0.17,0,0.3,0.13,0.3,0.3c0,0.17-0.13,0.3-0.3,0.3C26.54,43.67,26.41,43.54,26.41,43.37z"/>
	<path fill="none" stroke="#1D1D1B" stroke-width="0.25" stroke-miterlimit="10" d="M26.87,43.81c0.16,0,0.3,0.13,0.3,0.3
		s-0.14,0.3-0.3,0.3c-0.16,0-0.3-0.14-0.3-0.3S26.7,43.81,26.87,43.81z"/>
	<path fill="none" stroke="#1D1D1B" stroke-width="0.25" stroke-miterlimit="10" d="M26.92,45.71c0.1,0.13,0.08,0.32-0.06,0.42
		c-0.13,0.1-0.32,0.08-0.42-0.06c-0.1-0.13-0.08-0.32,0.06-0.42C26.63,45.56,26.82,45.58,26.92,45.71z"/>
	<path fill="none" stroke="#1D1D1B" stroke-width="0.25" stroke-miterlimit="10" d="M27.27,45.09c-0.07,0.15-0.25,0.21-0.4,0.14
		c-0.15-0.08-0.21-0.25-0.14-0.4c0.07-0.15,0.25-0.21,0.4-0.14C27.28,44.76,27.34,44.94,27.27,45.09z"/>
	<path fill="none" stroke="#1D1D1B" stroke-width="0.25" stroke-miterlimit="10" d="M27.63,45.34c0.08,0.11,0.08,0.26,0,0.37
		c0,0-0.01,0.01-0.01,0.01c-0.01,0.01-0.03,0.03-0.04,0.04c-0.13,0.1-0.32,0.08-0.42-0.06c-0.1-0.13-0.08-0.32,0.06-0.42
		C27.35,45.19,27.53,45.21,27.63,45.34z"/>
	<path fill="none" stroke="#1D1D1B" stroke-width="0.25" stroke-miterlimit="10" d="M27.15,43.25c-0.09-0.14-0.06-0.32,0.07-0.42
		c0.14-0.09,0.32-0.06,0.42,0.07c0.09,0.14,0.06,0.32-0.07,0.42C27.43,43.41,27.24,43.38,27.15,43.25z"/>
	<path fill="none" stroke="#1D1D1B" stroke-width="0.25" stroke-miterlimit="10" d="M27.26,43.79c0.07-0.15,0.25-0.21,0.4-0.14
		c0.15,0.07,0.21,0.25,0.14,0.4c-0.07,0.15-0.25,0.21-0.4,0.14C27.25,44.12,27.19,43.94,27.26,43.79z"/>
	<path fill="none" stroke="#1D1D1B" stroke-width="0.25" stroke-miterlimit="10" d="M27.38,42.5c-0.07-0.09-0.07-0.21-0.02-0.3
		l0.12-0.13c0.13-0.08,0.31-0.04,0.4,0.09c0.09,0.14,0.06,0.32-0.08,0.42C27.67,42.67,27.48,42.63,27.38,42.5z"/>
	<path fill="none" stroke="#1D1D1B" stroke-width="0.25" stroke-miterlimit="10" d="M28.19,44.8c-0.07,0.15-0.25,0.21-0.4,0.14
		c-0.15-0.07-0.21-0.25-0.14-0.4c0.07-0.15,0.25-0.21,0.4-0.14C28.2,44.47,28.27,44.65,28.19,44.8z"/>
	<path fill="none" stroke="#1D1D1B" stroke-width="0.25" stroke-miterlimit="10" d="M27.83,42.04c-0.09-0.14-0.06-0.32,0.08-0.42
		c0.14-0.09,0.32-0.06,0.42,0.08c0.09,0.14,0.06,0.32-0.08,0.42C28.11,42.2,27.93,42.17,27.83,42.04z"/>
	<path fill="none" stroke="#1D1D1B" stroke-width="0.25" stroke-miterlimit="10" d="M27.94,42.8c-0.09-0.14-0.06-0.32,0.07-0.42
		c0.14-0.09,0.32-0.06,0.42,0.07c0.09,0.14,0.06,0.32-0.07,0.42C28.23,42.97,28.04,42.94,27.94,42.8z"/>
	<path fill="none" stroke="#1D1D1B" stroke-width="0.25" stroke-miterlimit="10" d="M27.93,43.43c0.02-0.16,0.16-0.29,0.33-0.27
		c0.16,0.02,0.29,0.16,0.27,0.33c-0.02,0.16-0.16,0.29-0.33,0.27C28.03,43.74,27.92,43.59,27.93,43.43z"/>
	<path fill="none" stroke="#1D1D1B" stroke-width="0.25" stroke-miterlimit="10" d="M28.8,44.24c-0.07,0.15-0.25,0.21-0.4,0.14
		c-0.15-0.07-0.21-0.25-0.14-0.4c0.07-0.15,0.25-0.21,0.4-0.14C28.81,43.92,28.87,44.1,28.8,44.24z"/>
	<path fill="none" stroke="#1D1D1B" stroke-width="0.25" stroke-miterlimit="10" d="M28.43,41.45c-0.09-0.14-0.06-0.32,0.07-0.42
		c0.14-0.09,0.32-0.06,0.42,0.07c0.09,0.14,0.06,0.32-0.07,0.42C28.72,41.61,28.53,41.58,28.43,41.45z"/>
	<path fill="none" stroke="#1D1D1B" stroke-width="0.25" stroke-miterlimit="10" d="M28.88,41.87c0.16,0.02,0.28,0.16,0.27,0.33
		c-0.02,0.16-0.16,0.29-0.33,0.27c-0.16-0.02-0.28-0.16-0.27-0.33C28.57,41.97,28.72,41.85,28.88,41.87z"/>
	<path fill="none" stroke="#1D1D1B" stroke-width="0.25" stroke-miterlimit="10" d="M28.76,43.04c0.02-0.16,0.16-0.29,0.33-0.27
		c0.16,0.02,0.28,0.16,0.27,0.33s-0.16,0.29-0.33,0.27C28.87,43.35,28.75,43.21,28.76,43.04z"/>
	<path fill="none" stroke="#1D1D1B" stroke-width="0.25" stroke-miterlimit="10" d="M29.42,43.7c0,0.02,0,0.03-0.01,0.05l-0.19,0.21
		c-0.04,0.01-0.08,0.02-0.13,0.01c-0.16-0.02-0.29-0.16-0.27-0.33c0.02-0.16,0.16-0.29,0.33-0.27S29.44,43.54,29.42,43.7z"/>
	<path fill="none" stroke="#1D1D1B" stroke-width="0.25" stroke-miterlimit="10" d="M29.03,40.62c-0.05-0.07-0.06-0.14-0.05-0.21
		l0.23-0.25c0.12-0.03,0.24,0.02,0.31,0.12c0.09,0.14,0.06,0.32-0.07,0.42C29.32,40.79,29.13,40.76,29.03,40.62z"/>
	<path fill="none" stroke="#1D1D1B" stroke-width="0.25" stroke-miterlimit="10" d="M29.12,41.48c-0.11-0.12-0.11-0.31,0.01-0.42
		c0.12-0.11,0.31-0.11,0.42,0.01c0.11,0.12,0.11,0.31-0.01,0.42C29.42,41.61,29.23,41.6,29.12,41.48z"/>
	<path fill="none" stroke="#1D1D1B" stroke-width="0.25" stroke-miterlimit="10" d="M29.36,42.17c-0.11-0.12-0.11-0.31,0.01-0.42
		c0.12-0.11,0.31-0.11,0.42,0.01c0.11,0.12,0.11,0.31-0.01,0.42C29.66,42.3,29.47,42.29,29.36,42.17z"/>
	<path fill="none" stroke="#1D1D1B" stroke-width="0.25" stroke-miterlimit="10" d="M29.97,42.48c0.11,0.12,0.1,0.31-0.02,0.42
		c-0.12,0.11-0.31,0.11-0.42-0.01c-0.11-0.12-0.11-0.31,0.01-0.42C29.66,42.36,29.85,42.36,29.97,42.48z"/>
	<path fill="none" stroke="#1D1D1B" stroke-width="0.25" stroke-miterlimit="10" d="M29.58,40.24c-0.09-0.13-0.06-0.32,0.07-0.42
		c0.14-0.09,0.32-0.06,0.42,0.08c0.09,0.14,0.06,0.32-0.07,0.42C29.86,40.41,29.68,40.38,29.58,40.24z"/>
	<path fill="none" stroke="#1D1D1B" stroke-width="0.25" stroke-miterlimit="10" d="M29.78,41.06c-0.07-0.15,0-0.33,0.15-0.4
		c0.15-0.07,0.33,0,0.4,0.15c0.07,0.15,0,0.33-0.15,0.4C30.02,41.27,29.84,41.21,29.78,41.06z"/>
	<path fill="none" stroke="#1D1D1B" stroke-width="0.25" stroke-miterlimit="10" d="M30.56,41.51c0.07,0.15,0,0.33-0.15,0.4
		c-0.15,0.07-0.33,0-0.4-0.15c-0.07-0.15,0-0.33,0.15-0.4C30.32,41.3,30.49,41.36,30.56,41.51z"/>
	<path fill="none" stroke="#1D1D1B" stroke-width="0.25" stroke-miterlimit="10" d="M30.22,39.41c-0.09-0.14-0.06-0.32,0.08-0.42
		c0.14-0.09,0.32-0.06,0.42,0.08c0.09,0.13,0.06,0.32-0.08,0.41c-0.02,0.02-0.05,0.03-0.08,0.04c0.11,0.01,0.2,0.07,0.25,0.17
		c0.07,0.15,0,0.33-0.15,0.4c-0.15,0.07-0.33,0-0.4-0.15c-0.07-0.15,0-0.33,0.15-0.4c0.01,0,0.03-0.01,0.04-0.01
		C30.36,39.53,30.28,39.49,30.22,39.41z"/>
	<path fill="none" stroke="#1D1D1B" stroke-width="0.25" stroke-miterlimit="10" d="M31.09,40.56c0.07,0.15,0,0.33-0.15,0.4
		c-0.15,0.07-0.33,0-0.4-0.15c-0.07-0.15,0-0.33,0.15-0.4C30.84,40.34,31.02,40.41,31.09,40.56z"/>
	<path fill="none" stroke="#1D1D1B" stroke-width="0.25" stroke-miterlimit="10" d="M30.86,38.76c-0.09-0.14-0.06-0.32,0.08-0.42
		c0.14-0.09,0.32-0.06,0.42,0.07c0.09,0.14,0.06,0.32-0.08,0.42C31.14,38.93,30.95,38.9,30.86,38.76z"/>
	<path fill="none" stroke="#1D1D1B" stroke-width="0.25" stroke-miterlimit="10" d="M31.53,39.12c0.07,0.15,0,0.33-0.15,0.4
		c-0.15,0.07-0.33,0-0.4-0.15c-0.07-0.15,0-0.33,0.15-0.4C31.28,38.9,31.46,38.97,31.53,39.12z"/>
	<path fill="none" stroke="#1D1D1B" stroke-width="0.25" stroke-miterlimit="10" d="M31.73,39.77c0.07,0.15,0,0.33-0.15,0.4
		c-0.15,0.07-0.33,0-0.4-0.15c-0.07-0.15,0-0.33,0.15-0.4C31.48,39.55,31.66,39.62,31.73,39.77z"/>
	<path fill="none" stroke="#1D1D1B" stroke-width="0.25" stroke-miterlimit="10" d="M31.46,38.25c-0.09-0.14-0.06-0.32,0.07-0.42
		c0.14-0.09,0.32-0.06,0.42,0.07c0.09,0.14,0.06,0.32-0.07,0.42C31.74,38.42,31.55,38.38,31.46,38.25z"/>
	<path fill="none" stroke="#1D1D1B" stroke-width="0.25" stroke-miterlimit="10" d="M32.52,40.03c0.07,0.15,0,0.33-0.15,0.4
		c-0.15,0.07-0.33,0-0.4-0.15c-0.07-0.15,0-0.33,0.15-0.4C32.27,39.81,32.45,39.88,32.52,40.03z"/>
	<path fill="none" stroke="#1D1D1B" stroke-width="0.25" stroke-miterlimit="10" d="M31.98,39.12c-0.13,0.02-0.26-0.04-0.32-0.17
		c-0.07-0.15,0-0.33,0.15-0.4c0.15-0.07,0.33,0,0.4,0.15c0.04,0.08,0.04,0.17,0,0.25c0.13-0.02,0.26,0.05,0.32,0.17
		c0.07,0.15,0,0.33-0.15,0.4c-0.15,0.07-0.33,0-0.4-0.15C31.94,39.28,31.94,39.2,31.98,39.12z"/>
	<path fill="none" stroke="#1D1D1B" stroke-width="0.25" stroke-miterlimit="10" d="M32.19,37.37c0.01-0.01,0.03-0.02,0.05-0.03
		c-0.02-0.01-0.04-0.04-0.06-0.06c-0.09-0.14-0.06-0.32,0.08-0.42c0.14-0.09,0.32-0.06,0.42,0.08c0.09,0.14,0.06,0.32-0.08,0.42
		c-0.01,0.01-0.03,0.02-0.04,0.03c0.02,0.02,0.04,0.04,0.05,0.06c0.09,0.14,0.06,0.32-0.07,0.42c-0.14,0.09-0.32,0.06-0.42-0.08
		C32.02,37.65,32.06,37.47,32.19,37.37z"/>
	<path fill="none" stroke="#1D1D1B" stroke-width="0.25" stroke-miterlimit="10" d="M32.63,38.16c0.15-0.07,0.33,0,0.4,0.15
		c0.07,0.15,0,0.33-0.15,0.4c-0.15,0.07-0.33,0-0.4-0.15C32.41,38.4,32.48,38.23,32.63,38.16z"/>
	<path fill="none" stroke="#1D1D1B" stroke-width="0.25" stroke-miterlimit="10" d="M33.08,39.53c0.02,0.05,0.03,0.09,0.03,0.14
		l-0.25,0.28c-0.13,0.02-0.26-0.05-0.32-0.17c-0.07-0.15,0-0.33,0.15-0.4C32.83,39.32,33.01,39.38,33.08,39.53z"/>
	<path fill="none" stroke="#1D1D1B" stroke-width="0.25" stroke-miterlimit="10" d="M33.49,38.71c0.09,0.14,0.06,0.32-0.08,0.42
		c-0.14,0.09-0.32,0.06-0.42-0.08c-0.09-0.13-0.06-0.32,0.08-0.41C33.21,38.54,33.4,38.58,33.49,38.71z"/>
	<path fill="none" stroke="#1D1D1B" stroke-width="0.25" stroke-miterlimit="10" d="M33,37.79c-0.09-0.13-0.06-0.32,0.08-0.41
		c0.13-0.1,0.32-0.06,0.42,0.07c0.09,0.14,0.06,0.32-0.08,0.42C33.28,37.96,33.1,37.92,33,37.79z"/>
	<path fill="none" stroke="#1D1D1B" stroke-width="0.25" stroke-miterlimit="10" d="M33.85,38.49c-0.14,0.09-0.32,0.06-0.42-0.08
		c-0.09-0.14-0.06-0.32,0.08-0.42c0.14-0.09,0.32-0.06,0.42,0.08C34.02,38.21,33.99,38.39,33.85,38.49z"/>
	<path fill="#D3D005" d="M24.92,47.58c0,0.16-0.13,0.3-0.3,0.3c-0.17,0-0.3-0.13-0.3-0.3c0-0.17,0.13-0.3,0.3-0.3
		C24.78,47.27,24.92,47.41,24.92,47.58z"/>
	<path fill="#D3D005" d="M25.68,47.27c0,0.16-0.13,0.3-0.3,0.3c-0.16,0-0.3-0.14-0.3-0.3c0-0.16,0.14-0.3,0.3-0.3
		C25.55,46.98,25.68,47.11,25.68,47.27z"/>
	<path fill="#D3D005" d="M24.7,46.86c0,0.17-0.13,0.3-0.3,0.3c-0.16,0-0.3-0.13-0.3-0.3c0-0.16,0.14-0.3,0.3-0.3
		C24.57,46.57,24.7,46.7,24.7,46.86z"/>
	<path fill="#D3D005" d="M25.47,46.52c0,0.16-0.13,0.3-0.3,0.3c-0.17,0-0.3-0.13-0.3-0.3c0-0.16,0.13-0.3,0.3-0.3
		C25.34,46.22,25.47,46.35,25.47,46.52z"/>
	<path fill="#D3D005" d="M25.22,45.69c0,0.16-0.14,0.3-0.3,0.3c-0.16,0-0.3-0.13-0.3-0.3c0-0.17,0.13-0.3,0.3-0.3
		C25.08,45.39,25.22,45.52,25.22,45.69z"/>
	<path fill="#D3D005" d="M25.9,45.38c0,0.16-0.13,0.3-0.3,0.3s-0.3-0.13-0.3-0.3c0-0.17,0.14-0.3,0.3-0.3S25.9,45.21,25.9,45.38z"/>
	<path fill="#D3D005" d="M25.9,44.66c0,0.17-0.13,0.3-0.3,0.3s-0.3-0.13-0.3-0.3c0-0.16,0.14-0.3,0.3-0.3S25.9,44.5,25.9,44.66z"/>
	<path fill="#D3D005" d="M27.17,44.11c0,0.16-0.14,0.3-0.3,0.3c-0.16,0-0.3-0.14-0.3-0.3s0.13-0.3,0.3-0.3
		C27.03,43.81,27.17,43.95,27.17,44.11z"/>
	<path fill="#D3D005" d="M26.37,44.24c0,0.17-0.13,0.3-0.3,0.3c-0.16,0-0.3-0.13-0.3-0.3c0-0.16,0.14-0.3,0.3-0.3
		C26.24,43.94,26.37,44.08,26.37,44.24z"/>
	<path fill="#D3D005" d="M27.01,43.37c0,0.17-0.13,0.3-0.3,0.3c-0.16,0-0.3-0.13-0.3-0.3c0-0.16,0.13-0.3,0.3-0.3
		C26.88,43.07,27.01,43.21,27.01,43.37z"/>
	<path fill="#D3D005" d="M27.57,43.32c-0.14,0.09-0.32,0.06-0.42-0.07c-0.09-0.14-0.06-0.32,0.07-0.42
		c0.14-0.09,0.32-0.06,0.42,0.07C27.73,43.04,27.7,43.22,27.57,43.32z"/>
	<path fill="#D3D005" d="M28.36,42.87c-0.14,0.09-0.32,0.06-0.42-0.07s-0.06-0.32,0.07-0.42c0.14-0.09,0.32-0.06,0.42,0.07
		C28.53,42.59,28.5,42.78,28.36,42.87z"/>
	<path fill="#D3D005" d="M27.8,42.57c-0.13,0.09-0.32,0.06-0.41-0.08c-0.07-0.09-0.07-0.21-0.02-0.3c0.02-0.05,0.05-0.09,0.1-0.12
		c0.01,0,0.01-0.01,0.02-0.01c0.13-0.08,0.31-0.04,0.4,0.09C27.97,42.29,27.94,42.48,27.8,42.57z"/>
	<path fill="#D3D005" d="M28.25,42.11c-0.14,0.09-0.32,0.06-0.42-0.08c-0.09-0.14-0.06-0.32,0.08-0.42
		c0.14-0.09,0.32-0.06,0.42,0.08C28.42,41.83,28.38,42.02,28.25,42.11z"/>
	<path fill="#D3D005" d="M28.85,41.52c-0.14,0.09-0.32,0.06-0.42-0.07c-0.09-0.14-0.06-0.32,0.07-0.42
		c0.14-0.09,0.32-0.06,0.42,0.07C29.02,41.24,28.99,41.42,28.85,41.52z"/>
	<path fill="#D3D005" d="M29.45,40.7c-0.14,0.09-0.32,0.06-0.42-0.08c-0.05-0.07-0.06-0.14-0.05-0.21c0.01-0.08,0.05-0.16,0.12-0.2
		c0.03-0.02,0.07-0.04,0.1-0.05c0.12-0.03,0.24,0.02,0.31,0.12C29.62,40.42,29.59,40.6,29.45,40.7z"/>
	<path fill="#D3D005" d="M30,40.32c-0.14,0.09-0.32,0.06-0.42-0.08c-0.09-0.13-0.06-0.32,0.07-0.42c0.14-0.09,0.32-0.06,0.42,0.08
		C30.17,40.03,30.14,40.22,30,40.32z"/>
	<path fill="#D3D005" d="M31.88,38.32c-0.14,0.09-0.32,0.06-0.42-0.07c-0.09-0.14-0.06-0.32,0.07-0.42
		c0.14-0.09,0.32-0.06,0.42,0.07C32.04,38.04,32.01,38.23,31.88,38.32z"/>
	<path fill="#D3D005" d="M32.53,37.86c-0.14,0.09-0.32,0.06-0.42-0.08c-0.09-0.13-0.06-0.32,0.07-0.41
		c0.01-0.01,0.03-0.02,0.05-0.03c0.1-0.05,0.23-0.03,0.32,0.04c0.02,0.02,0.04,0.04,0.05,0.06C32.7,37.58,32.67,37.77,32.53,37.86z"
		/>
	<path fill="#D3D005" d="M31.27,38.83c-0.14,0.09-0.32,0.06-0.42-0.07c-0.09-0.14-0.06-0.32,0.08-0.42
		c0.14-0.09,0.32-0.06,0.42,0.07C31.44,38.55,31.41,38.74,31.27,38.83z"/>
	<path fill="#D3D005" d="M30.64,39.49c-0.02,0.02-0.05,0.03-0.08,0.04c-0.03,0.01-0.07,0.02-0.11,0.01c-0.09,0-0.18-0.04-0.23-0.12
		c-0.09-0.14-0.06-0.32,0.08-0.42c0.14-0.09,0.32-0.06,0.42,0.08C30.81,39.2,30.77,39.39,30.64,39.49z"/>
	<path fill="#D3D005" d="M33.42,37.86c-0.14,0.09-0.32,0.06-0.42-0.08c-0.09-0.13-0.06-0.32,0.08-0.41c0.13-0.1,0.32-0.06,0.42,0.07
		C33.59,37.58,33.56,37.77,33.42,37.86z"/>
	<path fill="#D3D005" d="M32.59,37.36c-0.01,0.01-0.03,0.02-0.04,0.03c-0.11,0.05-0.23,0.03-0.32-0.04
		c-0.02-0.01-0.04-0.04-0.06-0.06c-0.09-0.14-0.06-0.32,0.08-0.42c0.14-0.09,0.32-0.06,0.42,0.08
		C32.76,37.08,32.73,37.27,32.59,37.36z"/>
	<path fill="#D3D005" d="M33.85,38.49c-0.14,0.09-0.32,0.06-0.42-0.08c-0.09-0.14-0.06-0.32,0.08-0.42
		c0.14-0.09,0.32-0.06,0.42,0.08C34.02,38.21,33.99,38.39,33.85,38.49z"/>
	<path fill="#D3D005" d="M33.42,39.13c-0.14,0.09-0.32,0.06-0.42-0.08c-0.09-0.13-0.06-0.32,0.08-0.41c0.13-0.1,0.32-0.06,0.42,0.07
		C33.59,38.85,33.56,39.04,33.42,39.13z"/>
	<path fill="#D3D005" d="M33.11,39.68c-0.01,0.11-0.07,0.21-0.17,0.26c-0.02,0.01-0.05,0.02-0.08,0.02
		c-0.13,0.02-0.26-0.05-0.32-0.17c-0.07-0.15,0-0.33,0.15-0.4c0.15-0.07,0.33,0,0.4,0.15C33.1,39.58,33.11,39.63,33.11,39.68z"/>
	<path fill="#D3D005" d="M32.37,39.51c-0.15,0.07-0.33,0-0.4-0.15c-0.04-0.08-0.03-0.17,0-0.25c0.03-0.06,0.08-0.12,0.15-0.15
		c0.03-0.01,0.05-0.02,0.08-0.02c0.13-0.02,0.26,0.05,0.32,0.17C32.59,39.27,32.52,39.44,32.37,39.51z"/>
	<path fill="#D3D005" d="M32.88,38.7c-0.15,0.07-0.33,0-0.4-0.15c-0.07-0.15,0-0.33,0.15-0.4c0.15-0.07,0.33,0,0.4,0.15
		C33.09,38.45,33.03,38.63,32.88,38.7z"/>
	<path fill="#D3D005" d="M32.2,38.95c-0.03,0.06-0.08,0.12-0.15,0.15c-0.02,0.01-0.05,0.02-0.08,0.02
		c-0.13,0.02-0.26-0.04-0.32-0.17c-0.07-0.15,0-0.33,0.15-0.4c0.15-0.07,0.33,0,0.4,0.15C32.24,38.78,32.24,38.87,32.2,38.95z"/>
	<path fill="#D3D005" d="M31.38,39.51c-0.15,0.07-0.33,0-0.4-0.15c-0.07-0.15,0-0.33,0.15-0.4c0.15-0.07,0.33,0,0.4,0.15
		C31.6,39.27,31.53,39.44,31.38,39.51z"/>
	<path fill="#D3D005" d="M31.58,40.16c-0.15,0.07-0.33,0-0.4-0.15c-0.07-0.15,0-0.33,0.15-0.4c0.15-0.07,0.33,0,0.4,0.15
		C31.8,39.92,31.73,40.09,31.58,40.16z"/>
	<path fill="#D3D005" d="M32.37,40.42c-0.15,0.07-0.33,0-0.4-0.15c-0.07-0.15,0-0.33,0.15-0.4c0.15-0.07,0.33,0,0.4,0.15
		C32.59,40.18,32.52,40.35,32.37,40.42z"/>
	<path fill="#D3D005" d="M30.94,40.96c-0.15,0.07-0.33,0-0.4-0.15c-0.07-0.15,0-0.33,0.15-0.4c0.15-0.07,0.33,0,0.4,0.15
		C31.16,40.71,31.09,40.89,30.94,40.96z"/>
	<path fill="#D3D005" d="M30.67,40.09c-0.15,0.07-0.33,0-0.4-0.15c-0.07-0.15,0-0.33,0.15-0.4c0.01,0,0.03-0.01,0.04-0.01
		c0.04-0.01,0.07-0.01,0.11-0.01c0.11,0.01,0.2,0.07,0.25,0.17C30.88,39.85,30.82,40.03,30.67,40.09z"/>
	<path fill="#D3D005" d="M30.17,41.2c-0.15,0.07-0.33,0-0.4-0.15c-0.07-0.15,0-0.33,0.15-0.4c0.15-0.07,0.33,0,0.4,0.15
		C30.39,40.96,30.32,41.14,30.17,41.2z"/>
	<path fill="#D3D005" d="M30.42,41.91c-0.15,0.07-0.33,0-0.4-0.15c-0.07-0.15,0-0.33,0.15-0.4c0.15-0.07,0.33,0,0.4,0.15
		C30.63,41.66,30.57,41.84,30.42,41.91z"/>
	<path fill="#D3D005" d="M29.95,42.91c-0.12,0.11-0.31,0.11-0.42-0.01c-0.11-0.12-0.11-0.31,0.01-0.42c0.12-0.11,0.31-0.1,0.42,0.01
		C30.08,42.6,30.07,42.79,29.95,42.91z"/>
	<path fill="#D3D005" d="M29.78,42.19c-0.12,0.11-0.31,0.1-0.42-0.01c-0.11-0.12-0.11-0.31,0.01-0.42c0.12-0.11,0.31-0.11,0.42,0.01
		C29.91,41.88,29.9,42.07,29.78,42.19z"/>
	<path fill="#D3D005" d="M29.15,42.19c-0.02,0.16-0.16,0.29-0.33,0.27c-0.16-0.02-0.28-0.16-0.27-0.33
		c0.02-0.16,0.16-0.29,0.33-0.27C29.05,41.88,29.17,42.03,29.15,42.19z"/>
	<path fill="#D3D005" d="M29.36,43.1c-0.02,0.16-0.16,0.29-0.33,0.27c-0.16-0.02-0.28-0.16-0.27-0.33c0.02-0.16,0.16-0.29,0.33-0.27
		C29.26,42.79,29.38,42.94,29.36,43.1z"/>
	<path fill="#D3D005" d="M28.53,43.49c-0.02,0.16-0.16,0.29-0.33,0.27c-0.16-0.02-0.28-0.16-0.27-0.33
		c0.02-0.16,0.16-0.29,0.33-0.27C28.42,43.18,28.54,43.32,28.53,43.49z"/>
	<path fill="#D3D005" d="M29.42,43.7c0,0.02,0,0.03-0.01,0.05c-0.03,0.1-0.1,0.17-0.19,0.21c-0.04,0.01-0.08,0.02-0.13,0.01
		c-0.16-0.02-0.29-0.16-0.27-0.33c0.02-0.16,0.16-0.29,0.33-0.27S29.44,43.54,29.42,43.7z"/>
	<path fill="#D3D005" d="M28.8,44.24c-0.07,0.15-0.25,0.21-0.4,0.14c-0.15-0.07-0.21-0.25-0.14-0.4c0.07-0.15,0.25-0.21,0.4-0.14
		C28.81,43.92,28.87,44.1,28.8,44.24z"/>
	<path fill="#D3D005" d="M27.79,44.05c-0.07,0.15-0.25,0.21-0.4,0.14c-0.15-0.07-0.21-0.25-0.14-0.4c0.07-0.15,0.25-0.21,0.4-0.14
		C27.81,43.73,27.87,43.91,27.79,44.05z"/>
	<path fill="#D3D005" d="M28.19,44.8c-0.07,0.15-0.25,0.21-0.4,0.14c-0.15-0.07-0.21-0.25-0.14-0.4c0.07-0.15,0.25-0.21,0.4-0.14
		C28.2,44.47,28.27,44.65,28.19,44.8z"/>
	<path fill="#D3D005" d="M27.27,45.09c-0.07,0.15-0.25,0.21-0.4,0.14c-0.15-0.08-0.21-0.25-0.14-0.4c0.07-0.15,0.25-0.21,0.4-0.14
		C27.28,44.76,27.34,44.94,27.27,45.09z"/>
	<path fill="#D3D005" d="M26.64,45.33c-0.07,0.15-0.25,0.21-0.4,0.14c-0.15-0.08-0.21-0.25-0.14-0.4c0.07-0.15,0.25-0.21,0.4-0.14
		C26.65,45,26.71,45.18,26.64,45.33z"/>
	<path fill="#D3D005" d="M26.87,46.13c-0.13,0.1-0.32,0.08-0.42-0.06c-0.1-0.13-0.08-0.32,0.06-0.42c0.13-0.1,0.32-0.07,0.42,0.06
		C27.02,45.85,27,46.03,26.87,46.13z"/>
	<path fill="#D3D005" d="M26.02,46.36c-0.13,0.1-0.32,0.08-0.42-0.06c-0.1-0.13-0.08-0.32,0.06-0.42c0.13-0.1,0.32-0.08,0.42,0.06
		C26.18,46.07,26.15,46.26,26.02,46.36z"/>
	<path fill="#D3D005" d="M26.43,47.03l-0.03,0.04c-0.01,0.01-0.01,0.02-0.02,0.02c-0.13,0.1-0.32,0.08-0.42-0.06
		c-0.1-0.13-0.08-0.32,0.06-0.42c0.13-0.1,0.32-0.08,0.42,0.06C26.51,46.78,26.51,46.93,26.43,47.03z"/>
	<path fill="#D3D005" d="M27.63,45.71c0,0-0.01,0.01-0.01,0.01c-0.01,0.01-0.03,0.03-0.04,0.04c-0.13,0.1-0.32,0.08-0.42-0.06
		c-0.1-0.13-0.08-0.32,0.06-0.42c0.13-0.1,0.32-0.08,0.42,0.06C27.72,45.45,27.71,45.61,27.63,45.71z"/>
	<path fill="#D3D005" d="M29.54,41.49c-0.12,0.11-0.31,0.11-0.42-0.01c-0.11-0.12-0.11-0.31,0.01-0.42
		c0.12-0.11,0.31-0.11,0.42,0.01C29.67,41.19,29.66,41.38,29.54,41.49z"/>
	<path fill="#D3D005" d="M24.25,47.86c0,0.16-0.13,0.3-0.3,0.3c-0.01,0-0.02,0-0.04,0c-0.13-0.01-0.23-0.11-0.26-0.24
		c0-0.02,0-0.04,0-0.06c0-0.17,0.13-0.3,0.3-0.3C24.12,47.56,24.25,47.69,24.25,47.86z"/>
	<path fill="#D3D005" d="M24.25,46.42c0,0.16-0.13,0.3-0.3,0.3c-0.16,0-0.3-0.13-0.3-0.3c0-0.16,0.13-0.3,0.3-0.3
		c0.03,0,0.06,0,0.08,0.01c0.09,0.02,0.17,0.1,0.2,0.19C24.25,46.36,24.25,46.39,24.25,46.42z"/>
	<path fill="#D3D005" d="M24.02,47.1c0,0.16-0.14,0.3-0.3,0.3s-0.3-0.13-0.3-0.3c0-0.17,0.13-0.3,0.3-0.3S24.02,46.93,24.02,47.1z"
		/>
	<path fill="#D3D005" d="M24.62,46.04c0,0.17-0.14,0.3-0.3,0.3c-0.03,0-0.06,0-0.08-0.01c-0.09-0.03-0.16-0.1-0.2-0.19
		c-0.01-0.03-0.02-0.07-0.02-0.1c0-0.16,0.13-0.3,0.3-0.3C24.48,45.74,24.62,45.87,24.62,46.04z"/>
</g>
<g>
	<circle fill="#FFEC00" stroke="#1D1D1B" stroke-miterlimit="10" cx="-75.03" cy="-25.37" r="5.07"/>
	<g>
		
			<line fill="none" stroke="#1D1D1B" stroke-miterlimit="10" stroke-dasharray="4.4257" x1="-75.03" y1="-36.78" x2="-75.03" y2="-32.35"/>
	</g>
	<g>
		
			<line fill="none" stroke="#1D1D1B" stroke-miterlimit="10" stroke-dasharray="4.4257" x1="-80.73" y1="-35.25" x2="-78.52" y2="-31.41"/>
	</g>
	<g>
		
			<line fill="none" stroke="#1D1D1B" stroke-miterlimit="10" stroke-dasharray="4.4257" x1="-84.91" y1="-31.07" x2="-81.08" y2="-28.86"/>
	</g>
	<g>
		
			<line fill="none" stroke="#1D1D1B" stroke-miterlimit="10" stroke-dasharray="4.4257" x1="-86.44" y1="-25.37" x2="-82.01" y2="-25.37"/>
	</g>
	<g>
		
			<line fill="none" stroke="#1D1D1B" stroke-miterlimit="10" stroke-dasharray="4.4257" x1="-84.91" y1="-19.66" x2="-81.08" y2="-21.87"/>
	</g>
	<g>
		
			<line fill="none" stroke="#1D1D1B" stroke-miterlimit="10" stroke-dasharray="4.4257" x1="-80.73" y1="-15.48" x2="-78.52" y2="-19.32"/>
	</g>
	<g>
		
			<line fill="none" stroke="#1D1D1B" stroke-miterlimit="10" stroke-dasharray="4.4257" x1="-75.03" y1="-13.95" x2="-75.03" y2="-18.38"/>
	</g>
	<g>
		
			<line fill="none" stroke="#1D1D1B" stroke-miterlimit="10" stroke-dasharray="4.4257" x1="-69.32" y1="-15.48" x2="-71.54" y2="-19.32"/>
	</g>
	<g>
		
			<line fill="none" stroke="#1D1D1B" stroke-miterlimit="10" stroke-dasharray="4.4257" x1="-65.15" y1="-19.66" x2="-68.98" y2="-21.87"/>
	</g>
	<g>
		
			<line fill="none" stroke="#1D1D1B" stroke-miterlimit="10" stroke-dasharray="4.4257" x1="-63.62" y1="-25.37" x2="-68.04" y2="-25.37"/>
	</g>
	<g>
		
			<line fill="none" stroke="#1D1D1B" stroke-miterlimit="10" stroke-dasharray="4.4257" x1="-65.15" y1="-31.07" x2="-68.98" y2="-28.86"/>
	</g>
	<g>
		
			<line fill="none" stroke="#1D1D1B" stroke-miterlimit="10" stroke-dasharray="4.4257" x1="-69.32" y1="-35.25" x2="-71.54" y2="-31.41"/>
	</g>
</g>
<g>
	<path fill="#D9D9D9" stroke="#B1B1B1" stroke-miterlimit="10" d="M-81.83,18.37h-10.15c-1.97,0-3.57-1.6-3.57-3.57v0
		c0-1.97,1.6-3.57,3.57-3.57h10.15c1.97,0,3.57,1.6,3.57,3.57v0C-78.26,16.77-79.86,18.37-81.83,18.37z"/>
	<circle fill="#D9D9D9" stroke="#B1B1B1" stroke-miterlimit="10" cx="-92.75" cy="10.28" r="3.85"/>
	<circle fill="#D9D9D9" stroke="#B1B1B1" stroke-miterlimit="10" cx="-88.3" cy="8.1" r="4.44"/>
	<circle fill="#D9D9D9" stroke="#B1B1B1" stroke-miterlimit="10" cx="-81.54" cy="10.92" r="4.15"/>
	<circle fill="#D9D9D9" stroke="#B1B1B1" stroke-miterlimit="10" cx="-88.37" cy="14.2" r="4.25"/>
	<circle fill="#D9D9D9" stroke="#B1B1B1" stroke-miterlimit="10" cx="-78.85" cy="13.67" r="4.25"/>
	<circle fill="#D9D9D9" stroke="#B1B1B1" stroke-miterlimit="10" cx="-94.8" cy="14.4" r="3.48"/>
</g>
</svg>
