<?xml version="1.0" encoding="utf-8"?>
<!-- Generator: Adobe Illustrator 28.1.0, SVG Export Plug-In . SVG Version: 6.00 Build 0)  -->
<svg version="1.1" id="Laag_1" xmlns="http://www.w3.org/2000/svg" xmlns:xlink="http://www.w3.org/1999/xlink" x="0px" y="0px"
	 viewBox="0 0 97.32 87.81" enable-background="new 0 0 97.32 87.81" xml:space="preserve">
<g>
	<path fill="#FFFFFF" stroke="#1D1D1B" stroke-miterlimit="10" d="M93.92-24.67H83.77c-1.97,0-3.57-1.6-3.57-3.57v0
		c0-1.97,1.6-3.57,3.57-3.57h10.15c1.97,0,3.57,1.6,3.57,3.57v0C97.49-26.27,95.89-24.67,93.92-24.67z"/>
	<g>
		
			<line fill="none" stroke="#1D1D1B" stroke-miterlimit="10" stroke-dasharray="3.5812" x1="83.18" y1="-37.75" x2="86.76" y2="-37.75"/>
	</g>
	<circle fill="#FFEC00" stroke="#1D1D1B" stroke-miterlimit="10" cx="94.39" cy="-37.75" r="6.18"/>
	<circle fill="#FFFFFF" stroke="#1D1D1B" stroke-miterlimit="10" cx="83" cy="-32.76" r="3.85"/>
	<circle fill="#FFFFFF" stroke="#1D1D1B" stroke-miterlimit="10" cx="87.44" cy="-34.94" r="4.44"/>
	<circle fill="#FFFFFF" stroke="#1D1D1B" stroke-miterlimit="10" cx="94.2" cy="-32.12" r="4.15"/>
	<circle fill="#FFFFFF" stroke="#1D1D1B" stroke-miterlimit="10" cx="87.37" cy="-28.84" r="4.25"/>
	<circle fill="#FFFFFF" stroke="#1D1D1B" stroke-miterlimit="10" cx="96.9" cy="-29.37" r="4.25"/>
	<circle fill="#FFFFFF" stroke="#1D1D1B" stroke-miterlimit="10" cx="80.95" cy="-28.64" r="3.48"/>
	<g>
		
			<line fill="none" stroke="#1D1D1B" stroke-miterlimit="10" stroke-dasharray="3.5812" x1="94.39" y1="-48.96" x2="94.39" y2="-45.38"/>
	</g>
	<g>
		
			<line fill="none" stroke="#1D1D1B" stroke-miterlimit="10" stroke-dasharray="3.5812" x1="88.78" y1="-47.46" x2="90.57" y2="-44.36"/>
	</g>
	<g>
		
			<line fill="none" stroke="#1D1D1B" stroke-miterlimit="10" stroke-dasharray="3.5812" x1="84.68" y1="-43.36" x2="87.78" y2="-41.57"/>
	</g>
	<g>
		
			<line fill="none" stroke="#1D1D1B" stroke-miterlimit="10" stroke-dasharray="3.5812" x1="104.1" y1="-32.15" x2="101" y2="-33.94"/>
	</g>
	<g>
		
			<line fill="none" stroke="#1D1D1B" stroke-miterlimit="10" stroke-dasharray="3.5812" x1="105.6" y1="-37.75" x2="102.02" y2="-37.75"/>
	</g>
	<g>
		
			<line fill="none" stroke="#1D1D1B" stroke-miterlimit="10" stroke-dasharray="3.5812" x1="104.1" y1="-43.36" x2="101" y2="-41.57"/>
	</g>
	<g>
		
			<line fill="none" stroke="#1D1D1B" stroke-miterlimit="10" stroke-dasharray="3.5812" x1="99.99" y1="-47.46" x2="98.2" y2="-44.36"/>
	</g>
</g>
<g>
	<path fill="none" stroke="#1D1D1B" stroke-linecap="round" stroke-miterlimit="10" d="M25.14,68.29c0,0.16-0.14,0.3-0.3,0.3
		c-0.16,0-0.3-0.13-0.3-0.3c0-0.17,0.13-0.3,0.3-0.3C25,67.99,25.14,68.12,25.14,68.29z"/>
	<path fill="none" stroke="#1D1D1B" stroke-linecap="round" stroke-miterlimit="10" d="M24.77,67.61c0-0.16,0.13-0.3,0.3-0.3
		c0.03,0,0.06,0,0.08,0.01c-0.01-0.03-0.02-0.07-0.02-0.1c0-0.16,0.13-0.3,0.3-0.3c0.16,0,0.3,0.13,0.3,0.3c0,0.17-0.14,0.3-0.3,0.3
		c-0.03,0-0.06,0-0.08-0.01c0.01,0.03,0.02,0.06,0.02,0.09c0,0.16-0.13,0.3-0.3,0.3C24.91,67.91,24.77,67.77,24.77,67.61z"/>
	<path fill="none" stroke="#1D1D1B" stroke-linecap="round" stroke-miterlimit="10" d="M25.52,68.35c-0.16,0-0.3-0.13-0.3-0.3
		c0-0.16,0.14-0.3,0.3-0.3c0.16,0,0.3,0.13,0.3,0.3C25.82,68.22,25.69,68.35,25.52,68.35z"/>
	<path fill="none" stroke="#1D1D1B" stroke-linecap="round" stroke-miterlimit="10" d="M26.04,68.76c0,0.16-0.13,0.3-0.3,0.3
		c-0.17,0-0.3-0.13-0.3-0.3c0-0.17,0.13-0.3,0.3-0.3C25.9,68.46,26.04,68.6,26.04,68.76z"/>
	<path fill="none" stroke="#1D1D1B" stroke-linecap="round" stroke-miterlimit="10" d="M25.74,66.88c0-0.17,0.13-0.3,0.3-0.3
		c0.16,0,0.3,0.13,0.3,0.3c0,0.16-0.14,0.3-0.3,0.3C25.87,67.18,25.74,67.04,25.74,66.88z"/>
	<path fill="none" stroke="#1D1D1B" stroke-linecap="round" stroke-miterlimit="10" d="M26.29,68c-0.17,0-0.3-0.13-0.3-0.3
		c0-0.16,0.13-0.3,0.3-0.3c0.16,0,0.3,0.13,0.3,0.3C26.59,67.87,26.46,68,26.29,68z"/>
	<path fill="none" stroke="#1D1D1B" stroke-linecap="round" stroke-miterlimit="10" d="M26.8,68.46c0,0.16-0.13,0.3-0.3,0.3
		c-0.16,0-0.3-0.14-0.3-0.3c0-0.16,0.14-0.3,0.3-0.3C26.67,68.17,26.8,68.3,26.8,68.46z"/>
	<path fill="none" stroke="#1D1D1B" stroke-linecap="round" stroke-miterlimit="10" d="M26.43,66.57c0-0.17,0.14-0.3,0.3-0.3
		s0.3,0.13,0.3,0.3c0,0.16-0.13,0.3-0.3,0.3S26.43,66.73,26.43,66.57z"/>
	<path fill="none" stroke="#1D1D1B" stroke-linecap="round" stroke-miterlimit="10" d="M26.43,65.85c0-0.16,0.14-0.3,0.3-0.3
		s0.3,0.13,0.3,0.3c0,0.17-0.13,0.3-0.3,0.3S26.43,66.02,26.43,65.85z"/>
	<path fill="none" stroke="#1D1D1B" stroke-linecap="round" stroke-miterlimit="10" d="M27.2,67.13c0.1,0.13,0.08,0.32-0.06,0.42
		c-0.13,0.1-0.32,0.08-0.42-0.06c-0.1-0.13-0.08-0.32,0.06-0.42C26.91,66.97,27.1,67,27.2,67.13z"/>
	<path fill="none" stroke="#1D1D1B" stroke-linecap="round" stroke-miterlimit="10" d="M26.89,65.43c0-0.16,0.14-0.3,0.3-0.3
		c0.16,0,0.3,0.13,0.3,0.3c0,0.17-0.13,0.3-0.3,0.3C27.03,65.73,26.89,65.6,26.89,65.43z"/>
	<path fill="none" stroke="#1D1D1B" stroke-linecap="round" stroke-miterlimit="10" d="M27.36,66.65c-0.15-0.08-0.21-0.25-0.14-0.4
		c0.07-0.15,0.25-0.21,0.4-0.14c0.15,0.07,0.21,0.25,0.14,0.4C27.69,66.66,27.51,66.72,27.36,66.65z"/>
	<path fill="none" stroke="#1D1D1B" stroke-linecap="round" stroke-miterlimit="10" d="M27.53,64.56c0-0.16,0.13-0.3,0.3-0.3
		c0.17,0,0.3,0.13,0.3,0.3c0,0.17-0.13,0.3-0.3,0.3C27.66,64.86,27.53,64.73,27.53,64.56z"/>
	<path fill="none" stroke="#1D1D1B" stroke-linecap="round" stroke-miterlimit="10" d="M27.99,65c0.16,0,0.3,0.13,0.3,0.3
		s-0.14,0.3-0.3,0.3c-0.16,0-0.3-0.14-0.3-0.3S27.82,65,27.99,65z"/>
	<path fill="none" stroke="#1D1D1B" stroke-linecap="round" stroke-miterlimit="10" d="M28.04,66.9c0.1,0.13,0.08,0.32-0.06,0.42
		c-0.13,0.1-0.32,0.08-0.42-0.06c-0.1-0.13-0.08-0.32,0.06-0.42C27.75,66.75,27.94,66.77,28.04,66.9z"/>
	<path fill="none" stroke="#1D1D1B" stroke-linecap="round" stroke-miterlimit="10" d="M28.39,66.28c-0.07,0.15-0.25,0.21-0.4,0.14
		c-0.15-0.08-0.21-0.25-0.14-0.4c0.07-0.15,0.25-0.21,0.4-0.14S28.46,66.13,28.39,66.28z"/>
	<path fill="none" stroke="#1D1D1B" stroke-linecap="round" stroke-miterlimit="10" d="M28.27,64.43c-0.09-0.14-0.06-0.32,0.07-0.42
		c0.14-0.09,0.32-0.06,0.42,0.07c0.09,0.14,0.06,0.32-0.07,0.42C28.55,64.6,28.36,64.57,28.27,64.43z"/>
	<path fill="none" stroke="#1D1D1B" stroke-linecap="round" stroke-miterlimit="10" d="M28.51,65.38c-0.15-0.07-0.21-0.25-0.14-0.4
		c0.07-0.15,0.25-0.21,0.4-0.14c0.15,0.07,0.21,0.25,0.14,0.4C28.84,65.39,28.66,65.45,28.51,65.38z"/>
	<path fill="none" stroke="#1D1D1B" stroke-linecap="round" stroke-miterlimit="10" d="M29.31,65.98c-0.07,0.15-0.25,0.21-0.4,0.14
		c-0.15-0.07-0.21-0.25-0.14-0.4c0.07-0.15,0.25-0.21,0.4-0.14C29.32,65.66,29.38,65.84,29.31,65.98z"/>
	<path fill="none" stroke="#1D1D1B" stroke-linecap="round" stroke-miterlimit="10" d="M28.95,63.22c-0.09-0.14-0.06-0.32,0.08-0.42
		c0.14-0.09,0.32-0.06,0.42,0.08c0.09,0.14,0.06,0.32-0.08,0.42C29.23,63.39,29.05,63.36,28.95,63.22z"/>
	<path fill="none" stroke="#1D1D1B" stroke-linecap="round" stroke-miterlimit="10" d="M29.06,63.99c-0.09-0.14-0.06-0.32,0.07-0.42
		c0.14-0.09,0.32-0.06,0.42,0.07c0.09,0.14,0.06,0.32-0.07,0.42C29.35,64.16,29.16,64.12,29.06,63.99z"/>
	<path fill="none" stroke="#1D1D1B" stroke-linecap="round" stroke-miterlimit="10" d="M29.65,64.68c-0.02,0.16-0.16,0.29-0.33,0.27
		c-0.16-0.02-0.28-0.16-0.27-0.33c0.02-0.16,0.16-0.29,0.33-0.27C29.54,64.36,29.66,64.51,29.65,64.68z"/>
	<path fill="none" stroke="#1D1D1B" stroke-linecap="round" stroke-miterlimit="10" d="M29.92,65.43c-0.07,0.15-0.25,0.21-0.4,0.14
		c-0.15-0.07-0.21-0.25-0.14-0.4c0.07-0.15,0.25-0.21,0.4-0.14C29.93,65.11,29.99,65.29,29.92,65.43z"/>
	<path fill="none" stroke="#1D1D1B" stroke-linecap="round" stroke-miterlimit="10" d="M29.55,62.64c-0.09-0.14-0.06-0.32,0.07-0.42
		c0.14-0.09,0.32-0.06,0.42,0.07c0.09,0.14,0.06,0.32-0.07,0.42C29.84,62.8,29.65,62.77,29.55,62.64z"/>
	<path fill="none" stroke="#1D1D1B" stroke-linecap="round" stroke-miterlimit="10" d="M30,63.05c0.16,0.02,0.28,0.16,0.27,0.33
		c-0.02,0.16-0.16,0.29-0.33,0.27c-0.16-0.02-0.28-0.16-0.27-0.33C29.69,63.16,29.84,63.04,30,63.05z"/>
	<path fill="none" stroke="#1D1D1B" stroke-linecap="round" stroke-miterlimit="10" d="M30.48,64.29c-0.02,0.16-0.16,0.29-0.33,0.27
		c-0.16-0.02-0.28-0.16-0.27-0.33c0.02-0.16,0.16-0.29,0.33-0.27C30.38,63.98,30.5,64.13,30.48,64.29z"/>
	<path fill="none" stroke="#1D1D1B" stroke-linecap="round" stroke-miterlimit="10" d="M30.24,62.67c-0.11-0.12-0.11-0.31,0.01-0.42
		c0.12-0.11,0.31-0.11,0.42,0.01c0.11,0.12,0.11,0.31-0.01,0.42C30.54,62.8,30.35,62.79,30.24,62.67z"/>
	<path fill="none" stroke="#1D1D1B" stroke-linecap="round" stroke-miterlimit="10" d="M30.48,63.36c-0.11-0.12-0.11-0.31,0.01-0.42
		c0.12-0.11,0.31-0.11,0.42,0.01c0.11,0.12,0.11,0.31-0.01,0.42C30.78,63.49,30.59,63.48,30.48,63.36z"/>
	<path fill="none" stroke="#1D1D1B" stroke-linecap="round" stroke-miterlimit="10" d="M31.09,63.67c0.11,0.12,0.1,0.31-0.02,0.42
		c-0.12,0.11-0.31,0.11-0.42-0.01c-0.11-0.12-0.11-0.31,0.01-0.42C30.78,63.54,30.97,63.55,31.09,63.67z"/>
	<path fill="none" stroke="#1D1D1B" stroke-linecap="round" stroke-miterlimit="10" d="M30.7,61.43c-0.09-0.13-0.06-0.32,0.07-0.42
		c0.14-0.09,0.32-0.06,0.42,0.08c0.09,0.14,0.06,0.32-0.07,0.42C30.98,61.6,30.8,61.57,30.7,61.43z"/>
	<path fill="none" stroke="#1D1D1B" stroke-linecap="round" stroke-miterlimit="10" d="M31.44,62c0.07,0.15,0,0.33-0.15,0.4
		c-0.15,0.07-0.33,0-0.4-0.15c-0.07-0.15,0-0.33,0.15-0.4C31.19,61.78,31.37,61.85,31.44,62z"/>
	<path fill="none" stroke="#1D1D1B" stroke-linecap="round" stroke-miterlimit="10" d="M31.68,62.7c0.07,0.15,0,0.33-0.15,0.4
		c-0.15,0.07-0.33,0-0.4-0.15c-0.07-0.15,0-0.33,0.15-0.4C31.44,62.48,31.61,62.55,31.68,62.7z"/>
	<path fill="none" stroke="#1D1D1B" stroke-linecap="round" stroke-miterlimit="10" d="M31.34,60.6c-0.09-0.14-0.06-0.32,0.08-0.42
		c0.14-0.09,0.32-0.06,0.42,0.08c0.09,0.13,0.06,0.32-0.08,0.41c-0.02,0.02-0.05,0.03-0.08,0.04c0.11,0.01,0.2,0.07,0.25,0.17
		c0.07,0.15,0,0.33-0.15,0.4c-0.15,0.07-0.33,0-0.4-0.15c-0.07-0.15,0-0.33,0.15-0.4c0.01,0,0.03-0.01,0.04-0.01
		C31.48,60.72,31.4,60.68,31.34,60.6z"/>
	<path fill="none" stroke="#1D1D1B" stroke-linecap="round" stroke-miterlimit="10" d="M32.21,61.75c0.07,0.15,0,0.33-0.15,0.4
		c-0.15,0.07-0.33,0-0.4-0.15c-0.07-0.15,0-0.33,0.15-0.4C31.96,61.53,32.14,61.6,32.21,61.75z"/>
	<path fill="none" stroke="#1D1D1B" stroke-linecap="round" stroke-miterlimit="10" d="M31.98,59.95c-0.09-0.14-0.06-0.32,0.08-0.42
		c0.14-0.09,0.32-0.06,0.42,0.07c0.09,0.14,0.06,0.32-0.08,0.42C32.26,60.12,32.07,60.09,31.98,59.95z"/>
	<path fill="none" stroke="#1D1D1B" stroke-linecap="round" stroke-miterlimit="10" d="M32.65,60.31c0.07,0.15,0,0.33-0.15,0.4
		c-0.15,0.07-0.33,0-0.4-0.15c-0.07-0.15,0-0.33,0.15-0.4C32.4,60.09,32.58,60.16,32.65,60.31z"/>
	<path fill="none" stroke="#1D1D1B" stroke-linecap="round" stroke-miterlimit="10" d="M32.85,60.96c0.07,0.15,0,0.33-0.15,0.4
		c-0.15,0.07-0.33,0-0.4-0.15c-0.07-0.15,0-0.33,0.15-0.4C32.6,60.74,32.78,60.81,32.85,60.96z"/>
	<path fill="none" stroke="#1D1D1B" stroke-linecap="round" stroke-miterlimit="10" d="M32.58,59.44c-0.09-0.14-0.06-0.32,0.07-0.42
		c0.14-0.09,0.32-0.06,0.42,0.07c0.09,0.14,0.06,0.32-0.07,0.42C32.86,59.61,32.67,59.57,32.58,59.44z"/>
	<path fill="none" stroke="#1D1D1B" stroke-linecap="round" stroke-miterlimit="10" d="M33.64,61.22c0.07,0.15,0,0.33-0.15,0.4
		c-0.15,0.07-0.33,0-0.4-0.15c-0.07-0.15,0-0.33,0.15-0.4C33.39,61,33.57,61.07,33.64,61.22z"/>
	<path fill="none" stroke="#1D1D1B" stroke-linecap="round" stroke-miterlimit="10" d="M33.64,60.31c0.07,0.15,0,0.33-0.15,0.4
		c-0.15,0.07-0.33,0-0.4-0.15c-0.04-0.08-0.03-0.17,0-0.25c-0.13,0.02-0.26-0.04-0.32-0.17c-0.07-0.15,0-0.33,0.15-0.4
		c0.15-0.07,0.33,0,0.4,0.15c0.04,0.08,0.04,0.17,0,0.25C33.45,60.11,33.58,60.18,33.64,60.31z"/>
	<path fill="none" stroke="#1D1D1B" stroke-linecap="round" stroke-miterlimit="10" d="M33.31,58.56c0.01-0.01,0.03-0.02,0.05-0.03
		c-0.02-0.01-0.04-0.04-0.06-0.06c-0.09-0.14-0.06-0.32,0.08-0.42c0.14-0.09,0.32-0.06,0.42,0.08c0.09,0.14,0.06,0.32-0.08,0.42
		c-0.01,0.01-0.03,0.02-0.04,0.03c0.02,0.02,0.04,0.04,0.05,0.06c0.09,0.14,0.06,0.32-0.07,0.42c-0.14,0.09-0.32,0.06-0.42-0.08
		C33.14,58.84,33.18,58.66,33.31,58.56z"/>
	<path fill="none" stroke="#1D1D1B" stroke-linecap="round" stroke-miterlimit="10" d="M34,59.89c-0.15,0.07-0.33,0-0.4-0.15
		c-0.07-0.15,0-0.33,0.15-0.4c0.15-0.07,0.33,0,0.4,0.15C34.21,59.64,34.15,59.82,34,59.89z"/>
	<path fill="none" stroke="#1D1D1B" stroke-linecap="round" stroke-miterlimit="10" d="M34.61,59.9c0.09,0.14,0.06,0.32-0.08,0.42
		c-0.14,0.09-0.32,0.06-0.42-0.08c-0.09-0.13-0.06-0.32,0.08-0.41C34.33,59.73,34.52,59.77,34.61,59.9z"/>
	<path fill="none" stroke="#1D1D1B" stroke-linecap="round" stroke-miterlimit="10" d="M34.12,58.98c-0.09-0.13-0.06-0.32,0.08-0.41
		c0.13-0.1,0.32-0.06,0.42,0.07c0.09,0.14,0.06,0.32-0.08,0.42C34.4,59.15,34.22,59.11,34.12,58.98z"/>
	<path fill="none" stroke="#1D1D1B" stroke-linecap="round" stroke-miterlimit="10" d="M35.05,59.26c0.09,0.14,0.06,0.32-0.08,0.42
		c-0.14,0.09-0.32,0.06-0.42-0.08c-0.09-0.14-0.06-0.32,0.08-0.42C34.77,59.09,34.95,59.12,35.05,59.26z"/>
	<path fill="#E5007E" stroke="#1D1D1B" stroke-width="0.75" stroke-linecap="round" stroke-miterlimit="10" d="M38.88,52.18
		C18.07,42.97-2.83,73.47,23.85,69.73l1.22,1.17C27.8,92.42,51.4,69.13,38.88,52.18z M35.67,59.28l-1.44,1.59
		c0-0.05,0-0.09-0.03-0.14c-0.07-0.15-0.25-0.22-0.4-0.15c-0.15,0.07-0.22,0.25-0.15,0.4c0.06,0.12,0.19,0.19,0.32,0.17l-3.44,3.8
		c0-0.01,0.01-0.03,0.01-0.05c0.02-0.16-0.1-0.31-0.27-0.33c-0.16-0.02-0.31,0.1-0.33,0.27c-0.02,0.16,0.1,0.31,0.27,0.33
		c0.05,0,0.09,0,0.13-0.01l-1.59,1.75c0.08-0.1,0.09-0.26,0-0.37c-0.1-0.13-0.29-0.16-0.42-0.06c-0.13,0.1-0.16,0.29-0.06,0.42
		c0.1,0.13,0.29,0.16,0.42,0.06c0.01-0.01,0.03-0.02,0.04-0.04l-1.19,1.31c0.08-0.1,0.08-0.25,0-0.36c-0.1-0.13-0.29-0.16-0.42-0.06
		c-0.13,0.1-0.16,0.29-0.06,0.42c0.1,0.13,0.29,0.16,0.42,0.06l-0.79,0.87c-0.25,0.28-0.6,0.42-0.95,0.42
		c-0.25,0-0.5-0.07-0.72-0.23c0.01,0,0.02,0,0.04,0c0.16,0,0.3-0.13,0.3-0.3c0-0.17-0.13-0.3-0.3-0.3c-0.16,0-0.3,0.13-0.3,0.3
		c0,0.02,0,0.04,0,0.06c-0.41-0.48-0.4-1.2,0.03-1.68l3.67-4.04c-0.05,0.09-0.04,0.21,0.02,0.3c0.09,0.14,0.28,0.17,0.41,0.08
		c0.14-0.09,0.17-0.28,0.08-0.42c-0.09-0.13-0.26-0.16-0.4-0.09l1.51-1.66c-0.01,0.07,0,0.15,0.05,0.21
		c0.09,0.14,0.28,0.17,0.42,0.08c0.14-0.09,0.17-0.28,0.07-0.42c-0.07-0.1-0.2-0.15-0.31-0.12l3.44-3.79
		c0.48-0.52,1.29-0.56,1.81-0.09C36.11,57.94,36.14,58.75,35.67,59.28z"/>
	<path fill="#B17F49" stroke="#1D1D1B" stroke-linecap="round" stroke-miterlimit="10" d="M25.07,70.91
		c-4.83,5.03-8.55,10.28-10.03,15.99l-1.22-0.74c1.92-4.86,5.63-10.5,10.02-16.43L25.07,70.91z"/>
	<path fill="none" stroke="#B5B5B5" stroke-width="0.25" stroke-miterlimit="10" d="M24.46,52.5c-7.33,4.97-8.37,9.98-1.63,15.03"/>
	<path fill="none" stroke="#B5B5B5" stroke-width="0.25" stroke-miterlimit="10" d="M30.7,51.43c-7.37,3.24-10.85,10.39-7.59,15.67"
		/>
	<path fill="none" stroke="#B5B5B5" stroke-width="0.25" stroke-miterlimit="10" d="M31.66,53.53c-5.2,3.74-7.83,8.2-6.59,12.82"/>
	<path fill="none" stroke="#B5B5B5" stroke-width="0.25" stroke-miterlimit="10" d="M38.88,57.13c-0.88,4.72-2.82,9.01-9.43,11.4"/>
	<path fill="none" stroke="#B5B5B5" stroke-width="0.25" stroke-miterlimit="10" d="M41.2,61.72c0.04,2.15-5.88,9.01-11.75,8.33"/>
	<path fill="none" stroke="#B5B5B5" stroke-width="0.25" stroke-miterlimit="10" d="M41.56,66.57c-2.52,4.29-6.18,6.72-12.25,5.2"/>
	<path fill="none" stroke="#B5B5B5" stroke-width="0.25" stroke-miterlimit="10" d="M27.53,73.97c1.39,2.5,4.65,2.99,9.79,1.46"/>
	<path fill="none" stroke="#B5B5B5" stroke-width="0.25" stroke-miterlimit="10" d="M15.7,58.07c-3.24,5.19-1.71,8.8,5.69,10.45"/>
	<path fill="#7E4E24" stroke="#1D1D1B" stroke-width="0.25" stroke-miterlimit="10" d="M35.58,57.47c-0.52-0.48-1.33-0.44-1.81,0.09
		l-3.44,3.79c0.12-0.03,0.24,0.02,0.31,0.12c0.09,0.14,0.06,0.32-0.07,0.42c-0.14,0.09-0.32,0.06-0.42-0.08
		c-0.05-0.07-0.06-0.14-0.05-0.21l-1.51,1.66c0.13-0.08,0.31-0.04,0.4,0.09c0.09,0.14,0.06,0.32-0.08,0.42
		c-0.13,0.09-0.32,0.06-0.41-0.08c-0.07-0.09-0.07-0.21-0.02-0.3l-3.67,4.04c-0.43,0.48-0.44,1.2-0.03,1.68c0-0.02,0-0.04,0-0.06
		c0-0.17,0.13-0.3,0.3-0.3c0.16,0,0.3,0.13,0.3,0.3c0,0.16-0.13,0.3-0.3,0.3c-0.01,0-0.02,0-0.04,0c0.22,0.15,0.47,0.23,0.72,0.23
		c0.35,0,0.7-0.14,0.95-0.42l0.79-0.87c-0.13,0.1-0.32,0.08-0.42-0.06c-0.1-0.13-0.08-0.32,0.06-0.42c0.13-0.1,0.32-0.08,0.42,0.06
		c0.08,0.11,0.08,0.25,0,0.36l1.19-1.31c-0.01,0.01-0.03,0.03-0.04,0.04c-0.13,0.1-0.32,0.08-0.42-0.06
		c-0.1-0.13-0.08-0.32,0.06-0.42c0.13-0.1,0.32-0.08,0.42,0.06c0.08,0.11,0.08,0.26,0,0.37l1.59-1.75
		c-0.04,0.01-0.08,0.02-0.13,0.01c-0.16-0.02-0.29-0.16-0.27-0.33c0.02-0.16,0.16-0.29,0.33-0.27c0.16,0.02,0.29,0.16,0.27,0.33
		c0,0.02,0,0.03-0.01,0.05l3.44-3.8c-0.13,0.02-0.26-0.05-0.32-0.17c-0.07-0.15,0-0.33,0.15-0.4c0.15-0.07,0.33,0,0.4,0.15
		c0.02,0.05,0.03,0.09,0.03,0.14l1.44-1.59C36.14,58.75,36.11,57.94,35.58,57.47z M34.2,58.56c0.13-0.1,0.32-0.06,0.42,0.07
		c0.09,0.14,0.06,0.32-0.08,0.42c-0.14,0.09-0.32,0.06-0.42-0.08C34.03,58.84,34.06,58.66,34.2,58.56z M33.3,58.48
		c-0.09-0.14-0.06-0.32,0.08-0.42c0.14-0.09,0.32-0.06,0.42,0.08c0.09,0.14,0.06,0.32-0.08,0.42c-0.01,0.01-0.03,0.02-0.04,0.03
		c0.02,0.02,0.04,0.04,0.05,0.06c0.09,0.14,0.06,0.32-0.07,0.42c-0.14,0.09-0.32,0.06-0.42-0.08c-0.09-0.13-0.06-0.32,0.07-0.41
		c0.01-0.01,0.03-0.02,0.05-0.03C33.33,58.52,33.31,58.5,33.3,58.48z M32.65,59.02c0.14-0.09,0.32-0.06,0.42,0.07
		c0.09,0.14,0.06,0.32-0.07,0.42c-0.14,0.09-0.32,0.06-0.42-0.07C32.48,59.3,32.52,59.12,32.65,59.02z M32.5,60.7
		c-0.15,0.07-0.33,0-0.4-0.15c-0.07-0.15,0-0.33,0.15-0.4c0.15-0.07,0.33,0,0.4,0.15C32.71,60.46,32.65,60.63,32.5,60.7z
		 M32.05,59.53c0.14-0.09,0.32-0.06,0.42,0.07c0.09,0.14,0.06,0.32-0.08,0.42c-0.14,0.09-0.32,0.06-0.42-0.07
		C31.88,59.81,31.91,59.63,32.05,59.53z M31.41,60.19c0.14-0.09,0.32-0.06,0.42,0.08c0.09,0.13,0.06,0.32-0.08,0.41
		c-0.02,0.02-0.05,0.03-0.08,0.04c0.11,0.01,0.2,0.07,0.25,0.17c0.07,0.15,0,0.33-0.15,0.4c-0.15,0.07-0.33,0-0.4-0.15
		c-0.07-0.15,0-0.33,0.15-0.4c0.01,0,0.03-0.01,0.04-0.01c-0.09,0-0.18-0.04-0.23-0.12C31.24,60.47,31.28,60.28,31.41,60.19z
		 M31.29,62.39c-0.15,0.07-0.33,0-0.4-0.15c-0.07-0.15,0-0.33,0.15-0.4c0.15-0.07,0.33,0,0.4,0.15
		C31.51,62.15,31.44,62.32,31.29,62.39z M30.77,61.01c0.14-0.09,0.32-0.06,0.42,0.08c0.09,0.14,0.06,0.32-0.07,0.42
		c-0.14,0.09-0.32,0.06-0.42-0.08C30.61,61.3,30.64,61.11,30.77,61.01z M30.25,62.24c0.12-0.11,0.31-0.11,0.42,0.01
		c0.11,0.12,0.11,0.31-0.01,0.42c-0.12,0.11-0.31,0.11-0.42-0.01C30.13,62.55,30.13,62.36,30.25,62.24z M30.27,63.38
		c-0.02,0.16-0.16,0.29-0.33,0.27c-0.16-0.02-0.28-0.16-0.27-0.33c0.02-0.16,0.16-0.29,0.33-0.27S30.29,63.22,30.27,63.38z
		 M29.63,62.22c0.14-0.09,0.32-0.06,0.42,0.07c0.09,0.14,0.06,0.32-0.07,0.42c-0.14,0.09-0.32,0.06-0.42-0.07
		C29.46,62.5,29.49,62.31,29.63,62.22z M28.95,63.22c-0.09-0.14-0.06-0.32,0.08-0.42c0.14-0.09,0.32-0.06,0.42,0.08
		c0.09,0.14,0.06,0.32-0.08,0.42C29.23,63.39,29.05,63.36,28.95,63.22z M29.14,63.57c0.14-0.09,0.32-0.06,0.42,0.07
		c0.09,0.14,0.06,0.32-0.07,0.42c-0.14,0.09-0.32,0.06-0.42-0.07C28.97,63.85,29,63.67,29.14,63.57z M29.65,64.68
		c-0.02,0.16-0.16,0.29-0.33,0.27c-0.16-0.02-0.28-0.16-0.27-0.33c0.02-0.16,0.16-0.29,0.33-0.27
		C29.54,64.36,29.66,64.51,29.65,64.68z M28.34,64.02c0.14-0.09,0.32-0.06,0.42,0.07c0.09,0.14,0.06,0.32-0.07,0.42
		c-0.14,0.09-0.32,0.06-0.42-0.07C28.17,64.3,28.21,64.11,28.34,64.02z M28.29,65.3c0,0.16-0.14,0.3-0.3,0.3
		c-0.16,0-0.3-0.14-0.3-0.3s0.13-0.3,0.3-0.3C28.15,65,28.29,65.14,28.29,65.3z M27.83,64.26c0.17,0,0.3,0.13,0.3,0.3
		c0,0.17-0.13,0.3-0.3,0.3c-0.16,0-0.3-0.13-0.3-0.3C27.53,64.4,27.66,64.26,27.83,64.26z M27.19,65.13c0.16,0,0.3,0.13,0.3,0.3
		c0,0.17-0.13,0.3-0.3,0.3c-0.16,0-0.3-0.13-0.3-0.3C26.89,65.26,27.03,65.13,27.19,65.13z M26.73,65.55c0.16,0,0.3,0.13,0.3,0.3
		c0,0.17-0.13,0.3-0.3,0.3s-0.3-0.13-0.3-0.3C26.43,65.69,26.56,65.55,26.73,65.55z M26.73,66.27c0.16,0,0.3,0.13,0.3,0.3
		c0,0.16-0.13,0.3-0.3,0.3s-0.3-0.13-0.3-0.3C26.43,66.4,26.56,66.27,26.73,66.27z M26.04,66.58c0.16,0,0.3,0.13,0.3,0.3
		c0,0.16-0.14,0.3-0.3,0.3c-0.16,0-0.3-0.13-0.3-0.3C25.74,66.71,25.87,66.58,26.04,66.58z M25.07,67.31c0.03,0,0.06,0,0.08,0.01
		c-0.01-0.03-0.02-0.07-0.02-0.1c0-0.16,0.13-0.3,0.3-0.3c0.16,0,0.3,0.13,0.3,0.3c0,0.17-0.14,0.3-0.3,0.3
		c-0.03,0-0.06,0-0.08-0.01c0.01,0.03,0.02,0.06,0.02,0.09c0,0.16-0.13,0.3-0.3,0.3c-0.16,0-0.3-0.13-0.3-0.3
		C24.77,67.45,24.91,67.31,25.07,67.31z M24.84,68.59c-0.16,0-0.3-0.13-0.3-0.3c0-0.17,0.13-0.3,0.3-0.3c0.16,0,0.3,0.13,0.3,0.3
		C25.14,68.45,25,68.59,24.84,68.59z M25.22,68.05c0-0.16,0.14-0.3,0.3-0.3c0.16,0,0.3,0.13,0.3,0.3c0,0.17-0.13,0.3-0.3,0.3
		C25.36,68.35,25.22,68.22,25.22,68.05z M25.74,69.06c-0.17,0-0.3-0.13-0.3-0.3c0-0.17,0.13-0.3,0.3-0.3c0.16,0,0.3,0.13,0.3,0.3
		C26.04,68.93,25.9,69.06,25.74,69.06z M25.99,67.7c0-0.16,0.13-0.3,0.3-0.3c0.16,0,0.3,0.13,0.3,0.3c0,0.16-0.13,0.3-0.3,0.3
		C26.12,68,25.99,67.87,25.99,67.7z M26.5,68.76c-0.16,0-0.3-0.14-0.3-0.3c0-0.16,0.14-0.3,0.3-0.3c0.16,0,0.3,0.13,0.3,0.3
		C26.8,68.63,26.67,68.76,26.5,68.76z M27.14,67.55c-0.13,0.1-0.32,0.08-0.42-0.06c-0.1-0.13-0.08-0.32,0.06-0.42
		c0.13-0.1,0.32-0.08,0.42,0.06C27.3,67.26,27.27,67.45,27.14,67.55z M27.36,66.65c-0.15-0.08-0.21-0.25-0.14-0.4
		c0.07-0.15,0.25-0.21,0.4-0.14c0.15,0.07,0.21,0.25,0.14,0.4C27.69,66.66,27.51,66.72,27.36,66.65z M27.98,67.32
		c-0.13,0.1-0.32,0.08-0.42-0.06c-0.1-0.13-0.08-0.32,0.06-0.42c0.13-0.1,0.32-0.07,0.42,0.06C28.14,67.04,28.12,67.22,27.98,67.32z
		 M28.39,66.28c-0.07,0.15-0.25,0.21-0.4,0.14c-0.15-0.08-0.21-0.25-0.14-0.4c0.07-0.15,0.25-0.21,0.4-0.14S28.46,66.13,28.39,66.28
		z M28.51,65.38c-0.15-0.07-0.21-0.25-0.14-0.4c0.07-0.15,0.25-0.21,0.4-0.14c0.15,0.07,0.21,0.25,0.14,0.4
		C28.84,65.39,28.66,65.45,28.51,65.38z M29.31,65.98c-0.07,0.15-0.25,0.21-0.4,0.14c-0.15-0.07-0.21-0.25-0.14-0.4
		c0.07-0.15,0.25-0.21,0.4-0.14C29.32,65.66,29.38,65.84,29.31,65.98z M29.92,65.43c-0.07,0.15-0.25,0.21-0.4,0.14
		c-0.15-0.07-0.21-0.25-0.14-0.4c0.07-0.15,0.25-0.21,0.4-0.14C29.93,65.11,29.99,65.29,29.92,65.43z M30.15,64.56
		c-0.16-0.02-0.28-0.16-0.27-0.33c0.02-0.16,0.16-0.29,0.33-0.27c0.16,0.02,0.28,0.16,0.27,0.33S30.32,64.58,30.15,64.56z
		 M30.48,63.36c-0.11-0.12-0.11-0.31,0.01-0.42c0.12-0.11,0.31-0.11,0.42,0.01c0.11,0.12,0.11,0.31-0.01,0.42
		C30.78,63.49,30.59,63.48,30.48,63.36z M31.07,64.1c-0.12,0.11-0.31,0.11-0.42-0.01c-0.11-0.12-0.11-0.31,0.01-0.42
		c0.12-0.11,0.31-0.1,0.42,0.01C31.2,63.79,31.19,63.98,31.07,64.1z M31.54,63.1c-0.15,0.07-0.33,0-0.4-0.15
		c-0.07-0.15,0-0.33,0.15-0.4c0.15-0.07,0.33,0,0.4,0.15C31.75,62.85,31.69,63.03,31.54,63.1z M32.06,62.15
		c-0.15,0.07-0.33,0-0.4-0.15c-0.07-0.15,0-0.33,0.15-0.4c0.15-0.07,0.33,0,0.4,0.15C32.28,61.9,32.21,62.08,32.06,62.15z
		 M32.7,61.35c-0.15,0.07-0.33,0-0.4-0.15c-0.07-0.15,0-0.33,0.15-0.4c0.15-0.07,0.33,0,0.4,0.15
		C32.92,61.11,32.85,61.28,32.7,61.35z M33.64,61.22c0.07,0.15,0,0.33-0.15,0.4c-0.15,0.07-0.33,0-0.4-0.15
		c-0.07-0.15,0-0.33,0.15-0.4C33.39,61,33.57,61.07,33.64,61.22z M33.49,60.7c-0.15,0.07-0.33,0-0.4-0.15
		c-0.04-0.08-0.03-0.17,0-0.25c-0.13,0.02-0.26-0.04-0.32-0.17c-0.07-0.15,0-0.33,0.15-0.4c0.15-0.07,0.33,0,0.4,0.15
		c0.04,0.08,0.04,0.17,0,0.25c0.13-0.02,0.26,0.05,0.32,0.17C33.71,60.46,33.64,60.63,33.49,60.7z M33.6,59.74
		c-0.07-0.15,0-0.33,0.15-0.4c0.15-0.07,0.33,0,0.4,0.15c0.07,0.15,0,0.33-0.15,0.4C33.85,59.96,33.67,59.89,33.6,59.74z
		 M34.54,60.32c-0.14,0.09-0.32,0.06-0.42-0.08c-0.09-0.13-0.06-0.32,0.08-0.41c0.13-0.1,0.32-0.06,0.42,0.07
		C34.71,60.04,34.67,60.23,34.54,60.32z M34.97,59.68c-0.14,0.09-0.32,0.06-0.42-0.08c-0.09-0.14-0.06-0.32,0.08-0.42
		c0.14-0.09,0.32-0.06,0.42,0.08C35.14,59.39,35.11,59.58,34.97,59.68z"/>
	<path fill="none" stroke="#1D1D1B" stroke-width="0.25" stroke-miterlimit="10" d="M24.84,68.59c-0.16,0-0.3-0.13-0.3-0.3
		c0-0.17,0.13-0.3,0.3-0.3c0.16,0,0.3,0.13,0.3,0.3C25.14,68.45,25,68.59,24.84,68.59z"/>
	<path fill="none" stroke="#1D1D1B" stroke-width="0.25" stroke-miterlimit="10" d="M25.37,69.05c0,0.16-0.13,0.3-0.3,0.3
		c-0.01,0-0.02,0-0.04,0c-0.05-0.03-0.09-0.07-0.14-0.11c-0.04-0.04-0.08-0.08-0.12-0.13c0-0.02,0-0.04,0-0.06
		c0-0.17,0.13-0.3,0.3-0.3C25.24,68.75,25.37,68.88,25.37,69.05z"/>
	<path fill="none" stroke="#1D1D1B" stroke-width="0.25" stroke-miterlimit="10" d="M24.77,67.61c0-0.16,0.13-0.3,0.3-0.3
		c0.03,0,0.06,0,0.08,0.01c-0.01-0.03-0.02-0.07-0.02-0.1c0-0.16,0.13-0.3,0.3-0.3c0.16,0,0.3,0.13,0.3,0.3c0,0.17-0.14,0.3-0.3,0.3
		c-0.03,0-0.06,0-0.08-0.01c0.01,0.03,0.02,0.06,0.02,0.09c0,0.16-0.13,0.3-0.3,0.3C24.91,67.91,24.77,67.77,24.77,67.61z"/>
	<path fill="none" stroke="#1D1D1B" stroke-width="0.25" stroke-miterlimit="10" d="M25.82,68.05c0,0.17-0.13,0.3-0.3,0.3
		c-0.16,0-0.3-0.13-0.3-0.3c0-0.16,0.14-0.3,0.3-0.3C25.69,67.76,25.82,67.89,25.82,68.05z"/>
	<path fill="none" stroke="#1D1D1B" stroke-width="0.25" stroke-miterlimit="10" d="M26.04,68.76c0,0.16-0.13,0.3-0.3,0.3
		c-0.17,0-0.3-0.13-0.3-0.3c0-0.17,0.13-0.3,0.3-0.3C25.9,68.46,26.04,68.6,26.04,68.76z"/>
	<path fill="none" stroke="#1D1D1B" stroke-width="0.25" stroke-miterlimit="10" d="M25.74,66.88c0-0.17,0.13-0.3,0.3-0.3
		c0.16,0,0.3,0.13,0.3,0.3c0,0.16-0.14,0.3-0.3,0.3C25.87,67.18,25.74,67.04,25.74,66.88z"/>
	<path fill="none" stroke="#1D1D1B" stroke-width="0.25" stroke-miterlimit="10" d="M26.29,68c-0.17,0-0.3-0.13-0.3-0.3
		c0-0.16,0.13-0.3,0.3-0.3c0.16,0,0.3,0.13,0.3,0.3C26.59,67.87,26.46,68,26.29,68z"/>
	<path fill="none" stroke="#1D1D1B" stroke-width="0.25" stroke-miterlimit="10" d="M26.8,68.46c0,0.16-0.13,0.3-0.3,0.3
		c-0.16,0-0.3-0.14-0.3-0.3c0-0.16,0.14-0.3,0.3-0.3C26.67,68.17,26.8,68.3,26.8,68.46z"/>
	<path fill="none" stroke="#1D1D1B" stroke-width="0.25" stroke-miterlimit="10" d="M26.43,66.57c0-0.17,0.14-0.3,0.3-0.3
		s0.3,0.13,0.3,0.3c0,0.16-0.13,0.3-0.3,0.3S26.43,66.73,26.43,66.57z"/>
	<path fill="none" stroke="#1D1D1B" stroke-width="0.25" stroke-miterlimit="10" d="M26.43,65.85c0-0.16,0.14-0.3,0.3-0.3
		s0.3,0.13,0.3,0.3c0,0.17-0.13,0.3-0.3,0.3S26.43,66.02,26.43,65.85z"/>
	<path fill="none" stroke="#1D1D1B" stroke-width="0.25" stroke-miterlimit="10" d="M27.14,67.55c-0.13,0.1-0.32,0.08-0.42-0.06
		c-0.1-0.13-0.08-0.32,0.06-0.42c0.13-0.1,0.32-0.08,0.42,0.06C27.3,67.26,27.27,67.45,27.14,67.55z"/>
	<path fill="none" stroke="#1D1D1B" stroke-width="0.25" stroke-miterlimit="10" d="M26.89,65.43c0-0.16,0.14-0.3,0.3-0.3
		c0.16,0,0.3,0.13,0.3,0.3c0,0.17-0.13,0.3-0.3,0.3C27.03,65.73,26.89,65.6,26.89,65.43z"/>
	<path fill="none" stroke="#1D1D1B" stroke-width="0.25" stroke-miterlimit="10" d="M27.55,67.86c0.08,0.11,0.08,0.25,0,0.36
		l-0.03,0.04c-0.01,0.01-0.01,0.02-0.02,0.02c-0.13,0.1-0.32,0.08-0.42-0.06c-0.1-0.13-0.08-0.32,0.06-0.42
		C27.26,67.7,27.45,67.73,27.55,67.86z"/>
	<path fill="none" stroke="#1D1D1B" stroke-width="0.25" stroke-miterlimit="10" d="M27.62,66.11c0.15,0.07,0.21,0.25,0.14,0.4
		c-0.07,0.15-0.25,0.21-0.4,0.14c-0.15-0.08-0.21-0.25-0.14-0.4C27.3,66.1,27.48,66.04,27.62,66.11z"/>
	<path fill="none" stroke="#1D1D1B" stroke-width="0.25" stroke-miterlimit="10" d="M27.53,64.56c0-0.16,0.13-0.3,0.3-0.3
		c0.17,0,0.3,0.13,0.3,0.3c0,0.17-0.13,0.3-0.3,0.3C27.66,64.86,27.53,64.73,27.53,64.56z"/>
	<path fill="none" stroke="#1D1D1B" stroke-width="0.25" stroke-miterlimit="10" d="M27.99,65c0.16,0,0.3,0.13,0.3,0.3
		s-0.14,0.3-0.3,0.3c-0.16,0-0.3-0.14-0.3-0.3S27.82,65,27.99,65z"/>
	<path fill="none" stroke="#1D1D1B" stroke-width="0.25" stroke-miterlimit="10" d="M28.04,66.9c0.1,0.13,0.08,0.32-0.06,0.42
		c-0.13,0.1-0.32,0.08-0.42-0.06c-0.1-0.13-0.08-0.32,0.06-0.42C27.75,66.75,27.94,66.77,28.04,66.9z"/>
	<path fill="none" stroke="#1D1D1B" stroke-width="0.25" stroke-miterlimit="10" d="M28.39,66.28c-0.07,0.15-0.25,0.21-0.4,0.14
		c-0.15-0.08-0.21-0.25-0.14-0.4c0.07-0.15,0.25-0.21,0.4-0.14S28.46,66.13,28.39,66.28z"/>
	<path fill="none" stroke="#1D1D1B" stroke-width="0.25" stroke-miterlimit="10" d="M28.75,66.53c0.08,0.11,0.08,0.26,0,0.37
		c0,0-0.01,0.01-0.01,0.01c-0.01,0.01-0.03,0.03-0.04,0.04c-0.13,0.1-0.32,0.08-0.42-0.06c-0.1-0.13-0.08-0.32,0.06-0.42
		C28.47,66.38,28.65,66.4,28.75,66.53z"/>
	<path fill="none" stroke="#1D1D1B" stroke-width="0.25" stroke-miterlimit="10" d="M28.27,64.43c-0.09-0.14-0.06-0.32,0.07-0.42
		c0.14-0.09,0.32-0.06,0.42,0.07c0.09,0.14,0.06,0.32-0.07,0.42C28.55,64.6,28.36,64.57,28.27,64.43z"/>
	<path fill="none" stroke="#1D1D1B" stroke-width="0.25" stroke-miterlimit="10" d="M28.38,64.98c0.07-0.15,0.25-0.21,0.4-0.14
		c0.15,0.07,0.21,0.25,0.14,0.4c-0.07,0.15-0.25,0.21-0.4,0.14S28.31,65.13,28.38,64.98z"/>
	<path fill="none" stroke="#1D1D1B" stroke-width="0.25" stroke-miterlimit="10" d="M28.5,63.69c-0.07-0.09-0.07-0.21-0.02-0.3
		l0.12-0.13c0.13-0.08,0.31-0.04,0.4,0.09c0.09,0.14,0.06,0.32-0.08,0.42C28.79,63.86,28.6,63.82,28.5,63.69z"/>
	<path fill="none" stroke="#1D1D1B" stroke-width="0.25" stroke-miterlimit="10" d="M29.31,65.98c-0.07,0.15-0.25,0.21-0.4,0.14
		c-0.15-0.07-0.21-0.25-0.14-0.4c0.07-0.15,0.25-0.21,0.4-0.14C29.32,65.66,29.38,65.84,29.31,65.98z"/>
	<path fill="none" stroke="#1D1D1B" stroke-width="0.25" stroke-miterlimit="10" d="M28.95,63.22c-0.09-0.14-0.06-0.32,0.08-0.42
		c0.14-0.09,0.32-0.06,0.42,0.08c0.09,0.14,0.06,0.32-0.08,0.42C29.23,63.39,29.05,63.36,28.95,63.22z"/>
	<path fill="none" stroke="#1D1D1B" stroke-width="0.25" stroke-miterlimit="10" d="M29.06,63.99c-0.09-0.14-0.06-0.32,0.07-0.42
		c0.14-0.09,0.32-0.06,0.42,0.07c0.09,0.14,0.06,0.32-0.07,0.42C29.35,64.16,29.16,64.12,29.06,63.99z"/>
	<path fill="none" stroke="#1D1D1B" stroke-width="0.25" stroke-miterlimit="10" d="M29.05,64.62c0.02-0.16,0.16-0.29,0.33-0.27
		c0.16,0.02,0.29,0.16,0.27,0.33c-0.02,0.16-0.16,0.29-0.33,0.27C29.15,64.93,29.04,64.78,29.05,64.62z"/>
	<path fill="none" stroke="#1D1D1B" stroke-width="0.25" stroke-miterlimit="10" d="M29.92,65.43c-0.07,0.15-0.25,0.21-0.4,0.14
		c-0.15-0.07-0.21-0.25-0.14-0.4c0.07-0.15,0.25-0.21,0.4-0.14C29.93,65.11,29.99,65.29,29.92,65.43z"/>
	<path fill="none" stroke="#1D1D1B" stroke-width="0.25" stroke-miterlimit="10" d="M29.55,62.64c-0.09-0.14-0.06-0.32,0.07-0.42
		c0.14-0.09,0.32-0.06,0.42,0.07c0.09,0.14,0.06,0.32-0.07,0.42C29.84,62.8,29.65,62.77,29.55,62.64z"/>
	<path fill="none" stroke="#1D1D1B" stroke-width="0.25" stroke-miterlimit="10" d="M30,63.05c0.16,0.02,0.28,0.16,0.27,0.33
		c-0.02,0.16-0.16,0.29-0.33,0.27c-0.16-0.02-0.28-0.16-0.27-0.33C29.69,63.16,29.84,63.04,30,63.05z"/>
	<path fill="none" stroke="#1D1D1B" stroke-width="0.25" stroke-miterlimit="10" d="M29.88,64.23c0.02-0.16,0.16-0.29,0.33-0.27
		c0.16,0.02,0.28,0.16,0.27,0.33s-0.16,0.29-0.33,0.27C29.99,64.54,29.87,64.4,29.88,64.23z"/>
	<path fill="none" stroke="#1D1D1B" stroke-width="0.25" stroke-miterlimit="10" d="M30.54,64.89c0,0.02,0,0.03-0.01,0.05
		l-0.19,0.21c-0.04,0.01-0.08,0.02-0.13,0.01c-0.16-0.02-0.29-0.16-0.27-0.33c0.02-0.16,0.16-0.29,0.33-0.27
		C30.43,64.58,30.56,64.73,30.54,64.89z"/>
	<path fill="none" stroke="#1D1D1B" stroke-width="0.25" stroke-miterlimit="10" d="M30.15,61.81c-0.05-0.07-0.06-0.14-0.05-0.21
		l0.23-0.25c0.12-0.03,0.24,0.02,0.31,0.12c0.09,0.14,0.06,0.32-0.07,0.42C30.43,61.98,30.25,61.95,30.15,61.81z"/>
	<path fill="none" stroke="#1D1D1B" stroke-width="0.25" stroke-miterlimit="10" d="M30.24,62.67c-0.11-0.12-0.11-0.31,0.01-0.42
		c0.12-0.11,0.31-0.11,0.42,0.01c0.11,0.12,0.11,0.31-0.01,0.42C30.54,62.8,30.35,62.79,30.24,62.67z"/>
	<path fill="none" stroke="#1D1D1B" stroke-width="0.25" stroke-miterlimit="10" d="M30.48,63.36c-0.11-0.12-0.11-0.31,0.01-0.42
		c0.12-0.11,0.31-0.11,0.42,0.01c0.11,0.12,0.11,0.31-0.01,0.42C30.78,63.49,30.59,63.48,30.48,63.36z"/>
	<path fill="none" stroke="#1D1D1B" stroke-width="0.25" stroke-miterlimit="10" d="M31.09,63.67c0.11,0.12,0.1,0.31-0.02,0.42
		c-0.12,0.11-0.31,0.11-0.42-0.01c-0.11-0.12-0.11-0.31,0.01-0.42C30.78,63.54,30.97,63.55,31.09,63.67z"/>
	<path fill="none" stroke="#1D1D1B" stroke-width="0.25" stroke-miterlimit="10" d="M30.7,61.43c-0.09-0.13-0.06-0.32,0.07-0.42
		c0.14-0.09,0.32-0.06,0.42,0.08c0.09,0.14,0.06,0.32-0.07,0.42C30.98,61.6,30.8,61.57,30.7,61.43z"/>
	<path fill="none" stroke="#1D1D1B" stroke-width="0.25" stroke-miterlimit="10" d="M30.9,62.25c-0.07-0.15,0-0.33,0.15-0.4
		c0.15-0.07,0.33,0,0.4,0.15c0.07,0.15,0,0.33-0.15,0.4C31.14,62.46,30.96,62.4,30.9,62.25z"/>
	<path fill="none" stroke="#1D1D1B" stroke-width="0.25" stroke-miterlimit="10" d="M31.68,62.7c0.07,0.15,0,0.33-0.15,0.4
		c-0.15,0.07-0.33,0-0.4-0.15c-0.07-0.15,0-0.33,0.15-0.4C31.44,62.48,31.61,62.55,31.68,62.7z"/>
	<path fill="none" stroke="#1D1D1B" stroke-width="0.25" stroke-miterlimit="10" d="M31.34,60.6c-0.09-0.14-0.06-0.32,0.08-0.42
		c0.14-0.09,0.32-0.06,0.42,0.08c0.09,0.13,0.06,0.32-0.08,0.41c-0.02,0.02-0.05,0.03-0.08,0.04c0.11,0.01,0.2,0.07,0.25,0.17
		c0.07,0.15,0,0.33-0.15,0.4c-0.15,0.07-0.33,0-0.4-0.15c-0.07-0.15,0-0.33,0.15-0.4c0.01,0,0.03-0.01,0.04-0.01
		C31.48,60.72,31.4,60.68,31.34,60.6z"/>
	<path fill="none" stroke="#1D1D1B" stroke-width="0.25" stroke-miterlimit="10" d="M32.21,61.75c0.07,0.15,0,0.33-0.15,0.4
		c-0.15,0.07-0.33,0-0.4-0.15c-0.07-0.15,0-0.33,0.15-0.4C31.96,61.53,32.14,61.6,32.21,61.75z"/>
	<path fill="none" stroke="#1D1D1B" stroke-width="0.25" stroke-miterlimit="10" d="M31.98,59.95c-0.09-0.14-0.06-0.32,0.08-0.42
		c0.14-0.09,0.32-0.06,0.42,0.07c0.09,0.14,0.06,0.32-0.08,0.42C32.26,60.12,32.07,60.09,31.98,59.95z"/>
	<path fill="none" stroke="#1D1D1B" stroke-width="0.25" stroke-miterlimit="10" d="M32.65,60.31c0.07,0.15,0,0.33-0.15,0.4
		c-0.15,0.07-0.33,0-0.4-0.15c-0.07-0.15,0-0.33,0.15-0.4C32.4,60.09,32.58,60.16,32.65,60.31z"/>
	<path fill="none" stroke="#1D1D1B" stroke-width="0.25" stroke-miterlimit="10" d="M32.85,60.96c0.07,0.15,0,0.33-0.15,0.4
		c-0.15,0.07-0.33,0-0.4-0.15c-0.07-0.15,0-0.33,0.15-0.4C32.6,60.74,32.78,60.81,32.85,60.96z"/>
	<path fill="none" stroke="#1D1D1B" stroke-width="0.25" stroke-miterlimit="10" d="M32.58,59.44c-0.09-0.14-0.06-0.32,0.07-0.42
		c0.14-0.09,0.32-0.06,0.42,0.07c0.09,0.14,0.06,0.32-0.07,0.42C32.86,59.61,32.67,59.57,32.58,59.44z"/>
	<path fill="none" stroke="#1D1D1B" stroke-width="0.25" stroke-miterlimit="10" d="M33.64,61.22c0.07,0.15,0,0.33-0.15,0.4
		c-0.15,0.07-0.33,0-0.4-0.15c-0.07-0.15,0-0.33,0.15-0.4C33.39,61,33.57,61.07,33.64,61.22z"/>
	<path fill="none" stroke="#1D1D1B" stroke-width="0.25" stroke-miterlimit="10" d="M33.1,60.31c-0.13,0.02-0.26-0.04-0.32-0.17
		c-0.07-0.15,0-0.33,0.15-0.4c0.15-0.07,0.33,0,0.4,0.15c0.04,0.08,0.04,0.17,0,0.25c0.13-0.02,0.26,0.05,0.32,0.17
		c0.07,0.15,0,0.33-0.15,0.4c-0.15,0.07-0.33,0-0.4-0.15C33.06,60.47,33.06,60.39,33.1,60.31z"/>
	<path fill="none" stroke="#1D1D1B" stroke-width="0.25" stroke-miterlimit="10" d="M33.31,58.56c0.01-0.01,0.03-0.02,0.05-0.03
		c-0.02-0.01-0.04-0.04-0.06-0.06c-0.09-0.14-0.06-0.32,0.08-0.42c0.14-0.09,0.32-0.06,0.42,0.08c0.09,0.14,0.06,0.32-0.08,0.42
		c-0.01,0.01-0.03,0.02-0.04,0.03c0.02,0.02,0.04,0.04,0.05,0.06c0.09,0.14,0.06,0.32-0.07,0.42c-0.14,0.09-0.32,0.06-0.42-0.08
		C33.14,58.84,33.18,58.66,33.31,58.56z"/>
	<path fill="none" stroke="#1D1D1B" stroke-width="0.25" stroke-miterlimit="10" d="M33.75,59.35c0.15-0.07,0.33,0,0.4,0.15
		c0.07,0.15,0,0.33-0.15,0.4c-0.15,0.07-0.33,0-0.4-0.15C33.53,59.59,33.6,59.42,33.75,59.35z"/>
	<path fill="none" stroke="#1D1D1B" stroke-width="0.25" stroke-miterlimit="10" d="M34.2,60.72c0.02,0.05,0.03,0.09,0.03,0.14
		l-0.25,0.28c-0.13,0.02-0.26-0.05-0.32-0.17c-0.07-0.15,0-0.33,0.15-0.4C33.95,60.51,34.13,60.57,34.2,60.72z"/>
	<path fill="none" stroke="#1D1D1B" stroke-width="0.25" stroke-miterlimit="10" d="M34.61,59.9c0.09,0.14,0.06,0.32-0.08,0.42
		c-0.14,0.09-0.32,0.06-0.42-0.08c-0.09-0.13-0.06-0.32,0.08-0.41C34.33,59.73,34.52,59.77,34.61,59.9z"/>
	<path fill="none" stroke="#1D1D1B" stroke-width="0.25" stroke-miterlimit="10" d="M34.12,58.98c-0.09-0.13-0.06-0.32,0.08-0.41
		c0.13-0.1,0.32-0.06,0.42,0.07c0.09,0.14,0.06,0.32-0.08,0.42C34.4,59.15,34.22,59.11,34.12,58.98z"/>
	<path fill="none" stroke="#1D1D1B" stroke-width="0.25" stroke-miterlimit="10" d="M34.97,59.68c-0.14,0.09-0.32,0.06-0.42-0.08
		c-0.09-0.14-0.06-0.32,0.08-0.42c0.14-0.09,0.32-0.06,0.42,0.08C35.14,59.39,35.11,59.58,34.97,59.68z"/>
	<path fill="#D3D005" d="M26.04,68.76c0,0.16-0.13,0.3-0.3,0.3c-0.17,0-0.3-0.13-0.3-0.3c0-0.17,0.13-0.3,0.3-0.3
		C25.9,68.46,26.04,68.6,26.04,68.76z"/>
	<path fill="#D3D005" d="M26.8,68.46c0,0.16-0.13,0.3-0.3,0.3c-0.16,0-0.3-0.14-0.3-0.3c0-0.16,0.14-0.3,0.3-0.3
		C26.67,68.17,26.8,68.3,26.8,68.46z"/>
	<path fill="#D3D005" d="M25.82,68.05c0,0.17-0.13,0.3-0.3,0.3c-0.16,0-0.3-0.13-0.3-0.3c0-0.16,0.14-0.3,0.3-0.3
		C25.69,67.76,25.82,67.89,25.82,68.05z"/>
	<path fill="#D3D005" d="M26.59,67.7c0,0.16-0.13,0.3-0.3,0.3c-0.17,0-0.3-0.13-0.3-0.3c0-0.16,0.13-0.3,0.3-0.3
		C26.46,67.41,26.59,67.54,26.59,67.7z"/>
	<path fill="#D3D005" d="M26.34,66.88c0,0.16-0.14,0.3-0.3,0.3c-0.16,0-0.3-0.13-0.3-0.3c0-0.17,0.13-0.3,0.3-0.3
		C26.2,66.58,26.34,66.71,26.34,66.88z"/>
	<path fill="#D3D005" d="M27.02,66.57c0,0.16-0.13,0.3-0.3,0.3s-0.3-0.13-0.3-0.3c0-0.17,0.14-0.3,0.3-0.3S27.02,66.4,27.02,66.57z"
		/>
	<path fill="#D3D005" d="M27.02,65.85c0,0.17-0.13,0.3-0.3,0.3s-0.3-0.13-0.3-0.3c0-0.16,0.14-0.3,0.3-0.3S27.02,65.69,27.02,65.85z
		"/>
	<path fill="#D3D005" d="M28.29,65.3c0,0.16-0.14,0.3-0.3,0.3c-0.16,0-0.3-0.14-0.3-0.3s0.13-0.3,0.3-0.3
		C28.15,65,28.29,65.14,28.29,65.3z"/>
	<path fill="#D3D005" d="M27.49,65.43c0,0.17-0.13,0.3-0.3,0.3c-0.16,0-0.3-0.13-0.3-0.3c0-0.16,0.14-0.3,0.3-0.3
		C27.36,65.13,27.49,65.26,27.49,65.43z"/>
	<path fill="#D3D005" d="M28.13,64.56c0,0.17-0.13,0.3-0.3,0.3c-0.16,0-0.3-0.13-0.3-0.3c0-0.16,0.13-0.3,0.3-0.3
		C27.99,64.26,28.13,64.4,28.13,64.56z"/>
	<path fill="#D3D005" d="M28.69,64.51c-0.14,0.09-0.32,0.06-0.42-0.07c-0.09-0.14-0.06-0.32,0.07-0.42
		c0.14-0.09,0.32-0.06,0.42,0.07C28.85,64.23,28.82,64.41,28.69,64.51z"/>
	<path fill="#D3D005" d="M29.48,64.06c-0.14,0.09-0.32,0.06-0.42-0.07c-0.09-0.14-0.06-0.32,0.07-0.42
		c0.14-0.09,0.32-0.06,0.42,0.07C29.65,63.78,29.62,63.97,29.48,64.06z"/>
	<path fill="#D3D005" d="M28.92,63.76c-0.13,0.09-0.32,0.06-0.41-0.08c-0.07-0.09-0.07-0.21-0.02-0.3c0.02-0.05,0.05-0.09,0.1-0.12
		c0.01,0,0.01-0.01,0.02-0.01c0.13-0.08,0.31-0.04,0.4,0.09C29.09,63.48,29.05,63.67,28.92,63.76z"/>
	<path fill="#D3D005" d="M29.37,63.3c-0.14,0.09-0.32,0.06-0.42-0.08c-0.09-0.14-0.06-0.32,0.08-0.42c0.14-0.09,0.32-0.06,0.42,0.08
		C29.54,63.02,29.5,63.21,29.37,63.3z"/>
	<path fill="#D3D005" d="M29.97,62.71c-0.14,0.09-0.32,0.06-0.42-0.07c-0.09-0.14-0.06-0.32,0.07-0.42
		c0.14-0.09,0.32-0.06,0.42,0.07C30.14,62.43,30.1,62.61,29.97,62.71z"/>
	<path fill="#D3D005" d="M30.57,61.89c-0.14,0.09-0.32,0.06-0.42-0.08c-0.05-0.07-0.06-0.14-0.05-0.21c0.01-0.08,0.05-0.16,0.12-0.2
		c0.03-0.02,0.07-0.04,0.1-0.05c0.12-0.03,0.24,0.02,0.31,0.12C30.74,61.61,30.71,61.79,30.57,61.89z"/>
	<path fill="#D3D005" d="M31.12,61.5c-0.14,0.09-0.32,0.06-0.42-0.08c-0.09-0.13-0.06-0.32,0.07-0.42c0.14-0.09,0.32-0.06,0.42,0.08
		C31.29,61.22,31.25,61.41,31.12,61.5z"/>
	<path fill="#D3D005" d="M33,59.51c-0.14,0.09-0.32,0.06-0.42-0.07c-0.09-0.14-0.06-0.32,0.07-0.42c0.14-0.09,0.32-0.06,0.42,0.07
		C33.16,59.23,33.13,59.42,33,59.51z"/>
	<path fill="#D3D005" d="M33.65,59.05c-0.14,0.09-0.32,0.06-0.42-0.08c-0.09-0.13-0.06-0.32,0.07-0.41
		c0.01-0.01,0.03-0.02,0.05-0.03c0.1-0.05,0.23-0.03,0.32,0.04c0.02,0.02,0.04,0.04,0.05,0.06C33.82,58.77,33.79,58.96,33.65,59.05z
		"/>
	<path fill="#D3D005" d="M32.39,60.02c-0.14,0.09-0.32,0.06-0.42-0.07c-0.09-0.14-0.06-0.32,0.08-0.42
		c0.14-0.09,0.32-0.06,0.42,0.07C32.56,59.74,32.53,59.93,32.39,60.02z"/>
	<path fill="#D3D005" d="M31.76,60.68c-0.02,0.02-0.05,0.03-0.08,0.04c-0.03,0.01-0.07,0.02-0.11,0.01c-0.09,0-0.18-0.04-0.23-0.12
		c-0.09-0.14-0.06-0.32,0.08-0.42c0.14-0.09,0.32-0.06,0.42,0.08C31.93,60.39,31.89,60.58,31.76,60.68z"/>
	<path fill="#D3D005" d="M34.54,59.05c-0.14,0.09-0.32,0.06-0.42-0.08c-0.09-0.13-0.06-0.32,0.08-0.41c0.13-0.1,0.32-0.06,0.42,0.07
		C34.71,58.77,34.67,58.96,34.54,59.05z"/>
	<path fill="#D3D005" d="M33.71,58.55c-0.01,0.01-0.03,0.02-0.04,0.03c-0.11,0.05-0.23,0.03-0.32-0.04
		c-0.02-0.01-0.04-0.04-0.06-0.06c-0.09-0.14-0.06-0.32,0.08-0.42c0.14-0.09,0.32-0.06,0.42,0.08
		C33.88,58.27,33.85,58.46,33.71,58.55z"/>
	<path fill="#D3D005" d="M34.97,59.68c-0.14,0.09-0.32,0.06-0.42-0.08c-0.09-0.14-0.06-0.32,0.08-0.42
		c0.14-0.09,0.32-0.06,0.42,0.08C35.14,59.39,35.11,59.58,34.97,59.68z"/>
	<path fill="#D3D005" d="M34.54,60.32c-0.14,0.09-0.32,0.06-0.42-0.08c-0.09-0.13-0.06-0.32,0.08-0.41c0.13-0.1,0.32-0.06,0.42,0.07
		C34.71,60.04,34.67,60.23,34.54,60.32z"/>
	<path fill="#D3D005" d="M34.23,60.86c-0.01,0.11-0.07,0.21-0.17,0.26c-0.02,0.01-0.05,0.02-0.08,0.02
		c-0.13,0.02-0.26-0.05-0.32-0.17c-0.07-0.15,0-0.33,0.15-0.4c0.15-0.07,0.33,0,0.4,0.15C34.22,60.77,34.23,60.82,34.23,60.86z"/>
	<path fill="#D3D005" d="M33.49,60.7c-0.15,0.07-0.33,0-0.4-0.15c-0.04-0.08-0.03-0.17,0-0.25c0.03-0.06,0.08-0.12,0.15-0.15
		c0.03-0.01,0.05-0.02,0.08-0.02c0.13-0.02,0.26,0.05,0.32,0.17C33.71,60.46,33.64,60.63,33.49,60.7z"/>
	<path fill="#D3D005" d="M34,59.89c-0.15,0.07-0.33,0-0.4-0.15c-0.07-0.15,0-0.33,0.15-0.4c0.15-0.07,0.33,0,0.4,0.15
		C34.21,59.64,34.15,59.82,34,59.89z"/>
	<path fill="#D3D005" d="M33.32,60.14c-0.03,0.06-0.08,0.12-0.15,0.15c-0.02,0.01-0.05,0.02-0.08,0.02
		c-0.13,0.02-0.26-0.04-0.32-0.17c-0.07-0.15,0-0.33,0.15-0.4c0.15-0.07,0.33,0,0.4,0.15C33.36,59.97,33.36,60.06,33.32,60.14z"/>
	<path fill="#D3D005" d="M32.5,60.7c-0.15,0.07-0.33,0-0.4-0.15c-0.07-0.15,0-0.33,0.15-0.4c0.15-0.07,0.33,0,0.4,0.15
		C32.71,60.46,32.65,60.63,32.5,60.7z"/>
	<path fill="#D3D005" d="M32.7,61.35c-0.15,0.07-0.33,0-0.4-0.15c-0.07-0.15,0-0.33,0.15-0.4c0.15-0.07,0.33,0,0.4,0.15
		C32.92,61.11,32.85,61.28,32.7,61.35z"/>
	<path fill="#D3D005" d="M33.49,61.61c-0.15,0.07-0.33,0-0.4-0.15c-0.07-0.15,0-0.33,0.15-0.4c0.15-0.07,0.33,0,0.4,0.15
		C33.71,61.37,33.64,61.54,33.49,61.61z"/>
	<path fill="#D3D005" d="M32.06,62.15c-0.15,0.07-0.33,0-0.4-0.15c-0.07-0.15,0-0.33,0.15-0.4c0.15-0.07,0.33,0,0.4,0.15
		C32.28,61.9,32.21,62.08,32.06,62.15z"/>
	<path fill="#D3D005" d="M31.79,61.28c-0.15,0.07-0.33,0-0.4-0.15c-0.07-0.15,0-0.33,0.15-0.4c0.01,0,0.03-0.01,0.04-0.01
		c0.04-0.01,0.07-0.01,0.11-0.01c0.11,0.01,0.2,0.07,0.25,0.17C32,61.04,31.94,61.22,31.79,61.28z"/>
	<path fill="#D3D005" d="M31.29,62.39c-0.15,0.07-0.33,0-0.4-0.15c-0.07-0.15,0-0.33,0.15-0.4c0.15-0.07,0.33,0,0.4,0.15
		C31.51,62.15,31.44,62.32,31.29,62.39z"/>
	<path fill="#D3D005" d="M31.54,63.1c-0.15,0.07-0.33,0-0.4-0.15c-0.07-0.15,0-0.33,0.15-0.4c0.15-0.07,0.33,0,0.4,0.15
		C31.75,62.85,31.69,63.03,31.54,63.1z"/>
	<path fill="#D3D005" d="M31.07,64.1c-0.12,0.11-0.31,0.11-0.42-0.01c-0.11-0.12-0.11-0.31,0.01-0.42c0.12-0.11,0.31-0.1,0.42,0.01
		C31.2,63.79,31.19,63.98,31.07,64.1z"/>
	<path fill="#D3D005" d="M30.9,63.37c-0.12,0.11-0.31,0.1-0.42-0.01c-0.11-0.12-0.11-0.31,0.01-0.42c0.12-0.11,0.31-0.11,0.42,0.01
		C31.03,63.07,31.02,63.26,30.9,63.37z"/>
	<path fill="#D3D005" d="M30.27,63.38c-0.02,0.16-0.16,0.29-0.33,0.27c-0.16-0.02-0.28-0.16-0.27-0.33
		c0.02-0.16,0.16-0.29,0.33-0.27S30.29,63.22,30.27,63.38z"/>
	<path fill="#D3D005" d="M30.48,64.29c-0.02,0.16-0.16,0.29-0.33,0.27c-0.16-0.02-0.28-0.16-0.27-0.33
		c0.02-0.16,0.16-0.29,0.33-0.27C30.38,63.98,30.5,64.13,30.48,64.29z"/>
	<path fill="#D3D005" d="M29.65,64.68c-0.02,0.16-0.16,0.29-0.33,0.27c-0.16-0.02-0.28-0.16-0.27-0.33
		c0.02-0.16,0.16-0.29,0.33-0.27C29.54,64.36,29.66,64.51,29.65,64.68z"/>
	<path fill="#D3D005" d="M30.54,64.89c0,0.02,0,0.03-0.01,0.05c-0.03,0.1-0.1,0.17-0.19,0.21c-0.04,0.01-0.08,0.02-0.13,0.01
		c-0.16-0.02-0.29-0.16-0.27-0.33c0.02-0.16,0.16-0.29,0.33-0.27C30.43,64.58,30.56,64.73,30.54,64.89z"/>
	<path fill="#D3D005" d="M29.92,65.43c-0.07,0.15-0.25,0.21-0.4,0.14c-0.15-0.07-0.21-0.25-0.14-0.4c0.07-0.15,0.25-0.21,0.4-0.14
		C29.93,65.11,29.99,65.29,29.92,65.43z"/>
	<path fill="#D3D005" d="M28.91,65.24c-0.07,0.15-0.25,0.21-0.4,0.14s-0.21-0.25-0.14-0.4c0.07-0.15,0.25-0.21,0.4-0.14
		C28.93,64.92,28.99,65.09,28.91,65.24z"/>
	<path fill="#D3D005" d="M29.31,65.98c-0.07,0.15-0.25,0.21-0.4,0.14c-0.15-0.07-0.21-0.25-0.14-0.4c0.07-0.15,0.25-0.21,0.4-0.14
		C29.32,65.66,29.38,65.84,29.31,65.98z"/>
	<path fill="#D3D005" d="M28.39,66.28c-0.07,0.15-0.25,0.21-0.4,0.14c-0.15-0.08-0.21-0.25-0.14-0.4c0.07-0.15,0.25-0.21,0.4-0.14
		S28.46,66.13,28.39,66.28z"/>
	<path fill="#D3D005" d="M27.76,66.52c-0.07,0.15-0.25,0.21-0.4,0.14c-0.15-0.08-0.21-0.25-0.14-0.4c0.07-0.15,0.25-0.21,0.4-0.14
		C27.77,66.19,27.83,66.37,27.76,66.52z"/>
	<path fill="#D3D005" d="M27.98,67.32c-0.13,0.1-0.32,0.08-0.42-0.06c-0.1-0.13-0.08-0.32,0.06-0.42c0.13-0.1,0.32-0.07,0.42,0.06
		C28.14,67.04,28.12,67.22,27.98,67.32z"/>
	<path fill="#D3D005" d="M27.14,67.55c-0.13,0.1-0.32,0.08-0.42-0.06c-0.1-0.13-0.08-0.32,0.06-0.42c0.13-0.1,0.32-0.08,0.42,0.06
		C27.3,67.26,27.27,67.45,27.14,67.55z"/>
	<path fill="#D3D005" d="M27.55,68.22l-0.03,0.04c-0.01,0.01-0.01,0.02-0.02,0.02c-0.13,0.1-0.32,0.08-0.42-0.06
		c-0.1-0.13-0.08-0.32,0.06-0.42c0.13-0.1,0.32-0.08,0.42,0.06C27.63,67.97,27.63,68.12,27.55,68.22z"/>
	<path fill="#D3D005" d="M28.75,66.9c0,0-0.01,0.01-0.01,0.01c-0.01,0.01-0.03,0.03-0.04,0.04c-0.13,0.1-0.32,0.08-0.42-0.06
		c-0.1-0.13-0.08-0.32,0.06-0.42c0.13-0.1,0.32-0.08,0.42,0.06C28.84,66.64,28.83,66.8,28.75,66.9z"/>
	<path fill="#D3D005" d="M30.66,62.68c-0.12,0.11-0.31,0.11-0.42-0.01c-0.11-0.12-0.11-0.31,0.01-0.42
		c0.12-0.11,0.31-0.11,0.42,0.01C30.79,62.38,30.78,62.57,30.66,62.68z"/>
	<path fill="#D3D005" d="M25.37,69.05c0,0.16-0.13,0.3-0.3,0.3c-0.01,0-0.02,0-0.04,0c-0.13-0.01-0.23-0.11-0.26-0.24
		c0-0.02,0-0.04,0-0.06c0-0.17,0.13-0.3,0.3-0.3C25.24,68.75,25.37,68.88,25.37,69.05z"/>
	<path fill="#D3D005" d="M25.37,67.61c0,0.16-0.13,0.3-0.3,0.3c-0.16,0-0.3-0.13-0.3-0.3c0-0.16,0.13-0.3,0.3-0.3
		c0.03,0,0.06,0,0.08,0.01c0.09,0.02,0.17,0.1,0.2,0.19C25.37,67.54,25.37,67.58,25.37,67.61z"/>
	<path fill="#D3D005" d="M25.14,68.29c0,0.16-0.14,0.3-0.3,0.3c-0.16,0-0.3-0.13-0.3-0.3c0-0.17,0.13-0.3,0.3-0.3
		C25,67.99,25.14,68.12,25.14,68.29z"/>
	<path fill="#D3D005" d="M25.74,67.23c0,0.17-0.14,0.3-0.3,0.3c-0.03,0-0.06,0-0.08-0.01c-0.09-0.03-0.16-0.1-0.2-0.19
		c-0.01-0.03-0.02-0.07-0.02-0.1c0-0.16,0.13-0.3,0.3-0.3C25.6,66.93,25.74,67.06,25.74,67.23z"/>
</g>
<g>
	<circle fill="#FFEC00" stroke="#1D1D1B" stroke-miterlimit="10" cx="-75.03" cy="-25.37" r="5.07"/>
	<g>
		
			<line fill="none" stroke="#1D1D1B" stroke-miterlimit="10" stroke-dasharray="4.4257" x1="-75.03" y1="-36.78" x2="-75.03" y2="-32.35"/>
	</g>
	<g>
		
			<line fill="none" stroke="#1D1D1B" stroke-miterlimit="10" stroke-dasharray="4.4257" x1="-80.73" y1="-35.25" x2="-78.52" y2="-31.41"/>
	</g>
	<g>
		
			<line fill="none" stroke="#1D1D1B" stroke-miterlimit="10" stroke-dasharray="4.4257" x1="-84.91" y1="-31.07" x2="-81.08" y2="-28.86"/>
	</g>
	<g>
		
			<line fill="none" stroke="#1D1D1B" stroke-miterlimit="10" stroke-dasharray="4.4257" x1="-86.44" y1="-25.37" x2="-82.01" y2="-25.37"/>
	</g>
	<g>
		
			<line fill="none" stroke="#1D1D1B" stroke-miterlimit="10" stroke-dasharray="4.4257" x1="-84.91" y1="-19.66" x2="-81.08" y2="-21.87"/>
	</g>
	<g>
		
			<line fill="none" stroke="#1D1D1B" stroke-miterlimit="10" stroke-dasharray="4.4257" x1="-80.73" y1="-15.48" x2="-78.52" y2="-19.32"/>
	</g>
	<g>
		
			<line fill="none" stroke="#1D1D1B" stroke-miterlimit="10" stroke-dasharray="4.4257" x1="-75.03" y1="-13.95" x2="-75.03" y2="-18.38"/>
	</g>
	<g>
		
			<line fill="none" stroke="#1D1D1B" stroke-miterlimit="10" stroke-dasharray="4.4257" x1="-69.32" y1="-15.48" x2="-71.54" y2="-19.32"/>
	</g>
	<g>
		
			<line fill="none" stroke="#1D1D1B" stroke-miterlimit="10" stroke-dasharray="4.4257" x1="-65.15" y1="-19.66" x2="-68.98" y2="-21.87"/>
	</g>
	<g>
		
			<line fill="none" stroke="#1D1D1B" stroke-miterlimit="10" stroke-dasharray="4.4257" x1="-63.62" y1="-25.37" x2="-68.04" y2="-25.37"/>
	</g>
	<g>
		
			<line fill="none" stroke="#1D1D1B" stroke-miterlimit="10" stroke-dasharray="4.4257" x1="-65.15" y1="-31.07" x2="-68.98" y2="-28.86"/>
	</g>
	<g>
		
			<line fill="none" stroke="#1D1D1B" stroke-miterlimit="10" stroke-dasharray="4.4257" x1="-69.32" y1="-35.25" x2="-71.54" y2="-31.41"/>
	</g>
</g>
<g>
	<path fill="#D9D9D9" stroke="#B1B1B1" stroke-miterlimit="10" d="M-81.83,18.37h-10.15c-1.97,0-3.57-1.6-3.57-3.57v0
		c0-1.97,1.6-3.57,3.57-3.57h10.15c1.97,0,3.57,1.6,3.57,3.57v0C-78.26,16.77-79.86,18.37-81.83,18.37z"/>
	<circle fill="#D9D9D9" stroke="#B1B1B1" stroke-miterlimit="10" cx="-92.75" cy="10.28" r="3.85"/>
	<circle fill="#D9D9D9" stroke="#B1B1B1" stroke-miterlimit="10" cx="-88.3" cy="8.1" r="4.44"/>
	<circle fill="#D9D9D9" stroke="#B1B1B1" stroke-miterlimit="10" cx="-81.54" cy="10.92" r="4.15"/>
	<circle fill="#D9D9D9" stroke="#B1B1B1" stroke-miterlimit="10" cx="-88.37" cy="14.2" r="4.25"/>
	<circle fill="#D9D9D9" stroke="#B1B1B1" stroke-miterlimit="10" cx="-78.85" cy="13.67" r="4.25"/>
	<circle fill="#D9D9D9" stroke="#B1B1B1" stroke-miterlimit="10" cx="-94.8" cy="14.4" r="3.48"/>
</g>
<g>
	<circle fill="#FFFFFF" stroke="#FFFFFF" stroke-width="2" stroke-miterlimit="10" cx="41.63" cy="49.69" r="0.44"/>
	<line fill="none" stroke="#FFFFFF" stroke-width="2" stroke-miterlimit="10" x1="55.84" y1="52.43" x2="60.93" y2="43.33"/>
	<circle fill="#FFFFFF" stroke="#FFFFFF" stroke-width="2" stroke-miterlimit="10" cx="54.55" cy="54.72" r="0.44"/>
	<g>
		<g>
			<path fill="#D9D9D9" stroke="#B1B1B1" stroke-miterlimit="10" d="M71.64,29.42H46.49c-1.97,0-3.57-1.6-3.57-3.57v-6.21
				c0-1.97,1.6-3.57,3.57-3.57h25.16c1.97,0,3.57,1.6,3.57,3.57v6.21C75.22,27.82,73.62,29.42,71.64,29.42z"/>
			<circle fill="#D9D9D9" stroke="#B1B1B1" stroke-miterlimit="10" cx="48.15" cy="14.31" r="7.19"/>
			<circle fill="#D9D9D9" stroke="#B1B1B1" stroke-miterlimit="10" cx="56.45" cy="10.25" r="8.3"/>
			<circle fill="#D9D9D9" stroke="#B1B1B1" stroke-miterlimit="10" cx="69.08" cy="15.51" r="7.75"/>
			<circle fill="#D9D9D9" stroke="#B1B1B1" stroke-miterlimit="10" cx="56.32" cy="21.64" r="7.94"/>
			<circle fill="#D9D9D9" stroke="#B1B1B1" stroke-miterlimit="10" cx="74.11" cy="20.64" r="7.94"/>
			<circle fill="#D9D9D9" stroke="#B1B1B1" stroke-miterlimit="10" cx="44.31" cy="22.02" r="6.51"/>
		</g>
		<line fill="none" stroke="#FFFFFF" stroke-width="2" stroke-miterlimit="10" x1="42.91" y1="47.4" x2="48.01" y2="38.29"/>
		<line fill="none" stroke="#FFFFFF" stroke-width="2" stroke-miterlimit="10" x1="55.27" y1="38.74" x2="50.18" y2="47.85"/>
		<circle fill="#FFFFFF" stroke="#FFFFFF" stroke-width="2" stroke-miterlimit="10" cx="56.56" cy="36.45" r="0.44"/>
		<line fill="none" stroke="#FFFFFF" stroke-width="2" stroke-miterlimit="10" x1="69.36" y1="36.41" x2="64.26" y2="45.51"/>
		<circle fill="#FFFFFF" stroke="#FFFFFF" stroke-width="2" stroke-miterlimit="10" cx="70.64" cy="34.11" r="0.44"/>
	</g>
</g>
</svg>
