<?xml version="1.0" encoding="utf-8"?>
<!-- Generator: Adobe Illustrator 28.1.0, SVG Export Plug-In . SVG Version: 6.00 Build 0)  -->
<svg version="1.1" id="Laag_1" xmlns="http://www.w3.org/2000/svg" xmlns:xlink="http://www.w3.org/1999/xlink" x="0px" y="0px"
	 viewBox="0 0 105 103.1" style="enable-background:new 0 0 105 103.1;" xml:space="preserve">
<style type="text/css">
	.st0{fill:#F8B572;stroke:#1D1D1B;stroke-miterlimit:10;}
	.st1{fill:#3DA936;stroke:#000000;stroke-width:0.5;stroke-miterlimit:10;}
	.st2{fill:#FFFFFF;stroke:#1D1D1B;stroke-miterlimit:10;}
	.st3{fill:none;stroke:#1D1D1B;stroke-miterlimit:10;stroke-dasharray:3.5812;}
	.st4{fill:#FFEC00;stroke:#1D1D1B;stroke-miterlimit:10;}
	.st5{fill:none;stroke:#1D1D1B;stroke-miterlimit:10;stroke-dasharray:6.0535;}
	.st6{fill:#D9D9D9;stroke:#B1B1B1;stroke-miterlimit:10;}
	.st7{fill:#FFFFFF;stroke:#FFFFFF;stroke-width:2;stroke-miterlimit:10;}
	.st8{fill:none;stroke:#FFFFFF;stroke-width:2;stroke-miterlimit:10;}
	.st9{fill:#BD1622;stroke:#1D1D1B;stroke-width:0.25;stroke-miterlimit:10;}
	.st10{fill:#648F1E;stroke:#1D1D1B;stroke-width:0.25;stroke-miterlimit:10;}
	.st11{fill:none;stroke:#1D1D1B;stroke-width:0.25;stroke-miterlimit:10;}
	.st12{fill:#BD1622;stroke:#1D1D1B;stroke-width:0.25;stroke-linecap:round;stroke-linejoin:round;stroke-miterlimit:10;}
	.st13{fill:#63902F;stroke:#1D1D1B;stroke-width:0.25;stroke-linecap:round;stroke-linejoin:round;stroke-miterlimit:10;}
	.st14{fill:none;stroke:#1D1D1B;stroke-linecap:round;stroke-miterlimit:10;}
	.st15{fill:#E5007E;stroke:#1D1D1B;stroke-width:0.75;stroke-linecap:round;stroke-miterlimit:10;}
	.st16{fill:#B17F49;stroke:#1D1D1B;stroke-width:0.5;stroke-linecap:round;stroke-miterlimit:10;}
	.st17{fill:none;stroke:#B5B5B5;stroke-width:0.25;stroke-miterlimit:10;}
	.st18{fill:#7E4E24;stroke:#1D1D1B;stroke-width:0.25;stroke-miterlimit:10;}
	.st19{fill:#D3D005;}
	.st20{fill:#FFFFFF;stroke:#1D1D1B;stroke-linecap:round;stroke-linejoin:round;stroke-miterlimit:10;}
	.st21{fill:none;stroke:#1D1D1B;stroke-linecap:round;stroke-linejoin:round;stroke-miterlimit:10;}
	.st22{fill:none;stroke:#60B4E5;stroke-linecap:round;stroke-miterlimit:10;}
	.st23{fill:#617EBE;stroke:#1D1D1B;stroke-linecap:round;stroke-linejoin:round;stroke-miterlimit:10;}
	.st24{fill:#F9BB75;stroke:#1D1E1C;stroke-width:0.75;stroke-linecap:round;stroke-linejoin:round;stroke-miterlimit:10;}
	.st25{fill:#009540;}
	.st26{fill:none;stroke:#1D1E1C;stroke-width:0.75;stroke-linecap:round;stroke-linejoin:round;stroke-miterlimit:10;}
	.st27{fill:#925F36;stroke:#1D1E1C;stroke-width:0.75;stroke-linecap:round;stroke-linejoin:round;stroke-miterlimit:10;}
	.st28{fill:#F8B133;stroke:#1D1E1C;stroke-width:0.75;stroke-linecap:round;stroke-linejoin:round;stroke-miterlimit:10;}
	.st29{fill:#AB0F09;stroke:#1D1E1C;stroke-width:0.75;stroke-linecap:round;stroke-linejoin:round;stroke-miterlimit:10;}
	.st30{fill:#FFFFFF;}
	.st31{fill:#826328;stroke:#1D1E1C;stroke-width:0.25;stroke-miterlimit:10;}
	.st32{fill:#BFB709;stroke:#1D1E1C;stroke-width:0.25;stroke-miterlimit:10;}
	.st33{fill:#C0B70B;stroke:#1D1E1C;stroke-width:0.25;stroke-miterlimit:10;}
	.st34{fill:#816228;stroke:#1D1E1C;stroke-width:0.25;stroke-miterlimit:10;}
	.st35{fill:#BD1823;stroke:#1D1E1C;stroke-width:0.25;stroke-linecap:round;stroke-linejoin:round;stroke-miterlimit:10;}
	.st36{fill:#628F2F;stroke:#1D1E1C;stroke-width:0.25;stroke-linecap:round;stroke-linejoin:round;stroke-miterlimit:10;}
	.st37{fill:#C0B70B;stroke:#1D1E1C;stroke-width:0.25;stroke-linecap:round;stroke-linejoin:round;stroke-miterlimit:10;}
	.st38{fill:#816228;stroke:#1D1E1C;stroke-width:0.25;stroke-linecap:round;stroke-linejoin:round;stroke-miterlimit:10;}
	.st39{fill:#826328;stroke:#1D1E1C;stroke-width:0.25;stroke-linecap:round;stroke-linejoin:round;stroke-miterlimit:10;}
	.st40{fill:#BFB709;stroke:#1D1E1C;stroke-width:0.25;stroke-linecap:round;stroke-linejoin:round;stroke-miterlimit:10;}
</style>
<g>
	<path class="st0" d="M214.6-112.4L214.6-112.4c-6.6,0-11.9-5.3-11.9-11.9v-3.6h22.8v4.7C225.5-117.3,220.6-112.4,214.6-112.4z"/>
	<path class="st0" d="M254-112.4L254-112.4c-8.4,0-15.3-6.8-15.3-15.3V-138h29.1v11.7C267.8-118.6,261.6-112.4,254-112.4z"/>
	<path class="st1" d="M250.1-98.1l1.1,0.2l2.1,4.2l3.3-3.4h0l-7-14.2l-11,11.4l2.1,4.2l3.3-3.4l1.2,0.2v0c-0.8,4.8-6.1,8.1-12,7.2
		c-5.9-0.9-10.1-5.5-9.3-10.4v0l-5-0.8v0c-1.1,7.1,5.1,14,13.7,15.3C241.1-86.2,249-90.9,250.1-98.1L250.1-98.1z"/>
</g>
<g>
	<path class="st2" d="M95.8-106.8H85.7c-2,0-3.6-1.6-3.6-3.6l0,0c0-2,1.6-3.6,3.6-3.6h10.2c2,0,3.6,1.6,3.6,3.6l0,0
		C99.4-108.4,97.8-106.8,95.8-106.8z"/>
	<g>
		<line class="st3" x1="85.1" y1="-119.9" x2="88.7" y2="-119.9"/>
	</g>
	<circle class="st4" cx="96.3" cy="-119.9" r="6.2"/>
	<circle class="st2" cx="84.9" cy="-114.9" r="3.8"/>
	<circle class="st2" cx="89.4" cy="-117.1" r="4.4"/>
	<circle class="st2" cx="96.1" cy="-114.3" r="4.2"/>
	<circle class="st2" cx="89.3" cy="-111" r="4.2"/>
	<circle class="st2" cx="98.8" cy="-111.5" r="4.2"/>
	<circle class="st2" cx="82.9" cy="-110.8" r="3.5"/>
	<g>
		<line class="st3" x1="96.3" y1="-131.1" x2="96.3" y2="-127.5"/>
	</g>
	<g>
		<line class="st3" x1="90.7" y1="-129.6" x2="92.5" y2="-126.5"/>
	</g>
	<g>
		<line class="st3" x1="86.6" y1="-125.5" x2="89.7" y2="-123.7"/>
	</g>
	<g>
		<line class="st3" x1="106" y1="-114.3" x2="102.9" y2="-116.1"/>
	</g>
	<g>
		<line class="st3" x1="107.5" y1="-119.9" x2="103.9" y2="-119.9"/>
	</g>
	<g>
		<line class="st3" x1="106" y1="-125.5" x2="102.9" y2="-123.7"/>
	</g>
	<g>
		<line class="st3" x1="101.9" y1="-129.6" x2="100.1" y2="-126.5"/>
	</g>
</g>
<g>
	<circle class="st4" cx="132.8" cy="-119" r="6.9"/>
	<g>
		<line class="st5" x1="132.8" y1="-134.6" x2="132.8" y2="-128.5"/>
	</g>
	<g>
		<line class="st5" x1="125" y1="-132.5" x2="128" y2="-127.3"/>
	</g>
	<g>
		<line class="st5" x1="119.3" y1="-126.8" x2="124.5" y2="-123.8"/>
	</g>
	<g>
		<line class="st5" x1="117.2" y1="-119" x2="123.2" y2="-119"/>
	</g>
	<g>
		<line class="st5" x1="119.3" y1="-111.2" x2="124.5" y2="-114.2"/>
	</g>
	<g>
		<line class="st5" x1="125" y1="-105.5" x2="128" y2="-110.7"/>
	</g>
	<g>
		<line class="st5" x1="132.8" y1="-103.4" x2="132.8" y2="-109.4"/>
	</g>
	<g>
		<line class="st5" x1="140.6" y1="-105.5" x2="137.6" y2="-110.7"/>
	</g>
	<g>
		<line class="st5" x1="146.3" y1="-111.2" x2="141.1" y2="-114.2"/>
	</g>
	<g>
		<line class="st5" x1="148.4" y1="-119" x2="142.3" y2="-119"/>
	</g>
	<g>
		<line class="st5" x1="146.3" y1="-126.8" x2="141.1" y2="-123.8"/>
	</g>
	<g>
		<line class="st5" x1="140.6" y1="-132.5" x2="137.6" y2="-127.3"/>
	</g>
</g>
<g>
	<path class="st6" d="M20.7-117.3H10.5c-2,0-3.6-1.6-3.6-3.6l0,0c0-2,1.6-3.6,3.6-3.6h10.1c2,0,3.6,1.6,3.6,3.6l0,0
		C24.3-118.9,22.7-117.3,20.7-117.3z"/>
	<circle class="st6" cx="9.8" cy="-125.4" r="3.8"/>
	<circle class="st6" cx="14.2" cy="-127.6" r="4.4"/>
	<circle class="st6" cx="21" cy="-124.8" r="4.2"/>
	<circle class="st6" cx="14.1" cy="-121.5" r="4.2"/>
	<circle class="st6" cx="23.7" cy="-122" r="4.2"/>
	<circle class="st6" cx="7.7" cy="-121.3" r="3.5"/>
</g>
<g>
	<circle class="st7" cx="42.9" cy="-99.7" r="0.3"/>
	<line class="st8" x1="52.3" y1="-97.9" x2="55.7" y2="-103.9"/>
	<circle class="st8" cx="51.5" cy="-96.3" r="0.3"/>
	<g>
		<g>
			<path class="st6" d="M62.8-113.2H46.1c-1.3,0-2.4-1.1-2.4-2.4v-4.1c0-1.3,1.1-2.4,2.4-2.4h16.7c1.3,0,2.4,1.1,2.4,2.4v4.1
				C65.2-114.2,64.1-113.2,62.8-113.2z"/>
			<circle class="st6" cx="47.2" cy="-123.2" r="4.8"/>
			<circle class="st6" cx="52.7" cy="-125.9" r="5.5"/>
			<circle class="st6" cx="61.1" cy="-122.4" r="5.2"/>
			<circle class="st6" cx="52.6" cy="-118.3" r="5.3"/>
			<circle class="st6" cx="64.4" cy="-119" r="5.3"/>
			<circle class="st6" cx="44.7" cy="-118.1" r="4.3"/>
		</g>
		<line class="st8" x1="43.7" y1="-101.2" x2="47.1" y2="-107.3"/>
		<line class="st8" x1="51.9" y1="-107" x2="48.5" y2="-100.9"/>
		<circle class="st7" cx="52.8" cy="-108.5" r="0.3"/>
		<line class="st8" x1="61.3" y1="-108.5" x2="57.9" y2="-102.5"/>
		<circle class="st7" cx="62.1" cy="-110" r="0.3"/>
	</g>
</g>
<g>
	<g>
		<g>
			<path class="st9" d="M-82.5-46.9c-0.8,0.1-1.4-0.3-1.7-1.1c0.8-0.2,1.3-0.3,1.3-0.3S-82.6-47.8-82.5-46.9z"/>
			<path class="st10" d="M-83.5-38.7c-0.8,1.3-1.8,2.4-2.8,3.3l-6.6-4.2c0.3-1.3,0.9-2.6,1.8-3.9c1.7-2.7,5.1-3.9,7-4.4
				c0.3,0.8,0.8,1.2,1.7,1.1C-82.1-45-81.8-41.5-83.5-38.7z"/>
			<line class="st11" x1="-82.5" y1="-46.9" x2="-82.5" y2="-46.9"/>
		</g>
		<g>
			<path class="st9" d="M-103.4-47.8c-0.3,0.8-0.9,1.1-1.8,0.9c0.2-0.8,0.4-1.3,0.4-1.3S-104.2-48.1-103.4-47.8z"/>
			<path class="st10" d="M-96.8-42.8c0.7,1.4,1.2,2.8,1.4,4l-7,3.6c-0.9-0.9-1.8-2.1-2.5-3.5c-1.5-2.9-0.8-6.4-0.3-8.3
				c0.8,0.2,1.4-0.2,1.8-0.9C-101.5-47.2-98.3-45.7-96.8-42.8z"/>
			<line class="st11" x1="-103.4" y1="-47.8" x2="-103.4" y2="-47.8"/>
		</g>
		<g>
			<path class="st9" d="M-92.8-50.2c-0.7,0.5-1.3,0.5-2-0.1c0.6-0.6,1-0.9,1-0.9S-93.4-50.8-92.8-50.2z"/>
			<path class="st10" d="M-89.6-42.5c-0.1,1.5-0.3,3-0.8,4.2l-7.8-0.3c-0.3-1.3-0.5-2.7-0.4-4.3c0.1-3.3,2.5-6,3.9-7.3
				c0.6,0.5,1.3,0.6,2,0.1C-91.5-48.7-89.5-45.8-89.6-42.5z"/>
			<line class="st11" x1="-92.8" y1="-50.2" x2="-92.8" y2="-50.2"/>
		</g>
		<g>
			<path class="st9" d="M-114.6-30.1c0.5,0.7,0.5,1.3-0.1,2c-0.6-0.6-0.9-1-0.9-1S-115.2-29.6-114.6-30.1z"/>
			<path class="st10" d="M-106.9-33.3c1.5,0.1,3,0.3,4.2,0.8l-0.3,7.8c-1.3,0.3-2.7,0.5-4.3,0.4c-3.3-0.1-6-2.5-7.3-3.9
				c0.5-0.6,0.6-1.3,0.1-2C-113.1-31.4-110.2-33.5-106.9-33.3z"/>
			<line class="st11" x1="-114.6" y1="-30.1" x2="-114.6" y2="-30.1"/>
		</g>
		<g>
			<path class="st9" d="M-111.3-40.4c0.1,0.8-0.3,1.4-1.1,1.7c-0.2-0.8-0.3-1.3-0.3-1.3S-112.2-40.3-111.3-40.4z"/>
			<path class="st10" d="M-103.1-39.4c1.3,0.8,2.4,1.8,3.3,2.8l-4.2,6.6c-1.3-0.3-2.6-0.9-3.9-1.8c-2.7-1.7-3.9-5.1-4.4-7
				c0.8-0.3,1.2-0.8,1.1-1.7C-109.4-40.8-105.9-41.2-103.1-39.4z"/>
			<line class="st11" x1="-111.3" y1="-40.5" x2="-111.3" y2="-40.4"/>
		</g>
		<g>
			<path class="st9" d="M-104.8-11.6c0.8-0.1,1.4,0.3,1.7,1.1c-0.8,0.2-1.3,0.3-1.3,0.3S-104.7-10.8-104.8-11.6z"/>
			<path class="st10" d="M-103.8-19.8c0.8-1.3,1.8-2.4,2.8-3.3l6.6,4.2c-0.3,1.3-0.9,2.6-1.8,3.9c-1.7,2.7-5.1,3.9-7,4.4
				c-0.3-0.8-0.8-1.2-1.7-1.1C-105.2-13.5-105.6-17.1-103.8-19.8z"/>
			<line class="st11" x1="-104.9" y1="-11.6" x2="-104.8" y2="-11.6"/>
		</g>
		<g>
			<path class="st9" d="M-112.2-19.6c0.8,0.3,1.1,0.9,0.9,1.8c-0.8-0.2-1.3-0.4-1.3-0.4S-112.5-18.8-112.2-19.6z"/>
			<path class="st10" d="M-107.2-26.1c1.4-0.7,2.8-1.2,4-1.4l3.6,7c-0.9,0.9-2.1,1.8-3.5,2.5c-2.9,1.5-6.4,0.8-8.3,0.3
				c0.2-0.8-0.2-1.4-0.9-1.8C-111.5-21.4-110.1-24.6-107.2-26.1z"/>
			<line class="st11" x1="-112.2" y1="-19.6" x2="-112.2" y2="-19.6"/>
		</g>
		<g>
			<path class="st9" d="M-83.9-10.7c0.3-0.8,0.9-1.1,1.8-0.9c-0.2,0.8-0.4,1.3-0.4,1.3S-83.2-10.5-83.9-10.7z"/>
			<path class="st10" d="M-90.5-15.7c-0.7-1.4-1.2-2.8-1.4-4l7-3.6c0.9,0.9,1.8,2.1,2.5,3.5c1.5,2.9,0.8,6.4,0.3,8.3
				c-0.8-0.2-1.4,0.2-1.8,0.9C-85.8-11.4-89-12.9-90.5-15.7z"/>
			<line class="st11" x1="-83.9" y1="-10.7" x2="-83.9" y2="-10.7"/>
		</g>
		<g>
			<path class="st9" d="M-94.5-8.4c0.7-0.5,1.3-0.5,2,0.1c-0.6,0.6-1,0.9-1,0.9S-94-7.7-94.5-8.4z"/>
			<path class="st10" d="M-97.7-16c0.1-1.5,0.3-3,0.8-4.2l7.8,0.3c0.3,1.3,0.5,2.7,0.4,4.3c-0.1,3.3-2.5,6-3.9,7.3
				c-0.6-0.5-1.3-0.6-2-0.1C-95.8-9.8-97.9-12.7-97.7-16z"/>
			<line class="st11" x1="-94.5" y1="-8.4" x2="-94.5" y2="-8.4"/>
		</g>
		<g>
			<path class="st9" d="M-72.8-28.4c-0.5-0.7-0.5-1.3,0.1-2c0.6,0.6,0.9,1,0.9,1S-72.1-29-72.8-28.4z"/>
			<path class="st10" d="M-80.4-25.2c-1.5-0.1-3-0.3-4.2-0.8l0.3-7.8c1.3-0.3,2.7-0.5,4.3-0.4c3.3,0.1,6,2.5,7.3,3.9
				c-0.5,0.6-0.6,1.3-0.1,2C-74.2-27.1-77.2-25.1-80.4-25.2z"/>
			<line class="st11" x1="-72.8" y1="-28.4" x2="-72.8" y2="-28.4"/>
		</g>
		<g>
			<path class="st9" d="M-76-18.1c-0.1-0.8,0.3-1.4,1.1-1.7c0.2,0.8,0.3,1.3,0.3,1.3S-75.2-18.2-76-18.1z"/>
			<path class="st10" d="M-84.2-19.1c-1.3-0.8-2.4-1.8-3.3-2.8l4.2-6.6c1.3,0.3,2.6,0.9,3.9,1.8c2.7,1.7,3.9,5.1,4.4,7
				c-0.8,0.3-1.2,0.8-1.1,1.7C-77.9-17.7-81.5-17.4-84.2-19.1z"/>
			<line class="st11" x1="-76" y1="-18.1" x2="-76" y2="-18.1"/>
		</g>
		<g>
			<path class="st9" d="M-75.1-39c-0.8-0.3-1.1-0.9-0.9-1.8c0.8,0.2,1.3,0.4,1.3,0.4S-74.9-39.8-75.1-39z"/>
			<path class="st10" d="M-80.1-32.4c-1.4,0.7-2.8,1.2-4,1.4l-3.6-7c0.9-0.9,2.1-1.8,3.5-2.5c2.9-1.5,6.4-0.8,8.3-0.3
				c-0.2,0.8,0.2,1.4,0.9,1.8C-75.8-37.1-77.3-33.9-80.1-32.4z"/>
			<line class="st11" x1="-75.1" y1="-39" x2="-75.1" y2="-39"/>
		</g>
	</g>
	<g>
		<g>
			<path class="st9" d="M-89.9-43.9c-0.6,0.2-1,0.1-1.4-0.4c0.5-0.3,0.9-0.5,0.9-0.5S-90.2-44.4-89.9-43.9z"/>
			<path class="st10" d="M-88.8-38c-0.3,1.1-0.7,2.1-1.2,2.8l-5.5-1.4c-0.1-0.9,0.1-2,0.3-3.1c0.6-2.3,2.6-3.8,3.8-4.6
				c0.4,0.5,0.8,0.6,1.4,0.4C-89.2-42.7-88.2-40.3-88.8-38z"/>
			<line class="st11" x1="-89.9" y1="-43.9" x2="-89.9" y2="-43.9"/>
		</g>
		<g>
			<path class="st9" d="M-104.5-39.8c-0.1,0.6-0.4,0.9-1,1c0-0.6,0-1,0-1S-105.1-39.8-104.5-39.8z"/>
			<path class="st10" d="M-98.8-37.9c0.8,0.8,1.4,1.6,1.9,2.5l-4,4c-0.8-0.4-1.7-1-2.5-1.8c-1.7-1.6-2-4.2-2.1-5.6
				c0.6-0.1,0.9-0.4,1-1C-103.1-39.8-100.5-39.5-98.8-37.9z"/>
			<line class="st11" x1="-104.5" y1="-39.8" x2="-104.5" y2="-39.8"/>
		</g>
		<g>
			<path class="st9" d="M-97.7-43.8c-0.4,0.5-0.8,0.6-1.4,0.4c0.3-0.5,0.5-0.9,0.5-0.9S-98.3-44.1-97.7-43.8z"/>
			<path class="st10" d="M-93.8-39.3c0.3,1.1,0.4,2.1,0.4,3.1l-5.5,1.5c-0.5-0.8-0.9-1.8-1.2-2.8c-0.6-2.3,0.4-4.6,1-5.9
				c0.6,0.2,1,0.1,1.4-0.4C-96.5-43.1-94.5-41.5-93.8-39.3z"/>
			<line class="st11" x1="-97.7" y1="-43.8" x2="-97.7" y2="-43.8"/>
		</g>
		<g>
			<path class="st9" d="M-108.2-25.2c0.5,0.4,0.6,0.8,0.4,1.4c-0.5-0.3-0.9-0.5-0.9-0.5S-108.5-24.7-108.2-25.2z"/>
			<path class="st10" d="M-103.7-29.1c1.1-0.3,2.1-0.4,3.1-0.4l1.5,5.5c-0.8,0.5-1.8,0.9-2.8,1.2c-2.3,0.6-4.6-0.4-5.9-1
				c0.2-0.6,0.1-1-0.4-1.4C-107.5-26.4-105.9-28.5-103.7-29.1z"/>
			<line class="st11" x1="-108.2" y1="-25.2" x2="-108.2" y2="-25.2"/>
		</g>
		<g>
			<path class="st9" d="M-108.3-33c0.2,0.6,0.1,1-0.4,1.4c-0.3-0.5-0.5-0.9-0.5-0.9S-108.8-32.7-108.3-33z"/>
			<path class="st10" d="M-102.4-34.1c1.1,0.3,2.1,0.7,2.8,1.2l-1.4,5.5c-0.9,0.1-2-0.1-3.1-0.3c-2.3-0.6-3.8-2.6-4.6-3.8
				c0.5-0.4,0.6-0.8,0.4-1.4C-107.1-33.7-104.7-34.7-102.4-34.1z"/>
			<line class="st11" x1="-108.3" y1="-33" x2="-108.3" y2="-33"/>
		</g>
		<g>
			<path class="st9" d="M-97.4-14.6c0.6-0.2,1-0.1,1.4,0.4c-0.5,0.3-0.9,0.5-0.9,0.5S-97.1-14.1-97.4-14.6z"/>
			<path class="st10" d="M-98.5-20.5c0.3-1.1,0.7-2.1,1.2-2.8l5.5,1.4c0.1,0.9-0.1,2-0.3,3.1c-0.6,2.3-2.6,3.8-3.8,4.6
				c-0.4-0.5-0.8-0.6-1.4-0.4C-98.1-15.9-99.1-18.2-98.5-20.5z"/>
			<line class="st11" x1="-97.4" y1="-14.6" x2="-97.4" y2="-14.6"/>
		</g>
		<g>
			<path class="st9" d="M-104.2-18.5c0.6,0.1,0.9,0.4,1,1c-0.6,0-1,0-1,0S-104.2-17.8-104.2-18.5z"/>
			<path class="st10" d="M-102.2-24.1c0.8-0.8,1.6-1.4,2.5-1.9l4,4c-0.4,0.8-1,1.7-1.8,2.5c-1.6,1.7-4.2,2-5.6,2.1
				c-0.1-0.6-0.4-0.9-1-1C-104.2-19.9-103.9-22.4-102.2-24.1z"/>
			<line class="st11" x1="-104.2" y1="-18.5" x2="-104.2" y2="-18.5"/>
		</g>
		<g>
			<path class="st9" d="M-82.8-18.7c0.1-0.6,0.4-0.9,1-1c0,0.6,0,1,0,1S-82.2-18.7-82.8-18.7z"/>
			<path class="st10" d="M-88.5-20.7c-0.8-0.8-1.4-1.6-1.9-2.5l4-4c0.8,0.4,1.7,1,2.5,1.8c1.7,1.6,2,4.2,2.1,5.6
				c-0.6,0.1-0.9,0.4-1,1C-84.2-18.7-86.8-19-88.5-20.7z"/>
			<line class="st11" x1="-82.8" y1="-18.7" x2="-82.8" y2="-18.7"/>
		</g>
		<g>
			<path class="st9" d="M-89.6-14.7c0.4-0.5,0.8-0.6,1.4-0.4c-0.3,0.5-0.5,0.9-0.5,0.9S-89.1-14.4-89.6-14.7z"/>
			<path class="st10" d="M-93.5-19.2c-0.3-1.1-0.4-2.1-0.4-3.1l5.5-1.5c0.5,0.8,0.9,1.8,1.2,2.8c0.6,2.3-0.4,4.6-1,5.9
				c-0.6-0.2-1-0.1-1.4,0.4C-90.8-15.4-92.9-17-93.5-19.2z"/>
			<line class="st11" x1="-89.6" y1="-14.7" x2="-89.6" y2="-14.7"/>
		</g>
		<g>
			<path class="st9" d="M-79.1-33.3c-0.5-0.4-0.6-0.8-0.4-1.4c0.5,0.3,0.9,0.5,0.9,0.5S-78.8-33.9-79.1-33.3z"/>
			<path class="st10" d="M-83.6-29.4c-1.1,0.3-2.1,0.4-3.1,0.4l-1.5-5.5c0.8-0.5,1.8-0.9,2.8-1.2c2.3-0.6,4.6,0.4,5.9,1
				c-0.2,0.6-0.1,1,0.4,1.4C-79.8-32.1-81.4-30.1-83.6-29.4z"/>
			<line class="st11" x1="-79.1" y1="-33.3" x2="-79.1" y2="-33.3"/>
		</g>
		<g>
			<path class="st9" d="M-79-25.5c-0.2-0.6-0.1-1,0.4-1.4c0.3,0.5,0.5,0.9,0.5,0.9S-78.5-25.8-79-25.5z"/>
			<path class="st10" d="M-84.9-24.4c-1.1-0.3-2.1-0.7-2.8-1.2l1.4-5.5c0.9-0.1,2,0.1,3.1,0.3c2.3,0.6,3.8,2.6,4.6,3.8
				c-0.5,0.4-0.6,0.8-0.4,1.4C-80.2-24.9-82.6-23.8-84.9-24.4z"/>
			<line class="st11" x1="-79" y1="-25.5" x2="-79" y2="-25.5"/>
		</g>
		<g>
			<path class="st9" d="M-83.1-40.1c-0.6-0.1-0.9-0.4-1-1c0.6,0,1,0,1,0S-83.1-40.7-83.1-40.1z"/>
			<path class="st10" d="M-85.1-34.4c-0.8,0.8-1.6,1.4-2.5,1.9l-4-4c0.4-0.8,1-1.7,1.8-2.5c1.6-1.7,4.2-2,5.6-2.1
				c0.1,0.6,0.4,0.9,1,1C-83.1-38.7-83.4-36.1-85.1-34.4z"/>
			<line class="st11" x1="-83.1" y1="-40.1" x2="-83.1" y2="-40.1"/>
		</g>
	</g>
	<g>
		<path class="st12" d="M-93.8-29.2c-0.6,0.1-1,0.5-1.3,1l0,0c-0.4,0.5-1,1-1.6-0.4c-0.3-0.8,0.1-1.2,0.9-1.4
			C-95.3-29.4-94.6-29.3-93.8-29.2z"/>
		<path class="st13" d="M-94.7-25.3c-5.1-0.9-5.5-3.6-2.1-7.6c0.1,1.1,0.5,2.1,1,2.8c-0.8,0.2-1.3,0.6-0.9,1.4
			c0.6,1.3,1.2,0.9,1.6,0.4c0,0,0,0.1-0.1,0.1C-95.3-27-95.2-26.1-94.7-25.3z"/>
	</g>
	<g>
		<path class="st12" d="M-93.8-29.2c-0.5,0.4-0.7,0.9-0.6,1.5l0,0c-0.1,0.7-0.4,1.4-1.6,0.5c-0.6-0.5-0.5-1.1,0.1-1.7
			C-95.2-28.6-94.5-28.9-93.8-29.2z"/>
		<path class="st13" d="M-92.6-25.4c-4.9,1.8-6.5-0.4-5.6-5.5c0.7,0.9,1.5,1.6,2.3,2c-0.6,0.6-0.8,1.2-0.1,1.7
			c1.2,0.9,1.5,0.2,1.6-0.5c0,0.1,0,0.1,0,0.1C-94-26.6-93.4-25.8-92.6-25.4z"/>
	</g>
	<g>
		<path class="st12" d="M-93.8-29.2c-0.2,0.6-0.1,1.1,0.2,1.6l0,0c0.3,0.6,0.3,1.4-1.1,1.2c-0.8-0.1-1-0.7-0.7-1.5
			C-94.7-28-94.3-28.6-93.8-29.2z"/>
		<path class="st13" d="M-90.8-26.5c-3.4,4-5.8,2.9-7.7-1.9c1,0.4,2,0.6,3,0.5c-0.2,0.8-0.1,1.4,0.7,1.5c1.4,0.2,1.4-0.6,1.1-1.2
			c0,0,0.1,0.1,0.1,0.1C-92.6-26.8-91.7-26.5-90.8-26.5z"/>
	</g>
	<g>
		<path class="st12" d="M-93.8-29.2c0.1,0.6,0.5,1,1,1.3l0,0c0.5,0.4,1,1-0.4,1.6c-0.8,0.3-1.2-0.1-1.4-0.9
			C-94-27.7-93.9-28.4-93.8-29.2z"/>
		<path class="st13" d="M-89.9-28.4c-0.9,5.1-3.6,5.5-7.6,2.1c1.1-0.1,2.1-0.5,2.8-1c0.2,0.8,0.6,1.3,1.4,0.9
			c1.3-0.6,0.9-1.2,0.4-1.6c0,0,0.1,0,0.1,0.1C-91.6-27.7-90.6-27.9-89.9-28.4z"/>
	</g>
	<g>
		<path class="st12" d="M-93.8-29.2c0.4,0.5,0.9,0.7,1.5,0.6l0,0c0.7,0.1,1.4,0.4,0.5,1.6c-0.5,0.6-1.1,0.5-1.7-0.1
			C-93.2-27.8-93.5-28.5-93.8-29.2z"/>
		<path class="st13" d="M-90-30.5c1.8,4.9-0.4,6.5-5.5,5.6c0.9-0.7,1.6-1.5,2-2.3c0.6,0.6,1.2,0.8,1.7,0.1c0.9-1.2,0.2-1.5-0.5-1.6
			c0.1,0,0.1,0,0.1,0C-91.1-29-90.4-29.7-90-30.5z"/>
	</g>
	<g>
		<path class="st12" d="M-93.8-29.2c0.6,0.2,1.1,0.1,1.6-0.2l0,0c0.6-0.3,1.4-0.3,1.2,1.1c-0.1,0.8-0.7,1-1.5,0.7
			C-92.6-28.3-93.2-28.8-93.8-29.2z"/>
		<path class="st13" d="M-91.1-32.2c4,3.4,2.9,5.8-1.9,7.7c0.4-1,0.6-2,0.5-3c0.8,0.2,1.4,0.1,1.5-0.7c0.2-1.4-0.6-1.4-1.2-1.1
			c0,0,0.1-0.1,0.1-0.1C-91.4-30.4-91.1-31.3-91.1-32.2z"/>
	</g>
	<g>
		<path class="st12" d="M-93.8-29.2c0.6-0.1,1-0.5,1.3-1l0,0c0.4-0.5,1-1,1.6,0.4c0.3,0.8-0.1,1.2-0.9,1.4
			C-92.3-29-93-29.2-93.8-29.2z"/>
		<path class="st13" d="M-93-33.2c5.1,0.9,5.5,3.6,2.1,7.6c-0.1-1.1-0.5-2.1-1-2.8c0.8-0.2,1.3-0.6,0.9-1.4
			c-0.6-1.3-1.2-0.9-1.6-0.4c0,0,0-0.1,0.1-0.1C-92.3-31.5-92.5-32.4-93-33.2z"/>
	</g>
	<g>
		<path class="st12" d="M-93.8-29.2c0.5-0.4,0.7-0.9,0.6-1.5l0,0c0.1-0.7,0.4-1.4,1.6-0.5c0.6,0.5,0.5,1.1-0.1,1.7
			C-92.4-29.8-93.1-29.6-93.8-29.2z"/>
		<path class="st13" d="M-95-33.1c4.9-1.8,6.5,0.4,5.6,5.5c-0.7-0.9-1.5-1.6-2.3-2c0.6-0.6,0.8-1.2,0.1-1.7
			c-1.2-0.9-1.5-0.2-1.6,0.5c0-0.1,0-0.1,0-0.1C-93.6-31.9-94.2-32.7-95-33.1z"/>
	</g>
	<g>
		<path class="st12" d="M-93.8-29.2c0.2-0.6,0.1-1.1-0.2-1.6l0,0c-0.3-0.6-0.3-1.4,1.1-1.2c0.8,0.1,1,0.7,0.7,1.5
			C-92.9-30.5-93.4-29.9-93.8-29.2z"/>
		<path class="st13" d="M-96.8-32c3.4-4,5.8-2.9,7.7,1.9c-1-0.4-2-0.6-3-0.5c0.2-0.8,0.1-1.4-0.7-1.5c-1.4-0.2-1.4,0.6-1.1,1.2
			c0,0-0.1-0.1-0.1-0.1C-95-31.6-95.9-32-96.8-32z"/>
	</g>
	<g>
		<path class="st12" d="M-93.8-29.2c-0.1-0.6-0.5-1-1-1.3l0,0c-0.5-0.4-1-1,0.4-1.6c0.8-0.3,1.2,0.1,1.4,0.9
			C-93.6-30.8-93.8-30-93.8-29.2z"/>
		<path class="st13" d="M-97.8-30.1c0.9-5.1,3.6-5.5,7.6-2.1c-1.1,0.1-2.1,0.5-2.8,1c-0.2-0.8-0.6-1.3-1.4-0.9
			c-1.3,0.6-0.9,1.2-0.4,1.6c0,0-0.1,0-0.1-0.1C-96-30.7-97-30.6-97.8-30.1z"/>
	</g>
	<g>
		<path class="st12" d="M-93.8-29.2c-0.4-0.5-0.9-0.7-1.5-0.6l0,0c-0.7-0.1-1.4-0.4-0.5-1.6c0.5-0.6,1.1-0.5,1.7,0.1
			C-94.4-30.7-94.2-29.9-93.8-29.2z"/>
		<path class="st13" d="M-97.7-28c-1.8-4.9,0.4-6.5,5.5-5.6c-0.9,0.7-1.6,1.5-2,2.3c-0.6-0.6-1.2-0.8-1.7-0.1
			c-0.9,1.2-0.2,1.5,0.5,1.6c-0.1,0-0.1,0-0.1,0C-96.5-29.4-97.2-28.8-97.7-28z"/>
	</g>
	<g>
		<path class="st12" d="M-93.8-29.2c-0.6-0.2-1.1-0.1-1.6,0.2l0,0c-0.6,0.3-1.4,0.3-1.2-1.1c0.1-0.8,0.7-1,1.5-0.7
			C-95-30.2-94.5-29.7-93.8-29.2z"/>
		<path class="st13" d="M-96.5-26.2c-4-3.4-2.9-5.8,1.9-7.7c-0.4,1-0.6,2-0.5,3c-0.8-0.2-1.4-0.1-1.5,0.7c-0.2,1.4,0.6,1.4,1.2,1.1
			c0,0-0.1,0.1-0.1,0.1C-96.2-28.1-96.6-27.1-96.5-26.2z"/>
	</g>
	<g>
		<path class="st12" d="M-96.2-30c-0.6-0.2-1.1-0.1-1.6,0.2l0,0c-0.6,0.3-1.4,0.3-1.2-1.1c0.1-0.8,0.7-1,1.5-0.7
			C-97.4-31-96.8-30.5-96.2-30z"/>
		<path class="st13" d="M-98.9-27.1c-4-3.4-2.9-5.8,1.9-7.7c-0.4,1-0.6,2-0.5,3c-0.8-0.2-1.4-0.1-1.5,0.7c-0.2,1.4,0.6,1.4,1.2,1.1
			c0,0-0.1,0.1-0.1,0.1C-98.6-28.9-98.9-28-98.9-27.1z"/>
	</g>
	<g>
		<path class="st12" d="M-95.7-27.6c-0.5,0.4-0.7,0.9-0.6,1.5l0,0c-0.1,0.7-0.4,1.4-1.6,0.5c-0.6-0.5-0.5-1.1,0.1-1.7
			C-97.1-27-96.4-27.3-95.7-27.6z"/>
		<path class="st13" d="M-94.5-23.8c-4.9,1.8-6.5-0.4-5.6-5.5c0.7,0.9,1.5,1.6,2.3,2c-0.6,0.6-0.8,1.2-0.1,1.7
			c1.2,0.9,1.5,0.2,1.6-0.5c0,0.1,0,0.1,0,0.1C-95.9-24.9-95.3-24.2-94.5-23.8z"/>
	</g>
	<g>
		<path class="st12" d="M-93.4-26.8c0.1,0.6,0.5,1,1,1.3l0,0c0.5,0.4,1,1-0.4,1.6c-0.8,0.3-1.2-0.1-1.4-0.9
			C-93.5-25.3-93.4-26-93.4-26.8z"/>
		<path class="st13" d="M-89.4-25.9c-0.9,5.1-3.6,5.5-7.6,2.1c1.1-0.1,2.1-0.5,2.8-1c0.2,0.8,0.6,1.3,1.4,0.9
			c1.3-0.6,0.9-1.2,0.4-1.6c0,0,0.1,0,0.1,0.1C-91.1-25.3-90.2-25.4-89.4-25.9z"/>
	</g>
	<g>
		<path class="st12" d="M-91.5-28.4c0.6,0.2,1.1,0.1,1.6-0.2l0,0c0.6-0.3,1.4-0.3,1.2,1.1c-0.1,0.8-0.7,1-1.5,0.7
			C-90.2-27.5-90.8-28-91.5-28.4z"/>
		<path class="st13" d="M-88.7-31.4c4,3.4,2.9,5.8-1.9,7.7c0.4-1,0.6-2,0.5-3c0.8,0.2,1.4,0.1,1.5-0.7c0.2-1.4-0.6-1.4-1.2-1.1
			c0,0,0.1-0.1,0.1-0.1C-89.1-29.6-88.7-30.5-88.7-31.4z"/>
	</g>
	<g>
		<path class="st12" d="M-91.9-30.8c0.5-0.4,0.7-0.9,0.6-1.5l0,0c0.1-0.7,0.4-1.4,1.6-0.5c0.6,0.5,0.5,1.1-0.1,1.7
			C-90.5-31.5-91.2-31.2-91.9-30.8z"/>
		<path class="st13" d="M-93.2-34.7c4.9-1.8,6.5,0.4,5.6,5.5c-0.7-0.9-1.5-1.6-2.3-2c0.6-0.6,0.8-1.2,0.1-1.7
			c-1.2-0.9-1.5-0.2-1.6,0.5c0-0.1,0-0.1,0-0.1C-91.7-33.5-92.4-34.3-93.2-34.7z"/>
	</g>
	<g>
		<path class="st12" d="M-94.3-31.7c-0.1-0.6-0.5-1-1-1.3l0,0c-0.5-0.4-1-1,0.4-1.6c0.8-0.3,1.2,0.1,1.4,0.9
			C-94.1-33.2-94.2-32.5-94.3-31.7z"/>
		<path class="st13" d="M-98.2-32.5c0.9-5.1,3.6-5.5,7.6-2.1c-1.1,0.1-2.1,0.5-2.8,1c-0.2-0.8-0.6-1.3-1.4-0.9
			c-1.3,0.6-0.9,1.2-0.4,1.6c0,0-0.1,0-0.1-0.1C-96.5-33.2-97.5-33-98.2-32.5z"/>
	</g>
</g>
<g>
	<path class="st14" d="M26.5,70.1c0,0.2-0.2,0.4-0.4,0.4c-0.2,0-0.4-0.2-0.4-0.4c0-0.2,0.2-0.4,0.4-0.4
		C26.4,69.7,26.5,69.9,26.5,70.1z"/>
	<path class="st14" d="M26.1,69.3c0-0.2,0.2-0.4,0.4-0.4c0,0,0.1,0,0.1,0c0,0,0-0.1,0-0.1c0-0.2,0.2-0.4,0.4-0.4s0.4,0.2,0.4,0.4
		c0,0.2-0.2,0.4-0.4,0.4c0,0-0.1,0-0.1,0c0,0,0,0.1,0,0.1c0,0.2-0.2,0.4-0.4,0.4C26.2,69.7,26.1,69.5,26.1,69.3z"/>
	<path class="st14" d="M27,70.2c-0.2,0-0.4-0.2-0.4-0.4c0-0.2,0.2-0.4,0.4-0.4s0.4,0.2,0.4,0.4C27.3,70,27.2,70.2,27,70.2z"/>
	<path class="st14" d="M27.6,70.7c0,0.2-0.2,0.4-0.4,0.4c-0.2,0-0.4-0.2-0.4-0.4c0-0.2,0.2-0.4,0.4-0.4
		C27.4,70.3,27.6,70.5,27.6,70.7z"/>
	<path class="st14" d="M27.2,68.4c0-0.2,0.2-0.4,0.4-0.4c0.2,0,0.4,0.2,0.4,0.4c0,0.2-0.2,0.4-0.4,0.4
		C27.4,68.8,27.2,68.6,27.2,68.4z"/>
	<path class="st14" d="M27.9,69.8c-0.2,0-0.4-0.2-0.4-0.4c0-0.2,0.2-0.4,0.4-0.4s0.4,0.2,0.4,0.4C28.2,69.6,28.1,69.8,27.9,69.8z"/>
	<path class="st14" d="M28.5,70.3c0,0.2-0.2,0.4-0.4,0.4c-0.2,0-0.4-0.2-0.4-0.4c0-0.2,0.2-0.4,0.4-0.4C28.3,70,28.5,70.1,28.5,70.3
		z"/>
	<path class="st14" d="M28.1,68.1c0-0.2,0.2-0.4,0.4-0.4s0.4,0.2,0.4,0.4c0,0.2-0.2,0.4-0.4,0.4C28.2,68.4,28.1,68.3,28.1,68.1z"/>
	<path class="st14" d="M28.1,67.2c0-0.2,0.2-0.4,0.4-0.4s0.4,0.2,0.4,0.4c0,0.2-0.2,0.4-0.4,0.4C28.2,67.6,28.1,67.4,28.1,67.2z"/>
	<path class="st14" d="M29,68.7c0.1,0.1,0.1,0.4-0.1,0.5c-0.1,0.1-0.4,0.1-0.5-0.1s-0.1-0.4,0.1-0.5C28.6,68.5,28.8,68.6,29,68.7z"
		/>
	<path class="st14" d="M28.6,66.7c0-0.2,0.2-0.4,0.4-0.4s0.4,0.2,0.4,0.4c0,0.2-0.2,0.4-0.4,0.4S28.6,66.9,28.6,66.7z"/>
	<path class="st14" d="M29.2,68.1c-0.2-0.1-0.3-0.3-0.2-0.5c0.1-0.2,0.3-0.3,0.5-0.2c0.2,0.1,0.3,0.3,0.2,0.5
		C29.6,68.2,29.3,68.3,29.2,68.1z"/>
	<path class="st14" d="M29.4,65.7c0-0.2,0.2-0.4,0.4-0.4c0.2,0,0.4,0.2,0.4,0.4c0,0.2-0.2,0.4-0.4,0.4C29.5,66,29.4,65.9,29.4,65.7z
		"/>
	<path class="st14" d="M29.9,66.2c0.2,0,0.4,0.2,0.4,0.4s-0.2,0.4-0.4,0.4c-0.2,0-0.4-0.2-0.4-0.4C29.6,66.4,29.7,66.2,29.9,66.2z"
		/>
	<path class="st14" d="M30,68.5c0.1,0.1,0.1,0.4-0.1,0.5c-0.1,0.1-0.4,0.1-0.5-0.1s-0.1-0.4,0.1-0.5C29.6,68.3,29.9,68.3,30,68.5z"
		/>
	<path class="st14" d="M30.4,67.7c-0.1,0.2-0.3,0.3-0.5,0.2c-0.2-0.1-0.3-0.3-0.2-0.5s0.3-0.3,0.5-0.2
		C30.4,67.3,30.5,67.5,30.4,67.7z"/>
	<path class="st14" d="M30.2,65.5c-0.1-0.2-0.1-0.4,0.1-0.5c0.2-0.1,0.4-0.1,0.5,0.1c0.1,0.2,0.1,0.4-0.1,0.5
		C30.6,65.7,30.4,65.7,30.2,65.5z"/>
	<path class="st14" d="M30.5,66.6c-0.2-0.1-0.3-0.3-0.2-0.5s0.3-0.3,0.5-0.2c0.2,0.1,0.3,0.3,0.2,0.5C30.9,66.7,30.7,66.7,30.5,66.6
		z"/>
	<path class="st14" d="M31.5,67.4c-0.1,0.2-0.3,0.3-0.5,0.2c-0.2-0.1-0.3-0.3-0.2-0.5c0.1-0.2,0.3-0.3,0.5-0.2
		C31.5,67,31.6,67.2,31.5,67.4z"/>
	<path class="st14" d="M31.1,64.1c-0.1-0.2-0.1-0.4,0.1-0.5c0.2-0.1,0.4-0.1,0.5,0.1c0.1,0.2,0.1,0.4-0.1,0.5
		C31.4,64.3,31.2,64.2,31.1,64.1z"/>
	<path class="st14" d="M31.2,65c-0.1-0.2-0.1-0.4,0.1-0.5c0.2-0.1,0.4-0.1,0.5,0.1c0.1,0.2,0.1,0.4-0.1,0.5
		C31.5,65.2,31.3,65.1,31.2,65z"/>
	<path class="st14" d="M31.9,65.8c0,0.2-0.2,0.3-0.4,0.3c-0.2,0-0.3-0.2-0.3-0.4c0-0.2,0.2-0.3,0.4-0.3
		C31.8,65.4,31.9,65.6,31.9,65.8z"/>
	<path class="st14" d="M32.2,66.7c-0.1,0.2-0.3,0.3-0.5,0.2c-0.2-0.1-0.3-0.3-0.2-0.5c0.1-0.2,0.3-0.3,0.5-0.2
		C32.2,66.3,32.3,66.5,32.2,66.7z"/>
	<path class="st14" d="M31.8,63.4c-0.1-0.2-0.1-0.4,0.1-0.5c0.2-0.1,0.4-0.1,0.5,0.1c0.1,0.2,0.1,0.4-0.1,0.5
		C32.1,63.6,31.9,63.5,31.8,63.4z"/>
	<path class="st14" d="M32.3,63.9c0.2,0,0.3,0.2,0.3,0.4c0,0.2-0.2,0.3-0.4,0.3c-0.2,0-0.3-0.2-0.3-0.4S32.1,63.9,32.3,63.9z"/>
	<path class="st14" d="M32.9,65.3c0,0.2-0.2,0.3-0.4,0.3c-0.2,0-0.3-0.2-0.3-0.4c0-0.2,0.2-0.3,0.4-0.3C32.8,65,32.9,65.2,32.9,65.3
		z"/>
	<path class="st14" d="M32.6,63.4c-0.1-0.1-0.1-0.4,0-0.5c0.1-0.1,0.4-0.1,0.5,0c0.1,0.1,0.1,0.4,0,0.5
		C32.9,63.6,32.7,63.6,32.6,63.4z"/>
	<path class="st14" d="M32.9,64.2c-0.1-0.1-0.1-0.4,0-0.5c0.1-0.1,0.4-0.1,0.5,0c0.1,0.1,0.1,0.4,0,0.5C33.2,64.4,33,64.4,32.9,64.2
		z"/>
	<path class="st14" d="M33.6,64.6c0.1,0.1,0.1,0.4,0,0.5s-0.4,0.1-0.5,0c-0.1-0.1-0.1-0.4,0-0.5C33.2,64.4,33.5,64.5,33.6,64.6z"/>
	<path class="st14" d="M33.1,61.9c-0.1-0.2-0.1-0.4,0.1-0.5c0.2-0.1,0.4-0.1,0.5,0.1c0.1,0.2,0.1,0.4-0.1,0.5
		C33.5,62.2,33.3,62.1,33.1,61.9z"/>
	<path class="st14" d="M34,62.6c0.1,0.2,0,0.4-0.2,0.5c-0.2,0.1-0.4,0-0.5-0.2c-0.1-0.2,0-0.4,0.2-0.5C33.7,62.4,33.9,62.4,34,62.6z
		"/>
	<path class="st14" d="M34.3,63.4c0.1,0.2,0,0.4-0.2,0.5c-0.2,0.1-0.4,0-0.5-0.2c-0.1-0.2,0-0.4,0.2-0.5
		C34,63.2,34.2,63.3,34.3,63.4z"/>
	<path class="st14" d="M33.9,61c-0.1-0.2-0.1-0.4,0.1-0.5c0.2-0.1,0.4-0.1,0.5,0.1c0.1,0.2,0.1,0.4-0.1,0.5c0,0-0.1,0-0.1,0
		c0.1,0,0.3,0.1,0.3,0.2c0.1,0.2,0,0.4-0.2,0.5c-0.2,0.1-0.4,0-0.5-0.2c-0.1-0.2,0-0.4,0.2-0.5c0,0,0,0,0,0C34.1,61.1,34,61,33.9,61
		z"/>
	<path class="st14" d="M34.9,62.3c0.1,0.2,0,0.4-0.2,0.5c-0.2,0.1-0.4,0-0.5-0.2c-0.1-0.2,0-0.4,0.2-0.5
		C34.6,62.1,34.8,62.2,34.9,62.3z"/>
	<path class="st14" d="M34.7,60.2c-0.1-0.2-0.1-0.4,0.1-0.5c0.2-0.1,0.4-0.1,0.5,0.1c0.1,0.2,0.1,0.4-0.1,0.5
		C35,60.4,34.8,60.3,34.7,60.2z"/>
	<path class="st14" d="M35.5,60.6c0.1,0.2,0,0.4-0.2,0.5c-0.2,0.1-0.4,0-0.5-0.2c-0.1-0.2,0-0.4,0.2-0.5
		C35.2,60.4,35.4,60.4,35.5,60.6z"/>
	<path class="st14" d="M35.7,61.4c0.1,0.2,0,0.4-0.2,0.5c-0.2,0.1-0.4,0-0.5-0.2c-0.1-0.2,0-0.4,0.2-0.5
		C35.4,61.1,35.6,61.2,35.7,61.4z"/>
	<path class="st14" d="M35.4,59.6c-0.1-0.2-0.1-0.4,0.1-0.5c0.2-0.1,0.4-0.1,0.5,0.1c0.1,0.2,0.1,0.4-0.1,0.5
		C35.7,59.8,35.5,59.7,35.4,59.6z"/>
	<path class="st14" d="M36.6,61.7c0.1,0.2,0,0.4-0.2,0.5c-0.2,0.1-0.4,0-0.5-0.2c-0.1-0.2,0-0.4,0.2-0.5
		C36.4,61.4,36.6,61.5,36.6,61.7z"/>
	<path class="st14" d="M36.6,60.6c0.1,0.2,0,0.4-0.2,0.5c-0.2,0.1-0.4,0-0.5-0.2c0-0.1,0-0.2,0-0.3c-0.1,0-0.3,0-0.4-0.2
		c-0.1-0.2,0-0.4,0.2-0.5c0.2-0.1,0.4,0,0.5,0.2c0,0.1,0,0.2,0,0.3C36.4,60.4,36.6,60.5,36.6,60.6z"/>
	<path class="st14" d="M36.2,58.5C36.3,58.5,36.3,58.5,36.2,58.5c0-0.1,0-0.1,0-0.1c-0.1-0.2-0.1-0.4,0.1-0.5
		c0.2-0.1,0.4-0.1,0.5,0.1c0.1,0.2,0.1,0.4-0.1,0.5c0,0,0,0,0,0c0,0,0,0,0.1,0.1c0.1,0.2,0.1,0.4-0.1,0.5c-0.2,0.1-0.4,0.1-0.5-0.1
		C36,58.9,36.1,58.6,36.2,58.5z"/>
	<path class="st14" d="M37.1,60.1c-0.2,0.1-0.4,0-0.5-0.2c-0.1-0.2,0-0.4,0.2-0.5c0.2-0.1,0.4,0,0.5,0.2
		C37.3,59.8,37.2,60,37.1,60.1z"/>
	<path class="st14" d="M37.8,60.1c0.1,0.2,0.1,0.4-0.1,0.5c-0.2,0.1-0.4,0.1-0.5-0.1c-0.1-0.2-0.1-0.4,0.1-0.5
		C37.5,59.9,37.7,60,37.8,60.1z"/>
	<path class="st14" d="M37.2,59c-0.1-0.2-0.1-0.4,0.1-0.5c0.2-0.1,0.4-0.1,0.5,0.1c0.1,0.2,0.1,0.4-0.1,0.5
		C37.5,59.2,37.3,59.2,37.2,59z"/>
	<path class="st14" d="M38.3,59.4c0.1,0.2,0.1,0.4-0.1,0.5c-0.2,0.1-0.4,0.1-0.5-0.1c-0.1-0.2-0.1-0.4,0.1-0.5
		C38,59.2,38.2,59.2,38.3,59.4z"/>
	<path class="st15" d="M42.9,50.9C18.1,40-6.8,76.3,25,71.8l1.5,1.4C29.7,98.8,57.8,71.1,42.9,50.9z M39,59.4l-1.7,1.9
		c0-0.1,0-0.1,0-0.2c-0.1-0.2-0.3-0.3-0.5-0.2c-0.2,0.1-0.3,0.3-0.2,0.5c0.1,0.1,0.2,0.2,0.4,0.2l-4.1,4.5c0,0,0,0,0-0.1
		c0-0.2-0.1-0.4-0.3-0.4c-0.2,0-0.4,0.1-0.4,0.3c0,0.2,0.1,0.4,0.3,0.4c0.1,0,0.1,0,0.1,0l-1.9,2.1c0.1-0.1,0.1-0.3,0-0.4
		c-0.1-0.1-0.3-0.2-0.5-0.1c-0.1,0.1-0.2,0.3-0.1,0.5c0.1,0.1,0.3,0.2,0.5,0.1c0,0,0,0,0,0L29.4,70c0.1-0.1,0.1-0.3,0-0.4
		c-0.1-0.2-0.3-0.2-0.5-0.1s-0.2,0.3-0.1,0.5c0.1,0.2,0.3,0.2,0.5,0.1l-0.9,1c-0.3,0.3-0.7,0.5-1.1,0.5c-0.3,0-0.6-0.1-0.9-0.3
		c0,0,0,0,0,0c0.2,0,0.4-0.2,0.4-0.4c0-0.2-0.2-0.4-0.4-0.4S26,70.8,26,71c0,0,0,0,0,0.1c-0.5-0.6-0.5-1.4,0-2l4.4-4.8
		c-0.1,0.1,0,0.3,0,0.4c0.1,0.2,0.3,0.2,0.5,0.1c0.2-0.1,0.2-0.3,0.1-0.5c-0.1-0.1-0.3-0.2-0.5-0.1l1.8-2c0,0.1,0,0.2,0.1,0.3
		c0.1,0.2,0.3,0.2,0.5,0.1c0.2-0.1,0.2-0.3,0.1-0.5c-0.1-0.1-0.2-0.2-0.4-0.1l4.1-4.5c0.6-0.6,1.5-0.7,2.2-0.1
		C39.6,57.8,39.6,58.7,39,59.4z"/>
	<path class="st16" d="M26.4,73.2c-5.7,6-10.2,12.2-11.9,19l-1.4-0.9c2.3-5.8,6.7-12.5,11.9-19.6L26.4,73.2z"/>
	<path class="st17" d="M25.7,51.3c-8.7,5.9-10,11.9-1.9,17.9"/>
	<path class="st17" d="M33.1,50c-8.8,3.9-12.9,12.4-9,18.7"/>
	<path class="st17" d="M34.3,52.5c-6.2,4.5-9.3,9.8-7.8,15.3"/>
	<path class="st17" d="M42.9,56.8c-1,5.6-3.4,10.7-11.2,13.6"/>
	<path class="st17" d="M45.7,62.3c0,2.6-7,10.7-14,9.9"/>
	<path class="st17" d="M46.1,68.1c-3,5.1-7.4,8-14.6,6.2"/>
	<path class="st17" d="M29.4,76.9c1.7,3,5.5,3.6,11.7,1.7"/>
	<path class="st17" d="M15.3,58c-3.8,6.2-2,10.5,6.8,12.4"/>
	<path class="st18" d="M38.9,57.2c-0.6-0.6-1.6-0.5-2.2,0.1l-4.1,4.5c0.1,0,0.3,0,0.4,0.1c0.1,0.2,0.1,0.4-0.1,0.5
		c-0.2,0.1-0.4,0.1-0.5-0.1c-0.1-0.1-0.1-0.2-0.1-0.3l-1.8,2c0.2-0.1,0.4,0,0.5,0.1c0.1,0.2,0.1,0.4-0.1,0.5
		c-0.2,0.1-0.4,0.1-0.5-0.1c-0.1-0.1-0.1-0.3,0-0.4l-4.4,4.8c-0.5,0.6-0.5,1.4,0,2c0,0,0,0,0-0.1c0-0.2,0.2-0.4,0.4-0.4
		c0.2,0,0.4,0.2,0.4,0.4s-0.2,0.4-0.4,0.4c0,0,0,0,0,0c0.3,0.2,0.6,0.3,0.9,0.3c0.4,0,0.8-0.2,1.1-0.5l0.9-1
		c-0.1,0.1-0.4,0.1-0.5-0.1s-0.1-0.4,0.1-0.5c0.1-0.1,0.4-0.1,0.5,0.1c0.1,0.1,0.1,0.3,0,0.4l1.4-1.5c0,0,0,0,0,0
		c-0.1,0.1-0.4,0.1-0.5-0.1c-0.1-0.2-0.1-0.4,0.1-0.5c0.2-0.1,0.4-0.1,0.5,0.1c0.1,0.1,0.1,0.3,0,0.4l1.9-2.1c0,0-0.1,0-0.1,0
		c-0.2,0-0.3-0.2-0.3-0.4c0-0.2,0.2-0.3,0.4-0.3c0.2,0,0.3,0.2,0.3,0.4c0,0,0,0,0,0.1l4.1-4.5c-0.1,0-0.3-0.1-0.4-0.2
		c-0.1-0.2,0-0.4,0.2-0.5c0.2-0.1,0.4,0,0.5,0.2c0,0.1,0,0.1,0,0.2l1.7-1.9C39.6,58.7,39.6,57.8,38.9,57.2z M37.3,58.5
		c0.2-0.1,0.4-0.1,0.5,0.1c0.1,0.2,0.1,0.4-0.1,0.5c-0.2,0.1-0.4,0.1-0.5-0.1C37.1,58.9,37.1,58.6,37.3,58.5z M36.2,58.4
		c-0.1-0.2-0.1-0.4,0.1-0.5c0.2-0.1,0.4-0.1,0.5,0.1c0.1,0.2,0.1,0.4-0.1,0.5c0,0,0,0,0,0c0,0,0,0,0.1,0.1c0.1,0.2,0.1,0.4-0.1,0.5
		c-0.2,0.1-0.4,0.1-0.5-0.1c-0.1-0.2-0.1-0.4,0.1-0.5C36.3,58.5,36.3,58.5,36.2,58.4C36.3,58.5,36.2,58.5,36.2,58.4z M35.5,59.1
		c0.2-0.1,0.4-0.1,0.5,0.1c0.1,0.2,0.1,0.4-0.1,0.5c-0.2,0.1-0.4,0.1-0.5-0.1C35.3,59.4,35.3,59.2,35.5,59.1z M35.3,61.1
		c-0.2,0.1-0.4,0-0.5-0.2c-0.1-0.2,0-0.4,0.2-0.5c0.2-0.1,0.4,0,0.5,0.2C35.5,60.8,35.5,61,35.3,61.1z M34.7,59.7
		c0.2-0.1,0.4-0.1,0.5,0.1c0.1,0.2,0.1,0.4-0.1,0.5c-0.2,0.1-0.4,0.1-0.5-0.1C34.6,60,34.6,59.8,34.7,59.7z M34,60.5
		c0.2-0.1,0.4-0.1,0.5,0.1c0.1,0.2,0.1,0.4-0.1,0.5c0,0-0.1,0-0.1,0c0.1,0,0.3,0.1,0.3,0.2c0.1,0.2,0,0.4-0.2,0.5
		c-0.2,0.1-0.4,0-0.5-0.2c-0.1-0.2,0-0.4,0.2-0.5c0,0,0,0,0,0c-0.1,0-0.2,0-0.3-0.1C33.8,60.8,33.8,60.6,34,60.5z M33.8,63.1
		c-0.2,0.1-0.4,0-0.5-0.2c-0.1-0.2,0-0.4,0.2-0.5c0.2-0.1,0.4,0,0.5,0.2C34.1,62.8,34,63,33.8,63.1z M33.2,61.4
		c0.2-0.1,0.4-0.1,0.5,0.1c0.1,0.2,0.1,0.4-0.1,0.5c-0.2,0.1-0.4,0.1-0.5-0.1C33,61.8,33.1,61.6,33.2,61.4z M32.6,62.9
		c0.1-0.1,0.4-0.1,0.5,0c0.1,0.1,0.1,0.4,0,0.5c-0.1,0.1-0.4,0.1-0.5,0C32.5,63.3,32.5,63,32.6,62.9z M32.6,64.3
		c0,0.2-0.2,0.3-0.4,0.3c-0.2,0-0.3-0.2-0.3-0.4c0-0.2,0.2-0.3,0.4-0.3C32.5,63.9,32.7,64.1,32.6,64.3z M31.9,62.9
		c0.2-0.1,0.4-0.1,0.5,0.1c0.1,0.2,0.1,0.4-0.1,0.5c-0.2,0.1-0.4,0.1-0.5-0.1C31.7,63.2,31.7,63,31.9,62.9z M31.1,64.1
		c-0.1-0.2-0.1-0.4,0.1-0.5c0.2-0.1,0.4-0.1,0.5,0.1c0.1,0.2,0.1,0.4-0.1,0.5C31.4,64.3,31.2,64.2,31.1,64.1z M31.3,64.5
		c0.2-0.1,0.4-0.1,0.5,0.1c0.1,0.2,0.1,0.4-0.1,0.5c-0.2,0.1-0.4,0.1-0.5-0.1C31.1,64.8,31.1,64.6,31.3,64.5z M31.9,65.8
		c0,0.2-0.2,0.3-0.4,0.3c-0.2,0-0.3-0.2-0.3-0.4c0-0.2,0.2-0.3,0.4-0.3C31.8,65.4,31.9,65.6,31.9,65.8z M30.3,65
		c0.2-0.1,0.4-0.1,0.5,0.1c0.1,0.2,0.1,0.4-0.1,0.5c-0.2,0.1-0.4,0.1-0.5-0.1C30.1,65.3,30.2,65.1,30.3,65z M30.3,66.5
		c0,0.2-0.2,0.4-0.4,0.4c-0.2,0-0.4-0.2-0.4-0.4c0-0.2,0.2-0.4,0.4-0.4C30.1,66.2,30.3,66.4,30.3,66.5z M29.7,65.3
		c0.2,0,0.4,0.2,0.4,0.4c0,0.2-0.2,0.4-0.4,0.4s-0.4-0.2-0.4-0.4S29.5,65.3,29.7,65.3z M29,66.4c0.2,0,0.4,0.2,0.4,0.4
		c0,0.2-0.2,0.4-0.4,0.4s-0.4-0.2-0.4-0.4C28.6,66.5,28.8,66.4,29,66.4z M28.4,66.9c0.2,0,0.4,0.2,0.4,0.4c0,0.2-0.2,0.4-0.4,0.4
		s-0.4-0.2-0.4-0.4C28.1,67,28.2,66.9,28.4,66.9z M28.4,67.7c0.2,0,0.4,0.2,0.4,0.4c0,0.2-0.2,0.4-0.4,0.4s-0.4-0.2-0.4-0.4
		C28.1,67.9,28.2,67.7,28.4,67.7z M27.6,68.1c0.2,0,0.4,0.2,0.4,0.4s-0.2,0.4-0.4,0.4c-0.2,0-0.4-0.2-0.4-0.4
		C27.2,68.2,27.4,68.1,27.6,68.1z M26.4,68.9c0,0,0.1,0,0.1,0c0,0,0-0.1,0-0.1c0-0.2,0.2-0.4,0.4-0.4s0.4,0.2,0.4,0.4
		c0,0.2-0.2,0.4-0.4,0.4c0,0-0.1,0-0.1,0c0,0,0,0.1,0,0.1c0,0.2-0.2,0.4-0.4,0.4s-0.4-0.2-0.4-0.4C26.1,69.1,26.2,68.9,26.4,68.9z
		 M26.2,70.5c-0.2,0-0.4-0.2-0.4-0.4c0-0.2,0.2-0.4,0.4-0.4c0.2,0,0.4,0.2,0.4,0.4C26.5,70.3,26.4,70.5,26.2,70.5z M26.6,69.8
		c0-0.2,0.2-0.4,0.4-0.4s0.4,0.2,0.4,0.4c0,0.2-0.2,0.4-0.4,0.4C26.8,70.2,26.6,70,26.6,69.8z M27.2,71c-0.2,0-0.4-0.2-0.4-0.4
		c0-0.2,0.2-0.4,0.4-0.4c0.2,0,0.4,0.2,0.4,0.4C27.6,70.9,27.4,71,27.2,71z M27.5,69.4c0-0.2,0.2-0.4,0.4-0.4s0.4,0.2,0.4,0.4
		c0,0.2-0.2,0.4-0.4,0.4S27.5,69.6,27.5,69.4z M28.1,70.7c-0.2,0-0.4-0.2-0.4-0.4c0-0.2,0.2-0.4,0.4-0.4c0.2,0,0.4,0.2,0.4,0.4
		S28.3,70.7,28.1,70.7z M28.9,69.2c-0.1,0.1-0.4,0.1-0.5-0.1s-0.1-0.4,0.1-0.5c0.1-0.1,0.4-0.1,0.5,0.1
		C29.1,68.9,29.1,69.1,28.9,69.2z M29.2,68.1c-0.2-0.1-0.3-0.3-0.2-0.5c0.1-0.2,0.3-0.3,0.5-0.2c0.2,0.1,0.3,0.3,0.2,0.5
		C29.6,68.2,29.3,68.3,29.2,68.1z M29.9,69c-0.1,0.1-0.4,0.1-0.5-0.1s-0.1-0.4,0.1-0.5c0.1-0.1,0.4-0.1,0.5,0.1
		C30.1,68.6,30.1,68.8,29.9,69z M30.4,67.7c-0.1,0.2-0.3,0.3-0.5,0.2c-0.2-0.1-0.3-0.3-0.2-0.5s0.3-0.3,0.5-0.2
		C30.4,67.3,30.5,67.5,30.4,67.7z M30.5,66.6c-0.2-0.1-0.3-0.3-0.2-0.5s0.3-0.3,0.5-0.2c0.2,0.1,0.3,0.3,0.2,0.5
		C30.9,66.7,30.7,66.7,30.5,66.6z M31.5,67.4c-0.1,0.2-0.3,0.3-0.5,0.2c-0.2-0.1-0.3-0.3-0.2-0.5c0.1-0.2,0.3-0.3,0.5-0.2
		C31.5,67,31.6,67.2,31.5,67.4z M32.2,66.7c-0.1,0.2-0.3,0.3-0.5,0.2c-0.2-0.1-0.3-0.3-0.2-0.5c0.1-0.2,0.3-0.3,0.5-0.2
		C32.2,66.3,32.3,66.5,32.2,66.7z M32.5,65.7c-0.2,0-0.3-0.2-0.3-0.4c0-0.2,0.2-0.3,0.4-0.3c0.2,0,0.3,0.2,0.3,0.4
		C32.9,65.6,32.7,65.7,32.5,65.7z M32.9,64.2c-0.1-0.1-0.1-0.4,0-0.5c0.1-0.1,0.4-0.1,0.5,0c0.1,0.1,0.1,0.4,0,0.5
		C33.2,64.4,33,64.4,32.9,64.2z M33.6,65.1c-0.1,0.1-0.4,0.1-0.5,0c-0.1-0.1-0.1-0.4,0-0.5s0.4-0.1,0.5,0
		C33.7,64.8,33.7,65,33.6,65.1z M34.1,63.9c-0.2,0.1-0.4,0-0.5-0.2c-0.1-0.2,0-0.4,0.2-0.5c0.2-0.1,0.4,0,0.5,0.2
		C34.4,63.6,34.3,63.8,34.1,63.9z M34.8,62.8c-0.2,0.1-0.4,0-0.5-0.2c-0.1-0.2,0-0.4,0.2-0.5c0.2-0.1,0.4,0,0.5,0.2
		C35,62.5,34.9,62.7,34.8,62.8z M35.5,61.9c-0.2,0.1-0.4,0-0.5-0.2c-0.1-0.2,0-0.4,0.2-0.5c0.2-0.1,0.4,0,0.5,0.2
		C35.8,61.6,35.7,61.8,35.5,61.9z M36.6,61.7c0.1,0.2,0,0.4-0.2,0.5c-0.2,0.1-0.4,0-0.5-0.2c-0.1-0.2,0-0.4,0.2-0.5
		C36.4,61.4,36.6,61.5,36.6,61.7z M36.5,61.1c-0.2,0.1-0.4,0-0.5-0.2c0-0.1,0-0.2,0-0.3c-0.1,0-0.3,0-0.4-0.2
		c-0.1-0.2,0-0.4,0.2-0.5c0.2-0.1,0.4,0,0.5,0.2c0,0.1,0,0.2,0,0.3c0.1,0,0.3,0.1,0.4,0.2C36.7,60.8,36.6,61,36.5,61.1z M36.6,59.9
		c-0.1-0.2,0-0.4,0.2-0.5c0.2-0.1,0.4,0,0.5,0.2c0.1,0.2,0,0.4-0.2,0.5C36.9,60.2,36.7,60.1,36.6,59.9z M37.7,60.6
		c-0.2,0.1-0.4,0.1-0.5-0.1c-0.1-0.2-0.1-0.4,0.1-0.5c0.2-0.1,0.4-0.1,0.5,0.1C37.9,60.3,37.9,60.5,37.7,60.6z M38.2,59.9
		c-0.2,0.1-0.4,0.1-0.5-0.1c-0.1-0.2-0.1-0.4,0.1-0.5c0.2-0.1,0.4-0.1,0.5,0.1C38.4,59.5,38.4,59.7,38.2,59.9z"/>
	<path class="st11" d="M26.2,70.5c-0.2,0-0.4-0.2-0.4-0.4c0-0.2,0.2-0.4,0.4-0.4c0.2,0,0.4,0.2,0.4,0.4
		C26.5,70.3,26.4,70.5,26.2,70.5z"/>
	<path class="st11" d="M26.8,71c0,0.2-0.2,0.4-0.4,0.4c0,0,0,0,0,0c-0.1,0-0.1-0.1-0.2-0.1c0,0-0.1-0.1-0.1-0.1c0,0,0,0,0-0.1
		c0-0.2,0.2-0.4,0.4-0.4C26.6,70.7,26.8,70.8,26.8,71z"/>
	<path class="st11" d="M26.1,69.3c0-0.2,0.2-0.4,0.4-0.4c0,0,0.1,0,0.1,0c0,0,0-0.1,0-0.1c0-0.2,0.2-0.4,0.4-0.4s0.4,0.2,0.4,0.4
		c0,0.2-0.2,0.4-0.4,0.4c0,0-0.1,0-0.1,0c0,0,0,0.1,0,0.1c0,0.2-0.2,0.4-0.4,0.4C26.2,69.7,26.1,69.5,26.1,69.3z"/>
	<path class="st11" d="M27.3,69.8c0,0.2-0.2,0.4-0.4,0.4s-0.4-0.2-0.4-0.4c0-0.2,0.2-0.4,0.4-0.4C27.2,69.5,27.3,69.6,27.3,69.8z"/>
	<path class="st11" d="M27.6,70.7c0,0.2-0.2,0.4-0.4,0.4c-0.2,0-0.4-0.2-0.4-0.4c0-0.2,0.2-0.4,0.4-0.4
		C27.4,70.3,27.6,70.5,27.6,70.7z"/>
	<path class="st11" d="M27.2,68.4c0-0.2,0.2-0.4,0.4-0.4c0.2,0,0.4,0.2,0.4,0.4c0,0.2-0.2,0.4-0.4,0.4
		C27.4,68.8,27.2,68.6,27.2,68.4z"/>
	<path class="st11" d="M27.9,69.8c-0.2,0-0.4-0.2-0.4-0.4c0-0.2,0.2-0.4,0.4-0.4s0.4,0.2,0.4,0.4C28.2,69.6,28.1,69.8,27.9,69.8z"/>
	<path class="st11" d="M28.5,70.3c0,0.2-0.2,0.4-0.4,0.4c-0.2,0-0.4-0.2-0.4-0.4c0-0.2,0.2-0.4,0.4-0.4C28.3,70,28.5,70.1,28.5,70.3
		z"/>
	<path class="st11" d="M28.1,68.1c0-0.2,0.2-0.4,0.4-0.4s0.4,0.2,0.4,0.4c0,0.2-0.2,0.4-0.4,0.4C28.2,68.4,28.1,68.3,28.1,68.1z"/>
	<path class="st11" d="M28.1,67.2c0-0.2,0.2-0.4,0.4-0.4s0.4,0.2,0.4,0.4c0,0.2-0.2,0.4-0.4,0.4C28.2,67.6,28.1,67.4,28.1,67.2z"/>
	<path class="st11" d="M28.9,69.2c-0.1,0.1-0.4,0.1-0.5-0.1s-0.1-0.4,0.1-0.5c0.1-0.1,0.4-0.1,0.5,0.1
		C29.1,68.9,29.1,69.1,28.9,69.2z"/>
	<path class="st11" d="M28.6,66.7c0-0.2,0.2-0.4,0.4-0.4s0.4,0.2,0.4,0.4c0,0.2-0.2,0.4-0.4,0.4S28.6,66.9,28.6,66.7z"/>
	<path class="st11" d="M29.4,69.6c0.1,0.1,0.1,0.3,0,0.4l0,0c0,0,0,0,0,0c-0.1,0.1-0.4,0.1-0.5-0.1s-0.1-0.4,0.1-0.5
		C29.1,69.4,29.3,69.4,29.4,69.6z"/>
	<path class="st11" d="M29.5,67.5c0.2,0.1,0.3,0.3,0.2,0.5s-0.3,0.3-0.5,0.2c-0.2-0.1-0.3-0.3-0.2-0.5
		C29.1,67.5,29.3,67.4,29.5,67.5z"/>
	<path class="st11" d="M29.4,65.7c0-0.2,0.2-0.4,0.4-0.4c0.2,0,0.4,0.2,0.4,0.4c0,0.2-0.2,0.4-0.4,0.4C29.5,66,29.4,65.9,29.4,65.7z
		"/>
	<path class="st11" d="M29.9,66.2c0.2,0,0.4,0.2,0.4,0.4s-0.2,0.4-0.4,0.4c-0.2,0-0.4-0.2-0.4-0.4C29.6,66.4,29.7,66.2,29.9,66.2z"
		/>
	<path class="st11" d="M30,68.5c0.1,0.1,0.1,0.4-0.1,0.5c-0.1,0.1-0.4,0.1-0.5-0.1s-0.1-0.4,0.1-0.5C29.6,68.3,29.9,68.3,30,68.5z"
		/>
	<path class="st11" d="M30.4,67.7c-0.1,0.2-0.3,0.3-0.5,0.2c-0.2-0.1-0.3-0.3-0.2-0.5s0.3-0.3,0.5-0.2
		C30.4,67.3,30.5,67.5,30.4,67.7z"/>
	<path class="st11" d="M30.8,68c0.1,0.1,0.1,0.3,0,0.4c0,0,0,0,0,0c0,0,0,0,0,0c-0.1,0.1-0.4,0.1-0.5-0.1c-0.1-0.2-0.1-0.4,0.1-0.5
		C30.5,67.8,30.7,67.9,30.8,68z"/>
	<path class="st11" d="M30.2,65.5c-0.1-0.2-0.1-0.4,0.1-0.5c0.2-0.1,0.4-0.1,0.5,0.1c0.1,0.2,0.1,0.4-0.1,0.5
		C30.6,65.7,30.4,65.7,30.2,65.5z"/>
	<path class="st11" d="M30.4,66.2c0.1-0.2,0.3-0.3,0.5-0.2c0.2,0.1,0.3,0.3,0.2,0.5c-0.1,0.2-0.3,0.3-0.5,0.2
		C30.4,66.6,30.3,66.4,30.4,66.2z"/>
	<path class="st11" d="M30.5,64.6c-0.1-0.1-0.1-0.3,0-0.4l0.1-0.2c0.2-0.1,0.4,0,0.5,0.1c0.1,0.2,0.1,0.4-0.1,0.5
		C30.9,64.8,30.6,64.8,30.5,64.6z"/>
	<path class="st11" d="M31.5,67.4c-0.1,0.2-0.3,0.3-0.5,0.2c-0.2-0.1-0.3-0.3-0.2-0.5c0.1-0.2,0.3-0.3,0.5-0.2
		C31.5,67,31.6,67.2,31.5,67.4z"/>
	<path class="st11" d="M31.1,64.1c-0.1-0.2-0.1-0.4,0.1-0.5c0.2-0.1,0.4-0.1,0.5,0.1c0.1,0.2,0.1,0.4-0.1,0.5
		C31.4,64.3,31.2,64.2,31.1,64.1z"/>
	<path class="st11" d="M31.2,65c-0.1-0.2-0.1-0.4,0.1-0.5c0.2-0.1,0.4-0.1,0.5,0.1c0.1,0.2,0.1,0.4-0.1,0.5
		C31.5,65.2,31.3,65.1,31.2,65z"/>
	<path class="st11" d="M31.2,65.7c0-0.2,0.2-0.3,0.4-0.3c0.2,0,0.3,0.2,0.3,0.4c0,0.2-0.2,0.3-0.4,0.3
		C31.3,66.1,31.2,65.9,31.2,65.7z"/>
	<path class="st11" d="M32.2,66.7c-0.1,0.2-0.3,0.3-0.5,0.2c-0.2-0.1-0.3-0.3-0.2-0.5c0.1-0.2,0.3-0.3,0.5-0.2
		C32.2,66.3,32.3,66.5,32.2,66.7z"/>
	<path class="st11" d="M31.8,63.4c-0.1-0.2-0.1-0.4,0.1-0.5c0.2-0.1,0.4-0.1,0.5,0.1c0.1,0.2,0.1,0.4-0.1,0.5
		C32.1,63.6,31.9,63.5,31.8,63.4z"/>
	<path class="st11" d="M32.3,63.9c0.2,0,0.3,0.2,0.3,0.4c0,0.2-0.2,0.3-0.4,0.3c-0.2,0-0.3-0.2-0.3-0.4S32.1,63.9,32.3,63.9z"/>
	<path class="st11" d="M32.2,65.3c0-0.2,0.2-0.3,0.4-0.3c0.2,0,0.3,0.2,0.3,0.4c0,0.2-0.2,0.3-0.4,0.3
		C32.3,65.6,32.2,65.5,32.2,65.3z"/>
	<path class="st11" d="M32.9,66.1C32.9,66.1,32.9,66.1,32.9,66.1l-0.3,0.3c0,0-0.1,0-0.1,0c-0.2,0-0.3-0.2-0.3-0.4
		c0-0.2,0.2-0.3,0.4-0.3C32.8,65.7,33,65.9,32.9,66.1z"/>
	<path class="st11" d="M32.5,62.4c-0.1-0.1-0.1-0.2-0.1-0.3l0.3-0.3c0.1,0,0.3,0,0.4,0.1c0.1,0.2,0.1,0.4-0.1,0.5
		C32.8,62.6,32.6,62.6,32.5,62.4z"/>
	<path class="st11" d="M32.6,63.4c-0.1-0.1-0.1-0.4,0-0.5c0.1-0.1,0.4-0.1,0.5,0c0.1,0.1,0.1,0.4,0,0.5
		C32.9,63.6,32.7,63.6,32.6,63.4z"/>
	<path class="st11" d="M32.9,64.2c-0.1-0.1-0.1-0.4,0-0.5c0.1-0.1,0.4-0.1,0.5,0c0.1,0.1,0.1,0.4,0,0.5C33.2,64.4,33,64.4,32.9,64.2
		z"/>
	<path class="st11" d="M33.6,64.6c0.1,0.1,0.1,0.4,0,0.5s-0.4,0.1-0.5,0c-0.1-0.1-0.1-0.4,0-0.5C33.2,64.4,33.5,64.5,33.6,64.6z"/>
	<path class="st11" d="M33.1,61.9c-0.1-0.2-0.1-0.4,0.1-0.5c0.2-0.1,0.4-0.1,0.5,0.1c0.1,0.2,0.1,0.4-0.1,0.5
		C33.5,62.2,33.3,62.1,33.1,61.9z"/>
	<path class="st11" d="M33.4,62.9c-0.1-0.2,0-0.4,0.2-0.5c0.2-0.1,0.4,0,0.5,0.2c0.1,0.2,0,0.4-0.2,0.5
		C33.7,63.2,33.4,63.1,33.4,62.9z"/>
	<path class="st11" d="M34.3,63.4c0.1,0.2,0,0.4-0.2,0.5c-0.2,0.1-0.4,0-0.5-0.2c-0.1-0.2,0-0.4,0.2-0.5
		C34,63.2,34.2,63.3,34.3,63.4z"/>
	<path class="st11" d="M33.9,61c-0.1-0.2-0.1-0.4,0.1-0.5c0.2-0.1,0.4-0.1,0.5,0.1c0.1,0.2,0.1,0.4-0.1,0.5c0,0-0.1,0-0.1,0
		c0.1,0,0.3,0.1,0.3,0.2c0.1,0.2,0,0.4-0.2,0.5c-0.2,0.1-0.4,0-0.5-0.2c-0.1-0.2,0-0.4,0.2-0.5c0,0,0,0,0,0C34.1,61.1,34,61,33.9,61
		z"/>
	<path class="st11" d="M34.9,62.3c0.1,0.2,0,0.4-0.2,0.5c-0.2,0.1-0.4,0-0.5-0.2c-0.1-0.2,0-0.4,0.2-0.5
		C34.6,62.1,34.8,62.2,34.9,62.3z"/>
	<path class="st11" d="M34.7,60.2c-0.1-0.2-0.1-0.4,0.1-0.5c0.2-0.1,0.4-0.1,0.5,0.1c0.1,0.2,0.1,0.4-0.1,0.5
		C35,60.4,34.8,60.3,34.7,60.2z"/>
	<path class="st11" d="M35.5,60.6c0.1,0.2,0,0.4-0.2,0.5c-0.2,0.1-0.4,0-0.5-0.2c-0.1-0.2,0-0.4,0.2-0.5
		C35.2,60.4,35.4,60.4,35.5,60.6z"/>
	<path class="st11" d="M35.7,61.4c0.1,0.2,0,0.4-0.2,0.5c-0.2,0.1-0.4,0-0.5-0.2c-0.1-0.2,0-0.4,0.2-0.5
		C35.4,61.1,35.6,61.2,35.7,61.4z"/>
	<path class="st11" d="M35.4,59.6c-0.1-0.2-0.1-0.4,0.1-0.5c0.2-0.1,0.4-0.1,0.5,0.1c0.1,0.2,0.1,0.4-0.1,0.5
		C35.7,59.8,35.5,59.7,35.4,59.6z"/>
	<path class="st11" d="M36.6,61.7c0.1,0.2,0,0.4-0.2,0.5c-0.2,0.1-0.4,0-0.5-0.2c-0.1-0.2,0-0.4,0.2-0.5
		C36.4,61.4,36.6,61.5,36.6,61.7z"/>
	<path class="st11" d="M36,60.6c-0.1,0-0.3,0-0.4-0.2c-0.1-0.2,0-0.4,0.2-0.5c0.2-0.1,0.4,0,0.5,0.2c0,0.1,0,0.2,0,0.3
		c0.1,0,0.3,0.1,0.4,0.2c0.1,0.2,0,0.4-0.2,0.5c-0.2,0.1-0.4,0-0.5-0.2C36,60.8,36,60.7,36,60.6z"/>
	<path class="st11" d="M36.2,58.5C36.3,58.5,36.3,58.5,36.2,58.5c0-0.1,0-0.1,0-0.1c-0.1-0.2-0.1-0.4,0.1-0.5
		c0.2-0.1,0.4-0.1,0.5,0.1c0.1,0.2,0.1,0.4-0.1,0.5c0,0,0,0,0,0c0,0,0,0,0.1,0.1c0.1,0.2,0.1,0.4-0.1,0.5c-0.2,0.1-0.4,0.1-0.5-0.1
		C36,58.9,36.1,58.6,36.2,58.5z"/>
	<path class="st11" d="M36.8,59.5c0.2-0.1,0.4,0,0.5,0.2c0.1,0.2,0,0.4-0.2,0.5c-0.2,0.1-0.4,0-0.5-0.2
		C36.5,59.7,36.6,59.5,36.8,59.5z"/>
	<path class="st11" d="M37.3,61.1c0,0.1,0,0.1,0,0.2L37,61.6c-0.1,0-0.3-0.1-0.4-0.2c-0.1-0.2,0-0.4,0.2-0.5
		C37,60.8,37.2,60.9,37.3,61.1z"/>
	<path class="st11" d="M37.8,60.1c0.1,0.2,0.1,0.4-0.1,0.5c-0.2,0.1-0.4,0.1-0.5-0.1c-0.1-0.2-0.1-0.4,0.1-0.5
		C37.5,59.9,37.7,60,37.8,60.1z"/>
	<path class="st11" d="M37.2,59c-0.1-0.2-0.1-0.4,0.1-0.5c0.2-0.1,0.4-0.1,0.5,0.1c0.1,0.2,0.1,0.4-0.1,0.5
		C37.5,59.2,37.3,59.2,37.2,59z"/>
	<path class="st11" d="M38.2,59.9c-0.2,0.1-0.4,0.1-0.5-0.1c-0.1-0.2-0.1-0.4,0.1-0.5c0.2-0.1,0.4-0.1,0.5,0.1
		C38.4,59.5,38.4,59.7,38.2,59.9z"/>
	<path class="st19" d="M27.6,70.7c0,0.2-0.2,0.4-0.4,0.4c-0.2,0-0.4-0.2-0.4-0.4c0-0.2,0.2-0.4,0.4-0.4
		C27.4,70.3,27.6,70.5,27.6,70.7z"/>
	<path class="st19" d="M28.5,70.3c0,0.2-0.2,0.4-0.4,0.4c-0.2,0-0.4-0.2-0.4-0.4c0-0.2,0.2-0.4,0.4-0.4C28.3,70,28.5,70.1,28.5,70.3
		z"/>
	<path class="st19" d="M27.3,69.8c0,0.2-0.2,0.4-0.4,0.4s-0.4-0.2-0.4-0.4c0-0.2,0.2-0.4,0.4-0.4C27.2,69.5,27.3,69.6,27.3,69.8z"/>
	<path class="st19" d="M28.2,69.4c0,0.2-0.2,0.4-0.4,0.4c-0.2,0-0.4-0.2-0.4-0.4c0-0.2,0.2-0.4,0.4-0.4C28.1,69,28.2,69.2,28.2,69.4
		z"/>
	<path class="st19" d="M27.9,68.4c0,0.2-0.2,0.4-0.4,0.4c-0.2,0-0.4-0.2-0.4-0.4c0-0.2,0.2-0.4,0.4-0.4
		C27.8,68.1,27.9,68.2,27.9,68.4z"/>
	<path class="st19" d="M28.8,68.1c0,0.2-0.2,0.4-0.4,0.4s-0.4-0.2-0.4-0.4c0-0.2,0.2-0.4,0.4-0.4C28.6,67.7,28.8,67.9,28.8,68.1z"/>
	<path class="st19" d="M28.8,67.2c0,0.2-0.2,0.4-0.4,0.4s-0.4-0.2-0.4-0.4c0-0.2,0.2-0.4,0.4-0.4S28.8,67,28.8,67.2z"/>
	<path class="st19" d="M30.3,66.5c0,0.2-0.2,0.4-0.4,0.4c-0.2,0-0.4-0.2-0.4-0.4c0-0.2,0.2-0.4,0.4-0.4
		C30.1,66.2,30.3,66.4,30.3,66.5z"/>
	<path class="st19" d="M29.3,66.7c0,0.2-0.2,0.4-0.4,0.4s-0.4-0.2-0.4-0.4c0-0.2,0.2-0.4,0.4-0.4C29.2,66.4,29.3,66.5,29.3,66.7z"/>
	<path class="st19" d="M30.1,65.7c0,0.2-0.2,0.4-0.4,0.4s-0.4-0.2-0.4-0.4c0-0.2,0.2-0.4,0.4-0.4C29.9,65.3,30.1,65.5,30.1,65.7z"/>
	<path class="st19" d="M30.8,65.6c-0.2,0.1-0.4,0.1-0.5-0.1c-0.1-0.2-0.1-0.4,0.1-0.5c0.2-0.1,0.4-0.1,0.5,0.1
		C30.9,65.3,30.9,65.5,30.8,65.6z"/>
	<path class="st19" d="M31.7,65.1c-0.2,0.1-0.4,0.1-0.5-0.1c-0.1-0.2-0.1-0.4,0.1-0.5c0.2-0.1,0.4-0.1,0.5,0.1
		C31.9,64.7,31.9,65,31.7,65.1z"/>
	<path class="st19" d="M31,64.7c-0.2,0.1-0.4,0.1-0.5-0.1c-0.1-0.1-0.1-0.3,0-0.4c0-0.1,0.1-0.1,0.1-0.1l0,0c0.2-0.1,0.4,0,0.5,0.1
		C31.2,64.4,31.2,64.6,31,64.7z"/>
	<path class="st19" d="M31.5,64.2c-0.2,0.1-0.4,0.1-0.5-0.1c-0.1-0.2-0.1-0.4,0.1-0.5c0.2-0.1,0.4-0.1,0.5,0.1
		C31.8,63.8,31.7,64.1,31.5,64.2z"/>
	<path class="st19" d="M32.3,63.5c-0.2,0.1-0.4,0.1-0.5-0.1c-0.1-0.2-0.1-0.4,0.1-0.5c0.2-0.1,0.4-0.1,0.5,0.1
		C32.5,63.1,32.4,63.3,32.3,63.5z"/>
	<path class="st19" d="M33,62.5c-0.2,0.1-0.4,0.1-0.5-0.1c-0.1-0.1-0.1-0.2-0.1-0.3c0-0.1,0.1-0.2,0.1-0.3c0,0,0.1,0,0.1-0.1
		c0.1,0,0.3,0,0.4,0.1C33.2,62.2,33.2,62.4,33,62.5z"/>
	<path class="st19" d="M33.6,62c-0.2,0.1-0.4,0.1-0.5-0.1c-0.1-0.2-0.1-0.4,0.1-0.5c0.2-0.1,0.4-0.1,0.5,0.1
		C33.8,61.7,33.8,61.9,33.6,62z"/>
	<path class="st19" d="M35.9,59.7c-0.2,0.1-0.4,0.1-0.5-0.1c-0.1-0.2-0.1-0.4,0.1-0.5c0.2-0.1,0.4-0.1,0.5,0.1
		C36.1,59.3,36,59.5,35.9,59.7z"/>
	<path class="st19" d="M36.7,59.1c-0.2,0.1-0.4,0.1-0.5-0.1c-0.1-0.2-0.1-0.4,0.1-0.5c0,0,0,0,0.1,0c0.1-0.1,0.3,0,0.4,0
		c0,0,0,0,0.1,0.1C36.9,58.8,36.8,59,36.7,59.1z"/>
	<path class="st19" d="M35.2,60.3c-0.2,0.1-0.4,0.1-0.5-0.1c-0.1-0.2-0.1-0.4,0.1-0.5c0.2-0.1,0.4-0.1,0.5,0.1
		C35.3,59.9,35.3,60.1,35.2,60.3z"/>
	<path class="st19" d="M34.4,61C34.4,61.1,34.3,61.1,34.4,61c-0.1,0.1-0.2,0.1-0.2,0.1c-0.1,0-0.2,0-0.3-0.1
		c-0.1-0.2-0.1-0.4,0.1-0.5c0.2-0.1,0.4-0.1,0.5,0.1C34.6,60.7,34.6,60.9,34.4,61z"/>
	<path class="st19" d="M37.7,59.1c-0.2,0.1-0.4,0.1-0.5-0.1c-0.1-0.2-0.1-0.4,0.1-0.5c0.2-0.1,0.4-0.1,0.5,0.1
		C37.9,58.8,37.9,59,37.7,59.1z"/>
	<path class="st19" d="M36.7,58.5C36.7,58.5,36.7,58.5,36.7,58.5c-0.2,0.1-0.3,0.1-0.4,0c0,0,0,0-0.1-0.1c-0.1-0.2-0.1-0.4,0.1-0.5
		c0.2-0.1,0.4-0.1,0.5,0.1C36.9,58.2,36.9,58.4,36.7,58.5z"/>
	<path class="st19" d="M38.2,59.9c-0.2,0.1-0.4,0.1-0.5-0.1c-0.1-0.2-0.1-0.4,0.1-0.5c0.2-0.1,0.4-0.1,0.5,0.1
		C38.4,59.5,38.4,59.7,38.2,59.9z"/>
	<path class="st19" d="M37.7,60.6c-0.2,0.1-0.4,0.1-0.5-0.1c-0.1-0.2-0.1-0.4,0.1-0.5c0.2-0.1,0.4-0.1,0.5,0.1
		C37.9,60.3,37.9,60.5,37.7,60.6z"/>
	<path class="st19" d="M37.3,61.3c0,0.1-0.1,0.3-0.2,0.3c0,0-0.1,0-0.1,0c-0.1,0-0.3-0.1-0.4-0.2c-0.1-0.2,0-0.4,0.2-0.5
		c0.2-0.1,0.4,0,0.5,0.2C37.3,61.1,37.3,61.2,37.3,61.3z"/>
	<path class="st19" d="M36.5,61.1c-0.2,0.1-0.4,0-0.5-0.2c0-0.1,0-0.2,0-0.3c0-0.1,0.1-0.1,0.2-0.2c0,0,0.1,0,0.1,0
		c0.1,0,0.3,0.1,0.4,0.2C36.7,60.8,36.6,61,36.5,61.1z"/>
	<path class="st19" d="M37.1,60.1c-0.2,0.1-0.4,0-0.5-0.2c-0.1-0.2,0-0.4,0.2-0.5c0.2-0.1,0.4,0,0.5,0.2
		C37.3,59.8,37.2,60,37.1,60.1z"/>
	<path class="st19" d="M36.3,60.4c0,0.1-0.1,0.1-0.2,0.2c0,0-0.1,0-0.1,0c-0.1,0-0.3,0-0.4-0.2c-0.1-0.2,0-0.4,0.2-0.5
		c0.2-0.1,0.4,0,0.5,0.2C36.3,60.2,36.3,60.3,36.3,60.4z"/>
	<path class="st19" d="M35.3,61.1c-0.2,0.1-0.4,0-0.5-0.2c-0.1-0.2,0-0.4,0.2-0.5c0.2-0.1,0.4,0,0.5,0.2
		C35.5,60.8,35.5,61,35.3,61.1z"/>
	<path class="st19" d="M35.5,61.9c-0.2,0.1-0.4,0-0.5-0.2c-0.1-0.2,0-0.4,0.2-0.5c0.2-0.1,0.4,0,0.5,0.2
		C35.8,61.6,35.7,61.8,35.5,61.9z"/>
	<path class="st19" d="M36.5,62.2c-0.2,0.1-0.4,0-0.5-0.2c-0.1-0.2,0-0.4,0.2-0.5c0.2-0.1,0.4,0,0.5,0.2
		C36.7,61.9,36.6,62.1,36.5,62.2z"/>
	<path class="st19" d="M34.8,62.8c-0.2,0.1-0.4,0-0.5-0.2c-0.1-0.2,0-0.4,0.2-0.5c0.2-0.1,0.4,0,0.5,0.2
		C35,62.5,34.9,62.7,34.8,62.8z"/>
	<path class="st19" d="M34.4,61.8c-0.2,0.1-0.4,0-0.5-0.2c-0.1-0.2,0-0.4,0.2-0.5c0,0,0,0,0,0c0,0,0.1,0,0.1,0
		c0.1,0,0.3,0.1,0.3,0.2C34.7,61.5,34.6,61.7,34.4,61.8z"/>
	<path class="st19" d="M33.8,63.1c-0.2,0.1-0.4,0-0.5-0.2c-0.1-0.2,0-0.4,0.2-0.5c0.2-0.1,0.4,0,0.5,0.2C34.1,62.8,34,63,33.8,63.1z
		"/>
	<path class="st19" d="M34.1,63.9c-0.2,0.1-0.4,0-0.5-0.2c-0.1-0.2,0-0.4,0.2-0.5c0.2-0.1,0.4,0,0.5,0.2
		C34.4,63.6,34.3,63.8,34.1,63.9z"/>
	<path class="st19" d="M33.6,65.1c-0.1,0.1-0.4,0.1-0.5,0c-0.1-0.1-0.1-0.4,0-0.5s0.4-0.1,0.5,0C33.7,64.8,33.7,65,33.6,65.1z"/>
	<path class="st19" d="M33.4,64.3c-0.1,0.1-0.4,0.1-0.5,0c-0.1-0.1-0.1-0.4,0-0.5c0.1-0.1,0.4-0.1,0.5,0
		C33.5,63.9,33.5,64.1,33.4,64.3z"/>
	<path class="st19" d="M32.6,64.3c0,0.2-0.2,0.3-0.4,0.3c-0.2,0-0.3-0.2-0.3-0.4c0-0.2,0.2-0.3,0.4-0.3
		C32.5,63.9,32.7,64.1,32.6,64.3z"/>
	<path class="st19" d="M32.9,65.3c0,0.2-0.2,0.3-0.4,0.3c-0.2,0-0.3-0.2-0.3-0.4c0-0.2,0.2-0.3,0.4-0.3C32.8,65,32.9,65.2,32.9,65.3
		z"/>
	<path class="st19" d="M31.9,65.8c0,0.2-0.2,0.3-0.4,0.3c-0.2,0-0.3-0.2-0.3-0.4c0-0.2,0.2-0.3,0.4-0.3
		C31.8,65.4,31.9,65.6,31.9,65.8z"/>
	<path class="st19" d="M32.9,66.1C32.9,66.1,32.9,66.1,32.9,66.1c-0.1,0.2-0.1,0.3-0.3,0.3c0,0-0.1,0-0.1,0c-0.2,0-0.3-0.2-0.3-0.4
		c0-0.2,0.2-0.3,0.4-0.3C32.8,65.7,33,65.9,32.9,66.1z"/>
	<path class="st19" d="M32.2,66.7c-0.1,0.2-0.3,0.3-0.5,0.2c-0.2-0.1-0.3-0.3-0.2-0.5c0.1-0.2,0.3-0.3,0.5-0.2
		C32.2,66.3,32.3,66.5,32.2,66.7z"/>
	<path class="st19" d="M31,66.5c-0.1,0.2-0.3,0.3-0.5,0.2c-0.2-0.1-0.3-0.3-0.2-0.5c0.1-0.2,0.3-0.3,0.5-0.2
		C31,66.1,31.1,66.3,31,66.5z"/>
	<path class="st19" d="M31.5,67.4c-0.1,0.2-0.3,0.3-0.5,0.2c-0.2-0.1-0.3-0.3-0.2-0.5c0.1-0.2,0.3-0.3,0.5-0.2
		C31.5,67,31.6,67.2,31.5,67.4z"/>
	<path class="st19" d="M30.4,67.7c-0.1,0.2-0.3,0.3-0.5,0.2c-0.2-0.1-0.3-0.3-0.2-0.5s0.3-0.3,0.5-0.2
		C30.4,67.3,30.5,67.5,30.4,67.7z"/>
	<path class="st19" d="M29.6,68c-0.1,0.2-0.3,0.3-0.5,0.2c-0.2-0.1-0.3-0.3-0.2-0.5s0.3-0.3,0.5-0.2C29.7,67.6,29.7,67.8,29.6,68z"
		/>
	<path class="st19" d="M29.9,69c-0.1,0.1-0.4,0.1-0.5-0.1s-0.1-0.4,0.1-0.5c0.1-0.1,0.4-0.1,0.5,0.1C30.1,68.6,30.1,68.8,29.9,69z"
		/>
	<path class="st19" d="M28.9,69.2c-0.1,0.1-0.4,0.1-0.5-0.1s-0.1-0.4,0.1-0.5c0.1-0.1,0.4-0.1,0.5,0.1
		C29.1,68.9,29.1,69.1,28.9,69.2z"/>
	<path class="st19" d="M29.4,70L29.4,70C29.4,70.1,29.3,70.1,29.4,70c-0.2,0.2-0.4,0.1-0.6,0s-0.1-0.4,0.1-0.5
		c0.1-0.1,0.4-0.1,0.5,0.1C29.5,69.7,29.5,69.9,29.4,70z"/>
	<path class="st19" d="M30.8,68.5L30.8,68.5C30.8,68.5,30.8,68.5,30.8,68.5c-0.2,0.2-0.4,0.1-0.6,0c-0.1-0.2-0.1-0.4,0.1-0.5
		c0.2-0.1,0.4-0.1,0.5,0.1C30.9,68.1,30.9,68.3,30.8,68.5z"/>
	<path class="st19" d="M33.1,63.4c-0.1,0.1-0.4,0.1-0.5,0c-0.1-0.1-0.1-0.4,0-0.5c0.1-0.1,0.4-0.1,0.5,0
		C33.2,63.1,33.2,63.3,33.1,63.4z"/>
	<path class="st19" d="M26.8,71c0,0.2-0.2,0.4-0.4,0.4c0,0,0,0,0,0c-0.1,0-0.3-0.1-0.3-0.3c0,0,0,0,0-0.1c0-0.2,0.2-0.4,0.4-0.4
		C26.6,70.7,26.8,70.8,26.8,71z"/>
	<path class="st19" d="M26.8,69.3c0,0.2-0.2,0.4-0.4,0.4s-0.4-0.2-0.4-0.4s0.2-0.4,0.4-0.4c0,0,0.1,0,0.1,0c0.1,0,0.2,0.1,0.2,0.2
		C26.8,69.2,26.8,69.3,26.8,69.3z"/>
	<path class="st19" d="M26.5,70.1c0,0.2-0.2,0.4-0.4,0.4c-0.2,0-0.4-0.2-0.4-0.4c0-0.2,0.2-0.4,0.4-0.4
		C26.4,69.7,26.5,69.9,26.5,70.1z"/>
	<path class="st19" d="M27.2,68.8c0,0.2-0.2,0.4-0.4,0.4c0,0-0.1,0-0.1,0c-0.1,0-0.2-0.1-0.2-0.2c0,0,0-0.1,0-0.1
		c0-0.2,0.2-0.4,0.4-0.4C27.1,68.5,27.2,68.7,27.2,68.8z"/>
</g>
<g>
	<path class="st20" d="M62.1,31.2v6.2h-4.3c-0.9,0-0.9-6.2,0-6.2H62.1z"/>
	<line class="st21" x1="57.8" y1="31.2" x2="57.6" y2="31.2"/>
	<path class="st20" d="M86.9,51.2h-8c-1,0-1.7-0.8-1.7-1.7l0,0c0-1,0.8-1.7,1.7-1.7h8c1,0,1.7,0.8,1.7,1.7l0,0
		C88.7,50.4,87.9,51.2,86.9,51.2z"/>
	<line class="st22" x1="52.7" y1="36.6" x2="40.3" y2="40.3"/>
	<line class="st22" x1="39.2" y1="32.4" x2="51.7" y2="33.6"/>
	<line class="st22" x1="41.4" y1="24.3" x2="52.9" y2="31.9"/>
	<line class="st21" x1="65.1" y1="48.8" x2="66.4" y2="48.8"/>
	<path class="st23" d="M97.3,91c-0.6,0.7-1.5,1.1-2.5,1.1H70.4c-1.1,0-2-0.5-2.6-1.3l7.3-39.5h14.7L97.3,91z"/>
	<line class="st21" x1="79.4" y1="47.9" x2="79.4" y2="51.4"/>
	<line class="st21" x1="82.6" y1="47.7" x2="82.6" y2="51.2"/>
	<line class="st21" x1="85.9" y1="47.7" x2="85.9" y2="51.2"/>
	<polygon class="st20" points="87,31.2 87,47.9 79.4,47.9 71.8,39.9 66.6,39.9 65,39.9 62.1,37.4 62.1,31.2 	"/>
	<path class="st21" d="M66.6,39.9c3,3.1,3.4,6.1,0,8.9"/>
	<path class="st21" d="M65.1,39.9c3,3.1,3.4,6.1,0,8.9"/>
</g>
<g>
	<path class="st24" d="M341.7-114.9h-53.2c0-8.1,11.9-14.7,26.6-14.7C329.8-129.6,341.7-123,341.7-114.9z"/>
	<path class="st24" d="M334-92.6h-38.1c-4.2,0-7.7-3.4-7.7-7.7v0h53.5v0C341.7-96,338.3-92.6,334-92.6z"/>
	<g>
		<g>
			<g>
				<path class="st25" d="M324.5-96.7c1.6,0.2,3.2,0.2,4.8,0c-0.4-1.6-0.8-3.1-1.3-4.7c-0.2,0.1-0.4,0.2-0.7,0.3
					c0.2-0.1,0.4-0.2,0.6-0.3c-0.4,0.2-0.8,0.2-1.2,0.3c0.2,0,0.4-0.1,0.7-0.1c-0.7,0.1-1.3,0-2,0c0.2,0,0.4,0.1,0.7,0.1
					c-1.5-0.2-3-0.6-4.6-0.7c-1,0-1.9,0.7-2.3,1.5c-0.4,1-0.1,1.9,0.5,2.7c0.8,0.9,2,1.1,3.1,1.2c0.8,0.1,1.6,0.2,2.4,0.3
					c0.6,0.1,1.4-0.3,1.8-0.7c0.4-0.4,0.8-1.1,0.7-1.8c0-0.6-0.2-1.3-0.7-1.8c-0.5-0.5-1.1-0.6-1.8-0.7c-0.9-0.1-1.9-0.2-2.8-0.4
					c0.2,0,0.4,0.1,0.7,0.1c-0.2,0-0.4-0.1-0.5-0.1c0.2,0.1,0.4,0.2,0.6,0.3c-0.1,0-0.2-0.1-0.3-0.2c0.2,0.1,0.3,0.3,0.5,0.4
					c-0.1,0-0.1-0.1-0.1-0.2c-0.6,1.4-1.2,2.8-1.8,4.3c0.3,0,0.6,0,0.9,0.1c-0.2,0-0.4-0.1-0.7-0.1c1.5,0.2,3,0.6,4.5,0.7
					c1.5,0.1,3.1-0.2,4.4-1c0.9-0.6,1.5-1.7,1.1-2.8c-0.1-0.4-0.3-0.8-0.6-1.1c-0.4-0.4-1.2-0.8-1.8-0.7c-1.6,0.1-3.2,0.1-4.8,0
					c-0.6-0.1-1.4,0.3-1.8,0.7c-0.4,0.4-0.8,1.1-0.7,1.8c0,0.6,0.2,1.3,0.7,1.8C323.2-97,323.8-96.8,324.5-96.7L324.5-96.7z"/>
			</g>
		</g>
		<g>
			<g>
				<path class="st25" d="M315.6-98.9c0.1,0,0.2,0,0.4,0c0.1,0,0.3,0,0.1,0c0.2,0,0.4,0.1,0.6,0.2c0,0,0.4,0.1,0.2,0.1
					c0.1,0,0.2,0.1,0.3,0.1c0.2,0.1,0.4,0.2,0.6,0.3c0.9,0.5,1.8,0.9,2.8,1.2c0-0.6,0-1.3,0-1.9c-0.1,0-0.1,0,0,0c0,0-0.1,0-0.1,0
					c0.1,0,0.1,0,0,0c0,0-0.1,0-0.1,0c-0.2-0.1-0.4-0.1-0.5-0.2c-0.4-0.2-0.8-0.3-1.1-0.5c-0.1,0-0.2-0.1-0.3-0.1c-0.1,0-0.1,0,0,0
					c0,0-0.1,0-0.1-0.1c-0.2-0.1-0.4-0.2-0.5-0.2c-0.4-0.2-0.7-0.3-1.1-0.5c-0.5-0.2-1.1-0.1-1.4,0.4
					C315-99.8,315.1-99.1,315.6-98.9c0.8,0.5,1.7,0.9,2.6,1.2c0.4,0.2,0.8,0.3,1.2,0.5c0.5,0.2,1.1,0.3,1.6,0.2
					c0.4-0.1,0.8-0.5,0.7-1c0-0.5-0.3-0.8-0.7-1c-0.1-0.1-0.2-0.1-0.4-0.2c0.1,0.1-0.2-0.1-0.2-0.1c-0.2-0.1-0.4-0.2-0.6-0.3
					c-0.4-0.2-0.9-0.4-1.3-0.6c-0.9-0.4-1.9-0.9-2.9-0.8c-0.5,0-1,0.4-1,1C314.6-99.4,315-98.9,315.6-98.9L315.6-98.9z"/>
			</g>
		</g>
		<g>
			<g>
				<path class="st25" d="M304.9-96.3c1.8,0.1,3.6-0.1,5.3-0.7c1.6-0.6,3-1.6,4.6-1.9c-0.3-0.6-0.6-1.1-1-1.7
					c-0.2,0.2-0.6,0.2-0.9,0.3c-0.5,0.2-1,0.4-1.4,0.6c-0.8,0.3-1.6,0.7-2.4,0.8c-1.3,0.1-1.3,2.1,0,2c1.2-0.1,2.2-0.5,3.3-1
					c0.5-0.2,0.9-0.4,1.4-0.5c0.5-0.2,1.1-0.3,1.5-0.7c0.7-0.8,0-1.8-1-1.7c-1.6,0.3-2.9,1.3-4.5,1.9c-1.6,0.6-3.2,0.8-4.9,0.7
					c-0.5,0-1,0.5-1,1C303.9-96.7,304.4-96.4,304.9-96.3L304.9-96.3z"/>
			</g>
		</g>
		<g>
			<g>
				<path class="st25" d="M297.6-98.7c1.4,0.2,2.9,0.5,4.3,1c1.2,0.4,2.2,1.4,3.5,1.6c0.1-0.7,0.2-1.3,0.3-2
					c-0.6-0.1-1.3-0.1-1.9-0.2c-0.6-0.1-1.2-0.4-1.9-0.6c-0.6-0.2-1.3-0.5-1.9-0.7c-0.3-0.1-0.6-0.3-1-0.4c-0.2-0.1-0.1-0.1-0.2-0.1
					c-0.1,0-0.1-0.1,0,0.1c-0.2-0.5-0.7-0.8-1.2-0.7c-0.5,0.1-0.9,0.7-0.7,1.2c0.3,0.8,1,1.1,1.7,1.5c0.8,0.3,1.5,0.6,2.3,0.9
					c0.7,0.3,1.4,0.6,2.2,0.7c0.8,0.2,1.7,0.2,2.5,0.3c0.5,0,0.9-0.4,1-0.9c0.1-0.4-0.2-1-0.7-1.1c-0.6-0.1-1.1-0.4-1.6-0.7
					c-0.6-0.4-1.2-0.7-1.9-0.9c-1.4-0.5-2.8-0.8-4.3-1c-0.5-0.1-1.1,0.1-1.2,0.7C296.7-99.5,297-98.8,297.6-98.7L297.6-98.7z"/>
			</g>
		</g>
		<g>
			<g>
				<path class="st25" d="M288.9-101.7c-0.5,0.5-1.1,0.9-1.6,1.4c-0.5,0.4-1.1,1-1.1,1.7c0,1.8,2.4,1.3,3.4,1
					c1.3-0.3,2.5-0.3,3.8-0.7c0.6-0.2,1.1-0.4,1.7-0.4c0.7-0.1,1.4,0,2-0.3c0.5-0.2,0.8-0.7,0.7-1.2c-0.1-0.5-0.7-0.9-1.2-0.7
					c-0.7,0.3-1.5,0.2-2.3,0.3c-0.8,0.1-1.5,0.5-2.3,0.6c-0.8,0.2-1.6,0.2-2.4,0.3c-0.4,0.1-0.8,0.2-1.2,0.3c-0.1,0-0.3,0.1-0.4,0.1
					c-0.1,0-0.2,0-0.3,0c-0.2,0-0.2,0,0,0.1c0.1,0.1,0.2,0.2,0.4,0.4c0,0,0,0,0,0c0,0.2,0,0.4,0,0.5c0-0.1,0.1-0.2,0-0.1
					c0.1-0.1,0.2-0.2,0.3-0.3c0.2-0.2,0.4-0.3,0.6-0.5c0.4-0.4,0.9-0.7,1.3-1.1c0.4-0.3,0.4-1.1,0-1.4
					C289.9-102.1,289.3-102.1,288.9-101.7L288.9-101.7z"/>
			</g>
		</g>
		<g>
			<g>
				<path class="st25" d="M291.2-101.7c-0.5,0-1,0-1.4,0.1c-0.2,0-0.3,0.1-0.4,0.3c-0.1,0.1-0.2,0.3-0.3,0.4c0,0.2,0,0.4,0,0.5
					c0,0.2,0.1,0.3,0.3,0.4c0.1,0.1,0.2,0.1,0.3,0.2c0.1,0.1,0.2,0.1,0.3,0.1c0,0,0.1,0,0.1,0c0.1,0,0.2,0,0.4,0
					c0.1,0,0.3,0,0.4-0.1c0.1,0,0.2-0.1,0.3-0.2c0.1-0.1,0.2-0.2,0.2-0.3c0.1-0.1,0.1-0.2,0.1-0.4c0-0.3-0.1-0.5-0.3-0.7
					c-0.1-0.1-0.1-0.1-0.2-0.2c-0.2-0.1-0.3-0.1-0.5-0.1c0,0,0,0-0.1,0c0.1,0,0.2,0,0.3,0c0,0-0.1,0-0.1,0c0.1,0,0.2,0.1,0.2,0.1
					c0,0-0.1,0-0.1-0.1c0.1,0.1,0.1,0.1,0.2,0.2c0,0,0,0,0,0c-0.1,0.6-0.3,1.1-0.4,1.7c0.1,0,0.1,0,0.2,0c-0.1,0-0.2,0-0.3,0
					c0.3,0,0.7-0.1,1,0c0.1,0,0.3,0,0.4-0.1c0.1,0,0.2-0.1,0.3-0.2c0.1-0.1,0.2-0.2,0.2-0.3c0.1-0.1,0.1-0.2,0.1-0.4
					c0-0.3-0.1-0.5-0.3-0.7c-0.1-0.1-0.1-0.1-0.2-0.2C291.5-101.7,291.4-101.7,291.2-101.7L291.2-101.7z"/>
			</g>
		</g>
		<g>
			<g>
				<path class="st25" d="M290.4-99.4c1.3,0,1.3-2,0-2C289.1-101.4,289.1-99.4,290.4-99.4L290.4-99.4z"/>
			</g>
		</g>
		<g>
			<g>
				<path class="st25" d="M290.3-99.8c1.1-0.1,2.3,0,3.4,0.2c1.2,0.2,2.3,0.6,3.5,0.4c0.5-0.1,1-0.4,1-1c0-0.5-0.5-1.1-1-1
					c-1.1,0.1-2.1-0.2-3.2-0.4c-1.2-0.2-2.4-0.3-3.6-0.2c-0.5,0-1,0.4-1,1C289.3-100.3,289.7-99.8,290.3-99.8L290.3-99.8z"/>
			</g>
		</g>
		<g>
			<g>
				<path class="st25" d="M296.5-101.7c-1.4,0-2.8-0.2-4.2-0.2c-1.3,0-3,0.3-3.9,1.3c-0.2,0.3-0.4,0.6-0.3,1
					c0.1,0.3,0.4,0.6,0.7,0.7c1.9,0.4,3.8-0.3,5.8-0.1c0.5,0,1-0.5,1-1c0-0.6-0.5-1-1-1c-1.7-0.1-3.5,0.6-5.2,0.2
					c0.1,0.6,0.3,1.1,0.4,1.7c0.3-0.4,0.8-0.5,1.3-0.6c0.5-0.1,1-0.1,1.6-0.1c1.3,0,2.5,0.2,3.8,0.2c0.5,0,1-0.4,1-1
					C297.5-101.3,297.1-101.7,296.5-101.7L296.5-101.7z"/>
			</g>
		</g>
		<g>
			<g>
				<path class="st25" d="M288.9-98.3c0.1,0,0.3,0,0.4-0.1c-0.1,0-0.2,0-0.3,0c0.4-0.1,0.8-0.1,1.2-0.1c0.1,0,0.3,0,0.4-0.1
					c0.1,0,0.2-0.1,0.3-0.2c0.2-0.2,0.3-0.5,0.3-0.7c0-0.3-0.1-0.5-0.3-0.7c-0.2-0.2-0.4-0.3-0.7-0.3c-0.6,0.1-1.3,0.1-1.9,0.2
					c-0.1,0-0.2,0.1-0.3,0.2c-0.1,0.1-0.2,0.2-0.3,0.3c-0.1,0.2-0.2,0.5-0.1,0.8c0.1,0.2,0.2,0.5,0.5,0.6c0.1,0,0.2,0.1,0.2,0.1
					C288.6-98.3,288.8-98.3,288.9-98.3L288.9-98.3z"/>
			</g>
		</g>
		<g>
			<g>
				<path class="st25" d="M310-100.5c-2.2,0.7-4.5,1.2-6.7,0.2c-1-0.4-1.9-0.8-3-1c-0.5-0.1-1.1-0.1-1.6-0.2c-0.6-0.1-1-0.4-1.6-0.4
					c-1.3,0-1.3,2,0,2c0.5,0,1,0,1.5,0.1c0-0.7,0-1.3,0-2c-0.9,0.1-1.8,0-2.7-0.1c-1.3-0.2-1.8,1.7-0.5,1.9c1.4,0.3,2.8,0.1,4.2,0.1
					c1.5,0,2.9,0.3,4.4,0.2c1.1-0.1,1.4-1.7,0.3-2c-0.9-0.2-1.8-0.3-2.7-0.3c-1.3,0-1.3,2,0,2c1.6,0,3.1-0.1,4.7-0.1
					c1.6,0,3.2,0.1,4.8,0.2c-0.1-0.7-0.2-1.3-0.3-2c-2.5,0.9-5.5,1-8.1,1c-1.1,0-1.4,1.8-0.3,2c2.8,0.4,5.5,0.7,8.3,0.3
					c0.5-0.1,0.8-0.8,0.7-1.2C311.1-100.4,310.5-100.6,310-100.5c-2.4,0.3-4.8,0-7.2-0.3c-0.1,0.7-0.2,1.3-0.3,2c1.5,0,3,0,4.5-0.2
					c1.4-0.2,2.9-0.3,4.2-0.8c1.1-0.4,0.9-1.9-0.3-2c-1.6-0.1-3.2-0.2-4.8-0.2c-1.6,0-3.1,0.1-4.7,0.1c0,0.7,0,1.3,0,2
					c0.8,0,1.5,0.1,2.2,0.2c0.1-0.7,0.2-1.3,0.3-2c-1.4,0.1-2.7-0.2-4.1-0.2c-1.3,0-2.6,0.2-3.9,0c-0.2,0.6-0.4,1.3-0.5,1.9
					c1.1,0.2,2.1,0.3,3.2,0.2c1.3-0.1,1.3-1.9,0-2c-0.5,0-1-0.1-1.5-0.1c0,0.7,0,1.3,0,2c0.3,0,0.5,0.2,0.7,0.2
					c0.3,0.1,0.6,0.1,0.9,0.2c0.5,0.1,1.1,0.1,1.6,0.2c1.1,0.3,2.1,0.8,3.2,1.2c2.2,0.7,4.9,0.1,7.1-0.5
					C311.7-98.9,311.2-100.8,310-100.5L310-100.5z"/>
			</g>
		</g>
		<g>
			<g>
				<path class="st25" d="M314.6-101.8c-0.9-0.1-1.8,0-2.5,0.3c-0.5,0.2-0.9,0.4-1.3,0.8c-0.1,0.1-0.2,0.2-0.3,0.4
					c0,0-0.1,0.2-0.1,0.2c0,0,0.2-0.2,0.2-0.2c0,0,0.2-0.1,0.1,0c0.1,0,0.2,0,0.1,0c0,0-0.1,0-0.1,0c0.3,0.5,0.6,1,0.9,1.5
					c0.1-0.2,0.2-0.4,0.3-0.5c0.1-0.1,0.1-0.2,0.2-0.2c0,0,0.1-0.1,0.1-0.1c0,0,0,0,0,0c-0.1,0.1,0,0.1,0,0c0,0,0,0,0.1,0
					c0,0-0.1,0.1-0.1,0.1c0,0,0.1,0,0.1-0.1c0.1,0,0.1-0.1,0.2-0.1c0.2-0.1,0.4-0.2,0.6-0.4c0.3-0.3,0.4-0.8,0.2-1.1
					c-0.1-0.4-0.5-0.6-0.9-0.6c-0.1,0-0.3,0-0.4,0c0,0-0.1,0-0.1,0c0.1,0,0.2,0,0.1,0c0,0-0.1,0-0.1,0c-0.1,0.7-0.2,1.3-0.3,2
					c0.8,0,1.7,0.1,2.5,0.1c0.5,0,1-0.5,1-1c0-0.6-0.4-1-1-1c-0.8,0-1.7-0.1-2.5-0.1c-0.5,0-0.9,0.4-1,0.9c-0.1,0.5,0.2,1,0.7,1.1
					c0.4,0.1,0.7,0.1,1.1,0.1c-0.2-0.6-0.5-1.1-0.7-1.7c0,0,0.2-0.1,0.1-0.1c0,0-0.1,0-0.1,0.1c-0.1,0-0.2,0.1-0.2,0.1
					c-0.2,0.1-0.4,0.2-0.6,0.4c-0.3,0.4-0.6,0.8-0.8,1.2c-0.4,0.7,0.1,1.5,0.9,1.5c0.6,0,1.2-0.2,1.5-0.7c0-0.1,0.1-0.2,0.1-0.2
					c0,0-0.1,0.2,0,0.1c0.1-0.1,0,0-0.1,0c0.2-0.1,0.3-0.2,0.5-0.3c0,0,0.1,0,0.1-0.1c0,0-0.2,0.1,0,0c0.1,0,0.2-0.1,0.3-0.1
					c0.2-0.1,0.4-0.1,0.6-0.1c0.2,0-0.2,0,0,0c0,0,0.1,0,0.1,0c0.1,0,0.2,0,0.3,0c0.2,0,0.4,0,0.6,0c0.2,0,0.5-0.1,0.7-0.3
					c0.2-0.2,0.3-0.5,0.3-0.7c0-0.3-0.1-0.5-0.3-0.7C315.1-101.7,314.9-101.8,314.6-101.8L314.6-101.8z"/>
			</g>
		</g>
		<g>
			<g>
				<path class="st25" d="M321.2-101.9c-2,0-4.1,0.1-6.1-0.1c-0.5-0.1-0.9,0.4-1,0.9c-0.1,0.5,0.2,1,0.7,1.1c1.4,0.3,2.7,0.6,4.1,1
					c0.7,0.2,1.3,0.4,2,0.6c0.3,0.1,0.7,0.2,1,0.4c0.1,0.1,0.3,0.1,0.4,0.2c-0.1,0-0.1,0,0,0c-0.1-0.1-0.1-0.1-0.2-0.2
					c0.4,1.2,2.3,0.7,1.9-0.5c-0.3-0.9-1.1-1.1-1.9-1.4c-0.7-0.3-1.5-0.5-2.2-0.7c-1.5-0.5-3.1-0.8-4.7-1.2c-0.1,0.7-0.2,1.3-0.3,2
					c2,0.2,4,0.2,6.1,0.1C322.5-99.9,322.5-101.9,321.2-101.9L321.2-101.9z"/>
			</g>
		</g>
		<g>
			<g>
				<path class="st25" d="M330.2-97.1c1.4-0.6,2.8-1.2,4.2-1.9c0.5-0.2,0.6-0.9,0.4-1.4c-0.3-0.5-0.9-0.6-1.4-0.4
					c-0.6,0.3-1.3,0.6-1.9,0.9c-0.2,0.1-0.3,0.1-0.5,0.2c-0.1,0-0.1,0.1-0.2,0.1c0,0-0.3,0.2-0.1,0c-0.3,0.2-0.7,0.3-1,0.4
					c-0.3,0.1-0.5,0.2-0.6,0.5c-0.1,0.2-0.2,0.5-0.1,0.8C329.1-97.3,329.7-96.9,330.2-97.1L330.2-97.1z"/>
			</g>
		</g>
		<g>
			<g>
				<path class="st25" d="M321.9-99.9c3.1-0.3,6.3,0.3,9.4,0c0.5,0,1-0.4,1-1c0-0.5-0.5-1-1-1c-3.1,0.3-6.3-0.3-9.4,0
					c-0.5,0-1,0.4-1,1C320.9-100.4,321.3-99.9,321.9-99.9L321.9-99.9z"/>
			</g>
		</g>
		<g>
			<g>
				<path class="st25" d="M333.6-101.9c-1,0-2,0-2.9,0c-0.4,0-0.9,0.3-1,0.7c-0.1,0.4,0.1,0.9,0.5,1.1c0,0,0.1,0.1,0.1,0.1
					c0,0-0.1-0.1-0.1-0.1c0.1,0.1,0.1,0-0.2-0.3c0-0.1,0-0.2,0-0.3c0,0,0,0.1,0,0.1c0-0.1,0-0.2,0-0.3c0.1-0.4,0.2-0.4,0.1-0.2
					c-0.1,0.1-0.1,0.1-0.2,0.2c-0.1,0.1-0.2,0.2-0.3,0.3c-0.3,0.3-0.4,0.6-0.3,1c0.1,0.3,0.4,0.6,0.7,0.7c0.4,0.1,0.8,0.1,1.3,0.1
					c0.4,0,0.8-0.1,1.2-0.2c-0.1,0-0.2,0-0.3,0c0.6-0.1,1.1,0,1.7-0.1c0.5-0.1,0.9-0.7,0.7-1.2c-0.2-0.5-0.7-0.8-1.2-0.7
					c-0.1,0-0.2,0-0.2,0c0.1,0,0.2,0,0.3,0c-0.3,0-0.7,0-1,0c-0.4,0-0.8,0.1-1.2,0.2c0.1,0,0.2,0,0.3,0c-0.3,0-0.7,0-1,0
					c0.1,0,0.2,0,0.3,0c0,0-0.1,0-0.1,0c0.1,0.6,0.3,1.1,0.4,1.7c0.3-0.3,0.8-0.6,0.9-1.1c0.2-0.6-0.2-1.2-0.7-1.5
					c-0.2,0.6-0.3,1.2-0.5,1.9c1,0,2,0,2.9,0c0.5,0,1-0.5,1-1C334.6-101.5,334.2-101.9,333.6-101.9L333.6-101.9z"/>
			</g>
		</g>
		<g>
			<g>
				<path class="st25" d="M340-101.8c-1,0-2.1,0-3.1,0c-0.5,0-1-0.1-1.3-0.1c-0.5-0.1-1.1-0.1-1.6-0.1c-0.5,0.1-1,0.4-1,1
					c0,0.5,0.4,1.1,1,1c1-0.1,1.9,0.2,3,0.2c1,0,2.1,0,3.1,0c0.5,0,1-0.5,1-1C341-101.4,340.6-101.8,340-101.8L340-101.8z"/>
			</g>
		</g>
		<g>
			<g>
				<path class="st25" d="M334-99.2c0.2,0.2,0.3,0.4,0.6,0.6c0.2-0.6,0.3-1.2,0.5-1.9c0.1,0,0.2,0.1,0,0c-0.2,0.6-0.3,1.2-0.5,1.9
					c2.2,0.2,4.3,0.1,6.5-0.3c0.5-0.1,0.9-0.7,0.7-1.2c-0.2-0.5-0.7-0.8-1.2-0.7c-1.9,0.4-3.9,0.5-5.9,0.3c-0.4,0-0.9,0.3-1,0.7
					c-0.1,0.5,0.1,0.9,0.5,1.1c0.3,0.2,0.6,0.3,1,0.3c0.4,0,0.9-0.3,1-0.7c0.1-0.4-0.1-0.9-0.5-1.1c-0.1-0.1-0.1,0,0.1,0.2
					c-0.3-0.4-0.9-0.7-1.4-0.4C333.9-100.3,333.7-99.7,334-99.2L334-99.2z"/>
			</g>
		</g>
		<g>
			<g>
				<path class="st25" d="M340.1-99.7c0.1,0.1,0.2,0.1,0.3,0.2C340.3-99.5,340.2-99.6,340.1-99.7c0.2,0.2,0.4,0.3,0.5,0.5
					c-0.1-0.1-0.1-0.1-0.2-0.2c0.1,0.2,0.3,0.4,0.4,0.6c0.1,0.2,0.2,0.3,0.3,0.5c0.1,0.1,0.3,0.3,0.4,0.4c0.1,0,0.2,0.1,0.2,0.1
					c0.1,0,0.2,0,0.3,0c0.2,0,0.4-0.1,0.6-0.2c0.1-0.1,0.2-0.2,0.3-0.4c0.1-0.2,0.1-0.5,0.1-0.7c-0.1-0.2-0.2-0.4-0.3-0.6
					c-0.1-0.1-0.2-0.2-0.4-0.3c0.1,0.1,0.1,0.1,0.2,0.2c0,0,0,0-0.1-0.1c0.1,0.1,0.1,0.1,0.2,0.2c0,0,0,0,0,0c0,0.1,0.1,0.2,0.1,0.2
					c0,0,0,0,0,0c0,0.1,0,0.2,0,0.3c0,0,0,0,0,0c0,0.1,0,0.2,0,0.3c0,0,0,0,0,0c0,0.1-0.1,0.2-0.1,0.2c0,0,0,0,0,0
					c-0.1,0.1-0.1,0.1-0.2,0.2c0,0,0,0,0,0c-0.1,0.1-0.1,0.1-0.2,0.2c0,0,0,0,0,0c-0.1,0-0.2,0.1-0.2,0.1c0,0,0,0,0,0
					c-0.1,0-0.2,0-0.3,0c0,0,0,0,0,0c-0.1,0-0.2,0-0.3,0c0,0,0,0,0,0c-0.1,0-0.2-0.1-0.2-0.1c0,0,0,0,0.1,0
					c-0.1-0.1-0.1-0.1-0.2-0.2c0,0,0,0,0,0c-0.1-0.1-0.1-0.1-0.2-0.2c0,0,0,0,0,0.1c0-0.1-0.1-0.2-0.1-0.2c0,0.1,0,0.2,0.1,0.3
					c0.1,0.2,0.1,0.3,0.2,0.5c0.2,0.3,0.5,0.6,0.9,0.7c0.6,0.2,1.3-0.2,1.4-0.8c0.2-0.6-0.2-1.2-0.8-1.4c-0.2-0.1-0.6,0-0.8,0.1
					c-0.2,0.1-0.4,0.4-0.5,0.6c-0.1,0.5,0.2,1.1,0.7,1.2c0,0,0,0,0,0c-0.1,0-0.2-0.1-0.2-0.1c0,0,0,0,0,0c-0.1-0.1-0.1-0.1-0.2-0.2
					c0,0,0,0,0,0c-0.1-0.1-0.1-0.1-0.2-0.2c0,0,0,0,0,0c0-0.1-0.1-0.2-0.1-0.2c0,0,0,0,0,0c0-0.1,0-0.2,0-0.3c0,0,0,0,0,0
					c0-0.1,0-0.2,0-0.3c0,0,0,0,0,0c0-0.1,0.1-0.2,0.1-0.2c0,0,0,0,0,0c0.1-0.1,0.1-0.1,0.2-0.2c0,0,0,0,0,0
					c0.1-0.1,0.1-0.1,0.2-0.2c0,0,0,0,0,0c0.1,0,0.2-0.1,0.2-0.1c0,0,0,0-0.1,0c0.1,0,0.2,0,0.3,0c0,0,0,0-0.1,0c0.1,0,0.2,0,0.3,0
					c0,0,0,0-0.1,0c0.1,0,0.2,0.1,0.2,0.1c0,0-0.1,0-0.1,0c0.1,0.1,0.1,0.1,0.2,0.2c0,0,0,0-0.1-0.1c0.1,0.1,0.1,0.1,0.2,0.2
					c-0.1-0.1-0.1-0.2-0.2-0.3c0,0.1,0.1,0.2,0.1,0.2c-0.1-0.2-0.1-0.4-0.2-0.6c-0.3-0.5-1-0.7-1.5-0.4c-0.4,0.3-0.6,0.8-0.5,1.3
					c0.1,0.2,0.2,0.4,0.3,0.5c0.1,0.1,0.2,0.2,0.4,0.3c-0.1-0.1-0.1-0.1-0.2-0.2c0,0,0,0,0.1,0.1c-0.1-0.1-0.1-0.1-0.2-0.2
					c0,0,0,0,0,0c0-0.1-0.1-0.2-0.1-0.2c0,0,0,0,0,0c0.5-0.4,1-0.8,1.5-1.1c0,0,0,0,0,0c0.1,0.1,0.1,0.1,0.2,0.2
					c-0.1-0.1-0.2-0.2-0.3-0.3c0.1,0.1,0.1,0.1,0.2,0.2c-0.2-0.3-0.4-0.6-0.7-0.9c-0.2-0.3-0.6-0.6-0.9-0.8
					c-0.2-0.1-0.5-0.2-0.8-0.1c-0.2,0.1-0.5,0.2-0.6,0.5c-0.1,0.2-0.2,0.5-0.1,0.8C339.7-100,339.8-99.8,340.1-99.7L340.1-99.7z"/>
			</g>
		</g>
		<g>
			<g>
				<path class="st25" d="M342.9-99.5c-0.2,0-0.5,0-0.7,0c-0.1,0-0.2,0-0.3,0c0.1,0,0.1,0,0,0c-0.1,0-0.1,0-0.2,0
					c-0.5-0.1-0.9-0.2-1.3-0.3c-1-0.2-2-0.3-3-0.3c-0.5,0-1,0.5-1,1c0,0.6,0.4,1,1,1c1,0.1,1.8,0.1,2.7,0.3c0.4,0.1,0.9,0.3,1.3,0.3
					c0.5,0.1,1.1,0.1,1.6,0.1c0.5,0,1-0.5,1-1C343.9-99.1,343.5-99.6,342.9-99.5L342.9-99.5z"/>
			</g>
		</g>
		<g>
			<g>
				<path class="st25" d="M335.7-98.6c-0.2,0,0.1,0,0.1,0c0.1,0,0.1,0,0,0c0.1,0,0.1,0,0.2,0c0.2,0,0.4,0.1,0.5,0.1
					c0.5,0.1,0.9,0.2,1.4,0.2c0.4,0,0.8,0,1.2,0c0.2,0,0.4,0,0.6,0c-0.2,0,0,0,0.1,0c0.1,0,0.2,0.1,0.4,0.1c0.5,0.1,1.1-0.2,1.2-0.7
					c0.1-0.5-0.2-1.1-0.7-1.2c-0.9-0.3-1.8-0.2-2.8-0.2c-0.1,0-0.2,0-0.3,0c-0.1,0-0.1,0-0.2,0c0.1,0,0.1,0,0,0
					c-0.2,0-0.4-0.1-0.6-0.1c-0.6-0.1-1.1-0.2-1.7-0.1c-0.5,0.1-0.9,0.8-0.7,1.2C334.7-98.7,335.2-98.5,335.7-98.6L335.7-98.6z"/>
			</g>
		</g>
		<g>
			<g>
				<path class="st25" d="M340.6-99.6c-0.1,0-0.2,0-0.4,0c0,0-0.3,0-0.1,0c-0.2,0-0.4-0.1-0.6-0.2c-0.4-0.1-0.8-0.2-1.2-0.3
					c-0.9-0.2-1.8-0.3-2.7-0.2c-0.5,0-0.9,0.3-1,0.9c-0.1,0.4,0.2,1,0.7,1.1c1,0.1,2,0.3,3,0.4c0.3,0,0.5,0,0.8-0.1
					c0.2-0.1,0.4-0.4,0.5-0.6c0.1-0.5-0.1-1.2-0.7-1.2c-1-0.1-2-0.3-3-0.4c-0.1,0.7-0.2,1.3-0.3,2c0.4,0,0.9,0,1.3,0
					c0.2,0-0.1,0,0.1,0c0.1,0,0.2,0,0.3,0c0.2,0,0.4,0.1,0.6,0.1c0.9,0.2,1.7,0.6,2.7,0.5c0.5-0.1,1-0.4,1-1
					C341.6-99.1,341.1-99.7,340.6-99.6L340.6-99.6z"/>
			</g>
		</g>
		<g>
			<path class="st26" d="M296.7-99.1c5.9,3.7,12,3.6,18.3,0"/>
			<path class="st26" d="M333.8-98.7c-5.9,3.4-12.2,2.9-18.8-0.4"/>
			<path class="st26" d="M340.3-101.9c6.7,4.7,3.2,5.1-6.5,3"/>
			<path class="st26" d="M289.4-101.9c-6.4,5-2.6,5.3,7.3,2.7"/>
		</g>
		<line class="st26" x1="289.4" y1="-101.9" x2="340.3" y2="-101.9"/>
	</g>
	<path class="st27" d="M338.4-101.9h-46.8c-2.4,0-4.3-1.9-4.3-4.3v0c0-2.4,1.9-4.3,4.3-4.3h46.8c2.4,0,4.3,1.9,4.3,4.3v0
		C342.7-103.8,340.8-101.9,338.4-101.9z"/>
	<polygon class="st28" points="315,-106.2 339.8,-110.5 290.2,-110.5 	"/>
	<path class="st29" d="M338.1-110.8h-46.3c-1,0-1.9-0.8-1.9-1.9l0,0c0-1,0.8-1.9,1.9-1.9h46.3c1,0,1.9,0.8,1.9,1.9l0,0
		C340-111.7,339.2-110.8,338.1-110.8z"/>
	<path class="st30" d="M317.3-122.7c0,0.8-1.1,1.5-2,1.5c-0.8,0-1.5-0.7-1.5-1.5c0-0.8,0.7-1.5,1.5-1.5
		C316.2-124.2,317.3-123.5,317.3-122.7z"/>
	<path class="st30" d="M330.7-124c0,0.8-1.1,1.5-2,1.5c-0.8,0-1.5-0.7-1.5-1.5c0-0.8,0.7-1.5,1.5-1.5
		C329.6-125.4,330.7-124.8,330.7-124z"/>
	<path class="st30" d="M325.5-120.7c0,0.8-1.1,1.5-2,1.5c-0.8,0-1.5-0.7-1.5-1.5c0-0.8,0.7-1.5,1.5-1.5
		C324.4-122.2,325.5-121.6,325.5-120.7z"/>
	<path class="st30" d="M318.8-118.3c0,0.8-1.1,1.5-2,1.5c-0.8,0-1.5-0.7-1.5-1.5c0-0.8,0.7-1.5,1.5-1.5
		C317.6-119.7,318.8-119.1,318.8-118.3z"/>
	<path class="st30" d="M336.1-118.3c0,0.8-1.1,1.5-2,1.5c-0.8,0-1.5-0.7-1.5-1.5c0-0.8,0.7-1.5,1.5-1.5
		C335-119.7,336.1-119.1,336.1-118.3z"/>
	<path class="st30" d="M320.8-126.4c0,0.8-1.1,1.5-2,1.5c-0.8,0-1.5-0.7-1.5-1.5c0-0.8,0.7-1.5,1.5-1.5
		C319.6-127.8,320.8-127.2,320.8-126.4z"/>
	<path class="st30" d="M299.9-122.2c0,0.8-1.1,1.5-2,1.5c-0.8,0-1.5-0.7-1.5-1.5s0.7-1.5,1.5-1.5C298.7-123.7,299.9-123,299.9-122.2
		z"/>
	<path class="st30" d="M312.4-121.2c0,0.8-1.1,1.5-2,1.5c-0.8,0-1.5-0.7-1.5-1.5c0-0.8,0.7-1.5,1.5-1.5
		C311.2-122.7,312.4-122,312.4-121.2z"/>
	<path class="st30" d="M307.3-118.8c0,0.8-1.1,1.5-2,1.5c-0.8,0-1.5-0.7-1.5-1.5c0-0.8,0.7-1.5,1.5-1.5
		C306.2-120.2,307.3-119.6,307.3-118.8z"/>
	<path class="st30" d="M308.4-125.7c0,0.8-1.1,1.5-2,1.5s-1.5-0.7-1.5-1.5c0-0.8,0.7-1.5,1.5-1.5S308.4-126.5,308.4-125.7z"/>
	<path class="st30" d="M301.6-117.3c0,0.8-1.1,1.5-2,1.5c-0.8,0-1.5-0.7-1.5-1.5c0-0.8,0.7-1.5,1.5-1.5
		C300.5-118.8,301.6-118.1,301.6-117.3z"/>
</g>
<g>
	<g>
		<path class="st31" d="M-28.4-47.4c-0.9,0.1-1.4-0.3-1.7-1.1c0.8-0.2,1.4-0.3,1.4-0.3S-28.5-48.2-28.4-47.4z"/>
		<path class="st31" d="M-29.4-39c-0.9,1.3-1.8,2.5-2.9,3.3l-6.8-4.3c0.3-1.3,1-2.7,1.8-4c1.8-2.8,5.3-4,7.2-4.5
			c0.3,0.8,0.9,1.2,1.7,1.1C-28-45.4-27.6-41.8-29.4-39z"/>
		<line class="st31" x1="-28.4" y1="-47.4" x2="-28.4" y2="-47.4"/>
	</g>
	<g>
		<path class="st31" d="M-49.8-48.3c-0.4,0.8-1,1.1-1.8,0.9c0.2-0.8,0.5-1.3,0.5-1.3S-50.6-48.6-49.8-48.3z"/>
		<path class="st31" d="M-43-43.1c0.7,1.4,1.2,2.8,1.4,4.1l-7.1,3.7c-0.9-0.9-1.8-2.2-2.6-3.6c-1.5-3-0.9-6.6-0.3-8.5
			c0.9,0.2,1.4-0.2,1.8-0.9C-47.9-47.6-44.6-46.1-43-43.1z"/>
		<line class="st31" x1="-49.8" y1="-48.3" x2="-49.8" y2="-48.3"/>
	</g>
	<g>
		<path class="st31" d="M-39-50.7c-0.7,0.5-1.4,0.5-2-0.1c0.6-0.6,1.1-0.9,1.1-0.9S-39.5-51.4-39-50.7z"/>
		<path class="st31" d="M-35.7-42.9c-0.1,1.6-0.4,3.1-0.8,4.3l-8-0.3c-0.3-1.3-0.5-2.8-0.4-4.4c0.1-3.3,2.5-6.1,4-7.5
			c0.7,0.6,1.3,0.6,2,0.1C-37.7-49.2-35.5-46.2-35.7-42.9z"/>
		<line class="st31" x1="-39" y1="-50.7" x2="-39" y2="-50.7"/>
	</g>
	<g>
		<path class="st32" d="M-61.3-30.1c0.5,0.7,0.5,1.4-0.1,2c-0.6-0.6-0.9-1.1-0.9-1.1S-61.9-29.6-61.3-30.1z"/>
		<path class="st32" d="M-53.5-33.4c1.6,0.1,3.1,0.4,4.3,0.8l-0.3,8c-1.3,0.3-2.8,0.5-4.4,0.4c-3.3-0.1-6.1-2.5-7.5-4
			c0.6-0.7,0.6-1.3,0.1-2C-59.8-31.4-56.8-33.6-53.5-33.4z"/>
		<line class="st32" x1="-61.3" y1="-30.1" x2="-61.3" y2="-30.1"/>
	</g>
	<g>
		<path class="st32" d="M-58-40.7c0.1,0.9-0.3,1.4-1.1,1.7c-0.2-0.8-0.3-1.4-0.3-1.4S-58.8-40.6-58-40.7z"/>
		<path class="st32" d="M-49.5-39.7c1.3,0.9,2.5,1.8,3.3,2.9l-4.3,6.8c-1.3-0.3-2.7-1-4-1.8c-2.8-1.8-4-5.3-4.5-7.2
			c0.8-0.3,1.2-0.9,1.1-1.7C-56-41.1-52.4-41.5-49.5-39.7z"/>
		<line class="st32" x1="-58" y1="-40.8" x2="-58" y2="-40.7"/>
	</g>
	<g>
		<path class="st33" d="M-51.3-11.1c0.9-0.1,1.4,0.3,1.7,1.1C-50.4-9.8-51-9.7-51-9.7S-51.2-10.3-51.3-11.1z"/>
		<path class="st33" d="M-50.3-19.6c0.9-1.3,1.8-2.5,2.9-3.3l6.8,4.3c-0.3,1.3-1,2.7-1.8,4c-1.8,2.8-5.3,4-7.2,4.5
			c-0.3-0.8-0.9-1.2-1.7-1.1C-51.7-13.1-52-16.7-50.3-19.6z"/>
		<line class="st33" x1="-51.3" y1="-11.1" x2="-51.3" y2="-11.1"/>
	</g>
	<g>
		<path class="st33" d="M-58.9-19.3c0.8,0.4,1.1,1,0.9,1.8c-0.8-0.2-1.3-0.5-1.3-0.5S-59.1-18.5-58.9-19.3z"/>
		<path class="st33" d="M-53.7-26.1c1.4-0.7,2.8-1.2,4.1-1.4l3.7,7.1c-0.9,0.9-2.2,1.8-3.6,2.6c-3,1.5-6.6,0.9-8.5,0.3
			c0.2-0.9-0.2-1.4-0.9-1.8C-58.2-21.2-56.7-24.5-53.7-26.1z"/>
		<line class="st33" x1="-58.9" y1="-19.3" x2="-58.9" y2="-19.3"/>
	</g>
	<g>
		<path class="st33" d="M-29.9-10.3c0.4-0.8,1-1.1,1.8-0.9c-0.2,0.8-0.5,1.3-0.5,1.3S-29.1-10-29.9-10.3z"/>
		<path class="st33" d="M-36.6-15.4c-0.7-1.4-1.2-2.8-1.4-4.1l7.1-3.7c0.9,0.9,1.8,2.2,2.6,3.6c1.5,3,0.9,6.6,0.3,8.5
			c-0.9-0.2-1.4,0.2-1.8,0.9C-31.8-10.9-35.1-12.4-36.6-15.4z"/>
		<line class="st33" x1="-29.9" y1="-10.3" x2="-29.9" y2="-10.3"/>
	</g>
	<g>
		<path class="st32" d="M-40.7-7.8c0.7-0.5,1.4-0.5,2,0.1c-0.6,0.6-1.1,0.9-1.1,0.9S-40.2-7.2-40.7-7.8z"/>
		<path class="st32" d="M-44-15.6c0.1-1.6,0.4-3.1,0.8-4.3l8,0.3c0.3,1.3,0.5,2.8,0.4,4.4c-0.1,3.3-2.5,6.1-4,7.5
			c-0.7-0.6-1.3-0.6-2-0.1C-42-9.3-44.2-12.3-44-15.6z"/>
		<line class="st32" x1="-40.7" y1="-7.8" x2="-40.7" y2="-7.8"/>
	</g>
	<g>
		<path class="st34" d="M-18.4-28.4c-0.5-0.7-0.5-1.4,0.1-2c0.6,0.6,0.9,1.1,0.9,1.1S-17.7-29-18.4-28.4z"/>
		<path class="st34" d="M-26.2-25.1c-1.6-0.1-3.1-0.4-4.3-0.8l0.3-8c1.3-0.3,2.8-0.5,4.4-0.4c3.3,0.1,6.1,2.5,7.5,4
			c-0.6,0.7-0.6,1.3-0.1,2C-19.9-27.1-22.9-25-26.2-25.1z"/>
		<line class="st34" x1="-18.4" y1="-28.4" x2="-18.4" y2="-28.4"/>
	</g>
	<g>
		<path class="st34" d="M-21.7-17.8c-0.1-0.9,0.3-1.4,1.1-1.7c0.2,0.8,0.3,1.4,0.3,1.4S-20.9-17.9-21.7-17.8z"/>
		<path class="st34" d="M-30.1-18.8c-1.3-0.9-2.5-1.8-3.3-2.9l4.3-6.8c1.3,0.3,2.7,1,4,1.8c2.8,1.8,4,5.3,4.5,7.2
			c-0.8,0.3-1.2,0.9-1.1,1.7C-23.7-17.4-27.3-17.1-30.1-18.8z"/>
		<line class="st34" x1="-21.7" y1="-17.8" x2="-21.7" y2="-17.8"/>
	</g>
	<g>
		<path class="st34" d="M-20.8-39.2c-0.8-0.4-1.1-1-0.9-1.8c0.8,0.2,1.3,0.5,1.3,0.5S-20.5-40-20.8-39.2z"/>
		<path class="st34" d="M-26-32.5c-1.4,0.7-2.8,1.2-4.1,1.4l-3.7-7.1c0.9-0.9,2.2-1.8,3.6-2.6c3-1.5,6.6-0.9,8.5-0.3
			c-0.2,0.9,0.2,1.4,0.9,1.8C-21.5-37.3-23-34-26-32.5z"/>
		<line class="st34" x1="-20.8" y1="-39.2" x2="-20.8" y2="-39.2"/>
	</g>
	<g>
		<path class="st31" d="M-36-44.3c-0.6,0.2-1.1,0.1-1.4-0.4c0.5-0.3,0.9-0.5,0.9-0.5S-36.3-44.8-36-44.3z"/>
		<path class="st31" d="M-34.8-38.3c-0.3,1.1-0.7,2.1-1.2,2.9l-5.6-1.4c-0.1-1,0.1-2,0.3-3.2c0.6-2.3,2.7-3.9,3.9-4.7
			c0.4,0.5,0.9,0.6,1.4,0.4C-35.3-43-34.2-40.6-34.8-38.3z"/>
		<line class="st31" x1="-36" y1="-44.3" x2="-36" y2="-44.3"/>
	</g>
	<g>
		<path class="st32" d="M-50.9-40.1c-0.1,0.6-0.4,1-1,1.1c0-0.6,0-1,0-1S-51.6-40.1-50.9-40.1z"/>
		<path class="st32" d="M-45.1-38.1c0.8,0.8,1.5,1.7,1.9,2.5l-4.1,4.1c-0.9-0.4-1.7-1.1-2.6-1.9c-1.7-1.7-2.1-4.3-2.1-5.8
			c0.6-0.1,1-0.4,1-1.1C-49.5-40.1-46.9-39.8-45.1-38.1z"/>
		<line class="st32" x1="-50.9" y1="-40.1" x2="-50.9" y2="-40.1"/>
	</g>
	<g>
		<path class="st31" d="M-44-44.2c-0.4,0.5-0.9,0.6-1.4,0.4c0.3-0.5,0.5-0.9,0.5-0.9S-44.6-44.5-44-44.2z"/>
		<path class="st31" d="M-40-39.6c0.3,1.1,0.4,2.2,0.4,3.2l-5.6,1.6c-0.5-0.8-1-1.8-1.3-2.9c-0.7-2.3,0.4-4.8,1.1-6
			c0.6,0.2,1.1,0.1,1.4-0.4C-42.8-43.5-40.7-41.9-40-39.6z"/>
		<line class="st31" x1="-44" y1="-44.2" x2="-44" y2="-44.2"/>
	</g>
	<g>
		<path class="st32" d="M-54.8-25.1c0.5,0.4,0.6,0.9,0.4,1.4c-0.5-0.3-0.9-0.5-0.9-0.5S-55.1-24.5-54.8-25.1z"/>
		<path class="st32" d="M-50.1-29.1c1.1-0.3,2.2-0.4,3.2-0.4l1.6,5.6c-0.8,0.5-1.8,1-2.9,1.3c-2.3,0.7-4.8-0.4-6-1.1
			c0.2-0.6,0.1-1.1-0.4-1.4C-54-26.3-52.4-28.4-50.1-29.1z"/>
		<line class="st32" x1="-54.8" y1="-25.1" x2="-54.8" y2="-25.1"/>
	</g>
	<g>
		<path class="st32" d="M-54.9-33.1c0.2,0.6,0.1,1.1-0.4,1.4c-0.3-0.5-0.5-0.9-0.5-0.9S-55.4-32.8-54.9-33.1z"/>
		<path class="st32" d="M-48.8-34.3c1.1,0.3,2.1,0.7,2.9,1.2l-1.4,5.6c-1,0.1-2-0.1-3.2-0.3c-2.3-0.6-3.9-2.7-4.7-3.9
			c0.5-0.4,0.6-0.9,0.4-1.4C-53.6-33.8-51.2-34.9-48.8-34.3z"/>
		<line class="st32" x1="-54.9" y1="-33.1" x2="-54.9" y2="-33.1"/>
	</g>
	<g>
		<path class="st33" d="M-43.7-14.2c0.6-0.2,1.1-0.1,1.4,0.4c-0.5,0.3-0.9,0.5-0.9,0.5S-43.4-13.7-43.7-14.2z"/>
		<path class="st33" d="M-44.8-20.3c0.3-1.1,0.7-2.1,1.2-2.9l5.6,1.4c0.1,1-0.1,2-0.3,3.2c-0.6,2.3-2.7,3.9-3.9,4.7
			c-0.4-0.5-0.9-0.6-1.4-0.4C-44.4-15.5-45.4-17.9-44.8-20.3z"/>
		<line class="st33" x1="-43.7" y1="-14.2" x2="-43.7" y2="-14.2"/>
	</g>
	<g>
		<path class="st33" d="M-50.7-18.2c0.6,0.1,1,0.4,1.1,1c-0.6,0-1,0-1,0S-50.7-17.5-50.7-18.2z"/>
		<path class="st33" d="M-48.7-24c0.8-0.8,1.7-1.5,2.5-1.9l4.1,4.1c-0.4,0.9-1.1,1.7-1.9,2.6c-1.7,1.7-4.3,2.1-5.8,2.1
			c-0.1-0.6-0.4-1-1.1-1C-50.7-19.6-50.3-22.2-48.7-24z"/>
		<line class="st33" x1="-50.7" y1="-18.2" x2="-50.7" y2="-18.2"/>
	</g>
	<g>
		<path class="st34" d="M-28.7-18.4c0.1-0.6,0.4-1,1-1.1c0,0.6,0,1,0,1S-28.1-18.4-28.7-18.4z"/>
		<path class="st34" d="M-34.5-20.4c-0.8-0.8-1.5-1.7-1.9-2.5l4.1-4.1c0.9,0.4,1.7,1.1,2.6,1.9c1.7,1.7,2.1,4.3,2.1,5.8
			c-0.6,0.1-1,0.4-1,1.1C-30.2-18.5-32.8-18.8-34.5-20.4z"/>
		<line class="st34" x1="-28.7" y1="-18.4" x2="-28.7" y2="-18.4"/>
	</g>
	<g>
		<path class="st32" d="M-35.6-14.3c0.4-0.5,0.9-0.6,1.4-0.4c-0.3,0.5-0.5,0.9-0.5,0.9S-35.1-14-35.6-14.3z"/>
		<path class="st32" d="M-39.7-19c-0.3-1.1-0.4-2.2-0.4-3.2l5.6-1.6c0.5,0.8,1,1.8,1.3,2.9c0.7,2.3-0.4,4.8-1.1,6
			c-0.6-0.2-1.1-0.1-1.4,0.4C-36.9-15.1-39-16.7-39.7-19z"/>
		<line class="st32" x1="-35.7" y1="-14.3" x2="-35.6" y2="-14.3"/>
	</g>
	<g>
		<path class="st34" d="M-24.9-33.5c-0.5-0.4-0.6-0.9-0.4-1.4c0.5,0.3,0.9,0.5,0.9,0.5S-24.6-34-24.9-33.5z"/>
		<path class="st34" d="M-29.6-29.4c-1.1,0.3-2.2,0.4-3.2,0.4l-1.6-5.6c0.8-0.5,1.8-1,2.9-1.3c2.3-0.7,4.8,0.4,6,1.1
			c-0.2,0.6-0.1,1.1,0.4,1.4C-25.6-32.2-27.2-30.1-29.6-29.4z"/>
		<line class="st34" x1="-24.9" y1="-33.5" x2="-24.9" y2="-33.5"/>
	</g>
	<g>
		<path class="st34" d="M-24.8-25.4c-0.2-0.6-0.1-1.1,0.4-1.4c0.3,0.5,0.5,0.9,0.5,0.9S-24.3-25.7-24.8-25.4z"/>
		<path class="st34" d="M-30.8-24.3c-1.1-0.3-2.1-0.7-2.9-1.2l1.4-5.6c1-0.1,2,0.1,3.2,0.3c2.3,0.6,3.9,2.7,4.7,3.9
			c-0.5,0.4-0.6,0.9-0.4,1.4C-26.1-24.7-28.5-23.7-30.8-24.3z"/>
		<line class="st34" x1="-24.8" y1="-25.4" x2="-24.8" y2="-25.4"/>
	</g>
	<g>
		<path class="st34" d="M-29-40.4c-0.6-0.1-1-0.4-1.1-1c0.6,0,1,0,1,0S-29-41-29-40.4z"/>
		<path class="st34" d="M-31-34.6c-0.8,0.8-1.7,1.5-2.5,1.9l-4.1-4.1c0.4-0.9,1.1-1.7,1.9-2.6c1.7-1.7,4.3-2.1,5.8-2.1
			c0.1,0.6,0.4,1,1.1,1C-29-38.9-29.3-36.3-31-34.6z"/>
		<line class="st34" x1="-29" y1="-40.4" x2="-29" y2="-40.4"/>
	</g>
	<g>
		<path class="st35" d="M-40-29.2c-0.7,0.1-1.1,0.5-1.3,1l0,0c-0.4,0.6-1.1,1-1.7-0.4c-0.3-0.8,0.1-1.2,1-1.4
			C-41.6-29.4-40.8-29.3-40-29.2z"/>
		<path class="st36" d="M-40.9-25.2c-5.3-0.9-5.6-3.7-2.2-7.8c0.1,1.2,0.5,2.1,1.1,2.9c-0.9,0.2-1.3,0.7-1,1.4
			c0.6,1.4,1.3,0.9,1.7,0.4c0,0,0,0.1-0.1,0.1C-41.5-27-41.4-26-40.9-25.2z"/>
	</g>
	<g>
		<path class="st35" d="M-40-29.2c-0.5,0.4-0.7,0.9-0.7,1.5l0,0c-0.1,0.7-0.4,1.4-1.6,0.5c-0.7-0.5-0.5-1.1,0.1-1.7
			C-41.5-28.6-40.7-28.9-40-29.2z"/>
		<path class="st36" d="M-38.7-25.3c-5,1.8-6.7-0.4-5.8-5.6c0.7,0.9,1.5,1.6,2.4,2c-0.6,0.6-0.8,1.2-0.1,1.7
			c1.2,0.9,1.6,0.2,1.6-0.5c0,0.1,0,0.1,0,0.1C-40.2-26.5-39.6-25.7-38.7-25.3z"/>
	</g>
	<g>
		<path class="st35" d="M-40-29.2c-0.2,0.6-0.1,1.2,0.2,1.7l0,0c0.3,0.6,0.3,1.4-1.2,1.2c-0.8-0.1-1-0.7-0.8-1.6
			C-40.9-28-40.5-28.6-40-29.2z"/>
		<path class="st36" d="M-36.9-26.4c-3.4,4.1-6,3-7.9-2c1.1,0.5,2.1,0.6,3.1,0.5c-0.2,0.9-0.1,1.4,0.8,1.6c1.5,0.2,1.4-0.6,1.2-1.2
			c0,0,0.1,0.1,0.1,0.1C-38.8-26.8-37.9-26.4-36.9-26.4z"/>
	</g>
	<g>
		<path class="st37" d="M-40-29.2c0.1,0.7,0.5,1.1,1,1.3l0,0c0.6,0.4,1,1.1-0.4,1.7c-0.8,0.3-1.2-0.1-1.4-1
			C-40.2-27.7-40.1-28.4-40-29.2z"/>
		<path class="st37" d="M-35.9-28.3c-0.9,5.3-3.7,5.6-7.8,2.2c1.2-0.1,2.1-0.5,2.9-1.1c0.2,0.9,0.7,1.3,1.4,1
			c1.4-0.6,0.9-1.3,0.4-1.7c0,0,0.1,0,0.1,0.1C-37.7-27.7-36.7-27.9-35.9-28.3z"/>
	</g>
	<g>
		<path class="st37" d="M-40-29.2c0.4,0.5,0.9,0.7,1.5,0.7l0,0c0.7,0.1,1.4,0.4,0.5,1.6c-0.5,0.7-1.1,0.5-1.7-0.1
			C-39.4-27.8-39.6-28.5-40-29.2z"/>
		<path class="st37" d="M-36-30.5c1.8,5-0.4,6.7-5.6,5.8c0.9-0.7,1.6-1.5,2-2.4c0.6,0.6,1.2,0.8,1.7,0.1c0.9-1.2,0.2-1.6-0.5-1.6
			c0.1,0,0.1,0,0.1,0C-37.3-29-36.5-29.7-36-30.5z"/>
	</g>
	<g>
		<path class="st38" d="M-40-29.2c0.6,0.2,1.2,0.1,1.7-0.2l0,0c0.6-0.3,1.4-0.3,1.2,1.2c-0.1,0.8-0.7,1-1.6,0.8
			C-38.7-28.3-39.3-28.8-40-29.2z"/>
		<path class="st38" d="M-37.2-32.3c4.1,3.4,3,6-2,7.9c0.5-1.1,0.6-2.1,0.5-3.1c0.9,0.2,1.4,0.1,1.6-0.8c0.2-1.5-0.6-1.4-1.2-1.2
			c0,0,0.1-0.1,0.1-0.1C-37.5-30.4-37.2-31.4-37.2-32.3z"/>
	</g>
	<g>
		<path class="st38" d="M-40-29.2c0.7-0.1,1.1-0.5,1.3-1l0,0c0.4-0.6,1.1-1,1.7,0.4c0.3,0.8-0.1,1.2-1,1.4
			C-38.4-29-39.2-29.2-40-29.2z"/>
		<path class="st38" d="M-39.1-33.3c5.3,0.9,5.6,3.7,2.2,7.8c-0.1-1.2-0.5-2.1-1.1-2.9c0.9-0.2,1.3-0.7,1-1.4
			c-0.6-1.4-1.3-0.9-1.7-0.4c0,0,0-0.1,0.1-0.1C-38.4-31.5-38.6-32.5-39.1-33.3z"/>
	</g>
	<g>
		<path class="st38" d="M-40-29.2c0.5-0.4,0.7-0.9,0.7-1.5l0,0c0.1-0.7,0.4-1.4,1.6-0.5c0.7,0.5,0.5,1.1-0.1,1.7
			C-38.5-29.9-39.3-29.6-40-29.2z"/>
		<path class="st38" d="M-41.3-33.2c5-1.8,6.7,0.4,5.8,5.6c-0.7-0.9-1.5-1.6-2.4-2c0.6-0.6,0.8-1.2,0.1-1.7
			c-1.2-0.9-1.6-0.2-1.6,0.5c0-0.1,0-0.1,0-0.1C-39.8-32-40.4-32.7-41.3-33.2z"/>
	</g>
	<g>
		<path class="st38" d="M-40-29.2c0.2-0.6,0.1-1.2-0.2-1.7l0,0c-0.3-0.6-0.3-1.4,1.2-1.2c0.8,0.1,1,0.7,0.8,1.6
			C-39-30.5-39.5-29.9-40-29.2z"/>
		<path class="st38" d="M-43.1-32c3.4-4.1,6-3,7.9,2c-1.1-0.5-2.1-0.6-3.1-0.5c0.2-0.9,0.1-1.4-0.8-1.6c-1.5-0.2-1.4,0.6-1.2,1.2
			c0,0-0.1-0.1-0.1-0.1C-41.2-31.7-42.1-32-43.1-32z"/>
	</g>
	<g>
		<path class="st38" d="M-40-29.2c-0.1-0.7-0.5-1.1-1-1.3l0,0c-0.6-0.4-1-1.1,0.4-1.7c0.8-0.3,1.2,0.1,1.4,1
			C-39.8-30.8-39.9-30-40-29.2z"/>
		<path class="st38" d="M-44.1-30.1c0.9-5.3,3.7-5.6,7.8-2.2c-1.2,0.1-2.1,0.5-2.9,1.1c-0.2-0.9-0.7-1.3-1.4-1
			c-1.4,0.6-0.9,1.3-0.4,1.7c0,0-0.1,0-0.1-0.1C-42.3-30.8-43.3-30.6-44.1-30.1z"/>
	</g>
	<g>
		<path class="st38" d="M-40-29.2c-0.4-0.5-0.9-0.7-1.5-0.7l0,0c-0.7-0.1-1.4-0.4-0.5-1.6c0.5-0.7,1.1-0.5,1.7,0.1
			C-40.6-30.7-40.3-30-40-29.2z"/>
		<path class="st38" d="M-44-28c-1.8-5,0.4-6.7,5.6-5.8c-0.9,0.7-1.6,1.5-2,2.4c-0.6-0.6-1.2-0.8-1.7-0.1c-0.9,1.2-0.2,1.6,0.5,1.6
			c-0.1,0-0.1,0-0.1,0C-42.7-29.4-43.5-28.8-44-28z"/>
	</g>
	<g>
		<path class="st39" d="M-40-29.2c-0.6-0.2-1.2-0.1-1.7,0.2l0,0c-0.6,0.3-1.4,0.3-1.2-1.2c0.1-0.8,0.7-1,1.6-0.8
			C-41.3-30.2-40.7-29.7-40-29.2z"/>
		<path class="st39" d="M-42.8-26.2c-4.1-3.4-3-6,2-7.9c-0.5,1.1-0.6,2.1-0.5,3.1c-0.9-0.2-1.4-0.1-1.6,0.8
			c-0.2,1.5,0.6,1.4,1.2,1.2c0,0-0.1,0.1-0.1,0.1C-42.5-28-42.8-27.1-42.8-26.2z"/>
	</g>
	<g>
		<path class="st40" d="M-42.4-30.1c-0.6-0.2-1.2-0.1-1.7,0.2l0,0c-0.6,0.3-1.4,0.3-1.2-1.2c0.1-0.8,0.7-1,1.6-0.8
			C-43.7-31-43.1-30.5-42.4-30.1z"/>
		<path class="st40" d="M-45.2-27c-4.1-3.4-3-6,2-7.9c-0.5,1.1-0.6,2.1-0.5,3.1c-0.9-0.2-1.4-0.1-1.6,0.8c-0.2,1.5,0.6,1.4,1.2,1.2
			c0,0-0.1,0.1-0.1,0.1C-44.9-28.9-45.2-27.9-45.2-27z"/>
	</g>
	<g>
		<path class="st37" d="M-41.9-27.6c-0.5,0.4-0.7,0.9-0.7,1.5l0,0c-0.1,0.7-0.4,1.4-1.6,0.5c-0.7-0.5-0.5-1.1,0.1-1.7
			C-43.4-26.9-42.7-27.2-41.9-27.6z"/>
		<path class="st37" d="M-40.7-23.6c-5,1.8-6.7-0.4-5.8-5.6c0.7,0.9,1.5,1.6,2.4,2c-0.6,0.6-0.8,1.2-0.1,1.7
			c1.2,0.9,1.6,0.2,1.6-0.5c0,0.1,0,0.1,0,0.1C-42.1-24.8-41.5-24.1-40.7-23.6z"/>
	</g>
	<g>
		<path class="st37" d="M-39.5-26.7c0.1,0.7,0.5,1.1,1,1.3l0,0c0.6,0.4,1,1.1-0.4,1.7c-0.8,0.3-1.2-0.1-1.4-1
			C-39.7-25.1-39.6-25.9-39.5-26.7z"/>
		<path class="st37" d="M-35.5-25.8c-0.9,5.3-3.7,5.6-7.8,2.2c1.2-0.1,2.1-0.5,2.9-1.1c0.2,0.9,0.7,1.3,1.4,1
			c1.4-0.6,0.9-1.3,0.4-1.7c0,0,0.1,0,0.1,0.1C-37.2-25.2-36.3-25.3-35.5-25.8z"/>
	</g>
	<g>
		<path class="st38" d="M-37.6-28.4c0.6,0.2,1.2,0.1,1.7-0.2l0,0c0.6-0.3,1.4-0.3,1.2,1.2c-0.1,0.8-0.7,1-1.6,0.8
			C-36.3-27.4-36.9-27.9-37.6-28.4z"/>
		<path class="st38" d="M-34.8-31.5c4.1,3.4,3,6-2,7.9c0.5-1.1,0.6-2.1,0.5-3.1c0.9,0.2,1.4,0.1,1.6-0.8c0.2-1.5-0.6-1.4-1.2-1.2
			c0,0,0.1-0.1,0.1-0.1C-35.1-29.6-34.8-30.5-34.8-31.5z"/>
	</g>
	<g>
		<path class="st38" d="M-38.1-30.9c0.5-0.4,0.7-0.9,0.7-1.5l0,0c0.1-0.7,0.4-1.4,1.6-0.5c0.7,0.5,0.5,1.1-0.1,1.7
			C-36.6-31.5-37.3-31.3-38.1-30.9z"/>
		<path class="st38" d="M-39.3-34.9c5-1.8,6.7,0.4,5.8,5.6c-0.7-0.9-1.5-1.6-2.4-2c0.6-0.6,0.8-1.2,0.1-1.7
			c-1.2-0.9-1.6-0.2-1.6,0.5c0-0.1,0-0.1,0-0.1C-37.9-33.6-38.5-34.4-39.3-34.9z"/>
	</g>
	<g>
		<path class="st39" d="M-40.5-31.7c-0.1-0.7-0.5-1.1-1-1.3l0,0c-0.6-0.4-1-1.1,0.4-1.7c0.8-0.3,1.2,0.1,1.4,1
			C-40.3-33.3-40.4-32.6-40.5-31.7z"/>
		<path class="st39" d="M-44.5-32.6c0.9-5.3,3.7-5.6,7.8-2.2c-1.2,0.1-2.1,0.5-2.9,1.1c-0.2-0.9-0.7-1.3-1.4-1
			c-1.4,0.6-0.9,1.3-0.4,1.7c0,0-0.1,0-0.1-0.1C-42.8-33.3-43.7-33.1-44.5-32.6z"/>
	</g>
</g>
<path class="st1" d="M31.1-69.4l1.4,0.2l2.8,4.6l4.4-3.7h0l-9.4-15.5L15.5-71.3l2.8,4.6l4.4-3.7l1.6,0.2v0c-1,5.3-8.2,8.8-16.2,7.9
	c-8-1-13.6-6.1-12.5-11.4v0l-6.8-0.8v0c-1.5,7.8,6.8,15.3,18.5,16.8C18.9-56.4,29.6-61.5,31.1-69.4L31.1-69.4z"/>
</svg>
