<?xml version="1.0" encoding="utf-8"?>
<!-- Generator: Adobe Illustrator 28.1.0, SVG Export Plug-In . SVG Version: 6.00 Build 0)  -->
<svg version="1.1" id="Laag_1" xmlns="http://www.w3.org/2000/svg" xmlns:xlink="http://www.w3.org/1999/xlink" x="0px" y="0px"
	 viewBox="0 0 70.02 71.83" enable-background="new 0 0 70.02 71.83" xml:space="preserve">
<g>
	<path fill="#FFFFFF" stroke="#1D1D1B" stroke-miterlimit="10" d="M88.97-40.64H78.83c-1.97,0-3.57-1.6-3.57-3.57v0
		c0-1.97,1.6-3.57,3.57-3.57h10.15c1.97,0,3.57,1.6,3.57,3.57v0C92.55-42.25,90.95-40.64,88.97-40.64z"/>
	<g>
		
			<line fill="none" stroke="#1D1D1B" stroke-miterlimit="10" stroke-dasharray="3.5812" x1="78.24" y1="-53.72" x2="81.82" y2="-53.72"/>
	</g>
	<circle fill="#FFEC00" stroke="#1D1D1B" stroke-miterlimit="10" cx="89.44" cy="-53.72" r="6.18"/>
	<circle fill="#FFFFFF" stroke="#1D1D1B" stroke-miterlimit="10" cx="78.06" cy="-48.73" r="3.85"/>
	<circle fill="#FFFFFF" stroke="#1D1D1B" stroke-miterlimit="10" cx="82.5" cy="-50.91" r="4.44"/>
	<circle fill="#FFFFFF" stroke="#1D1D1B" stroke-miterlimit="10" cx="89.26" cy="-48.09" r="4.15"/>
	<circle fill="#FFFFFF" stroke="#1D1D1B" stroke-miterlimit="10" cx="82.43" cy="-44.81" r="4.25"/>
	<circle fill="#FFFFFF" stroke="#1D1D1B" stroke-miterlimit="10" cx="91.96" cy="-45.35" r="4.25"/>
	<circle fill="#FFFFFF" stroke="#1D1D1B" stroke-miterlimit="10" cx="76" cy="-44.61" r="3.48"/>
	<g>
		
			<line fill="none" stroke="#1D1D1B" stroke-miterlimit="10" stroke-dasharray="3.5812" x1="89.44" y1="-64.93" x2="89.44" y2="-61.35"/>
	</g>
	<g>
		
			<line fill="none" stroke="#1D1D1B" stroke-miterlimit="10" stroke-dasharray="3.5812" x1="83.84" y1="-63.43" x2="85.63" y2="-60.33"/>
	</g>
	<g>
		
			<line fill="none" stroke="#1D1D1B" stroke-miterlimit="10" stroke-dasharray="3.5812" x1="79.74" y1="-59.33" x2="82.84" y2="-57.54"/>
	</g>
	<g>
		
			<line fill="none" stroke="#1D1D1B" stroke-miterlimit="10" stroke-dasharray="3.5812" x1="99.15" y1="-48.12" x2="96.05" y2="-49.91"/>
	</g>
	<g>
		
			<line fill="none" stroke="#1D1D1B" stroke-miterlimit="10" stroke-dasharray="3.5812" x1="100.65" y1="-53.72" x2="97.07" y2="-53.72"/>
	</g>
	<g>
		
			<line fill="none" stroke="#1D1D1B" stroke-miterlimit="10" stroke-dasharray="3.5812" x1="99.15" y1="-59.33" x2="96.05" y2="-57.54"/>
	</g>
	<g>
		
			<line fill="none" stroke="#1D1D1B" stroke-miterlimit="10" stroke-dasharray="3.5812" x1="95.05" y1="-63.43" x2="93.26" y2="-60.33"/>
	</g>
</g>
<g>
	<path fill="none" stroke="#1D1D1B" stroke-linecap="round" stroke-miterlimit="10" d="M-35.76,40.78c0,0.16-0.14,0.3-0.3,0.3
		s-0.3-0.13-0.3-0.3c0-0.17,0.13-0.3,0.3-0.3S-35.76,40.61-35.76,40.78z"/>
	<path fill="none" stroke="#1D1D1B" stroke-linecap="round" stroke-miterlimit="10" d="M-36.13,40.1c0-0.16,0.13-0.3,0.3-0.3
		c0.03,0,0.06,0,0.08,0.01c-0.01-0.03-0.02-0.07-0.02-0.1c0-0.16,0.13-0.3,0.3-0.3c0.16,0,0.3,0.13,0.3,0.3c0,0.17-0.14,0.3-0.3,0.3
		c-0.03,0-0.06,0-0.08-0.01c0.01,0.03,0.02,0.06,0.02,0.09c0,0.16-0.13,0.3-0.3,0.3C-35.99,40.4-36.13,40.26-36.13,40.1z"/>
	<path fill="none" stroke="#1D1D1B" stroke-linecap="round" stroke-miterlimit="10" d="M-35.38,40.84c-0.16,0-0.3-0.13-0.3-0.3
		c0-0.16,0.14-0.3,0.3-0.3c0.16,0,0.3,0.13,0.3,0.3C-35.08,40.71-35.21,40.84-35.38,40.84z"/>
	<path fill="none" stroke="#1D1D1B" stroke-linecap="round" stroke-miterlimit="10" d="M-34.86,41.25c0,0.16-0.13,0.3-0.3,0.3
		c-0.17,0-0.3-0.13-0.3-0.3c0-0.17,0.13-0.3,0.3-0.3C-35,40.95-34.86,41.09-34.86,41.25z"/>
	<path fill="none" stroke="#1D1D1B" stroke-linecap="round" stroke-miterlimit="10" d="M-35.16,39.37c0-0.17,0.13-0.3,0.3-0.3
		c0.16,0,0.3,0.13,0.3,0.3c0,0.16-0.14,0.3-0.3,0.3C-35.03,39.67-35.16,39.53-35.16,39.37z"/>
	<path fill="none" stroke="#1D1D1B" stroke-linecap="round" stroke-miterlimit="10" d="M-34.61,40.49c-0.17,0-0.3-0.13-0.3-0.3
		c0-0.16,0.13-0.3,0.3-0.3c0.16,0,0.3,0.13,0.3,0.3C-34.31,40.36-34.44,40.49-34.61,40.49z"/>
	<path fill="none" stroke="#1D1D1B" stroke-linecap="round" stroke-miterlimit="10" d="M-34.1,40.95c0,0.16-0.13,0.3-0.3,0.3
		c-0.16,0-0.3-0.14-0.3-0.3c0-0.16,0.14-0.3,0.3-0.3C-34.23,40.66-34.1,40.79-34.1,40.95z"/>
	<path fill="none" stroke="#1D1D1B" stroke-linecap="round" stroke-miterlimit="10" d="M-34.47,39.06c0-0.17,0.14-0.3,0.3-0.3
		s0.3,0.13,0.3,0.3c0,0.16-0.13,0.3-0.3,0.3S-34.47,39.22-34.47,39.06z"/>
	<path fill="none" stroke="#1D1D1B" stroke-linecap="round" stroke-miterlimit="10" d="M-34.47,38.34c0-0.16,0.14-0.3,0.3-0.3
		s0.3,0.13,0.3,0.3c0,0.17-0.13,0.3-0.3,0.3S-34.47,38.51-34.47,38.34z"/>
	<path fill="none" stroke="#1D1D1B" stroke-linecap="round" stroke-miterlimit="10" d="M-33.7,39.62c0.1,0.13,0.08,0.32-0.06,0.42
		c-0.13,0.1-0.32,0.08-0.42-0.06c-0.1-0.13-0.08-0.32,0.06-0.42C-33.99,39.46-33.8,39.49-33.7,39.62z"/>
	<path fill="none" stroke="#1D1D1B" stroke-linecap="round" stroke-miterlimit="10" d="M-34.01,37.92c0-0.16,0.14-0.3,0.3-0.3
		c0.16,0,0.3,0.13,0.3,0.3c0,0.17-0.13,0.3-0.3,0.3C-33.87,38.22-34.01,38.09-34.01,37.92z"/>
	<path fill="none" stroke="#1D1D1B" stroke-linecap="round" stroke-miterlimit="10" d="M-33.54,39.14c-0.15-0.08-0.21-0.25-0.14-0.4
		c0.07-0.15,0.25-0.21,0.4-0.14c0.15,0.07,0.21,0.25,0.14,0.4C-33.21,39.15-33.39,39.21-33.54,39.14z"/>
	<path fill="none" stroke="#1D1D1B" stroke-linecap="round" stroke-miterlimit="10" d="M-33.37,37.05c0-0.16,0.13-0.3,0.3-0.3
		c0.17,0,0.3,0.13,0.3,0.3c0,0.17-0.13,0.3-0.3,0.3C-33.24,37.35-33.37,37.22-33.37,37.05z"/>
	<path fill="none" stroke="#1D1D1B" stroke-linecap="round" stroke-miterlimit="10" d="M-32.91,37.49c0.16,0,0.3,0.13,0.3,0.3
		s-0.14,0.3-0.3,0.3c-0.16,0-0.3-0.14-0.3-0.3S-33.08,37.49-32.91,37.49z"/>
	<path fill="none" stroke="#1D1D1B" stroke-linecap="round" stroke-miterlimit="10" d="M-32.86,39.39c0.1,0.13,0.08,0.32-0.06,0.42
		c-0.13,0.1-0.32,0.08-0.42-0.06c-0.1-0.13-0.08-0.32,0.06-0.42C-33.15,39.24-32.96,39.26-32.86,39.39z"/>
	<path fill="none" stroke="#1D1D1B" stroke-linecap="round" stroke-miterlimit="10" d="M-32.51,38.77c-0.07,0.15-0.25,0.21-0.4,0.14
		c-0.15-0.08-0.21-0.25-0.14-0.4c0.07-0.15,0.25-0.21,0.4-0.14C-32.5,38.44-32.44,38.62-32.51,38.77z"/>
	<path fill="none" stroke="#1D1D1B" stroke-linecap="round" stroke-miterlimit="10" d="M-32.63,36.92
		c-0.09-0.14-0.06-0.32,0.07-0.42c0.14-0.09,0.32-0.06,0.42,0.07c0.09,0.14,0.06,0.32-0.07,0.42
		C-32.35,37.09-32.54,37.06-32.63,36.92z"/>
	<path fill="none" stroke="#1D1D1B" stroke-linecap="round" stroke-miterlimit="10" d="M-32.39,37.87c-0.15-0.07-0.21-0.25-0.14-0.4
		c0.07-0.15,0.25-0.21,0.4-0.14c0.15,0.07,0.21,0.25,0.14,0.4C-32.06,37.88-32.24,37.94-32.39,37.87z"/>
	<path fill="none" stroke="#1D1D1B" stroke-linecap="round" stroke-miterlimit="10" d="M-31.59,38.47c-0.07,0.15-0.25,0.21-0.4,0.14
		c-0.15-0.07-0.21-0.25-0.14-0.4c0.07-0.15,0.25-0.21,0.4-0.14C-31.58,38.15-31.52,38.33-31.59,38.47z"/>
	<path fill="none" stroke="#1D1D1B" stroke-linecap="round" stroke-miterlimit="10" d="M-31.95,35.71
		c-0.09-0.14-0.06-0.32,0.08-0.42c0.14-0.09,0.32-0.06,0.42,0.08c0.09,0.14,0.06,0.32-0.08,0.42
		C-31.67,35.88-31.85,35.85-31.95,35.71z"/>
	<path fill="none" stroke="#1D1D1B" stroke-linecap="round" stroke-miterlimit="10" d="M-31.84,36.48
		c-0.09-0.14-0.06-0.32,0.07-0.42c0.14-0.09,0.32-0.06,0.42,0.07c0.09,0.14,0.06,0.32-0.07,0.42
		C-31.55,36.65-31.74,36.61-31.84,36.48z"/>
	<path fill="none" stroke="#1D1D1B" stroke-linecap="round" stroke-miterlimit="10" d="M-31.25,37.16
		c-0.02,0.16-0.16,0.29-0.33,0.27c-0.16-0.02-0.28-0.16-0.27-0.33c0.02-0.16,0.16-0.29,0.33-0.27C-31.36,36.85-31.24,37-31.25,37.16
		z"/>
	<path fill="none" stroke="#1D1D1B" stroke-linecap="round" stroke-miterlimit="10" d="M-30.98,37.92c-0.07,0.15-0.25,0.21-0.4,0.14
		s-0.21-0.25-0.14-0.4c0.07-0.15,0.25-0.21,0.4-0.14C-30.97,37.6-30.91,37.78-30.98,37.92z"/>
	<path fill="none" stroke="#1D1D1B" stroke-linecap="round" stroke-miterlimit="10" d="M-31.35,35.12
		c-0.09-0.14-0.06-0.32,0.07-0.42c0.14-0.09,0.32-0.06,0.42,0.07c0.09,0.14,0.06,0.32-0.07,0.42
		C-31.06,35.29-31.25,35.26-31.35,35.12z"/>
	<path fill="none" stroke="#1D1D1B" stroke-linecap="round" stroke-miterlimit="10" d="M-30.9,35.54c0.16,0.02,0.28,0.16,0.27,0.33
		c-0.02,0.16-0.16,0.29-0.33,0.27c-0.16-0.02-0.28-0.16-0.27-0.33C-31.21,35.65-31.06,35.53-30.9,35.54z"/>
	<path fill="none" stroke="#1D1D1B" stroke-linecap="round" stroke-miterlimit="10" d="M-30.42,36.78
		c-0.02,0.16-0.16,0.29-0.33,0.27c-0.16-0.02-0.28-0.16-0.27-0.33c0.02-0.16,0.16-0.29,0.33-0.27
		C-30.52,36.47-30.4,36.62-30.42,36.78z"/>
	<path fill="none" stroke="#1D1D1B" stroke-linecap="round" stroke-miterlimit="10" d="M-30.66,35.16
		c-0.11-0.12-0.11-0.31,0.01-0.42c0.12-0.11,0.31-0.11,0.42,0.01c0.11,0.12,0.11,0.31-0.01,0.42
		C-30.36,35.28-30.55,35.28-30.66,35.16z"/>
	<path fill="none" stroke="#1D1D1B" stroke-linecap="round" stroke-miterlimit="10" d="M-30.42,35.85
		c-0.11-0.12-0.11-0.31,0.01-0.42c0.12-0.11,0.31-0.11,0.42,0.01c0.11,0.12,0.11,0.31-0.01,0.42
		C-30.12,35.98-30.31,35.97-30.42,35.85z"/>
	<path fill="none" stroke="#1D1D1B" stroke-linecap="round" stroke-miterlimit="10" d="M-29.81,36.16c0.11,0.12,0.1,0.31-0.02,0.42
		c-0.12,0.11-0.31,0.11-0.42-0.01c-0.11-0.12-0.11-0.31,0.01-0.42C-30.12,36.03-29.93,36.04-29.81,36.16z"/>
	<path fill="none" stroke="#1D1D1B" stroke-linecap="round" stroke-miterlimit="10" d="M-30.2,33.92c-0.09-0.13-0.06-0.32,0.07-0.42
		c0.14-0.09,0.32-0.06,0.42,0.08c0.09,0.14,0.06,0.32-0.07,0.42C-29.92,34.09-30.1,34.06-30.2,33.92z"/>
	<path fill="none" stroke="#1D1D1B" stroke-linecap="round" stroke-miterlimit="10" d="M-29.46,34.49c0.07,0.15,0,0.33-0.15,0.4
		c-0.15,0.07-0.33,0-0.4-0.15c-0.07-0.15,0-0.33,0.15-0.4C-29.71,34.27-29.53,34.34-29.46,34.49z"/>
	<path fill="none" stroke="#1D1D1B" stroke-linecap="round" stroke-miterlimit="10" d="M-29.22,35.19c0.07,0.15,0,0.33-0.15,0.4
		c-0.15,0.07-0.33,0-0.4-0.15c-0.07-0.15,0-0.33,0.15-0.4C-29.46,34.97-29.29,35.04-29.22,35.19z"/>
	<path fill="none" stroke="#1D1D1B" stroke-linecap="round" stroke-miterlimit="10" d="M-29.56,33.09
		c-0.09-0.14-0.06-0.32,0.08-0.42c0.14-0.09,0.32-0.06,0.42,0.08c0.09,0.13,0.06,0.32-0.08,0.41c-0.02,0.02-0.05,0.03-0.08,0.04
		c0.11,0.01,0.2,0.07,0.25,0.17c0.07,0.15,0,0.33-0.15,0.4c-0.15,0.07-0.33,0-0.4-0.15c-0.07-0.15,0-0.33,0.15-0.4
		c0.01,0,0.03-0.01,0.04-0.01C-29.42,33.21-29.5,33.17-29.56,33.09z"/>
	<path fill="none" stroke="#1D1D1B" stroke-linecap="round" stroke-miterlimit="10" d="M-28.69,34.24c0.07,0.15,0,0.33-0.15,0.4
		c-0.15,0.07-0.33,0-0.4-0.15c-0.07-0.15,0-0.33,0.15-0.4C-28.94,34.02-28.76,34.09-28.69,34.24z"/>
	<path fill="none" stroke="#1D1D1B" stroke-linecap="round" stroke-miterlimit="10" d="M-28.93,32.44
		c-0.09-0.14-0.06-0.32,0.08-0.42c0.14-0.09,0.32-0.06,0.42,0.07c0.09,0.14,0.06,0.32-0.08,0.42
		C-28.64,32.61-28.83,32.58-28.93,32.44z"/>
	<path fill="none" stroke="#1D1D1B" stroke-linecap="round" stroke-miterlimit="10" d="M-28.25,32.8c0.07,0.15,0,0.33-0.15,0.4
		c-0.15,0.07-0.33,0-0.4-0.15c-0.07-0.15,0-0.33,0.15-0.4C-28.5,32.58-28.32,32.65-28.25,32.8z"/>
	<path fill="none" stroke="#1D1D1B" stroke-linecap="round" stroke-miterlimit="10" d="M-28.05,33.45c0.07,0.15,0,0.33-0.15,0.4
		c-0.15,0.07-0.33,0-0.4-0.15c-0.07-0.15,0-0.33,0.15-0.4C-28.3,33.23-28.12,33.3-28.05,33.45z"/>
	<path fill="none" stroke="#1D1D1B" stroke-linecap="round" stroke-miterlimit="10" d="M-28.32,31.93
		c-0.09-0.14-0.06-0.32,0.07-0.42c0.14-0.09,0.32-0.06,0.42,0.07c0.09,0.14,0.06,0.32-0.07,0.42
		C-28.04,32.1-28.23,32.06-28.32,31.93z"/>
	<path fill="none" stroke="#1D1D1B" stroke-linecap="round" stroke-miterlimit="10" d="M-27.26,33.71c0.07,0.15,0,0.33-0.15,0.4
		c-0.15,0.07-0.33,0-0.4-0.15c-0.07-0.15,0-0.33,0.15-0.4C-27.51,33.49-27.33,33.56-27.26,33.71z"/>
	<path fill="none" stroke="#1D1D1B" stroke-linecap="round" stroke-miterlimit="10" d="M-27.26,32.8c0.07,0.15,0,0.33-0.15,0.4
		c-0.15,0.07-0.33,0-0.4-0.15c-0.04-0.08-0.03-0.17,0-0.25c-0.13,0.02-0.26-0.04-0.32-0.17c-0.07-0.15,0-0.33,0.15-0.4
		c0.15-0.07,0.33,0,0.4,0.15c0.04,0.08,0.04,0.17,0,0.25C-27.45,32.6-27.32,32.67-27.26,32.8z"/>
	<path fill="none" stroke="#1D1D1B" stroke-linecap="round" stroke-miterlimit="10" d="M-27.59,31.05c0.01-0.01,0.03-0.02,0.05-0.03
		c-0.02-0.01-0.04-0.04-0.06-0.06c-0.09-0.14-0.06-0.32,0.08-0.42c0.14-0.09,0.32-0.06,0.42,0.08c0.09,0.14,0.06,0.32-0.08,0.42
		c-0.01,0.01-0.03,0.02-0.04,0.03c0.02,0.02,0.04,0.04,0.05,0.06c0.09,0.14,0.06,0.32-0.07,0.42c-0.14,0.09-0.32,0.06-0.42-0.08
		C-27.76,31.33-27.72,31.15-27.59,31.05z"/>
	<path fill="none" stroke="#1D1D1B" stroke-linecap="round" stroke-miterlimit="10" d="M-26.9,32.38c-0.15,0.07-0.33,0-0.4-0.15
		c-0.07-0.15,0-0.33,0.15-0.4c0.15-0.07,0.33,0,0.4,0.15C-26.69,32.13-26.75,32.31-26.9,32.38z"/>
	<path fill="none" stroke="#1D1D1B" stroke-linecap="round" stroke-miterlimit="10" d="M-26.29,32.39c0.09,0.14,0.06,0.32-0.08,0.42
		c-0.14,0.09-0.32,0.06-0.42-0.08c-0.09-0.13-0.06-0.32,0.08-0.41C-26.57,32.22-26.38,32.26-26.29,32.39z"/>
	<path fill="none" stroke="#1D1D1B" stroke-linecap="round" stroke-miterlimit="10" d="M-26.78,31.47
		c-0.09-0.13-0.06-0.32,0.08-0.41c0.13-0.1,0.32-0.06,0.42,0.07c0.09,0.14,0.06,0.32-0.08,0.42C-26.5,31.64-26.68,31.6-26.78,31.47z
		"/>
	<path fill="none" stroke="#1D1D1B" stroke-linecap="round" stroke-miterlimit="10" d="M-25.85,31.75c0.09,0.14,0.06,0.32-0.08,0.42
		c-0.14,0.09-0.32,0.06-0.42-0.08c-0.09-0.14-0.06-0.32,0.08-0.42C-26.13,31.58-25.95,31.61-25.85,31.75z"/>
	<path fill="#E5007E" stroke="#1D1D1B" stroke-width="0.75" stroke-linecap="round" stroke-miterlimit="10" d="M-22.02,24.67
		c-20.81-9.21-41.71,21.29-15.03,17.55l1.22,1.17C-33.1,64.91-9.5,41.62-22.02,24.67z M-25.23,31.77l-1.44,1.59
		c0-0.05,0-0.09-0.03-0.14c-0.07-0.15-0.25-0.22-0.4-0.15c-0.15,0.07-0.22,0.25-0.15,0.4c0.06,0.12,0.19,0.19,0.32,0.17l-3.44,3.8
		c0-0.01,0.01-0.03,0.01-0.05c0.02-0.16-0.1-0.31-0.27-0.33c-0.16-0.02-0.31,0.1-0.33,0.27c-0.02,0.16,0.1,0.31,0.27,0.33
		c0.05,0,0.09,0,0.13-0.01l-1.59,1.75c0.08-0.1,0.09-0.26,0-0.37c-0.1-0.13-0.29-0.16-0.42-0.06c-0.13,0.1-0.16,0.29-0.06,0.42
		c0.1,0.13,0.29,0.16,0.42,0.06c0.01-0.01,0.03-0.02,0.04-0.04l-1.19,1.31c0.08-0.1,0.08-0.25,0-0.36c-0.1-0.13-0.29-0.16-0.42-0.06
		c-0.13,0.1-0.16,0.29-0.06,0.42c0.1,0.13,0.29,0.16,0.42,0.06l-0.79,0.87c-0.25,0.28-0.6,0.42-0.95,0.42
		c-0.25,0-0.5-0.07-0.72-0.23c0.01,0,0.02,0,0.04,0c0.16,0,0.3-0.13,0.3-0.3c0-0.17-0.13-0.3-0.3-0.3c-0.16,0-0.3,0.13-0.3,0.3
		c0,0.02,0,0.04,0,0.06c-0.41-0.48-0.4-1.2,0.03-1.68l3.67-4.04c-0.05,0.09-0.04,0.21,0.02,0.3c0.09,0.14,0.28,0.17,0.41,0.08
		c0.14-0.09,0.17-0.28,0.08-0.42c-0.09-0.13-0.26-0.16-0.4-0.09l1.51-1.66c-0.01,0.07,0,0.15,0.05,0.21
		c0.09,0.14,0.28,0.17,0.42,0.08c0.14-0.09,0.17-0.28,0.07-0.42c-0.07-0.1-0.2-0.15-0.31-0.12l3.44-3.79
		c0.48-0.52,1.29-0.56,1.81-0.09C-24.79,30.43-24.76,31.24-25.23,31.77z"/>
	<path fill="#B17F49" stroke="#1D1D1B" stroke-linecap="round" stroke-miterlimit="10" d="M-35.83,43.4
		c-4.83,5.03-8.55,10.28-10.03,15.99l-1.22-0.74c1.92-4.86,5.63-10.5,10.02-16.43L-35.83,43.4z"/>
	<path fill="none" stroke="#B5B5B5" stroke-width="0.25" stroke-miterlimit="10" d="M-36.44,24.99c-7.33,4.97-8.37,9.98-1.63,15.03"
		/>
	<path fill="none" stroke="#B5B5B5" stroke-width="0.25" stroke-miterlimit="10" d="M-30.2,23.92c-7.37,3.24-10.85,10.39-7.59,15.67
		"/>
	<path fill="none" stroke="#B5B5B5" stroke-width="0.25" stroke-miterlimit="10" d="M-29.24,26.02c-5.2,3.74-7.83,8.2-6.59,12.82"/>
	<path fill="none" stroke="#B5B5B5" stroke-width="0.25" stroke-miterlimit="10" d="M-22.02,29.62c-0.88,4.72-2.82,9.01-9.43,11.4"
		/>
	<path fill="none" stroke="#B5B5B5" stroke-width="0.25" stroke-miterlimit="10" d="M-19.7,34.21c0.04,2.15-5.88,9.01-11.75,8.33"/>
	<path fill="none" stroke="#B5B5B5" stroke-width="0.25" stroke-miterlimit="10" d="M-19.34,39.06c-2.52,4.29-6.18,6.72-12.25,5.2"
		/>
	<path fill="none" stroke="#B5B5B5" stroke-width="0.25" stroke-miterlimit="10" d="M-33.37,46.46c1.39,2.5,4.65,2.99,9.79,1.46"/>
	<path fill="none" stroke="#B5B5B5" stroke-width="0.25" stroke-miterlimit="10" d="M-45.2,30.56c-3.24,5.19-1.71,8.8,5.69,10.45"/>
	<path fill="#7E4E24" stroke="#1D1D1B" stroke-width="0.25" stroke-miterlimit="10" d="M-25.32,29.96
		c-0.52-0.48-1.33-0.44-1.81,0.09l-3.44,3.79c0.12-0.03,0.24,0.02,0.31,0.12c0.09,0.14,0.06,0.32-0.07,0.42
		c-0.14,0.09-0.32,0.06-0.42-0.08c-0.05-0.07-0.06-0.14-0.05-0.21l-1.51,1.66c0.13-0.08,0.31-0.04,0.4,0.09
		c0.09,0.14,0.06,0.32-0.08,0.42c-0.13,0.09-0.32,0.06-0.41-0.08c-0.07-0.09-0.07-0.21-0.02-0.3l-3.67,4.04
		c-0.43,0.48-0.44,1.2-0.03,1.68c0-0.02,0-0.04,0-0.06c0-0.17,0.13-0.3,0.3-0.3c0.16,0,0.3,0.13,0.3,0.3c0,0.16-0.13,0.3-0.3,0.3
		c-0.01,0-0.02,0-0.04,0c0.22,0.15,0.47,0.23,0.72,0.23c0.35,0,0.7-0.14,0.95-0.42l0.79-0.87c-0.13,0.1-0.32,0.08-0.42-0.06
		c-0.1-0.13-0.08-0.32,0.06-0.42c0.13-0.1,0.32-0.08,0.42,0.06c0.08,0.11,0.08,0.25,0,0.36l1.19-1.31
		c-0.01,0.01-0.03,0.03-0.04,0.04c-0.13,0.1-0.32,0.08-0.42-0.06c-0.1-0.13-0.08-0.32,0.06-0.42c0.13-0.1,0.32-0.08,0.42,0.06
		c0.08,0.11,0.08,0.26,0,0.37l1.59-1.75c-0.04,0.01-0.08,0.02-0.13,0.01c-0.16-0.02-0.29-0.16-0.27-0.33
		c0.02-0.16,0.16-0.29,0.33-0.27c0.16,0.02,0.29,0.16,0.27,0.33c0,0.02,0,0.03-0.01,0.05l3.44-3.8c-0.13,0.02-0.26-0.05-0.32-0.17
		c-0.07-0.15,0-0.33,0.15-0.4c0.15-0.07,0.33,0,0.4,0.15c0.02,0.05,0.03,0.09,0.03,0.14l1.44-1.59
		C-24.76,31.24-24.79,30.43-25.32,29.96z M-26.7,31.05c0.13-0.1,0.32-0.06,0.42,0.07c0.09,0.14,0.06,0.32-0.08,0.42
		c-0.14,0.09-0.32,0.06-0.42-0.08C-26.87,31.33-26.84,31.15-26.7,31.05z M-27.6,30.96c-0.09-0.14-0.06-0.32,0.08-0.42
		c0.14-0.09,0.32-0.06,0.42,0.08c0.09,0.14,0.06,0.32-0.08,0.42c-0.01,0.01-0.03,0.02-0.04,0.03c0.02,0.02,0.04,0.04,0.05,0.06
		c0.09,0.14,0.06,0.32-0.07,0.42c-0.14,0.09-0.32,0.06-0.42-0.08c-0.09-0.13-0.06-0.32,0.07-0.41c0.01-0.01,0.03-0.02,0.05-0.03
		C-27.57,31.01-27.59,30.99-27.6,30.96z M-28.25,31.51c0.14-0.09,0.32-0.06,0.42,0.07c0.09,0.14,0.06,0.32-0.07,0.42
		c-0.14,0.09-0.32,0.06-0.42-0.07C-28.42,31.79-28.38,31.61-28.25,31.51z M-28.4,33.19c-0.15,0.07-0.33,0-0.4-0.15
		c-0.07-0.15,0-0.33,0.15-0.4c0.15-0.07,0.33,0,0.4,0.15C-28.19,32.95-28.25,33.12-28.4,33.19z M-28.85,32.02
		c0.14-0.09,0.32-0.06,0.42,0.07c0.09,0.14,0.06,0.32-0.08,0.42c-0.14,0.09-0.32,0.06-0.42-0.07
		C-29.02,32.3-28.99,32.12-28.85,32.02z M-29.49,32.67c0.14-0.09,0.32-0.06,0.42,0.08c0.09,0.13,0.06,0.32-0.08,0.41
		c-0.02,0.02-0.05,0.03-0.08,0.04c0.11,0.01,0.2,0.07,0.25,0.17c0.07,0.15,0,0.33-0.15,0.4c-0.15,0.07-0.33,0-0.4-0.15
		c-0.07-0.15,0-0.33,0.15-0.4c0.01,0,0.03-0.01,0.04-0.01c-0.09,0-0.18-0.04-0.23-0.12C-29.66,32.96-29.62,32.77-29.49,32.67z
		 M-29.61,34.88c-0.15,0.07-0.33,0-0.4-0.15c-0.07-0.15,0-0.33,0.15-0.4c0.15-0.07,0.33,0,0.4,0.15
		C-29.39,34.64-29.46,34.81-29.61,34.88z M-30.13,33.5c0.14-0.09,0.32-0.06,0.42,0.08c0.09,0.14,0.06,0.32-0.07,0.42
		c-0.14,0.09-0.32,0.06-0.42-0.08C-30.29,33.79-30.26,33.6-30.13,33.5z M-30.65,34.73c0.12-0.11,0.31-0.11,0.42,0.01
		c0.11,0.12,0.11,0.31-0.01,0.42c-0.12,0.11-0.31,0.11-0.42-0.01C-30.77,35.04-30.77,34.85-30.65,34.73z M-30.63,35.87
		c-0.02,0.16-0.16,0.29-0.33,0.27c-0.16-0.02-0.28-0.16-0.27-0.33c0.02-0.16,0.16-0.29,0.33-0.27
		C-30.73,35.56-30.61,35.71-30.63,35.87z M-31.27,34.71c0.14-0.09,0.32-0.06,0.42,0.07c0.09,0.14,0.06,0.32-0.07,0.42
		c-0.14,0.09-0.32,0.06-0.42-0.07C-31.44,34.99-31.41,34.8-31.27,34.71z M-31.95,35.71c-0.09-0.14-0.06-0.32,0.08-0.42
		c0.14-0.09,0.32-0.06,0.42,0.08c0.09,0.14,0.06,0.32-0.08,0.42C-31.67,35.88-31.85,35.85-31.95,35.71z M-31.76,36.06
		c0.14-0.09,0.32-0.06,0.42,0.07c0.09,0.14,0.06,0.32-0.07,0.42c-0.14,0.09-0.32,0.06-0.42-0.07S-31.9,36.16-31.76,36.06z
		 M-31.25,37.16c-0.02,0.16-0.16,0.29-0.33,0.27c-0.16-0.02-0.28-0.16-0.27-0.33c0.02-0.16,0.16-0.29,0.33-0.27
		C-31.36,36.85-31.24,37-31.25,37.16z M-32.56,36.51c0.14-0.09,0.32-0.06,0.42,0.07c0.09,0.14,0.06,0.32-0.07,0.42
		c-0.14,0.09-0.32,0.06-0.42-0.07C-32.73,36.79-32.69,36.6-32.56,36.51z M-32.61,37.79c0,0.16-0.14,0.3-0.3,0.3
		c-0.16,0-0.3-0.14-0.3-0.3s0.13-0.3,0.3-0.3C-32.75,37.49-32.61,37.63-32.61,37.79z M-33.07,36.75c0.17,0,0.3,0.13,0.3,0.3
		c0,0.17-0.13,0.3-0.3,0.3c-0.16,0-0.3-0.13-0.3-0.3C-33.37,36.89-33.24,36.75-33.07,36.75z M-33.71,37.62c0.16,0,0.3,0.13,0.3,0.3
		c0,0.17-0.13,0.3-0.3,0.3c-0.16,0-0.3-0.13-0.3-0.3C-34.01,37.75-33.87,37.62-33.71,37.62z M-34.17,38.04c0.16,0,0.3,0.13,0.3,0.3
		c0,0.17-0.13,0.3-0.3,0.3s-0.3-0.13-0.3-0.3C-34.47,38.18-34.34,38.04-34.17,38.04z M-34.17,38.76c0.16,0,0.3,0.13,0.3,0.3
		c0,0.16-0.13,0.3-0.3,0.3s-0.3-0.13-0.3-0.3C-34.47,38.89-34.34,38.76-34.17,38.76z M-34.86,39.07c0.16,0,0.3,0.13,0.3,0.3
		c0,0.16-0.14,0.3-0.3,0.3c-0.16,0-0.3-0.13-0.3-0.3C-35.16,39.2-35.03,39.07-34.86,39.07z M-35.83,39.8c0.03,0,0.06,0,0.08,0.01
		c-0.01-0.03-0.02-0.07-0.02-0.1c0-0.16,0.13-0.3,0.3-0.3c0.16,0,0.3,0.13,0.3,0.3c0,0.17-0.14,0.3-0.3,0.3
		c-0.03,0-0.06,0-0.08-0.01c0.01,0.03,0.02,0.06,0.02,0.09c0,0.16-0.13,0.3-0.3,0.3c-0.16,0-0.3-0.13-0.3-0.3
		C-36.13,39.93-35.99,39.8-35.83,39.8z M-36.06,41.07c-0.16,0-0.3-0.13-0.3-0.3c0-0.17,0.13-0.3,0.3-0.3s0.3,0.13,0.3,0.3
		C-35.76,40.94-35.9,41.07-36.06,41.07z M-35.68,40.54c0-0.16,0.14-0.3,0.3-0.3c0.16,0,0.3,0.13,0.3,0.3c0,0.17-0.13,0.3-0.3,0.3
		C-35.54,40.84-35.68,40.71-35.68,40.54z M-35.16,41.55c-0.17,0-0.3-0.13-0.3-0.3c0-0.17,0.13-0.3,0.3-0.3c0.16,0,0.3,0.13,0.3,0.3
		C-34.86,41.42-35,41.55-35.16,41.55z M-34.91,40.19c0-0.16,0.13-0.3,0.3-0.3c0.16,0,0.3,0.13,0.3,0.3c0,0.16-0.13,0.3-0.3,0.3
		C-34.78,40.49-34.91,40.36-34.91,40.19z M-34.4,41.25c-0.16,0-0.3-0.14-0.3-0.3c0-0.16,0.14-0.3,0.3-0.3c0.16,0,0.3,0.13,0.3,0.3
		C-34.1,41.12-34.23,41.25-34.4,41.25z M-33.76,40.04c-0.13,0.1-0.32,0.08-0.42-0.06c-0.1-0.13-0.08-0.32,0.06-0.42
		c0.13-0.1,0.32-0.08,0.42,0.06C-33.6,39.75-33.63,39.94-33.76,40.04z M-33.54,39.14c-0.15-0.08-0.21-0.25-0.14-0.4
		c0.07-0.15,0.25-0.21,0.4-0.14c0.15,0.07,0.21,0.25,0.14,0.4C-33.21,39.15-33.39,39.21-33.54,39.14z M-32.92,39.81
		c-0.13,0.1-0.32,0.08-0.42-0.06c-0.1-0.13-0.08-0.32,0.06-0.42c0.13-0.1,0.32-0.07,0.42,0.06C-32.76,39.52-32.78,39.71-32.92,39.81
		z M-32.51,38.77c-0.07,0.15-0.25,0.21-0.4,0.14c-0.15-0.08-0.21-0.25-0.14-0.4c0.07-0.15,0.25-0.21,0.4-0.14
		C-32.5,38.44-32.44,38.62-32.51,38.77z M-32.39,37.87c-0.15-0.07-0.21-0.25-0.14-0.4c0.07-0.15,0.25-0.21,0.4-0.14
		c0.15,0.07,0.21,0.25,0.14,0.4C-32.06,37.88-32.24,37.94-32.39,37.87z M-31.59,38.47c-0.07,0.15-0.25,0.21-0.4,0.14
		c-0.15-0.07-0.21-0.25-0.14-0.4c0.07-0.15,0.25-0.21,0.4-0.14C-31.58,38.15-31.52,38.33-31.59,38.47z M-30.98,37.92
		c-0.07,0.15-0.25,0.21-0.4,0.14s-0.21-0.25-0.14-0.4c0.07-0.15,0.25-0.21,0.4-0.14C-30.97,37.6-30.91,37.78-30.98,37.92z
		 M-30.75,37.05c-0.16-0.02-0.28-0.16-0.27-0.33c0.02-0.16,0.16-0.29,0.33-0.27c0.16,0.02,0.28,0.16,0.27,0.33
		S-30.58,37.07-30.75,37.05z M-30.42,35.85c-0.11-0.12-0.11-0.31,0.01-0.42c0.12-0.11,0.31-0.11,0.42,0.01
		c0.11,0.12,0.11,0.31-0.01,0.42C-30.12,35.98-30.31,35.97-30.42,35.85z M-29.83,36.59c-0.12,0.11-0.31,0.11-0.42-0.01
		c-0.11-0.12-0.11-0.31,0.01-0.42c0.12-0.11,0.31-0.1,0.42,0.01C-29.7,36.28-29.71,36.47-29.83,36.59z M-29.36,35.59
		c-0.15,0.07-0.33,0-0.4-0.15c-0.07-0.15,0-0.33,0.15-0.4c0.15-0.07,0.33,0,0.4,0.15C-29.15,35.34-29.21,35.52-29.36,35.59z
		 M-28.84,34.64c-0.15,0.07-0.33,0-0.4-0.15c-0.07-0.15,0-0.33,0.15-0.4c0.15-0.07,0.33,0,0.4,0.15
		C-28.62,34.39-28.69,34.57-28.84,34.64z M-28.2,33.84c-0.15,0.07-0.33,0-0.4-0.15c-0.07-0.15,0-0.33,0.15-0.4
		c0.15-0.07,0.33,0,0.4,0.15C-27.98,33.6-28.05,33.77-28.2,33.84z M-27.26,33.71c0.07,0.15,0,0.33-0.15,0.4
		c-0.15,0.07-0.33,0-0.4-0.15c-0.07-0.15,0-0.33,0.15-0.4C-27.51,33.49-27.33,33.56-27.26,33.71z M-27.41,33.19
		c-0.15,0.07-0.33,0-0.4-0.15c-0.04-0.08-0.03-0.17,0-0.25c-0.13,0.02-0.26-0.04-0.32-0.17c-0.07-0.15,0-0.33,0.15-0.4
		c0.15-0.07,0.33,0,0.4,0.15c0.04,0.08,0.04,0.17,0,0.25c0.13-0.02,0.26,0.05,0.32,0.17C-27.19,32.95-27.26,33.12-27.41,33.19z
		 M-27.3,32.23c-0.07-0.15,0-0.33,0.15-0.4c0.15-0.07,0.33,0,0.4,0.15c0.07,0.15,0,0.33-0.15,0.4
		C-27.05,32.45-27.23,32.38-27.3,32.23z M-26.36,32.81c-0.14,0.09-0.32,0.06-0.42-0.08c-0.09-0.13-0.06-0.32,0.08-0.41
		c0.13-0.1,0.32-0.06,0.42,0.07C-26.19,32.53-26.23,32.72-26.36,32.81z M-25.93,32.17c-0.14,0.09-0.32,0.06-0.42-0.08
		c-0.09-0.14-0.06-0.32,0.08-0.42c0.14-0.09,0.32-0.06,0.42,0.08C-25.76,31.88-25.79,32.07-25.93,32.17z"/>
	<path fill="none" stroke="#1D1D1B" stroke-width="0.25" stroke-miterlimit="10" d="M-36.06,41.07c-0.16,0-0.3-0.13-0.3-0.3
		c0-0.17,0.13-0.3,0.3-0.3s0.3,0.13,0.3,0.3C-35.76,40.94-35.9,41.07-36.06,41.07z"/>
	<path fill="none" stroke="#1D1D1B" stroke-width="0.25" stroke-miterlimit="10" d="M-35.53,41.54c0,0.16-0.13,0.3-0.3,0.3
		c-0.01,0-0.02,0-0.04,0c-0.05-0.03-0.09-0.07-0.14-0.11c-0.04-0.04-0.08-0.08-0.12-0.13c0-0.02,0-0.04,0-0.06
		c0-0.17,0.13-0.3,0.3-0.3C-35.66,41.24-35.53,41.37-35.53,41.54z"/>
	<path fill="none" stroke="#1D1D1B" stroke-width="0.25" stroke-miterlimit="10" d="M-36.13,40.1c0-0.16,0.13-0.3,0.3-0.3
		c0.03,0,0.06,0,0.08,0.01c-0.01-0.03-0.02-0.07-0.02-0.1c0-0.16,0.13-0.3,0.3-0.3c0.16,0,0.3,0.13,0.3,0.3c0,0.17-0.14,0.3-0.3,0.3
		c-0.03,0-0.06,0-0.08-0.01c0.01,0.03,0.02,0.06,0.02,0.09c0,0.16-0.13,0.3-0.3,0.3C-35.99,40.4-36.13,40.26-36.13,40.1z"/>
	<path fill="none" stroke="#1D1D1B" stroke-width="0.25" stroke-miterlimit="10" d="M-35.08,40.54c0,0.17-0.13,0.3-0.3,0.3
		c-0.16,0-0.3-0.13-0.3-0.3c0-0.16,0.14-0.3,0.3-0.3C-35.21,40.25-35.08,40.38-35.08,40.54z"/>
	<path fill="none" stroke="#1D1D1B" stroke-width="0.25" stroke-miterlimit="10" d="M-34.86,41.25c0,0.16-0.13,0.3-0.3,0.3
		c-0.17,0-0.3-0.13-0.3-0.3c0-0.17,0.13-0.3,0.3-0.3C-35,40.95-34.86,41.09-34.86,41.25z"/>
	<path fill="none" stroke="#1D1D1B" stroke-width="0.25" stroke-miterlimit="10" d="M-35.16,39.37c0-0.17,0.13-0.3,0.3-0.3
		c0.16,0,0.3,0.13,0.3,0.3c0,0.16-0.14,0.3-0.3,0.3C-35.03,39.67-35.16,39.53-35.16,39.37z"/>
	<path fill="none" stroke="#1D1D1B" stroke-width="0.25" stroke-miterlimit="10" d="M-34.61,40.49c-0.17,0-0.3-0.13-0.3-0.3
		c0-0.16,0.13-0.3,0.3-0.3c0.16,0,0.3,0.13,0.3,0.3C-34.31,40.36-34.44,40.49-34.61,40.49z"/>
	<path fill="none" stroke="#1D1D1B" stroke-width="0.25" stroke-miterlimit="10" d="M-34.1,40.95c0,0.16-0.13,0.3-0.3,0.3
		c-0.16,0-0.3-0.14-0.3-0.3c0-0.16,0.14-0.3,0.3-0.3C-34.23,40.66-34.1,40.79-34.1,40.95z"/>
	<path fill="none" stroke="#1D1D1B" stroke-width="0.25" stroke-miterlimit="10" d="M-34.47,39.06c0-0.17,0.14-0.3,0.3-0.3
		s0.3,0.13,0.3,0.3c0,0.16-0.13,0.3-0.3,0.3S-34.47,39.22-34.47,39.06z"/>
	<path fill="none" stroke="#1D1D1B" stroke-width="0.25" stroke-miterlimit="10" d="M-34.47,38.34c0-0.16,0.14-0.3,0.3-0.3
		s0.3,0.13,0.3,0.3c0,0.17-0.13,0.3-0.3,0.3S-34.47,38.51-34.47,38.34z"/>
	<path fill="none" stroke="#1D1D1B" stroke-width="0.25" stroke-miterlimit="10" d="M-33.76,40.04c-0.13,0.1-0.32,0.08-0.42-0.06
		c-0.1-0.13-0.08-0.32,0.06-0.42c0.13-0.1,0.32-0.08,0.42,0.06C-33.6,39.75-33.63,39.94-33.76,40.04z"/>
	<path fill="none" stroke="#1D1D1B" stroke-width="0.25" stroke-miterlimit="10" d="M-34.01,37.92c0-0.16,0.14-0.3,0.3-0.3
		c0.16,0,0.3,0.13,0.3,0.3c0,0.17-0.13,0.3-0.3,0.3C-33.87,38.22-34.01,38.09-34.01,37.92z"/>
	<path fill="none" stroke="#1D1D1B" stroke-width="0.25" stroke-miterlimit="10" d="M-33.35,40.35c0.08,0.11,0.08,0.25,0,0.36
		l-0.03,0.04c-0.01,0.01-0.01,0.02-0.02,0.02c-0.13,0.1-0.32,0.08-0.42-0.06c-0.1-0.13-0.08-0.32,0.06-0.42
		C-33.64,40.19-33.45,40.22-33.35,40.35z"/>
	<path fill="none" stroke="#1D1D1B" stroke-width="0.25" stroke-miterlimit="10" d="M-33.28,38.6c0.15,0.07,0.21,0.25,0.14,0.4
		c-0.07,0.15-0.25,0.21-0.4,0.14c-0.15-0.08-0.21-0.25-0.14-0.4C-33.6,38.59-33.42,38.53-33.28,38.6z"/>
	<path fill="none" stroke="#1D1D1B" stroke-width="0.25" stroke-miterlimit="10" d="M-33.37,37.05c0-0.16,0.13-0.3,0.3-0.3
		c0.17,0,0.3,0.13,0.3,0.3c0,0.17-0.13,0.3-0.3,0.3C-33.24,37.35-33.37,37.22-33.37,37.05z"/>
	<path fill="none" stroke="#1D1D1B" stroke-width="0.25" stroke-miterlimit="10" d="M-32.91,37.49c0.16,0,0.3,0.13,0.3,0.3
		s-0.14,0.3-0.3,0.3c-0.16,0-0.3-0.14-0.3-0.3S-33.08,37.49-32.91,37.49z"/>
	<path fill="none" stroke="#1D1D1B" stroke-width="0.25" stroke-miterlimit="10" d="M-32.86,39.39c0.1,0.13,0.08,0.32-0.06,0.42
		c-0.13,0.1-0.32,0.08-0.42-0.06c-0.1-0.13-0.08-0.32,0.06-0.42C-33.15,39.24-32.96,39.26-32.86,39.39z"/>
	<path fill="none" stroke="#1D1D1B" stroke-width="0.25" stroke-miterlimit="10" d="M-32.51,38.77c-0.07,0.15-0.25,0.21-0.4,0.14
		c-0.15-0.08-0.21-0.25-0.14-0.4c0.07-0.15,0.25-0.21,0.4-0.14C-32.5,38.44-32.44,38.62-32.51,38.77z"/>
	<path fill="none" stroke="#1D1D1B" stroke-width="0.25" stroke-miterlimit="10" d="M-32.15,39.02c0.08,0.11,0.08,0.26,0,0.37
		c0,0-0.01,0.01-0.01,0.01c-0.01,0.01-0.03,0.03-0.04,0.04c-0.13,0.1-0.32,0.08-0.42-0.06c-0.1-0.13-0.08-0.32,0.06-0.42
		C-32.43,38.87-32.25,38.89-32.15,39.02z"/>
	<path fill="none" stroke="#1D1D1B" stroke-width="0.25" stroke-miterlimit="10" d="M-32.63,36.92c-0.09-0.14-0.06-0.32,0.07-0.42
		c0.14-0.09,0.32-0.06,0.42,0.07c0.09,0.14,0.06,0.32-0.07,0.42C-32.35,37.09-32.54,37.06-32.63,36.92z"/>
	<path fill="none" stroke="#1D1D1B" stroke-width="0.25" stroke-miterlimit="10" d="M-32.52,37.47c0.07-0.15,0.25-0.21,0.4-0.14
		c0.15,0.07,0.21,0.25,0.14,0.4c-0.07,0.15-0.25,0.21-0.4,0.14C-32.53,37.8-32.6,37.62-32.52,37.47z"/>
	<path fill="none" stroke="#1D1D1B" stroke-width="0.25" stroke-miterlimit="10" d="M-32.4,36.18c-0.07-0.09-0.07-0.21-0.02-0.3
		l0.12-0.13c0.13-0.08,0.31-0.04,0.4,0.09c0.09,0.14,0.06,0.32-0.08,0.42C-32.11,36.35-32.3,36.31-32.4,36.18z"/>
	<path fill="none" stroke="#1D1D1B" stroke-width="0.25" stroke-miterlimit="10" d="M-31.59,38.47c-0.07,0.15-0.25,0.21-0.4,0.14
		c-0.15-0.07-0.21-0.25-0.14-0.4c0.07-0.15,0.25-0.21,0.4-0.14C-31.58,38.15-31.52,38.33-31.59,38.47z"/>
	<path fill="none" stroke="#1D1D1B" stroke-width="0.25" stroke-miterlimit="10" d="M-31.95,35.71c-0.09-0.14-0.06-0.32,0.08-0.42
		c0.14-0.09,0.32-0.06,0.42,0.08c0.09,0.14,0.06,0.32-0.08,0.42C-31.67,35.88-31.85,35.85-31.95,35.71z"/>
	<path fill="none" stroke="#1D1D1B" stroke-width="0.25" stroke-miterlimit="10" d="M-31.84,36.48c-0.09-0.14-0.06-0.32,0.07-0.42
		c0.14-0.09,0.32-0.06,0.42,0.07c0.09,0.14,0.06,0.32-0.07,0.42C-31.55,36.65-31.74,36.61-31.84,36.48z"/>
	<path fill="none" stroke="#1D1D1B" stroke-width="0.25" stroke-miterlimit="10" d="M-31.85,37.11c0.02-0.16,0.16-0.29,0.33-0.27
		c0.16,0.02,0.29,0.16,0.27,0.33c-0.02,0.16-0.16,0.29-0.33,0.27C-31.75,37.42-31.86,37.27-31.85,37.11z"/>
	<path fill="none" stroke="#1D1D1B" stroke-width="0.25" stroke-miterlimit="10" d="M-30.98,37.92c-0.07,0.15-0.25,0.21-0.4,0.14
		s-0.21-0.25-0.14-0.4c0.07-0.15,0.25-0.21,0.4-0.14C-30.97,37.6-30.91,37.78-30.98,37.92z"/>
	<path fill="none" stroke="#1D1D1B" stroke-width="0.25" stroke-miterlimit="10" d="M-31.35,35.12c-0.09-0.14-0.06-0.32,0.07-0.42
		c0.14-0.09,0.32-0.06,0.42,0.07c0.09,0.14,0.06,0.32-0.07,0.42C-31.06,35.29-31.25,35.26-31.35,35.12z"/>
	<path fill="none" stroke="#1D1D1B" stroke-width="0.25" stroke-miterlimit="10" d="M-30.9,35.54c0.16,0.02,0.28,0.16,0.27,0.33
		c-0.02,0.16-0.16,0.29-0.33,0.27c-0.16-0.02-0.28-0.16-0.27-0.33C-31.21,35.65-31.06,35.53-30.9,35.54z"/>
	<path fill="none" stroke="#1D1D1B" stroke-width="0.25" stroke-miterlimit="10" d="M-31.02,36.72c0.02-0.16,0.16-0.29,0.33-0.27
		c0.16,0.02,0.28,0.16,0.27,0.33s-0.16,0.29-0.33,0.27C-30.91,37.03-31.03,36.89-31.02,36.72z"/>
	<path fill="none" stroke="#1D1D1B" stroke-width="0.25" stroke-miterlimit="10" d="M-30.36,37.38c0,0.02,0,0.03-0.01,0.05
		l-0.19,0.21c-0.04,0.01-0.08,0.02-0.13,0.01c-0.16-0.02-0.29-0.16-0.27-0.33c0.02-0.16,0.16-0.29,0.33-0.27
		C-30.47,37.07-30.34,37.22-30.36,37.38z"/>
	<path fill="none" stroke="#1D1D1B" stroke-width="0.25" stroke-miterlimit="10" d="M-30.75,34.3c-0.05-0.07-0.06-0.14-0.05-0.21
		l0.23-0.25c0.12-0.03,0.24,0.02,0.31,0.12c0.09,0.14,0.06,0.32-0.07,0.42C-30.47,34.47-30.65,34.44-30.75,34.3z"/>
	<path fill="none" stroke="#1D1D1B" stroke-width="0.25" stroke-miterlimit="10" d="M-30.66,35.16c-0.11-0.12-0.11-0.31,0.01-0.42
		c0.12-0.11,0.31-0.11,0.42,0.01c0.11,0.12,0.11,0.31-0.01,0.42C-30.36,35.28-30.55,35.28-30.66,35.16z"/>
	<path fill="none" stroke="#1D1D1B" stroke-width="0.25" stroke-miterlimit="10" d="M-30.42,35.85c-0.11-0.12-0.11-0.31,0.01-0.42
		c0.12-0.11,0.31-0.11,0.42,0.01c0.11,0.12,0.11,0.31-0.01,0.42C-30.12,35.98-30.31,35.97-30.42,35.85z"/>
	<path fill="none" stroke="#1D1D1B" stroke-width="0.25" stroke-miterlimit="10" d="M-29.81,36.16c0.11,0.12,0.1,0.31-0.02,0.42
		c-0.12,0.11-0.31,0.11-0.42-0.01c-0.11-0.12-0.11-0.31,0.01-0.42C-30.12,36.03-29.93,36.04-29.81,36.16z"/>
	<path fill="none" stroke="#1D1D1B" stroke-width="0.25" stroke-miterlimit="10" d="M-30.2,33.92c-0.09-0.13-0.06-0.32,0.07-0.42
		c0.14-0.09,0.32-0.06,0.42,0.08c0.09,0.14,0.06,0.32-0.07,0.42C-29.92,34.09-30.1,34.06-30.2,33.92z"/>
	<path fill="none" stroke="#1D1D1B" stroke-width="0.25" stroke-miterlimit="10" d="M-30,34.74c-0.07-0.15,0-0.33,0.15-0.4
		c0.15-0.07,0.33,0,0.4,0.15c0.07,0.15,0,0.33-0.15,0.4C-29.76,34.95-29.94,34.89-30,34.74z"/>
	<path fill="none" stroke="#1D1D1B" stroke-width="0.25" stroke-miterlimit="10" d="M-29.22,35.19c0.07,0.15,0,0.33-0.15,0.4
		c-0.15,0.07-0.33,0-0.4-0.15c-0.07-0.15,0-0.33,0.15-0.4C-29.46,34.97-29.29,35.04-29.22,35.19z"/>
	<path fill="none" stroke="#1D1D1B" stroke-width="0.25" stroke-miterlimit="10" d="M-29.56,33.09c-0.09-0.14-0.06-0.32,0.08-0.42
		c0.14-0.09,0.32-0.06,0.42,0.08c0.09,0.13,0.06,0.32-0.08,0.41c-0.02,0.02-0.05,0.03-0.08,0.04c0.11,0.01,0.2,0.07,0.25,0.17
		c0.07,0.15,0,0.33-0.15,0.4c-0.15,0.07-0.33,0-0.4-0.15c-0.07-0.15,0-0.33,0.15-0.4c0.01,0,0.03-0.01,0.04-0.01
		C-29.42,33.21-29.5,33.17-29.56,33.09z"/>
	<path fill="none" stroke="#1D1D1B" stroke-width="0.25" stroke-miterlimit="10" d="M-28.69,34.24c0.07,0.15,0,0.33-0.15,0.4
		c-0.15,0.07-0.33,0-0.4-0.15c-0.07-0.15,0-0.33,0.15-0.4C-28.94,34.02-28.76,34.09-28.69,34.24z"/>
	<path fill="none" stroke="#1D1D1B" stroke-width="0.25" stroke-miterlimit="10" d="M-28.93,32.44c-0.09-0.14-0.06-0.32,0.08-0.42
		c0.14-0.09,0.32-0.06,0.42,0.07c0.09,0.14,0.06,0.32-0.08,0.42C-28.64,32.61-28.83,32.58-28.93,32.44z"/>
	<path fill="none" stroke="#1D1D1B" stroke-width="0.25" stroke-miterlimit="10" d="M-28.25,32.8c0.07,0.15,0,0.33-0.15,0.4
		c-0.15,0.07-0.33,0-0.4-0.15c-0.07-0.15,0-0.33,0.15-0.4C-28.5,32.58-28.32,32.65-28.25,32.8z"/>
	<path fill="none" stroke="#1D1D1B" stroke-width="0.25" stroke-miterlimit="10" d="M-28.05,33.45c0.07,0.15,0,0.33-0.15,0.4
		c-0.15,0.07-0.33,0-0.4-0.15c-0.07-0.15,0-0.33,0.15-0.4C-28.3,33.23-28.12,33.3-28.05,33.45z"/>
	<path fill="none" stroke="#1D1D1B" stroke-width="0.25" stroke-miterlimit="10" d="M-28.32,31.93c-0.09-0.14-0.06-0.32,0.07-0.42
		c0.14-0.09,0.32-0.06,0.42,0.07c0.09,0.14,0.06,0.32-0.07,0.42C-28.04,32.1-28.23,32.06-28.32,31.93z"/>
	<path fill="none" stroke="#1D1D1B" stroke-width="0.25" stroke-miterlimit="10" d="M-27.26,33.71c0.07,0.15,0,0.33-0.15,0.4
		c-0.15,0.07-0.33,0-0.4-0.15c-0.07-0.15,0-0.33,0.15-0.4C-27.51,33.49-27.33,33.56-27.26,33.71z"/>
	<path fill="none" stroke="#1D1D1B" stroke-width="0.25" stroke-miterlimit="10" d="M-27.8,32.8c-0.13,0.02-0.26-0.04-0.32-0.17
		c-0.07-0.15,0-0.33,0.15-0.4c0.15-0.07,0.33,0,0.4,0.15c0.04,0.08,0.04,0.17,0,0.25c0.13-0.02,0.26,0.05,0.32,0.17
		c0.07,0.15,0,0.33-0.15,0.4c-0.15,0.07-0.33,0-0.4-0.15C-27.84,32.96-27.84,32.88-27.8,32.8z"/>
	<path fill="none" stroke="#1D1D1B" stroke-width="0.25" stroke-miterlimit="10" d="M-27.59,31.05c0.01-0.01,0.03-0.02,0.05-0.03
		c-0.02-0.01-0.04-0.04-0.06-0.06c-0.09-0.14-0.06-0.32,0.08-0.42c0.14-0.09,0.32-0.06,0.42,0.08c0.09,0.14,0.06,0.32-0.08,0.42
		c-0.01,0.01-0.03,0.02-0.04,0.03c0.02,0.02,0.04,0.04,0.05,0.06c0.09,0.14,0.06,0.32-0.07,0.42c-0.14,0.09-0.32,0.06-0.42-0.08
		C-27.76,31.33-27.72,31.15-27.59,31.05z"/>
	<path fill="none" stroke="#1D1D1B" stroke-width="0.25" stroke-miterlimit="10" d="M-27.15,31.84c0.15-0.07,0.33,0,0.4,0.15
		c0.07,0.15,0,0.33-0.15,0.4c-0.15,0.07-0.33,0-0.4-0.15C-27.37,32.08-27.3,31.91-27.15,31.84z"/>
	<path fill="none" stroke="#1D1D1B" stroke-width="0.25" stroke-miterlimit="10" d="M-26.7,33.21c0.02,0.05,0.03,0.09,0.03,0.14
		l-0.25,0.28c-0.13,0.02-0.26-0.05-0.32-0.17c-0.07-0.15,0-0.33,0.15-0.4C-26.95,33-26.77,33.06-26.7,33.21z"/>
	<path fill="none" stroke="#1D1D1B" stroke-width="0.25" stroke-miterlimit="10" d="M-26.29,32.39c0.09,0.14,0.06,0.32-0.08,0.42
		c-0.14,0.09-0.32,0.06-0.42-0.08c-0.09-0.13-0.06-0.32,0.08-0.41C-26.57,32.22-26.38,32.26-26.29,32.39z"/>
	<path fill="none" stroke="#1D1D1B" stroke-width="0.25" stroke-miterlimit="10" d="M-26.78,31.47c-0.09-0.13-0.06-0.32,0.08-0.41
		c0.13-0.1,0.32-0.06,0.42,0.07c0.09,0.14,0.06,0.32-0.08,0.42C-26.5,31.64-26.68,31.6-26.78,31.47z"/>
	<path fill="none" stroke="#1D1D1B" stroke-width="0.25" stroke-miterlimit="10" d="M-25.93,32.17c-0.14,0.09-0.32,0.06-0.42-0.08
		c-0.09-0.14-0.06-0.32,0.08-0.42c0.14-0.09,0.32-0.06,0.42,0.08C-25.76,31.88-25.79,32.07-25.93,32.17z"/>
	<path fill="#D3D005" d="M-34.86,41.25c0,0.16-0.13,0.3-0.3,0.3c-0.17,0-0.3-0.13-0.3-0.3c0-0.17,0.13-0.3,0.3-0.3
		C-35,40.95-34.86,41.09-34.86,41.25z"/>
	<path fill="#D3D005" d="M-34.1,40.95c0,0.16-0.13,0.3-0.3,0.3c-0.16,0-0.3-0.14-0.3-0.3c0-0.16,0.14-0.3,0.3-0.3
		C-34.23,40.66-34.1,40.79-34.1,40.95z"/>
	<path fill="#D3D005" d="M-35.08,40.54c0,0.17-0.13,0.3-0.3,0.3c-0.16,0-0.3-0.13-0.3-0.3c0-0.16,0.14-0.3,0.3-0.3
		C-35.21,40.25-35.08,40.38-35.08,40.54z"/>
	<path fill="#D3D005" d="M-34.31,40.19c0,0.16-0.13,0.3-0.3,0.3c-0.17,0-0.3-0.13-0.3-0.3c0-0.16,0.13-0.3,0.3-0.3
		C-34.44,39.9-34.31,40.03-34.31,40.19z"/>
	<path fill="#D3D005" d="M-34.56,39.37c0,0.16-0.14,0.3-0.3,0.3c-0.16,0-0.3-0.13-0.3-0.3c0-0.17,0.13-0.3,0.3-0.3
		C-34.7,39.07-34.56,39.2-34.56,39.37z"/>
	<path fill="#D3D005" d="M-33.88,39.06c0,0.16-0.13,0.3-0.3,0.3s-0.3-0.13-0.3-0.3c0-0.17,0.14-0.3,0.3-0.3
		S-33.88,38.89-33.88,39.06z"/>
	<path fill="#D3D005" d="M-33.88,38.34c0,0.17-0.13,0.3-0.3,0.3s-0.3-0.13-0.3-0.3c0-0.16,0.14-0.3,0.3-0.3
		S-33.88,38.18-33.88,38.34z"/>
	<path fill="#D3D005" d="M-32.61,37.79c0,0.16-0.14,0.3-0.3,0.3c-0.16,0-0.3-0.14-0.3-0.3s0.13-0.3,0.3-0.3
		C-32.75,37.49-32.61,37.63-32.61,37.79z"/>
	<path fill="#D3D005" d="M-33.41,37.92c0,0.17-0.13,0.3-0.3,0.3c-0.16,0-0.3-0.13-0.3-0.3c0-0.16,0.14-0.3,0.3-0.3
		C-33.54,37.62-33.41,37.75-33.41,37.92z"/>
	<path fill="#D3D005" d="M-32.77,37.05c0,0.17-0.13,0.3-0.3,0.3c-0.16,0-0.3-0.13-0.3-0.3c0-0.16,0.13-0.3,0.3-0.3
		C-32.91,36.75-32.77,36.89-32.77,37.05z"/>
	<path fill="#D3D005" d="M-32.21,37c-0.14,0.09-0.32,0.06-0.42-0.07c-0.09-0.14-0.06-0.32,0.07-0.42c0.14-0.09,0.32-0.06,0.42,0.07
		C-32.05,36.72-32.08,36.9-32.21,37z"/>
	<path fill="#D3D005" d="M-31.42,36.55c-0.14,0.09-0.32,0.06-0.42-0.07s-0.06-0.32,0.07-0.42c0.14-0.09,0.32-0.06,0.42,0.07
		C-31.25,36.27-31.28,36.46-31.42,36.55z"/>
	<path fill="#D3D005" d="M-31.98,36.25c-0.13,0.09-0.32,0.06-0.41-0.08c-0.07-0.09-0.07-0.21-0.02-0.3c0.02-0.05,0.05-0.09,0.1-0.12
		c0.01,0,0.01-0.01,0.02-0.01c0.13-0.08,0.31-0.04,0.4,0.09C-31.81,35.97-31.85,36.16-31.98,36.25z"/>
	<path fill="#D3D005" d="M-31.53,35.79c-0.14,0.09-0.32,0.06-0.42-0.08c-0.09-0.14-0.06-0.32,0.08-0.42
		c0.14-0.09,0.32-0.06,0.42,0.08C-31.36,35.51-31.4,35.69-31.53,35.79z"/>
	<path fill="#D3D005" d="M-30.93,35.2c-0.14,0.09-0.32,0.06-0.42-0.07c-0.09-0.14-0.06-0.32,0.07-0.42
		c0.14-0.09,0.32-0.06,0.42,0.07C-30.76,34.92-30.8,35.1-30.93,35.2z"/>
	<path fill="#D3D005" d="M-30.33,34.38c-0.14,0.09-0.32,0.06-0.42-0.08c-0.05-0.07-0.06-0.14-0.05-0.21
		c0.01-0.08,0.05-0.16,0.12-0.2c0.03-0.02,0.07-0.04,0.1-0.05c0.12-0.03,0.24,0.02,0.31,0.12C-30.16,34.1-30.19,34.28-30.33,34.38z"
		/>
	<path fill="#D3D005" d="M-29.78,33.99c-0.14,0.09-0.32,0.06-0.42-0.08c-0.09-0.13-0.06-0.32,0.07-0.42
		c0.14-0.09,0.32-0.06,0.42,0.08C-29.61,33.71-29.65,33.9-29.78,33.99z"/>
	<path fill="#D3D005" d="M-27.9,32c-0.14,0.09-0.32,0.06-0.42-0.07c-0.09-0.14-0.06-0.32,0.07-0.42c0.14-0.09,0.32-0.06,0.42,0.07
		C-27.74,31.72-27.77,31.91-27.9,32z"/>
	<path fill="#D3D005" d="M-27.25,31.54c-0.14,0.09-0.32,0.06-0.42-0.08c-0.09-0.13-0.06-0.32,0.07-0.41
		c0.01-0.01,0.03-0.02,0.05-0.03c0.1-0.05,0.23-0.03,0.32,0.04c0.02,0.02,0.04,0.04,0.05,0.06C-27.08,31.26-27.11,31.45-27.25,31.54
		z"/>
	<path fill="#D3D005" d="M-28.51,32.51c-0.14,0.09-0.32,0.06-0.42-0.07c-0.09-0.14-0.06-0.32,0.08-0.42
		c0.14-0.09,0.32-0.06,0.42,0.07C-28.34,32.23-28.37,32.42-28.51,32.51z"/>
	<path fill="#D3D005" d="M-29.14,33.16c-0.02,0.02-0.05,0.03-0.08,0.04c-0.03,0.01-0.07,0.02-0.11,0.01c-0.09,0-0.18-0.04-0.23-0.12
		c-0.09-0.14-0.06-0.32,0.08-0.42c0.14-0.09,0.32-0.06,0.42,0.08C-28.97,32.88-29.01,33.07-29.14,33.16z"/>
	<path fill="#D3D005" d="M-26.36,31.54c-0.14,0.09-0.32,0.06-0.42-0.08c-0.09-0.13-0.06-0.32,0.08-0.41
		c0.13-0.1,0.32-0.06,0.42,0.07C-26.19,31.26-26.23,31.45-26.36,31.54z"/>
	<path fill="#D3D005" d="M-27.19,31.04c-0.01,0.01-0.03,0.02-0.04,0.03c-0.11,0.05-0.23,0.03-0.32-0.04
		c-0.02-0.01-0.04-0.04-0.06-0.06c-0.09-0.14-0.06-0.32,0.08-0.42c0.14-0.09,0.32-0.06,0.42,0.08
		C-27.02,30.76-27.05,30.95-27.19,31.04z"/>
	<path fill="#D3D005" d="M-25.93,32.17c-0.14,0.09-0.32,0.06-0.42-0.08c-0.09-0.14-0.06-0.32,0.08-0.42
		c0.14-0.09,0.32-0.06,0.42,0.08C-25.76,31.88-25.79,32.07-25.93,32.17z"/>
	<path fill="#D3D005" d="M-26.36,32.81c-0.14,0.09-0.32,0.06-0.42-0.08c-0.09-0.13-0.06-0.32,0.08-0.41
		c0.13-0.1,0.32-0.06,0.42,0.07C-26.19,32.53-26.23,32.72-26.36,32.81z"/>
	<path fill="#D3D005" d="M-26.67,33.35c-0.01,0.11-0.07,0.21-0.17,0.26c-0.02,0.01-0.05,0.02-0.08,0.02
		c-0.13,0.02-0.26-0.05-0.32-0.17c-0.07-0.15,0-0.33,0.15-0.4c0.15-0.07,0.33,0,0.4,0.15C-26.68,33.26-26.67,33.31-26.67,33.35z"/>
	<path fill="#D3D005" d="M-27.41,33.19c-0.15,0.07-0.33,0-0.4-0.15c-0.04-0.08-0.03-0.17,0-0.25c0.03-0.06,0.08-0.12,0.15-0.15
		c0.03-0.01,0.05-0.02,0.08-0.02c0.13-0.02,0.26,0.05,0.32,0.17C-27.19,32.95-27.26,33.12-27.41,33.19z"/>
	<path fill="#D3D005" d="M-26.9,32.38c-0.15,0.07-0.33,0-0.4-0.15c-0.07-0.15,0-0.33,0.15-0.4c0.15-0.07,0.33,0,0.4,0.15
		C-26.69,32.13-26.75,32.31-26.9,32.38z"/>
	<path fill="#D3D005" d="M-27.58,32.63c-0.03,0.06-0.08,0.12-0.15,0.15c-0.02,0.01-0.05,0.02-0.08,0.02
		c-0.13,0.02-0.26-0.04-0.32-0.17c-0.07-0.15,0-0.33,0.15-0.4c0.15-0.07,0.33,0,0.4,0.15C-27.54,32.46-27.54,32.55-27.58,32.63z"/>
	<path fill="#D3D005" d="M-28.4,33.19c-0.15,0.07-0.33,0-0.4-0.15c-0.07-0.15,0-0.33,0.15-0.4c0.15-0.07,0.33,0,0.4,0.15
		C-28.19,32.95-28.25,33.12-28.4,33.19z"/>
	<path fill="#D3D005" d="M-28.2,33.84c-0.15,0.07-0.33,0-0.4-0.15c-0.07-0.15,0-0.33,0.15-0.4c0.15-0.07,0.33,0,0.4,0.15
		C-27.98,33.6-28.05,33.77-28.2,33.84z"/>
	<path fill="#D3D005" d="M-27.41,34.1c-0.15,0.07-0.33,0-0.4-0.15c-0.07-0.15,0-0.33,0.15-0.4c0.15-0.07,0.33,0,0.4,0.15
		C-27.19,33.86-27.26,34.03-27.41,34.1z"/>
	<path fill="#D3D005" d="M-28.84,34.64c-0.15,0.07-0.33,0-0.4-0.15c-0.07-0.15,0-0.33,0.15-0.4c0.15-0.07,0.33,0,0.4,0.15
		C-28.62,34.39-28.69,34.57-28.84,34.64z"/>
	<path fill="#D3D005" d="M-29.11,33.77c-0.15,0.07-0.33,0-0.4-0.15c-0.07-0.15,0-0.33,0.15-0.4c0.01,0,0.03-0.01,0.04-0.01
		c0.04-0.01,0.07-0.01,0.11-0.01c0.11,0.01,0.2,0.07,0.25,0.17C-28.9,33.53-28.96,33.71-29.11,33.77z"/>
	<path fill="#D3D005" d="M-29.61,34.88c-0.15,0.07-0.33,0-0.4-0.15c-0.07-0.15,0-0.33,0.15-0.4c0.15-0.07,0.33,0,0.4,0.15
		C-29.39,34.64-29.46,34.81-29.61,34.88z"/>
	<path fill="#D3D005" d="M-29.36,35.59c-0.15,0.07-0.33,0-0.4-0.15c-0.07-0.15,0-0.33,0.15-0.4c0.15-0.07,0.33,0,0.4,0.15
		C-29.15,35.34-29.21,35.52-29.36,35.59z"/>
	<path fill="#D3D005" d="M-29.83,36.59c-0.12,0.11-0.31,0.11-0.42-0.01c-0.11-0.12-0.11-0.31,0.01-0.42
		c0.12-0.11,0.31-0.1,0.42,0.01C-29.7,36.28-29.71,36.47-29.83,36.59z"/>
	<path fill="#D3D005" d="M-30,35.86c-0.12,0.11-0.31,0.1-0.42-0.01c-0.11-0.12-0.11-0.31,0.01-0.42c0.12-0.11,0.31-0.11,0.42,0.01
		C-29.87,35.56-29.88,35.75-30,35.86z"/>
	<path fill="#D3D005" d="M-30.63,35.87c-0.02,0.16-0.16,0.29-0.33,0.27c-0.16-0.02-0.28-0.16-0.27-0.33
		c0.02-0.16,0.16-0.29,0.33-0.27C-30.73,35.56-30.61,35.71-30.63,35.87z"/>
	<path fill="#D3D005" d="M-30.42,36.78c-0.02,0.16-0.16,0.29-0.33,0.27c-0.16-0.02-0.28-0.16-0.27-0.33
		c0.02-0.16,0.16-0.29,0.33-0.27C-30.52,36.47-30.4,36.62-30.42,36.78z"/>
	<path fill="#D3D005" d="M-31.25,37.16c-0.02,0.16-0.16,0.29-0.33,0.27c-0.16-0.02-0.28-0.16-0.27-0.33
		c0.02-0.16,0.16-0.29,0.33-0.27C-31.36,36.85-31.24,37-31.25,37.16z"/>
	<path fill="#D3D005" d="M-30.36,37.38c0,0.02,0,0.03-0.01,0.05c-0.03,0.1-0.1,0.17-0.19,0.21c-0.04,0.01-0.08,0.02-0.13,0.01
		c-0.16-0.02-0.29-0.16-0.27-0.33c0.02-0.16,0.16-0.29,0.33-0.27C-30.47,37.07-30.34,37.22-30.36,37.38z"/>
	<path fill="#D3D005" d="M-30.98,37.92c-0.07,0.15-0.25,0.21-0.4,0.14s-0.21-0.25-0.14-0.4c0.07-0.15,0.25-0.21,0.4-0.14
		C-30.97,37.6-30.91,37.78-30.98,37.92z"/>
	<path fill="#D3D005" d="M-31.99,37.73c-0.07,0.15-0.25,0.21-0.4,0.14c-0.15-0.07-0.21-0.25-0.14-0.4c0.07-0.15,0.25-0.21,0.4-0.14
		C-31.97,37.4-31.91,37.58-31.99,37.73z"/>
	<path fill="#D3D005" d="M-31.59,38.47c-0.07,0.15-0.25,0.21-0.4,0.14c-0.15-0.07-0.21-0.25-0.14-0.4c0.07-0.15,0.25-0.21,0.4-0.14
		C-31.58,38.15-31.52,38.33-31.59,38.47z"/>
	<path fill="#D3D005" d="M-32.51,38.77c-0.07,0.15-0.25,0.21-0.4,0.14c-0.15-0.08-0.21-0.25-0.14-0.4c0.07-0.15,0.25-0.21,0.4-0.14
		C-32.5,38.44-32.44,38.62-32.51,38.77z"/>
	<path fill="#D3D005" d="M-33.14,39.01c-0.07,0.15-0.25,0.21-0.4,0.14c-0.15-0.08-0.21-0.25-0.14-0.4c0.07-0.15,0.25-0.21,0.4-0.14
		C-33.13,38.68-33.07,38.86-33.14,39.01z"/>
	<path fill="#D3D005" d="M-32.92,39.81c-0.13,0.1-0.32,0.08-0.42-0.06c-0.1-0.13-0.08-0.32,0.06-0.42c0.13-0.1,0.32-0.07,0.42,0.06
		C-32.76,39.52-32.78,39.71-32.92,39.81z"/>
	<path fill="#D3D005" d="M-33.76,40.04c-0.13,0.1-0.32,0.08-0.42-0.06c-0.1-0.13-0.08-0.32,0.06-0.42c0.13-0.1,0.32-0.08,0.42,0.06
		C-33.6,39.75-33.63,39.94-33.76,40.04z"/>
	<path fill="#D3D005" d="M-33.35,40.71l-0.03,0.04c-0.01,0.01-0.01,0.02-0.02,0.02c-0.13,0.1-0.32,0.08-0.42-0.06
		c-0.1-0.13-0.08-0.32,0.06-0.42c0.13-0.1,0.32-0.08,0.42,0.06C-33.27,40.46-33.27,40.61-33.35,40.71z"/>
	<path fill="#D3D005" d="M-32.15,39.39c0,0-0.01,0.01-0.01,0.01c-0.01,0.01-0.03,0.03-0.04,0.04c-0.13,0.1-0.32,0.08-0.42-0.06
		c-0.1-0.13-0.08-0.32,0.06-0.42c0.13-0.1,0.32-0.08,0.42,0.06C-32.06,39.13-32.07,39.28-32.15,39.39z"/>
	<path fill="#D3D005" d="M-30.24,35.17c-0.12,0.11-0.31,0.11-0.42-0.01c-0.11-0.12-0.11-0.31,0.01-0.42
		c0.12-0.11,0.31-0.11,0.42,0.01C-30.11,34.87-30.12,35.06-30.24,35.17z"/>
	<path fill="#D3D005" d="M-35.53,41.54c0,0.16-0.13,0.3-0.3,0.3c-0.01,0-0.02,0-0.04,0c-0.13-0.01-0.23-0.11-0.26-0.24
		c0-0.02,0-0.04,0-0.06c0-0.17,0.13-0.3,0.3-0.3C-35.66,41.24-35.53,41.37-35.53,41.54z"/>
	<path fill="#D3D005" d="M-35.53,40.1c0,0.16-0.13,0.3-0.3,0.3c-0.16,0-0.3-0.13-0.3-0.3c0-0.16,0.13-0.3,0.3-0.3
		c0.03,0,0.06,0,0.08,0.01c0.09,0.02,0.17,0.1,0.2,0.19C-35.53,40.03-35.53,40.07-35.53,40.1z"/>
	<path fill="#D3D005" d="M-35.76,40.78c0,0.16-0.14,0.3-0.3,0.3s-0.3-0.13-0.3-0.3c0-0.17,0.13-0.3,0.3-0.3
		S-35.76,40.61-35.76,40.78z"/>
	<path fill="#D3D005" d="M-35.16,39.72c0,0.17-0.14,0.3-0.3,0.3c-0.03,0-0.06,0-0.08-0.01c-0.09-0.03-0.16-0.1-0.2-0.19
		c-0.01-0.03-0.02-0.07-0.02-0.1c0-0.16,0.13-0.3,0.3-0.3C-35.3,39.42-35.16,39.55-35.16,39.72z"/>
</g>
<g>
	<circle fill="#FFEC00" stroke="#1D1D1B" stroke-miterlimit="10" cx="83" cy="-20.56" r="6.94"/>
	<g>
		<line fill="none" stroke="#1D1D1B" stroke-miterlimit="10" stroke-dasharray="6.0535" x1="83" y1="-36.17" x2="83" y2="-30.12"/>
	</g>
	<g>
		
			<line fill="none" stroke="#1D1D1B" stroke-miterlimit="10" stroke-dasharray="6.0535" x1="75.19" y1="-34.08" x2="78.22" y2="-28.84"/>
	</g>
	<g>
		
			<line fill="none" stroke="#1D1D1B" stroke-miterlimit="10" stroke-dasharray="6.0535" x1="69.48" y1="-28.37" x2="74.72" y2="-25.34"/>
	</g>
	<g>
		
			<line fill="none" stroke="#1D1D1B" stroke-miterlimit="10" stroke-dasharray="6.0535" x1="67.39" y1="-20.56" x2="73.44" y2="-20.56"/>
	</g>
	<g>
		
			<line fill="none" stroke="#1D1D1B" stroke-miterlimit="10" stroke-dasharray="6.0535" x1="69.48" y1="-12.76" x2="74.72" y2="-15.78"/>
	</g>
	<g>
		
			<line fill="none" stroke="#1D1D1B" stroke-miterlimit="10" stroke-dasharray="6.0535" x1="75.19" y1="-7.05" x2="78.22" y2="-12.29"/>
	</g>
	<g>
		<line fill="none" stroke="#1D1D1B" stroke-miterlimit="10" stroke-dasharray="6.0535" x1="83" y1="-4.95" x2="83" y2="-11.01"/>
	</g>
	<g>
		
			<line fill="none" stroke="#1D1D1B" stroke-miterlimit="10" stroke-dasharray="6.0535" x1="90.8" y1="-7.05" x2="87.77" y2="-12.29"/>
	</g>
	<g>
		
			<line fill="none" stroke="#1D1D1B" stroke-miterlimit="10" stroke-dasharray="6.0535" x1="96.51" y1="-12.76" x2="91.27" y2="-15.78"/>
	</g>
	<g>
		
			<line fill="none" stroke="#1D1D1B" stroke-miterlimit="10" stroke-dasharray="6.0535" x1="98.6" y1="-20.56" x2="92.55" y2="-20.56"/>
	</g>
	<g>
		
			<line fill="none" stroke="#1D1D1B" stroke-miterlimit="10" stroke-dasharray="6.0535" x1="96.51" y1="-28.37" x2="91.27" y2="-25.34"/>
	</g>
	<g>
		
			<line fill="none" stroke="#1D1D1B" stroke-miterlimit="10" stroke-dasharray="6.0535" x1="90.8" y1="-34.08" x2="87.77" y2="-28.84"/>
	</g>
</g>
<g>
	<path fill="#D9D9D9" stroke="#B1B1B1" stroke-miterlimit="10" d="M-86.77,2.4h-10.15c-1.97,0-3.57-1.6-3.57-3.57v0
		c0-1.97,1.6-3.57,3.57-3.57h10.15c1.97,0,3.57,1.6,3.57,3.57v0C-83.2,0.8-84.8,2.4-86.77,2.4z"/>
	<circle fill="#D9D9D9" stroke="#B1B1B1" stroke-miterlimit="10" cx="-97.69" cy="-5.69" r="3.85"/>
	<circle fill="#D9D9D9" stroke="#B1B1B1" stroke-miterlimit="10" cx="-93.25" cy="-7.87" r="4.44"/>
	<circle fill="#D9D9D9" stroke="#B1B1B1" stroke-miterlimit="10" cx="-86.49" cy="-5.05" r="4.15"/>
	<circle fill="#D9D9D9" stroke="#B1B1B1" stroke-miterlimit="10" cx="-93.32" cy="-1.77" r="4.25"/>
	<circle fill="#D9D9D9" stroke="#B1B1B1" stroke-miterlimit="10" cx="-83.79" cy="-2.3" r="4.25"/>
	<circle fill="#D9D9D9" stroke="#B1B1B1" stroke-miterlimit="10" cx="-99.74" cy="-1.57" r="3.48"/>
</g>
<g>
	<circle fill="#FFFFFF" stroke="#FFFFFF" stroke-width="2" stroke-miterlimit="10" cx="28.01" cy="36.97" r="0.29"/>
	<line fill="none" stroke="#FFFFFF" stroke-width="2" stroke-miterlimit="10" x1="37.45" y1="38.79" x2="40.83" y2="32.74"/>
	<circle fill="#FFFFFF" stroke="#FFFFFF" stroke-width="2" stroke-miterlimit="10" cx="36.59" cy="40.31" r="0.29"/>
	<g>
		<g>
			<path fill="#D9D9D9" stroke="#B1B1B1" stroke-miterlimit="10" d="M47.94,23.5H31.24c-1.31,0-2.37-1.06-2.37-2.37v-4.13
				c0-1.31,1.06-2.37,2.37-2.37h16.71c1.31,0,2.37,1.06,2.37,2.37v4.13C50.32,22.44,49.26,23.5,47.94,23.5z"/>
			<circle fill="#D9D9D9" stroke="#B1B1B1" stroke-miterlimit="10" cx="32.34" cy="13.46" r="4.78"/>
			<circle fill="#D9D9D9" stroke="#B1B1B1" stroke-miterlimit="10" cx="37.85" cy="10.77" r="5.51"/>
			<circle fill="#D9D9D9" stroke="#B1B1B1" stroke-miterlimit="10" cx="46.24" cy="14.26" r="5.15"/>
			<circle fill="#D9D9D9" stroke="#B1B1B1" stroke-miterlimit="10" cx="37.77" cy="18.33" r="5.27"/>
			<circle fill="#D9D9D9" stroke="#B1B1B1" stroke-miterlimit="10" cx="49.59" cy="17.67" r="5.27"/>
			<circle fill="#D9D9D9" stroke="#B1B1B1" stroke-miterlimit="10" cx="29.79" cy="18.59" r="4.32"/>
		</g>
		<line fill="none" stroke="#FFFFFF" stroke-width="2" stroke-miterlimit="10" x1="28.86" y1="35.45" x2="32.25" y2="29.4"/>
		<line fill="none" stroke="#FFFFFF" stroke-width="2" stroke-miterlimit="10" x1="37.07" y1="29.69" x2="33.69" y2="35.75"/>
		<circle fill="#FFFFFF" stroke="#FFFFFF" stroke-width="2" stroke-miterlimit="10" cx="37.93" cy="28.17" r="0.29"/>
		<line fill="none" stroke="#FFFFFF" stroke-width="2" stroke-miterlimit="10" x1="46.43" y1="28.15" x2="43.04" y2="34.19"/>
		<circle fill="#FFFFFF" stroke="#FFFFFF" stroke-width="2" stroke-miterlimit="10" cx="47.28" cy="26.62" r="0.29"/>
	</g>
</g>
<g>
	<g>
		<g>
			<path fill="#BD1622" stroke="#1D1D1B" stroke-width="0.25" stroke-miterlimit="10" d="M25.79,40.55
				c-0.64,0.06-1.07-0.22-1.29-0.83c0.63-0.16,1.04-0.21,1.04-0.21S25.67,39.91,25.79,40.55z"/>
			<path fill="#648F1E" stroke="#1D1D1B" stroke-width="0.25" stroke-miterlimit="10" d="M25,46.89c-0.64,1.01-1.39,1.86-2.16,2.51
				l-5.1-3.25c0.26-0.97,0.72-2.01,1.36-3.02c1.35-2.12,3.95-3.04,5.41-3.4c0.22,0.61,0.65,0.89,1.29,0.83
				C26.08,42.02,26.34,44.77,25,46.89z"/>
			<line fill="none" stroke="#1D1D1B" stroke-width="0.25" stroke-miterlimit="10" x1="25.8" y1="40.55" x2="25.79" y2="40.55"/>
		</g>
		<g>
			<path fill="#BD1622" stroke="#1D1D1B" stroke-width="0.25" stroke-miterlimit="10" d="M9.66,39.89
				c-0.27,0.58-0.72,0.82-1.36,0.71c0.18-0.62,0.34-1.01,0.34-1.01S9.05,39.68,9.66,39.89z"/>
			<path fill="#648F1E" stroke="#1D1D1B" stroke-width="0.25" stroke-miterlimit="10" d="M14.75,43.75
				c0.55,1.06,0.92,2.13,1.09,3.12l-5.37,2.79c-0.71-0.71-1.38-1.63-1.93-2.68c-1.16-2.23-0.65-4.94-0.24-6.38
				c0.64,0.12,1.09-0.12,1.36-0.71C11.08,40.38,13.59,41.53,14.75,43.75z"/>
			<line fill="none" stroke="#1D1D1B" stroke-width="0.25" stroke-miterlimit="10" x1="9.66" y1="39.89" x2="9.66" y2="39.89"/>
		</g>
		<g>
			<path fill="#BD1622" stroke="#1D1D1B" stroke-width="0.25" stroke-miterlimit="10" d="M17.82,38.06
				c-0.53,0.37-1.04,0.35-1.53-0.07c0.47-0.45,0.8-0.7,0.8-0.7S17.39,37.57,17.82,38.06z"/>
			<path fill="#648F1E" stroke="#1D1D1B" stroke-width="0.25" stroke-miterlimit="10" d="M20.29,43.94
				c-0.05,1.19-0.27,2.3-0.62,3.25l-6.04-0.26c-0.26-0.97-0.38-2.1-0.33-3.29c0.11-2.51,1.9-4.61,2.98-5.65
				c0.5,0.42,1.01,0.44,1.53,0.07C18.8,39.19,20.4,41.44,20.29,43.94z"/>
			<line fill="none" stroke="#1D1D1B" stroke-width="0.25" stroke-miterlimit="10" x1="17.82" y1="38.06" x2="17.82" y2="38.06"/>
		</g>
		<g>
			<path fill="#BD1622" stroke="#1D1D1B" stroke-width="0.25" stroke-miterlimit="10" d="M1.03,53.53c0.37,0.53,0.35,1.04-0.07,1.53
				c-0.45-0.47-0.7-0.8-0.7-0.8S0.53,53.96,1.03,53.53z"/>
			<path fill="#648F1E" stroke="#1D1D1B" stroke-width="0.25" stroke-miterlimit="10" d="M6.91,51.06c1.19,0.05,2.3,0.27,3.25,0.62
				L9.9,57.72c-0.97,0.26-2.1,0.38-3.29,0.33C4.1,57.94,2,56.14,0.95,55.07c0.42-0.5,0.44-1.01,0.07-1.53
				C2.16,52.55,4.41,50.95,6.91,51.06z"/>
			<line fill="none" stroke="#1D1D1B" stroke-width="0.25" stroke-miterlimit="10" x1="1.02" y1="53.53" x2="1.03" y2="53.53"/>
		</g>
		<g>
			<path fill="#BD1622" stroke="#1D1D1B" stroke-width="0.25" stroke-miterlimit="10" d="M3.52,45.55c0.06,0.64-0.22,1.07-0.83,1.29
				c-0.16-0.63-0.21-1.04-0.21-1.04S2.88,45.68,3.52,45.55z"/>
			<path fill="#648F1E" stroke="#1D1D1B" stroke-width="0.25" stroke-miterlimit="10" d="M9.85,46.35c1.01,0.64,1.86,1.39,2.51,2.16
				l-3.25,5.1c-0.97-0.26-2.01-0.72-3.02-1.36c-2.12-1.35-3.04-3.95-3.4-5.41c0.61-0.22,0.89-0.65,0.83-1.29
				C4.99,45.27,7.74,45,9.85,46.35z"/>
			<line fill="none" stroke="#1D1D1B" stroke-width="0.25" stroke-miterlimit="10" x1="3.52" y1="45.55" x2="3.52" y2="45.55"/>
		</g>
		<g>
			<path fill="#BD1622" stroke="#1D1D1B" stroke-width="0.25" stroke-miterlimit="10" d="M8.52,67.83c0.64-0.06,1.07,0.22,1.29,0.83
				c-0.63,0.16-1.04,0.21-1.04,0.21S8.64,68.47,8.52,67.83z"/>
			<path fill="#648F1E" stroke="#1D1D1B" stroke-width="0.25" stroke-miterlimit="10" d="M9.32,61.5c0.64-1.01,1.39-1.86,2.16-2.51
				l5.1,3.25c-0.26,0.97-0.72,2.01-1.36,3.02c-1.35,2.12-3.95,3.04-5.41,3.4c-0.22-0.61-0.65-0.89-1.29-0.83
				C8.24,66.36,7.97,63.61,9.32,61.5z"/>
			<line fill="none" stroke="#1D1D1B" stroke-width="0.25" stroke-miterlimit="10" x1="8.51" y1="67.83" x2="8.52" y2="67.83"/>
		</g>
		<g>
			<path fill="#BD1622" stroke="#1D1D1B" stroke-width="0.25" stroke-miterlimit="10" d="M2.86,61.69c0.58,0.27,0.82,0.72,0.71,1.36
				c-0.62-0.18-1.01-0.34-1.01-0.34S2.64,62.3,2.86,61.69z"/>
			<path fill="#648F1E" stroke="#1D1D1B" stroke-width="0.25" stroke-miterlimit="10" d="M6.72,56.6c1.06-0.55,2.13-0.92,3.12-1.09
				l2.79,5.37c-0.71,0.71-1.63,1.38-2.68,1.93C7.72,63.97,5,63.46,3.56,63.05c0.12-0.64-0.12-1.09-0.71-1.36
				C3.35,60.27,4.49,57.76,6.72,56.6z"/>
			<line fill="none" stroke="#1D1D1B" stroke-width="0.25" stroke-miterlimit="10" x1="2.85" y1="61.68" x2="2.86" y2="61.69"/>
		</g>
		<g>
			<path fill="#BD1622" stroke="#1D1D1B" stroke-width="0.25" stroke-miterlimit="10" d="M24.65,68.49
				c0.27-0.58,0.72-0.82,1.36-0.71c-0.18,0.62-0.34,1.01-0.34,1.01S25.27,68.71,24.65,68.49z"/>
			<path fill="#648F1E" stroke="#1D1D1B" stroke-width="0.25" stroke-miterlimit="10" d="M19.56,64.63
				c-0.55-1.06-0.92-2.13-1.09-3.12l5.37-2.79c0.71,0.71,1.38,1.63,1.93,2.68c1.16,2.23,0.65,4.94,0.24,6.38
				c-0.64-0.12-1.09,0.12-1.36,0.71C23.24,68,20.72,66.86,19.56,64.63z"/>
			<line fill="none" stroke="#1D1D1B" stroke-width="0.25" stroke-miterlimit="10" x1="24.65" y1="68.5" x2="24.65" y2="68.49"/>
		</g>
		<g>
			<path fill="#BD1622" stroke="#1D1D1B" stroke-width="0.25" stroke-miterlimit="10" d="M16.5,70.32c0.53-0.37,1.04-0.35,1.53,0.07
				c-0.47,0.45-0.8,0.7-0.8,0.7S16.92,70.82,16.5,70.32z"/>
			<path fill="#648F1E" stroke="#1D1D1B" stroke-width="0.25" stroke-miterlimit="10" d="M14.02,64.44c0.05-1.19,0.27-2.3,0.62-3.25
				l6.04,0.26c0.26,0.97,0.38,2.1,0.33,3.29c-0.11,2.51-1.9,4.61-2.98,5.65c-0.5-0.42-1.01-0.44-1.53-0.07
				C15.52,69.19,13.91,66.94,14.02,64.44z"/>
			<line fill="none" stroke="#1D1D1B" stroke-width="0.25" stroke-miterlimit="10" x1="16.49" y1="70.33" x2="16.5" y2="70.32"/>
		</g>
		<g>
			<path fill="#BD1622" stroke="#1D1D1B" stroke-width="0.25" stroke-miterlimit="10" d="M33.29,54.85
				c-0.37-0.53-0.35-1.04,0.07-1.53c0.45,0.47,0.7,0.8,0.7,0.8S33.78,54.42,33.29,54.85z"/>
			<path fill="#648F1E" stroke="#1D1D1B" stroke-width="0.25" stroke-miterlimit="10" d="M27.4,57.33c-1.19-0.05-2.3-0.27-3.25-0.62
				l0.26-6.04c0.97-0.26,2.1-0.38,3.29-0.33c2.51,0.11,4.61,1.9,5.65,2.98c-0.42,0.5-0.44,1.01-0.07,1.53
				C32.16,55.83,29.91,57.44,27.4,57.33z"/>
			<line fill="none" stroke="#1D1D1B" stroke-width="0.25" stroke-miterlimit="10" x1="33.29" y1="54.86" x2="33.29" y2="54.85"/>
		</g>
		<g>
			<path fill="#BD1622" stroke="#1D1D1B" stroke-width="0.25" stroke-miterlimit="10" d="M30.8,62.83
				c-0.06-0.64,0.22-1.07,0.83-1.29c0.16,0.63,0.21,1.04,0.21,1.04S31.44,62.71,30.8,62.83z"/>
			<path fill="#648F1E" stroke="#1D1D1B" stroke-width="0.25" stroke-miterlimit="10" d="M24.46,62.03
				c-1.01-0.64-1.86-1.39-2.51-2.16l3.25-5.1c0.97,0.26,2.01,0.72,3.02,1.36c2.12,1.35,3.04,3.95,3.4,5.41
				c-0.61,0.22-0.89,0.65-0.83,1.29C29.33,63.11,26.58,63.38,24.46,62.03z"/>
			<line fill="none" stroke="#1D1D1B" stroke-width="0.25" stroke-miterlimit="10" x1="30.8" y1="62.83" x2="30.8" y2="62.83"/>
		</g>
		<g>
			<path fill="#BD1622" stroke="#1D1D1B" stroke-width="0.25" stroke-miterlimit="10" d="M31.46,46.7
				c-0.58-0.27-0.82-0.72-0.71-1.36c0.62,0.18,1.01,0.34,1.01,0.34S31.67,46.08,31.46,46.7z"/>
			<path fill="#648F1E" stroke="#1D1D1B" stroke-width="0.25" stroke-miterlimit="10" d="M27.6,51.78
				c-1.06,0.55-2.13,0.92-3.12,1.09l-2.79-5.37c0.71-0.71,1.63-1.38,2.68-1.93c2.23-1.16,4.94-0.65,6.38-0.24
				c-0.12,0.64,0.12,1.09,0.71,1.36C30.97,48.11,29.82,50.63,27.6,51.78z"/>
			<line fill="none" stroke="#1D1D1B" stroke-width="0.25" stroke-miterlimit="10" x1="31.46" y1="46.7" x2="31.46" y2="46.7"/>
		</g>
	</g>
	<g>
		<g>
			<path fill="#BD1622" stroke="#1D1D1B" stroke-width="0.25" stroke-miterlimit="10" d="M20.04,42.89
				c-0.43,0.18-0.79,0.09-1.07-0.28c0.4-0.25,0.67-0.38,0.67-0.38S19.81,42.48,20.04,42.89z"/>
			<path fill="#648F1E" stroke="#1D1D1B" stroke-width="0.25" stroke-miterlimit="10" d="M20.91,47.42
				c-0.22,0.83-0.54,1.59-0.92,2.2l-4.23-1.09c-0.04-0.73,0.04-1.54,0.26-2.38c0.45-1.76,2.04-2.97,2.95-3.55
				c0.29,0.37,0.65,0.46,1.07,0.28C20.57,43.83,21.36,45.67,20.91,47.42z"/>
			<line fill="none" stroke="#1D1D1B" stroke-width="0.25" stroke-miterlimit="10" x1="20.05" y1="42.89" x2="20.04" y2="42.89"/>
		</g>
		<g>
			<path fill="#BD1622" stroke="#1D1D1B" stroke-width="0.25" stroke-miterlimit="10" d="M8.81,46.04
				c-0.06,0.46-0.31,0.73-0.78,0.79c-0.02-0.47,0.01-0.77,0.01-0.77S8.34,46.03,8.81,46.04z"/>
			<path fill="#648F1E" stroke="#1D1D1B" stroke-width="0.25" stroke-miterlimit="10" d="M13.17,47.56c0.62,0.6,1.1,1.26,1.45,1.9
				l-3.06,3.12c-0.65-0.33-1.31-0.81-1.93-1.41c-1.29-1.27-1.55-3.25-1.59-4.33c0.46-0.06,0.72-0.33,0.78-0.79
				C9.89,46.06,11.88,46.29,13.17,47.56z"/>
			<line fill="none" stroke="#1D1D1B" stroke-width="0.25" stroke-miterlimit="10" x1="8.81" y1="46.04" x2="8.81" y2="46.04"/>
		</g>
		<g>
			<path fill="#BD1622" stroke="#1D1D1B" stroke-width="0.25" stroke-miterlimit="10" d="M14,42.96c-0.28,0.37-0.64,0.47-1.07,0.29
				c0.22-0.41,0.39-0.66,0.39-0.66S13.6,42.72,14,42.96z"/>
			<path fill="#648F1E" stroke="#1D1D1B" stroke-width="0.25" stroke-miterlimit="10" d="M17.02,46.45c0.23,0.83,0.33,1.64,0.3,2.37
				l-4.21,1.17c-0.4-0.61-0.73-1.36-0.96-2.19c-0.49-1.75,0.28-3.59,0.79-4.55c0.43,0.18,0.79,0.08,1.07-0.29
				C14.93,43.52,16.54,44.7,17.02,46.45z"/>
			<line fill="none" stroke="#1D1D1B" stroke-width="0.25" stroke-miterlimit="10" x1="14.01" y1="42.96" x2="14" y2="42.96"/>
		</g>
		<g>
			<path fill="#BD1622" stroke="#1D1D1B" stroke-width="0.25" stroke-miterlimit="10" d="M5.93,57.34c0.37,0.28,0.47,0.64,0.29,1.07
				c-0.41-0.22-0.66-0.39-0.66-0.39S5.68,57.75,5.93,57.34z"/>
			<path fill="#648F1E" stroke="#1D1D1B" stroke-width="0.25" stroke-miterlimit="10" d="M9.42,54.33c0.83-0.23,1.64-0.33,2.37-0.3
				l1.17,4.21c-0.61,0.4-1.36,0.73-2.19,0.96c-1.75,0.49-3.59-0.28-4.55-0.79c0.18-0.43,0.08-0.79-0.29-1.07
				C6.48,56.42,7.67,54.81,9.42,54.33z"/>
			<line fill="none" stroke="#1D1D1B" stroke-width="0.25" stroke-miterlimit="10" x1="5.92" y1="57.34" x2="5.93" y2="57.34"/>
		</g>
		<g>
			<path fill="#BD1622" stroke="#1D1D1B" stroke-width="0.25" stroke-miterlimit="10" d="M5.85,51.31c0.18,0.43,0.09,0.79-0.28,1.07
				c-0.25-0.4-0.38-0.67-0.38-0.67S5.44,51.53,5.85,51.31z"/>
			<path fill="#648F1E" stroke="#1D1D1B" stroke-width="0.25" stroke-miterlimit="10" d="M10.39,50.44c0.83,0.22,1.59,0.54,2.2,0.92
				l-1.09,4.23c-0.73,0.04-1.54-0.04-2.38-0.26c-1.76-0.45-2.97-2.04-3.55-2.95c0.37-0.29,0.46-0.65,0.28-1.07
				C6.8,50.78,8.63,49.99,10.39,50.44z"/>
			<line fill="none" stroke="#1D1D1B" stroke-width="0.25" stroke-miterlimit="10" x1="5.85" y1="51.3" x2="5.85" y2="51.31"/>
		</g>
		<g>
			<path fill="#BD1622" stroke="#1D1D1B" stroke-width="0.25" stroke-miterlimit="10" d="M14.27,65.49
				c0.43-0.18,0.79-0.09,1.07,0.28c-0.4,0.25-0.67,0.38-0.67,0.38S14.5,65.91,14.27,65.49z"/>
			<path fill="#648F1E" stroke="#1D1D1B" stroke-width="0.25" stroke-miterlimit="10" d="M13.4,60.96c0.22-0.83,0.54-1.59,0.92-2.2
				l4.23,1.09c0.04,0.73-0.04,1.54-0.26,2.38c-0.45,1.76-2.04,2.97-2.95,3.55c-0.29-0.37-0.65-0.46-1.07-0.28
				C13.75,64.55,12.95,62.72,13.4,60.96z"/>
			<line fill="none" stroke="#1D1D1B" stroke-width="0.25" stroke-miterlimit="10" x1="14.27" y1="65.5" x2="14.27" y2="65.49"/>
		</g>
		<g>
			<path fill="#BD1622" stroke="#1D1D1B" stroke-width="0.25" stroke-miterlimit="10" d="M9.01,62.54c0.46,0.06,0.73,0.31,0.79,0.78
				c-0.47,0.02-0.77-0.01-0.77-0.01S9,63.01,9.01,62.54z"/>
			<path fill="#648F1E" stroke="#1D1D1B" stroke-width="0.25" stroke-miterlimit="10" d="M10.52,58.18c0.6-0.62,1.26-1.1,1.9-1.45
				l3.12,3.06c-0.33,0.65-0.81,1.31-1.41,1.93c-1.27,1.29-3.25,1.55-4.33,1.59c-0.06-0.46-0.33-0.72-0.79-0.78
				C9.03,61.46,9.25,59.47,10.52,58.18z"/>
			<line fill="none" stroke="#1D1D1B" stroke-width="0.25" stroke-miterlimit="10" x1="9" y1="62.54" x2="9.01" y2="62.54"/>
		</g>
		<g>
			<path fill="#BD1622" stroke="#1D1D1B" stroke-width="0.25" stroke-miterlimit="10" d="M25.5,62.34c0.06-0.46,0.31-0.73,0.78-0.79
				c0.02,0.47-0.01,0.77-0.01,0.77S25.97,62.35,25.5,62.34z"/>
			<path fill="#648F1E" stroke="#1D1D1B" stroke-width="0.25" stroke-miterlimit="10" d="M21.15,60.83c-0.62-0.6-1.1-1.26-1.45-1.9
				l3.06-3.12c0.65,0.33,1.31,0.81,1.93,1.41c1.29,1.27,1.55,3.25,1.59,4.33c-0.46,0.06-0.72,0.33-0.78,0.79
				C24.42,62.32,22.44,62.1,21.15,60.83z"/>
			<line fill="none" stroke="#1D1D1B" stroke-width="0.25" stroke-miterlimit="10" x1="25.5" y1="62.34" x2="25.5" y2="62.34"/>
		</g>
		<g>
			<path fill="#BD1622" stroke="#1D1D1B" stroke-width="0.25" stroke-miterlimit="10" d="M20.31,65.42
				c0.28-0.37,0.64-0.47,1.07-0.29c-0.22,0.41-0.39,0.66-0.39,0.66S20.71,65.67,20.31,65.42z"/>
			<path fill="#648F1E" stroke="#1D1D1B" stroke-width="0.25" stroke-miterlimit="10" d="M17.29,61.93
				c-0.23-0.83-0.33-1.64-0.3-2.37l4.21-1.17c0.4,0.61,0.73,1.36,0.96,2.19c0.49,1.75-0.28,3.59-0.79,4.55
				c-0.43-0.18-0.79-0.08-1.07,0.29C19.38,64.86,17.78,63.68,17.29,61.93z"/>
			<line fill="none" stroke="#1D1D1B" stroke-width="0.25" stroke-miterlimit="10" x1="20.31" y1="65.43" x2="20.31" y2="65.42"/>
		</g>
		<g>
			<path fill="#BD1622" stroke="#1D1D1B" stroke-width="0.25" stroke-miterlimit="10" d="M28.39,51.04
				c-0.37-0.28-0.47-0.64-0.29-1.07c0.41,0.22,0.66,0.39,0.66,0.39S28.63,50.63,28.39,51.04z"/>
			<path fill="#648F1E" stroke="#1D1D1B" stroke-width="0.25" stroke-miterlimit="10" d="M24.9,54.06c-0.83,0.23-1.64,0.33-2.37,0.3
				l-1.17-4.21c0.61-0.4,1.36-0.73,2.19-0.96c1.75-0.49,3.59,0.28,4.55,0.79c-0.18,0.43-0.08,0.79,0.29,1.07
				C27.83,51.96,26.64,53.57,24.9,54.06z"/>
			<line fill="none" stroke="#1D1D1B" stroke-width="0.25" stroke-miterlimit="10" x1="28.39" y1="51.04" x2="28.39" y2="51.04"/>
		</g>
		<g>
			<path fill="#BD1622" stroke="#1D1D1B" stroke-width="0.25" stroke-miterlimit="10" d="M28.46,57.08
				c-0.18-0.43-0.09-0.79,0.28-1.07c0.25,0.4,0.38,0.67,0.38,0.67S28.87,56.85,28.46,57.08z"/>
			<path fill="#648F1E" stroke="#1D1D1B" stroke-width="0.25" stroke-miterlimit="10" d="M23.93,57.94
				c-0.83-0.22-1.59-0.54-2.2-0.92l1.09-4.23c0.73-0.04,1.54,0.04,2.38,0.26c1.76,0.45,2.97,2.04,3.55,2.95
				c-0.37,0.29-0.46,0.65-0.28,1.07C27.51,57.6,25.68,58.4,23.93,57.94z"/>
			<line fill="none" stroke="#1D1D1B" stroke-width="0.25" stroke-miterlimit="10" x1="28.46" y1="57.08" x2="28.46" y2="57.08"/>
		</g>
		<g>
			<path fill="#BD1622" stroke="#1D1D1B" stroke-width="0.25" stroke-miterlimit="10" d="M25.31,45.84
				c-0.46-0.06-0.73-0.31-0.79-0.78c0.47-0.02,0.77,0.01,0.77,0.01S25.32,45.37,25.31,45.84z"/>
			<path fill="#648F1E" stroke="#1D1D1B" stroke-width="0.25" stroke-miterlimit="10" d="M23.79,50.2c-0.6,0.62-1.26,1.1-1.9,1.45
				l-3.12-3.06c0.33-0.65,0.81-1.31,1.41-1.93c1.27-1.29,3.25-1.55,4.33-1.59c0.06,0.46,0.33,0.72,0.79,0.78
				C25.29,46.93,25.06,48.91,23.79,50.2z"/>
			<line fill="none" stroke="#1D1D1B" stroke-width="0.25" stroke-miterlimit="10" x1="25.31" y1="45.85" x2="25.31" y2="45.84"/>
		</g>
	</g>
	<g>
		
			<path fill="#BD1622" stroke="#1D1D1B" stroke-width="0.25" stroke-linecap="round" stroke-linejoin="round" stroke-miterlimit="10" d="
			M17.04,54.21c-0.5,0.08-0.81,0.35-1.01,0.74v0c-0.3,0.42-0.81,0.75-1.25-0.28c-0.24-0.59,0.09-0.91,0.73-1.08
			C15.86,54.07,16.43,54.17,17.04,54.21z"/>
		
			<path fill="#63902F" stroke="#1D1D1B" stroke-width="0.25" stroke-linecap="round" stroke-linejoin="round" stroke-miterlimit="10" d="
			M16.37,57.27c-3.97-0.7-4.22-2.77-1.65-5.87c0.11,0.87,0.37,1.61,0.79,2.2c-0.64,0.17-0.97,0.49-0.73,1.08
			c0.44,1.02,0.95,0.69,1.25,0.28c-0.02,0.03-0.03,0.06-0.05,0.1C15.88,55.93,16.01,56.67,16.37,57.27z"/>
	</g>
	<g>
		
			<path fill="#BD1622" stroke="#1D1D1B" stroke-width="0.25" stroke-linecap="round" stroke-linejoin="round" stroke-miterlimit="10" d="
			M17.04,54.21c-0.39,0.31-0.53,0.71-0.5,1.15l0,0c-0.05,0.51-0.33,1.05-1.22,0.38c-0.5-0.39-0.38-0.83,0.09-1.3
			C15.94,54.68,16.49,54.48,17.04,54.21z"/>
		
			<path fill="#63902F" stroke="#1D1D1B" stroke-width="0.25" stroke-linecap="round" stroke-linejoin="round" stroke-miterlimit="10" d="
			M17.99,57.19c-3.79,1.37-5.04-0.29-4.36-4.25c0.53,0.7,1.13,1.2,1.79,1.51c-0.47,0.47-0.59,0.91-0.09,1.3
			c0.89,0.67,1.17,0.12,1.22-0.38c0,0.04,0,0.07,0.01,0.11C16.89,56.28,17.37,56.85,17.99,57.19z"/>
	</g>
	<g>
		
			<path fill="#BD1622" stroke="#1D1D1B" stroke-width="0.25" stroke-linecap="round" stroke-linejoin="round" stroke-miterlimit="10" d="
			M17.04,54.21c-0.18,0.47-0.1,0.88,0.14,1.25l0,0c0.21,0.47,0.24,1.08-0.87,0.94c-0.63-0.09-0.74-0.53-0.57-1.17
			C16.32,55.17,16.7,54.72,17.04,54.21z"/>
		
			<path fill="#63902F" stroke="#1D1D1B" stroke-width="0.25" stroke-linecap="round" stroke-linejoin="round" stroke-miterlimit="10" d="
			M19.35,56.32c-2.59,3.08-4.51,2.27-5.91-1.5c0.81,0.34,1.58,0.48,2.3,0.41c-0.17,0.64-0.06,1.09,0.57,1.17
			c1.1,0.13,1.08-0.48,0.87-0.94c0.02,0.03,0.04,0.06,0.06,0.09C17.94,56.08,18.65,56.33,19.35,56.32z"/>
	</g>
	<g>
		
			<path fill="#BD1622" stroke="#1D1D1B" stroke-width="0.25" stroke-linecap="round" stroke-linejoin="round" stroke-miterlimit="10" d="
			M17.04,54.21c0.08,0.5,0.35,0.81,0.74,1.01h0c0.42,0.3,0.75,0.81-0.28,1.25c-0.59,0.24-0.91-0.09-1.08-0.73
			C16.89,55.4,16.99,54.82,17.04,54.21z"/>
		
			<path fill="#63902F" stroke="#1D1D1B" stroke-width="0.25" stroke-linecap="round" stroke-linejoin="round" stroke-miterlimit="10" d="
			M20.09,54.88c-0.7,3.97-2.77,4.22-5.87,1.65c0.87-0.11,1.61-0.37,2.2-0.79c0.17,0.64,0.49,0.97,1.08,0.73
			c1.02-0.44,0.69-0.95,0.28-1.25c0.03,0.02,0.06,0.03,0.1,0.05C18.75,55.38,19.49,55.25,20.09,54.88z"/>
	</g>
	<g>
		
			<path fill="#BD1622" stroke="#1D1D1B" stroke-width="0.25" stroke-linecap="round" stroke-linejoin="round" stroke-miterlimit="10" d="
			M17.04,54.21c0.31,0.39,0.71,0.53,1.15,0.5l0,0c0.51,0.05,1.05,0.33,0.38,1.22c-0.39,0.5-0.83,0.38-1.3-0.09
			C17.51,55.31,17.31,54.76,17.04,54.21z"/>
		
			<path fill="#63902F" stroke="#1D1D1B" stroke-width="0.25" stroke-linecap="round" stroke-linejoin="round" stroke-miterlimit="10" d="
			M20.01,53.27c1.37,3.79-0.29,5.04-4.25,4.36c0.7-0.53,1.2-1.13,1.51-1.79c0.47,0.47,0.91,0.59,1.3,0.09
			c0.67-0.89,0.12-1.17-0.38-1.22c0.04,0,0.07,0,0.11-0.01C19.11,54.36,19.68,53.88,20.01,53.27z"/>
	</g>
	<g>
		
			<path fill="#BD1622" stroke="#1D1D1B" stroke-width="0.25" stroke-linecap="round" stroke-linejoin="round" stroke-miterlimit="10" d="
			M17.04,54.21c0.47,0.18,0.88,0.1,1.25-0.14l0,0c0.47-0.21,1.08-0.24,0.94,0.87c-0.09,0.63-0.53,0.74-1.17,0.57
			C17.99,54.93,17.54,54.56,17.04,54.21z"/>
		
			<path fill="#63902F" stroke="#1D1D1B" stroke-width="0.25" stroke-linecap="round" stroke-linejoin="round" stroke-miterlimit="10" d="
			M19.14,51.91c3.08,2.59,2.27,4.51-1.5,5.91c0.34-0.81,0.48-1.58,0.41-2.3c0.64,0.17,1.09,0.06,1.17-0.57
			c0.13-1.1-0.48-1.08-0.94-0.87c0.03-0.02,0.06-0.04,0.09-0.06C18.9,53.31,19.16,52.61,19.14,51.91z"/>
	</g>
	<g>
		
			<path fill="#BD1622" stroke="#1D1D1B" stroke-width="0.25" stroke-linecap="round" stroke-linejoin="round" stroke-miterlimit="10" d="
			M17.04,54.21c0.5-0.08,0.81-0.35,1.01-0.74v0c0.3-0.42,0.81-0.75,1.25,0.28c0.24,0.59-0.09,0.91-0.73,1.08
			C18.22,54.36,17.65,54.26,17.04,54.21z"/>
		
			<path fill="#63902F" stroke="#1D1D1B" stroke-width="0.25" stroke-linecap="round" stroke-linejoin="round" stroke-miterlimit="10" d="
			M17.71,51.16c3.97,0.7,4.22,2.77,1.65,5.87c-0.11-0.87-0.37-1.61-0.79-2.2c0.64-0.17,0.97-0.49,0.73-1.08
			c-0.44-1.02-0.95-0.69-1.25-0.28c0.02-0.03,0.03-0.06,0.05-0.1C18.2,52.5,18.07,51.76,17.71,51.16z"/>
	</g>
	<g>
		
			<path fill="#BD1622" stroke="#1D1D1B" stroke-width="0.25" stroke-linecap="round" stroke-linejoin="round" stroke-miterlimit="10" d="
			M17.04,54.21c0.39-0.31,0.53-0.71,0.5-1.15l0,0c0.05-0.51,0.33-1.05,1.22-0.38c0.5,0.39,0.38,0.83-0.09,1.3
			C18.14,53.75,17.59,53.95,17.04,54.21z"/>
		
			<path fill="#63902F" stroke="#1D1D1B" stroke-width="0.25" stroke-linecap="round" stroke-linejoin="round" stroke-miterlimit="10" d="
			M16.09,51.24c3.79-1.37,5.04,0.29,4.36,4.25c-0.53-0.7-1.13-1.2-1.79-1.51c0.47-0.47,0.59-0.91,0.09-1.3
			c-0.89-0.67-1.17-0.12-1.22,0.38c0-0.04,0-0.07-0.01-0.11C17.19,52.15,16.71,51.58,16.09,51.24z"/>
	</g>
	<g>
		
			<path fill="#BD1622" stroke="#1D1D1B" stroke-width="0.25" stroke-linecap="round" stroke-linejoin="round" stroke-miterlimit="10" d="
			M17.04,54.21c0.18-0.47,0.1-0.88-0.14-1.25l0,0c-0.21-0.47-0.24-1.08,0.87-0.94c0.63,0.09,0.74,0.53,0.57,1.17
			C17.75,53.26,17.38,53.71,17.04,54.21z"/>
		
			<path fill="#63902F" stroke="#1D1D1B" stroke-width="0.25" stroke-linecap="round" stroke-linejoin="round" stroke-miterlimit="10" d="
			M14.73,52.11c2.59-3.08,4.51-2.27,5.91,1.5c-0.81-0.34-1.58-0.48-2.3-0.41c0.17-0.64,0.06-1.09-0.57-1.17
			c-1.1-0.13-1.08,0.48-0.87,0.94c-0.02-0.03-0.04-0.06-0.06-0.09C16.13,52.35,15.43,52.1,14.73,52.11z"/>
	</g>
	<g>
		
			<path fill="#BD1622" stroke="#1D1D1B" stroke-width="0.25" stroke-linecap="round" stroke-linejoin="round" stroke-miterlimit="10" d="
			M17.04,54.21c-0.08-0.5-0.35-0.81-0.74-1.01h0c-0.42-0.3-0.75-0.81,0.28-1.25c0.59-0.24,0.91,0.09,1.08,0.73
			C17.18,53.03,17.08,53.61,17.04,54.21z"/>
		
			<path fill="#63902F" stroke="#1D1D1B" stroke-width="0.25" stroke-linecap="round" stroke-linejoin="round" stroke-miterlimit="10" d="
			M13.99,53.55c0.7-3.97,2.77-4.22,5.87-1.65c-0.87,0.11-1.61,0.37-2.2,0.79c-0.17-0.64-0.49-0.97-1.08-0.73
			c-1.02,0.44-0.69,0.95-0.28,1.25c-0.03-0.02-0.06-0.03-0.1-0.05C15.32,53.05,14.59,53.18,13.99,53.55z"/>
	</g>
	<g>
		
			<path fill="#BD1622" stroke="#1D1D1B" stroke-width="0.25" stroke-linecap="round" stroke-linejoin="round" stroke-miterlimit="10" d="
			M17.04,54.21c-0.31-0.39-0.71-0.53-1.15-0.5l0,0c-0.51-0.05-1.05-0.33-0.38-1.22c0.39-0.5,0.83-0.38,1.3,0.09
			C16.57,53.12,16.77,53.67,17.04,54.21z"/>
		
			<path fill="#63902F" stroke="#1D1D1B" stroke-width="0.25" stroke-linecap="round" stroke-linejoin="round" stroke-miterlimit="10" d="
			M14.06,55.16c-1.37-3.79,0.29-5.04,4.25-4.36c-0.7,0.53-1.2,1.13-1.51,1.79c-0.47-0.47-0.91-0.59-1.3-0.09
			c-0.67,0.89-0.12,1.17,0.38,1.22c-0.04,0-0.07,0-0.11,0.01C14.97,54.07,14.4,54.55,14.06,55.16z"/>
	</g>
	<g>
		
			<path fill="#BD1622" stroke="#1D1D1B" stroke-width="0.25" stroke-linecap="round" stroke-linejoin="round" stroke-miterlimit="10" d="
			M17.04,54.21c-0.47-0.18-0.88-0.1-1.25,0.14l0,0c-0.47,0.21-1.08,0.24-0.94-0.87c0.09-0.63,0.53-0.74,1.17-0.57
			C16.09,53.5,16.53,53.87,17.04,54.21z"/>
		
			<path fill="#63902F" stroke="#1D1D1B" stroke-width="0.25" stroke-linecap="round" stroke-linejoin="round" stroke-miterlimit="10" d="
			M14.94,56.52c-3.08-2.59-2.27-4.51,1.5-5.91c-0.34,0.81-0.48,1.58-0.41,2.3c-0.64-0.17-1.09-0.06-1.17,0.57
			c-0.13,1.1,0.48,1.08,0.94,0.87c-0.03,0.02-0.06,0.04-0.09,0.06C15.17,55.12,14.92,55.82,14.94,56.52z"/>
	</g>
	<g>
		
			<path fill="#BD1622" stroke="#1D1D1B" stroke-width="0.25" stroke-linecap="round" stroke-linejoin="round" stroke-miterlimit="10" d="
			M15.23,53.58c-0.47-0.18-0.88-0.1-1.25,0.14l0,0c-0.47,0.21-1.08,0.24-0.94-0.87c0.09-0.63,0.53-0.74,1.17-0.57
			C14.27,52.87,14.72,53.24,15.23,53.58z"/>
		
			<path fill="#63902F" stroke="#1D1D1B" stroke-width="0.25" stroke-linecap="round" stroke-linejoin="round" stroke-miterlimit="10" d="
			M13.12,55.89c-3.08-2.59-2.27-4.51,1.5-5.91c-0.34,0.81-0.48,1.58-0.41,2.3c-0.64-0.17-1.09-0.06-1.17,0.57
			c-0.13,1.1,0.48,1.08,0.94,0.87c-0.03,0.02-0.06,0.04-0.09,0.06C13.36,54.49,13.11,55.19,13.12,55.89z"/>
	</g>
	<g>
		
			<path fill="#BD1622" stroke="#1D1D1B" stroke-width="0.25" stroke-linecap="round" stroke-linejoin="round" stroke-miterlimit="10" d="
			M15.58,55.47c-0.39,0.31-0.53,0.71-0.5,1.15l0,0c-0.05,0.51-0.33,1.05-1.22,0.38c-0.5-0.39-0.38-0.83,0.09-1.3
			C14.49,55.93,15.04,55.73,15.58,55.47z"/>
		
			<path fill="#63902F" stroke="#1D1D1B" stroke-width="0.25" stroke-linecap="round" stroke-linejoin="round" stroke-miterlimit="10" d="
			M16.53,58.44c-3.79,1.37-5.04-0.29-4.36-4.25c0.53,0.7,1.13,1.2,1.79,1.51c-0.47,0.47-0.59,0.91-0.09,1.3
			c0.89,0.67,1.17,0.12,1.22-0.38c0,0.04,0,0.07,0.01,0.11C15.44,57.53,15.92,58.11,16.53,58.44z"/>
	</g>
	<g>
		
			<path fill="#BD1622" stroke="#1D1D1B" stroke-width="0.25" stroke-linecap="round" stroke-linejoin="round" stroke-miterlimit="10" d="
			M17.4,56.1c0.08,0.5,0.35,0.81,0.74,1.01h0c0.42,0.3,0.75,0.81-0.28,1.25c-0.59,0.24-0.91-0.09-1.08-0.73
			C17.25,57.28,17.35,56.71,17.4,56.1z"/>
		
			<path fill="#63902F" stroke="#1D1D1B" stroke-width="0.25" stroke-linecap="round" stroke-linejoin="round" stroke-miterlimit="10" d="
			M20.45,56.77c-0.7,3.97-2.77,4.22-5.87,1.65c0.87-0.11,1.61-0.37,2.2-0.79c0.17,0.64,0.49,0.97,1.08,0.73
			c1.02-0.44,0.69-0.95,0.28-1.25c0.03,0.02,0.06,0.03,0.1,0.05C19.11,57.26,19.85,57.13,20.45,56.77z"/>
	</g>
	<g>
		
			<path fill="#BD1622" stroke="#1D1D1B" stroke-width="0.25" stroke-linecap="round" stroke-linejoin="round" stroke-miterlimit="10" d="
			M18.85,54.85c0.47,0.18,0.88,0.1,1.25-0.14l0,0c0.47-0.21,1.08-0.24,0.94,0.87c-0.09,0.63-0.53,0.74-1.17,0.57
			C19.8,55.56,19.36,55.19,18.85,54.85z"/>
		
			<path fill="#63902F" stroke="#1D1D1B" stroke-width="0.25" stroke-linecap="round" stroke-linejoin="round" stroke-miterlimit="10" d="
			M20.95,52.54c3.08,2.59,2.27,4.51-1.5,5.91c0.34-0.81,0.48-1.58,0.41-2.3c0.64,0.17,1.09,0.06,1.17-0.57
			c0.13-1.1-0.48-1.08-0.94-0.87c0.03-0.02,0.06-0.04,0.09-0.06C20.71,53.94,20.97,53.24,20.95,52.54z"/>
	</g>
	<g>
		
			<path fill="#BD1622" stroke="#1D1D1B" stroke-width="0.25" stroke-linecap="round" stroke-linejoin="round" stroke-miterlimit="10" d="
			M18.49,52.96c0.39-0.31,0.53-0.71,0.5-1.15l0,0c0.05-0.51,0.33-1.05,1.22-0.38c0.5,0.39,0.38,0.83-0.09,1.3
			C19.59,52.5,19.04,52.7,18.49,52.96z"/>
		
			<path fill="#63902F" stroke="#1D1D1B" stroke-width="0.25" stroke-linecap="round" stroke-linejoin="round" stroke-miterlimit="10" d="
			M17.54,49.99c3.79-1.37,5.04,0.29,4.36,4.25c-0.53-0.7-1.13-1.2-1.79-1.51c0.47-0.47,0.59-0.91,0.09-1.3
			c-0.89-0.67-1.17-0.12-1.22,0.38c0-0.04,0-0.07-0.01-0.11C18.64,50.9,18.16,50.32,17.54,49.99z"/>
	</g>
	<g>
		
			<path fill="#BD1622" stroke="#1D1D1B" stroke-width="0.25" stroke-linecap="round" stroke-linejoin="round" stroke-miterlimit="10" d="
			M16.68,52.33c-0.08-0.5-0.35-0.81-0.74-1.01h0c-0.42-0.3-0.75-0.81,0.28-1.25c0.59-0.24,0.91,0.09,1.08,0.73
			C16.82,51.15,16.72,51.72,16.68,52.33z"/>
		
			<path fill="#63902F" stroke="#1D1D1B" stroke-width="0.25" stroke-linecap="round" stroke-linejoin="round" stroke-miterlimit="10" d="
			M13.63,51.66c0.7-3.97,2.77-4.22,5.87-1.65c-0.87,0.11-1.61,0.37-2.2,0.79c-0.17-0.64-0.49-0.97-1.08-0.73
			c-1.02,0.44-0.69,0.95-0.28,1.25c-0.03-0.02-0.06-0.03-0.1-0.05C14.97,51.17,14.23,51.3,13.63,51.66z"/>
	</g>
</g>
</svg>
