<?xml version="1.0" encoding="utf-8"?>
<!-- Generator: Adobe Illustrator 28.1.0, SVG Export Plug-In . SVG Version: 6.00 Build 0)  -->
<svg version="1.1" id="Laag_1" xmlns="http://www.w3.org/2000/svg" xmlns:xlink="http://www.w3.org/1999/xlink" x="0px" y="0px"
	 viewBox="0 0 41.49 41.69" enable-background="new 0 0 41.49 41.69" xml:space="preserve">
<g>
	<g>
		<g>
			<path fill="#BE1622" stroke="#000000" stroke-width="0.25" stroke-miterlimit="10" d="M31.03,4.48c-0.75,0.07-1.25-0.25-1.5-0.96
				c0.73-0.18,1.21-0.24,1.21-0.24S30.89,3.74,31.03,4.48z"/>
			<path fill="#64901D" stroke="#000000" stroke-width="0.25" stroke-miterlimit="10" d="M30.1,11.85
				c-0.75,1.17-1.61,2.16-2.51,2.91l-5.93-3.78c0.3-1.13,0.83-2.34,1.58-3.51c1.57-2.46,4.6-3.53,6.29-3.96
				c0.25,0.71,0.76,1.03,1.5,0.96C31.36,6.19,31.67,9.39,30.1,11.85z"/>
			<line fill="none" stroke="#000000" stroke-width="0.25" stroke-miterlimit="10" x1="31.03" y1="4.48" x2="31.03" y2="4.48"/>
		</g>
		<g>
			<path fill="#BE1622" stroke="#000000" stroke-width="0.25" stroke-miterlimit="10" d="M12.27,3.72
				c-0.31,0.68-0.84,0.95-1.59,0.82c0.21-0.73,0.39-1.17,0.39-1.17S11.56,3.47,12.27,3.72z"/>
			<path fill="#64901D" stroke="#000000" stroke-width="0.25" stroke-miterlimit="10" d="M18.19,8.2c0.64,1.23,1.06,2.48,1.27,3.63
				l-6.24,3.25c-0.83-0.83-1.61-1.89-2.25-3.12c-1.35-2.59-0.76-5.75-0.28-7.42c0.74,0.13,1.27-0.14,1.59-0.82
				C13.92,4.28,16.84,5.62,18.19,8.2z"/>
			<line fill="none" stroke="#000000" stroke-width="0.25" stroke-miterlimit="10" x1="12.28" y1="3.71" x2="12.27" y2="3.72"/>
		</g>
		<g>
			<path fill="#BE1622" stroke="#000000" stroke-width="0.25" stroke-miterlimit="10" d="M21.75,1.59
				c-0.61,0.43-1.21,0.41-1.78-0.08c0.54-0.52,0.93-0.82,0.93-0.82S21.26,1.01,21.75,1.59z"/>
			<path fill="#64901D" stroke="#000000" stroke-width="0.25" stroke-miterlimit="10" d="M24.63,8.43
				c-0.06,1.39-0.32,2.68-0.72,3.78l-7.03-0.31c-0.3-1.13-0.45-2.44-0.39-3.83c0.13-2.91,2.21-5.36,3.47-6.57
				c0.58,0.49,1.17,0.51,1.78,0.08C22.89,2.9,24.76,5.52,24.63,8.43z"/>
			<line fill="none" stroke="#000000" stroke-width="0.25" stroke-miterlimit="10" x1="21.76" y1="1.58" x2="21.75" y2="1.59"/>
		</g>
		<g>
			<path fill="#BE1622" stroke="#000000" stroke-width="0.25" stroke-miterlimit="10" d="M2.23,19.58c0.43,0.61,0.41,1.21-0.08,1.78
				c-0.52-0.54-0.82-0.93-0.82-0.93S1.66,20.07,2.23,19.58z"/>
			<path fill="#64901D" stroke="#000000" stroke-width="0.25" stroke-miterlimit="10" d="M9.08,16.69c1.39,0.06,2.68,0.32,3.78,0.72
				l-0.31,7.03c-1.13,0.3-2.44,0.45-3.83,0.39c-2.91-0.13-5.36-2.21-6.57-3.47c0.49-0.58,0.51-1.17,0.08-1.78
				C3.55,18.43,6.16,16.57,9.08,16.69z"/>
			<line fill="none" stroke="#000000" stroke-width="0.25" stroke-miterlimit="10" x1="2.23" y1="19.57" x2="2.23" y2="19.58"/>
		</g>
		<g>
			<path fill="#BE1622" stroke="#000000" stroke-width="0.25" stroke-miterlimit="10" d="M5.13,10.3c0.07,0.75-0.25,1.25-0.96,1.5
				c-0.18-0.73-0.24-1.21-0.24-1.21S4.38,10.44,5.13,10.3z"/>
			<path fill="#64901D" stroke="#000000" stroke-width="0.25" stroke-miterlimit="10" d="M12.49,11.23
				c1.17,0.75,2.16,1.61,2.91,2.51l-3.78,5.93c-1.13-0.3-2.34-0.83-3.51-1.58c-2.46-1.57-3.53-4.6-3.96-6.29
				c0.71-0.25,1.03-0.76,0.96-1.5C6.84,9.97,10.04,9.66,12.49,11.23z"/>
			<line fill="none" stroke="#000000" stroke-width="0.25" stroke-miterlimit="10" x1="5.13" y1="10.29" x2="5.13" y2="10.3"/>
		</g>
		<g>
			<path fill="#BE1622" stroke="#000000" stroke-width="0.25" stroke-miterlimit="10" d="M10.95,36.2c0.75-0.07,1.25,0.25,1.5,0.96
				c-0.73,0.18-1.21,0.24-1.21,0.24S11.09,36.94,10.95,36.2z"/>
			<path fill="#64901D" stroke="#000000" stroke-width="0.25" stroke-miterlimit="10" d="M11.87,28.83
				c0.75-1.17,1.61-2.16,2.51-2.91l5.93,3.78c-0.3,1.13-0.83,2.34-1.58,3.51c-1.57,2.46-4.6,3.53-6.29,3.96
				c-0.25-0.71-0.76-1.03-1.5-0.96C10.62,34.49,10.31,31.29,11.87,28.83z"/>
			<line fill="none" stroke="#000000" stroke-width="0.25" stroke-miterlimit="10" x1="10.94" y1="36.2" x2="10.95" y2="36.2"/>
		</g>
		<g>
			<path fill="#BE1622" stroke="#000000" stroke-width="0.25" stroke-miterlimit="10" d="M4.36,29.05c0.68,0.31,0.95,0.84,0.82,1.59
				c-0.73-0.21-1.17-0.39-1.17-0.39S4.11,29.77,4.36,29.05z"/>
			<path fill="#64901D" stroke="#000000" stroke-width="0.25" stroke-miterlimit="10" d="M8.85,23.14c1.23-0.64,2.48-1.06,3.63-1.27
				l3.25,6.24c-0.83,0.83-1.89,1.61-3.12,2.25c-2.59,1.35-5.75,0.76-7.42,0.28c0.13-0.74-0.14-1.27-0.82-1.59
				C4.93,27.41,6.26,24.49,8.85,23.14z"/>
			<line fill="none" stroke="#000000" stroke-width="0.25" stroke-miterlimit="10" x1="4.36" y1="29.05" x2="4.36" y2="29.05"/>
		</g>
		<g>
			<path fill="#BE1622" stroke="#000000" stroke-width="0.25" stroke-miterlimit="10" d="M29.7,36.97c0.31-0.68,0.84-0.95,1.59-0.82
				c-0.21,0.73-0.39,1.17-0.39,1.17S30.42,37.21,29.7,36.97z"/>
			<path fill="#64901D" stroke="#000000" stroke-width="0.25" stroke-miterlimit="10" d="M23.79,32.48
				c-0.64-1.23-1.06-2.48-1.27-3.63l6.24-3.25c0.83,0.83,1.61,1.89,2.25,3.12c1.35,2.59,0.76,5.75,0.28,7.42
				c-0.74-0.13-1.27,0.14-1.59,0.82C28.06,36.4,25.13,35.07,23.79,32.48z"/>
			<line fill="none" stroke="#000000" stroke-width="0.25" stroke-miterlimit="10" x1="29.7" y1="36.97" x2="29.7" y2="36.97"/>
		</g>
		<g>
			<path fill="#BE1622" stroke="#000000" stroke-width="0.25" stroke-miterlimit="10" d="M20.22,39.1c0.61-0.43,1.21-0.41,1.78,0.08
				C21.46,39.7,21.08,40,21.08,40S20.72,39.67,20.22,39.1z"/>
			<path fill="#64901D" stroke="#000000" stroke-width="0.25" stroke-miterlimit="10" d="M17.34,32.25
				c0.06-1.39,0.32-2.68,0.72-3.78l7.03,0.31c0.3,1.13,0.45,2.44,0.39,3.83c-0.13,2.91-2.21,5.36-3.47,6.57
				c-0.58-0.49-1.17-0.51-1.78-0.08C19.08,37.78,17.21,35.17,17.34,32.25z"/>
			<line fill="none" stroke="#000000" stroke-width="0.25" stroke-miterlimit="10" x1="20.22" y1="39.1" x2="20.22" y2="39.1"/>
		</g>
		<g>
			<path fill="#BE1622" stroke="#000000" stroke-width="0.25" stroke-miterlimit="10" d="M39.74,21.11
				c-0.43-0.61-0.41-1.21,0.08-1.78c0.52,0.54,0.82,0.93,0.82,0.93S40.31,20.61,39.74,21.11z"/>
			<path fill="#64901D" stroke="#000000" stroke-width="0.25" stroke-miterlimit="10" d="M32.9,23.99
				c-1.39-0.06-2.68-0.32-3.78-0.72l0.31-7.03c1.13-0.3,2.44-0.45,3.83-0.39c2.91,0.13,5.36,2.21,6.57,3.47
				c-0.49,0.58-0.51,1.17-0.08,1.78C38.43,22.25,35.81,24.11,32.9,23.99z"/>
			<line fill="none" stroke="#000000" stroke-width="0.25" stroke-miterlimit="10" x1="39.75" y1="21.11" x2="39.74" y2="21.11"/>
		</g>
		<g>
			<path fill="#BE1622" stroke="#000000" stroke-width="0.25" stroke-miterlimit="10" d="M36.85,30.38
				c-0.07-0.75,0.25-1.25,0.96-1.5c0.18,0.73,0.24,1.21,0.24,1.21S37.59,30.24,36.85,30.38z"/>
			<path fill="#64901D" stroke="#000000" stroke-width="0.25" stroke-miterlimit="10" d="M29.48,29.45
				c-1.17-0.75-2.16-1.61-2.91-2.51l3.78-5.93c1.13,0.3,2.34,0.83,3.51,1.58c2.46,1.57,3.53,4.6,3.96,6.29
				c-0.71,0.25-1.03,0.76-0.96,1.5C35.14,30.71,31.94,31.02,29.48,29.45z"/>
			<line fill="none" stroke="#000000" stroke-width="0.25" stroke-miterlimit="10" x1="36.85" y1="30.39" x2="36.85" y2="30.38"/>
		</g>
		<g>
			<path fill="#BE1622" stroke="#000000" stroke-width="0.25" stroke-miterlimit="10" d="M37.61,11.63
				c-0.68-0.31-0.95-0.84-0.82-1.59c0.73,0.21,1.17,0.39,1.17,0.39S37.86,10.91,37.61,11.63z"/>
			<path fill="#64901D" stroke="#000000" stroke-width="0.25" stroke-miterlimit="10" d="M33.13,17.54
				c-1.23,0.64-2.48,1.06-3.63,1.27l-3.25-6.24c0.83-0.83,1.89-1.61,3.12-2.25c2.59-1.35,5.75-0.76,7.42-0.28
				c-0.13,0.74,0.14,1.27,0.82,1.59C37.04,13.27,35.71,16.2,33.13,17.54z"/>
			<line fill="none" stroke="#000000" stroke-width="0.25" stroke-miterlimit="10" x1="37.62" y1="11.63" x2="37.61" y2="11.63"/>
		</g>
	</g>
	<g>
		<g>
			<path fill="#BE1622" stroke="#000000" stroke-width="0.25" stroke-miterlimit="10" d="M24.34,7.2c-0.5,0.21-0.91,0.11-1.25-0.33
				c0.46-0.29,0.78-0.44,0.78-0.44S24.08,6.72,24.34,7.2z"/>
			<path fill="#64901D" stroke="#000000" stroke-width="0.25" stroke-miterlimit="10" d="M25.35,12.47
				c-0.25,0.97-0.63,1.84-1.07,2.56l-4.92-1.27c-0.04-0.85,0.05-1.79,0.3-2.76c0.53-2.04,2.37-3.45,3.43-4.12
				c0.33,0.43,0.75,0.54,1.25,0.33C24.95,8.3,25.88,10.43,25.35,12.47z"/>
			<line fill="none" stroke="#000000" stroke-width="0.25" stroke-miterlimit="10" x1="24.35" y1="7.2" x2="24.34" y2="7.2"/>
		</g>
		<g>
			<path fill="#BE1622" stroke="#000000" stroke-width="0.25" stroke-miterlimit="10" d="M11.28,10.87
				c-0.06,0.54-0.37,0.84-0.91,0.92c-0.02-0.54,0.01-0.89,0.01-0.89S10.74,10.86,11.28,10.87z"/>
			<path fill="#64901D" stroke="#000000" stroke-width="0.25" stroke-miterlimit="10" d="M16.35,12.63c0.72,0.7,1.28,1.46,1.68,2.21
				l-3.56,3.63c-0.75-0.38-1.53-0.94-2.24-1.64c-1.5-1.48-1.81-3.78-1.85-5.04c0.54-0.07,0.84-0.38,0.91-0.92
				C12.54,10.89,14.85,11.15,16.35,12.63z"/>
			<line fill="none" stroke="#000000" stroke-width="0.25" stroke-miterlimit="10" x1="11.28" y1="10.86" x2="11.28" y2="10.87"/>
		</g>
		<g>
			<path fill="#BE1622" stroke="#000000" stroke-width="0.25" stroke-miterlimit="10" d="M17.32,7.28C17,7.72,16.58,7.83,16.08,7.63
				c0.26-0.48,0.45-0.77,0.45-0.77S16.85,7,17.32,7.28z"/>
			<path fill="#64901D" stroke="#000000" stroke-width="0.25" stroke-miterlimit="10" d="M20.83,11.34
				c0.27,0.97,0.38,1.91,0.35,2.76l-4.9,1.36c-0.46-0.71-0.85-1.58-1.12-2.54c-0.56-2.03,0.32-4.18,0.91-5.29
				c0.5,0.21,0.92,0.09,1.24-0.34C18.4,7.93,20.27,9.31,20.83,11.34z"/>
			<line fill="none" stroke="#000000" stroke-width="0.25" stroke-miterlimit="10" x1="17.32" y1="7.28" x2="17.32" y2="7.28"/>
		</g>
		<g>
			<path fill="#BE1622" stroke="#000000" stroke-width="0.25" stroke-miterlimit="10" d="M7.93,24.01c0.43,0.32,0.55,0.74,0.34,1.24
				C7.79,24.99,7.5,24.8,7.5,24.8S7.65,24.48,7.93,24.01z"/>
			<path fill="#64901D" stroke="#000000" stroke-width="0.25" stroke-miterlimit="10" d="M11.99,20.5c0.97-0.27,1.91-0.38,2.76-0.35
				l1.36,4.9c-0.71,0.46-1.58,0.85-2.54,1.12c-2.03,0.56-4.18-0.32-5.29-0.91c0.21-0.5,0.09-0.92-0.34-1.24
				C8.58,22.93,9.96,21.06,11.99,20.5z"/>
			<line fill="none" stroke="#000000" stroke-width="0.25" stroke-miterlimit="10" x1="7.93" y1="24" x2="7.93" y2="24.01"/>
		</g>
		<g>
			<path fill="#BE1622" stroke="#000000" stroke-width="0.25" stroke-miterlimit="10" d="M7.85,16.99c0.21,0.5,0.11,0.91-0.33,1.25
				c-0.29-0.46-0.44-0.78-0.44-0.78S7.37,17.25,7.85,16.99z"/>
			<path fill="#64901D" stroke="#000000" stroke-width="0.25" stroke-miterlimit="10" d="M13.11,15.98
				c0.97,0.25,1.84,0.63,2.56,1.07l-1.27,4.92c-0.85,0.04-1.79-0.05-2.76-0.3c-2.04-0.53-3.45-2.37-4.12-3.43
				c0.43-0.33,0.54-0.75,0.33-1.25C8.95,16.38,11.08,15.45,13.11,15.98z"/>
			<line fill="none" stroke="#000000" stroke-width="0.25" stroke-miterlimit="10" x1="7.84" y1="16.98" x2="7.85" y2="16.99"/>
		</g>
		<g>
			<path fill="#BE1622" stroke="#000000" stroke-width="0.25" stroke-miterlimit="10" d="M17.63,33.48c0.5-0.21,0.91-0.11,1.25,0.33
				c-0.46,0.29-0.78,0.44-0.78,0.44S17.9,33.96,17.63,33.48z"/>
			<path fill="#64901D" stroke="#000000" stroke-width="0.25" stroke-miterlimit="10" d="M16.62,28.21
				c0.25-0.97,0.63-1.84,1.07-2.56l4.92,1.27c0.04,0.85-0.05,1.79-0.3,2.76c-0.53,2.04-2.37,3.45-3.43,4.12
				c-0.33-0.43-0.75-0.54-1.25-0.33C17.02,32.38,16.1,30.25,16.62,28.21z"/>
			<line fill="none" stroke="#000000" stroke-width="0.25" stroke-miterlimit="10" x1="17.63" y1="33.48" x2="17.63" y2="33.48"/>
		</g>
		<g>
			<path fill="#BE1622" stroke="#000000" stroke-width="0.25" stroke-miterlimit="10" d="M11.51,30.04
				c0.54,0.06,0.84,0.37,0.92,0.91c-0.54,0.02-0.89-0.01-0.89-0.01S11.5,30.59,11.51,30.04z"/>
			<path fill="#64901D" stroke="#000000" stroke-width="0.25" stroke-miterlimit="10" d="M13.27,24.98c0.7-0.72,1.46-1.28,2.21-1.68
				l3.63,3.56c-0.38,0.75-0.94,1.53-1.64,2.24c-1.48,1.5-3.78,1.81-5.04,1.85c-0.07-0.54-0.38-0.84-0.92-0.91
				C11.54,28.79,11.8,26.48,13.27,24.98z"/>
			<line fill="none" stroke="#000000" stroke-width="0.25" stroke-miterlimit="10" x1="11.51" y1="30.04" x2="11.51" y2="30.04"/>
		</g>
		<g>
			<path fill="#BE1622" stroke="#000000" stroke-width="0.25" stroke-miterlimit="10" d="M30.69,29.81
				c0.06-0.54,0.37-0.84,0.91-0.92c0.02,0.54-0.01,0.89-0.01,0.89S31.24,29.83,30.69,29.81z"/>
			<path fill="#64901D" stroke="#000000" stroke-width="0.25" stroke-miterlimit="10" d="M25.62,28.06
				c-0.72-0.7-1.28-1.46-1.68-2.21l3.56-3.63c0.75,0.38,1.53,0.94,2.24,1.64c1.5,1.48,1.81,3.78,1.85,5.04
				c-0.54,0.07-0.84,0.38-0.91,0.92C29.43,29.79,27.13,29.53,25.62,28.06z"/>
			<line fill="none" stroke="#000000" stroke-width="0.25" stroke-miterlimit="10" x1="30.69" y1="29.82" x2="30.69" y2="29.81"/>
		</g>
		<g>
			<path fill="#BE1622" stroke="#000000" stroke-width="0.25" stroke-miterlimit="10" d="M24.65,33.4c0.32-0.43,0.74-0.55,1.24-0.34
				c-0.26,0.48-0.45,0.77-0.45,0.77S25.12,33.68,24.65,33.4z"/>
			<path fill="#64901D" stroke="#000000" stroke-width="0.25" stroke-miterlimit="10" d="M21.15,29.34
				c-0.27-0.97-0.38-1.91-0.35-2.76l4.9-1.36c0.46,0.71,0.85,1.58,1.12,2.54c0.56,2.03-0.32,4.18-0.91,5.29
				c-0.5-0.21-0.92-0.09-1.24,0.34C23.58,32.75,21.71,31.37,21.15,29.34z"/>
			<line fill="none" stroke="#000000" stroke-width="0.25" stroke-miterlimit="10" x1="24.65" y1="33.4" x2="24.65" y2="33.4"/>
		</g>
		<g>
			<path fill="#BE1622" stroke="#000000" stroke-width="0.25" stroke-miterlimit="10" d="M34.04,16.67
				c-0.43-0.32-0.55-0.74-0.34-1.24c0.48,0.26,0.77,0.45,0.77,0.45S34.33,16.21,34.04,16.67z"/>
			<path fill="#64901D" stroke="#000000" stroke-width="0.25" stroke-miterlimit="10" d="M29.99,20.18
				c-0.97,0.27-1.91,0.38-2.76,0.35l-1.36-4.9c0.71-0.46,1.58-0.85,2.54-1.12c2.03-0.56,4.18,0.32,5.29,0.91
				c-0.21,0.5-0.09,0.92,0.34,1.24C33.4,17.75,32.02,19.62,29.99,20.18z"/>
			<line fill="none" stroke="#000000" stroke-width="0.25" stroke-miterlimit="10" x1="34.05" y1="16.68" x2="34.04" y2="16.67"/>
		</g>
		<g>
			<path fill="#BE1622" stroke="#000000" stroke-width="0.25" stroke-miterlimit="10" d="M34.13,23.69
				c-0.21-0.5-0.11-0.91,0.33-1.25c0.29,0.46,0.44,0.78,0.44,0.78S34.61,23.43,34.13,23.69z"/>
			<path fill="#64901D" stroke="#000000" stroke-width="0.25" stroke-miterlimit="10" d="M28.86,24.7
				c-0.97-0.25-1.84-0.63-2.56-1.07l1.27-4.92c0.85-0.04,1.79,0.05,2.76,0.3c2.04,0.53,3.45,2.37,4.12,3.43
				c-0.43,0.33-0.54,0.75-0.33,1.25C33.03,24.3,30.9,25.23,28.86,24.7z"/>
			<line fill="none" stroke="#000000" stroke-width="0.25" stroke-miterlimit="10" x1="34.13" y1="23.7" x2="34.13" y2="23.69"/>
		</g>
		<g>
			<path fill="#BE1622" stroke="#000000" stroke-width="0.25" stroke-miterlimit="10" d="M30.46,10.64
				c-0.54-0.06-0.84-0.37-0.92-0.91c0.54-0.02,0.89,0.01,0.89,0.01S30.47,10.09,30.46,10.64z"/>
			<path fill="#64901D" stroke="#000000" stroke-width="0.25" stroke-miterlimit="10" d="M28.7,15.7c-0.7,0.72-1.46,1.28-2.21,1.68
				l-3.63-3.56c0.38-0.75,0.94-1.53,1.64-2.24c1.48-1.5,3.78-1.81,5.04-1.85c0.07,0.54,0.38,0.84,0.92,0.91
				C30.44,11.9,30.18,14.2,28.7,15.7z"/>
			<line fill="none" stroke="#000000" stroke-width="0.25" stroke-miterlimit="10" x1="30.47" y1="10.64" x2="30.46" y2="10.64"/>
		</g>
	</g>
	<g>
		
			<path fill="#BE1622" stroke="#000000" stroke-width="0.25" stroke-linecap="round" stroke-linejoin="round" stroke-miterlimit="10" d="
			M20.85,20.37c-0.58,0.09-0.94,0.41-1.18,0.86v0c-0.35,0.48-0.94,0.87-1.45-0.32c-0.28-0.68,0.1-1.06,0.85-1.26
			C19.47,20.2,20.14,20.32,20.85,20.37z"/>
		
			<path fill="#64912F" stroke="#000000" stroke-width="0.25" stroke-linecap="round" stroke-linejoin="round" stroke-miterlimit="10" d="
			M20.07,23.92c-4.61-0.82-4.91-3.22-1.92-6.82c0.13,1.01,0.43,1.87,0.92,2.56c-0.75,0.2-1.13,0.57-0.85,1.26
			c0.51,1.19,1.11,0.81,1.45,0.32c-0.02,0.04-0.04,0.08-0.06,0.12C19.5,22.36,19.65,23.22,20.07,23.92z"/>
	</g>
	<g>
		
			<path fill="#BE1622" stroke="#000000" stroke-width="0.25" stroke-linecap="round" stroke-linejoin="round" stroke-miterlimit="10" d="
			M20.85,20.37c-0.46,0.36-0.61,0.82-0.59,1.34l0,0c-0.06,0.59-0.38,1.22-1.42,0.45c-0.58-0.45-0.44-0.97,0.11-1.51
			C19.57,20.91,20.21,20.68,20.85,20.37z"/>
		
			<path fill="#64912F" stroke="#000000" stroke-width="0.25" stroke-linecap="round" stroke-linejoin="round" stroke-miterlimit="10" d="
			M21.95,23.83c-4.4,1.6-5.86-0.33-5.07-4.94c0.62,0.81,1.31,1.4,2.08,1.75c-0.55,0.55-0.69,1.06-0.11,1.51
			c1.04,0.78,1.36,0.15,1.42-0.45c0,0.04,0,0.08,0.01,0.13C20.68,22.77,21.24,23.43,21.95,23.83z"/>
	</g>
	<g>
		
			<path fill="#BE1622" stroke="#000000" stroke-width="0.25" stroke-linecap="round" stroke-linejoin="round" stroke-miterlimit="10" d="
			M20.85,20.37c-0.21,0.54-0.12,1.02,0.16,1.45l0,0c0.25,0.54,0.28,1.25-1.01,1.1c-0.73-0.1-0.86-0.62-0.66-1.37
			C20.02,21.48,20.45,20.96,20.85,20.37z"/>
		
			<path fill="#64912F" stroke="#000000" stroke-width="0.25" stroke-linecap="round" stroke-linejoin="round" stroke-miterlimit="10" d="
			M23.53,22.81c-3.02,3.59-5.24,2.64-6.87-1.74c0.94,0.4,1.83,0.56,2.67,0.48c-0.2,0.75-0.07,1.26,0.66,1.37
			c1.28,0.15,1.25-0.55,1.01-1.1c0.02,0.04,0.05,0.07,0.07,0.11C21.9,22.54,22.72,22.83,23.53,22.81z"/>
	</g>
	<g>
		
			<path fill="#BE1622" stroke="#000000" stroke-width="0.25" stroke-linecap="round" stroke-linejoin="round" stroke-miterlimit="10" d="
			M20.85,20.37c0.09,0.58,0.41,0.94,0.86,1.18h0c0.48,0.35,0.87,0.94-0.32,1.45c-0.68,0.28-1.06-0.1-1.26-0.85
			C20.68,21.74,20.8,21.08,20.85,20.37z"/>
		
			<path fill="#64912F" stroke="#000000" stroke-width="0.25" stroke-linecap="round" stroke-linejoin="round" stroke-miterlimit="10" d="
			M24.4,21.14c-0.82,4.61-3.22,4.91-6.82,1.92c1.01-0.13,1.87-0.43,2.56-0.92c0.2,0.75,0.57,1.13,1.26,0.85
			c1.19-0.51,0.81-1.11,0.32-1.45c0.04,0.02,0.08,0.04,0.12,0.06C22.84,21.72,23.7,21.57,24.4,21.14z"/>
	</g>
	<g>
		
			<path fill="#BE1622" stroke="#000000" stroke-width="0.25" stroke-linecap="round" stroke-linejoin="round" stroke-miterlimit="10" d="
			M20.85,20.37c0.36,0.46,0.82,0.61,1.34,0.59l0,0c0.59,0.06,1.22,0.38,0.45,1.42c-0.45,0.58-0.97,0.44-1.51-0.11
			C21.39,21.64,21.16,21.01,20.85,20.37z"/>
		
			<path fill="#64912F" stroke="#000000" stroke-width="0.25" stroke-linecap="round" stroke-linejoin="round" stroke-miterlimit="10" d="
			M24.31,19.27c1.6,4.4-0.33,5.86-4.94,5.07c0.81-0.62,1.4-1.31,1.75-2.08c0.55,0.55,1.06,0.69,1.51,0.11
			c0.78-1.04,0.15-1.36-0.45-1.42c0.04,0,0.08,0,0.13-0.01C23.25,20.54,23.92,19.98,24.31,19.27z"/>
	</g>
	<g>
		
			<path fill="#BE1622" stroke="#000000" stroke-width="0.25" stroke-linecap="round" stroke-linejoin="round" stroke-miterlimit="10" d="
			M20.85,20.37c0.54,0.21,1.02,0.12,1.45-0.16l0,0c0.54-0.25,1.25-0.28,1.1,1.01c-0.1,0.73-0.62,0.86-1.37,0.66
			C21.96,21.2,21.44,20.77,20.85,20.37z"/>
		
			<path fill="#64912F" stroke="#000000" stroke-width="0.25" stroke-linecap="round" stroke-linejoin="round" stroke-miterlimit="10" d="
			M23.29,17.68c3.59,3.02,2.64,5.24-1.74,6.87c0.4-0.94,0.56-1.83,0.48-2.67c0.75,0.2,1.26,0.07,1.37-0.66
			c0.15-1.28-0.55-1.25-1.1-1.01c0.04-0.02,0.07-0.05,0.11-0.07C23.02,19.32,23.31,18.5,23.29,17.68z"/>
	</g>
	<g>
		
			<path fill="#BE1622" stroke="#000000" stroke-width="0.25" stroke-linecap="round" stroke-linejoin="round" stroke-miterlimit="10" d="
			M20.85,20.37c0.58-0.09,0.94-0.41,1.18-0.86v0c0.35-0.48,0.94-0.87,1.45,0.32c0.28,0.68-0.1,1.06-0.85,1.26
			C22.23,20.54,21.56,20.42,20.85,20.37z"/>
		
			<path fill="#64912F" stroke="#000000" stroke-width="0.25" stroke-linecap="round" stroke-linejoin="round" stroke-miterlimit="10" d="
			M21.63,16.82c4.61,0.82,4.91,3.22,1.92,6.82c-0.13-1.01-0.43-1.87-0.92-2.56c0.75-0.2,1.13-0.57,0.85-1.26
			c-0.51-1.19-1.11-0.81-1.45-0.32c0.02-0.04,0.04-0.08,0.06-0.12C22.2,18.37,22.05,17.52,21.63,16.82z"/>
	</g>
	<g>
		
			<path fill="#BE1622" stroke="#000000" stroke-width="0.25" stroke-linecap="round" stroke-linejoin="round" stroke-miterlimit="10" d="
			M20.85,20.37c0.46-0.36,0.61-0.82,0.59-1.34l0,0c0.06-0.59,0.38-1.22,1.42-0.45c0.58,0.45,0.44,0.97-0.11,1.51
			C22.12,19.83,21.49,20.06,20.85,20.37z"/>
		
			<path fill="#64912F" stroke="#000000" stroke-width="0.25" stroke-linecap="round" stroke-linejoin="round" stroke-miterlimit="10" d="
			M19.75,16.91c4.4-1.6,5.86,0.33,5.07,4.94c-0.62-0.81-1.31-1.4-2.08-1.75c0.55-0.55,0.69-1.06,0.11-1.51
			c-1.04-0.78-1.36-0.15-1.42,0.45c0-0.04,0-0.08-0.01-0.13C21.02,17.97,20.46,17.3,19.75,16.91z"/>
	</g>
	<g>
		
			<path fill="#BE1622" stroke="#000000" stroke-width="0.25" stroke-linecap="round" stroke-linejoin="round" stroke-miterlimit="10" d="
			M20.85,20.37c0.21-0.54,0.12-1.02-0.16-1.45l0,0c-0.25-0.54-0.28-1.25,1.01-1.1c0.73,0.1,0.86,0.62,0.66,1.37
			C21.68,19.26,21.25,19.78,20.85,20.37z"/>
		
			<path fill="#64912F" stroke="#000000" stroke-width="0.25" stroke-linecap="round" stroke-linejoin="round" stroke-miterlimit="10" d="
			M18.17,17.92c3.02-3.59,5.24-2.64,6.87,1.74c-0.94-0.4-1.83-0.56-2.67-0.48c0.2-0.75,0.07-1.26-0.66-1.37
			c-1.28-0.15-1.25,0.55-1.01,1.1c-0.02-0.04-0.05-0.07-0.07-0.11C19.8,18.2,18.98,17.91,18.17,17.92z"/>
	</g>
	<g>
		
			<path fill="#BE1622" stroke="#000000" stroke-width="0.25" stroke-linecap="round" stroke-linejoin="round" stroke-miterlimit="10" d="
			M20.85,20.37c-0.09-0.58-0.41-0.94-0.86-1.18h0c-0.48-0.35-0.87-0.94,0.32-1.45c0.68-0.28,1.06,0.1,1.26,0.85
			C21.02,18.99,20.9,19.66,20.85,20.37z"/>
		
			<path fill="#64912F" stroke="#000000" stroke-width="0.25" stroke-linecap="round" stroke-linejoin="round" stroke-miterlimit="10" d="
			M17.3,19.59c0.82-4.61,3.22-4.91,6.82-1.92c-1.01,0.13-1.87,0.43-2.56,0.92c-0.2-0.75-0.57-1.13-1.26-0.85
			c-1.19,0.51-0.81,1.11-0.32,1.45c-0.04-0.02-0.08-0.04-0.12-0.06C18.86,19.02,18,19.17,17.3,19.59z"/>
	</g>
	<g>
		
			<path fill="#BE1622" stroke="#000000" stroke-width="0.25" stroke-linecap="round" stroke-linejoin="round" stroke-miterlimit="10" d="
			M20.85,20.37c-0.36-0.46-0.82-0.61-1.34-0.59l0,0c-0.59-0.06-1.22-0.38-0.45-1.42c0.45-0.58,0.97-0.44,1.51,0.11
			C20.31,19.09,20.54,19.73,20.85,20.37z"/>
		
			<path fill="#64912F" stroke="#000000" stroke-width="0.25" stroke-linecap="round" stroke-linejoin="round" stroke-miterlimit="10" d="
			M17.39,21.47c-1.6-4.4,0.33-5.86,4.94-5.07c-0.81,0.62-1.4,1.31-1.75,2.08c-0.55-0.55-1.06-0.69-1.51-0.11
			c-0.78,1.04-0.15,1.36,0.45,1.42c-0.04,0-0.08,0-0.13,0.01C18.45,20.2,17.78,20.76,17.39,21.47z"/>
	</g>
	<g>
		
			<path fill="#BE1622" stroke="#000000" stroke-width="0.25" stroke-linecap="round" stroke-linejoin="round" stroke-miterlimit="10" d="
			M20.85,20.37c-0.54-0.21-1.02-0.12-1.45,0.16l0,0c-0.54,0.25-1.25,0.28-1.1-1.01c0.1-0.73,0.62-0.86,1.37-0.66
			C19.74,19.54,20.26,19.97,20.85,20.37z"/>
		
			<path fill="#64912F" stroke="#000000" stroke-width="0.25" stroke-linecap="round" stroke-linejoin="round" stroke-miterlimit="10" d="
			M18.4,23.05c-3.59-3.02-2.64-5.24,1.74-6.87c-0.4,0.94-0.56,1.83-0.48,2.67c-0.75-0.2-1.26-0.07-1.37,0.66
			c-0.15,1.28,0.55,1.25,1.1,1.01c-0.04,0.02-0.07,0.05-0.11,0.07C18.68,21.42,18.39,22.24,18.4,23.05z"/>
	</g>
	<g>
		
			<path fill="#BE1622" stroke="#000000" stroke-width="0.25" stroke-linecap="round" stroke-linejoin="round" stroke-miterlimit="10" d="
			M18.74,19.63c-0.54-0.21-1.02-0.12-1.45,0.16l0,0c-0.54,0.25-1.25,0.28-1.1-1.01c0.1-0.73,0.62-0.86,1.37-0.66
			C17.64,18.8,18.16,19.24,18.74,19.63z"/>
		
			<path fill="#64912F" stroke="#000000" stroke-width="0.25" stroke-linecap="round" stroke-linejoin="round" stroke-miterlimit="10" d="
			M16.3,22.32c-3.59-3.02-2.64-5.24,1.74-6.87c-0.4,0.94-0.56,1.83-0.48,2.67c-0.75-0.2-1.26-0.07-1.37,0.66
			c-0.15,1.28,0.55,1.25,1.1,1.01c-0.04,0.02-0.07,0.05-0.11,0.07C16.58,20.68,16.28,21.5,16.3,22.32z"/>
	</g>
	<g>
		
			<path fill="#BE1622" stroke="#000000" stroke-width="0.25" stroke-linecap="round" stroke-linejoin="round" stroke-miterlimit="10" d="
			M19.16,21.83c-0.46,0.36-0.61,0.82-0.59,1.34l0,0c-0.06,0.59-0.38,1.22-1.42,0.45c-0.58-0.45-0.44-0.97,0.11-1.51
			C17.88,22.37,18.52,22.14,19.16,21.83z"/>
		
			<path fill="#64912F" stroke="#000000" stroke-width="0.25" stroke-linecap="round" stroke-linejoin="round" stroke-miterlimit="10" d="
			M20.26,25.28c-4.4,1.6-5.86-0.33-5.07-4.94c0.62,0.81,1.31,1.4,2.08,1.75c-0.55,0.55-0.69,1.06-0.11,1.51
			c1.04,0.78,1.36,0.15,1.42-0.45c0,0.04,0,0.08,0.01,0.13C18.99,24.23,19.55,24.89,20.26,25.28z"/>
	</g>
	<g>
		
			<path fill="#BE1622" stroke="#000000" stroke-width="0.25" stroke-linecap="round" stroke-linejoin="round" stroke-miterlimit="10" d="
			M21.27,22.56c0.09,0.58,0.41,0.94,0.86,1.18h0c0.48,0.35,0.87,0.94-0.32,1.45c-0.68,0.28-1.06-0.1-1.26-0.85
			C21.1,23.94,21.22,23.27,21.27,22.56z"/>
		
			<path fill="#64912F" stroke="#000000" stroke-width="0.25" stroke-linecap="round" stroke-linejoin="round" stroke-miterlimit="10" d="
			M24.81,23.34c-0.82,4.61-3.22,4.91-6.82,1.92c1.01-0.13,1.87-0.43,2.56-0.92c0.2,0.75,0.57,1.13,1.26,0.85
			c1.19-0.51,0.81-1.11,0.32-1.45c0.04,0.02,0.08,0.04,0.12,0.06C23.26,23.91,24.12,23.76,24.81,23.34z"/>
	</g>
	<g>
		
			<path fill="#BE1622" stroke="#000000" stroke-width="0.25" stroke-linecap="round" stroke-linejoin="round" stroke-miterlimit="10" d="
			M22.96,21.1c0.54,0.21,1.02,0.12,1.45-0.16l0,0c0.54-0.25,1.25-0.28,1.1,1.01c-0.1,0.73-0.62,0.86-1.37,0.66
			C24.06,21.94,23.54,21.5,22.96,21.1z"/>
		
			<path fill="#64912F" stroke="#000000" stroke-width="0.25" stroke-linecap="round" stroke-linejoin="round" stroke-miterlimit="10" d="
			M25.4,18.42c3.59,3.02,2.64,5.24-1.74,6.87c0.4-0.94,0.56-1.83,0.48-2.67c0.75,0.2,1.26,0.07,1.37-0.66
			c0.15-1.28-0.55-1.25-1.1-1.01c0.04-0.02,0.07-0.05,0.11-0.07C25.12,20.05,25.42,19.24,25.4,18.42z"/>
	</g>
	<g>
		
			<path fill="#BE1622" stroke="#000000" stroke-width="0.25" stroke-linecap="round" stroke-linejoin="round" stroke-miterlimit="10" d="
			M22.54,18.91c0.46-0.36,0.61-0.82,0.59-1.34l0,0c0.06-0.59,0.38-1.22,1.42-0.45c0.58,0.45,0.44,0.97-0.11,1.51
			C23.81,18.37,23.18,18.6,22.54,18.91z"/>
		
			<path fill="#64912F" stroke="#000000" stroke-width="0.25" stroke-linecap="round" stroke-linejoin="round" stroke-miterlimit="10" d="
			M21.44,15.45c4.4-1.6,5.86,0.33,5.07,4.94c-0.62-0.81-1.31-1.4-2.08-1.75c0.55-0.55,0.69-1.06,0.11-1.51
			c-1.04-0.78-1.36-0.15-1.42,0.45c0-0.04,0-0.08-0.01-0.13C22.71,16.51,22.15,15.85,21.44,15.45z"/>
	</g>
	<g>
		
			<path fill="#BE1622" stroke="#000000" stroke-width="0.25" stroke-linecap="round" stroke-linejoin="round" stroke-miterlimit="10" d="
			M20.43,18.18c-0.09-0.58-0.41-0.94-0.86-1.18h0c-0.48-0.35-0.87-0.94,0.32-1.45c0.68-0.28,1.06,0.1,1.26,0.85
			C20.6,16.8,20.48,17.47,20.43,18.18z"/>
		
			<path fill="#64912F" stroke="#000000" stroke-width="0.25" stroke-linecap="round" stroke-linejoin="round" stroke-miterlimit="10" d="
			M16.89,17.4c0.82-4.61,3.22-4.91,6.82-1.92c-1.01,0.13-1.87,0.43-2.56,0.92c-0.2-0.75-0.57-1.13-1.26-0.85
			c-1.19,0.51-0.81,1.11-0.32,1.45c-0.04-0.02-0.08-0.04-0.12-0.06C18.44,16.83,17.58,16.98,16.89,17.4z"/>
	</g>
</g>
</svg>
