<?xml version="1.0" encoding="utf-8"?>
<!-- Generator: Adobe Illustrator 28.1.0, SVG Export Plug-In . SVG Version: 6.00 Build 0)  -->
<svg version="1.1" id="Laag_1" xmlns="http://www.w3.org/2000/svg" xmlns:xlink="http://www.w3.org/1999/xlink" x="0px" y="0px"
	 viewBox="0 0 53.57 63" enable-background="new 0 0 53.57 63" xml:space="preserve">
<g>
	<path fill="#FFFFFF" stroke="#1D1D1B" stroke-miterlimit="10" d="M88.97-49.47H78.83c-1.97,0-3.57-1.6-3.57-3.57v0
		c0-1.97,1.6-3.57,3.57-3.57h10.15c1.97,0,3.57,1.6,3.57,3.57v0C92.55-51.07,90.95-49.47,88.97-49.47z"/>
	<g>
		
			<line fill="none" stroke="#1D1D1B" stroke-miterlimit="10" stroke-dasharray="3.5812" x1="78.24" y1="-62.55" x2="81.82" y2="-62.55"/>
	</g>
	<circle fill="#FFEC00" stroke="#1D1D1B" stroke-miterlimit="10" cx="89.44" cy="-62.55" r="6.18"/>
	<circle fill="#FFFFFF" stroke="#1D1D1B" stroke-miterlimit="10" cx="78.06" cy="-57.56" r="3.85"/>
	<circle fill="#FFFFFF" stroke="#1D1D1B" stroke-miterlimit="10" cx="82.5" cy="-59.74" r="4.44"/>
	<circle fill="#FFFFFF" stroke="#1D1D1B" stroke-miterlimit="10" cx="89.26" cy="-56.92" r="4.15"/>
	<circle fill="#FFFFFF" stroke="#1D1D1B" stroke-miterlimit="10" cx="82.43" cy="-53.64" r="4.25"/>
	<circle fill="#FFFFFF" stroke="#1D1D1B" stroke-miterlimit="10" cx="91.96" cy="-54.17" r="4.25"/>
	<circle fill="#FFFFFF" stroke="#1D1D1B" stroke-miterlimit="10" cx="76" cy="-53.44" r="3.48"/>
	<g>
		
			<line fill="none" stroke="#1D1D1B" stroke-miterlimit="10" stroke-dasharray="3.5812" x1="89.44" y1="-73.76" x2="89.44" y2="-70.18"/>
	</g>
	<g>
		
			<line fill="none" stroke="#1D1D1B" stroke-miterlimit="10" stroke-dasharray="3.5812" x1="83.84" y1="-72.26" x2="85.63" y2="-69.16"/>
	</g>
	<g>
		
			<line fill="none" stroke="#1D1D1B" stroke-miterlimit="10" stroke-dasharray="3.5812" x1="79.74" y1="-68.16" x2="82.84" y2="-66.37"/>
	</g>
	<g>
		
			<line fill="none" stroke="#1D1D1B" stroke-miterlimit="10" stroke-dasharray="3.5812" x1="99.15" y1="-56.95" x2="96.05" y2="-58.74"/>
	</g>
	<g>
		
			<line fill="none" stroke="#1D1D1B" stroke-miterlimit="10" stroke-dasharray="3.5812" x1="100.65" y1="-62.55" x2="97.07" y2="-62.55"/>
	</g>
	<g>
		
			<line fill="none" stroke="#1D1D1B" stroke-miterlimit="10" stroke-dasharray="3.5812" x1="99.15" y1="-68.16" x2="96.05" y2="-66.37"/>
	</g>
	<g>
		
			<line fill="none" stroke="#1D1D1B" stroke-miterlimit="10" stroke-dasharray="3.5812" x1="95.05" y1="-72.26" x2="93.26" y2="-69.16"/>
	</g>
</g>
<g>
	<path fill="none" stroke="#1D1D1B" stroke-linecap="round" stroke-miterlimit="10" d="M-35.76,31.95c0,0.16-0.14,0.3-0.3,0.3
		s-0.3-0.13-0.3-0.3c0-0.17,0.13-0.3,0.3-0.3S-35.76,31.78-35.76,31.95z"/>
	<path fill="none" stroke="#1D1D1B" stroke-linecap="round" stroke-miterlimit="10" d="M-36.13,31.27c0-0.16,0.13-0.3,0.3-0.3
		c0.03,0,0.06,0,0.08,0.01c-0.01-0.03-0.02-0.07-0.02-0.1c0-0.16,0.13-0.3,0.3-0.3c0.16,0,0.3,0.13,0.3,0.3c0,0.17-0.14,0.3-0.3,0.3
		c-0.03,0-0.06,0-0.08-0.01c0.01,0.03,0.02,0.06,0.02,0.09c0,0.16-0.13,0.3-0.3,0.3C-35.99,31.57-36.13,31.44-36.13,31.27z"/>
	<path fill="none" stroke="#1D1D1B" stroke-linecap="round" stroke-miterlimit="10" d="M-35.38,32.02c-0.16,0-0.3-0.13-0.3-0.3
		c0-0.16,0.14-0.3,0.3-0.3c0.16,0,0.3,0.13,0.3,0.3C-35.08,31.88-35.21,32.02-35.38,32.02z"/>
	<path fill="none" stroke="#1D1D1B" stroke-linecap="round" stroke-miterlimit="10" d="M-34.86,32.43c0,0.16-0.13,0.3-0.3,0.3
		c-0.17,0-0.3-0.13-0.3-0.3c0-0.17,0.13-0.3,0.3-0.3C-35,32.12-34.86,32.26-34.86,32.43z"/>
	<path fill="none" stroke="#1D1D1B" stroke-linecap="round" stroke-miterlimit="10" d="M-35.16,30.54c0-0.17,0.13-0.3,0.3-0.3
		c0.16,0,0.3,0.13,0.3,0.3c0,0.16-0.14,0.3-0.3,0.3C-35.03,30.84-35.16,30.71-35.16,30.54z"/>
	<path fill="none" stroke="#1D1D1B" stroke-linecap="round" stroke-miterlimit="10" d="M-34.61,31.66c-0.17,0-0.3-0.13-0.3-0.3
		c0-0.16,0.13-0.3,0.3-0.3c0.16,0,0.3,0.13,0.3,0.3C-34.31,31.53-34.44,31.66-34.61,31.66z"/>
	<path fill="none" stroke="#1D1D1B" stroke-linecap="round" stroke-miterlimit="10" d="M-34.1,32.12c0,0.16-0.13,0.3-0.3,0.3
		c-0.16,0-0.3-0.14-0.3-0.3c0-0.16,0.14-0.3,0.3-0.3C-34.23,31.83-34.1,31.96-34.1,32.12z"/>
	<path fill="none" stroke="#1D1D1B" stroke-linecap="round" stroke-miterlimit="10" d="M-34.47,30.23c0-0.17,0.14-0.3,0.3-0.3
		s0.3,0.13,0.3,0.3c0,0.16-0.13,0.3-0.3,0.3S-34.47,30.39-34.47,30.23z"/>
	<path fill="none" stroke="#1D1D1B" stroke-linecap="round" stroke-miterlimit="10" d="M-34.47,29.51c0-0.16,0.14-0.3,0.3-0.3
		s0.3,0.13,0.3,0.3c0,0.17-0.13,0.3-0.3,0.3S-34.47,29.68-34.47,29.51z"/>
	<path fill="none" stroke="#1D1D1B" stroke-linecap="round" stroke-miterlimit="10" d="M-33.7,30.79c0.1,0.13,0.08,0.32-0.06,0.42
		c-0.13,0.1-0.32,0.08-0.42-0.06c-0.1-0.13-0.08-0.32,0.06-0.42C-33.99,30.63-33.8,30.66-33.7,30.79z"/>
	<path fill="none" stroke="#1D1D1B" stroke-linecap="round" stroke-miterlimit="10" d="M-34.01,29.09c0-0.16,0.14-0.3,0.3-0.3
		c0.16,0,0.3,0.13,0.3,0.3c0,0.17-0.13,0.3-0.3,0.3C-33.87,29.39-34.01,29.26-34.01,29.09z"/>
	<path fill="none" stroke="#1D1D1B" stroke-linecap="round" stroke-miterlimit="10" d="M-33.54,30.31c-0.15-0.08-0.21-0.25-0.14-0.4
		c0.07-0.15,0.25-0.21,0.4-0.14c0.15,0.07,0.21,0.25,0.14,0.4C-33.21,30.32-33.39,30.39-33.54,30.31z"/>
	<path fill="none" stroke="#1D1D1B" stroke-linecap="round" stroke-miterlimit="10" d="M-33.37,28.22c0-0.16,0.13-0.3,0.3-0.3
		c0.17,0,0.3,0.13,0.3,0.3c0,0.17-0.13,0.3-0.3,0.3C-33.24,28.52-33.37,28.39-33.37,28.22z"/>
	<path fill="none" stroke="#1D1D1B" stroke-linecap="round" stroke-miterlimit="10" d="M-32.91,28.66c0.16,0,0.3,0.13,0.3,0.3
		c0,0.16-0.14,0.3-0.3,0.3c-0.16,0-0.3-0.14-0.3-0.3C-33.21,28.8-33.08,28.66-32.91,28.66z"/>
	<path fill="none" stroke="#1D1D1B" stroke-linecap="round" stroke-miterlimit="10" d="M-32.86,30.56c0.1,0.13,0.08,0.32-0.06,0.42
		c-0.13,0.1-0.32,0.08-0.42-0.06c-0.1-0.13-0.08-0.32,0.06-0.42C-33.15,30.41-32.96,30.43-32.86,30.56z"/>
	<path fill="none" stroke="#1D1D1B" stroke-linecap="round" stroke-miterlimit="10" d="M-32.51,29.94c-0.07,0.15-0.25,0.21-0.4,0.14
		c-0.15-0.08-0.21-0.25-0.14-0.4c0.07-0.15,0.25-0.21,0.4-0.14C-32.5,29.61-32.44,29.79-32.51,29.94z"/>
	<path fill="none" stroke="#1D1D1B" stroke-linecap="round" stroke-miterlimit="10" d="M-32.63,28.1c-0.09-0.14-0.06-0.32,0.07-0.42
		c0.14-0.09,0.32-0.06,0.42,0.07c0.09,0.14,0.06,0.32-0.07,0.42C-32.35,28.26-32.54,28.23-32.63,28.1z"/>
	<path fill="none" stroke="#1D1D1B" stroke-linecap="round" stroke-miterlimit="10" d="M-32.39,29.04c-0.15-0.07-0.21-0.25-0.14-0.4
		c0.07-0.15,0.25-0.21,0.4-0.14c0.15,0.07,0.21,0.25,0.14,0.4C-32.06,29.05-32.24,29.11-32.39,29.04z"/>
	<path fill="none" stroke="#1D1D1B" stroke-linecap="round" stroke-miterlimit="10" d="M-31.59,29.65c-0.07,0.15-0.25,0.21-0.4,0.14
		c-0.15-0.07-0.21-0.25-0.14-0.4c0.07-0.15,0.25-0.21,0.4-0.14C-31.58,29.32-31.52,29.5-31.59,29.65z"/>
	<path fill="none" stroke="#1D1D1B" stroke-linecap="round" stroke-miterlimit="10" d="M-31.95,26.89
		c-0.09-0.14-0.06-0.32,0.08-0.42s0.32-0.06,0.42,0.08c0.09,0.14,0.06,0.32-0.08,0.42S-31.85,27.02-31.95,26.89z"/>
	<path fill="none" stroke="#1D1D1B" stroke-linecap="round" stroke-miterlimit="10" d="M-31.84,27.65
		c-0.09-0.14-0.06-0.32,0.07-0.42c0.14-0.09,0.32-0.06,0.42,0.07c0.09,0.14,0.06,0.32-0.07,0.42
		C-31.55,27.82-31.74,27.78-31.84,27.65z"/>
	<path fill="none" stroke="#1D1D1B" stroke-linecap="round" stroke-miterlimit="10" d="M-31.25,28.34
		c-0.02,0.16-0.16,0.29-0.33,0.27c-0.16-0.02-0.28-0.16-0.27-0.33c0.02-0.16,0.16-0.29,0.33-0.27
		C-31.36,28.03-31.24,28.17-31.25,28.34z"/>
	<path fill="none" stroke="#1D1D1B" stroke-linecap="round" stroke-miterlimit="10" d="M-30.98,29.09c-0.07,0.15-0.25,0.21-0.4,0.14
		s-0.21-0.25-0.14-0.4c0.07-0.15,0.25-0.21,0.4-0.14C-30.97,28.77-30.91,28.95-30.98,29.09z"/>
	<path fill="none" stroke="#1D1D1B" stroke-linecap="round" stroke-miterlimit="10" d="M-31.35,26.3c-0.09-0.14-0.06-0.32,0.07-0.42
		c0.14-0.09,0.32-0.06,0.42,0.07c0.09,0.14,0.06,0.32-0.07,0.42C-31.06,26.46-31.25,26.43-31.35,26.3z"/>
	<path fill="none" stroke="#1D1D1B" stroke-linecap="round" stroke-miterlimit="10" d="M-30.9,26.72c0.16,0.02,0.28,0.16,0.27,0.33
		c-0.02,0.16-0.16,0.29-0.33,0.27c-0.16-0.02-0.28-0.16-0.27-0.33C-31.21,26.82-31.06,26.7-30.9,26.72z"/>
	<path fill="none" stroke="#1D1D1B" stroke-linecap="round" stroke-miterlimit="10" d="M-30.42,27.95
		c-0.02,0.16-0.16,0.29-0.33,0.27c-0.16-0.02-0.28-0.16-0.27-0.33c0.02-0.16,0.16-0.29,0.33-0.27
		C-30.52,27.64-30.4,27.79-30.42,27.95z"/>
	<path fill="none" stroke="#1D1D1B" stroke-linecap="round" stroke-miterlimit="10" d="M-30.66,26.33
		c-0.11-0.12-0.11-0.31,0.01-0.42c0.12-0.11,0.31-0.11,0.42,0.01c0.11,0.12,0.11,0.31-0.01,0.42
		C-30.36,26.46-30.55,26.45-30.66,26.33z"/>
	<path fill="none" stroke="#1D1D1B" stroke-linecap="round" stroke-miterlimit="10" d="M-30.42,27.02
		c-0.11-0.12-0.11-0.31,0.01-0.42c0.12-0.11,0.31-0.11,0.42,0.01c0.11,0.12,0.11,0.31-0.01,0.42
		C-30.12,27.15-30.31,27.14-30.42,27.02z"/>
	<path fill="none" stroke="#1D1D1B" stroke-linecap="round" stroke-miterlimit="10" d="M-29.81,27.33c0.11,0.12,0.1,0.31-0.02,0.42
		c-0.12,0.11-0.31,0.11-0.42-0.01c-0.11-0.12-0.11-0.31,0.01-0.42C-30.12,27.21-29.93,27.21-29.81,27.33z"/>
	<path fill="none" stroke="#1D1D1B" stroke-linecap="round" stroke-miterlimit="10" d="M-30.2,25.09c-0.09-0.13-0.06-0.32,0.07-0.42
		c0.14-0.09,0.32-0.06,0.42,0.08c0.09,0.14,0.06,0.32-0.07,0.42S-30.1,25.23-30.2,25.09z"/>
	<path fill="none" stroke="#1D1D1B" stroke-linecap="round" stroke-miterlimit="10" d="M-29.46,25.66c0.07,0.15,0,0.33-0.15,0.4
		c-0.15,0.07-0.33,0-0.4-0.15c-0.07-0.15,0-0.33,0.15-0.4C-29.71,25.44-29.53,25.51-29.46,25.66z"/>
	<path fill="none" stroke="#1D1D1B" stroke-linecap="round" stroke-miterlimit="10" d="M-29.22,26.36c0.07,0.15,0,0.33-0.15,0.4
		c-0.15,0.07-0.33,0-0.4-0.15c-0.07-0.15,0-0.33,0.15-0.4C-29.46,26.15-29.29,26.21-29.22,26.36z"/>
	<path fill="none" stroke="#1D1D1B" stroke-linecap="round" stroke-miterlimit="10" d="M-29.56,24.26
		c-0.09-0.14-0.06-0.32,0.08-0.42c0.14-0.09,0.32-0.06,0.42,0.08c0.09,0.13,0.06,0.32-0.08,0.41c-0.02,0.02-0.05,0.03-0.08,0.04
		c0.11,0.01,0.2,0.07,0.25,0.17c0.07,0.15,0,0.33-0.15,0.4c-0.15,0.07-0.33,0-0.4-0.15c-0.07-0.15,0-0.33,0.15-0.4
		c0.01,0,0.03-0.01,0.04-0.01C-29.42,24.38-29.5,24.34-29.56,24.26z"/>
	<path fill="none" stroke="#1D1D1B" stroke-linecap="round" stroke-miterlimit="10" d="M-28.69,25.41c0.07,0.15,0,0.33-0.15,0.4
		c-0.15,0.07-0.33,0-0.4-0.15c-0.07-0.15,0-0.33,0.15-0.4C-28.94,25.19-28.76,25.26-28.69,25.41z"/>
	<path fill="none" stroke="#1D1D1B" stroke-linecap="round" stroke-miterlimit="10" d="M-28.93,23.61
		c-0.09-0.14-0.06-0.32,0.08-0.42c0.14-0.09,0.32-0.06,0.42,0.07c0.09,0.14,0.06,0.32-0.08,0.42S-28.83,23.75-28.93,23.61z"/>
	<path fill="none" stroke="#1D1D1B" stroke-linecap="round" stroke-miterlimit="10" d="M-28.25,23.97c0.07,0.15,0,0.33-0.15,0.4
		c-0.15,0.07-0.33,0-0.4-0.15c-0.07-0.15,0-0.33,0.15-0.4C-28.5,23.75-28.32,23.82-28.25,23.97z"/>
	<path fill="none" stroke="#1D1D1B" stroke-linecap="round" stroke-miterlimit="10" d="M-28.05,24.62c0.07,0.15,0,0.33-0.15,0.4
		c-0.15,0.07-0.33,0-0.4-0.15c-0.07-0.15,0-0.33,0.15-0.4C-28.3,24.4-28.12,24.47-28.05,24.62z"/>
	<path fill="none" stroke="#1D1D1B" stroke-linecap="round" stroke-miterlimit="10" d="M-28.32,23.1c-0.09-0.14-0.06-0.32,0.07-0.42
		c0.14-0.09,0.32-0.06,0.42,0.07c0.09,0.14,0.06,0.32-0.07,0.42C-28.04,23.27-28.23,23.23-28.32,23.1z"/>
	<path fill="none" stroke="#1D1D1B" stroke-linecap="round" stroke-miterlimit="10" d="M-27.26,24.88c0.07,0.15,0,0.33-0.15,0.4
		c-0.15,0.07-0.33,0-0.4-0.15c-0.07-0.15,0-0.33,0.15-0.4C-27.51,24.66-27.33,24.73-27.26,24.88z"/>
	<path fill="none" stroke="#1D1D1B" stroke-linecap="round" stroke-miterlimit="10" d="M-27.26,23.97c0.07,0.15,0,0.33-0.15,0.4
		c-0.15,0.07-0.33,0-0.4-0.15c-0.04-0.08-0.03-0.17,0-0.25c-0.13,0.02-0.26-0.04-0.32-0.17c-0.07-0.15,0-0.33,0.15-0.4
		c0.15-0.07,0.33,0,0.4,0.15c0.04,0.08,0.04,0.17,0,0.25C-27.45,23.78-27.32,23.84-27.26,23.97z"/>
	<path fill="none" stroke="#1D1D1B" stroke-linecap="round" stroke-miterlimit="10" d="M-27.59,22.22c0.01-0.01,0.03-0.02,0.05-0.03
		c-0.02-0.01-0.04-0.04-0.06-0.06c-0.09-0.14-0.06-0.32,0.08-0.42c0.14-0.09,0.32-0.06,0.42,0.08s0.06,0.32-0.08,0.42
		c-0.01,0.01-0.03,0.02-0.04,0.03c0.02,0.02,0.04,0.04,0.05,0.06c0.09,0.14,0.06,0.32-0.07,0.42c-0.14,0.09-0.32,0.06-0.42-0.08
		C-27.76,22.5-27.72,22.32-27.59,22.22z"/>
	<path fill="none" stroke="#1D1D1B" stroke-linecap="round" stroke-miterlimit="10" d="M-26.9,23.55c-0.15,0.07-0.33,0-0.4-0.15
		c-0.07-0.15,0-0.33,0.15-0.4c0.15-0.07,0.33,0,0.4,0.15C-26.69,23.3-26.75,23.48-26.9,23.55z"/>
	<path fill="none" stroke="#1D1D1B" stroke-linecap="round" stroke-miterlimit="10" d="M-26.29,23.56c0.09,0.14,0.06,0.32-0.08,0.42
		c-0.14,0.09-0.32,0.06-0.42-0.08c-0.09-0.13-0.06-0.32,0.08-0.41C-26.57,23.39-26.38,23.43-26.29,23.56z"/>
	<path fill="none" stroke="#1D1D1B" stroke-linecap="round" stroke-miterlimit="10" d="M-26.78,22.64
		c-0.09-0.13-0.06-0.32,0.08-0.41c0.13-0.1,0.32-0.06,0.42,0.07c0.09,0.14,0.06,0.32-0.08,0.42C-26.5,22.81-26.68,22.77-26.78,22.64
		z"/>
	<path fill="none" stroke="#1D1D1B" stroke-linecap="round" stroke-miterlimit="10" d="M-25.85,22.92c0.09,0.14,0.06,0.32-0.08,0.42
		c-0.14,0.09-0.32,0.06-0.42-0.08c-0.09-0.14-0.06-0.32,0.08-0.42C-26.13,22.75-25.95,22.78-25.85,22.92z"/>
	<path fill="#E5007E" stroke="#1D1D1B" stroke-width="0.75" stroke-linecap="round" stroke-miterlimit="10" d="M-22.02,15.84
		c-20.81-9.21-41.71,21.29-15.03,17.55l1.22,1.17C-33.1,56.08-9.5,32.79-22.02,15.84z M-25.23,22.94l-1.44,1.59
		c0-0.05,0-0.09-0.03-0.14c-0.07-0.15-0.25-0.22-0.4-0.15c-0.15,0.07-0.22,0.25-0.15,0.4c0.06,0.12,0.19,0.19,0.32,0.17l-3.44,3.8
		c0-0.01,0.01-0.03,0.01-0.05c0.02-0.16-0.1-0.31-0.27-0.33c-0.16-0.02-0.31,0.1-0.33,0.27c-0.02,0.16,0.1,0.31,0.27,0.33
		c0.05,0,0.09,0,0.13-0.01l-1.59,1.75c0.08-0.1,0.09-0.26,0-0.37c-0.1-0.13-0.29-0.16-0.42-0.06c-0.13,0.1-0.16,0.29-0.06,0.42
		c0.1,0.13,0.29,0.16,0.42,0.06c0.01-0.01,0.03-0.02,0.04-0.04l-1.19,1.31c0.08-0.1,0.08-0.25,0-0.36c-0.1-0.13-0.29-0.16-0.42-0.06
		c-0.13,0.1-0.16,0.29-0.06,0.42c0.1,0.13,0.29,0.16,0.42,0.06l-0.79,0.87c-0.25,0.28-0.6,0.42-0.95,0.42
		c-0.25,0-0.5-0.07-0.72-0.23c0.01,0,0.02,0,0.04,0c0.16,0,0.3-0.13,0.3-0.3c0-0.17-0.13-0.3-0.3-0.3c-0.16,0-0.3,0.13-0.3,0.3
		c0,0.02,0,0.04,0,0.06c-0.41-0.48-0.4-1.2,0.03-1.68l3.67-4.04c-0.05,0.09-0.04,0.21,0.02,0.3c0.09,0.14,0.28,0.17,0.41,0.08
		c0.14-0.09,0.17-0.28,0.08-0.42c-0.09-0.13-0.26-0.16-0.4-0.09l1.51-1.66c-0.01,0.07,0,0.15,0.05,0.21
		c0.09,0.14,0.28,0.17,0.42,0.08c0.14-0.09,0.17-0.28,0.07-0.42c-0.07-0.1-0.2-0.15-0.31-0.12l3.44-3.79
		c0.48-0.52,1.29-0.56,1.81-0.09C-24.79,21.6-24.76,22.41-25.23,22.94z"/>
	<path fill="#B17F49" stroke="#1D1D1B" stroke-linecap="round" stroke-miterlimit="10" d="M-35.83,34.57
		c-4.83,5.03-8.55,10.28-10.03,15.99l-1.22-0.74c1.92-4.86,5.63-10.5,10.02-16.43L-35.83,34.57z"/>
	<path fill="none" stroke="#B5B5B5" stroke-width="0.25" stroke-miterlimit="10" d="M-36.44,16.16c-7.33,4.97-8.37,9.98-1.63,15.03"
		/>
	<path fill="none" stroke="#B5B5B5" stroke-width="0.25" stroke-miterlimit="10" d="M-30.2,15.09c-7.37,3.24-10.85,10.39-7.59,15.67
		"/>
	<path fill="none" stroke="#B5B5B5" stroke-width="0.25" stroke-miterlimit="10" d="M-29.24,17.19c-5.2,3.74-7.83,8.2-6.59,12.82"/>
	<path fill="none" stroke="#B5B5B5" stroke-width="0.25" stroke-miterlimit="10" d="M-22.02,20.79c-0.88,4.72-2.82,9.01-9.43,11.4"
		/>
	<path fill="none" stroke="#B5B5B5" stroke-width="0.25" stroke-miterlimit="10" d="M-19.7,25.38c0.04,2.15-5.88,9.01-11.75,8.33"/>
	<path fill="none" stroke="#B5B5B5" stroke-width="0.25" stroke-miterlimit="10" d="M-19.34,30.23c-2.52,4.29-6.18,6.72-12.25,5.2"
		/>
	<path fill="none" stroke="#B5B5B5" stroke-width="0.25" stroke-miterlimit="10" d="M-33.37,37.63c1.39,2.5,4.65,2.99,9.79,1.46"/>
	<path fill="none" stroke="#B5B5B5" stroke-width="0.25" stroke-miterlimit="10" d="M-45.2,21.73c-3.24,5.19-1.71,8.8,5.69,10.45"/>
	<path fill="#7E4E24" stroke="#1D1D1B" stroke-width="0.25" stroke-miterlimit="10" d="M-25.32,21.13
		c-0.52-0.48-1.33-0.44-1.81,0.09l-3.44,3.79c0.12-0.03,0.24,0.02,0.31,0.12c0.09,0.14,0.06,0.32-0.07,0.42
		c-0.14,0.09-0.32,0.06-0.42-0.08c-0.05-0.07-0.06-0.14-0.05-0.21l-1.51,1.66c0.13-0.08,0.31-0.04,0.4,0.09
		c0.09,0.14,0.06,0.32-0.08,0.42c-0.13,0.09-0.32,0.06-0.41-0.08c-0.07-0.09-0.07-0.21-0.02-0.3l-3.67,4.04
		c-0.43,0.48-0.44,1.2-0.03,1.68c0-0.02,0-0.04,0-0.06c0-0.17,0.13-0.3,0.3-0.3c0.16,0,0.3,0.13,0.3,0.3c0,0.16-0.13,0.3-0.3,0.3
		c-0.01,0-0.02,0-0.04,0c0.22,0.15,0.47,0.23,0.72,0.23c0.35,0,0.7-0.14,0.95-0.42l0.79-0.87c-0.13,0.1-0.32,0.08-0.42-0.06
		c-0.1-0.13-0.08-0.32,0.06-0.42c0.13-0.1,0.32-0.08,0.42,0.06c0.08,0.11,0.08,0.25,0,0.36l1.19-1.31
		c-0.01,0.01-0.03,0.03-0.04,0.04c-0.13,0.1-0.32,0.08-0.42-0.06c-0.1-0.13-0.08-0.32,0.06-0.42c0.13-0.1,0.32-0.08,0.42,0.06
		c0.08,0.11,0.08,0.26,0,0.37l1.59-1.75c-0.04,0.01-0.08,0.02-0.13,0.01c-0.16-0.02-0.29-0.16-0.27-0.33
		c0.02-0.16,0.16-0.29,0.33-0.27c0.16,0.02,0.29,0.16,0.27,0.33c0,0.02,0,0.03-0.01,0.05l3.44-3.8c-0.13,0.02-0.26-0.05-0.32-0.17
		c-0.07-0.15,0-0.33,0.15-0.4c0.15-0.07,0.33,0,0.4,0.15c0.02,0.05,0.03,0.09,0.03,0.14l1.44-1.59
		C-24.76,22.41-24.79,21.6-25.32,21.13z M-26.7,22.22c0.13-0.1,0.32-0.06,0.42,0.07c0.09,0.14,0.06,0.32-0.08,0.42
		c-0.14,0.09-0.32,0.06-0.42-0.08C-26.87,22.5-26.84,22.32-26.7,22.22z M-27.6,22.14c-0.09-0.14-0.06-0.32,0.08-0.42
		c0.14-0.09,0.32-0.06,0.42,0.08s0.06,0.32-0.08,0.42c-0.01,0.01-0.03,0.02-0.04,0.03c0.02,0.02,0.04,0.04,0.05,0.06
		c0.09,0.14,0.06,0.32-0.07,0.42c-0.14,0.09-0.32,0.06-0.42-0.08c-0.09-0.13-0.06-0.32,0.07-0.41c0.01-0.01,0.03-0.02,0.05-0.03
		C-27.57,22.18-27.59,22.16-27.6,22.14z M-28.25,22.68c0.14-0.09,0.32-0.06,0.42,0.07c0.09,0.14,0.06,0.32-0.07,0.42
		c-0.14,0.09-0.32,0.06-0.42-0.07S-28.38,22.78-28.25,22.68z M-28.4,24.36c-0.15,0.07-0.33,0-0.4-0.15c-0.07-0.15,0-0.33,0.15-0.4
		c0.15-0.07,0.33,0,0.4,0.15C-28.19,24.12-28.25,24.29-28.4,24.36z M-28.85,23.19c0.14-0.09,0.32-0.06,0.42,0.07
		c0.09,0.14,0.06,0.32-0.08,0.42s-0.32,0.06-0.42-0.07C-29.02,23.47-28.99,23.29-28.85,23.19z M-29.49,23.85
		c0.14-0.09,0.32-0.06,0.42,0.08c0.09,0.13,0.06,0.32-0.08,0.41c-0.02,0.02-0.05,0.03-0.08,0.04c0.11,0.01,0.2,0.07,0.25,0.17
		c0.07,0.15,0,0.33-0.15,0.4c-0.15,0.07-0.33,0-0.4-0.15c-0.07-0.15,0-0.33,0.15-0.4c0.01,0,0.03-0.01,0.04-0.01
		c-0.09,0-0.18-0.04-0.23-0.12C-29.66,24.13-29.62,23.94-29.49,23.85z M-29.61,26.05c-0.15,0.07-0.33,0-0.4-0.15
		c-0.07-0.15,0-0.33,0.15-0.4c0.15-0.07,0.33,0,0.4,0.15C-29.39,25.81-29.46,25.99-29.61,26.05z M-30.13,24.67
		c0.14-0.09,0.32-0.06,0.42,0.08c0.09,0.14,0.06,0.32-0.07,0.42s-0.32,0.06-0.42-0.08C-30.29,24.96-30.26,24.77-30.13,24.67z
		 M-30.65,25.91c0.12-0.11,0.31-0.11,0.42,0.01c0.11,0.12,0.11,0.31-0.01,0.42c-0.12,0.11-0.31,0.11-0.42-0.01
		C-30.77,26.21-30.77,26.02-30.65,25.91z M-30.63,27.04c-0.02,0.16-0.16,0.29-0.33,0.27c-0.16-0.02-0.28-0.16-0.27-0.33
		c0.02-0.16,0.16-0.29,0.33-0.27S-30.61,26.88-30.63,27.04z M-31.27,25.88c0.14-0.09,0.32-0.06,0.42,0.07
		c0.09,0.14,0.06,0.32-0.07,0.42c-0.14,0.09-0.32,0.06-0.42-0.07C-31.44,26.16-31.41,25.97-31.27,25.88z M-31.95,26.89
		c-0.09-0.14-0.06-0.32,0.08-0.42s0.32-0.06,0.42,0.08c0.09,0.14,0.06,0.32-0.08,0.42S-31.85,27.02-31.95,26.89z M-31.76,27.23
		c0.14-0.09,0.32-0.06,0.42,0.07c0.09,0.14,0.06,0.32-0.07,0.42c-0.14,0.09-0.32,0.06-0.42-0.07
		C-31.93,27.51-31.9,27.33-31.76,27.23z M-31.25,28.34c-0.02,0.16-0.16,0.29-0.33,0.27c-0.16-0.02-0.28-0.16-0.27-0.33
		c0.02-0.16,0.16-0.29,0.33-0.27C-31.36,28.03-31.24,28.17-31.25,28.34z M-32.56,27.68c0.14-0.09,0.32-0.06,0.42,0.07
		c0.09,0.14,0.06,0.32-0.07,0.42c-0.14,0.09-0.32,0.06-0.42-0.07C-32.73,27.96-32.69,27.77-32.56,27.68z M-32.61,28.96
		c0,0.16-0.14,0.3-0.3,0.3c-0.16,0-0.3-0.14-0.3-0.3c0-0.16,0.13-0.3,0.3-0.3C-32.75,28.66-32.61,28.8-32.61,28.96z M-33.07,27.92
		c0.17,0,0.3,0.13,0.3,0.3c0,0.17-0.13,0.3-0.3,0.3c-0.16,0-0.3-0.13-0.3-0.3C-33.37,28.06-33.24,27.92-33.07,27.92z M-33.71,28.79
		c0.16,0,0.3,0.13,0.3,0.3c0,0.17-0.13,0.3-0.3,0.3c-0.16,0-0.3-0.13-0.3-0.3C-34.01,28.93-33.87,28.79-33.71,28.79z M-34.17,29.21
		c0.16,0,0.3,0.13,0.3,0.3c0,0.17-0.13,0.3-0.3,0.3s-0.3-0.13-0.3-0.3C-34.47,29.35-34.34,29.21-34.17,29.21z M-34.17,29.93
		c0.16,0,0.3,0.13,0.3,0.3c0,0.16-0.13,0.3-0.3,0.3s-0.3-0.13-0.3-0.3C-34.47,30.06-34.34,29.93-34.17,29.93z M-34.86,30.24
		c0.16,0,0.3,0.13,0.3,0.3c0,0.16-0.14,0.3-0.3,0.3c-0.16,0-0.3-0.13-0.3-0.3C-35.16,30.37-35.03,30.24-34.86,30.24z M-35.83,30.97
		c0.03,0,0.06,0,0.08,0.01c-0.01-0.03-0.02-0.07-0.02-0.1c0-0.16,0.13-0.3,0.3-0.3c0.16,0,0.3,0.13,0.3,0.3c0,0.17-0.14,0.3-0.3,0.3
		c-0.03,0-0.06,0-0.08-0.01c0.01,0.03,0.02,0.06,0.02,0.09c0,0.16-0.13,0.3-0.3,0.3c-0.16,0-0.3-0.13-0.3-0.3
		C-36.13,31.11-35.99,30.97-35.83,30.97z M-36.06,32.25c-0.16,0-0.3-0.13-0.3-0.3c0-0.17,0.13-0.3,0.3-0.3s0.3,0.13,0.3,0.3
		C-35.76,32.11-35.9,32.25-36.06,32.25z M-35.68,31.71c0-0.16,0.14-0.3,0.3-0.3c0.16,0,0.3,0.13,0.3,0.3c0,0.17-0.13,0.3-0.3,0.3
		C-35.54,32.02-35.68,31.88-35.68,31.71z M-35.16,32.72c-0.17,0-0.3-0.13-0.3-0.3c0-0.17,0.13-0.3,0.3-0.3c0.16,0,0.3,0.13,0.3,0.3
		C-34.86,32.59-35,32.72-35.16,32.72z M-34.91,31.37c0-0.16,0.13-0.3,0.3-0.3c0.16,0,0.3,0.13,0.3,0.3c0,0.16-0.13,0.3-0.3,0.3
		C-34.78,31.66-34.91,31.53-34.91,31.37z M-34.4,32.43c-0.16,0-0.3-0.14-0.3-0.3c0-0.16,0.14-0.3,0.3-0.3c0.16,0,0.3,0.13,0.3,0.3
		C-34.1,32.29-34.23,32.43-34.4,32.43z M-33.76,31.21c-0.13,0.1-0.32,0.08-0.42-0.06c-0.1-0.13-0.08-0.32,0.06-0.42
		c0.13-0.1,0.32-0.08,0.42,0.06C-33.6,30.92-33.63,31.11-33.76,31.21z M-33.54,30.31c-0.15-0.08-0.21-0.25-0.14-0.4
		c0.07-0.15,0.25-0.21,0.4-0.14c0.15,0.07,0.21,0.25,0.14,0.4C-33.21,30.32-33.39,30.39-33.54,30.31z M-32.92,30.98
		c-0.13,0.1-0.32,0.08-0.42-0.06c-0.1-0.13-0.08-0.32,0.06-0.42c0.13-0.1,0.32-0.07,0.42,0.06C-32.76,30.7-32.78,30.88-32.92,30.98z
		 M-32.51,29.94c-0.07,0.15-0.25,0.21-0.4,0.14c-0.15-0.08-0.21-0.25-0.14-0.4c0.07-0.15,0.25-0.21,0.4-0.14
		C-32.5,29.61-32.44,29.79-32.51,29.94z M-32.39,29.04c-0.15-0.07-0.21-0.25-0.14-0.4c0.07-0.15,0.25-0.21,0.4-0.14
		c0.15,0.07,0.21,0.25,0.14,0.4C-32.06,29.05-32.24,29.11-32.39,29.04z M-31.59,29.65c-0.07,0.15-0.25,0.21-0.4,0.14
		c-0.15-0.07-0.21-0.25-0.14-0.4c0.07-0.15,0.25-0.21,0.4-0.14C-31.58,29.32-31.52,29.5-31.59,29.65z M-30.98,29.09
		c-0.07,0.15-0.25,0.21-0.4,0.14s-0.21-0.25-0.14-0.4c0.07-0.15,0.25-0.21,0.4-0.14C-30.97,28.77-30.91,28.95-30.98,29.09z
		 M-30.75,28.22c-0.16-0.02-0.28-0.16-0.27-0.33c0.02-0.16,0.16-0.29,0.33-0.27c0.16,0.02,0.28,0.16,0.27,0.33
		C-30.44,28.12-30.58,28.24-30.75,28.22z M-30.42,27.02c-0.11-0.12-0.11-0.31,0.01-0.42c0.12-0.11,0.31-0.11,0.42,0.01
		c0.11,0.12,0.11,0.31-0.01,0.42C-30.12,27.15-30.31,27.14-30.42,27.02z M-29.83,27.76c-0.12,0.11-0.31,0.11-0.42-0.01
		c-0.11-0.12-0.11-0.31,0.01-0.42c0.12-0.11,0.31-0.1,0.42,0.01C-29.7,27.45-29.71,27.64-29.83,27.76z M-29.36,26.76
		c-0.15,0.07-0.33,0-0.4-0.15c-0.07-0.15,0-0.33,0.15-0.4c0.15-0.07,0.33,0,0.4,0.15C-29.15,26.51-29.21,26.69-29.36,26.76z
		 M-28.84,25.81c-0.15,0.07-0.33,0-0.4-0.15c-0.07-0.15,0-0.33,0.15-0.4c0.15-0.07,0.33,0,0.4,0.15
		C-28.62,25.56-28.69,25.74-28.84,25.81z M-28.2,25.01c-0.15,0.07-0.33,0-0.4-0.15c-0.07-0.15,0-0.33,0.15-0.4
		c0.15-0.07,0.33,0,0.4,0.15C-27.98,24.77-28.05,24.94-28.2,25.01z M-27.26,24.88c0.07,0.15,0,0.33-0.15,0.4
		c-0.15,0.07-0.33,0-0.4-0.15c-0.07-0.15,0-0.33,0.15-0.4C-27.51,24.66-27.33,24.73-27.26,24.88z M-27.41,24.36
		c-0.15,0.07-0.33,0-0.4-0.15c-0.04-0.08-0.03-0.17,0-0.25c-0.13,0.02-0.26-0.04-0.32-0.17c-0.07-0.15,0-0.33,0.15-0.4
		c0.15-0.07,0.33,0,0.4,0.15c0.04,0.08,0.04,0.17,0,0.25c0.13-0.02,0.26,0.05,0.32,0.17C-27.19,24.12-27.26,24.29-27.41,24.36z
		 M-27.3,23.4c-0.07-0.15,0-0.33,0.15-0.4c0.15-0.07,0.33,0,0.4,0.15c0.07,0.15,0,0.33-0.15,0.4C-27.05,23.62-27.23,23.55-27.3,23.4
		z M-26.36,23.98c-0.14,0.09-0.32,0.06-0.42-0.08c-0.09-0.13-0.06-0.32,0.08-0.41c0.13-0.1,0.32-0.06,0.42,0.07
		C-26.19,23.7-26.23,23.89-26.36,23.98z M-25.93,23.34c-0.14,0.09-0.32,0.06-0.42-0.08c-0.09-0.14-0.06-0.32,0.08-0.42
		c0.14-0.09,0.32-0.06,0.42,0.08C-25.76,23.06-25.79,23.24-25.93,23.34z"/>
	<path fill="none" stroke="#1D1D1B" stroke-width="0.25" stroke-miterlimit="10" d="M-36.06,32.25c-0.16,0-0.3-0.13-0.3-0.3
		c0-0.17,0.13-0.3,0.3-0.3s0.3,0.13,0.3,0.3C-35.76,32.11-35.9,32.25-36.06,32.25z"/>
	<path fill="none" stroke="#1D1D1B" stroke-width="0.25" stroke-miterlimit="10" d="M-35.53,32.71c0,0.16-0.13,0.3-0.3,0.3
		c-0.01,0-0.02,0-0.04,0c-0.05-0.03-0.09-0.07-0.14-0.11c-0.04-0.04-0.08-0.08-0.12-0.13c0-0.02,0-0.04,0-0.06
		c0-0.17,0.13-0.3,0.3-0.3C-35.66,32.41-35.53,32.54-35.53,32.71z"/>
	<path fill="none" stroke="#1D1D1B" stroke-width="0.25" stroke-miterlimit="10" d="M-36.13,31.27c0-0.16,0.13-0.3,0.3-0.3
		c0.03,0,0.06,0,0.08,0.01c-0.01-0.03-0.02-0.07-0.02-0.1c0-0.16,0.13-0.3,0.3-0.3c0.16,0,0.3,0.13,0.3,0.3c0,0.17-0.14,0.3-0.3,0.3
		c-0.03,0-0.06,0-0.08-0.01c0.01,0.03,0.02,0.06,0.02,0.09c0,0.16-0.13,0.3-0.3,0.3C-35.99,31.57-36.13,31.44-36.13,31.27z"/>
	<path fill="none" stroke="#1D1D1B" stroke-width="0.25" stroke-miterlimit="10" d="M-35.08,31.71c0,0.17-0.13,0.3-0.3,0.3
		c-0.16,0-0.3-0.13-0.3-0.3c0-0.16,0.14-0.3,0.3-0.3C-35.21,31.42-35.08,31.55-35.08,31.71z"/>
	<path fill="none" stroke="#1D1D1B" stroke-width="0.25" stroke-miterlimit="10" d="M-34.86,32.43c0,0.16-0.13,0.3-0.3,0.3
		c-0.17,0-0.3-0.13-0.3-0.3c0-0.17,0.13-0.3,0.3-0.3C-35,32.12-34.86,32.26-34.86,32.43z"/>
	<path fill="none" stroke="#1D1D1B" stroke-width="0.25" stroke-miterlimit="10" d="M-35.16,30.54c0-0.17,0.13-0.3,0.3-0.3
		c0.16,0,0.3,0.13,0.3,0.3c0,0.16-0.14,0.3-0.3,0.3C-35.03,30.84-35.16,30.71-35.16,30.54z"/>
	<path fill="none" stroke="#1D1D1B" stroke-width="0.25" stroke-miterlimit="10" d="M-34.61,31.66c-0.17,0-0.3-0.13-0.3-0.3
		c0-0.16,0.13-0.3,0.3-0.3c0.16,0,0.3,0.13,0.3,0.3C-34.31,31.53-34.44,31.66-34.61,31.66z"/>
	<path fill="none" stroke="#1D1D1B" stroke-width="0.25" stroke-miterlimit="10" d="M-34.1,32.12c0,0.16-0.13,0.3-0.3,0.3
		c-0.16,0-0.3-0.14-0.3-0.3c0-0.16,0.14-0.3,0.3-0.3C-34.23,31.83-34.1,31.96-34.1,32.12z"/>
	<path fill="none" stroke="#1D1D1B" stroke-width="0.25" stroke-miterlimit="10" d="M-34.47,30.23c0-0.17,0.14-0.3,0.3-0.3
		s0.3,0.13,0.3,0.3c0,0.16-0.13,0.3-0.3,0.3S-34.47,30.39-34.47,30.23z"/>
	<path fill="none" stroke="#1D1D1B" stroke-width="0.25" stroke-miterlimit="10" d="M-34.47,29.51c0-0.16,0.14-0.3,0.3-0.3
		s0.3,0.13,0.3,0.3c0,0.17-0.13,0.3-0.3,0.3S-34.47,29.68-34.47,29.51z"/>
	<path fill="none" stroke="#1D1D1B" stroke-width="0.25" stroke-miterlimit="10" d="M-33.76,31.21c-0.13,0.1-0.32,0.08-0.42-0.06
		c-0.1-0.13-0.08-0.32,0.06-0.42c0.13-0.1,0.32-0.08,0.42,0.06C-33.6,30.92-33.63,31.11-33.76,31.21z"/>
	<path fill="none" stroke="#1D1D1B" stroke-width="0.25" stroke-miterlimit="10" d="M-34.01,29.09c0-0.16,0.14-0.3,0.3-0.3
		c0.16,0,0.3,0.13,0.3,0.3c0,0.17-0.13,0.3-0.3,0.3C-33.87,29.39-34.01,29.26-34.01,29.09z"/>
	<path fill="none" stroke="#1D1D1B" stroke-width="0.25" stroke-miterlimit="10" d="M-33.35,31.52c0.08,0.11,0.08,0.25,0,0.36
		l-0.03,0.04c-0.01,0.01-0.01,0.02-0.02,0.02c-0.13,0.1-0.32,0.08-0.42-0.06c-0.1-0.13-0.08-0.32,0.06-0.42
		C-33.64,31.37-33.45,31.39-33.35,31.52z"/>
	<path fill="none" stroke="#1D1D1B" stroke-width="0.25" stroke-miterlimit="10" d="M-33.28,29.77c0.15,0.07,0.21,0.25,0.14,0.4
		c-0.07,0.15-0.25,0.21-0.4,0.14c-0.15-0.08-0.21-0.25-0.14-0.4C-33.6,29.76-33.42,29.7-33.28,29.77z"/>
	<path fill="none" stroke="#1D1D1B" stroke-width="0.25" stroke-miterlimit="10" d="M-33.37,28.22c0-0.16,0.13-0.3,0.3-0.3
		c0.17,0,0.3,0.13,0.3,0.3c0,0.17-0.13,0.3-0.3,0.3C-33.24,28.52-33.37,28.39-33.37,28.22z"/>
	<path fill="none" stroke="#1D1D1B" stroke-width="0.25" stroke-miterlimit="10" d="M-32.91,28.66c0.16,0,0.3,0.13,0.3,0.3
		c0,0.16-0.14,0.3-0.3,0.3c-0.16,0-0.3-0.14-0.3-0.3C-33.21,28.8-33.08,28.66-32.91,28.66z"/>
	<path fill="none" stroke="#1D1D1B" stroke-width="0.25" stroke-miterlimit="10" d="M-32.86,30.56c0.1,0.13,0.08,0.32-0.06,0.42
		c-0.13,0.1-0.32,0.08-0.42-0.06c-0.1-0.13-0.08-0.32,0.06-0.42C-33.15,30.41-32.96,30.43-32.86,30.56z"/>
	<path fill="none" stroke="#1D1D1B" stroke-width="0.25" stroke-miterlimit="10" d="M-32.51,29.94c-0.07,0.15-0.25,0.21-0.4,0.14
		c-0.15-0.08-0.21-0.25-0.14-0.4c0.07-0.15,0.25-0.21,0.4-0.14C-32.5,29.61-32.44,29.79-32.51,29.94z"/>
	<path fill="none" stroke="#1D1D1B" stroke-width="0.25" stroke-miterlimit="10" d="M-32.15,30.19c0.08,0.11,0.08,0.26,0,0.37
		c0,0-0.01,0.01-0.01,0.01c-0.01,0.01-0.03,0.03-0.04,0.04c-0.13,0.1-0.32,0.08-0.42-0.06c-0.1-0.13-0.08-0.32,0.06-0.42
		C-32.43,30.04-32.25,30.06-32.15,30.19z"/>
	<path fill="none" stroke="#1D1D1B" stroke-width="0.25" stroke-miterlimit="10" d="M-32.63,28.1c-0.09-0.14-0.06-0.32,0.07-0.42
		c0.14-0.09,0.32-0.06,0.42,0.07c0.09,0.14,0.06,0.32-0.07,0.42C-32.35,28.26-32.54,28.23-32.63,28.1z"/>
	<path fill="none" stroke="#1D1D1B" stroke-width="0.25" stroke-miterlimit="10" d="M-32.52,28.64c0.07-0.15,0.25-0.21,0.4-0.14
		c0.15,0.07,0.21,0.25,0.14,0.4c-0.07,0.15-0.25,0.21-0.4,0.14C-32.53,28.97-32.6,28.79-32.52,28.64z"/>
	<path fill="none" stroke="#1D1D1B" stroke-width="0.25" stroke-miterlimit="10" d="M-32.4,27.35c-0.07-0.09-0.07-0.21-0.02-0.3
		l0.12-0.13c0.13-0.08,0.31-0.04,0.4,0.09c0.09,0.14,0.06,0.32-0.08,0.42C-32.11,27.52-32.3,27.48-32.4,27.35z"/>
	<path fill="none" stroke="#1D1D1B" stroke-width="0.25" stroke-miterlimit="10" d="M-31.59,29.65c-0.07,0.15-0.25,0.21-0.4,0.14
		c-0.15-0.07-0.21-0.25-0.14-0.4c0.07-0.15,0.25-0.21,0.4-0.14C-31.58,29.32-31.52,29.5-31.59,29.65z"/>
	<path fill="none" stroke="#1D1D1B" stroke-width="0.25" stroke-miterlimit="10" d="M-31.95,26.89c-0.09-0.14-0.06-0.32,0.08-0.42
		s0.32-0.06,0.42,0.08c0.09,0.14,0.06,0.32-0.08,0.42S-31.85,27.02-31.95,26.89z"/>
	<path fill="none" stroke="#1D1D1B" stroke-width="0.25" stroke-miterlimit="10" d="M-31.84,27.65c-0.09-0.14-0.06-0.32,0.07-0.42
		c0.14-0.09,0.32-0.06,0.42,0.07c0.09,0.14,0.06,0.32-0.07,0.42C-31.55,27.82-31.74,27.78-31.84,27.65z"/>
	<path fill="none" stroke="#1D1D1B" stroke-width="0.25" stroke-miterlimit="10" d="M-31.85,28.28c0.02-0.16,0.16-0.29,0.33-0.27
		c0.16,0.02,0.29,0.16,0.27,0.33c-0.02,0.16-0.16,0.29-0.33,0.27C-31.75,28.59-31.86,28.44-31.85,28.28z"/>
	<path fill="none" stroke="#1D1D1B" stroke-width="0.25" stroke-miterlimit="10" d="M-30.98,29.09c-0.07,0.15-0.25,0.21-0.4,0.14
		s-0.21-0.25-0.14-0.4c0.07-0.15,0.25-0.21,0.4-0.14C-30.97,28.77-30.91,28.95-30.98,29.09z"/>
	<path fill="none" stroke="#1D1D1B" stroke-width="0.25" stroke-miterlimit="10" d="M-31.35,26.3c-0.09-0.14-0.06-0.32,0.07-0.42
		c0.14-0.09,0.32-0.06,0.42,0.07c0.09,0.14,0.06,0.32-0.07,0.42C-31.06,26.46-31.25,26.43-31.35,26.3z"/>
	<path fill="none" stroke="#1D1D1B" stroke-width="0.25" stroke-miterlimit="10" d="M-30.9,26.72c0.16,0.02,0.28,0.16,0.27,0.33
		c-0.02,0.16-0.16,0.29-0.33,0.27c-0.16-0.02-0.28-0.16-0.27-0.33C-31.21,26.82-31.06,26.7-30.9,26.72z"/>
	<path fill="none" stroke="#1D1D1B" stroke-width="0.25" stroke-miterlimit="10" d="M-31.02,27.89c0.02-0.16,0.16-0.29,0.33-0.27
		c0.16,0.02,0.28,0.16,0.27,0.33c-0.02,0.16-0.16,0.29-0.33,0.27C-30.91,28.2-31.03,28.06-31.02,27.89z"/>
	<path fill="none" stroke="#1D1D1B" stroke-width="0.25" stroke-miterlimit="10" d="M-30.36,28.55c0,0.02,0,0.03-0.01,0.05
		l-0.19,0.21c-0.04,0.01-0.08,0.02-0.13,0.01c-0.16-0.02-0.29-0.16-0.27-0.33c0.02-0.16,0.16-0.29,0.33-0.27
		C-30.47,28.24-30.34,28.39-30.36,28.55z"/>
	<path fill="none" stroke="#1D1D1B" stroke-width="0.25" stroke-miterlimit="10" d="M-30.75,25.47c-0.05-0.07-0.06-0.14-0.05-0.21
		l0.23-0.25c0.12-0.03,0.24,0.02,0.31,0.12c0.09,0.14,0.06,0.32-0.07,0.42C-30.47,25.64-30.65,25.61-30.75,25.47z"/>
	<path fill="none" stroke="#1D1D1B" stroke-width="0.25" stroke-miterlimit="10" d="M-30.66,26.33c-0.11-0.12-0.11-0.31,0.01-0.42
		c0.12-0.11,0.31-0.11,0.42,0.01c0.11,0.12,0.11,0.31-0.01,0.42C-30.36,26.46-30.55,26.45-30.66,26.33z"/>
	<path fill="none" stroke="#1D1D1B" stroke-width="0.25" stroke-miterlimit="10" d="M-30.42,27.02c-0.11-0.12-0.11-0.31,0.01-0.42
		c0.12-0.11,0.31-0.11,0.42,0.01c0.11,0.12,0.11,0.31-0.01,0.42C-30.12,27.15-30.31,27.14-30.42,27.02z"/>
	<path fill="none" stroke="#1D1D1B" stroke-width="0.25" stroke-miterlimit="10" d="M-29.81,27.33c0.11,0.12,0.1,0.31-0.02,0.42
		c-0.12,0.11-0.31,0.11-0.42-0.01c-0.11-0.12-0.11-0.31,0.01-0.42C-30.12,27.21-29.93,27.21-29.81,27.33z"/>
	<path fill="none" stroke="#1D1D1B" stroke-width="0.25" stroke-miterlimit="10" d="M-30.2,25.09c-0.09-0.13-0.06-0.32,0.07-0.42
		c0.14-0.09,0.32-0.06,0.42,0.08c0.09,0.14,0.06,0.32-0.07,0.42S-30.1,25.23-30.2,25.09z"/>
	<path fill="none" stroke="#1D1D1B" stroke-width="0.25" stroke-miterlimit="10" d="M-30,25.91c-0.07-0.15,0-0.33,0.15-0.4
		c0.15-0.07,0.33,0,0.4,0.15c0.07,0.15,0,0.33-0.15,0.4C-29.76,26.12-29.94,26.06-30,25.91z"/>
	<path fill="none" stroke="#1D1D1B" stroke-width="0.25" stroke-miterlimit="10" d="M-29.22,26.36c0.07,0.15,0,0.33-0.15,0.4
		c-0.15,0.07-0.33,0-0.4-0.15c-0.07-0.15,0-0.33,0.15-0.4C-29.46,26.15-29.29,26.21-29.22,26.36z"/>
	<path fill="none" stroke="#1D1D1B" stroke-width="0.25" stroke-miterlimit="10" d="M-29.56,24.26c-0.09-0.14-0.06-0.32,0.08-0.42
		c0.14-0.09,0.32-0.06,0.42,0.08c0.09,0.13,0.06,0.32-0.08,0.41c-0.02,0.02-0.05,0.03-0.08,0.04c0.11,0.01,0.2,0.07,0.25,0.17
		c0.07,0.15,0,0.33-0.15,0.4c-0.15,0.07-0.33,0-0.4-0.15c-0.07-0.15,0-0.33,0.15-0.4c0.01,0,0.03-0.01,0.04-0.01
		C-29.42,24.38-29.5,24.34-29.56,24.26z"/>
	<path fill="none" stroke="#1D1D1B" stroke-width="0.25" stroke-miterlimit="10" d="M-28.69,25.41c0.07,0.15,0,0.33-0.15,0.4
		c-0.15,0.07-0.33,0-0.4-0.15c-0.07-0.15,0-0.33,0.15-0.4C-28.94,25.19-28.76,25.26-28.69,25.41z"/>
	<path fill="none" stroke="#1D1D1B" stroke-width="0.25" stroke-miterlimit="10" d="M-28.93,23.61c-0.09-0.14-0.06-0.32,0.08-0.42
		c0.14-0.09,0.32-0.06,0.42,0.07c0.09,0.14,0.06,0.32-0.08,0.42S-28.83,23.75-28.93,23.61z"/>
	<path fill="none" stroke="#1D1D1B" stroke-width="0.25" stroke-miterlimit="10" d="M-28.25,23.97c0.07,0.15,0,0.33-0.15,0.4
		c-0.15,0.07-0.33,0-0.4-0.15c-0.07-0.15,0-0.33,0.15-0.4C-28.5,23.75-28.32,23.82-28.25,23.97z"/>
	<path fill="none" stroke="#1D1D1B" stroke-width="0.25" stroke-miterlimit="10" d="M-28.05,24.62c0.07,0.15,0,0.33-0.15,0.4
		c-0.15,0.07-0.33,0-0.4-0.15c-0.07-0.15,0-0.33,0.15-0.4C-28.3,24.4-28.12,24.47-28.05,24.62z"/>
	<path fill="none" stroke="#1D1D1B" stroke-width="0.25" stroke-miterlimit="10" d="M-28.32,23.1c-0.09-0.14-0.06-0.32,0.07-0.42
		c0.14-0.09,0.32-0.06,0.42,0.07c0.09,0.14,0.06,0.32-0.07,0.42C-28.04,23.27-28.23,23.23-28.32,23.1z"/>
	<path fill="none" stroke="#1D1D1B" stroke-width="0.25" stroke-miterlimit="10" d="M-27.26,24.88c0.07,0.15,0,0.33-0.15,0.4
		c-0.15,0.07-0.33,0-0.4-0.15c-0.07-0.15,0-0.33,0.15-0.4C-27.51,24.66-27.33,24.73-27.26,24.88z"/>
	<path fill="none" stroke="#1D1D1B" stroke-width="0.25" stroke-miterlimit="10" d="M-27.8,23.97c-0.13,0.02-0.26-0.04-0.32-0.17
		c-0.07-0.15,0-0.33,0.15-0.4c0.15-0.07,0.33,0,0.4,0.15c0.04,0.08,0.04,0.17,0,0.25c0.13-0.02,0.26,0.05,0.32,0.17
		c0.07,0.15,0,0.33-0.15,0.4c-0.15,0.07-0.33,0-0.4-0.15C-27.84,24.13-27.84,24.05-27.8,23.97z"/>
	<path fill="none" stroke="#1D1D1B" stroke-width="0.25" stroke-miterlimit="10" d="M-27.59,22.22c0.01-0.01,0.03-0.02,0.05-0.03
		c-0.02-0.01-0.04-0.04-0.06-0.06c-0.09-0.14-0.06-0.32,0.08-0.42c0.14-0.09,0.32-0.06,0.42,0.08s0.06,0.32-0.08,0.42
		c-0.01,0.01-0.03,0.02-0.04,0.03c0.02,0.02,0.04,0.04,0.05,0.06c0.09,0.14,0.06,0.32-0.07,0.42c-0.14,0.09-0.32,0.06-0.42-0.08
		C-27.76,22.5-27.72,22.32-27.59,22.22z"/>
	<path fill="none" stroke="#1D1D1B" stroke-width="0.25" stroke-miterlimit="10" d="M-27.15,23.01c0.15-0.07,0.33,0,0.4,0.15
		c0.07,0.15,0,0.33-0.15,0.4c-0.15,0.07-0.33,0-0.4-0.15C-27.37,23.25-27.3,23.08-27.15,23.01z"/>
	<path fill="none" stroke="#1D1D1B" stroke-width="0.25" stroke-miterlimit="10" d="M-26.7,24.38c0.02,0.05,0.03,0.09,0.03,0.14
		l-0.25,0.28c-0.13,0.02-0.26-0.05-0.32-0.17c-0.07-0.15,0-0.33,0.15-0.4C-26.95,24.17-26.77,24.23-26.7,24.38z"/>
	<path fill="none" stroke="#1D1D1B" stroke-width="0.25" stroke-miterlimit="10" d="M-26.29,23.56c0.09,0.14,0.06,0.32-0.08,0.42
		c-0.14,0.09-0.32,0.06-0.42-0.08c-0.09-0.13-0.06-0.32,0.08-0.41C-26.57,23.39-26.38,23.43-26.29,23.56z"/>
	<path fill="none" stroke="#1D1D1B" stroke-width="0.25" stroke-miterlimit="10" d="M-26.78,22.64c-0.09-0.13-0.06-0.32,0.08-0.41
		c0.13-0.1,0.32-0.06,0.42,0.07c0.09,0.14,0.06,0.32-0.08,0.42C-26.5,22.81-26.68,22.77-26.78,22.64z"/>
	<path fill="none" stroke="#1D1D1B" stroke-width="0.25" stroke-miterlimit="10" d="M-25.93,23.34c-0.14,0.09-0.32,0.06-0.42-0.08
		c-0.09-0.14-0.06-0.32,0.08-0.42c0.14-0.09,0.32-0.06,0.42,0.08C-25.76,23.06-25.79,23.24-25.93,23.34z"/>
	<path fill="#D3D005" d="M-34.86,32.43c0,0.16-0.13,0.3-0.3,0.3c-0.17,0-0.3-0.13-0.3-0.3c0-0.17,0.13-0.3,0.3-0.3
		C-35,32.12-34.86,32.26-34.86,32.43z"/>
	<path fill="#D3D005" d="M-34.1,32.12c0,0.16-0.13,0.3-0.3,0.3c-0.16,0-0.3-0.14-0.3-0.3c0-0.16,0.14-0.3,0.3-0.3
		C-34.23,31.83-34.1,31.96-34.1,32.12z"/>
	<path fill="#D3D005" d="M-35.08,31.71c0,0.17-0.13,0.3-0.3,0.3c-0.16,0-0.3-0.13-0.3-0.3c0-0.16,0.14-0.3,0.3-0.3
		C-35.21,31.42-35.08,31.55-35.08,31.71z"/>
	<path fill="#D3D005" d="M-34.31,31.37c0,0.16-0.13,0.3-0.3,0.3c-0.17,0-0.3-0.13-0.3-0.3c0-0.16,0.13-0.3,0.3-0.3
		C-34.44,31.07-34.31,31.2-34.31,31.37z"/>
	<path fill="#D3D005" d="M-34.56,30.54c0,0.16-0.14,0.3-0.3,0.3c-0.16,0-0.3-0.13-0.3-0.3c0-0.17,0.13-0.3,0.3-0.3
		C-34.7,30.24-34.56,30.37-34.56,30.54z"/>
	<path fill="#D3D005" d="M-33.88,30.23c0,0.16-0.13,0.3-0.3,0.3s-0.3-0.13-0.3-0.3c0-0.17,0.14-0.3,0.3-0.3
		S-33.88,30.06-33.88,30.23z"/>
	<path fill="#D3D005" d="M-33.88,29.51c0,0.17-0.13,0.3-0.3,0.3s-0.3-0.13-0.3-0.3c0-0.16,0.14-0.3,0.3-0.3
		S-33.88,29.35-33.88,29.51z"/>
	<path fill="#D3D005" d="M-32.61,28.96c0,0.16-0.14,0.3-0.3,0.3c-0.16,0-0.3-0.14-0.3-0.3c0-0.16,0.13-0.3,0.3-0.3
		C-32.75,28.66-32.61,28.8-32.61,28.96z"/>
	<path fill="#D3D005" d="M-33.41,29.09c0,0.17-0.13,0.3-0.3,0.3c-0.16,0-0.3-0.13-0.3-0.3c0-0.16,0.14-0.3,0.3-0.3
		C-33.54,28.79-33.41,28.93-33.41,29.09z"/>
	<path fill="#D3D005" d="M-32.77,28.22c0,0.17-0.13,0.3-0.3,0.3c-0.16,0-0.3-0.13-0.3-0.3c0-0.16,0.13-0.3,0.3-0.3
		C-32.91,27.92-32.77,28.06-32.77,28.22z"/>
	<path fill="#D3D005" d="M-32.21,28.17c-0.14,0.09-0.32,0.06-0.42-0.07c-0.09-0.14-0.06-0.32,0.07-0.42
		c0.14-0.09,0.32-0.06,0.42,0.07C-32.05,27.89-32.08,28.07-32.21,28.17z"/>
	<path fill="#D3D005" d="M-31.42,27.72c-0.14,0.09-0.32,0.06-0.42-0.07c-0.09-0.14-0.06-0.32,0.07-0.42
		c0.14-0.09,0.32-0.06,0.42,0.07C-31.25,27.44-31.28,27.63-31.42,27.72z"/>
	<path fill="#D3D005" d="M-31.98,27.42c-0.13,0.09-0.32,0.06-0.41-0.08c-0.07-0.09-0.07-0.21-0.02-0.3c0.02-0.05,0.05-0.09,0.1-0.12
		c0.01,0,0.01-0.01,0.02-0.01c0.13-0.08,0.31-0.04,0.4,0.09C-31.81,27.14-31.85,27.33-31.98,27.42z"/>
	<path fill="#D3D005" d="M-31.53,26.96c-0.14,0.09-0.32,0.06-0.42-0.08c-0.09-0.14-0.06-0.32,0.08-0.42s0.32-0.06,0.42,0.08
		C-31.36,26.68-31.4,26.87-31.53,26.96z"/>
	<path fill="#D3D005" d="M-30.93,26.37c-0.14,0.09-0.32,0.06-0.42-0.07c-0.09-0.14-0.06-0.32,0.07-0.42
		c0.14-0.09,0.32-0.06,0.42,0.07C-30.76,26.09-30.8,26.27-30.93,26.37z"/>
	<path fill="#D3D005" d="M-30.33,25.55c-0.14,0.09-0.32,0.06-0.42-0.08c-0.05-0.07-0.06-0.14-0.05-0.21
		c0.01-0.08,0.05-0.16,0.12-0.2c0.03-0.02,0.07-0.04,0.1-0.05c0.12-0.03,0.24,0.02,0.31,0.12C-30.16,25.27-30.19,25.45-30.33,25.55z
		"/>
	<path fill="#D3D005" d="M-29.78,25.17c-0.14,0.09-0.32,0.06-0.42-0.08c-0.09-0.13-0.06-0.32,0.07-0.42
		c0.14-0.09,0.32-0.06,0.42,0.08C-29.61,24.88-29.65,25.07-29.78,25.17z"/>
	<path fill="#D3D005" d="M-27.9,23.17c-0.14,0.09-0.32,0.06-0.42-0.07s-0.06-0.32,0.07-0.42c0.14-0.09,0.32-0.06,0.42,0.07
		C-27.74,22.89-27.77,23.08-27.9,23.17z"/>
	<path fill="#D3D005" d="M-27.25,22.71c-0.14,0.09-0.32,0.06-0.42-0.08c-0.09-0.13-0.06-0.32,0.07-0.41
		c0.01-0.01,0.03-0.02,0.05-0.03c0.1-0.05,0.23-0.03,0.32,0.04c0.02,0.02,0.04,0.04,0.05,0.06C-27.08,22.43-27.11,22.62-27.25,22.71
		z"/>
	<path fill="#D3D005" d="M-28.51,23.68c-0.14,0.09-0.32,0.06-0.42-0.07c-0.09-0.14-0.06-0.32,0.08-0.42
		c0.14-0.09,0.32-0.06,0.42,0.07C-28.34,23.4-28.37,23.59-28.51,23.68z"/>
	<path fill="#D3D005" d="M-29.14,24.34c-0.02,0.02-0.05,0.03-0.08,0.04c-0.03,0.01-0.07,0.02-0.11,0.01c-0.09,0-0.18-0.04-0.23-0.12
		c-0.09-0.14-0.06-0.32,0.08-0.42c0.14-0.09,0.32-0.06,0.42,0.08C-28.97,24.05-29.01,24.24-29.14,24.34z"/>
	<path fill="#D3D005" d="M-26.36,22.71c-0.14,0.09-0.32,0.06-0.42-0.08c-0.09-0.13-0.06-0.32,0.08-0.41
		c0.13-0.1,0.32-0.06,0.42,0.07C-26.19,22.43-26.23,22.62-26.36,22.71z"/>
	<path fill="#D3D005" d="M-27.19,22.21c-0.01,0.01-0.03,0.02-0.04,0.03c-0.11,0.05-0.23,0.03-0.32-0.04
		c-0.02-0.01-0.04-0.04-0.06-0.06c-0.09-0.14-0.06-0.32,0.08-0.42c0.14-0.09,0.32-0.06,0.42,0.08S-27.05,22.12-27.19,22.21z"/>
	<path fill="#D3D005" d="M-25.93,23.34c-0.14,0.09-0.32,0.06-0.42-0.08c-0.09-0.14-0.06-0.32,0.08-0.42
		c0.14-0.09,0.32-0.06,0.42,0.08C-25.76,23.06-25.79,23.24-25.93,23.34z"/>
	<path fill="#D3D005" d="M-26.36,23.98c-0.14,0.09-0.32,0.06-0.42-0.08c-0.09-0.13-0.06-0.32,0.08-0.41
		c0.13-0.1,0.32-0.06,0.42,0.07C-26.19,23.7-26.23,23.89-26.36,23.98z"/>
	<path fill="#D3D005" d="M-26.67,24.52c-0.01,0.11-0.07,0.21-0.17,0.26c-0.02,0.01-0.05,0.02-0.08,0.02
		c-0.13,0.02-0.26-0.05-0.32-0.17c-0.07-0.15,0-0.33,0.15-0.4c0.15-0.07,0.33,0,0.4,0.15C-26.68,24.43-26.67,24.48-26.67,24.52z"/>
	<path fill="#D3D005" d="M-27.41,24.36c-0.15,0.07-0.33,0-0.4-0.15c-0.04-0.08-0.03-0.17,0-0.25c0.03-0.06,0.08-0.12,0.15-0.15
		c0.03-0.01,0.05-0.02,0.08-0.02c0.13-0.02,0.26,0.05,0.32,0.17C-27.19,24.12-27.26,24.29-27.41,24.36z"/>
	<path fill="#D3D005" d="M-26.9,23.55c-0.15,0.07-0.33,0-0.4-0.15c-0.07-0.15,0-0.33,0.15-0.4c0.15-0.07,0.33,0,0.4,0.15
		C-26.69,23.3-26.75,23.48-26.9,23.55z"/>
	<path fill="#D3D005" d="M-27.58,23.8c-0.03,0.06-0.08,0.12-0.15,0.15c-0.02,0.01-0.05,0.02-0.08,0.02
		c-0.13,0.02-0.26-0.04-0.32-0.17c-0.07-0.15,0-0.33,0.15-0.4c0.15-0.07,0.33,0,0.4,0.15C-27.54,23.63-27.54,23.72-27.58,23.8z"/>
	<path fill="#D3D005" d="M-28.4,24.36c-0.15,0.07-0.33,0-0.4-0.15c-0.07-0.15,0-0.33,0.15-0.4c0.15-0.07,0.33,0,0.4,0.15
		C-28.19,24.12-28.25,24.29-28.4,24.36z"/>
	<path fill="#D3D005" d="M-28.2,25.01c-0.15,0.07-0.33,0-0.4-0.15c-0.07-0.15,0-0.33,0.15-0.4c0.15-0.07,0.33,0,0.4,0.15
		C-27.98,24.77-28.05,24.94-28.2,25.01z"/>
	<path fill="#D3D005" d="M-27.41,25.27c-0.15,0.07-0.33,0-0.4-0.15c-0.07-0.15,0-0.33,0.15-0.4c0.15-0.07,0.33,0,0.4,0.15
		C-27.19,25.03-27.26,25.2-27.41,25.27z"/>
	<path fill="#D3D005" d="M-28.84,25.81c-0.15,0.07-0.33,0-0.4-0.15c-0.07-0.15,0-0.33,0.15-0.4c0.15-0.07,0.33,0,0.4,0.15
		C-28.62,25.56-28.69,25.74-28.84,25.81z"/>
	<path fill="#D3D005" d="M-29.11,24.94c-0.15,0.07-0.33,0-0.4-0.15c-0.07-0.15,0-0.33,0.15-0.4c0.01,0,0.03-0.01,0.04-0.01
		c0.04-0.01,0.07-0.01,0.11-0.01c0.11,0.01,0.2,0.07,0.25,0.17C-28.9,24.7-28.96,24.88-29.11,24.94z"/>
	<path fill="#D3D005" d="M-29.61,26.05c-0.15,0.07-0.33,0-0.4-0.15c-0.07-0.15,0-0.33,0.15-0.4c0.15-0.07,0.33,0,0.4,0.15
		C-29.39,25.81-29.46,25.99-29.61,26.05z"/>
	<path fill="#D3D005" d="M-29.36,26.76c-0.15,0.07-0.33,0-0.4-0.15c-0.07-0.15,0-0.33,0.15-0.4c0.15-0.07,0.33,0,0.4,0.15
		C-29.15,26.51-29.21,26.69-29.36,26.76z"/>
	<path fill="#D3D005" d="M-29.83,27.76c-0.12,0.11-0.31,0.11-0.42-0.01c-0.11-0.12-0.11-0.31,0.01-0.42
		c0.12-0.11,0.31-0.1,0.42,0.01C-29.7,27.45-29.71,27.64-29.83,27.76z"/>
	<path fill="#D3D005" d="M-30,27.04c-0.12,0.11-0.31,0.1-0.42-0.01c-0.11-0.12-0.11-0.31,0.01-0.42c0.12-0.11,0.31-0.11,0.42,0.01
		C-29.87,26.73-29.88,26.92-30,27.04z"/>
	<path fill="#D3D005" d="M-30.63,27.04c-0.02,0.16-0.16,0.29-0.33,0.27c-0.16-0.02-0.28-0.16-0.27-0.33
		c0.02-0.16,0.16-0.29,0.33-0.27S-30.61,26.88-30.63,27.04z"/>
	<path fill="#D3D005" d="M-30.42,27.95c-0.02,0.16-0.16,0.29-0.33,0.27c-0.16-0.02-0.28-0.16-0.27-0.33
		c0.02-0.16,0.16-0.29,0.33-0.27C-30.52,27.64-30.4,27.79-30.42,27.95z"/>
	<path fill="#D3D005" d="M-31.25,28.34c-0.02,0.16-0.16,0.29-0.33,0.27c-0.16-0.02-0.28-0.16-0.27-0.33
		c0.02-0.16,0.16-0.29,0.33-0.27C-31.36,28.03-31.24,28.17-31.25,28.34z"/>
	<path fill="#D3D005" d="M-30.36,28.55c0,0.02,0,0.03-0.01,0.05c-0.03,0.1-0.1,0.17-0.19,0.21c-0.04,0.01-0.08,0.02-0.13,0.01
		c-0.16-0.02-0.29-0.16-0.27-0.33c0.02-0.16,0.16-0.29,0.33-0.27C-30.47,28.24-30.34,28.39-30.36,28.55z"/>
	<path fill="#D3D005" d="M-30.98,29.09c-0.07,0.15-0.25,0.21-0.4,0.14s-0.21-0.25-0.14-0.4c0.07-0.15,0.25-0.21,0.4-0.14
		C-30.97,28.77-30.91,28.95-30.98,29.09z"/>
	<path fill="#D3D005" d="M-31.99,28.9c-0.07,0.15-0.25,0.21-0.4,0.14c-0.15-0.07-0.21-0.25-0.14-0.4c0.07-0.15,0.25-0.21,0.4-0.14
		C-31.97,28.58-31.91,28.76-31.99,28.9z"/>
	<path fill="#D3D005" d="M-31.59,29.65c-0.07,0.15-0.25,0.21-0.4,0.14c-0.15-0.07-0.21-0.25-0.14-0.4c0.07-0.15,0.25-0.21,0.4-0.14
		C-31.58,29.32-31.52,29.5-31.59,29.65z"/>
	<path fill="#D3D005" d="M-32.51,29.94c-0.07,0.15-0.25,0.21-0.4,0.14c-0.15-0.08-0.21-0.25-0.14-0.4c0.07-0.15,0.25-0.21,0.4-0.14
		C-32.5,29.61-32.44,29.79-32.51,29.94z"/>
	<path fill="#D3D005" d="M-33.14,30.18c-0.07,0.15-0.25,0.21-0.4,0.14c-0.15-0.08-0.21-0.25-0.14-0.4c0.07-0.15,0.25-0.21,0.4-0.14
		C-33.13,29.85-33.07,30.03-33.14,30.18z"/>
	<path fill="#D3D005" d="M-32.92,30.98c-0.13,0.1-0.32,0.08-0.42-0.06c-0.1-0.13-0.08-0.32,0.06-0.42c0.13-0.1,0.32-0.07,0.42,0.06
		C-32.76,30.7-32.78,30.88-32.92,30.98z"/>
	<path fill="#D3D005" d="M-33.76,31.21c-0.13,0.1-0.32,0.08-0.42-0.06c-0.1-0.13-0.08-0.32,0.06-0.42c0.13-0.1,0.32-0.08,0.42,0.06
		C-33.6,30.92-33.63,31.11-33.76,31.21z"/>
	<path fill="#D3D005" d="M-33.35,31.88l-0.03,0.04c-0.01,0.01-0.01,0.02-0.02,0.02c-0.13,0.1-0.32,0.08-0.42-0.06
		c-0.1-0.13-0.08-0.32,0.06-0.42c0.13-0.1,0.32-0.08,0.42,0.06C-33.27,31.63-33.27,31.78-33.35,31.88z"/>
	<path fill="#D3D005" d="M-32.15,30.56c0,0-0.01,0.01-0.01,0.01c-0.01,0.01-0.03,0.03-0.04,0.04c-0.13,0.1-0.32,0.08-0.42-0.06
		c-0.1-0.13-0.08-0.32,0.06-0.42c0.13-0.1,0.32-0.08,0.42,0.06C-32.06,30.3-32.07,30.46-32.15,30.56z"/>
	<path fill="#D3D005" d="M-30.24,26.34c-0.12,0.11-0.31,0.11-0.42-0.01c-0.11-0.12-0.11-0.31,0.01-0.42
		c0.12-0.11,0.31-0.11,0.42,0.01C-30.11,26.04-30.12,26.23-30.24,26.34z"/>
	<path fill="#D3D005" d="M-35.53,32.71c0,0.16-0.13,0.3-0.3,0.3c-0.01,0-0.02,0-0.04,0c-0.13-0.01-0.23-0.11-0.26-0.24
		c0-0.02,0-0.04,0-0.06c0-0.17,0.13-0.3,0.3-0.3C-35.66,32.41-35.53,32.54-35.53,32.71z"/>
	<path fill="#D3D005" d="M-35.53,31.27c0,0.16-0.13,0.3-0.3,0.3c-0.16,0-0.3-0.13-0.3-0.3c0-0.16,0.13-0.3,0.3-0.3
		c0.03,0,0.06,0,0.08,0.01c0.09,0.02,0.17,0.1,0.2,0.19C-35.53,31.21-35.53,31.24-35.53,31.27z"/>
	<path fill="#D3D005" d="M-35.76,31.95c0,0.16-0.14,0.3-0.3,0.3s-0.3-0.13-0.3-0.3c0-0.17,0.13-0.3,0.3-0.3
		S-35.76,31.78-35.76,31.95z"/>
	<path fill="#D3D005" d="M-35.16,30.89c0,0.17-0.14,0.3-0.3,0.3c-0.03,0-0.06,0-0.08-0.01c-0.09-0.03-0.16-0.1-0.2-0.19
		c-0.01-0.03-0.02-0.07-0.02-0.1c0-0.16,0.13-0.3,0.3-0.3C-35.3,30.59-35.16,30.72-35.16,30.89z"/>
</g>
<g>
	<circle fill="#FFEC00" stroke="#1D1D1B" stroke-miterlimit="10" cx="33.35" cy="22.24" r="6.94"/>
	<g>
		
			<line fill="none" stroke="#1D1D1B" stroke-miterlimit="10" stroke-dasharray="6.0535" x1="33.35" y1="6.64" x2="33.35" y2="12.69"/>
	</g>
	<g>
		
			<line fill="none" stroke="#1D1D1B" stroke-miterlimit="10" stroke-dasharray="6.0535" x1="25.54" y1="8.73" x2="28.57" y2="13.97"/>
	</g>
	<g>
		
			<line fill="none" stroke="#1D1D1B" stroke-miterlimit="10" stroke-dasharray="6.0535" x1="19.83" y1="14.44" x2="25.07" y2="17.47"/>
	</g>
	<g>
		
			<line fill="none" stroke="#1D1D1B" stroke-miterlimit="10" stroke-dasharray="6.0535" x1="17.74" y1="22.24" x2="23.79" y2="22.24"/>
	</g>
	<g>
		
			<line fill="none" stroke="#1D1D1B" stroke-miterlimit="10" stroke-dasharray="6.0535" x1="19.83" y1="30.05" x2="25.07" y2="27.02"/>
	</g>
	<g>
		
			<line fill="none" stroke="#1D1D1B" stroke-miterlimit="10" stroke-dasharray="6.0535" x1="25.54" y1="35.76" x2="28.57" y2="30.52"/>
	</g>
	<g>
		
			<line fill="none" stroke="#1D1D1B" stroke-miterlimit="10" stroke-dasharray="6.0535" x1="33.35" y1="37.85" x2="33.35" y2="31.8"/>
	</g>
	<g>
		
			<line fill="none" stroke="#1D1D1B" stroke-miterlimit="10" stroke-dasharray="6.0535" x1="41.15" y1="35.76" x2="38.12" y2="30.52"/>
	</g>
	<g>
		
			<line fill="none" stroke="#1D1D1B" stroke-miterlimit="10" stroke-dasharray="6.0535" x1="46.86" y1="30.05" x2="41.62" y2="27.02"/>
	</g>
	<g>
		
			<line fill="none" stroke="#1D1D1B" stroke-miterlimit="10" stroke-dasharray="6.0535" x1="48.95" y1="22.24" x2="42.9" y2="22.24"/>
	</g>
	<g>
		
			<line fill="none" stroke="#1D1D1B" stroke-miterlimit="10" stroke-dasharray="6.0535" x1="46.86" y1="14.44" x2="41.62" y2="17.47"/>
	</g>
	<g>
		
			<line fill="none" stroke="#1D1D1B" stroke-miterlimit="10" stroke-dasharray="6.0535" x1="41.15" y1="8.73" x2="38.12" y2="13.97"/>
	</g>
</g>
<g>
	<path fill="#D9D9D9" stroke="#B1B1B1" stroke-miterlimit="10" d="M-86.77-6.43h-10.15c-1.97,0-3.57-1.6-3.57-3.57v0
		c0-1.97,1.6-3.57,3.57-3.57h10.15c1.97,0,3.57,1.6,3.57,3.57v0C-83.2-8.03-84.8-6.43-86.77-6.43z"/>
	<circle fill="#D9D9D9" stroke="#B1B1B1" stroke-miterlimit="10" cx="-97.69" cy="-14.52" r="3.85"/>
	<circle fill="#D9D9D9" stroke="#B1B1B1" stroke-miterlimit="10" cx="-93.25" cy="-16.7" r="4.44"/>
	<circle fill="#D9D9D9" stroke="#B1B1B1" stroke-miterlimit="10" cx="-86.49" cy="-13.88" r="4.15"/>
	<circle fill="#D9D9D9" stroke="#B1B1B1" stroke-miterlimit="10" cx="-93.32" cy="-10.6" r="4.25"/>
	<circle fill="#D9D9D9" stroke="#B1B1B1" stroke-miterlimit="10" cx="-83.79" cy="-11.13" r="4.25"/>
	<circle fill="#D9D9D9" stroke="#B1B1B1" stroke-miterlimit="10" cx="-99.74" cy="-10.4" r="3.48"/>
</g>
<g>
	<circle fill="#FFFFFF" stroke="#FFFFFF" stroke-width="2" stroke-miterlimit="10" cx="121.8" cy="21.16" r="0.44"/>
	<line fill="none" stroke="#FFFFFF" stroke-width="2" stroke-miterlimit="10" x1="136.01" y1="23.9" x2="141.1" y2="14.8"/>
	<circle fill="#FFFFFF" stroke="#FFFFFF" stroke-width="2" stroke-miterlimit="10" cx="134.72" cy="26.19" r="0.44"/>
	<g>
		<g>
			<path fill="#D9D9D9" stroke="#B1B1B1" stroke-miterlimit="10" d="M151.81,0.89h-25.15c-1.97,0-3.57-1.6-3.57-3.57v-6.21
				c0-1.97,1.6-3.57,3.57-3.57h25.16c1.97,0,3.57,1.6,3.57,3.57v6.21C155.39-0.71,153.79,0.89,151.81,0.89z"/>
			<circle fill="#D9D9D9" stroke="#B1B1B1" stroke-miterlimit="10" cx="128.32" cy="-14.22" r="7.19"/>
			<circle fill="#D9D9D9" stroke="#B1B1B1" stroke-miterlimit="10" cx="136.62" cy="-18.28" r="8.3"/>
			<circle fill="#D9D9D9" stroke="#B1B1B1" stroke-miterlimit="10" cx="149.25" cy="-13.02" r="7.75"/>
			<circle fill="#D9D9D9" stroke="#B1B1B1" stroke-miterlimit="10" cx="136.49" cy="-6.89" r="7.94"/>
			<circle fill="#D9D9D9" stroke="#B1B1B1" stroke-miterlimit="10" cx="154.28" cy="-7.89" r="7.94"/>
			<circle fill="#D9D9D9" stroke="#B1B1B1" stroke-miterlimit="10" cx="124.48" cy="-6.51" r="6.51"/>
		</g>
		<line fill="none" stroke="#FFFFFF" stroke-width="2" stroke-miterlimit="10" x1="123.08" y1="18.87" x2="128.18" y2="9.76"/>
		<line fill="none" stroke="#FFFFFF" stroke-width="2" stroke-miterlimit="10" x1="135.44" y1="10.21" x2="130.35" y2="19.32"/>
		<circle fill="#FFFFFF" stroke="#FFFFFF" stroke-width="2" stroke-miterlimit="10" cx="136.73" cy="7.92" r="0.44"/>
		<line fill="none" stroke="#FFFFFF" stroke-width="2" stroke-miterlimit="10" x1="149.53" y1="7.88" x2="144.43" y2="16.98"/>
		<circle fill="#FFFFFF" stroke="#FFFFFF" stroke-width="2" stroke-miterlimit="10" cx="150.81" cy="5.58" r="0.44"/>
	</g>
</g>
<g>
	<g>
		<g>
			<path fill="#BD1622" stroke="#1D1D1B" stroke-width="0.25" stroke-miterlimit="10" d="M30.23,29.59
				c-0.64,0.06-1.07-0.22-1.29-0.83c0.63-0.16,1.04-0.21,1.04-0.21S30.11,28.95,30.23,29.59z"/>
			<path fill="#648F1E" stroke="#1D1D1B" stroke-width="0.25" stroke-miterlimit="10" d="M29.44,35.92
				c-0.64,1.01-1.39,1.86-2.16,2.51l-5.1-3.25c0.26-0.97,0.72-2.01,1.36-3.02c1.35-2.12,3.95-3.04,5.41-3.4
				c0.22,0.61,0.65,0.89,1.29,0.83C30.52,31.06,30.78,33.81,29.44,35.92z"/>
			<line fill="none" stroke="#1D1D1B" stroke-width="0.25" stroke-miterlimit="10" x1="30.24" y1="29.58" x2="30.23" y2="29.59"/>
		</g>
		<g>
			<path fill="#BD1622" stroke="#1D1D1B" stroke-width="0.25" stroke-miterlimit="10" d="M14.1,28.93
				c-0.27,0.58-0.72,0.82-1.36,0.71c0.18-0.62,0.34-1.01,0.34-1.01S13.49,28.71,14.1,28.93z"/>
			<path fill="#648F1E" stroke="#1D1D1B" stroke-width="0.25" stroke-miterlimit="10" d="M19.19,32.78
				c0.55,1.06,0.92,2.13,1.09,3.12l-5.37,2.79c-0.71-0.71-1.38-1.63-1.93-2.68c-1.16-2.23-0.65-4.94-0.24-6.38
				c0.64,0.12,1.09-0.12,1.36-0.71C15.52,29.41,18.03,30.56,19.19,32.78z"/>
			<line fill="none" stroke="#1D1D1B" stroke-width="0.25" stroke-miterlimit="10" x1="14.11" y1="28.92" x2="14.1" y2="28.93"/>
		</g>
		<g>
			<path fill="#BD1622" stroke="#1D1D1B" stroke-width="0.25" stroke-miterlimit="10" d="M22.26,27.09
				c-0.53,0.37-1.04,0.35-1.53-0.07c0.47-0.45,0.8-0.7,0.8-0.7S21.83,26.6,22.26,27.09z"/>
			<path fill="#648F1E" stroke="#1D1D1B" stroke-width="0.25" stroke-miterlimit="10" d="M24.73,32.98
				c-0.05,1.19-0.27,2.3-0.62,3.25l-6.04-0.26c-0.26-0.97-0.38-2.1-0.33-3.29c0.11-2.51,1.9-4.61,2.98-5.65
				c0.5,0.42,1.01,0.44,1.53,0.07C23.24,28.23,24.84,30.47,24.73,32.98z"/>
			<line fill="none" stroke="#1D1D1B" stroke-width="0.25" stroke-miterlimit="10" x1="22.26" y1="27.09" x2="22.26" y2="27.09"/>
		</g>
		<g>
			<path fill="#BD1622" stroke="#1D1D1B" stroke-width="0.25" stroke-miterlimit="10" d="M5.47,42.57c0.37,0.53,0.35,1.04-0.07,1.53
				c-0.45-0.47-0.7-0.8-0.7-0.8S4.97,42.99,5.47,42.57z"/>
			<path fill="#648F1E" stroke="#1D1D1B" stroke-width="0.25" stroke-miterlimit="10" d="M11.35,40.09c1.19,0.05,2.3,0.27,3.25,0.62
				l-0.26,6.04c-0.97,0.26-2.1,0.38-3.29,0.33c-2.51-0.11-4.61-1.9-5.65-2.98c0.42-0.5,0.44-1.01,0.07-1.53
				C6.6,41.59,8.85,39.98,11.35,40.09z"/>
			<line fill="none" stroke="#1D1D1B" stroke-width="0.25" stroke-miterlimit="10" x1="5.46" y1="42.56" x2="5.47" y2="42.57"/>
		</g>
		<g>
			<path fill="#BD1622" stroke="#1D1D1B" stroke-width="0.25" stroke-miterlimit="10" d="M7.96,34.59c0.06,0.64-0.22,1.07-0.83,1.29
				c-0.16-0.63-0.21-1.04-0.21-1.04S7.32,34.71,7.96,34.59z"/>
			<path fill="#648F1E" stroke="#1D1D1B" stroke-width="0.25" stroke-miterlimit="10" d="M14.29,35.39
				c1.01,0.64,1.86,1.39,2.51,2.16l-3.25,5.1c-0.97-0.26-2.01-0.72-3.02-1.36c-2.12-1.35-3.04-3.95-3.4-5.41
				c0.61-0.22,0.89-0.65,0.83-1.29C9.43,34.31,12.18,34.04,14.29,35.39z"/>
			<line fill="none" stroke="#1D1D1B" stroke-width="0.25" stroke-miterlimit="10" x1="7.96" y1="34.58" x2="7.96" y2="34.59"/>
		</g>
		<g>
			<path fill="#BD1622" stroke="#1D1D1B" stroke-width="0.25" stroke-miterlimit="10" d="M12.96,56.87
				c0.64-0.06,1.07,0.22,1.29,0.83c-0.63,0.16-1.04,0.21-1.04,0.21S13.08,57.51,12.96,56.87z"/>
			<path fill="#648F1E" stroke="#1D1D1B" stroke-width="0.25" stroke-miterlimit="10" d="M13.76,50.53
				c0.64-1.01,1.39-1.86,2.16-2.51l5.1,3.25c-0.26,0.97-0.72,2.01-1.36,3.02c-1.35,2.12-3.95,3.04-5.41,3.4
				c-0.22-0.61-0.65-0.89-1.29-0.83C12.68,55.4,12.41,52.65,13.76,50.53z"/>
			<line fill="none" stroke="#1D1D1B" stroke-width="0.25" stroke-miterlimit="10" x1="12.96" y1="56.87" x2="12.96" y2="56.87"/>
		</g>
		<g>
			<path fill="#BD1622" stroke="#1D1D1B" stroke-width="0.25" stroke-miterlimit="10" d="M7.3,50.72c0.58,0.27,0.82,0.72,0.71,1.36
				C7.38,51.91,7,51.75,7,51.75S7.08,51.34,7.3,50.72z"/>
			<path fill="#648F1E" stroke="#1D1D1B" stroke-width="0.25" stroke-miterlimit="10" d="M11.16,45.63
				c1.06-0.55,2.13-0.92,3.12-1.09l2.79,5.37c-0.71,0.71-1.63,1.38-2.68,1.93C12.16,53,9.44,52.5,8,52.09
				c0.12-0.64-0.12-1.09-0.71-1.36C7.79,49.31,8.93,46.79,11.16,45.63z"/>
			<line fill="none" stroke="#1D1D1B" stroke-width="0.25" stroke-miterlimit="10" x1="7.29" y1="50.72" x2="7.3" y2="50.72"/>
		</g>
		<g>
			<path fill="#BD1622" stroke="#1D1D1B" stroke-width="0.25" stroke-miterlimit="10" d="M29.09,57.53
				c0.27-0.58,0.72-0.82,1.36-0.71c-0.18,0.62-0.34,1.01-0.34,1.01S29.71,57.74,29.09,57.53z"/>
			<path fill="#648F1E" stroke="#1D1D1B" stroke-width="0.25" stroke-miterlimit="10" d="M24,53.67c-0.55-1.06-0.92-2.13-1.09-3.12
				l5.37-2.79c0.71,0.71,1.38,1.63,1.93,2.68c1.16,2.23,0.65,4.94,0.24,6.38c-0.64-0.12-1.09,0.12-1.36,0.71
				C27.68,57.04,25.16,55.89,24,53.67z"/>
			<line fill="none" stroke="#1D1D1B" stroke-width="0.25" stroke-miterlimit="10" x1="29.09" y1="57.53" x2="29.09" y2="57.53"/>
		</g>
		<g>
			<path fill="#BD1622" stroke="#1D1D1B" stroke-width="0.25" stroke-miterlimit="10" d="M20.94,59.36
				c0.53-0.37,1.04-0.35,1.53,0.07c-0.47,0.45-0.8,0.7-0.8,0.7S21.36,59.85,20.94,59.36z"/>
			<path fill="#648F1E" stroke="#1D1D1B" stroke-width="0.25" stroke-miterlimit="10" d="M18.46,53.47c0.05-1.19,0.27-2.3,0.62-3.25
				l6.04,0.26c0.26,0.97,0.38,2.1,0.33,3.29c-0.11,2.51-1.9,4.61-2.98,5.65c-0.5-0.42-1.01-0.44-1.53-0.07
				C19.96,58.23,18.35,55.98,18.46,53.47z"/>
			<line fill="none" stroke="#1D1D1B" stroke-width="0.25" stroke-miterlimit="10" x1="20.93" y1="59.36" x2="20.94" y2="59.36"/>
		</g>
		<g>
			<path fill="#BD1622" stroke="#1D1D1B" stroke-width="0.25" stroke-miterlimit="10" d="M37.73,43.88
				c-0.37-0.53-0.35-1.04,0.07-1.53c0.45,0.47,0.7,0.8,0.7,0.8S38.22,43.46,37.73,43.88z"/>
			<path fill="#648F1E" stroke="#1D1D1B" stroke-width="0.25" stroke-miterlimit="10" d="M31.84,46.36
				c-1.19-0.05-2.3-0.27-3.25-0.62l0.26-6.04c0.97-0.26,2.1-0.38,3.29-0.33c2.51,0.11,4.61,1.9,5.65,2.98
				c-0.42,0.5-0.44,1.01-0.07,1.53C36.6,44.87,34.35,46.47,31.84,46.36z"/>
			<line fill="none" stroke="#1D1D1B" stroke-width="0.25" stroke-miterlimit="10" x1="37.73" y1="43.89" x2="37.73" y2="43.88"/>
		</g>
		<g>
			<path fill="#BD1622" stroke="#1D1D1B" stroke-width="0.25" stroke-miterlimit="10" d="M35.24,51.86
				c-0.06-0.64,0.22-1.07,0.83-1.29c0.16,0.63,0.21,1.04,0.21,1.04S35.88,51.74,35.24,51.86z"/>
			<path fill="#648F1E" stroke="#1D1D1B" stroke-width="0.25" stroke-miterlimit="10" d="M28.9,51.07
				c-1.01-0.64-1.86-1.39-2.51-2.16l3.25-5.1c0.97,0.26,2.01,0.72,3.02,1.36c2.12,1.35,3.04,3.95,3.4,5.41
				c-0.61,0.22-0.89,0.65-0.83,1.29C33.77,52.15,31.02,52.41,28.9,51.07z"/>
			<line fill="none" stroke="#1D1D1B" stroke-width="0.25" stroke-miterlimit="10" x1="35.24" y1="51.87" x2="35.24" y2="51.86"/>
		</g>
		<g>
			<path fill="#BD1622" stroke="#1D1D1B" stroke-width="0.25" stroke-miterlimit="10" d="M35.9,35.73
				c-0.58-0.27-0.82-0.72-0.71-1.36c0.62,0.18,1.01,0.34,1.01,0.34S36.11,35.12,35.9,35.73z"/>
			<path fill="#648F1E" stroke="#1D1D1B" stroke-width="0.25" stroke-miterlimit="10" d="M32.04,40.82
				c-1.06,0.55-2.13,0.92-3.12,1.09l-2.79-5.37c0.71-0.71,1.63-1.38,2.68-1.93c2.23-1.16,4.94-0.65,6.38-0.24
				c-0.12,0.64,0.12,1.09,0.71,1.36C35.41,37.15,34.26,39.66,32.04,40.82z"/>
			<line fill="none" stroke="#1D1D1B" stroke-width="0.25" stroke-miterlimit="10" x1="35.9" y1="35.73" x2="35.9" y2="35.73"/>
		</g>
	</g>
	<g>
		<g>
			<path fill="#BD1622" stroke="#1D1D1B" stroke-width="0.25" stroke-miterlimit="10" d="M24.48,31.92
				c-0.43,0.18-0.79,0.09-1.07-0.28c0.4-0.25,0.67-0.38,0.67-0.38S24.26,31.51,24.48,31.92z"/>
			<path fill="#648F1E" stroke="#1D1D1B" stroke-width="0.25" stroke-miterlimit="10" d="M25.35,36.45
				c-0.22,0.83-0.54,1.59-0.92,2.2l-4.23-1.09c-0.04-0.73,0.04-1.54,0.26-2.38c0.45-1.76,2.04-2.97,2.95-3.55
				c0.29,0.37,0.65,0.46,1.07,0.28C25.01,32.87,25.8,34.7,25.35,36.45z"/>
			<line fill="none" stroke="#1D1D1B" stroke-width="0.25" stroke-miterlimit="10" x1="24.49" y1="31.92" x2="24.48" y2="31.92"/>
		</g>
		<g>
			<path fill="#BD1622" stroke="#1D1D1B" stroke-width="0.25" stroke-miterlimit="10" d="M13.25,35.08
				c-0.06,0.46-0.31,0.73-0.78,0.79c-0.02-0.47,0.01-0.77,0.01-0.77S12.78,35.07,13.25,35.08z"/>
			<path fill="#648F1E" stroke="#1D1D1B" stroke-width="0.25" stroke-miterlimit="10" d="M17.61,36.59c0.62,0.6,1.1,1.26,1.45,1.9
				l-3.06,3.12c-0.65-0.33-1.31-0.81-1.93-1.41c-1.29-1.27-1.55-3.25-1.59-4.33c0.46-0.06,0.72-0.33,0.78-0.79
				C14.33,35.1,16.32,35.32,17.61,36.59z"/>
			<line fill="none" stroke="#1D1D1B" stroke-width="0.25" stroke-miterlimit="10" x1="13.25" y1="35.07" x2="13.25" y2="35.08"/>
		</g>
		<g>
			<path fill="#BD1622" stroke="#1D1D1B" stroke-width="0.25" stroke-miterlimit="10" d="M18.44,32c-0.28,0.37-0.64,0.47-1.07,0.29
				c0.22-0.41,0.39-0.66,0.39-0.66S18.04,31.75,18.44,32z"/>
			<path fill="#648F1E" stroke="#1D1D1B" stroke-width="0.25" stroke-miterlimit="10" d="M21.46,35.49c0.23,0.83,0.33,1.64,0.3,2.37
				l-4.21,1.17c-0.4-0.61-0.73-1.36-0.96-2.19c-0.49-1.75,0.28-3.59,0.79-4.55c0.43,0.18,0.79,0.08,1.07-0.29
				C19.37,32.55,20.98,33.74,21.46,35.49z"/>
			<line fill="none" stroke="#1D1D1B" stroke-width="0.25" stroke-miterlimit="10" x1="18.45" y1="31.99" x2="18.44" y2="32"/>
		</g>
		<g>
			<path fill="#BD1622" stroke="#1D1D1B" stroke-width="0.25" stroke-miterlimit="10" d="M10.37,46.38
				c0.37,0.28,0.47,0.64,0.29,1.07C10.25,47.23,10,47.06,10,47.06S10.12,46.78,10.37,46.38z"/>
			<path fill="#648F1E" stroke="#1D1D1B" stroke-width="0.25" stroke-miterlimit="10" d="M13.86,43.36c0.83-0.23,1.64-0.33,2.37-0.3
				l1.17,4.21c-0.61,0.4-1.36,0.73-2.19,0.96c-1.75,0.49-3.59-0.28-4.55-0.79c0.18-0.43,0.08-0.79-0.29-1.07
				C10.92,45.45,12.11,43.85,13.86,43.36z"/>
			<line fill="none" stroke="#1D1D1B" stroke-width="0.25" stroke-miterlimit="10" x1="10.36" y1="46.38" x2="10.37" y2="46.38"/>
		</g>
		<g>
			<path fill="#BD1622" stroke="#1D1D1B" stroke-width="0.25" stroke-miterlimit="10" d="M10.29,40.34
				c0.18,0.43,0.09,0.79-0.28,1.07c-0.25-0.4-0.38-0.67-0.38-0.67S9.88,40.57,10.29,40.34z"/>
			<path fill="#648F1E" stroke="#1D1D1B" stroke-width="0.25" stroke-miterlimit="10" d="M14.83,39.47c0.83,0.22,1.59,0.54,2.2,0.92
				l-1.09,4.23c-0.73,0.04-1.54-0.04-2.38-0.26c-1.76-0.45-2.97-2.04-3.55-2.95c0.37-0.29,0.46-0.65,0.28-1.07
				C11.24,39.82,13.07,39.02,14.83,39.47z"/>
			<line fill="none" stroke="#1D1D1B" stroke-width="0.25" stroke-miterlimit="10" x1="10.29" y1="40.34" x2="10.29" y2="40.34"/>
		</g>
		<g>
			<path fill="#BD1622" stroke="#1D1D1B" stroke-width="0.25" stroke-miterlimit="10" d="M18.71,54.53
				c0.43-0.18,0.79-0.09,1.07,0.28c-0.4,0.25-0.67,0.38-0.67,0.38S18.94,54.94,18.71,54.53z"/>
			<path fill="#648F1E" stroke="#1D1D1B" stroke-width="0.25" stroke-miterlimit="10" d="M17.84,50c0.22-0.83,0.54-1.59,0.92-2.2
				L23,48.89c0.04,0.73-0.04,1.54-0.26,2.38c-0.45,1.76-2.04,2.97-2.95,3.55c-0.29-0.37-0.65-0.46-1.07-0.28
				C18.19,53.58,17.39,51.75,17.84,50z"/>
			<line fill="none" stroke="#1D1D1B" stroke-width="0.25" stroke-miterlimit="10" x1="18.71" y1="54.53" x2="18.71" y2="54.53"/>
		</g>
		<g>
			<path fill="#BD1622" stroke="#1D1D1B" stroke-width="0.25" stroke-miterlimit="10" d="M13.45,51.57
				c0.46,0.06,0.73,0.31,0.79,0.78c-0.47,0.02-0.77-0.01-0.77-0.01S13.44,52.04,13.45,51.57z"/>
			<path fill="#648F1E" stroke="#1D1D1B" stroke-width="0.25" stroke-miterlimit="10" d="M14.96,47.21c0.6-0.62,1.26-1.1,1.9-1.45
				l3.12,3.06c-0.33,0.65-0.81,1.31-1.41,1.93c-1.27,1.29-3.25,1.55-4.33,1.59c-0.06-0.46-0.33-0.72-0.79-0.78
				C13.47,50.49,13.69,48.51,14.96,47.21z"/>
			<line fill="none" stroke="#1D1D1B" stroke-width="0.25" stroke-miterlimit="10" x1="13.44" y1="51.57" x2="13.45" y2="51.57"/>
		</g>
		<g>
			<path fill="#BD1622" stroke="#1D1D1B" stroke-width="0.25" stroke-miterlimit="10" d="M29.94,51.38
				c0.06-0.46,0.31-0.73,0.78-0.79c0.02,0.47-0.01,0.77-0.01,0.77S30.41,51.39,29.94,51.38z"/>
			<path fill="#648F1E" stroke="#1D1D1B" stroke-width="0.25" stroke-miterlimit="10" d="M25.59,49.86c-0.62-0.6-1.1-1.26-1.45-1.9
				l3.06-3.12c0.65,0.33,1.31,0.81,1.93,1.41c1.29,1.27,1.55,3.25,1.59,4.33c-0.46,0.06-0.72,0.33-0.78,0.79
				C28.86,51.36,26.88,51.13,25.59,49.86z"/>
			<line fill="none" stroke="#1D1D1B" stroke-width="0.25" stroke-miterlimit="10" x1="29.94" y1="51.38" x2="29.94" y2="51.38"/>
		</g>
		<g>
			<path fill="#BD1622" stroke="#1D1D1B" stroke-width="0.25" stroke-miterlimit="10" d="M24.75,54.46
				c0.28-0.37,0.64-0.47,1.07-0.29c-0.22,0.41-0.39,0.66-0.39,0.66S25.15,54.7,24.75,54.46z"/>
			<path fill="#648F1E" stroke="#1D1D1B" stroke-width="0.25" stroke-miterlimit="10" d="M21.73,50.97
				c-0.23-0.83-0.33-1.64-0.3-2.37l4.21-1.17c0.4,0.61,0.73,1.36,0.96,2.19c0.49,1.75-0.28,3.59-0.79,4.55
				c-0.43-0.18-0.79-0.08-1.07,0.29C23.82,53.9,22.22,52.71,21.73,50.97z"/>
			<line fill="none" stroke="#1D1D1B" stroke-width="0.25" stroke-miterlimit="10" x1="24.75" y1="54.46" x2="24.75" y2="54.46"/>
		</g>
		<g>
			<path fill="#BD1622" stroke="#1D1D1B" stroke-width="0.25" stroke-miterlimit="10" d="M32.83,40.07
				c-0.37-0.28-0.47-0.64-0.29-1.07c0.41,0.22,0.66,0.39,0.66,0.39S33.07,39.67,32.83,40.07z"/>
			<path fill="#648F1E" stroke="#1D1D1B" stroke-width="0.25" stroke-miterlimit="10" d="M29.34,43.09
				c-0.83,0.23-1.64,0.33-2.37,0.3l-1.17-4.21c0.61-0.4,1.36-0.73,2.19-0.96c1.75-0.49,3.59,0.28,4.55,0.79
				c-0.18,0.43-0.08,0.79,0.29,1.07C32.27,41,31.08,42.61,29.34,43.09z"/>
			<line fill="none" stroke="#1D1D1B" stroke-width="0.25" stroke-miterlimit="10" x1="32.83" y1="40.08" x2="32.83" y2="40.07"/>
		</g>
		<g>
			<path fill="#BD1622" stroke="#1D1D1B" stroke-width="0.25" stroke-miterlimit="10" d="M32.9,46.11
				c-0.18-0.43-0.09-0.79,0.28-1.07c0.25,0.4,0.38,0.67,0.38,0.67S33.31,45.88,32.9,46.11z"/>
			<path fill="#648F1E" stroke="#1D1D1B" stroke-width="0.25" stroke-miterlimit="10" d="M28.37,46.98
				c-0.83-0.22-1.59-0.54-2.2-0.92l1.09-4.23c0.73-0.04,1.54,0.04,2.38,0.26c1.76,0.45,2.97,2.04,3.55,2.95
				c-0.37,0.29-0.46,0.65-0.28,1.07C31.95,46.63,30.12,47.43,28.37,46.98z"/>
			<line fill="none" stroke="#1D1D1B" stroke-width="0.25" stroke-miterlimit="10" x1="32.9" y1="46.11" x2="32.9" y2="46.11"/>
		</g>
		<g>
			<path fill="#BD1622" stroke="#1D1D1B" stroke-width="0.25" stroke-miterlimit="10" d="M29.75,34.88
				c-0.46-0.06-0.73-0.31-0.79-0.78c0.47-0.02,0.77,0.01,0.77,0.01S29.76,34.41,29.75,34.88z"/>
			<path fill="#648F1E" stroke="#1D1D1B" stroke-width="0.25" stroke-miterlimit="10" d="M28.23,39.24c-0.6,0.62-1.26,1.1-1.9,1.45
				l-3.12-3.06c0.33-0.65,0.81-1.31,1.41-1.93c1.27-1.29,3.25-1.55,4.33-1.59c0.06,0.46,0.33,0.72,0.79,0.78
				C29.73,35.96,29.5,37.95,28.23,39.24z"/>
			<line fill="none" stroke="#1D1D1B" stroke-width="0.25" stroke-miterlimit="10" x1="29.75" y1="34.88" x2="29.75" y2="34.88"/>
		</g>
	</g>
	<g>
		
			<path fill="#BD1622" stroke="#1D1D1B" stroke-width="0.25" stroke-linecap="round" stroke-linejoin="round" stroke-miterlimit="10" d="
			M21.48,43.25c-0.5,0.08-0.81,0.35-1.01,0.74v0c-0.3,0.42-0.81,0.75-1.25-0.28c-0.24-0.59,0.09-0.91,0.73-1.08
			C20.3,43.11,20.87,43.21,21.48,43.25z"/>
		
			<path fill="#63902F" stroke="#1D1D1B" stroke-width="0.25" stroke-linecap="round" stroke-linejoin="round" stroke-miterlimit="10" d="
			M20.81,46.3c-3.97-0.7-4.22-2.77-1.65-5.87c0.11,0.87,0.37,1.61,0.79,2.2c-0.64,0.17-0.97,0.49-0.73,1.08
			c0.44,1.02,0.95,0.69,1.25,0.28c-0.02,0.03-0.03,0.06-0.05,0.1C20.32,44.97,20.45,45.7,20.81,46.3z"/>
	</g>
	<g>
		
			<path fill="#BD1622" stroke="#1D1D1B" stroke-width="0.25" stroke-linecap="round" stroke-linejoin="round" stroke-miterlimit="10" d="
			M21.48,43.25c-0.39,0.31-0.53,0.71-0.5,1.15l0,0c-0.05,0.51-0.33,1.05-1.22,0.38c-0.5-0.39-0.38-0.83,0.09-1.3
			C20.38,43.72,20.93,43.52,21.48,43.25z"/>
		
			<path fill="#63902F" stroke="#1D1D1B" stroke-width="0.25" stroke-linecap="round" stroke-linejoin="round" stroke-miterlimit="10" d="
			M22.43,46.23c-3.79,1.37-5.04-0.29-4.36-4.25c0.53,0.7,1.13,1.2,1.79,1.51c-0.47,0.47-0.59,0.91-0.09,1.3
			c0.89,0.67,1.17,0.12,1.22-0.38c0,0.04,0,0.07,0.01,0.11C21.33,45.32,21.81,45.89,22.43,46.23z"/>
	</g>
	<g>
		
			<path fill="#BD1622" stroke="#1D1D1B" stroke-width="0.25" stroke-linecap="round" stroke-linejoin="round" stroke-miterlimit="10" d="
			M21.48,43.25c-0.18,0.47-0.1,0.88,0.14,1.25l0,0c0.21,0.47,0.24,1.08-0.87,0.94c-0.63-0.09-0.74-0.53-0.57-1.17
			C20.76,44.2,21.14,43.76,21.48,43.25z"/>
		
			<path fill="#63902F" stroke="#1D1D1B" stroke-width="0.25" stroke-linecap="round" stroke-linejoin="round" stroke-miterlimit="10" d="
			M23.79,45.35c-2.59,3.08-4.51,2.27-5.91-1.5c0.81,0.34,1.58,0.48,2.3,0.41c-0.17,0.64-0.06,1.09,0.57,1.17
			c1.1,0.13,1.08-0.48,0.87-0.94c0.02,0.03,0.04,0.06,0.06,0.09C22.38,45.11,23.09,45.37,23.79,45.35z"/>
	</g>
	<g>
		
			<path fill="#BD1622" stroke="#1D1D1B" stroke-width="0.25" stroke-linecap="round" stroke-linejoin="round" stroke-miterlimit="10" d="
			M21.48,43.25c0.08,0.5,0.35,0.81,0.74,1.01h0c0.42,0.3,0.75,0.81-0.28,1.25c-0.59,0.24-0.91-0.09-1.08-0.73
			C21.34,44.43,21.44,43.86,21.48,43.25z"/>
		
			<path fill="#63902F" stroke="#1D1D1B" stroke-width="0.25" stroke-linecap="round" stroke-linejoin="round" stroke-miterlimit="10" d="
			M24.53,43.92c-0.7,3.97-2.77,4.22-5.87,1.65c0.87-0.11,1.61-0.37,2.2-0.79c0.17,0.64,0.49,0.97,1.08,0.73
			c1.02-0.44,0.69-0.95,0.28-1.25c0.03,0.02,0.06,0.03,0.1,0.05C23.19,44.41,23.93,44.28,24.53,43.92z"/>
	</g>
	<g>
		
			<path fill="#BD1622" stroke="#1D1D1B" stroke-width="0.25" stroke-linecap="round" stroke-linejoin="round" stroke-miterlimit="10" d="
			M21.48,43.25c0.31,0.39,0.71,0.53,1.15,0.5l0,0c0.51,0.05,1.05,0.33,0.38,1.22c-0.39,0.5-0.83,0.38-1.3-0.09
			C21.95,44.35,21.75,43.8,21.48,43.25z"/>
		
			<path fill="#63902F" stroke="#1D1D1B" stroke-width="0.25" stroke-linecap="round" stroke-linejoin="round" stroke-miterlimit="10" d="
			M24.46,42.3c1.37,3.79-0.29,5.04-4.25,4.36c0.7-0.53,1.2-1.13,1.51-1.79c0.47,0.47,0.91,0.59,1.3,0.09
			c0.67-0.89,0.12-1.17-0.38-1.22c0.04,0,0.07,0,0.11-0.01C23.55,43.4,24.12,42.92,24.46,42.3z"/>
	</g>
	<g>
		
			<path fill="#BD1622" stroke="#1D1D1B" stroke-width="0.25" stroke-linecap="round" stroke-linejoin="round" stroke-miterlimit="10" d="
			M21.48,43.25c0.47,0.18,0.88,0.1,1.25-0.14l0,0c0.47-0.21,1.08-0.24,0.94,0.87c-0.09,0.63-0.53,0.74-1.17,0.57
			C22.43,43.97,21.98,43.59,21.48,43.25z"/>
		
			<path fill="#63902F" stroke="#1D1D1B" stroke-width="0.25" stroke-linecap="round" stroke-linejoin="round" stroke-miterlimit="10" d="
			M23.58,40.94c3.08,2.59,2.27,4.51-1.5,5.91c0.34-0.81,0.48-1.58,0.41-2.3c0.64,0.17,1.09,0.06,1.17-0.57
			c0.13-1.1-0.48-1.08-0.94-0.87c0.03-0.02,0.06-0.04,0.09-0.06C23.34,42.35,23.6,41.64,23.58,40.94z"/>
	</g>
	<g>
		
			<path fill="#BD1622" stroke="#1D1D1B" stroke-width="0.25" stroke-linecap="round" stroke-linejoin="round" stroke-miterlimit="10" d="
			M21.48,43.25c0.5-0.08,0.81-0.35,1.01-0.74v0c0.3-0.42,0.81-0.75,1.25,0.28c0.24,0.59-0.09,0.91-0.73,1.08
			C22.66,43.39,22.09,43.29,21.48,43.25z"/>
		
			<path fill="#63902F" stroke="#1D1D1B" stroke-width="0.25" stroke-linecap="round" stroke-linejoin="round" stroke-miterlimit="10" d="
			M22.15,40.2c3.97,0.7,4.22,2.77,1.65,5.87c-0.11-0.87-0.37-1.61-0.79-2.2c0.64-0.17,0.97-0.49,0.73-1.08
			c-0.44-1.02-0.95-0.69-1.25-0.28c0.02-0.03,0.03-0.06,0.05-0.1C22.64,41.53,22.51,40.8,22.15,40.2z"/>
	</g>
	<g>
		
			<path fill="#BD1622" stroke="#1D1D1B" stroke-width="0.25" stroke-linecap="round" stroke-linejoin="round" stroke-miterlimit="10" d="
			M21.48,43.25c0.39-0.31,0.53-0.71,0.5-1.15l0,0c0.05-0.51,0.33-1.05,1.22-0.38c0.5,0.39,0.38,0.83-0.09,1.3
			C22.58,42.78,22.03,42.98,21.48,43.25z"/>
		
			<path fill="#63902F" stroke="#1D1D1B" stroke-width="0.25" stroke-linecap="round" stroke-linejoin="round" stroke-miterlimit="10" d="
			M20.53,40.27c3.79-1.37,5.04,0.29,4.36,4.25c-0.53-0.7-1.13-1.2-1.79-1.51c0.47-0.47,0.59-0.91,0.09-1.3
			c-0.89-0.67-1.17-0.12-1.22,0.38c0-0.04,0-0.07-0.01-0.11C21.63,41.18,21.15,40.61,20.53,40.27z"/>
	</g>
	<g>
		
			<path fill="#BD1622" stroke="#1D1D1B" stroke-width="0.25" stroke-linecap="round" stroke-linejoin="round" stroke-miterlimit="10" d="
			M21.48,43.25c0.18-0.47,0.1-0.88-0.14-1.25l0,0c-0.21-0.47-0.24-1.08,0.87-0.94c0.63,0.09,0.74,0.53,0.57,1.17
			C22.2,42.3,21.82,42.74,21.48,43.25z"/>
		
			<path fill="#63902F" stroke="#1D1D1B" stroke-width="0.25" stroke-linecap="round" stroke-linejoin="round" stroke-miterlimit="10" d="
			M19.17,41.15c2.59-3.08,4.51-2.27,5.91,1.5c-0.81-0.34-1.58-0.48-2.3-0.41c0.17-0.64,0.06-1.09-0.57-1.17
			c-1.1-0.13-1.08,0.48-0.87,0.94c-0.02-0.03-0.04-0.06-0.06-0.09C20.57,41.39,19.87,41.13,19.17,41.15z"/>
	</g>
	<g>
		
			<path fill="#BD1622" stroke="#1D1D1B" stroke-width="0.25" stroke-linecap="round" stroke-linejoin="round" stroke-miterlimit="10" d="
			M21.48,43.25c-0.08-0.5-0.35-0.81-0.74-1.01h0c-0.42-0.3-0.75-0.81,0.28-1.25c0.59-0.24,0.91,0.09,1.08,0.73
			C21.62,42.07,21.52,42.64,21.48,43.25z"/>
		
			<path fill="#63902F" stroke="#1D1D1B" stroke-width="0.25" stroke-linecap="round" stroke-linejoin="round" stroke-miterlimit="10" d="
			M18.43,42.58c0.7-3.97,2.77-4.22,5.87-1.65c-0.87,0.11-1.61,0.37-2.2,0.79c-0.17-0.64-0.49-0.97-1.08-0.73
			c-1.02,0.44-0.69,0.95-0.28,1.25c-0.03-0.02-0.06-0.03-0.1-0.05C19.76,42.09,19.03,42.22,18.43,42.58z"/>
	</g>
	<g>
		
			<path fill="#BD1622" stroke="#1D1D1B" stroke-width="0.25" stroke-linecap="round" stroke-linejoin="round" stroke-miterlimit="10" d="
			M21.48,43.25c-0.31-0.39-0.71-0.53-1.15-0.5l0,0c-0.51-0.05-1.05-0.33-0.38-1.22c0.39-0.5,0.83-0.38,1.3,0.09
			C21.01,42.15,21.21,42.7,21.48,43.25z"/>
		
			<path fill="#63902F" stroke="#1D1D1B" stroke-width="0.25" stroke-linecap="round" stroke-linejoin="round" stroke-miterlimit="10" d="
			M18.5,44.2c-1.37-3.79,0.29-5.04,4.25-4.36c-0.7,0.53-1.2,1.13-1.51,1.79c-0.47-0.47-0.91-0.59-1.3-0.09
			c-0.67,0.89-0.12,1.17,0.38,1.22c-0.04,0-0.07,0-0.11,0.01C19.41,43.1,18.84,43.58,18.5,44.2z"/>
	</g>
	<g>
		
			<path fill="#BD1622" stroke="#1D1D1B" stroke-width="0.25" stroke-linecap="round" stroke-linejoin="round" stroke-miterlimit="10" d="
			M21.48,43.25c-0.47-0.18-0.88-0.1-1.25,0.14l0,0c-0.47,0.21-1.08,0.24-0.94-0.87c0.09-0.63,0.53-0.74,1.17-0.57
			C20.53,42.53,20.97,42.91,21.48,43.25z"/>
		
			<path fill="#63902F" stroke="#1D1D1B" stroke-width="0.25" stroke-linecap="round" stroke-linejoin="round" stroke-miterlimit="10" d="
			M19.38,45.56c-3.08-2.59-2.27-4.51,1.5-5.91c-0.34,0.81-0.48,1.58-0.41,2.3c-0.64-0.17-1.09-0.06-1.17,0.57
			c-0.13,1.1,0.48,1.08,0.94,0.87c-0.03,0.02-0.06,0.04-0.09,0.06C19.62,44.15,19.36,44.86,19.38,45.56z"/>
	</g>
	<g>
		
			<path fill="#BD1622" stroke="#1D1D1B" stroke-width="0.25" stroke-linecap="round" stroke-linejoin="round" stroke-miterlimit="10" d="
			M19.67,42.62c-0.47-0.18-0.88-0.1-1.25,0.14l0,0c-0.47,0.21-1.08,0.24-0.94-0.87c0.09-0.63,0.53-0.74,1.17-0.57
			C18.71,41.9,19.16,42.27,19.67,42.62z"/>
		
			<path fill="#63902F" stroke="#1D1D1B" stroke-width="0.25" stroke-linecap="round" stroke-linejoin="round" stroke-miterlimit="10" d="
			M17.56,44.93c-3.08-2.59-2.27-4.51,1.5-5.91c-0.34,0.81-0.48,1.58-0.41,2.3c-0.64-0.17-1.09-0.06-1.17,0.57
			c-0.13,1.1,0.48,1.08,0.94,0.87c-0.03,0.02-0.06,0.04-0.09,0.06C17.8,43.52,17.55,44.22,17.56,44.93z"/>
	</g>
	<g>
		
			<path fill="#BD1622" stroke="#1D1D1B" stroke-width="0.25" stroke-linecap="round" stroke-linejoin="round" stroke-miterlimit="10" d="
			M20.03,44.5c-0.39,0.31-0.53,0.71-0.5,1.15l0,0c-0.05,0.51-0.33,1.05-1.22,0.38c-0.5-0.39-0.38-0.83,0.09-1.3
			C18.93,44.97,19.48,44.77,20.03,44.5z"/>
		
			<path fill="#63902F" stroke="#1D1D1B" stroke-width="0.25" stroke-linecap="round" stroke-linejoin="round" stroke-miterlimit="10" d="
			M20.97,47.48c-3.79,1.37-5.04-0.29-4.36-4.25c0.53,0.7,1.13,1.2,1.79,1.51c-0.47,0.47-0.59,0.91-0.09,1.3
			c0.89,0.67,1.17,0.12,1.22-0.38c0,0.04,0,0.07,0.01,0.11C19.88,46.57,20.36,47.14,20.97,47.48z"/>
	</g>
	<g>
		
			<path fill="#BD1622" stroke="#1D1D1B" stroke-width="0.25" stroke-linecap="round" stroke-linejoin="round" stroke-miterlimit="10" d="
			M21.84,45.14c0.08,0.5,0.35,0.81,0.74,1.01h0c0.42,0.3,0.75,0.81-0.28,1.25c-0.59,0.24-0.91-0.09-1.08-0.73
			C21.69,46.32,21.79,45.74,21.84,45.14z"/>
		
			<path fill="#63902F" stroke="#1D1D1B" stroke-width="0.25" stroke-linecap="round" stroke-linejoin="round" stroke-miterlimit="10" d="
			M24.89,45.8c-0.7,3.97-2.77,4.22-5.87,1.65c0.87-0.11,1.61-0.37,2.2-0.79c0.17,0.64,0.49,0.97,1.08,0.73
			c1.02-0.44,0.69-0.95,0.28-1.25c0.03,0.02,0.06,0.03,0.1,0.05C23.55,46.3,24.29,46.17,24.89,45.8z"/>
	</g>
	<g>
		
			<path fill="#BD1622" stroke="#1D1D1B" stroke-width="0.25" stroke-linecap="round" stroke-linejoin="round" stroke-miterlimit="10" d="
			M23.29,43.88c0.47,0.18,0.88,0.1,1.25-0.14l0,0c0.47-0.21,1.08-0.24,0.94,0.87c-0.09,0.63-0.53,0.74-1.17,0.57
			C24.24,44.6,23.8,44.22,23.29,43.88z"/>
		
			<path fill="#63902F" stroke="#1D1D1B" stroke-width="0.25" stroke-linecap="round" stroke-linejoin="round" stroke-miterlimit="10" d="
			M25.39,41.57c3.08,2.59,2.27,4.51-1.5,5.91c0.34-0.81,0.48-1.58,0.41-2.3c0.64,0.17,1.09,0.06,1.17-0.57
			c0.13-1.1-0.48-1.08-0.94-0.87c0.03-0.02,0.06-0.04,0.09-0.06C25.16,42.98,25.41,42.28,25.39,41.57z"/>
	</g>
	<g>
		
			<path fill="#BD1622" stroke="#1D1D1B" stroke-width="0.25" stroke-linecap="round" stroke-linejoin="round" stroke-miterlimit="10" d="
			M22.93,42c0.39-0.31,0.53-0.71,0.5-1.15l0,0c0.05-0.51,0.33-1.05,1.22-0.38c0.5,0.39,0.38,0.83-0.09,1.3
			C24.03,41.53,23.48,41.73,22.93,42z"/>
		
			<path fill="#63902F" stroke="#1D1D1B" stroke-width="0.25" stroke-linecap="round" stroke-linejoin="round" stroke-miterlimit="10" d="
			M21.98,39.02c3.79-1.37,5.04,0.29,4.36,4.25c-0.53-0.7-1.13-1.2-1.79-1.51c0.47-0.47,0.59-0.91,0.09-1.3
			c-0.89-0.67-1.17-0.12-1.22,0.38c0-0.04,0-0.07-0.01-0.11C23.08,39.93,22.6,39.36,21.98,39.02z"/>
	</g>
	<g>
		
			<path fill="#BD1622" stroke="#1D1D1B" stroke-width="0.25" stroke-linecap="round" stroke-linejoin="round" stroke-miterlimit="10" d="
			M21.12,41.36c-0.08-0.5-0.35-0.81-0.74-1.01h0c-0.42-0.3-0.75-0.81,0.28-1.25c0.59-0.24,0.91,0.09,1.08,0.73
			C21.26,40.18,21.16,40.76,21.12,41.36z"/>
		
			<path fill="#63902F" stroke="#1D1D1B" stroke-width="0.25" stroke-linecap="round" stroke-linejoin="round" stroke-miterlimit="10" d="
			M18.07,40.7c0.7-3.97,2.77-4.22,5.87-1.65c-0.87,0.11-1.61,0.37-2.2,0.79c-0.17-0.64-0.49-0.97-1.08-0.73
			c-1.02,0.44-0.69,0.95-0.28,1.25c-0.03-0.02-0.06-0.03-0.1-0.05C19.41,40.2,18.67,40.33,18.07,40.7z"/>
	</g>
</g>
</svg>
