<?xml version="1.0" encoding="utf-8"?>
<!-- Generator: Adobe Illustrator 28.1.0, SVG Export Plug-In . SVG Version: 6.00 Build 0)  -->
<svg version="1.1" id="Laag_1" xmlns="http://www.w3.org/2000/svg" xmlns:xlink="http://www.w3.org/1999/xlink" x="0px" y="0px"
	 viewBox="0 0 105 103.1" style="enable-background:new 0 0 105 103.1;" xml:space="preserve">
<style type="text/css">
	.st0{fill:#F8B572;stroke:#1D1D1B;stroke-miterlimit:10;}
	.st1{fill:#3DA936;stroke:#000000;stroke-width:0.5;stroke-miterlimit:10;}
	.st2{fill:#FFFFFF;stroke:#1D1D1B;stroke-miterlimit:10;}
	.st3{fill:none;stroke:#1D1D1B;stroke-miterlimit:10;stroke-dasharray:3.5812;}
	.st4{fill:#FFEC00;stroke:#1D1D1B;stroke-miterlimit:10;}
	.st5{fill:none;stroke:#1D1D1B;stroke-miterlimit:10;stroke-dasharray:6.0535;}
	.st6{fill:#D9D9D9;stroke:#B1B1B1;stroke-miterlimit:10;}
	.st7{fill:#FFFFFF;stroke:#FFFFFF;stroke-width:2;stroke-miterlimit:10;}
	.st8{fill:none;stroke:#FFFFFF;stroke-width:2;stroke-miterlimit:10;}
	.st9{fill:#BD1622;stroke:#1D1D1B;stroke-width:0.25;stroke-miterlimit:10;}
	.st10{fill:#648F1E;stroke:#1D1D1B;stroke-width:0.25;stroke-miterlimit:10;}
	.st11{fill:none;stroke:#1D1D1B;stroke-width:0.25;stroke-miterlimit:10;}
	.st12{fill:#BD1622;stroke:#1D1D1B;stroke-width:0.25;stroke-linecap:round;stroke-linejoin:round;stroke-miterlimit:10;}
	.st13{fill:#63902F;stroke:#1D1D1B;stroke-width:0.25;stroke-linecap:round;stroke-linejoin:round;stroke-miterlimit:10;}
	.st14{fill:none;stroke:#1D1D1B;stroke-linecap:round;stroke-miterlimit:10;}
	.st15{fill:#E5007E;stroke:#1D1D1B;stroke-width:0.75;stroke-linecap:round;stroke-miterlimit:10;}
	.st16{fill:#B17F49;stroke:#1D1D1B;stroke-width:0.5;stroke-linecap:round;stroke-miterlimit:10;}
	.st17{fill:none;stroke:#B5B5B5;stroke-width:0.25;stroke-miterlimit:10;}
	.st18{fill:#7E4E24;stroke:#1D1D1B;stroke-width:0.25;stroke-miterlimit:10;}
	.st19{fill:#D3D005;}
	.st20{fill:#FFFFFF;stroke:#1D1D1B;stroke-linecap:round;stroke-linejoin:round;stroke-miterlimit:10;}
	.st21{fill:none;stroke:#1D1D1B;stroke-linecap:round;stroke-linejoin:round;stroke-miterlimit:10;}
	.st22{fill:none;stroke:#60B4E5;stroke-linecap:round;stroke-miterlimit:10;}
	.st23{fill:#617EBE;stroke:#1D1D1B;stroke-linecap:round;stroke-linejoin:round;stroke-miterlimit:10;}
	.st24{fill:#F9BB75;stroke:#1D1E1C;stroke-width:0.75;stroke-linecap:round;stroke-linejoin:round;stroke-miterlimit:10;}
	.st25{fill:#009540;}
	.st26{fill:none;stroke:#1D1E1C;stroke-width:0.75;stroke-linecap:round;stroke-linejoin:round;stroke-miterlimit:10;}
	.st27{fill:#925F36;stroke:#1D1E1C;stroke-width:0.75;stroke-linecap:round;stroke-linejoin:round;stroke-miterlimit:10;}
	.st28{fill:#F8B133;stroke:#1D1E1C;stroke-width:0.75;stroke-linecap:round;stroke-linejoin:round;stroke-miterlimit:10;}
	.st29{fill:#AB0F09;stroke:#1D1E1C;stroke-width:0.75;stroke-linecap:round;stroke-linejoin:round;stroke-miterlimit:10;}
	.st30{fill:#FFFFFF;}
	.st31{fill:#826328;stroke:#1D1E1C;stroke-width:0.25;stroke-miterlimit:10;}
	.st32{fill:#BFB709;stroke:#1D1E1C;stroke-width:0.25;stroke-miterlimit:10;}
	.st33{fill:#C0B70B;stroke:#1D1E1C;stroke-width:0.25;stroke-miterlimit:10;}
	.st34{fill:#816228;stroke:#1D1E1C;stroke-width:0.25;stroke-miterlimit:10;}
	.st35{fill:#BD1823;stroke:#1D1E1C;stroke-width:0.25;stroke-linecap:round;stroke-linejoin:round;stroke-miterlimit:10;}
	.st36{fill:#628F2F;stroke:#1D1E1C;stroke-width:0.25;stroke-linecap:round;stroke-linejoin:round;stroke-miterlimit:10;}
	.st37{fill:#C0B70B;stroke:#1D1E1C;stroke-width:0.25;stroke-linecap:round;stroke-linejoin:round;stroke-miterlimit:10;}
	.st38{fill:#816228;stroke:#1D1E1C;stroke-width:0.25;stroke-linecap:round;stroke-linejoin:round;stroke-miterlimit:10;}
	.st39{fill:#826328;stroke:#1D1E1C;stroke-width:0.25;stroke-linecap:round;stroke-linejoin:round;stroke-miterlimit:10;}
	.st40{fill:#BFB709;stroke:#1D1E1C;stroke-width:0.25;stroke-linecap:round;stroke-linejoin:round;stroke-miterlimit:10;}
</style>
<g>
	<path class="st0" d="M214.6-112.4L214.6-112.4c-6.6,0-11.9-5.3-11.9-11.9v-3.6h22.8v4.7C225.5-117.3,220.6-112.4,214.6-112.4z"/>
	<path class="st0" d="M254-112.4L254-112.4c-8.4,0-15.3-6.8-15.3-15.3V-138h29.1v11.7C267.8-118.6,261.6-112.4,254-112.4z"/>
	<path class="st1" d="M250.1-98.1l1.1,0.2l2.1,4.2l3.3-3.4h0l-7-14.2l-11,11.4l2.1,4.2l3.3-3.4l1.2,0.2v0c-0.8,4.8-6.1,8.1-12,7.2
		c-5.9-0.9-10.1-5.5-9.3-10.4v0l-5-0.8v0c-1.1,7.1,5.1,14,13.7,15.3C241.1-86.2,249-90.9,250.1-98.1L250.1-98.1z"/>
</g>
<g>
	<path class="st2" d="M95.8-106.8H85.7c-2,0-3.6-1.6-3.6-3.6l0,0c0-2,1.6-3.6,3.6-3.6h10.2c2,0,3.6,1.6,3.6,3.6l0,0
		C99.4-108.4,97.8-106.8,95.8-106.8z"/>
	<g>
		<line class="st3" x1="85.1" y1="-119.9" x2="88.7" y2="-119.9"/>
	</g>
	<circle class="st4" cx="96.3" cy="-119.9" r="6.2"/>
	<circle class="st2" cx="84.9" cy="-114.9" r="3.8"/>
	<circle class="st2" cx="89.4" cy="-117.1" r="4.4"/>
	<circle class="st2" cx="96.1" cy="-114.3" r="4.2"/>
	<circle class="st2" cx="89.3" cy="-111" r="4.2"/>
	<circle class="st2" cx="98.8" cy="-111.5" r="4.2"/>
	<circle class="st2" cx="82.9" cy="-110.8" r="3.5"/>
	<g>
		<line class="st3" x1="96.3" y1="-131.1" x2="96.3" y2="-127.5"/>
	</g>
	<g>
		<line class="st3" x1="90.7" y1="-129.6" x2="92.5" y2="-126.5"/>
	</g>
	<g>
		<line class="st3" x1="86.6" y1="-125.5" x2="89.7" y2="-123.7"/>
	</g>
	<g>
		<line class="st3" x1="106" y1="-114.3" x2="102.9" y2="-116.1"/>
	</g>
	<g>
		<line class="st3" x1="107.5" y1="-119.9" x2="103.9" y2="-119.9"/>
	</g>
	<g>
		<line class="st3" x1="106" y1="-125.5" x2="102.9" y2="-123.7"/>
	</g>
	<g>
		<line class="st3" x1="101.9" y1="-129.6" x2="100.1" y2="-126.5"/>
	</g>
</g>
<g>
	<circle class="st4" cx="132.8" cy="-119" r="6.9"/>
	<g>
		<line class="st5" x1="132.8" y1="-134.6" x2="132.8" y2="-128.5"/>
	</g>
	<g>
		<line class="st5" x1="125" y1="-132.5" x2="128" y2="-127.3"/>
	</g>
	<g>
		<line class="st5" x1="119.3" y1="-126.8" x2="124.5" y2="-123.8"/>
	</g>
	<g>
		<line class="st5" x1="117.2" y1="-119" x2="123.2" y2="-119"/>
	</g>
	<g>
		<line class="st5" x1="119.3" y1="-111.2" x2="124.5" y2="-114.2"/>
	</g>
	<g>
		<line class="st5" x1="125" y1="-105.5" x2="128" y2="-110.7"/>
	</g>
	<g>
		<line class="st5" x1="132.8" y1="-103.4" x2="132.8" y2="-109.4"/>
	</g>
	<g>
		<line class="st5" x1="140.6" y1="-105.5" x2="137.6" y2="-110.7"/>
	</g>
	<g>
		<line class="st5" x1="146.3" y1="-111.2" x2="141.1" y2="-114.2"/>
	</g>
	<g>
		<line class="st5" x1="148.4" y1="-119" x2="142.3" y2="-119"/>
	</g>
	<g>
		<line class="st5" x1="146.3" y1="-126.8" x2="141.1" y2="-123.8"/>
	</g>
	<g>
		<line class="st5" x1="140.6" y1="-132.5" x2="137.6" y2="-127.3"/>
	</g>
</g>
<g>
	<path class="st6" d="M20.7-117.3H10.5c-2,0-3.6-1.6-3.6-3.6l0,0c0-2,1.6-3.6,3.6-3.6h10.1c2,0,3.6,1.6,3.6,3.6l0,0
		C24.3-118.9,22.7-117.3,20.7-117.3z"/>
	<circle class="st6" cx="9.8" cy="-125.4" r="3.8"/>
	<circle class="st6" cx="14.2" cy="-127.6" r="4.4"/>
	<circle class="st6" cx="21" cy="-124.8" r="4.2"/>
	<circle class="st6" cx="14.1" cy="-121.5" r="4.2"/>
	<circle class="st6" cx="23.7" cy="-122" r="4.2"/>
	<circle class="st6" cx="7.7" cy="-121.3" r="3.5"/>
</g>
<g>
	<circle class="st7" cx="42.9" cy="-99.7" r="0.3"/>
	<line class="st8" x1="52.3" y1="-97.9" x2="55.7" y2="-103.9"/>
	<circle class="st8" cx="51.5" cy="-96.3" r="0.3"/>
	<g>
		<g>
			<path class="st6" d="M62.8-113.2H46.1c-1.3,0-2.4-1.1-2.4-2.4v-4.1c0-1.3,1.1-2.4,2.4-2.4h16.7c1.3,0,2.4,1.1,2.4,2.4v4.1
				C65.2-114.2,64.1-113.2,62.8-113.2z"/>
			<circle class="st6" cx="47.2" cy="-123.2" r="4.8"/>
			<circle class="st6" cx="52.7" cy="-125.9" r="5.5"/>
			<circle class="st6" cx="61.1" cy="-122.4" r="5.2"/>
			<circle class="st6" cx="52.6" cy="-118.3" r="5.3"/>
			<circle class="st6" cx="64.4" cy="-119" r="5.3"/>
			<circle class="st6" cx="44.7" cy="-118.1" r="4.3"/>
		</g>
		<line class="st8" x1="43.7" y1="-101.2" x2="47.1" y2="-107.3"/>
		<line class="st8" x1="51.9" y1="-107" x2="48.5" y2="-100.9"/>
		<circle class="st7" cx="52.8" cy="-108.5" r="0.3"/>
		<line class="st8" x1="61.3" y1="-108.5" x2="57.9" y2="-102.5"/>
		<circle class="st7" cx="62.1" cy="-110" r="0.3"/>
	</g>
</g>
<g>
	<g>
		<g>
			<path class="st9" d="M37.7,24c-0.8,0.1-1.4-0.3-1.7-1.1c0.8-0.2,1.3-0.3,1.3-0.3S37.6,23.1,37.7,24z"/>
			<path class="st10" d="M36.7,32.2c-0.8,1.3-1.8,2.4-2.8,3.3l-6.6-4.2c0.3-1.3,0.9-2.6,1.8-3.9c1.7-2.7,5.1-3.9,7-4.4
				c0.3,0.8,0.8,1.2,1.7,1.1C38.1,25.9,38.4,29.4,36.7,32.2z"/>
			<line class="st11" x1="37.7" y1="24" x2="37.7" y2="24"/>
		</g>
		<g>
			<path class="st9" d="M16.8,23.1c-0.3,0.8-0.9,1.1-1.8,0.9c0.2-0.8,0.4-1.3,0.4-1.3S16,22.8,16.8,23.1z"/>
			<path class="st10" d="M23.4,28.1c0.7,1.4,1.2,2.8,1.4,4l-7,3.6c-0.9-0.9-1.8-2.1-2.5-3.5c-1.5-2.9-0.8-6.4-0.3-8.3
				c0.8,0.2,1.4-0.2,1.8-0.9C18.7,23.7,21.9,25.2,23.4,28.1z"/>
			<line class="st11" x1="16.8" y1="23.1" x2="16.8" y2="23.1"/>
		</g>
		<g>
			<path class="st9" d="M27.4,20.7c-0.7,0.5-1.3,0.5-2-0.1c0.6-0.6,1-0.9,1-0.9S26.9,20.1,27.4,20.7z"/>
			<path class="st10" d="M30.6,28.4c-0.1,1.5-0.3,3-0.8,4.2L22,32.2c-0.3-1.3-0.5-2.7-0.4-4.3c0.1-3.3,2.5-6,3.9-7.3
				c0.6,0.5,1.3,0.6,2,0.1C28.7,22.2,30.8,25.1,30.6,28.4z"/>
			<line class="st11" x1="27.4" y1="20.7" x2="27.4" y2="20.7"/>
		</g>
		<g>
			<path class="st9" d="M5.7,40.8c0.5,0.7,0.5,1.3-0.1,2c-0.6-0.6-0.9-1-0.9-1S5,41.3,5.7,40.8z"/>
			<path class="st10" d="M13.3,37.6c1.5,0.1,3,0.3,4.2,0.8l-0.3,7.8c-1.3,0.3-2.7,0.5-4.3,0.4c-3.3-0.1-6-2.5-7.3-3.9
				c0.5-0.6,0.6-1.3,0.1-2C7.1,39.5,10,37.4,13.3,37.6z"/>
			<line class="st11" x1="5.7" y1="40.8" x2="5.7" y2="40.8"/>
		</g>
		<g>
			<path class="st9" d="M8.9,30.5c0.1,0.8-0.3,1.4-1.1,1.7c-0.2-0.8-0.3-1.3-0.3-1.3S8.1,30.6,8.9,30.5z"/>
			<path class="st10" d="M17.1,31.5c1.3,0.8,2.4,1.8,3.3,2.8l-4.2,6.6c-1.3-0.3-2.6-0.9-3.9-1.8c-2.7-1.7-3.9-5.1-4.4-7
				c0.8-0.3,1.2-0.8,1.1-1.7C10.8,30.1,14.3,29.7,17.1,31.5z"/>
			<line class="st11" x1="8.9" y1="30.4" x2="8.9" y2="30.5"/>
		</g>
		<g>
			<path class="st9" d="M15.4,59.3c0.8-0.1,1.4,0.3,1.7,1.1c-0.8,0.2-1.3,0.3-1.3,0.3S15.5,60.1,15.4,59.3z"/>
			<path class="st10" d="M16.4,51.1c0.8-1.3,1.8-2.4,2.8-3.3l6.6,4.2c-0.3,1.3-0.9,2.6-1.8,3.9c-1.7,2.7-5.1,3.9-7,4.4
				c-0.3-0.8-0.8-1.2-1.7-1.1C15,57.4,14.7,53.8,16.4,51.1z"/>
			<line class="st11" x1="15.4" y1="59.3" x2="15.4" y2="59.3"/>
		</g>
		<g>
			<path class="st9" d="M8,51.3c0.8,0.3,1.1,0.9,0.9,1.8c-0.8-0.2-1.3-0.4-1.3-0.4S7.8,52.1,8,51.3z"/>
			<path class="st10" d="M13,44.7c1.4-0.7,2.8-1.2,4-1.4l3.6,7c-0.9,0.9-2.1,1.8-3.5,2.5c-2.9,1.5-6.4,0.8-8.3,0.3
				c0.2-0.8-0.2-1.4-0.9-1.8C8.7,49.5,10.2,46.3,13,44.7z"/>
			<line class="st11" x1="8" y1="51.3" x2="8" y2="51.3"/>
		</g>
		<g>
			<path class="st9" d="M36.3,60.2c0.3-0.8,0.9-1.1,1.8-0.9c-0.2,0.8-0.4,1.3-0.4,1.3S37,60.4,36.3,60.2z"/>
			<path class="st10" d="M29.7,55.2c-0.7-1.4-1.2-2.8-1.4-4l7-3.6c0.9,0.9,1.8,2.1,2.5,3.5c1.5,2.9,0.8,6.4,0.3,8.3
				c-0.8-0.2-1.4,0.2-1.8,0.9C34.4,59.5,31.2,58,29.7,55.2z"/>
			<line class="st11" x1="36.3" y1="60.2" x2="36.3" y2="60.2"/>
		</g>
		<g>
			<path class="st9" d="M25.7,62.5c0.7-0.5,1.3-0.5,2,0.1c-0.6,0.6-1,0.9-1,0.9S26.2,63.2,25.7,62.5z"/>
			<path class="st10" d="M22.5,54.9c0.1-1.5,0.3-3,0.8-4.2l7.8,0.3c0.3,1.3,0.5,2.7,0.4,4.3c-0.1,3.3-2.5,6-3.9,7.3
				c-0.6-0.5-1.3-0.6-2-0.1C24.4,61.1,22.4,58.2,22.5,54.9z"/>
			<line class="st11" x1="25.7" y1="62.5" x2="25.7" y2="62.5"/>
		</g>
		<g>
			<path class="st9" d="M47.4,42.5c-0.5-0.7-0.5-1.3,0.1-2c0.6,0.6,0.9,1,0.9,1S48.1,41.9,47.4,42.5z"/>
			<path class="st10" d="M39.8,45.7c-1.5-0.1-3-0.3-4.2-0.8l0.3-7.8c1.3-0.3,2.7-0.5,4.3-0.4c3.3,0.1,6,2.5,7.3,3.9
				c-0.5,0.6-0.6,1.3-0.1,2C46,43.8,43.1,45.8,39.8,45.7z"/>
			<line class="st11" x1="47.4" y1="42.5" x2="47.4" y2="42.5"/>
		</g>
		<g>
			<path class="st9" d="M44.2,52.8c-0.1-0.8,0.3-1.4,1.1-1.7c0.2,0.8,0.3,1.3,0.3,1.3S45,52.7,44.2,52.8z"/>
			<path class="st10" d="M36,51.8C34.7,51,33.6,50,32.8,49l4.2-6.6c1.3,0.3,2.6,0.9,3.9,1.8c2.7,1.7,3.9,5.1,4.4,7
				c-0.8,0.3-1.2,0.8-1.1,1.7C42.3,53.2,38.7,53.5,36,51.8z"/>
			<line class="st11" x1="44.2" y1="52.8" x2="44.2" y2="52.8"/>
		</g>
		<g>
			<path class="st9" d="M45.1,31.9c-0.8-0.3-1.1-0.9-0.9-1.8c0.8,0.2,1.3,0.4,1.3,0.4S45.4,31.1,45.1,31.9z"/>
			<path class="st10" d="M40.1,38.5c-1.4,0.7-2.8,1.2-4,1.4l-3.6-7c0.9-0.9,2.1-1.8,3.5-2.5c2.9-1.5,6.4-0.8,8.3-0.3
				c-0.2,0.8,0.2,1.4,0.9,1.8C44.4,33.8,43,37,40.1,38.5z"/>
			<line class="st11" x1="45.1" y1="31.9" x2="45.1" y2="31.9"/>
		</g>
	</g>
	<g>
		<g>
			<path class="st9" d="M30.3,27c-0.6,0.2-1,0.1-1.4-0.4c0.5-0.3,0.9-0.5,0.9-0.5S30,26.5,30.3,27z"/>
			<path class="st10" d="M31.4,32.9c-0.3,1.1-0.7,2.1-1.2,2.8l-5.5-1.4c-0.1-0.9,0.1-2,0.3-3.1c0.6-2.3,2.6-3.8,3.8-4.6
				c0.4,0.5,0.8,0.6,1.4,0.4C31,28.2,32,30.6,31.4,32.9z"/>
			<line class="st11" x1="30.3" y1="27" x2="30.3" y2="27"/>
		</g>
		<g>
			<path class="st9" d="M15.7,31.1c-0.1,0.6-0.4,0.9-1,1c0-0.6,0-1,0-1S15.1,31.1,15.7,31.1z"/>
			<path class="st10" d="M21.4,33c0.8,0.8,1.4,1.6,1.9,2.5l-4,4c-0.8-0.4-1.7-1-2.5-1.8c-1.7-1.6-2-4.2-2.1-5.6c0.6-0.1,0.9-0.4,1-1
				C17.1,31.1,19.7,31.4,21.4,33z"/>
			<line class="st11" x1="15.7" y1="31.1" x2="15.7" y2="31.1"/>
		</g>
		<g>
			<path class="st9" d="M22.5,27.1c-0.4,0.5-0.8,0.6-1.4,0.4c0.3-0.5,0.5-0.9,0.5-0.9S21.9,26.8,22.5,27.1z"/>
			<path class="st10" d="M26.4,31.6c0.3,1.1,0.4,2.1,0.4,3.1l-5.5,1.5c-0.5-0.8-0.9-1.8-1.2-2.8c-0.6-2.3,0.4-4.6,1-5.9
				c0.6,0.2,1,0.1,1.4-0.4C23.7,27.8,25.7,29.3,26.4,31.6z"/>
			<line class="st11" x1="22.5" y1="27.1" x2="22.5" y2="27.1"/>
		</g>
		<g>
			<path class="st9" d="M12,45.7c0.5,0.4,0.6,0.8,0.4,1.4c-0.5-0.3-0.9-0.5-0.9-0.5S11.7,46.2,12,45.7z"/>
			<path class="st10" d="M16.5,41.8c1.1-0.3,2.1-0.4,3.1-0.4l1.5,5.5c-0.8,0.5-1.8,0.9-2.8,1.2c-2.3,0.6-4.6-0.4-5.9-1
				c0.2-0.6,0.1-1-0.4-1.4C12.7,44.5,14.3,42.4,16.5,41.8z"/>
			<line class="st11" x1="12" y1="45.7" x2="12" y2="45.7"/>
		</g>
		<g>
			<path class="st9" d="M11.9,37.9c0.2,0.6,0.1,1-0.4,1.4c-0.3-0.5-0.5-0.9-0.5-0.9S11.4,38.2,11.9,37.9z"/>
			<path class="st10" d="M17.8,36.8c1.1,0.3,2.1,0.7,2.8,1.2l-1.4,5.5c-0.9,0.1-2-0.1-3.1-0.3c-2.3-0.6-3.8-2.6-4.6-3.8
				c0.5-0.4,0.6-0.8,0.4-1.4C13.1,37.2,15.5,36.2,17.8,36.8z"/>
			<line class="st11" x1="11.9" y1="37.9" x2="11.9" y2="37.9"/>
		</g>
		<g>
			<path class="st9" d="M22.8,56.3c0.6-0.2,1-0.1,1.4,0.4c-0.5,0.3-0.9,0.5-0.9,0.5S23.1,56.8,22.8,56.3z"/>
			<path class="st10" d="M21.7,50.4c0.3-1.1,0.7-2.1,1.2-2.8l5.5,1.4c0.1,0.9-0.1,2-0.3,3.1c-0.6,2.3-2.6,3.8-3.8,4.6
				c-0.4-0.5-0.8-0.6-1.4-0.4C22.1,55,21.1,52.7,21.7,50.4z"/>
			<line class="st11" x1="22.8" y1="56.3" x2="22.8" y2="56.3"/>
		</g>
		<g>
			<path class="st9" d="M16,52.4c0.6,0.1,0.9,0.4,1,1c-0.6,0-1,0-1,0S16,53,16,52.4z"/>
			<path class="st10" d="M18,46.8c0.8-0.8,1.6-1.4,2.5-1.9l4,4c-0.4,0.8-1,1.7-1.8,2.5c-1.6,1.7-4.2,2-5.6,2.1c-0.1-0.6-0.4-0.9-1-1
				C16,51,16.3,48.5,18,46.8z"/>
			<line class="st11" x1="16" y1="52.4" x2="16" y2="52.4"/>
		</g>
		<g>
			<path class="st9" d="M37.4,52.2c0.1-0.6,0.4-0.9,1-1c0,0.6,0,1,0,1S38,52.2,37.4,52.2z"/>
			<path class="st10" d="M31.7,50.2c-0.8-0.8-1.4-1.6-1.9-2.5l4-4c0.8,0.4,1.7,1,2.5,1.8c1.7,1.6,2,4.2,2.1,5.6
				c-0.6,0.1-0.9,0.4-1,1C36,52.2,33.4,51.9,31.7,50.2z"/>
			<line class="st11" x1="37.4" y1="52.2" x2="37.4" y2="52.2"/>
		</g>
		<g>
			<path class="st9" d="M30.6,56.2c0.4-0.5,0.8-0.6,1.4-0.4c-0.3,0.5-0.5,0.9-0.5,0.9S31.2,56.5,30.6,56.2z"/>
			<path class="st10" d="M26.7,51.7c-0.3-1.1-0.4-2.1-0.4-3.1l5.5-1.5c0.5,0.8,0.9,1.8,1.2,2.8c0.6,2.3-0.4,4.6-1,5.9
				c-0.6-0.2-1-0.1-1.4,0.4C29.4,55.5,27.3,53.9,26.7,51.7z"/>
			<line class="st11" x1="30.6" y1="56.2" x2="30.6" y2="56.2"/>
		</g>
		<g>
			<path class="st9" d="M41.1,37.5c-0.5-0.4-0.6-0.8-0.4-1.4c0.5,0.3,0.9,0.5,0.9,0.5S41.4,37,41.1,37.5z"/>
			<path class="st10" d="M36.6,41.5c-1.1,0.3-2.1,0.4-3.1,0.4L32,36.4c0.8-0.5,1.8-0.9,2.8-1.2c2.3-0.6,4.6,0.4,5.9,1
				c-0.2,0.6-0.1,1,0.4,1.4C40.4,38.8,38.8,40.8,36.6,41.5z"/>
			<line class="st11" x1="41.1" y1="37.5" x2="41.1" y2="37.5"/>
		</g>
		<g>
			<path class="st9" d="M41.2,45.4c-0.2-0.6-0.1-1,0.4-1.4c0.3,0.5,0.5,0.9,0.5,0.9S41.7,45.1,41.2,45.4z"/>
			<path class="st10" d="M35.3,46.5c-1.1-0.3-2.1-0.7-2.8-1.2l1.4-5.5c0.9-0.1,2,0.1,3.1,0.3c2.3,0.6,3.8,2.6,4.6,3.8
				c-0.5,0.4-0.6,0.8-0.4,1.4C40,46,37.6,47.1,35.3,46.5z"/>
			<line class="st11" x1="41.2" y1="45.4" x2="41.2" y2="45.4"/>
		</g>
		<g>
			<path class="st9" d="M37.1,30.8c-0.6-0.1-0.9-0.4-1-1c0.6,0,1,0,1,0S37.1,30.2,37.1,30.8z"/>
			<path class="st10" d="M35.1,36.5c-0.8,0.8-1.6,1.4-2.5,1.9l-4-4c0.4-0.8,1-1.7,1.8-2.5c1.6-1.7,4.2-2,5.6-2.1
				c0.1,0.6,0.4,0.9,1,1C37.1,32.2,36.8,34.8,35.1,36.5z"/>
			<line class="st11" x1="37.1" y1="30.8" x2="37.1" y2="30.8"/>
		</g>
	</g>
	<g>
		<path class="st12" d="M26.4,41.7c-0.6,0.1-1,0.5-1.3,1l0,0c-0.4,0.5-1,1-1.6-0.4c-0.3-0.8,0.1-1.2,0.9-1.4
			C24.9,41.5,25.6,41.6,26.4,41.7z"/>
		<path class="st13" d="M25.5,45.6c-5.1-0.9-5.5-3.6-2.1-7.6c0.1,1.1,0.5,2.1,1,2.8c-0.8,0.2-1.3,0.6-0.9,1.4
			c0.6,1.3,1.2,0.9,1.6,0.4c0,0,0,0.1-0.1,0.1C24.9,43.9,25.1,44.8,25.5,45.6z"/>
	</g>
	<g>
		<path class="st12" d="M26.4,41.7c-0.5,0.4-0.7,0.9-0.6,1.5l0,0c-0.1,0.7-0.4,1.4-1.6,0.5c-0.6-0.5-0.5-1.1,0.1-1.7
			C25,42.3,25.7,42,26.4,41.7z"/>
		<path class="st13" d="M27.6,45.5c-4.9,1.8-6.5-0.4-5.6-5.5c0.7,0.9,1.5,1.6,2.3,2c-0.6,0.6-0.8,1.2-0.1,1.7
			c1.2,0.9,1.5,0.2,1.6-0.5c0,0.1,0,0.1,0,0.1C26.2,44.3,26.8,45.1,27.6,45.5z"/>
	</g>
	<g>
		<path class="st12" d="M26.4,41.7c-0.2,0.6-0.1,1.1,0.2,1.6l0,0c0.3,0.6,0.3,1.4-1.1,1.2c-0.8-0.1-1-0.7-0.7-1.5
			C25.5,42.9,26,42.3,26.4,41.7z"/>
		<path class="st13" d="M29.4,44.4c-3.4,4-5.8,2.9-7.7-1.9c1,0.4,2,0.6,3,0.5c-0.2,0.8-0.1,1.4,0.7,1.5c1.4,0.2,1.4-0.6,1.1-1.2
			c0,0,0.1,0.1,0.1,0.1C27.6,44.1,28.5,44.4,29.4,44.4z"/>
	</g>
	<g>
		<path class="st12" d="M26.4,41.7c0.1,0.6,0.5,1,1,1.3l0,0c0.5,0.4,1,1-0.4,1.6c-0.8,0.3-1.2-0.1-1.4-0.9
			C26.2,43.2,26.3,42.5,26.4,41.7z"/>
		<path class="st13" d="M30.4,42.5c-0.9,5.1-3.6,5.5-7.6,2.1c1.1-0.1,2.1-0.5,2.8-1c0.2,0.8,0.6,1.3,1.4,0.9
			c1.3-0.6,0.9-1.2,0.4-1.6c0,0,0.1,0,0.1,0.1C28.6,43.2,29.6,43,30.4,42.5z"/>
	</g>
	<g>
		<path class="st12" d="M26.4,41.7c0.4,0.5,0.9,0.7,1.5,0.6l0,0c0.7,0.1,1.4,0.4,0.5,1.6c-0.5,0.6-1.1,0.5-1.7-0.1
			C27,43.1,26.7,42.4,26.4,41.7z"/>
		<path class="st13" d="M30.3,40.4c1.8,4.9-0.4,6.5-5.5,5.6c0.9-0.7,1.6-1.5,2-2.3c0.6,0.6,1.2,0.8,1.7,0.1c0.9-1.2,0.2-1.5-0.5-1.6
			c0.1,0,0.1,0,0.1,0C29.1,41.9,29.8,41.2,30.3,40.4z"/>
	</g>
	<g>
		<path class="st12" d="M26.4,41.7c0.6,0.2,1.1,0.1,1.6-0.2l0,0c0.6-0.3,1.4-0.3,1.2,1.1c-0.1,0.8-0.7,1-1.5,0.7
			C27.6,42.6,27.1,42.1,26.4,41.7z"/>
		<path class="st13" d="M29.1,38.7c4,3.4,2.9,5.8-1.9,7.7c0.4-1,0.6-2,0.5-3c0.8,0.2,1.4,0.1,1.5-0.7c0.2-1.4-0.6-1.4-1.2-1.1
			c0,0,0.1-0.1,0.1-0.1C28.8,40.5,29.1,39.6,29.1,38.7z"/>
	</g>
	<g>
		<path class="st12" d="M26.4,41.7c0.6-0.1,1-0.5,1.3-1l0,0c0.4-0.5,1-1,1.6,0.4c0.3,0.8-0.1,1.2-0.9,1.4
			C27.9,41.8,27.2,41.7,26.4,41.7z"/>
		<path class="st13" d="M27.3,37.7c5.1,0.9,5.5,3.6,2.1,7.6c-0.1-1.1-0.5-2.1-1-2.8c0.8-0.2,1.3-0.6,0.9-1.4
			c-0.6-1.3-1.2-0.9-1.6-0.4c0,0,0-0.1,0.1-0.1C27.9,39.4,27.7,38.5,27.3,37.7z"/>
	</g>
	<g>
		<path class="st12" d="M26.4,41.7c0.5-0.4,0.7-0.9,0.6-1.5l0,0c0.1-0.7,0.4-1.4,1.6-0.5c0.6,0.5,0.5,1.1-0.1,1.7
			C27.8,41.1,27.1,41.3,26.4,41.7z"/>
		<path class="st13" d="M25.2,37.8c4.9-1.8,6.5,0.4,5.6,5.5c-0.7-0.9-1.5-1.6-2.3-2c0.6-0.6,0.8-1.2,0.1-1.7
			c-1.2-0.9-1.5-0.2-1.6,0.5c0-0.1,0-0.1,0-0.1C26.6,39,26,38.2,25.2,37.8z"/>
	</g>
	<g>
		<path class="st12" d="M26.4,41.7c0.2-0.6,0.1-1.1-0.2-1.6l0,0c-0.3-0.6-0.3-1.4,1.1-1.2c0.8,0.1,1,0.7,0.7,1.5
			C27.3,40.4,26.8,41,26.4,41.7z"/>
		<path class="st13" d="M23.4,38.9c3.4-4,5.8-2.9,7.7,1.9c-1-0.4-2-0.6-3-0.5c0.2-0.8,0.1-1.4-0.7-1.5c-1.4-0.2-1.4,0.6-1.1,1.2
			c0,0-0.1-0.1-0.1-0.1C25.2,39.3,24.3,38.9,23.4,38.9z"/>
	</g>
	<g>
		<path class="st12" d="M26.4,41.7c-0.1-0.6-0.5-1-1-1.3l0,0c-0.5-0.4-1-1,0.4-1.6c0.8-0.3,1.2,0.1,1.4,0.9
			C26.6,40.1,26.5,40.9,26.4,41.7z"/>
		<path class="st13" d="M22.4,40.8c0.9-5.1,3.6-5.5,7.6-2.1c-1.1,0.1-2.1,0.5-2.8,1c-0.2-0.8-0.6-1.3-1.4-0.9
			c-1.3,0.6-0.9,1.2-0.4,1.6c0,0-0.1,0-0.1-0.1C24.2,40.2,23.2,40.3,22.4,40.8z"/>
	</g>
	<g>
		<path class="st12" d="M26.4,41.7C26,41.2,25.5,41,24.9,41l0,0c-0.7-0.1-1.4-0.4-0.5-1.6c0.5-0.6,1.1-0.5,1.7,0.1
			C25.8,40.2,26.1,41,26.4,41.7z"/>
		<path class="st13" d="M22.5,42.9c-1.8-4.9,0.4-6.5,5.5-5.6c-0.9,0.7-1.6,1.5-2,2.3c-0.6-0.6-1.2-0.8-1.7-0.1
			c-0.9,1.2-0.2,1.5,0.5,1.6c-0.1,0-0.1,0-0.1,0C23.7,41.5,23,42.1,22.5,42.9z"/>
	</g>
	<g>
		<path class="st12" d="M26.4,41.7c-0.6-0.2-1.1-0.1-1.6,0.2l0,0c-0.6,0.3-1.4,0.3-1.2-1.1c0.1-0.8,0.7-1,1.5-0.7
			C25.2,40.7,25.7,41.2,26.4,41.7z"/>
		<path class="st13" d="M23.7,44.7c-4-3.4-2.9-5.8,1.9-7.7c-0.4,1-0.6,2-0.5,3c-0.8-0.2-1.4-0.1-1.5,0.7c-0.2,1.4,0.6,1.4,1.2,1.1
			c0,0-0.1,0.1-0.1,0.1C24,42.8,23.7,43.8,23.7,44.7z"/>
	</g>
	<g>
		<path class="st12" d="M24,40.8c-0.6-0.2-1.1-0.1-1.6,0.2l0,0c-0.6,0.3-1.4,0.3-1.2-1.1c0.1-0.8,0.7-1,1.5-0.7
			C22.8,39.9,23.4,40.4,24,40.8z"/>
		<path class="st13" d="M21.3,43.8c-4-3.4-2.9-5.8,1.9-7.7c-0.4,1-0.6,2-0.5,3c-0.8-0.2-1.4-0.1-1.5,0.7c-0.2,1.4,0.6,1.4,1.2,1.1
			c0,0-0.1,0.1-0.1,0.1C21.6,42,21.3,42.9,21.3,43.8z"/>
	</g>
	<g>
		<path class="st12" d="M24.5,43.3c-0.5,0.4-0.7,0.9-0.6,1.5l0,0c-0.1,0.7-0.4,1.4-1.6,0.5c-0.6-0.5-0.5-1.1,0.1-1.7
			C23.1,43.9,23.8,43.6,24.5,43.3z"/>
		<path class="st13" d="M25.7,47.1c-4.9,1.8-6.5-0.4-5.6-5.5c0.7,0.9,1.5,1.6,2.3,2c-0.6,0.6-0.8,1.2-0.1,1.7
			c1.2,0.9,1.5,0.2,1.6-0.5c0,0.1,0,0.1,0,0.1C24.3,46,24.9,46.7,25.7,47.1z"/>
	</g>
	<g>
		<path class="st12" d="M26.9,44.1c0.1,0.6,0.5,1,1,1.3l0,0c0.5,0.4,1,1-0.4,1.6c-0.8,0.3-1.2-0.1-1.4-0.9
			C26.7,45.6,26.8,44.9,26.9,44.1z"/>
		<path class="st13" d="M30.8,45c-0.9,5.1-3.6,5.5-7.6,2.1c1.1-0.1,2.1-0.5,2.8-1c0.2,0.8,0.6,1.3,1.4,0.9c1.3-0.6,0.9-1.2,0.4-1.6
			c0,0,0.1,0,0.1,0.1C29.1,45.6,30,45.4,30.8,45z"/>
	</g>
	<g>
		<path class="st12" d="M28.7,42.5c0.6,0.2,1.1,0.1,1.6-0.2l0,0c0.6-0.3,1.4-0.3,1.2,1.1c-0.1,0.8-0.7,1-1.5,0.7
			C30,43.4,29.4,42.9,28.7,42.5z"/>
		<path class="st13" d="M31.5,39.5c4,3.4,2.9,5.8-1.9,7.7c0.4-1,0.6-2,0.5-3c0.8,0.2,1.4,0.1,1.5-0.7c0.2-1.4-0.6-1.4-1.2-1.1
			c0,0,0.1-0.1,0.1-0.1C31.2,41.3,31.5,40.4,31.5,39.5z"/>
	</g>
	<g>
		<path class="st12" d="M28.3,40c0.5-0.4,0.7-0.9,0.6-1.5l0,0c0.1-0.7,0.4-1.4,1.6-0.5c0.6,0.5,0.5,1.1-0.1,1.7
			C29.7,39.4,29,39.7,28.3,40z"/>
		<path class="st13" d="M27.1,36.2c4.9-1.8,6.5,0.4,5.6,5.5c-0.7-0.9-1.5-1.6-2.3-2c0.6-0.6,0.8-1.2,0.1-1.7
			c-1.2-0.9-1.5-0.2-1.6,0.5c0-0.1,0-0.1,0-0.1C28.5,37.4,27.8,36.6,27.1,36.2z"/>
	</g>
	<g>
		<path class="st12" d="M25.9,39.2c-0.1-0.6-0.5-1-1-1.3l0,0c-0.5-0.4-1-1,0.4-1.6c0.8-0.3,1.2,0.1,1.4,0.9
			C26.1,37.7,26,38.4,25.9,39.2z"/>
		<path class="st13" d="M22,38.4c0.9-5.1,3.6-5.5,7.6-2.1c-1.1,0.1-2.1,0.5-2.8,1c-0.2-0.8-0.6-1.3-1.4-0.9
			c-1.3,0.6-0.9,1.2-0.4,1.6c0,0-0.1,0-0.1-0.1C23.7,37.7,22.8,37.9,22,38.4z"/>
	</g>
</g>
<g>
	<path class="st14" d="M-21.1,58.5c0,0.1-0.1,0.2-0.2,0.2s-0.2-0.1-0.2-0.2c0-0.1,0.1-0.2,0.2-0.2C-21.2,58.3-21.1,58.4-21.1,58.5z"
		/>
	<path class="st14" d="M-21.3,58.1c0-0.1,0.1-0.2,0.2-0.2c0,0,0,0,0,0c0,0,0,0,0-0.1c0-0.1,0.1-0.2,0.2-0.2s0.2,0.1,0.2,0.2
		c0,0.1-0.1,0.2-0.2,0.2c0,0,0,0,0,0c0,0,0,0,0,0c0,0.1-0.1,0.2-0.2,0.2C-21.3,58.3-21.3,58.2-21.3,58.1z"/>
	<path class="st14" d="M-20.9,58.5c-0.1,0-0.2-0.1-0.2-0.2c0-0.1,0.1-0.2,0.2-0.2s0.2,0.1,0.2,0.2C-20.7,58.5-20.8,58.5-20.9,58.5z"
		/>
	<path class="st14" d="M-20.6,58.8c0,0.1-0.1,0.2-0.2,0.2c-0.1,0-0.2-0.1-0.2-0.2c0-0.1,0.1-0.2,0.2-0.2S-20.6,58.7-20.6,58.8z"/>
	<path class="st14" d="M-20.8,57.7c0-0.1,0.1-0.2,0.2-0.2s0.2,0.1,0.2,0.2c0,0.1-0.1,0.2-0.2,0.2C-20.7,57.8-20.8,57.8-20.8,57.7z"
		/>
	<path class="st14" d="M-20.5,58.3c-0.1,0-0.2-0.1-0.2-0.2c0-0.1,0.1-0.2,0.2-0.2s0.2,0.1,0.2,0.2C-20.3,58.2-20.4,58.3-20.5,58.3z"
		/>
	<path class="st14" d="M-20.2,58.6c0,0.1-0.1,0.2-0.2,0.2s-0.2-0.1-0.2-0.2c0-0.1,0.1-0.2,0.2-0.2C-20.2,58.4-20.2,58.5-20.2,58.6z"
		/>
	<path class="st14" d="M-20.4,57.5c0-0.1,0.1-0.2,0.2-0.2s0.2,0.1,0.2,0.2c0,0.1-0.1,0.2-0.2,0.2C-20.3,57.7-20.4,57.6-20.4,57.5z"
		/>
	<path class="st14" d="M-20.4,57.1c0-0.1,0.1-0.2,0.2-0.2S-20,57-20,57.1c0,0.1-0.1,0.2-0.2,0.2C-20.3,57.3-20.4,57.2-20.4,57.1z"/>
	<path class="st14" d="M-20,57.8c0.1,0.1,0,0.2,0,0.2c-0.1,0.1-0.2,0-0.2,0s0-0.2,0-0.2C-20.1,57.7-20,57.8-20,57.8z"/>
	<path class="st14" d="M-20.1,56.9c0-0.1,0.1-0.2,0.2-0.2s0.2,0.1,0.2,0.2c0,0.1-0.1,0.2-0.2,0.2S-20.1,57-20.1,56.9z"/>
	<path class="st14" d="M-19.9,57.5c-0.1,0-0.1-0.2-0.1-0.2c0-0.1,0.1-0.1,0.2-0.1c0.1,0,0.1,0.2,0.1,0.2
		C-19.7,57.6-19.8,57.6-19.9,57.5z"/>
	<path class="st14" d="M-19.8,56.4c0-0.1,0.1-0.2,0.2-0.2c0.1,0,0.2,0.1,0.2,0.2c0,0.1-0.1,0.2-0.2,0.2
		C-19.7,56.5-19.8,56.5-19.8,56.4z"/>
	<path class="st14" d="M-19.5,56.6c0.1,0,0.2,0.1,0.2,0.2c0,0.1-0.1,0.2-0.2,0.2s-0.2-0.1-0.2-0.2C-19.7,56.7-19.6,56.6-19.5,56.6z"
		/>
	<path class="st14" d="M-19.5,57.7c0.1,0.1,0,0.2,0,0.2c-0.1,0.1-0.2,0-0.2,0s0-0.2,0-0.2C-19.6,57.6-19.5,57.6-19.5,57.7z"/>
	<path class="st14" d="M-19.3,57.3c0,0.1-0.1,0.1-0.2,0.1c-0.1,0-0.1-0.2-0.1-0.2c0-0.1,0.1-0.1,0.2-0.1
		C-19.3,57.2-19.2,57.3-19.3,57.3z"/>
	<path class="st14" d="M-19.3,56.3c0-0.1,0-0.2,0-0.2c0.1,0,0.2,0,0.2,0c0,0.1,0,0.2,0,0.2C-19.2,56.4-19.3,56.4-19.3,56.3z"/>
	<path class="st14" d="M-19.2,56.8c-0.1,0-0.1-0.1-0.1-0.2s0.1-0.1,0.2-0.1c0.1,0,0.1,0.1,0.1,0.2C-19,56.8-19.1,56.9-19.2,56.8z"/>
	<path class="st14" d="M-18.8,57.2c0,0.1-0.1,0.1-0.2,0.1c-0.1,0-0.1-0.1-0.1-0.2s0.1-0.1,0.2-0.1C-18.7,57-18.7,57.1-18.8,57.2z"/>
	<path class="st14" d="M-19,55.6c0-0.1,0-0.2,0-0.2c0.1,0,0.2,0,0.2,0c0,0.1,0,0.2,0,0.2C-18.8,55.7-18.9,55.7-19,55.6z"/>
	<path class="st14" d="M-18.9,56c0-0.1,0-0.2,0-0.2c0.1,0,0.2,0,0.2,0c0,0.1,0,0.2,0,0.2C-18.7,56.1-18.8,56.1-18.9,56z"/>
	<path class="st14" d="M-18.6,56.4c0,0.1-0.1,0.2-0.2,0.2c-0.1,0-0.2-0.1-0.1-0.2c0-0.1,0.1-0.2,0.2-0.2
		C-18.6,56.2-18.5,56.3-18.6,56.4z"/>
	<path class="st14" d="M-18.4,56.9c0,0.1-0.1,0.1-0.2,0.1c-0.1,0-0.1-0.1-0.1-0.2s0.1-0.1,0.2-0.1S-18.4,56.8-18.4,56.9z"/>
	<path class="st14" d="M-18.6,55.3c0-0.1,0-0.2,0-0.2c0.1,0,0.2,0,0.2,0c0,0.1,0,0.2,0,0.2C-18.5,55.4-18.6,55.3-18.6,55.3z"/>
	<path class="st14" d="M-18.4,55.5c0.1,0,0.2,0.1,0.1,0.2c0,0.1-0.1,0.2-0.2,0.2c-0.1,0-0.2-0.1-0.1-0.2S-18.5,55.5-18.4,55.5z"/>
	<path class="st14" d="M-18.1,56.2c0,0.1-0.1,0.2-0.2,0.2c-0.1,0-0.2-0.1-0.1-0.2c0-0.1,0.1-0.2,0.2-0.2
		C-18.1,56-18.1,56.1-18.1,56.2z"/>
	<path class="st14" d="M-18.2,55.3c-0.1-0.1-0.1-0.2,0-0.2S-18,55-18,55s0.1,0.2,0,0.2C-18,55.4-18.1,55.3-18.2,55.3z"/>
	<path class="st14" d="M-18.1,55.7c-0.1-0.1-0.1-0.2,0-0.2s0.2-0.1,0.2,0s0.1,0.2,0,0.2S-18,55.8-18.1,55.7z"/>
	<path class="st14" d="M-17.7,55.9c0.1,0.1,0.1,0.2,0,0.2s-0.2,0.1-0.2,0s-0.1-0.2,0-0.2C-17.9,55.8-17.8,55.8-17.7,55.9z"/>
	<path class="st14" d="M-18,54.6c0-0.1,0-0.2,0-0.2c0.1,0,0.2,0,0.2,0c0,0.1,0,0.2,0,0.2C-17.8,54.7-17.9,54.7-18,54.6z"/>
	<path class="st14" d="M-17.5,54.9c0,0.1,0,0.2-0.1,0.2c-0.1,0-0.2,0-0.2-0.1c0-0.1,0-0.2,0.1-0.2C-17.7,54.8-17.6,54.8-17.5,54.9z"
		/>
	<path class="st14" d="M-17.4,55.3c0,0.1,0,0.2-0.1,0.2c-0.1,0-0.2,0-0.2-0.1c0-0.1,0-0.2,0.1-0.2C-17.5,55.2-17.4,55.2-17.4,55.3z"
		/>
	<path class="st14" d="M-17.6,54.1c0-0.1,0-0.2,0-0.2c0.1,0,0.2,0,0.2,0c0,0.1,0,0.2,0,0.2c0,0,0,0,0,0c0.1,0,0.1,0,0.1,0.1
		c0,0.1,0,0.2-0.1,0.2c-0.1,0-0.2,0-0.2-0.1c0-0.1,0-0.2,0.1-0.2c0,0,0,0,0,0C-17.5,54.2-17.6,54.2-17.6,54.1z"/>
	<path class="st14" d="M-17.1,54.8c0,0.1,0,0.2-0.1,0.2c-0.1,0-0.2,0-0.2-0.1c0-0.1,0-0.2,0.1-0.2C-17.2,54.6-17.1,54.7-17.1,54.8z"
		/>
	<path class="st14" d="M-17.2,53.7c0-0.1,0-0.2,0-0.2c0.1,0,0.2,0,0.2,0c0,0.1,0,0.2,0,0.2C-17.1,53.8-17.2,53.8-17.2,53.7z"/>
	<path class="st14" d="M-16.9,53.9c0,0.1,0,0.2-0.1,0.2c-0.1,0-0.2,0-0.2-0.1c0-0.1,0-0.2,0.1-0.2C-17,53.8-16.9,53.8-16.9,53.9z"/>
	<path class="st14" d="M-16.7,54.3c0,0.1,0,0.2-0.1,0.2c-0.1,0-0.2,0-0.2-0.1c0-0.1,0-0.2,0.1-0.2C-16.9,54.2-16.8,54.2-16.7,54.3z"
		/>
	<path class="st14" d="M-16.9,53.5c0-0.1,0-0.2,0-0.2c0.1,0,0.2,0,0.2,0c0,0.1,0,0.2,0,0.2C-16.7,53.5-16.8,53.5-16.9,53.5z"/>
	<path class="st14" d="M-16.3,54.5c0,0.1,0,0.2-0.1,0.2c-0.1,0-0.2,0-0.2-0.1c0-0.1,0-0.2,0.1-0.2C-16.4,54.3-16.3,54.4-16.3,54.5z"
		/>
	<path class="st14" d="M-16.3,53.9c0,0.1,0,0.2-0.1,0.2c-0.1,0-0.2,0-0.2-0.1c0,0,0-0.1,0-0.1c-0.1,0-0.1,0-0.2-0.1
		c0-0.1,0-0.2,0.1-0.2c0.1,0,0.2,0,0.2,0.1c0,0,0,0.1,0,0.1C-16.4,53.8-16.3,53.9-16.3,53.9z"/>
	<path class="st14" d="M-16.5,53C-16.5,52.9-16.4,52.9-16.5,53C-16.4,52.9-16.5,52.9-16.5,53c0-0.1,0-0.2,0-0.3c0.1,0,0.2,0,0.2,0
		c0,0.1,0,0.2,0,0.2c0,0,0,0,0,0c0,0,0,0,0,0c0,0.1,0,0.2,0,0.2c-0.1,0-0.2,0-0.2,0C-16.6,53.1-16.5,53-16.5,53z"/>
	<path class="st14" d="M-16.1,53.7c-0.1,0-0.2,0-0.2-0.1c0-0.1,0-0.2,0.1-0.2c0.1,0,0.2,0,0.2,0.1C-15.9,53.6-16,53.7-16.1,53.7z"/>
	<path class="st14" d="M-15.7,53.7c0.1,0.1,0,0.2,0,0.2c-0.1,0-0.2,0-0.2,0c0-0.1,0-0.2,0-0.2C-15.9,53.6-15.8,53.6-15.7,53.7z"/>
	<path class="st14" d="M-16,53.2c0-0.1,0-0.2,0-0.2c0.1-0.1,0.2,0,0.2,0c0.1,0.1,0,0.2,0,0.2C-15.9,53.3-15.9,53.3-16,53.2z"/>
	<path class="st14" d="M-15.5,53.3c0.1,0.1,0,0.2,0,0.2c-0.1,0-0.2,0-0.2,0c-0.1-0.1,0-0.2,0-0.2C-15.6,53.2-15.5,53.3-15.5,53.3z"
		/>
	<path class="st15" d="M-13.3,49.3c-11.9-5.2-23.8,12.1-8.6,10l0.7,0.7C-19.6,72.2-6.2,59-13.3,49.3z M-15.1,53.3l-0.8,0.9
		c0,0,0,0,0-0.1c0-0.1-0.1-0.1-0.2-0.1c-0.1,0-0.1,0.1-0.1,0.2c0,0.1,0.1,0.1,0.2,0.1l-2,2.2c0,0,0,0,0,0c0-0.1-0.1-0.2-0.1-0.2
		s-0.2,0.1-0.2,0.2s0.1,0.2,0.1,0.2c0,0,0,0,0.1,0l-0.9,1c0-0.1,0-0.2,0-0.2c-0.1-0.1-0.2-0.1-0.2,0c-0.1,0.1-0.1,0.2,0,0.2
		c0.1,0.1,0.2,0.1,0.2,0c0,0,0,0,0,0l-0.7,0.7c0-0.1,0-0.1,0-0.2c-0.1-0.1-0.2-0.1-0.2,0s-0.1,0.2,0,0.2s0.2,0.1,0.2,0l-0.5,0.5
		c-0.1,0.2-0.3,0.2-0.5,0.2c-0.1,0-0.3,0-0.4-0.1c0,0,0,0,0,0c0.1,0,0.2-0.1,0.2-0.2c0-0.1-0.1-0.2-0.2-0.2s-0.2,0.1-0.2,0.2
		c0,0,0,0,0,0c-0.2-0.3-0.2-0.7,0-1l2.1-2.3c0,0,0,0.1,0,0.2c0,0.1,0.2,0.1,0.2,0c0.1,0,0.1-0.2,0-0.2c0-0.1-0.1-0.1-0.2,0l0.9-0.9
		c0,0,0,0.1,0,0.1c0,0.1,0.2,0.1,0.2,0c0.1,0,0.1-0.2,0-0.2c0-0.1-0.1-0.1-0.2-0.1l2-2.2c0.3-0.3,0.7-0.3,1,0
		C-14.9,52.6-14.9,53-15.1,53.3z"/>
	<path class="st16" d="M-21.2,60c-2.8,2.9-4.9,5.9-5.7,9.1l-0.7-0.4c1.1-2.8,3.2-6,5.7-9.4L-21.2,60z"/>
	<path class="st17" d="M-21.5,49.5c-4.2,2.8-4.8,5.7-0.9,8.6"/>
	<path class="st17" d="M-18,48.9c-4.2,1.8-6.2,5.9-4.3,8.9"/>
	<path class="st17" d="M-17.4,50.1c-3,2.1-4.5,4.7-3.8,7.3"/>
	<path class="st17" d="M-13.3,52.1c-0.5,2.7-1.6,5.1-5.4,6.5"/>
	<path class="st17" d="M-12,54.8c0,1.2-3.3,5.1-6.7,4.7"/>
	<path class="st17" d="M-11.8,57.5c-1.4,2.4-3.5,3.8-7,3"/>
	<path class="st17" d="M-19.8,61.7c0.8,1.4,2.6,1.7,5.6,0.8"/>
	<path class="st17" d="M-26.5,52.7c-1.8,3-1,5,3.2,6"/>
	<path class="st18" d="M-15.2,52.3c-0.3-0.3-0.8-0.2-1,0l-2,2.2c0.1,0,0.1,0,0.2,0.1c0,0.1,0,0.2,0,0.2c-0.1,0-0.2,0-0.2,0
		c0,0,0-0.1,0-0.1l-0.9,0.9c0.1,0,0.2,0,0.2,0c0,0.1,0,0.2,0,0.2c-0.1,0-0.2,0-0.2,0c0,0,0-0.1,0-0.2l-2.1,2.3c-0.2,0.3-0.2,0.7,0,1
		c0,0,0,0,0,0c0-0.1,0.1-0.2,0.2-0.2s0.2,0.1,0.2,0.2c0,0.1-0.1,0.2-0.2,0.2c0,0,0,0,0,0c0.1,0.1,0.3,0.1,0.4,0.1
		c0.2,0,0.4-0.1,0.5-0.2l0.5-0.5c-0.1,0.1-0.2,0-0.2,0s0-0.2,0-0.2c0.1-0.1,0.2,0,0.2,0c0,0.1,0,0.2,0,0.2l0.7-0.7c0,0,0,0,0,0
		c-0.1,0.1-0.2,0-0.2,0c-0.1-0.1,0-0.2,0-0.2c0.1-0.1,0.2,0,0.2,0c0,0.1,0,0.2,0,0.2l0.9-1c0,0,0,0-0.1,0c-0.1,0-0.2-0.1-0.1-0.2
		c0-0.1,0.1-0.2,0.2-0.2c0.1,0,0.2,0.1,0.1,0.2c0,0,0,0,0,0l2-2.2c-0.1,0-0.1,0-0.2-0.1c0-0.1,0-0.2,0.1-0.2c0.1,0,0.2,0,0.2,0.1
		c0,0,0,0,0,0.1l0.8-0.9C-14.9,53-14.9,52.6-15.2,52.3z M-16,53c0.1-0.1,0.2,0,0.2,0c0.1,0.1,0,0.2,0,0.2c-0.1,0-0.2,0-0.2,0
		C-16.1,53.1-16,53-16,53z M-16.5,52.9c0-0.1,0-0.2,0-0.2c0.1,0,0.2,0,0.2,0c0,0.1,0,0.2,0,0.2c0,0,0,0,0,0c0,0,0,0,0,0
		c0,0.1,0,0.2,0,0.2c-0.1,0-0.2,0-0.2,0C-16.6,53.1-16.5,53-16.5,52.9C-16.5,52.9-16.4,52.9-16.5,52.9
		C-16.5,52.9-16.5,52.9-16.5,52.9z M-16.8,53.2c0.1,0,0.2,0,0.2,0c0,0.1,0,0.2,0,0.2c-0.1,0-0.2,0-0.2,0S-16.9,53.3-16.8,53.2z
		 M-16.9,54.2c-0.1,0-0.2,0-0.2-0.1c0-0.1,0-0.2,0.1-0.2c0.1,0,0.2,0,0.2,0.1C-16.8,54-16.9,54.1-16.9,54.2z M-17.2,53.5
		c0.1,0,0.2,0,0.2,0c0,0.1,0,0.2,0,0.2c-0.1,0-0.2,0-0.2,0C-17.3,53.7-17.3,53.5-17.2,53.5z M-17.5,53.9c0.1,0,0.2,0,0.2,0
		c0,0.1,0,0.2,0,0.2c0,0,0,0,0,0c0.1,0,0.1,0,0.1,0.1c0,0.1,0,0.2-0.1,0.2c-0.1,0-0.2,0-0.2-0.1c0-0.1,0-0.2,0.1-0.2c0,0,0,0,0,0
		c0,0-0.1,0-0.1-0.1C-17.6,54-17.6,53.9-17.5,53.9z M-17.6,55.1c-0.1,0-0.2,0-0.2-0.1c0-0.1,0-0.2,0.1-0.2c0.1,0,0.2,0,0.2,0.1
		C-17.5,55-17.5,55.1-17.6,55.1z M-17.9,54.3c0.1,0,0.2,0,0.2,0c0,0.1,0,0.2,0,0.2c-0.1,0-0.2,0-0.2,0C-18,54.5-18,54.4-17.9,54.3z
		 M-18.2,55C-18.1,55-18,55-18,55s0.1,0.2,0,0.2s-0.2,0.1-0.2,0C-18.3,55.2-18.3,55.1-18.2,55z M-18.2,55.7c0,0.1-0.1,0.2-0.2,0.2
		c-0.1,0-0.2-0.1-0.1-0.2c0-0.1,0.1-0.2,0.2-0.2C-18.3,55.5-18.2,55.6-18.2,55.7z M-18.6,55c0.1,0,0.2,0,0.2,0c0,0.1,0,0.2,0,0.2
		c-0.1,0-0.2,0-0.2,0C-18.7,55.2-18.6,55.1-18.6,55z M-19,55.6c0-0.1,0-0.2,0-0.2c0.1,0,0.2,0,0.2,0c0,0.1,0,0.2,0,0.2
		C-18.8,55.7-18.9,55.7-19,55.6z M-18.9,55.8c0.1,0,0.2,0,0.2,0c0,0.1,0,0.2,0,0.2c-0.1,0-0.2,0-0.2,0S-18.9,55.8-18.9,55.8z
		 M-18.6,56.4c0,0.1-0.1,0.2-0.2,0.2c-0.1,0-0.2-0.1-0.1-0.2c0-0.1,0.1-0.2,0.2-0.2C-18.6,56.2-18.5,56.3-18.6,56.4z M-19.3,56
		c0.1,0,0.2,0,0.2,0c0,0.1,0,0.2,0,0.2c-0.1,0-0.2,0-0.2,0S-19.4,56.1-19.3,56z M-19.3,56.8c0,0.1-0.1,0.2-0.2,0.2s-0.2-0.1-0.2-0.2
		c0-0.1,0.1-0.2,0.2-0.2S-19.3,56.7-19.3,56.8z M-19.6,56.2c0.1,0,0.2,0.1,0.2,0.2c0,0.1-0.1,0.2-0.2,0.2s-0.2-0.1-0.2-0.2
		S-19.7,56.2-19.6,56.2z M-20,56.7c0.1,0,0.2,0.1,0.2,0.2c0,0.1-0.1,0.2-0.2,0.2s-0.2-0.1-0.2-0.2C-20.1,56.8-20,56.7-20,56.7z
		 M-20.2,56.9c0.1,0,0.2,0.1,0.2,0.2c0,0.1-0.1,0.2-0.2,0.2s-0.2-0.1-0.2-0.2C-20.4,57-20.3,56.9-20.2,56.9z M-20.2,57.3
		c0.1,0,0.2,0.1,0.2,0.2c0,0.1-0.1,0.2-0.2,0.2s-0.2-0.1-0.2-0.2C-20.4,57.4-20.3,57.3-20.2,57.3z M-20.6,57.5
		c0.1,0,0.2,0.1,0.2,0.2c0,0.1-0.1,0.2-0.2,0.2s-0.2-0.1-0.2-0.2S-20.7,57.5-20.6,57.5z M-21.2,57.9C-21.1,57.9-21.1,57.9-21.2,57.9
		C-21.1,57.9-21.1,57.9-21.2,57.9c0-0.1,0.1-0.2,0.2-0.2s0.2,0.1,0.2,0.2c0,0.1-0.1,0.2-0.2,0.2c0,0,0,0,0,0c0,0,0,0,0,0
		c0,0.1-0.1,0.2-0.2,0.2s-0.2-0.1-0.2-0.2C-21.3,58-21.3,57.9-21.2,57.9z M-21.3,58.7c-0.1,0-0.2-0.1-0.2-0.2c0-0.1,0.1-0.2,0.2-0.2
		s0.2,0.1,0.2,0.2C-21.1,58.6-21.2,58.7-21.3,58.7z M-21.1,58.3c0-0.1,0.1-0.2,0.2-0.2s0.2,0.1,0.2,0.2c0,0.1-0.1,0.2-0.2,0.2
		C-21,58.5-21.1,58.5-21.1,58.3z M-20.8,58.9c-0.1,0-0.2-0.1-0.2-0.2c0-0.1,0.1-0.2,0.2-0.2s0.2,0.1,0.2,0.2S-20.7,58.9-20.8,58.9z
		 M-20.6,58.2c0-0.1,0.1-0.2,0.2-0.2s0.2,0.1,0.2,0.2c0,0.1-0.1,0.2-0.2,0.2S-20.6,58.2-20.6,58.2z M-20.4,58.8
		c-0.1,0-0.2-0.1-0.2-0.2c0-0.1,0.1-0.2,0.2-0.2s0.2,0.1,0.2,0.2C-20.2,58.7-20.2,58.8-20.4,58.8z M-20,58.1c-0.1,0.1-0.2,0-0.2,0
		s0-0.2,0-0.2c0.1-0.1,0.2,0,0.2,0C-19.9,57.9-19.9,58-20,58.1z M-19.9,57.5c-0.1,0-0.1-0.2-0.1-0.2c0-0.1,0.1-0.1,0.2-0.1
		c0.1,0,0.1,0.2,0.1,0.2C-19.7,57.6-19.8,57.6-19.9,57.5z M-19.5,57.9c-0.1,0.1-0.2,0-0.2,0s0-0.2,0-0.2c0.1-0.1,0.2,0,0.2,0
		C-19.4,57.8-19.4,57.9-19.5,57.9z M-19.3,57.3c0,0.1-0.1,0.1-0.2,0.1c-0.1,0-0.1-0.2-0.1-0.2c0-0.1,0.1-0.1,0.2-0.1
		C-19.3,57.2-19.2,57.3-19.3,57.3z M-19.2,56.8c-0.1,0-0.1-0.1-0.1-0.2s0.1-0.1,0.2-0.1c0.1,0,0.1,0.1,0.1,0.2
		C-19,56.8-19.1,56.9-19.2,56.8z M-18.8,57.2c0,0.1-0.1,0.1-0.2,0.1c-0.1,0-0.1-0.1-0.1-0.2s0.1-0.1,0.2-0.1
		C-18.7,57-18.7,57.1-18.8,57.2z M-18.4,56.9c0,0.1-0.1,0.1-0.2,0.1c-0.1,0-0.1-0.1-0.1-0.2s0.1-0.1,0.2-0.1S-18.4,56.8-18.4,56.9z
		 M-18.3,56.4c-0.1,0-0.2-0.1-0.1-0.2c0-0.1,0.1-0.2,0.2-0.2c0.1,0,0.2,0.1,0.1,0.2S-18.2,56.4-18.3,56.4z M-18.1,55.7
		c-0.1-0.1-0.1-0.2,0-0.2s0.2-0.1,0.2,0s0.1,0.2,0,0.2S-18,55.8-18.1,55.7z M-17.8,56.1c-0.1,0.1-0.2,0.1-0.2,0s-0.1-0.2,0-0.2
		s0.2-0.1,0.2,0C-17.7,55.9-17.7,56-17.8,56.1z M-17.5,55.5c-0.1,0-0.2,0-0.2-0.1c0-0.1,0-0.2,0.1-0.2c0.1,0,0.2,0,0.2,0.1
		C-17.4,55.4-17.4,55.5-17.5,55.5z M-17.2,55c-0.1,0-0.2,0-0.2-0.1c0-0.1,0-0.2,0.1-0.2c0.1,0,0.2,0,0.2,0.1
		C-17.1,54.8-17.1,55-17.2,55z M-16.8,54.5c-0.1,0-0.2,0-0.2-0.1c0-0.1,0-0.2,0.1-0.2c0.1,0,0.2,0,0.2,0.1
		C-16.7,54.4-16.7,54.5-16.8,54.5z M-16.3,54.5c0,0.1,0,0.2-0.1,0.2c-0.1,0-0.2,0-0.2-0.1c0-0.1,0-0.2,0.1-0.2
		C-16.4,54.3-16.3,54.4-16.3,54.5z M-16.4,54.2c-0.1,0-0.2,0-0.2-0.1c0,0,0-0.1,0-0.1c-0.1,0-0.1,0-0.2-0.1c0-0.1,0-0.2,0.1-0.2
		c0.1,0,0.2,0,0.2,0.1c0,0,0,0.1,0,0.1c0.1,0,0.1,0,0.2,0.1C-16.2,54-16.3,54.1-16.4,54.2z M-16.3,53.6c0-0.1,0-0.2,0.1-0.2
		c0.1,0,0.2,0,0.2,0.1c0,0.1,0,0.2-0.1,0.2C-16.2,53.7-16.3,53.7-16.3,53.6z M-15.8,54c-0.1,0-0.2,0-0.2,0c0-0.1,0-0.2,0-0.2
		c0.1-0.1,0.2,0,0.2,0C-15.7,53.8-15.7,53.9-15.8,54z M-15.5,53.6c-0.1,0-0.2,0-0.2,0c-0.1-0.1,0-0.2,0-0.2c0.1,0,0.2,0,0.2,0
		C-15.4,53.4-15.4,53.5-15.5,53.6z"/>
	<path class="st11" d="M-21.3,58.7c-0.1,0-0.2-0.1-0.2-0.2c0-0.1,0.1-0.2,0.2-0.2s0.2,0.1,0.2,0.2C-21.1,58.6-21.2,58.7-21.3,58.7z"
		/>
	<path class="st11" d="M-21,58.9c0,0.1-0.1,0.2-0.2,0.2c0,0,0,0,0,0c0,0,0,0-0.1-0.1c0,0,0,0-0.1-0.1c0,0,0,0,0,0
		c0-0.1,0.1-0.2,0.2-0.2C-21.1,58.8-21,58.8-21,58.9z"/>
	<path class="st11" d="M-21.3,58.1c0-0.1,0.1-0.2,0.2-0.2c0,0,0,0,0,0c0,0,0,0,0-0.1c0-0.1,0.1-0.2,0.2-0.2s0.2,0.1,0.2,0.2
		c0,0.1-0.1,0.2-0.2,0.2c0,0,0,0,0,0c0,0,0,0,0,0c0,0.1-0.1,0.2-0.2,0.2C-21.3,58.3-21.3,58.2-21.3,58.1z"/>
	<path class="st11" d="M-20.7,58.3c0,0.1-0.1,0.2-0.2,0.2s-0.2-0.1-0.2-0.2c0-0.1,0.1-0.2,0.2-0.2C-20.8,58.2-20.7,58.3-20.7,58.3z"
		/>
	<path class="st11" d="M-20.6,58.8c0,0.1-0.1,0.2-0.2,0.2c-0.1,0-0.2-0.1-0.2-0.2c0-0.1,0.1-0.2,0.2-0.2S-20.6,58.7-20.6,58.8z"/>
	<path class="st11" d="M-20.8,57.7c0-0.1,0.1-0.2,0.2-0.2s0.2,0.1,0.2,0.2c0,0.1-0.1,0.2-0.2,0.2C-20.7,57.8-20.8,57.8-20.8,57.7z"
		/>
	<path class="st11" d="M-20.5,58.3c-0.1,0-0.2-0.1-0.2-0.2c0-0.1,0.1-0.2,0.2-0.2s0.2,0.1,0.2,0.2C-20.3,58.2-20.4,58.3-20.5,58.3z"
		/>
	<path class="st11" d="M-20.2,58.6c0,0.1-0.1,0.2-0.2,0.2s-0.2-0.1-0.2-0.2c0-0.1,0.1-0.2,0.2-0.2C-20.2,58.4-20.2,58.5-20.2,58.6z"
		/>
	<path class="st11" d="M-20.4,57.5c0-0.1,0.1-0.2,0.2-0.2s0.2,0.1,0.2,0.2c0,0.1-0.1,0.2-0.2,0.2C-20.3,57.7-20.4,57.6-20.4,57.5z"
		/>
	<path class="st11" d="M-20.4,57.1c0-0.1,0.1-0.2,0.2-0.2S-20,57-20,57.1c0,0.1-0.1,0.2-0.2,0.2C-20.3,57.3-20.4,57.2-20.4,57.1z"/>
	<path class="st11" d="M-20,58.1c-0.1,0.1-0.2,0-0.2,0s0-0.2,0-0.2c0.1-0.1,0.2,0,0.2,0C-19.9,57.9-19.9,58-20,58.1z"/>
	<path class="st11" d="M-20.1,56.9c0-0.1,0.1-0.2,0.2-0.2s0.2,0.1,0.2,0.2c0,0.1-0.1,0.2-0.2,0.2S-20.1,57-20.1,56.9z"/>
	<path class="st11" d="M-19.8,58.2c0,0.1,0,0.2,0,0.2l0,0c0,0,0,0,0,0c-0.1,0.1-0.2,0-0.2,0s0-0.2,0-0.2
		C-19.9,58.2-19.8,58.2-19.8,58.2z"/>
	<path class="st11" d="M-19.7,57.2c0.1,0,0.1,0.2,0.1,0.2c0,0.1-0.1,0.1-0.2,0.1c-0.1,0-0.1-0.2-0.1-0.2
		C-19.9,57.2-19.8,57.2-19.7,57.2z"/>
	<path class="st11" d="M-19.8,56.4c0-0.1,0.1-0.2,0.2-0.2c0.1,0,0.2,0.1,0.2,0.2c0,0.1-0.1,0.2-0.2,0.2
		C-19.7,56.5-19.8,56.5-19.8,56.4z"/>
	<path class="st11" d="M-19.5,56.6c0.1,0,0.2,0.1,0.2,0.2c0,0.1-0.1,0.2-0.2,0.2s-0.2-0.1-0.2-0.2C-19.7,56.7-19.6,56.6-19.5,56.6z"
		/>
	<path class="st11" d="M-19.5,57.7c0.1,0.1,0,0.2,0,0.2c-0.1,0.1-0.2,0-0.2,0s0-0.2,0-0.2C-19.6,57.6-19.5,57.6-19.5,57.7z"/>
	<path class="st11" d="M-19.3,57.3c0,0.1-0.1,0.1-0.2,0.1c-0.1,0-0.1-0.2-0.1-0.2c0-0.1,0.1-0.1,0.2-0.1
		C-19.3,57.2-19.2,57.3-19.3,57.3z"/>
	<path class="st11" d="M-19.1,57.5c0,0.1,0,0.2,0,0.2c0,0,0,0,0,0c0,0,0,0,0,0c-0.1,0.1-0.2,0-0.2,0c-0.1-0.1,0-0.2,0-0.2
		C-19.2,57.4-19.1,57.4-19.1,57.5z"/>
	<path class="st11" d="M-19.3,56.3c0-0.1,0-0.2,0-0.2c0.1,0,0.2,0,0.2,0c0,0.1,0,0.2,0,0.2C-19.2,56.4-19.3,56.4-19.3,56.3z"/>
	<path class="st11" d="M-19.3,56.6c0-0.1,0.1-0.1,0.2-0.1c0.1,0,0.1,0.1,0.1,0.2c0,0.1-0.1,0.1-0.2,0.1S-19.3,56.7-19.3,56.6z"/>
	<path class="st11" d="M-19.2,55.9c0,0,0-0.1,0-0.2l0.1-0.1c0.1,0,0.2,0,0.2,0c0,0.1,0,0.2,0,0.2C-19,56-19.1,55.9-19.2,55.9z"/>
	<path class="st11" d="M-18.8,57.2c0,0.1-0.1,0.1-0.2,0.1c-0.1,0-0.1-0.1-0.1-0.2s0.1-0.1,0.2-0.1C-18.7,57-18.7,57.1-18.8,57.2z"/>
	<path class="st11" d="M-19,55.6c0-0.1,0-0.2,0-0.2c0.1,0,0.2,0,0.2,0c0,0.1,0,0.2,0,0.2C-18.8,55.7-18.9,55.7-19,55.6z"/>
	<path class="st11" d="M-18.9,56c0-0.1,0-0.2,0-0.2c0.1,0,0.2,0,0.2,0c0,0.1,0,0.2,0,0.2C-18.7,56.1-18.8,56.1-18.9,56z"/>
	<path class="st11" d="M-18.9,56.4c0-0.1,0.1-0.2,0.2-0.2c0.1,0,0.2,0.1,0.1,0.2c0,0.1-0.1,0.2-0.2,0.2
		C-18.8,56.6-18.9,56.5-18.9,56.4z"/>
	<path class="st11" d="M-18.4,56.9c0,0.1-0.1,0.1-0.2,0.1c-0.1,0-0.1-0.1-0.1-0.2s0.1-0.1,0.2-0.1S-18.4,56.8-18.4,56.9z"/>
	<path class="st11" d="M-18.6,55.3c0-0.1,0-0.2,0-0.2c0.1,0,0.2,0,0.2,0c0,0.1,0,0.2,0,0.2C-18.5,55.4-18.6,55.3-18.6,55.3z"/>
	<path class="st11" d="M-18.4,55.5c0.1,0,0.2,0.1,0.1,0.2c0,0.1-0.1,0.2-0.2,0.2c-0.1,0-0.2-0.1-0.1-0.2S-18.5,55.5-18.4,55.5z"/>
	<path class="st11" d="M-18.4,56.2c0-0.1,0.1-0.2,0.2-0.2c0.1,0,0.2,0.1,0.1,0.2s-0.1,0.2-0.2,0.2C-18.4,56.3-18.4,56.3-18.4,56.2z"
		/>
	<path class="st11" d="M-18,56.5C-18,56.6-18,56.6-18,56.5l-0.1,0.1c0,0,0,0-0.1,0c-0.1,0-0.2-0.1-0.1-0.2c0-0.1,0.1-0.2,0.2-0.2
		C-18.1,56.4-18,56.5-18,56.5z"/>
	<path class="st11" d="M-18.3,54.8c0,0,0-0.1,0-0.1l0.1-0.1c0.1,0,0.1,0,0.2,0.1c0,0.1,0,0.2,0,0.2C-18.1,54.9-18.2,54.9-18.3,54.8z
		"/>
	<path class="st11" d="M-18.2,55.3c-0.1-0.1-0.1-0.2,0-0.2S-18,55-18,55s0.1,0.2,0,0.2C-18,55.4-18.1,55.3-18.2,55.3z"/>
	<path class="st11" d="M-18.1,55.7c-0.1-0.1-0.1-0.2,0-0.2s0.2-0.1,0.2,0s0.1,0.2,0,0.2S-18,55.8-18.1,55.7z"/>
	<path class="st11" d="M-17.7,55.9c0.1,0.1,0.1,0.2,0,0.2s-0.2,0.1-0.2,0s-0.1-0.2,0-0.2C-17.9,55.8-17.8,55.8-17.7,55.9z"/>
	<path class="st11" d="M-18,54.6c0-0.1,0-0.2,0-0.2c0.1,0,0.2,0,0.2,0c0,0.1,0,0.2,0,0.2C-17.8,54.7-17.9,54.7-18,54.6z"/>
	<path class="st11" d="M-17.9,55c0-0.1,0-0.2,0.1-0.2c0.1,0,0.2,0,0.2,0.1c0,0.1,0,0.2-0.1,0.2C-17.7,55.2-17.8,55.1-17.9,55z"/>
	<path class="st11" d="M-17.4,55.3c0,0.1,0,0.2-0.1,0.2c-0.1,0-0.2,0-0.2-0.1c0-0.1,0-0.2,0.1-0.2C-17.5,55.2-17.4,55.2-17.4,55.3z"
		/>
	<path class="st11" d="M-17.6,54.1c0-0.1,0-0.2,0-0.2c0.1,0,0.2,0,0.2,0c0,0.1,0,0.2,0,0.2c0,0,0,0,0,0c0.1,0,0.1,0,0.1,0.1
		c0,0.1,0,0.2-0.1,0.2c-0.1,0-0.2,0-0.2-0.1c0-0.1,0-0.2,0.1-0.2c0,0,0,0,0,0C-17.5,54.2-17.6,54.2-17.6,54.1z"/>
	<path class="st11" d="M-17.1,54.8c0,0.1,0,0.2-0.1,0.2c-0.1,0-0.2,0-0.2-0.1c0-0.1,0-0.2,0.1-0.2C-17.2,54.6-17.1,54.7-17.1,54.8z"
		/>
	<path class="st11" d="M-17.2,53.7c0-0.1,0-0.2,0-0.2c0.1,0,0.2,0,0.2,0c0,0.1,0,0.2,0,0.2C-17.1,53.8-17.2,53.8-17.2,53.7z"/>
	<path class="st11" d="M-16.9,53.9c0,0.1,0,0.2-0.1,0.2c-0.1,0-0.2,0-0.2-0.1c0-0.1,0-0.2,0.1-0.2C-17,53.8-16.9,53.8-16.9,53.9z"/>
	<path class="st11" d="M-16.7,54.3c0,0.1,0,0.2-0.1,0.2c-0.1,0-0.2,0-0.2-0.1c0-0.1,0-0.2,0.1-0.2C-16.9,54.2-16.8,54.2-16.7,54.3z"
		/>
	<path class="st11" d="M-16.9,53.5c0-0.1,0-0.2,0-0.2c0.1,0,0.2,0,0.2,0c0,0.1,0,0.2,0,0.2C-16.7,53.5-16.8,53.5-16.9,53.5z"/>
	<path class="st11" d="M-16.3,54.5c0,0.1,0,0.2-0.1,0.2c-0.1,0-0.2,0-0.2-0.1c0-0.1,0-0.2,0.1-0.2C-16.4,54.3-16.3,54.4-16.3,54.5z"
		/>
	<path class="st11" d="M-16.6,53.9c-0.1,0-0.1,0-0.2-0.1c0-0.1,0-0.2,0.1-0.2c0.1,0,0.2,0,0.2,0.1c0,0,0,0.1,0,0.1
		c0.1,0,0.1,0,0.2,0.1c0,0.1,0,0.2-0.1,0.2c-0.1,0-0.2,0-0.2-0.1C-16.6,54-16.6,54-16.6,53.9z"/>
	<path class="st11" d="M-16.5,53C-16.5,52.9-16.4,52.9-16.5,53C-16.4,52.9-16.5,52.9-16.5,53c0-0.1,0-0.2,0-0.3c0.1,0,0.2,0,0.2,0
		c0,0.1,0,0.2,0,0.2c0,0,0,0,0,0c0,0,0,0,0,0c0,0.1,0,0.2,0,0.2c-0.1,0-0.2,0-0.2,0C-16.6,53.1-16.5,53-16.5,53z"/>
	<path class="st11" d="M-16.2,53.4c0.1,0,0.2,0,0.2,0.1c0,0.1,0,0.2-0.1,0.2c-0.1,0-0.2,0-0.2-0.1C-16.3,53.5-16.3,53.4-16.2,53.4z"
		/>
	<path class="st11" d="M-16,54.2C-15.9,54.2-15.9,54.2-16,54.2l-0.1,0.2c-0.1,0-0.1,0-0.2-0.1c0-0.1,0-0.2,0.1-0.2
		C-16.1,54-16,54.1-16,54.2z"/>
	<path class="st11" d="M-15.7,53.7c0.1,0.1,0,0.2,0,0.2c-0.1,0-0.2,0-0.2,0c0-0.1,0-0.2,0-0.2C-15.9,53.6-15.8,53.6-15.7,53.7z"/>
	<path class="st11" d="M-16,53.2c0-0.1,0-0.2,0-0.2c0.1-0.1,0.2,0,0.2,0c0.1,0.1,0,0.2,0,0.2C-15.9,53.3-15.9,53.3-16,53.2z"/>
	<path class="st11" d="M-15.5,53.6c-0.1,0-0.2,0-0.2,0c-0.1-0.1,0-0.2,0-0.2c0.1,0,0.2,0,0.2,0C-15.4,53.4-15.4,53.5-15.5,53.6z"/>
	<path class="st19" d="M-20.6,58.8c0,0.1-0.1,0.2-0.2,0.2c-0.1,0-0.2-0.1-0.2-0.2c0-0.1,0.1-0.2,0.2-0.2S-20.6,58.7-20.6,58.8z"/>
	<path class="st19" d="M-20.2,58.6c0,0.1-0.1,0.2-0.2,0.2s-0.2-0.1-0.2-0.2c0-0.1,0.1-0.2,0.2-0.2C-20.2,58.4-20.2,58.5-20.2,58.6z"
		/>
	<path class="st19" d="M-20.7,58.3c0,0.1-0.1,0.2-0.2,0.2s-0.2-0.1-0.2-0.2c0-0.1,0.1-0.2,0.2-0.2C-20.8,58.2-20.7,58.3-20.7,58.3z"
		/>
	<path class="st19" d="M-20.3,58.2c0,0.1-0.1,0.2-0.2,0.2c-0.1,0-0.2-0.1-0.2-0.2c0-0.1,0.1-0.2,0.2-0.2
		C-20.4,58-20.3,58.1-20.3,58.2z"/>
	<path class="st19" d="M-20.4,57.7c0,0.1-0.1,0.2-0.2,0.2s-0.2-0.1-0.2-0.2c0-0.1,0.1-0.2,0.2-0.2C-20.5,57.5-20.4,57.6-20.4,57.7z"
		/>
	<path class="st19" d="M-20,57.5c0,0.1-0.1,0.2-0.2,0.2s-0.2-0.1-0.2-0.2c0-0.1,0.1-0.2,0.2-0.2C-20.1,57.3-20,57.4-20,57.5z"/>
	<path class="st19" d="M-20,57.1c0,0.1-0.1,0.2-0.2,0.2s-0.2-0.1-0.2-0.2c0-0.1,0.1-0.2,0.2-0.2S-20,57-20,57.1z"/>
	<path class="st19" d="M-19.3,56.8c0,0.1-0.1,0.2-0.2,0.2s-0.2-0.1-0.2-0.2c0-0.1,0.1-0.2,0.2-0.2S-19.3,56.7-19.3,56.8z"/>
	<path class="st19" d="M-19.8,56.9c0,0.1-0.1,0.2-0.2,0.2s-0.2-0.1-0.2-0.2c0-0.1,0.1-0.2,0.2-0.2C-19.9,56.7-19.8,56.8-19.8,56.9z"
		/>
	<path class="st19" d="M-19.4,56.4c0,0.1-0.1,0.2-0.2,0.2s-0.2-0.1-0.2-0.2c0-0.1,0.1-0.2,0.2-0.2C-19.5,56.2-19.4,56.3-19.4,56.4z"
		/>
	<path class="st19" d="M-19.1,56.3c-0.1,0-0.2,0-0.2,0c0-0.1,0-0.2,0-0.2c0.1,0,0.2,0,0.2,0C-19,56.2-19,56.3-19.1,56.3z"/>
	<path class="st19" d="M-18.6,56.1c-0.1,0-0.2,0-0.2,0s0-0.2,0-0.2c0.1,0,0.2,0,0.2,0C-18.6,55.9-18.6,56-18.6,56.1z"/>
	<path class="st19" d="M-19,55.9c-0.1,0-0.2,0-0.2,0c0,0,0-0.1,0-0.2c0,0,0,0,0.1-0.1l0,0c0.1,0,0.2,0,0.2,0
		C-18.9,55.8-18.9,55.8-19,55.9z"/>
	<path class="st19" d="M-18.7,55.6c-0.1,0-0.2,0-0.2,0c0-0.1,0-0.2,0-0.2c0.1,0,0.2,0,0.2,0C-18.6,55.5-18.6,55.6-18.7,55.6z"/>
	<path class="st19" d="M-18.4,55.3c-0.1,0-0.2,0-0.2,0c0-0.1,0-0.2,0-0.2c0.1,0,0.2,0,0.2,0C-18.3,55.2-18.3,55.2-18.4,55.3z"/>
	<path class="st19" d="M-18,54.8c-0.1,0-0.2,0-0.2,0c0,0,0-0.1,0-0.1c0,0,0-0.1,0.1-0.1c0,0,0,0,0.1,0c0.1,0,0.1,0,0.2,0.1
		C-17.9,54.7-18,54.8-18,54.8z"/>
	<path class="st19" d="M-17.7,54.6c-0.1,0-0.2,0-0.2,0c0-0.1,0-0.2,0-0.2c0.1,0,0.2,0,0.2,0C-17.6,54.5-17.6,54.6-17.7,54.6z"/>
	<path class="st19" d="M-16.6,53.5c-0.1,0-0.2,0-0.2,0c0-0.1,0-0.2,0-0.2c0.1,0,0.2,0,0.2,0S-16.6,53.4-16.6,53.5z"/>
	<path class="st19" d="M-16.3,53.2c-0.1,0-0.2,0-0.2,0c0-0.1,0-0.2,0-0.2c0,0,0,0,0,0c0.1,0,0.1,0,0.2,0c0,0,0,0,0,0
		C-16.2,53.1-16.2,53.2-16.3,53.2z"/>
	<path class="st19" d="M-17,53.8c-0.1,0-0.2,0-0.2,0c0-0.1,0-0.2,0-0.2c0.1,0,0.2,0,0.2,0C-16.9,53.6-16.9,53.7-17,53.8z"/>
	<path class="st19" d="M-17.4,54.2C-17.4,54.2-17.4,54.2-17.4,54.2c-0.1,0-0.1,0-0.1,0c0,0-0.1,0-0.1-0.1c0-0.1,0-0.2,0-0.2
		c0.1,0,0.2,0,0.2,0C-17.3,54-17.3,54.1-17.4,54.2z"/>
	<path class="st19" d="M-15.8,53.2c-0.1,0-0.2,0-0.2,0c0-0.1,0-0.2,0-0.2c0.1-0.1,0.2,0,0.2,0C-15.7,53.1-15.7,53.2-15.8,53.2z"/>
	<path class="st19" d="M-16.2,52.9C-16.2,52.9-16.3,52.9-16.2,52.9c-0.1,0-0.1,0-0.2,0c0,0,0,0,0,0c0-0.1,0-0.2,0-0.2
		c0.1,0,0.2,0,0.2,0C-16.1,52.8-16.2,52.9-16.2,52.9z"/>
	<path class="st19" d="M-15.5,53.6c-0.1,0-0.2,0-0.2,0c-0.1-0.1,0-0.2,0-0.2c0.1,0,0.2,0,0.2,0C-15.4,53.4-15.4,53.5-15.5,53.6z"/>
	<path class="st19" d="M-15.8,54c-0.1,0-0.2,0-0.2,0c0-0.1,0-0.2,0-0.2c0.1-0.1,0.2,0,0.2,0C-15.7,53.8-15.7,53.9-15.8,54z"/>
	<path class="st19" d="M-15.9,54.3c0,0.1,0,0.1-0.1,0.2c0,0,0,0,0,0c-0.1,0-0.1,0-0.2-0.1c0-0.1,0-0.2,0.1-0.2
		C-16.1,54-16,54.1-15.9,54.3C-15.9,54.2-15.9,54.2-15.9,54.3z"/>
	<path class="st19" d="M-16.4,54.2c-0.1,0-0.2,0-0.2-0.1c0,0,0-0.1,0-0.1s0-0.1,0.1-0.1c0,0,0,0,0,0c0.1,0,0.1,0,0.2,0.1
		C-16.2,54-16.3,54.1-16.4,54.2z"/>
	<path class="st19" d="M-16.1,53.7c-0.1,0-0.2,0-0.2-0.1c0-0.1,0-0.2,0.1-0.2c0.1,0,0.2,0,0.2,0.1C-15.9,53.6-16,53.7-16.1,53.7z"/>
	<path class="st19" d="M-16.5,53.8C-16.5,53.9-16.5,53.9-16.5,53.8c-0.1,0.1-0.1,0.1-0.1,0.1c-0.1,0-0.1,0-0.2-0.1
		c0-0.1,0-0.2,0.1-0.2c0.1,0,0.2,0,0.2,0.1C-16.4,53.8-16.4,53.8-16.5,53.8z"/>
	<path class="st19" d="M-16.9,54.2c-0.1,0-0.2,0-0.2-0.1c0-0.1,0-0.2,0.1-0.2c0.1,0,0.2,0,0.2,0.1C-16.8,54-16.9,54.1-16.9,54.2z"/>
	<path class="st19" d="M-16.8,54.5c-0.1,0-0.2,0-0.2-0.1c0-0.1,0-0.2,0.1-0.2c0.1,0,0.2,0,0.2,0.1C-16.7,54.4-16.7,54.5-16.8,54.5z"
		/>
	<path class="st19" d="M-16.4,54.7c-0.1,0-0.2,0-0.2-0.1c0-0.1,0-0.2,0.1-0.2c0.1,0,0.2,0,0.2,0.1C-16.2,54.5-16.3,54.6-16.4,54.7z"
		/>
	<path class="st19" d="M-17.2,55c-0.1,0-0.2,0-0.2-0.1c0-0.1,0-0.2,0.1-0.2c0.1,0,0.2,0,0.2,0.1C-17.1,54.8-17.1,55-17.2,55z"/>
	<path class="st19" d="M-17.3,54.5c-0.1,0-0.2,0-0.2-0.1c0-0.1,0-0.2,0.1-0.2c0,0,0,0,0,0c0,0,0,0,0.1,0c0.1,0,0.1,0,0.1,0.1
		C-17.2,54.4-17.2,54.5-17.3,54.5z"/>
	<path class="st19" d="M-17.6,55.1c-0.1,0-0.2,0-0.2-0.1c0-0.1,0-0.2,0.1-0.2c0.1,0,0.2,0,0.2,0.1C-17.5,55-17.5,55.1-17.6,55.1z"/>
	<path class="st19" d="M-17.5,55.5c-0.1,0-0.2,0-0.2-0.1c0-0.1,0-0.2,0.1-0.2c0.1,0,0.2,0,0.2,0.1C-17.4,55.4-17.4,55.5-17.5,55.5z"
		/>
	<path class="st19" d="M-17.8,56.1c-0.1,0.1-0.2,0.1-0.2,0s-0.1-0.2,0-0.2s0.2-0.1,0.2,0C-17.7,55.9-17.7,56-17.8,56.1z"/>
	<path class="st19" d="M-17.8,55.7c-0.1,0.1-0.2,0.1-0.2,0s-0.1-0.2,0-0.2s0.2-0.1,0.2,0C-17.8,55.5-17.8,55.6-17.8,55.7z"/>
	<path class="st19" d="M-18.2,55.7c0,0.1-0.1,0.2-0.2,0.2c-0.1,0-0.2-0.1-0.1-0.2c0-0.1,0.1-0.2,0.2-0.2
		C-18.3,55.5-18.2,55.6-18.2,55.7z"/>
	<path class="st19" d="M-18.1,56.2c0,0.1-0.1,0.2-0.2,0.2c-0.1,0-0.2-0.1-0.1-0.2c0-0.1,0.1-0.2,0.2-0.2
		C-18.1,56-18.1,56.1-18.1,56.2z"/>
	<path class="st19" d="M-18.6,56.4c0,0.1-0.1,0.2-0.2,0.2c-0.1,0-0.2-0.1-0.1-0.2c0-0.1,0.1-0.2,0.2-0.2
		C-18.6,56.2-18.5,56.3-18.6,56.4z"/>
	<path class="st19" d="M-18,56.5C-18,56.6-18,56.6-18,56.5c0,0.1-0.1,0.1-0.1,0.1c0,0,0,0-0.1,0c-0.1,0-0.2-0.1-0.1-0.2
		c0-0.1,0.1-0.2,0.2-0.2C-18.1,56.4-18,56.5-18,56.5z"/>
	<path class="st19" d="M-18.4,56.9c0,0.1-0.1,0.1-0.2,0.1c-0.1,0-0.1-0.1-0.1-0.2s0.1-0.1,0.2-0.1S-18.4,56.8-18.4,56.9z"/>
	<path class="st19" d="M-19,56.8c0,0.1-0.1,0.1-0.2,0.1c-0.1,0-0.1-0.1-0.1-0.2s0.1-0.1,0.2-0.1C-19,56.6-18.9,56.7-19,56.8z"/>
	<path class="st19" d="M-18.8,57.2c0,0.1-0.1,0.1-0.2,0.1c-0.1,0-0.1-0.1-0.1-0.2s0.1-0.1,0.2-0.1C-18.7,57-18.7,57.1-18.8,57.2z"/>
	<path class="st19" d="M-19.3,57.3c0,0.1-0.1,0.1-0.2,0.1c-0.1,0-0.1-0.2-0.1-0.2c0-0.1,0.1-0.1,0.2-0.1
		C-19.3,57.2-19.2,57.3-19.3,57.3z"/>
	<path class="st19" d="M-19.6,57.5c0,0.1-0.1,0.1-0.2,0.1c-0.1,0-0.1-0.2-0.1-0.2c0-0.1,0.1-0.1,0.2-0.1
		C-19.6,57.3-19.6,57.4-19.6,57.5z"/>
	<path class="st19" d="M-19.5,57.9c-0.1,0.1-0.2,0-0.2,0s0-0.2,0-0.2c0.1-0.1,0.2,0,0.2,0C-19.4,57.8-19.4,57.9-19.5,57.9z"/>
	<path class="st19" d="M-20,58.1c-0.1,0.1-0.2,0-0.2,0s0-0.2,0-0.2c0.1-0.1,0.2,0,0.2,0C-19.9,57.9-19.9,58-20,58.1z"/>
	<path class="st19" d="M-19.8,58.5L-19.8,58.5C-19.8,58.5-19.8,58.5-19.8,58.5c-0.1,0.1-0.2,0.1-0.3,0s0-0.2,0-0.2
		c0.1-0.1,0.2,0,0.2,0C-19.7,58.3-19.7,58.4-19.8,58.5z"/>
	<path class="st19" d="M-19.1,57.7L-19.1,57.7C-19.1,57.7-19.1,57.7-19.1,57.7c-0.1,0.1-0.2,0.1-0.3,0c-0.1-0.1,0-0.2,0-0.2
		c0.1-0.1,0.2,0,0.2,0C-19,57.5-19,57.6-19.1,57.7z"/>
	<path class="st19" d="M-18,55.3c-0.1,0.1-0.2,0.1-0.2,0s-0.1-0.2,0-0.2S-18,55-18,55S-17.9,55.2-18,55.3z"/>
	<path class="st19" d="M-21,58.9c0,0.1-0.1,0.2-0.2,0.2c0,0,0,0,0,0c-0.1,0-0.1-0.1-0.1-0.1c0,0,0,0,0,0c0-0.1,0.1-0.2,0.2-0.2
		C-21.1,58.8-21,58.8-21,58.9z"/>
	<path class="st19" d="M-21,58.1c0,0.1-0.1,0.2-0.2,0.2s-0.2-0.1-0.2-0.2c0-0.1,0.1-0.2,0.2-0.2c0,0,0,0,0,0
		C-21.1,57.9-21,58-21,58.1C-21,58.1-21,58.1-21,58.1z"/>
	<path class="st19" d="M-21.1,58.5c0,0.1-0.1,0.2-0.2,0.2s-0.2-0.1-0.2-0.2c0-0.1,0.1-0.2,0.2-0.2C-21.2,58.3-21.1,58.4-21.1,58.5z"
		/>
	<path class="st19" d="M-20.8,57.9c0,0.1-0.1,0.2-0.2,0.2c0,0,0,0,0,0c0,0-0.1-0.1-0.1-0.1c0,0,0,0,0-0.1c0-0.1,0.1-0.2,0.2-0.2
		C-20.9,57.7-20.8,57.8-20.8,57.9z"/>
</g>
<g>
	<path class="st20" d="M170.3-137.8v4h-2.8c-0.6,0-0.6-4,0-4H170.3z"/>
	<line class="st21" x1="167.6" y1="-137.8" x2="167.5" y2="-137.8"/>
	<path class="st20" d="M186.3-124.9h-5.1c-0.6,0-1.1-0.5-1.1-1.1l0,0c0-0.6,0.5-1.1,1.1-1.1h5.1c0.6,0,1.1,0.5,1.1,1.1l0,0
		C187.4-125.4,186.9-124.9,186.3-124.9z"/>
	<line class="st22" x1="164.3" y1="-134.3" x2="156.3" y2="-131.9"/>
	<line class="st22" x1="155.6" y1="-137" x2="163.6" y2="-136.2"/>
	<line class="st22" x1="157" y1="-142.2" x2="164.4" y2="-137.3"/>
	<line class="st21" x1="172.2" y1="-126.4" x2="173.1" y2="-126.4"/>
	<path class="st23" d="M193-99.3c-0.4,0.4-1,0.7-1.6,0.7h-15.7c-0.7,0-1.3-0.3-1.7-0.8l4.7-25.4h9.5L193-99.3z"/>
	<line class="st21" x1="181.4" y1="-127.1" x2="181.4" y2="-124.8"/>
	<line class="st21" x1="183.5" y1="-127.2" x2="183.5" y2="-124.9"/>
	<line class="st21" x1="185.6" y1="-127.2" x2="185.6" y2="-124.9"/>
	<polygon class="st20" points="186.4,-137.8 186.4,-127.1 181.4,-127.1 176.6,-132.2 173.2,-132.2 172.2,-132.2 170.3,-133.8 
		170.3,-137.8 	"/>
	<path class="st21" d="M173.2-132.2c1.9,2,2.2,3.9,0,5.7"/>
	<path class="st21" d="M172.2-132.2c1.9,2,2.2,3.9,0,5.7"/>
</g>
<g>
	<path class="st24" d="M341.7-114.9h-53.2c0-8.1,11.9-14.7,26.6-14.7C329.8-129.6,341.7-123,341.7-114.9z"/>
	<path class="st24" d="M334-92.6h-38.1c-4.2,0-7.7-3.4-7.7-7.7v0h53.5v0C341.7-96,338.3-92.6,334-92.6z"/>
	<g>
		<g>
			<g>
				<path class="st25" d="M324.5-96.7c1.6,0.2,3.2,0.2,4.8,0c-0.4-1.6-0.8-3.1-1.3-4.7c-0.2,0.1-0.4,0.2-0.7,0.3
					c0.2-0.1,0.4-0.2,0.6-0.3c-0.4,0.2-0.8,0.2-1.2,0.3c0.2,0,0.4-0.1,0.7-0.1c-0.7,0.1-1.3,0-2,0c0.2,0,0.4,0.1,0.7,0.1
					c-1.5-0.2-3-0.6-4.6-0.7c-1,0-1.9,0.7-2.3,1.5c-0.4,1-0.1,1.9,0.5,2.7c0.8,0.9,2,1.1,3.1,1.2c0.8,0.1,1.6,0.2,2.4,0.3
					c0.6,0.1,1.4-0.3,1.8-0.7c0.4-0.4,0.8-1.1,0.7-1.8c0-0.6-0.2-1.3-0.7-1.8c-0.5-0.5-1.1-0.6-1.8-0.7c-0.9-0.1-1.9-0.2-2.8-0.4
					c0.2,0,0.4,0.1,0.7,0.1c-0.2,0-0.4-0.1-0.5-0.1c0.2,0.1,0.4,0.2,0.6,0.3c-0.1,0-0.2-0.1-0.3-0.2c0.2,0.1,0.3,0.3,0.5,0.4
					c-0.1,0-0.1-0.1-0.1-0.2c-0.6,1.4-1.2,2.8-1.8,4.3c0.3,0,0.6,0,0.9,0.1c-0.2,0-0.4-0.1-0.7-0.1c1.5,0.2,3,0.6,4.5,0.7
					c1.5,0.1,3.1-0.2,4.4-1c0.9-0.6,1.5-1.7,1.1-2.8c-0.1-0.4-0.3-0.8-0.6-1.1c-0.4-0.4-1.2-0.8-1.8-0.7c-1.6,0.1-3.2,0.1-4.8,0
					c-0.6-0.1-1.4,0.3-1.8,0.7c-0.4,0.4-0.8,1.1-0.7,1.8c0,0.6,0.2,1.3,0.7,1.8C323.2-97,323.8-96.8,324.5-96.7L324.5-96.7z"/>
			</g>
		</g>
		<g>
			<g>
				<path class="st25" d="M315.6-98.9c0.1,0,0.2,0,0.4,0c0.1,0,0.3,0,0.1,0c0.2,0,0.4,0.1,0.6,0.2c0,0,0.4,0.1,0.2,0.1
					c0.1,0,0.2,0.1,0.3,0.1c0.2,0.1,0.4,0.2,0.6,0.3c0.9,0.5,1.8,0.9,2.8,1.2c0-0.6,0-1.3,0-1.9c-0.1,0-0.1,0,0,0c0,0-0.1,0-0.1,0
					c0.1,0,0.1,0,0,0c0,0-0.1,0-0.1,0c-0.2-0.1-0.4-0.1-0.5-0.2c-0.4-0.2-0.8-0.3-1.1-0.5c-0.1,0-0.2-0.1-0.3-0.1c-0.1,0-0.1,0,0,0
					c0,0-0.1,0-0.1-0.1c-0.2-0.1-0.4-0.2-0.5-0.2c-0.4-0.2-0.7-0.3-1.1-0.5c-0.5-0.2-1.1-0.1-1.4,0.4
					C315-99.8,315.1-99.1,315.6-98.9c0.8,0.5,1.7,0.9,2.6,1.2c0.4,0.2,0.8,0.3,1.2,0.5c0.5,0.2,1.1,0.3,1.6,0.2
					c0.4-0.1,0.8-0.5,0.7-1c0-0.5-0.3-0.8-0.7-1c-0.1-0.1-0.2-0.1-0.4-0.2c0.1,0.1-0.2-0.1-0.2-0.1c-0.2-0.1-0.4-0.2-0.6-0.3
					c-0.4-0.2-0.9-0.4-1.3-0.6c-0.9-0.4-1.9-0.9-2.9-0.8c-0.5,0-1,0.4-1,1C314.6-99.4,315-98.9,315.6-98.9L315.6-98.9z"/>
			</g>
		</g>
		<g>
			<g>
				<path class="st25" d="M304.9-96.3c1.8,0.1,3.6-0.1,5.3-0.7c1.6-0.6,3-1.6,4.6-1.9c-0.3-0.6-0.6-1.1-1-1.7
					c-0.2,0.2-0.6,0.2-0.9,0.3c-0.5,0.2-1,0.4-1.4,0.6c-0.8,0.3-1.6,0.7-2.4,0.8c-1.3,0.1-1.3,2.1,0,2c1.2-0.1,2.2-0.5,3.3-1
					c0.5-0.2,0.9-0.4,1.4-0.5c0.5-0.2,1.1-0.3,1.5-0.7c0.7-0.8,0-1.8-1-1.7c-1.6,0.3-2.9,1.3-4.5,1.9c-1.6,0.6-3.2,0.8-4.9,0.7
					c-0.5,0-1,0.5-1,1C303.9-96.7,304.4-96.4,304.9-96.3L304.9-96.3z"/>
			</g>
		</g>
		<g>
			<g>
				<path class="st25" d="M297.6-98.7c1.4,0.2,2.9,0.5,4.3,1c1.2,0.4,2.2,1.4,3.5,1.6c0.1-0.7,0.2-1.3,0.3-2
					c-0.6-0.1-1.3-0.1-1.9-0.2c-0.6-0.1-1.2-0.4-1.9-0.6c-0.6-0.2-1.3-0.5-1.9-0.7c-0.3-0.1-0.6-0.3-1-0.4c-0.2-0.1-0.1-0.1-0.2-0.1
					c-0.1,0-0.1-0.1,0,0.1c-0.2-0.5-0.7-0.8-1.2-0.7c-0.5,0.1-0.9,0.7-0.7,1.2c0.3,0.8,1,1.1,1.7,1.5c0.8,0.3,1.5,0.6,2.3,0.9
					c0.7,0.3,1.4,0.6,2.2,0.7c0.8,0.2,1.7,0.2,2.5,0.3c0.5,0,0.9-0.4,1-0.9c0.1-0.4-0.2-1-0.7-1.1c-0.6-0.1-1.1-0.4-1.6-0.7
					c-0.6-0.4-1.2-0.7-1.9-0.9c-1.4-0.5-2.8-0.8-4.3-1c-0.5-0.1-1.1,0.1-1.2,0.7C296.7-99.5,297-98.8,297.6-98.7L297.6-98.7z"/>
			</g>
		</g>
		<g>
			<g>
				<path class="st25" d="M288.9-101.7c-0.5,0.5-1.1,0.9-1.6,1.4c-0.5,0.4-1.1,1-1.1,1.7c0,1.8,2.4,1.3,3.4,1
					c1.3-0.3,2.5-0.3,3.8-0.7c0.6-0.2,1.1-0.4,1.7-0.4c0.7-0.1,1.4,0,2-0.3c0.5-0.2,0.8-0.7,0.7-1.2c-0.1-0.5-0.7-0.9-1.2-0.7
					c-0.7,0.3-1.5,0.2-2.3,0.3c-0.8,0.1-1.5,0.5-2.3,0.6c-0.8,0.2-1.6,0.2-2.4,0.3c-0.4,0.1-0.8,0.2-1.2,0.3c-0.1,0-0.3,0.1-0.4,0.1
					c-0.1,0-0.2,0-0.3,0c-0.2,0-0.2,0,0,0.1c0.1,0.1,0.2,0.2,0.4,0.4c0,0,0,0,0,0c0,0.2,0,0.4,0,0.5c0-0.1,0.1-0.2,0-0.1
					c0.1-0.1,0.2-0.2,0.3-0.3c0.2-0.2,0.4-0.3,0.6-0.5c0.4-0.4,0.9-0.7,1.3-1.1c0.4-0.3,0.4-1.1,0-1.4
					C289.9-102.1,289.3-102.1,288.9-101.7L288.9-101.7z"/>
			</g>
		</g>
		<g>
			<g>
				<path class="st25" d="M291.2-101.7c-0.5,0-1,0-1.4,0.1c-0.2,0-0.3,0.1-0.4,0.3c-0.1,0.1-0.2,0.3-0.3,0.4c0,0.2,0,0.4,0,0.5
					c0,0.2,0.1,0.3,0.3,0.4c0.1,0.1,0.2,0.1,0.3,0.2c0.1,0.1,0.2,0.1,0.3,0.1c0,0,0.1,0,0.1,0c0.1,0,0.2,0,0.4,0
					c0.1,0,0.3,0,0.4-0.1c0.1,0,0.2-0.1,0.3-0.2c0.1-0.1,0.2-0.2,0.2-0.3c0.1-0.1,0.1-0.2,0.1-0.4c0-0.3-0.1-0.5-0.3-0.7
					c-0.1-0.1-0.1-0.1-0.2-0.2c-0.2-0.1-0.3-0.1-0.5-0.1c0,0,0,0-0.1,0c0.1,0,0.2,0,0.3,0c0,0-0.1,0-0.1,0c0.1,0,0.2,0.1,0.2,0.1
					c0,0-0.1,0-0.1-0.1c0.1,0.1,0.1,0.1,0.2,0.2c0,0,0,0,0,0c-0.1,0.6-0.3,1.1-0.4,1.7c0.1,0,0.1,0,0.2,0c-0.1,0-0.2,0-0.3,0
					c0.3,0,0.7-0.1,1,0c0.1,0,0.3,0,0.4-0.1c0.1,0,0.2-0.1,0.3-0.2c0.1-0.1,0.2-0.2,0.2-0.3c0.1-0.1,0.1-0.2,0.1-0.4
					c0-0.3-0.1-0.5-0.3-0.7c-0.1-0.1-0.1-0.1-0.2-0.2C291.5-101.7,291.4-101.7,291.2-101.7L291.2-101.7z"/>
			</g>
		</g>
		<g>
			<g>
				<path class="st25" d="M290.4-99.4c1.3,0,1.3-2,0-2C289.1-101.4,289.1-99.4,290.4-99.4L290.4-99.4z"/>
			</g>
		</g>
		<g>
			<g>
				<path class="st25" d="M290.3-99.8c1.1-0.1,2.3,0,3.4,0.2c1.2,0.2,2.3,0.6,3.5,0.4c0.5-0.1,1-0.4,1-1c0-0.5-0.5-1.1-1-1
					c-1.1,0.1-2.1-0.2-3.2-0.4c-1.2-0.2-2.4-0.3-3.6-0.2c-0.5,0-1,0.4-1,1C289.3-100.3,289.7-99.8,290.3-99.8L290.3-99.8z"/>
			</g>
		</g>
		<g>
			<g>
				<path class="st25" d="M296.5-101.7c-1.4,0-2.8-0.2-4.2-0.2c-1.3,0-3,0.3-3.9,1.3c-0.2,0.3-0.4,0.6-0.3,1
					c0.1,0.3,0.4,0.6,0.7,0.7c1.9,0.4,3.8-0.3,5.8-0.1c0.5,0,1-0.5,1-1c0-0.6-0.5-1-1-1c-1.7-0.1-3.5,0.6-5.2,0.2
					c0.1,0.6,0.3,1.1,0.4,1.7c0.3-0.4,0.8-0.5,1.3-0.6c0.5-0.1,1-0.1,1.6-0.1c1.3,0,2.5,0.2,3.8,0.2c0.5,0,1-0.4,1-1
					C297.5-101.3,297.1-101.7,296.5-101.7L296.5-101.7z"/>
			</g>
		</g>
		<g>
			<g>
				<path class="st25" d="M288.9-98.3c0.1,0,0.3,0,0.4-0.1c-0.1,0-0.2,0-0.3,0c0.4-0.1,0.8-0.1,1.2-0.1c0.1,0,0.3,0,0.4-0.1
					c0.1,0,0.2-0.1,0.3-0.2c0.2-0.2,0.3-0.5,0.3-0.7c0-0.3-0.1-0.5-0.3-0.7c-0.2-0.2-0.4-0.3-0.7-0.3c-0.6,0.1-1.3,0.1-1.9,0.2
					c-0.1,0-0.2,0.1-0.3,0.2c-0.1,0.1-0.2,0.2-0.3,0.3c-0.1,0.2-0.2,0.5-0.1,0.8c0.1,0.2,0.2,0.5,0.5,0.6c0.1,0,0.2,0.1,0.2,0.1
					C288.6-98.3,288.8-98.3,288.9-98.3L288.9-98.3z"/>
			</g>
		</g>
		<g>
			<g>
				<path class="st25" d="M310-100.5c-2.2,0.7-4.5,1.2-6.7,0.2c-1-0.4-1.9-0.8-3-1c-0.5-0.1-1.1-0.1-1.6-0.2c-0.6-0.1-1-0.4-1.6-0.4
					c-1.3,0-1.3,2,0,2c0.5,0,1,0,1.5,0.1c0-0.7,0-1.3,0-2c-0.9,0.1-1.8,0-2.7-0.1c-1.3-0.2-1.8,1.7-0.5,1.9c1.4,0.3,2.8,0.1,4.2,0.1
					c1.5,0,2.9,0.3,4.4,0.2c1.1-0.1,1.4-1.7,0.3-2c-0.9-0.2-1.8-0.3-2.7-0.3c-1.3,0-1.3,2,0,2c1.6,0,3.1-0.1,4.7-0.1
					c1.6,0,3.2,0.1,4.8,0.2c-0.1-0.7-0.2-1.3-0.3-2c-2.5,0.9-5.5,1-8.1,1c-1.1,0-1.4,1.8-0.3,2c2.8,0.4,5.5,0.7,8.3,0.3
					c0.5-0.1,0.8-0.8,0.7-1.2C311.1-100.4,310.5-100.6,310-100.5c-2.4,0.3-4.8,0-7.2-0.3c-0.1,0.7-0.2,1.3-0.3,2c1.5,0,3,0,4.5-0.2
					c1.4-0.2,2.9-0.3,4.2-0.8c1.1-0.4,0.9-1.9-0.3-2c-1.6-0.1-3.2-0.2-4.8-0.2c-1.6,0-3.1,0.1-4.7,0.1c0,0.7,0,1.3,0,2
					c0.8,0,1.5,0.1,2.2,0.2c0.1-0.7,0.2-1.3,0.3-2c-1.4,0.1-2.7-0.2-4.1-0.2c-1.3,0-2.6,0.2-3.9,0c-0.2,0.6-0.4,1.3-0.5,1.9
					c1.1,0.2,2.1,0.3,3.2,0.2c1.3-0.1,1.3-1.9,0-2c-0.5,0-1-0.1-1.5-0.1c0,0.7,0,1.3,0,2c0.3,0,0.5,0.2,0.7,0.2
					c0.3,0.1,0.6,0.1,0.9,0.2c0.5,0.1,1.1,0.1,1.6,0.2c1.1,0.3,2.1,0.8,3.2,1.2c2.2,0.7,4.9,0.1,7.1-0.5
					C311.7-98.9,311.2-100.8,310-100.5L310-100.5z"/>
			</g>
		</g>
		<g>
			<g>
				<path class="st25" d="M314.6-101.8c-0.9-0.1-1.8,0-2.5,0.3c-0.5,0.2-0.9,0.4-1.3,0.8c-0.1,0.1-0.2,0.2-0.3,0.4
					c0,0-0.1,0.2-0.1,0.2c0,0,0.2-0.2,0.2-0.2c0,0,0.2-0.1,0.1,0c0.1,0,0.2,0,0.1,0c0,0-0.1,0-0.1,0c0.3,0.5,0.6,1,0.9,1.5
					c0.1-0.2,0.2-0.4,0.3-0.5c0.1-0.1,0.1-0.2,0.2-0.2c0,0,0.1-0.1,0.1-0.1c0,0,0,0,0,0c-0.1,0.1,0,0.1,0,0c0,0,0,0,0.1,0
					c0,0-0.1,0.1-0.1,0.1c0,0,0.1,0,0.1-0.1c0.1,0,0.1-0.1,0.2-0.1c0.2-0.1,0.4-0.2,0.6-0.4c0.3-0.3,0.4-0.8,0.2-1.1
					c-0.1-0.4-0.5-0.6-0.9-0.6c-0.1,0-0.3,0-0.4,0c0,0-0.1,0-0.1,0c0.1,0,0.2,0,0.1,0c0,0-0.1,0-0.1,0c-0.1,0.7-0.2,1.3-0.3,2
					c0.8,0,1.7,0.1,2.5,0.1c0.5,0,1-0.5,1-1c0-0.6-0.4-1-1-1c-0.8,0-1.7-0.1-2.5-0.1c-0.5,0-0.9,0.4-1,0.9c-0.1,0.5,0.2,1,0.7,1.1
					c0.4,0.1,0.7,0.1,1.1,0.1c-0.2-0.6-0.5-1.1-0.7-1.7c0,0,0.2-0.1,0.1-0.1c0,0-0.1,0-0.1,0.1c-0.1,0-0.2,0.1-0.2,0.1
					c-0.2,0.1-0.4,0.2-0.6,0.4c-0.3,0.4-0.6,0.8-0.8,1.2c-0.4,0.7,0.1,1.5,0.9,1.5c0.6,0,1.2-0.2,1.5-0.7c0-0.1,0.1-0.2,0.1-0.2
					c0,0-0.1,0.2,0,0.1c0.1-0.1,0,0-0.1,0c0.2-0.1,0.3-0.2,0.5-0.3c0,0,0.1,0,0.1-0.1c0,0-0.2,0.1,0,0c0.1,0,0.2-0.1,0.3-0.1
					c0.2-0.1,0.4-0.1,0.6-0.1c0.2,0-0.2,0,0,0c0,0,0.1,0,0.1,0c0.1,0,0.2,0,0.3,0c0.2,0,0.4,0,0.6,0c0.2,0,0.5-0.1,0.7-0.3
					c0.2-0.2,0.3-0.5,0.3-0.7c0-0.3-0.1-0.5-0.3-0.7C315.1-101.7,314.9-101.8,314.6-101.8L314.6-101.8z"/>
			</g>
		</g>
		<g>
			<g>
				<path class="st25" d="M321.2-101.9c-2,0-4.1,0.1-6.1-0.1c-0.5-0.1-0.9,0.4-1,0.9c-0.1,0.5,0.2,1,0.7,1.1c1.4,0.3,2.7,0.6,4.1,1
					c0.7,0.2,1.3,0.4,2,0.6c0.3,0.1,0.7,0.2,1,0.4c0.1,0.1,0.3,0.1,0.4,0.2c-0.1,0-0.1,0,0,0c-0.1-0.1-0.1-0.1-0.2-0.2
					c0.4,1.2,2.3,0.7,1.9-0.5c-0.3-0.9-1.1-1.1-1.9-1.4c-0.7-0.3-1.5-0.5-2.2-0.7c-1.5-0.5-3.1-0.8-4.7-1.2c-0.1,0.7-0.2,1.3-0.3,2
					c2,0.2,4,0.2,6.1,0.1C322.5-99.9,322.5-101.9,321.2-101.9L321.2-101.9z"/>
			</g>
		</g>
		<g>
			<g>
				<path class="st25" d="M330.2-97.1c1.4-0.6,2.8-1.2,4.2-1.9c0.5-0.2,0.6-0.9,0.4-1.4c-0.3-0.5-0.9-0.6-1.4-0.4
					c-0.6,0.3-1.3,0.6-1.9,0.9c-0.2,0.1-0.3,0.1-0.5,0.2c-0.1,0-0.1,0.1-0.2,0.1c0,0-0.3,0.2-0.1,0c-0.3,0.2-0.7,0.3-1,0.4
					c-0.3,0.1-0.5,0.2-0.6,0.5c-0.1,0.2-0.2,0.5-0.1,0.8C329.1-97.3,329.7-96.9,330.2-97.1L330.2-97.1z"/>
			</g>
		</g>
		<g>
			<g>
				<path class="st25" d="M321.9-99.9c3.1-0.3,6.3,0.3,9.4,0c0.5,0,1-0.4,1-1c0-0.5-0.5-1-1-1c-3.1,0.3-6.3-0.3-9.4,0
					c-0.5,0-1,0.4-1,1C320.9-100.4,321.3-99.9,321.9-99.9L321.9-99.9z"/>
			</g>
		</g>
		<g>
			<g>
				<path class="st25" d="M333.6-101.9c-1,0-2,0-2.9,0c-0.4,0-0.9,0.3-1,0.7c-0.1,0.4,0.1,0.9,0.5,1.1c0,0,0.1,0.1,0.1,0.1
					c0,0-0.1-0.1-0.1-0.1c0.1,0.1,0.1,0-0.2-0.3c0-0.1,0-0.2,0-0.3c0,0,0,0.1,0,0.1c0-0.1,0-0.2,0-0.3c0.1-0.4,0.2-0.4,0.1-0.2
					c-0.1,0.1-0.1,0.1-0.2,0.2c-0.1,0.1-0.2,0.2-0.3,0.3c-0.3,0.3-0.4,0.6-0.3,1c0.1,0.3,0.4,0.6,0.7,0.7c0.4,0.1,0.8,0.1,1.3,0.1
					c0.4,0,0.8-0.1,1.2-0.2c-0.1,0-0.2,0-0.3,0c0.6-0.1,1.1,0,1.7-0.1c0.5-0.1,0.9-0.7,0.7-1.2c-0.2-0.5-0.7-0.8-1.2-0.7
					c-0.1,0-0.2,0-0.2,0c0.1,0,0.2,0,0.3,0c-0.3,0-0.7,0-1,0c-0.4,0-0.8,0.1-1.2,0.2c0.1,0,0.2,0,0.3,0c-0.3,0-0.7,0-1,0
					c0.1,0,0.2,0,0.3,0c0,0-0.1,0-0.1,0c0.1,0.6,0.3,1.1,0.4,1.7c0.3-0.3,0.8-0.6,0.9-1.1c0.2-0.6-0.2-1.2-0.7-1.5
					c-0.2,0.6-0.3,1.2-0.5,1.9c1,0,2,0,2.9,0c0.5,0,1-0.5,1-1C334.6-101.5,334.2-101.9,333.6-101.9L333.6-101.9z"/>
			</g>
		</g>
		<g>
			<g>
				<path class="st25" d="M340-101.8c-1,0-2.1,0-3.1,0c-0.5,0-1-0.1-1.3-0.1c-0.5-0.1-1.1-0.1-1.6-0.1c-0.5,0.1-1,0.4-1,1
					c0,0.5,0.4,1.1,1,1c1-0.1,1.9,0.2,3,0.2c1,0,2.1,0,3.1,0c0.5,0,1-0.5,1-1C341-101.4,340.6-101.8,340-101.8L340-101.8z"/>
			</g>
		</g>
		<g>
			<g>
				<path class="st25" d="M334-99.2c0.2,0.2,0.3,0.4,0.6,0.6c0.2-0.6,0.3-1.2,0.5-1.9c0.1,0,0.2,0.1,0,0c-0.2,0.6-0.3,1.2-0.5,1.9
					c2.2,0.2,4.3,0.1,6.5-0.3c0.5-0.1,0.9-0.7,0.7-1.2c-0.2-0.5-0.7-0.8-1.2-0.7c-1.9,0.4-3.9,0.5-5.9,0.3c-0.4,0-0.9,0.3-1,0.7
					c-0.1,0.5,0.1,0.9,0.5,1.1c0.3,0.2,0.6,0.3,1,0.3c0.4,0,0.9-0.3,1-0.7c0.1-0.4-0.1-0.9-0.5-1.1c-0.1-0.1-0.1,0,0.1,0.2
					c-0.3-0.4-0.9-0.7-1.4-0.4C333.9-100.3,333.7-99.7,334-99.2L334-99.2z"/>
			</g>
		</g>
		<g>
			<g>
				<path class="st25" d="M340.1-99.7c0.1,0.1,0.2,0.1,0.3,0.2C340.3-99.5,340.2-99.6,340.1-99.7c0.2,0.2,0.4,0.3,0.5,0.5
					c-0.1-0.1-0.1-0.1-0.2-0.2c0.1,0.2,0.3,0.4,0.4,0.6c0.1,0.2,0.2,0.3,0.3,0.5c0.1,0.1,0.3,0.3,0.4,0.4c0.1,0,0.2,0.1,0.2,0.1
					c0.1,0,0.2,0,0.3,0c0.2,0,0.4-0.1,0.6-0.2c0.1-0.1,0.2-0.2,0.3-0.4c0.1-0.2,0.1-0.5,0.1-0.7c-0.1-0.2-0.2-0.4-0.3-0.6
					c-0.1-0.1-0.2-0.2-0.4-0.3c0.1,0.1,0.1,0.1,0.2,0.2c0,0,0,0-0.1-0.1c0.1,0.1,0.1,0.1,0.2,0.2c0,0,0,0,0,0c0,0.1,0.1,0.2,0.1,0.2
					c0,0,0,0,0,0c0,0.1,0,0.2,0,0.3c0,0,0,0,0,0c0,0.1,0,0.2,0,0.3c0,0,0,0,0,0c0,0.1-0.1,0.2-0.1,0.2c0,0,0,0,0,0
					c-0.1,0.1-0.1,0.1-0.2,0.2c0,0,0,0,0,0c-0.1,0.1-0.1,0.1-0.2,0.2c0,0,0,0,0,0c-0.1,0-0.2,0.1-0.2,0.1c0,0,0,0,0,0
					c-0.1,0-0.2,0-0.3,0c0,0,0,0,0,0c-0.1,0-0.2,0-0.3,0c0,0,0,0,0,0c-0.1,0-0.2-0.1-0.2-0.1c0,0,0,0,0.1,0
					c-0.1-0.1-0.1-0.1-0.2-0.2c0,0,0,0,0,0c-0.1-0.1-0.1-0.1-0.2-0.2c0,0,0,0,0,0.1c0-0.1-0.1-0.2-0.1-0.2c0,0.1,0,0.2,0.1,0.3
					c0.1,0.2,0.1,0.3,0.2,0.5c0.2,0.3,0.5,0.6,0.9,0.7c0.6,0.2,1.3-0.2,1.4-0.8c0.2-0.6-0.2-1.2-0.8-1.4c-0.2-0.1-0.6,0-0.8,0.1
					c-0.2,0.1-0.4,0.4-0.5,0.6c-0.1,0.5,0.2,1.1,0.7,1.2c0,0,0,0,0,0c-0.1,0-0.2-0.1-0.2-0.1c0,0,0,0,0,0c-0.1-0.1-0.1-0.1-0.2-0.2
					c0,0,0,0,0,0c-0.1-0.1-0.1-0.1-0.2-0.2c0,0,0,0,0,0c0-0.1-0.1-0.2-0.1-0.2c0,0,0,0,0,0c0-0.1,0-0.2,0-0.3c0,0,0,0,0,0
					c0-0.1,0-0.2,0-0.3c0,0,0,0,0,0c0-0.1,0.1-0.2,0.1-0.2c0,0,0,0,0,0c0.1-0.1,0.1-0.1,0.2-0.2c0,0,0,0,0,0
					c0.1-0.1,0.1-0.1,0.2-0.2c0,0,0,0,0,0c0.1,0,0.2-0.1,0.2-0.1c0,0,0,0-0.1,0c0.1,0,0.2,0,0.3,0c0,0,0,0-0.1,0c0.1,0,0.2,0,0.3,0
					c0,0,0,0-0.1,0c0.1,0,0.2,0.1,0.2,0.1c0,0-0.1,0-0.1,0c0.1,0.1,0.1,0.1,0.2,0.2c0,0,0,0-0.1-0.1c0.1,0.1,0.1,0.1,0.2,0.2
					c-0.1-0.1-0.1-0.2-0.2-0.3c0,0.1,0.1,0.2,0.1,0.2c-0.1-0.2-0.1-0.4-0.2-0.6c-0.3-0.5-1-0.7-1.5-0.4c-0.4,0.3-0.6,0.8-0.5,1.3
					c0.1,0.2,0.2,0.4,0.3,0.5c0.1,0.1,0.2,0.2,0.4,0.3c-0.1-0.1-0.1-0.1-0.2-0.2c0,0,0,0,0.1,0.1c-0.1-0.1-0.1-0.1-0.2-0.2
					c0,0,0,0,0,0c0-0.1-0.1-0.2-0.1-0.2c0,0,0,0,0,0c0.5-0.4,1-0.8,1.5-1.1c0,0,0,0,0,0c0.1,0.1,0.1,0.1,0.2,0.2
					c-0.1-0.1-0.2-0.2-0.3-0.3c0.1,0.1,0.1,0.1,0.2,0.2c-0.2-0.3-0.4-0.6-0.7-0.9c-0.2-0.3-0.6-0.6-0.9-0.8
					c-0.2-0.1-0.5-0.2-0.8-0.1c-0.2,0.1-0.5,0.2-0.6,0.5c-0.1,0.2-0.2,0.5-0.1,0.8C339.7-100,339.8-99.8,340.1-99.7L340.1-99.7z"/>
			</g>
		</g>
		<g>
			<g>
				<path class="st25" d="M342.9-99.5c-0.2,0-0.5,0-0.7,0c-0.1,0-0.2,0-0.3,0c0.1,0,0.1,0,0,0c-0.1,0-0.1,0-0.2,0
					c-0.5-0.1-0.9-0.2-1.3-0.3c-1-0.2-2-0.3-3-0.3c-0.5,0-1,0.5-1,1c0,0.6,0.4,1,1,1c1,0.1,1.8,0.1,2.7,0.3c0.4,0.1,0.9,0.3,1.3,0.3
					c0.5,0.1,1.1,0.1,1.6,0.1c0.5,0,1-0.5,1-1C343.9-99.1,343.5-99.6,342.9-99.5L342.9-99.5z"/>
			</g>
		</g>
		<g>
			<g>
				<path class="st25" d="M335.7-98.6c-0.2,0,0.1,0,0.1,0c0.1,0,0.1,0,0,0c0.1,0,0.1,0,0.2,0c0.2,0,0.4,0.1,0.5,0.1
					c0.5,0.1,0.9,0.2,1.4,0.2c0.4,0,0.8,0,1.2,0c0.2,0,0.4,0,0.6,0c-0.2,0,0,0,0.1,0c0.1,0,0.2,0.1,0.4,0.1c0.5,0.1,1.1-0.2,1.2-0.7
					c0.1-0.5-0.2-1.1-0.7-1.2c-0.9-0.3-1.8-0.2-2.8-0.2c-0.1,0-0.2,0-0.3,0c-0.1,0-0.1,0-0.2,0c0.1,0,0.1,0,0,0
					c-0.2,0-0.4-0.1-0.6-0.1c-0.6-0.1-1.1-0.2-1.7-0.1c-0.5,0.1-0.9,0.8-0.7,1.2C334.7-98.7,335.2-98.5,335.7-98.6L335.7-98.6z"/>
			</g>
		</g>
		<g>
			<g>
				<path class="st25" d="M340.6-99.6c-0.1,0-0.2,0-0.4,0c0,0-0.3,0-0.1,0c-0.2,0-0.4-0.1-0.6-0.2c-0.4-0.1-0.8-0.2-1.2-0.3
					c-0.9-0.2-1.8-0.3-2.7-0.2c-0.5,0-0.9,0.3-1,0.9c-0.1,0.4,0.2,1,0.7,1.1c1,0.1,2,0.3,3,0.4c0.3,0,0.5,0,0.8-0.1
					c0.2-0.1,0.4-0.4,0.5-0.6c0.1-0.5-0.1-1.2-0.7-1.2c-1-0.1-2-0.3-3-0.4c-0.1,0.7-0.2,1.3-0.3,2c0.4,0,0.9,0,1.3,0
					c0.2,0-0.1,0,0.1,0c0.1,0,0.2,0,0.3,0c0.2,0,0.4,0.1,0.6,0.1c0.9,0.2,1.7,0.6,2.7,0.5c0.5-0.1,1-0.4,1-1
					C341.6-99.1,341.1-99.7,340.6-99.6L340.6-99.6z"/>
			</g>
		</g>
		<g>
			<path class="st26" d="M296.7-99.1c5.9,3.7,12,3.6,18.3,0"/>
			<path class="st26" d="M333.8-98.7c-5.9,3.4-12.2,2.9-18.8-0.4"/>
			<path class="st26" d="M340.3-101.9c6.7,4.7,3.2,5.1-6.5,3"/>
			<path class="st26" d="M289.4-101.9c-6.4,5-2.6,5.3,7.3,2.7"/>
		</g>
		<line class="st26" x1="289.4" y1="-101.9" x2="340.3" y2="-101.9"/>
	</g>
	<path class="st27" d="M338.4-101.9h-46.8c-2.4,0-4.3-1.9-4.3-4.3v0c0-2.4,1.9-4.3,4.3-4.3h46.8c2.4,0,4.3,1.9,4.3,4.3v0
		C342.7-103.8,340.8-101.9,338.4-101.9z"/>
	<polygon class="st28" points="315,-106.2 339.8,-110.5 290.2,-110.5 	"/>
	<path class="st29" d="M338.1-110.8h-46.3c-1,0-1.9-0.8-1.9-1.9l0,0c0-1,0.8-1.9,1.9-1.9h46.3c1,0,1.9,0.8,1.9,1.9l0,0
		C340-111.7,339.2-110.8,338.1-110.8z"/>
	<path class="st30" d="M317.3-122.7c0,0.8-1.1,1.5-2,1.5c-0.8,0-1.5-0.7-1.5-1.5c0-0.8,0.7-1.5,1.5-1.5
		C316.2-124.2,317.3-123.5,317.3-122.7z"/>
	<path class="st30" d="M330.7-124c0,0.8-1.1,1.5-2,1.5c-0.8,0-1.5-0.7-1.5-1.5c0-0.8,0.7-1.5,1.5-1.5
		C329.6-125.4,330.7-124.8,330.7-124z"/>
	<path class="st30" d="M325.5-120.7c0,0.8-1.1,1.5-2,1.5c-0.8,0-1.5-0.7-1.5-1.5c0-0.8,0.7-1.5,1.5-1.5
		C324.4-122.2,325.5-121.6,325.5-120.7z"/>
	<path class="st30" d="M318.8-118.3c0,0.8-1.1,1.5-2,1.5c-0.8,0-1.5-0.7-1.5-1.5c0-0.8,0.7-1.5,1.5-1.5
		C317.6-119.7,318.8-119.1,318.8-118.3z"/>
	<path class="st30" d="M336.1-118.3c0,0.8-1.1,1.5-2,1.5c-0.8,0-1.5-0.7-1.5-1.5c0-0.8,0.7-1.5,1.5-1.5
		C335-119.7,336.1-119.1,336.1-118.3z"/>
	<path class="st30" d="M320.8-126.4c0,0.8-1.1,1.5-2,1.5c-0.8,0-1.5-0.7-1.5-1.5c0-0.8,0.7-1.5,1.5-1.5
		C319.6-127.8,320.8-127.2,320.8-126.4z"/>
	<path class="st30" d="M299.9-122.2c0,0.8-1.1,1.5-2,1.5c-0.8,0-1.5-0.7-1.5-1.5s0.7-1.5,1.5-1.5C298.7-123.7,299.9-123,299.9-122.2
		z"/>
	<path class="st30" d="M312.4-121.2c0,0.8-1.1,1.5-2,1.5c-0.8,0-1.5-0.7-1.5-1.5c0-0.8,0.7-1.5,1.5-1.5
		C311.2-122.7,312.4-122,312.4-121.2z"/>
	<path class="st30" d="M307.3-118.8c0,0.8-1.1,1.5-2,1.5c-0.8,0-1.5-0.7-1.5-1.5c0-0.8,0.7-1.5,1.5-1.5
		C306.2-120.2,307.3-119.6,307.3-118.8z"/>
	<path class="st30" d="M308.4-125.7c0,0.8-1.1,1.5-2,1.5s-1.5-0.7-1.5-1.5c0-0.8,0.7-1.5,1.5-1.5S308.4-126.5,308.4-125.7z"/>
	<path class="st30" d="M301.6-117.3c0,0.8-1.1,1.5-2,1.5c-0.8,0-1.5-0.7-1.5-1.5c0-0.8,0.7-1.5,1.5-1.5
		C300.5-118.8,301.6-118.1,301.6-117.3z"/>
</g>
<g>
	<g>
		<path class="st31" d="M91.8,23.5c-0.9,0.1-1.4-0.3-1.7-1.1c0.8-0.2,1.4-0.3,1.4-0.3S91.7,22.6,91.8,23.5z"/>
		<path class="st31" d="M90.8,31.9c-0.9,1.3-1.8,2.5-2.9,3.3l-6.8-4.3c0.3-1.3,1-2.7,1.8-4c1.8-2.8,5.3-4,7.2-4.5
			c0.3,0.8,0.9,1.2,1.7,1.1C92.2,25.5,92.6,29.1,90.8,31.9z"/>
		<line class="st31" x1="91.8" y1="23.5" x2="91.8" y2="23.5"/>
	</g>
	<g>
		<path class="st31" d="M70.4,22.6c-0.4,0.8-1,1.1-1.8,0.9c0.2-0.8,0.5-1.3,0.5-1.3S69.6,22.3,70.4,22.6z"/>
		<path class="st31" d="M77.2,27.8c0.7,1.4,1.2,2.8,1.4,4.1l-7.1,3.7c-0.9-0.9-1.8-2.2-2.6-3.6c-1.5-3-0.9-6.6-0.3-8.5
			c0.9,0.2,1.4-0.2,1.8-0.9C72.3,23.3,75.6,24.8,77.2,27.8z"/>
		<line class="st31" x1="70.4" y1="22.6" x2="70.4" y2="22.6"/>
	</g>
	<g>
		<path class="st31" d="M81.2,20.2c-0.7,0.5-1.4,0.5-2-0.1c0.6-0.6,1.1-0.9,1.1-0.9S80.7,19.5,81.2,20.2z"/>
		<path class="st31" d="M84.5,28c-0.1,1.6-0.4,3.1-0.8,4.3l-8-0.3c-0.3-1.3-0.5-2.8-0.4-4.4c0.1-3.3,2.5-6.1,4-7.5
			c0.7,0.6,1.3,0.6,2,0.1C82.5,21.7,84.7,24.7,84.5,28z"/>
		<line class="st31" x1="81.3" y1="20.2" x2="81.2" y2="20.2"/>
	</g>
	<g>
		<path class="st32" d="M58.9,40.8c0.5,0.7,0.5,1.4-0.1,2c-0.6-0.6-0.9-1.1-0.9-1.1S58.3,41.3,58.9,40.8z"/>
		<path class="st32" d="M66.8,37.5c1.6,0.1,3.1,0.4,4.3,0.8l-0.3,8c-1.3,0.3-2.8,0.5-4.4,0.4c-3.3-0.1-6.1-2.5-7.5-4
			c0.6-0.7,0.6-1.3,0.1-2C60.4,39.4,63.4,37.3,66.8,37.5z"/>
		<line class="st32" x1="58.9" y1="40.7" x2="58.9" y2="40.8"/>
	</g>
	<g>
		<path class="st32" d="M62.2,30.2c0.1,0.9-0.3,1.4-1.1,1.7c-0.2-0.8-0.3-1.4-0.3-1.4S61.4,30.3,62.2,30.2z"/>
		<path class="st32" d="M70.7,31.2c1.3,0.9,2.5,1.8,3.3,2.9l-4.3,6.8c-1.3-0.3-2.7-1-4-1.8c-2.8-1.8-4-5.3-4.5-7.2
			c0.8-0.3,1.2-0.9,1.1-1.7C64.2,29.8,67.8,29.4,70.7,31.2z"/>
		<line class="st32" x1="62.2" y1="30.1" x2="62.2" y2="30.2"/>
	</g>
	<g>
		<path class="st33" d="M68.9,59.8c0.9-0.1,1.4,0.3,1.7,1.1c-0.8,0.2-1.4,0.3-1.4,0.3S69.1,60.6,68.9,59.8z"/>
		<path class="st33" d="M69.9,51.3c0.9-1.3,1.8-2.5,2.9-3.3l6.8,4.3c-0.3,1.3-1,2.7-1.8,4c-1.8,2.8-5.3,4-7.2,4.5
			c-0.3-0.8-0.9-1.2-1.7-1.1C68.5,57.8,68.2,54.2,69.9,51.3z"/>
		<line class="st33" x1="68.9" y1="59.8" x2="68.9" y2="59.8"/>
	</g>
	<g>
		<path class="st33" d="M61.4,51.6c0.8,0.4,1.1,1,0.9,1.8C61.5,53.2,61,53,61,53S61.1,52.4,61.4,51.6z"/>
		<path class="st33" d="M66.5,44.8c1.4-0.7,2.8-1.2,4.1-1.4l3.7,7.1c-0.9,0.9-2.2,1.8-3.6,2.6c-3,1.5-6.6,0.9-8.5,0.3
			c0.2-0.9-0.2-1.4-0.9-1.8C62,49.7,63.5,46.4,66.5,44.8z"/>
		<line class="st33" x1="61.4" y1="51.6" x2="61.4" y2="51.6"/>
	</g>
	<g>
		<path class="st33" d="M90.3,60.6c0.4-0.8,1-1.1,1.8-0.9c-0.2,0.8-0.5,1.3-0.5,1.3S91.1,60.9,90.3,60.6z"/>
		<path class="st33" d="M83.6,55.5c-0.7-1.4-1.2-2.8-1.4-4.1l7.1-3.7c0.9,0.9,1.8,2.2,2.6,3.6c1.5,3,0.9,6.6,0.3,8.5
			c-0.9-0.2-1.4,0.2-1.8,0.9C88.4,60,85.1,58.5,83.6,55.5z"/>
		<line class="st33" x1="90.3" y1="60.6" x2="90.3" y2="60.6"/>
	</g>
	<g>
		<path class="st32" d="M79.5,63.1c0.7-0.5,1.4-0.5,2,0.1c-0.6,0.6-1.1,0.9-1.1,0.9S80.1,63.7,79.5,63.1z"/>
		<path class="st32" d="M76.2,55.3c0.1-1.6,0.4-3.1,0.8-4.3l8,0.3c0.3,1.3,0.5,2.8,0.4,4.4c-0.1,3.3-2.5,6.1-4,7.5
			c-0.7-0.6-1.3-0.6-2-0.1C78.2,61.6,76.1,58.6,76.2,55.3z"/>
		<line class="st32" x1="79.5" y1="63.1" x2="79.5" y2="63.1"/>
	</g>
	<g>
		<path class="st34" d="M101.8,42.5c-0.5-0.7-0.5-1.4,0.1-2c0.6,0.6,0.9,1.1,0.9,1.1S102.5,41.9,101.8,42.5z"/>
		<path class="st34" d="M94,45.8c-1.6-0.1-3.1-0.4-4.3-0.8l0.3-8c1.3-0.3,2.8-0.5,4.4-0.4c3.3,0.1,6.1,2.5,7.5,4
			c-0.6,0.7-0.6,1.3-0.1,2C100.3,43.8,97.3,45.9,94,45.8z"/>
		<line class="st34" x1="101.8" y1="42.5" x2="101.8" y2="42.5"/>
	</g>
	<g>
		<path class="st34" d="M98.5,53.1c-0.1-0.9,0.3-1.4,1.1-1.7c0.2,0.8,0.3,1.4,0.3,1.4S99.3,53,98.5,53.1z"/>
		<path class="st34" d="M90.1,52c-1.3-0.9-2.5-1.8-3.3-2.9l4.3-6.8c1.3,0.3,2.7,1,4,1.8c2.8,1.8,4,5.3,4.5,7.2
			c-0.8,0.3-1.2,0.9-1.1,1.7C96.5,53.5,92.9,53.8,90.1,52z"/>
		<line class="st34" x1="98.5" y1="53.1" x2="98.5" y2="53.1"/>
	</g>
	<g>
		<path class="st34" d="M99.4,31.7c-0.8-0.4-1.1-1-0.9-1.8c0.8,0.2,1.3,0.5,1.3,0.5S99.7,30.8,99.4,31.7z"/>
		<path class="st34" d="M94.2,38.4c-1.4,0.7-2.8,1.2-4.1,1.4l-3.7-7.1c0.9-0.9,2.2-1.8,3.6-2.6c3-1.5,6.6-0.9,8.5-0.3
			c-0.2,0.9,0.2,1.4,0.9,1.8C98.7,33.6,97.2,36.9,94.2,38.4z"/>
		<line class="st34" x1="99.4" y1="31.7" x2="99.4" y2="31.7"/>
	</g>
	<g>
		<path class="st31" d="M84.2,26.6c-0.6,0.2-1.1,0.1-1.4-0.4c0.5-0.3,0.9-0.5,0.9-0.5S83.9,26.1,84.2,26.6z"/>
		<path class="st31" d="M85.4,32.6c-0.3,1.1-0.7,2.1-1.2,2.9l-5.6-1.4c-0.1-1,0.1-2,0.3-3.2c0.6-2.3,2.7-3.9,3.9-4.7
			c0.4,0.5,0.9,0.6,1.4,0.4C84.9,27.9,86,30.3,85.4,32.6z"/>
		<line class="st31" x1="84.2" y1="26.6" x2="84.2" y2="26.6"/>
	</g>
	<g>
		<path class="st32" d="M69.3,30.8c-0.1,0.6-0.4,1-1,1.1c0-0.6,0-1,0-1S68.7,30.8,69.3,30.8z"/>
		<path class="st32" d="M75.1,32.8c0.8,0.8,1.5,1.7,1.9,2.5l-4.1,4.1c-0.9-0.4-1.7-1.1-2.6-1.9c-1.7-1.7-2.1-4.3-2.1-5.8
			c0.6-0.1,1-0.4,1-1.1C70.7,30.8,73.3,31.1,75.1,32.8z"/>
		<line class="st32" x1="69.3" y1="30.8" x2="69.3" y2="30.8"/>
	</g>
	<g>
		<path class="st31" d="M76.2,26.7c-0.4,0.5-0.9,0.6-1.4,0.4c0.3-0.5,0.5-0.9,0.5-0.9S75.6,26.4,76.2,26.7z"/>
		<path class="st31" d="M80.2,31.3c0.3,1.1,0.4,2.2,0.4,3.2L75,36c-0.5-0.8-1-1.8-1.3-2.9c-0.7-2.3,0.4-4.8,1.1-6
			c0.6,0.2,1.1,0.1,1.4-0.4C77.4,27.4,79.5,29,80.2,31.3z"/>
		<line class="st31" x1="76.2" y1="26.7" x2="76.2" y2="26.7"/>
	</g>
	<g>
		<path class="st32" d="M65.4,45.8c0.5,0.4,0.6,0.9,0.4,1.4c-0.5-0.3-0.9-0.5-0.9-0.5S65.1,46.4,65.4,45.8z"/>
		<path class="st32" d="M70.1,41.8c1.1-0.3,2.2-0.4,3.2-0.4l1.6,5.6c-0.8,0.5-1.8,1-2.9,1.3c-2.3,0.7-4.8-0.4-6-1.1
			c0.2-0.6,0.1-1.1-0.4-1.4C66.2,44.6,67.8,42.5,70.1,41.8z"/>
		<line class="st32" x1="65.4" y1="45.8" x2="65.4" y2="45.8"/>
	</g>
	<g>
		<path class="st32" d="M65.3,37.8c0.2,0.6,0.1,1.1-0.4,1.4c-0.3-0.5-0.5-0.9-0.5-0.9S64.8,38.1,65.3,37.8z"/>
		<path class="st32" d="M71.4,36.6c1.1,0.3,2.1,0.7,2.9,1.2l-1.4,5.6c-1,0.1-2-0.1-3.2-0.3c-2.3-0.6-3.9-2.7-4.7-3.9
			c0.5-0.4,0.6-0.9,0.4-1.4C66.6,37.1,69,36,71.4,36.6z"/>
		<line class="st32" x1="65.3" y1="37.8" x2="65.3" y2="37.8"/>
	</g>
	<g>
		<path class="st33" d="M76.5,56.7c0.6-0.2,1.1-0.1,1.4,0.4c-0.5,0.3-0.9,0.5-0.9,0.5S76.8,57.2,76.5,56.7z"/>
		<path class="st33" d="M75.4,50.6c0.3-1.1,0.7-2.1,1.2-2.9l5.6,1.4c0.1,1-0.1,2-0.3,3.2c-0.6,2.3-2.7,3.9-3.9,4.7
			c-0.4-0.5-0.9-0.6-1.4-0.4C75.8,55.4,74.8,53,75.4,50.6z"/>
		<line class="st33" x1="76.5" y1="56.7" x2="76.5" y2="56.7"/>
	</g>
	<g>
		<path class="st33" d="M69.5,52.7c0.6,0.1,1,0.4,1.1,1c-0.6,0-1,0-1,0S69.5,53.3,69.5,52.7z"/>
		<path class="st33" d="M71.6,46.9c0.8-0.8,1.7-1.5,2.5-1.9l4.1,4.1c-0.4,0.9-1.1,1.7-1.9,2.6c-1.7,1.7-4.3,2.1-5.8,2.1
			c-0.1-0.6-0.4-1-1.1-1C69.6,51.3,69.9,48.7,71.6,46.9z"/>
		<line class="st33" x1="69.5" y1="52.7" x2="69.5" y2="52.7"/>
	</g>
	<g>
		<path class="st34" d="M91.5,52.5c0.1-0.6,0.4-1,1-1.1c0,0.6,0,1,0,1S92.1,52.5,91.5,52.5z"/>
		<path class="st34" d="M85.7,50.5c-0.8-0.8-1.5-1.7-1.9-2.5l4.1-4.1c0.9,0.4,1.7,1.1,2.6,1.9c1.7,1.7,2.1,4.3,2.1,5.8
			c-0.6,0.1-1,0.4-1,1.1C90,52.4,87.4,52.1,85.7,50.5z"/>
		<line class="st34" x1="91.5" y1="52.5" x2="91.5" y2="52.5"/>
	</g>
	<g>
		<path class="st32" d="M84.6,56.6c0.4-0.5,0.9-0.6,1.4-0.4c-0.3,0.5-0.5,0.9-0.5,0.9S85.1,56.9,84.6,56.6z"/>
		<path class="st32" d="M80.6,51.9c-0.3-1.1-0.4-2.2-0.4-3.2l5.6-1.6c0.5,0.8,1,1.8,1.3,2.9c0.7,2.3-0.4,4.8-1.1,6
			c-0.6-0.2-1.1-0.1-1.4,0.4C83.3,55.8,81.2,54.2,80.6,51.9z"/>
		<line class="st32" x1="84.6" y1="56.6" x2="84.6" y2="56.6"/>
	</g>
	<g>
		<path class="st34" d="M95.3,37.4c-0.5-0.4-0.6-0.9-0.4-1.4c0.5,0.3,0.9,0.5,0.9,0.5S95.6,36.9,95.3,37.4z"/>
		<path class="st34" d="M90.7,41.5c-1.1,0.3-2.2,0.4-3.2,0.4l-1.6-5.6c0.8-0.5,1.8-1,2.9-1.3c2.3-0.7,4.8,0.4,6,1.1
			c-0.2,0.6-0.1,1.1,0.4,1.4C94.6,38.7,93,40.8,90.7,41.5z"/>
		<line class="st34" x1="95.3" y1="37.4" x2="95.3" y2="37.4"/>
	</g>
	<g>
		<path class="st34" d="M95.4,45.5c-0.2-0.6-0.1-1.1,0.4-1.4c0.3,0.5,0.5,0.9,0.5,0.9S95.9,45.2,95.4,45.5z"/>
		<path class="st34" d="M89.4,46.6c-1.1-0.3-2.1-0.7-2.9-1.2l1.4-5.6c1-0.1,2,0.1,3.2,0.3c2.3,0.6,3.9,2.7,4.7,3.9
			c-0.5,0.4-0.6,0.9-0.4,1.4C94.1,46.2,91.7,47.2,89.4,46.6z"/>
		<line class="st34" x1="95.4" y1="45.5" x2="95.4" y2="45.5"/>
	</g>
	<g>
		<path class="st34" d="M91.2,30.5c-0.6-0.1-1-0.4-1.1-1c0.6,0,1,0,1,0S91.2,29.9,91.2,30.5z"/>
		<path class="st34" d="M89.2,36.3c-0.8,0.8-1.7,1.5-2.5,1.9l-4.1-4.1c0.4-0.9,1.1-1.7,1.9-2.6c1.7-1.7,4.3-2.1,5.8-2.1
			c0.1,0.6,0.4,1,1.1,1C91.2,32,90.9,34.6,89.2,36.3z"/>
		<line class="st34" x1="91.2" y1="30.5" x2="91.2" y2="30.5"/>
	</g>
	<g>
		<path class="st35" d="M80.2,41.7c-0.7,0.1-1.1,0.5-1.3,1l0,0c-0.4,0.6-1.1,1-1.7-0.4c-0.3-0.8,0.1-1.2,1-1.4
			C78.6,41.5,79.4,41.6,80.2,41.7z"/>
		<path class="st36" d="M79.3,45.7c-5.3-0.9-5.6-3.7-2.2-7.8c0.1,1.2,0.5,2.1,1.1,2.9c-0.9,0.2-1.3,0.7-1,1.4
			c0.6,1.4,1.3,0.9,1.7,0.4c0,0,0,0.1-0.1,0.1C78.7,43.9,78.8,44.9,79.3,45.7z"/>
	</g>
	<g>
		<path class="st35" d="M80.2,41.7c-0.5,0.4-0.7,0.9-0.7,1.5l0,0c-0.1,0.7-0.4,1.4-1.6,0.5c-0.7-0.5-0.5-1.1,0.1-1.7
			C78.8,42.3,79.5,42,80.2,41.7z"/>
		<path class="st36" d="M81.5,45.6c-5,1.8-6.7-0.4-5.8-5.6c0.7,0.9,1.5,1.6,2.4,2c-0.6,0.6-0.8,1.2-0.1,1.7c1.2,0.9,1.6,0.2,1.6-0.5
			c0,0.1,0,0.1,0,0.1C80,44.4,80.7,45.2,81.5,45.6z"/>
	</g>
	<g>
		<path class="st35" d="M80.2,41.7c-0.2,0.6-0.1,1.2,0.2,1.7l0,0c0.3,0.6,0.3,1.4-1.2,1.2c-0.8-0.1-1-0.7-0.8-1.6
			C79.3,42.9,79.8,42.3,80.2,41.7z"/>
		<path class="st36" d="M83.3,44.5c-3.4,4.1-6,3-7.9-2c1.1,0.5,2.1,0.6,3.1,0.5c-0.2,0.9-0.1,1.4,0.8,1.6c1.5,0.2,1.4-0.6,1.2-1.2
			c0,0,0.1,0.1,0.1,0.1C81.4,44.1,82.3,44.5,83.3,44.5z"/>
	</g>
	<g>
		<path class="st37" d="M80.2,41.7c0.1,0.7,0.5,1.1,1,1.3l0,0c0.6,0.4,1,1.1-0.4,1.7c-0.8,0.3-1.2-0.1-1.4-1
			C80,43.2,80.2,42.5,80.2,41.7z"/>
		<path class="st37" d="M84.3,42.6c-0.9,5.3-3.7,5.6-7.8,2.2c1.2-0.1,2.1-0.5,2.9-1.1c0.2,0.9,0.7,1.3,1.4,1
			c1.4-0.6,0.9-1.3,0.4-1.7c0,0,0.1,0,0.1,0.1C82.5,43.2,83.5,43,84.3,42.6z"/>
	</g>
	<g>
		<path class="st37" d="M80.2,41.7c0.4,0.5,0.9,0.7,1.5,0.7l0,0c0.7,0.1,1.4,0.4,0.5,1.6c-0.5,0.7-1.1,0.5-1.7-0.1
			C80.8,43.1,80.6,42.4,80.2,41.7z"/>
		<path class="st37" d="M84.2,40.4c1.8,5-0.4,6.7-5.6,5.8c0.9-0.7,1.6-1.5,2-2.4c0.6,0.6,1.2,0.8,1.7,0.1c0.9-1.2,0.2-1.6-0.5-1.6
			c0.1,0,0.1,0,0.1,0C83,41.9,83.7,41.2,84.2,40.4z"/>
	</g>
	<g>
		<path class="st38" d="M80.2,41.7c0.6,0.2,1.2,0.1,1.7-0.2l0,0c0.6-0.3,1.4-0.3,1.2,1.2c-0.1,0.8-0.7,1-1.6,0.8
			C81.5,42.6,80.9,42.1,80.2,41.7z"/>
		<path class="st38" d="M83,38.6c4.1,3.4,3,6-2,7.9c0.5-1.1,0.6-2.1,0.5-3.1c0.9,0.2,1.4,0.1,1.6-0.8c0.2-1.5-0.6-1.4-1.2-1.2
			c0,0,0.1-0.1,0.1-0.1C82.7,40.5,83,39.5,83,38.6z"/>
	</g>
	<g>
		<path class="st38" d="M80.2,41.7c0.7-0.1,1.1-0.5,1.3-1l0,0c0.4-0.6,1.1-1,1.7,0.4c0.3,0.8-0.1,1.2-1,1.4
			C81.8,41.9,81,41.7,80.2,41.7z"/>
		<path class="st38" d="M81.1,37.6c5.3,0.9,5.6,3.7,2.2,7.8c-0.1-1.2-0.5-2.1-1.1-2.9c0.9-0.2,1.3-0.7,1-1.4
			c-0.6-1.4-1.3-0.9-1.7-0.4c0,0,0-0.1,0.1-0.1C81.8,39.4,81.6,38.4,81.1,37.6z"/>
	</g>
	<g>
		<path class="st38" d="M80.2,41.7c0.5-0.4,0.7-0.9,0.7-1.5l0,0c0.1-0.7,0.4-1.4,1.6-0.5c0.7,0.5,0.5,1.1-0.1,1.7
			C81.7,41,80.9,41.3,80.2,41.7z"/>
		<path class="st38" d="M79,37.7c5-1.8,6.7,0.4,5.8,5.6c-0.7-0.9-1.5-1.6-2.4-2c0.6-0.6,0.8-1.2,0.1-1.7c-1.2-0.9-1.6-0.2-1.6,0.5
			c0-0.1,0-0.1,0-0.1C80.4,38.9,79.8,38.2,79,37.7z"/>
	</g>
	<g>
		<path class="st38" d="M80.2,41.7c0.2-0.6,0.1-1.2-0.2-1.7l0,0c-0.3-0.6-0.3-1.4,1.2-1.2c0.8,0.1,1,0.7,0.8,1.6
			C81.2,40.4,80.7,41,80.2,41.7z"/>
		<path class="st38" d="M77.1,38.9c3.4-4.1,6-3,7.9,2c-1.1-0.5-2.1-0.6-3.1-0.5c0.2-0.9,0.1-1.4-0.8-1.6c-1.5-0.2-1.4,0.6-1.2,1.2
			c0,0-0.1-0.1-0.1-0.1C79,39.2,78.1,38.8,77.1,38.9z"/>
	</g>
	<g>
		<path class="st38" d="M80.2,41.7c-0.1-0.7-0.5-1.1-1-1.3l0,0c-0.6-0.4-1-1.1,0.4-1.7c0.8-0.3,1.2,0.1,1.4,1
			C80.4,40.1,80.3,40.9,80.2,41.7z"/>
		<path class="st38" d="M76.2,40.8c0.9-5.3,3.7-5.6,7.8-2.2c-1.2,0.1-2.1,0.5-2.9,1.1c-0.2-0.9-0.7-1.3-1.4-1
			c-1.4,0.6-0.9,1.3-0.4,1.7c0,0-0.1,0-0.1-0.1C77.9,40.1,76.9,40.3,76.2,40.8z"/>
	</g>
	<g>
		<path class="st38" d="M80.2,41.7c-0.4-0.5-0.9-0.7-1.5-0.7l0,0c-0.7-0.1-1.4-0.4-0.5-1.6c0.5-0.7,1.1-0.5,1.7,0.1
			C79.6,40.2,79.9,40.9,80.2,41.7z"/>
		<path class="st38" d="M76.3,42.9c-1.8-5,0.4-6.7,5.6-5.8c-0.9,0.7-1.6,1.5-2,2.4c-0.6-0.6-1.2-0.8-1.7-0.1
			c-0.9,1.2-0.2,1.6,0.5,1.6c-0.1,0-0.1,0-0.1,0C77.5,41.5,76.7,42.1,76.3,42.9z"/>
	</g>
	<g>
		<path class="st39" d="M80.2,41.7c-0.6-0.2-1.2-0.1-1.7,0.2l0,0c-0.6,0.3-1.4,0.3-1.2-1.2c0.1-0.8,0.7-1,1.6-0.8
			C78.9,40.7,79.5,41.2,80.2,41.7z"/>
		<path class="st39" d="M77.4,44.7c-4.1-3.4-3-6,2-7.9C79,38,78.8,39,78.9,39.9c-0.9-0.2-1.4-0.1-1.6,0.8c-0.2,1.5,0.6,1.4,1.2,1.2
			c0,0-0.1,0.1-0.1,0.1C77.7,42.9,77.4,43.8,77.4,44.7z"/>
	</g>
	<g>
		<path class="st40" d="M77.8,40.8c-0.6-0.2-1.2-0.1-1.7,0.2l0,0c-0.6,0.3-1.4,0.3-1.2-1.2c0.1-0.8,0.7-1,1.6-0.8
			C76.5,39.9,77.1,40.4,77.8,40.8z"/>
		<path class="st40" d="M75,43.9c-4.1-3.4-3-6,2-7.9c-0.5,1.1-0.6,2.1-0.5,3.1c-0.9-0.2-1.4-0.1-1.6,0.8c-0.2,1.5,0.6,1.4,1.2,1.2
			c0,0-0.1,0.1-0.1,0.1C75.3,42,75,43,75,43.9z"/>
	</g>
	<g>
		<path class="st37" d="M78.3,43.3c-0.5,0.4-0.7,0.9-0.7,1.5l0,0c-0.1,0.7-0.4,1.4-1.6,0.5c-0.7-0.5-0.5-1.1,0.1-1.7
			C76.8,44,77.5,43.7,78.3,43.3z"/>
		<path class="st37" d="M79.5,47.3c-5,1.8-6.7-0.4-5.8-5.6c0.7,0.9,1.5,1.6,2.4,2c-0.6,0.6-0.8,1.2-0.1,1.7c1.2,0.9,1.6,0.2,1.6-0.5
			c0,0.1,0,0.1,0,0.1C78.1,46.1,78.7,46.8,79.5,47.3z"/>
	</g>
	<g>
		<path class="st37" d="M80.7,44.2c0.1,0.7,0.5,1.1,1,1.3l0,0c0.6,0.4,1,1.1-0.4,1.7c-0.8,0.3-1.2-0.1-1.4-1
			C80.5,45.7,80.6,45,80.7,44.2z"/>
		<path class="st37" d="M84.7,45.1c-0.9,5.3-3.7,5.6-7.8,2.2c1.2-0.1,2.1-0.5,2.9-1.1c0.2,0.9,0.7,1.3,1.4,1
			c1.4-0.6,0.9-1.3,0.4-1.7c0,0,0.1,0,0.1,0.1C83,45.7,83.9,45.5,84.7,45.1z"/>
	</g>
	<g>
		<path class="st38" d="M82.6,42.5c0.6,0.2,1.2,0.1,1.7-0.2l0,0c0.6-0.3,1.4-0.3,1.2,1.2c-0.1,0.8-0.7,1-1.6,0.8
			C83.9,43.5,83.3,43,82.6,42.5z"/>
		<path class="st38" d="M85.4,39.4c4.1,3.4,3,6-2,7.9c0.5-1.1,0.6-2.1,0.5-3.1c0.9,0.2,1.4,0.1,1.6-0.8c0.2-1.5-0.6-1.4-1.2-1.2
			c0,0,0.1-0.1,0.1-0.1C85.1,41.3,85.4,40.4,85.4,39.4z"/>
	</g>
	<g>
		<path class="st38" d="M82.1,40c0.5-0.4,0.7-0.9,0.7-1.5l0,0c0.1-0.7,0.4-1.4,1.6-0.5c0.7,0.5,0.5,1.1-0.1,1.7
			C83.6,39.4,82.9,39.6,82.1,40z"/>
		<path class="st38" d="M80.9,36c5-1.8,6.7,0.4,5.8,5.6c-0.7-0.9-1.5-1.6-2.4-2c0.6-0.6,0.8-1.2,0.1-1.7c-1.2-0.9-1.6-0.2-1.6,0.5
			c0-0.1,0-0.1,0-0.1C82.3,37.3,81.7,36.5,80.9,36z"/>
	</g>
	<g>
		<path class="st39" d="M79.7,39.2c-0.1-0.7-0.5-1.1-1-1.3l0,0c-0.6-0.4-1-1.1,0.4-1.7c0.8-0.3,1.2,0.1,1.4,1
			C79.9,37.6,79.8,38.3,79.7,39.2z"/>
		<path class="st39" d="M75.7,38.3c0.9-5.3,3.7-5.6,7.8-2.2c-1.2,0.1-2.1,0.5-2.9,1.1c-0.2-0.9-0.7-1.3-1.4-1
			c-1.4,0.6-0.9,1.3-0.4,1.7c0,0-0.1,0-0.1-0.1C77.5,37.6,76.5,37.8,75.7,38.3z"/>
	</g>
</g>
<path class="st1" d="M71.7,79.4l1.4,0.2l2.8,4.6l4.4-3.7h0l-9.4-15.5L56.1,77.4l2.8,4.6l4.4-3.7l1.6,0.2v0c-1,5.3-8.2,8.8-16.2,7.9
	c-8-1-13.6-6.1-12.5-11.4v0l-6.8-0.8v0C28,82,36.2,89.5,47.9,91C59.6,92.4,70.2,87.2,71.7,79.4L71.7,79.4z"/>
</svg>
