<?xml version="1.0" encoding="utf-8"?>
<!-- Generator: Adobe Illustrator 28.1.0, SVG Export Plug-In . SVG Version: 6.00 Build 0)  -->
<svg version="1.1" id="Laag_1" xmlns="http://www.w3.org/2000/svg" xmlns:xlink="http://www.w3.org/1999/xlink" x="0px" y="0px"
	 viewBox="0 0 105 103.1" style="enable-background:new 0 0 105 103.1;" xml:space="preserve">
<style type="text/css">
	.st0{fill:#F8B572;stroke:#1D1D1B;stroke-miterlimit:10;}
	.st1{fill:#3DA936;stroke:#000000;stroke-width:0.5;stroke-miterlimit:10;}
	.st2{fill:#FFFFFF;stroke:#1D1D1B;stroke-miterlimit:10;}
	.st3{fill:none;stroke:#1D1D1B;stroke-miterlimit:10;stroke-dasharray:3.5812;}
	.st4{fill:#FFEC00;stroke:#1D1D1B;stroke-miterlimit:10;}
	.st5{fill:none;stroke:#1D1D1B;stroke-miterlimit:10;stroke-dasharray:6.0535;}
	.st6{fill:#D9D9D9;stroke:#B1B1B1;stroke-miterlimit:10;}
	.st7{fill:#FFFFFF;stroke:#FFFFFF;stroke-width:2;stroke-miterlimit:10;}
	.st8{fill:none;stroke:#FFFFFF;stroke-width:2;stroke-miterlimit:10;}
	.st9{fill:#BD1622;stroke:#1D1D1B;stroke-width:0.25;stroke-miterlimit:10;}
	.st10{fill:#648F1E;stroke:#1D1D1B;stroke-width:0.25;stroke-miterlimit:10;}
	.st11{fill:none;stroke:#1D1D1B;stroke-width:0.25;stroke-miterlimit:10;}
	.st12{fill:#BD1622;stroke:#1D1D1B;stroke-width:0.25;stroke-linecap:round;stroke-linejoin:round;stroke-miterlimit:10;}
	.st13{fill:#63902F;stroke:#1D1D1B;stroke-width:0.25;stroke-linecap:round;stroke-linejoin:round;stroke-miterlimit:10;}
	.st14{fill:none;stroke:#1D1D1B;stroke-linecap:round;stroke-miterlimit:10;}
	.st15{fill:#E5007E;stroke:#1D1D1B;stroke-width:0.75;stroke-linecap:round;stroke-miterlimit:10;}
	.st16{fill:#B17F49;stroke:#1D1D1B;stroke-width:0.5;stroke-linecap:round;stroke-miterlimit:10;}
	.st17{fill:none;stroke:#B5B5B5;stroke-width:0.25;stroke-miterlimit:10;}
	.st18{fill:#7E4E24;stroke:#1D1D1B;stroke-width:0.25;stroke-miterlimit:10;}
	.st19{fill:#D3D005;}
	.st20{fill:#FFFFFF;stroke:#1D1D1B;stroke-linecap:round;stroke-linejoin:round;stroke-miterlimit:10;}
	.st21{fill:none;stroke:#1D1D1B;stroke-linecap:round;stroke-linejoin:round;stroke-miterlimit:10;}
	.st22{fill:none;stroke:#60B4E5;stroke-linecap:round;stroke-miterlimit:10;}
	.st23{fill:#617EBE;stroke:#1D1D1B;stroke-linecap:round;stroke-linejoin:round;stroke-miterlimit:10;}
	.st24{fill:#F9BB75;stroke:#1D1E1C;stroke-width:0.75;stroke-linecap:round;stroke-linejoin:round;stroke-miterlimit:10;}
	.st25{fill:#009540;}
	.st26{fill:none;stroke:#1D1E1C;stroke-width:0.75;stroke-linecap:round;stroke-linejoin:round;stroke-miterlimit:10;}
	.st27{fill:#925F36;stroke:#1D1E1C;stroke-width:0.75;stroke-linecap:round;stroke-linejoin:round;stroke-miterlimit:10;}
	.st28{fill:#F8B133;stroke:#1D1E1C;stroke-width:0.75;stroke-linecap:round;stroke-linejoin:round;stroke-miterlimit:10;}
	.st29{fill:#AB0F09;stroke:#1D1E1C;stroke-width:0.75;stroke-linecap:round;stroke-linejoin:round;stroke-miterlimit:10;}
	.st30{fill:#FFFFFF;}
</style>
<g>
	<path class="st0" d="M214.6-112.4L214.6-112.4c-6.6,0-11.9-5.3-11.9-11.9v-3.6h22.8v4.7C225.5-117.3,220.6-112.4,214.6-112.4z"/>
	<path class="st0" d="M254-112.4L254-112.4c-8.4,0-15.3-6.8-15.3-15.3V-138h29.1v11.7C267.8-118.6,261.6-112.4,254-112.4z"/>
	<path class="st1" d="M250.1-98.1l1.1,0.2l2.1,4.2l3.3-3.4h0l-7-14.2l-11,11.4l2.1,4.2l3.3-3.4l1.2,0.2v0c-0.8,4.8-6.1,8.1-12,7.2
		c-5.9-0.9-10.1-5.5-9.3-10.4v0l-5-0.8v0c-1.1,7.1,5.1,14,13.7,15.3C241.1-86.2,249-90.9,250.1-98.1L250.1-98.1z"/>
</g>
<g>
	<path class="st2" d="M95.8-106.8H85.7c-2,0-3.6-1.6-3.6-3.6l0,0c0-2,1.6-3.6,3.6-3.6h10.2c2,0,3.6,1.6,3.6,3.6l0,0
		C99.4-108.4,97.8-106.8,95.8-106.8z"/>
	<g>
		<line class="st3" x1="85.1" y1="-119.9" x2="88.7" y2="-119.9"/>
	</g>
	<circle class="st4" cx="96.3" cy="-119.9" r="6.2"/>
	<circle class="st2" cx="84.9" cy="-114.9" r="3.8"/>
	<circle class="st2" cx="89.4" cy="-117.1" r="4.4"/>
	<circle class="st2" cx="96.1" cy="-114.3" r="4.2"/>
	<circle class="st2" cx="89.3" cy="-111" r="4.2"/>
	<circle class="st2" cx="98.8" cy="-111.5" r="4.2"/>
	<circle class="st2" cx="82.9" cy="-110.8" r="3.5"/>
	<g>
		<line class="st3" x1="96.3" y1="-131.1" x2="96.3" y2="-127.5"/>
	</g>
	<g>
		<line class="st3" x1="90.7" y1="-129.6" x2="92.5" y2="-126.5"/>
	</g>
	<g>
		<line class="st3" x1="86.6" y1="-125.5" x2="89.7" y2="-123.7"/>
	</g>
	<g>
		<line class="st3" x1="106" y1="-114.3" x2="102.9" y2="-116.1"/>
	</g>
	<g>
		<line class="st3" x1="107.5" y1="-119.9" x2="103.9" y2="-119.9"/>
	</g>
	<g>
		<line class="st3" x1="106" y1="-125.5" x2="102.9" y2="-123.7"/>
	</g>
	<g>
		<line class="st3" x1="101.9" y1="-129.6" x2="100.1" y2="-126.5"/>
	</g>
</g>
<g>
	<circle class="st4" cx="132.8" cy="-119" r="6.9"/>
	<g>
		<line class="st5" x1="132.8" y1="-134.6" x2="132.8" y2="-128.5"/>
	</g>
	<g>
		<line class="st5" x1="125" y1="-132.5" x2="128" y2="-127.3"/>
	</g>
	<g>
		<line class="st5" x1="119.3" y1="-126.8" x2="124.5" y2="-123.8"/>
	</g>
	<g>
		<line class="st5" x1="117.2" y1="-119" x2="123.2" y2="-119"/>
	</g>
	<g>
		<line class="st5" x1="119.3" y1="-111.2" x2="124.5" y2="-114.2"/>
	</g>
	<g>
		<line class="st5" x1="125" y1="-105.5" x2="128" y2="-110.7"/>
	</g>
	<g>
		<line class="st5" x1="132.8" y1="-103.4" x2="132.8" y2="-109.4"/>
	</g>
	<g>
		<line class="st5" x1="140.6" y1="-105.5" x2="137.6" y2="-110.7"/>
	</g>
	<g>
		<line class="st5" x1="146.3" y1="-111.2" x2="141.1" y2="-114.2"/>
	</g>
	<g>
		<line class="st5" x1="148.4" y1="-119" x2="142.3" y2="-119"/>
	</g>
	<g>
		<line class="st5" x1="146.3" y1="-126.8" x2="141.1" y2="-123.8"/>
	</g>
	<g>
		<line class="st5" x1="140.6" y1="-132.5" x2="137.6" y2="-127.3"/>
	</g>
</g>
<g>
	<path class="st6" d="M20.7-117.3H10.5c-2,0-3.6-1.6-3.6-3.6l0,0c0-2,1.6-3.6,3.6-3.6h10.1c2,0,3.6,1.6,3.6,3.6l0,0
		C24.3-118.9,22.7-117.3,20.7-117.3z"/>
	<circle class="st6" cx="9.8" cy="-125.4" r="3.8"/>
	<circle class="st6" cx="14.2" cy="-127.6" r="4.4"/>
	<circle class="st6" cx="21" cy="-124.8" r="4.2"/>
	<circle class="st6" cx="14.1" cy="-121.5" r="4.2"/>
	<circle class="st6" cx="23.7" cy="-122" r="4.2"/>
	<circle class="st6" cx="7.7" cy="-121.3" r="3.5"/>
</g>
<g>
	<circle class="st7" cx="42.9" cy="-99.7" r="0.3"/>
	<line class="st8" x1="52.3" y1="-97.9" x2="55.7" y2="-103.9"/>
	<circle class="st8" cx="51.5" cy="-96.3" r="0.3"/>
	<g>
		<g>
			<path class="st6" d="M62.8-113.2H46.1c-1.3,0-2.4-1.1-2.4-2.4v-4.1c0-1.3,1.1-2.4,2.4-2.4h16.7c1.3,0,2.4,1.1,2.4,2.4v4.1
				C65.2-114.2,64.1-113.2,62.8-113.2z"/>
			<circle class="st6" cx="47.2" cy="-123.2" r="4.8"/>
			<circle class="st6" cx="52.7" cy="-125.9" r="5.5"/>
			<circle class="st6" cx="61.1" cy="-122.4" r="5.2"/>
			<circle class="st6" cx="52.6" cy="-118.3" r="5.3"/>
			<circle class="st6" cx="64.4" cy="-119" r="5.3"/>
			<circle class="st6" cx="44.7" cy="-118.1" r="4.3"/>
		</g>
		<line class="st8" x1="43.7" y1="-101.2" x2="47.1" y2="-107.3"/>
		<line class="st8" x1="51.9" y1="-107" x2="48.5" y2="-100.9"/>
		<circle class="st7" cx="52.8" cy="-108.5" r="0.3"/>
		<line class="st8" x1="61.3" y1="-108.5" x2="57.9" y2="-102.5"/>
		<circle class="st7" cx="62.1" cy="-110" r="0.3"/>
	</g>
</g>
<g>
	<g>
		<g>
			<path class="st9" d="M-47,77.2c-0.6,0.1-1.1-0.2-1.3-0.8c0.6-0.2,1-0.2,1-0.2S-47.1,76.6-47,77.2z"/>
			<path class="st10" d="M-47.8,83.6c-0.6,1-1.4,1.9-2.2,2.5l-5.1-3.2c0.3-1,0.7-2,1.4-3c1.3-2.1,4-3,5.4-3.4
				c0.2,0.6,0.7,0.9,1.3,0.8C-46.7,78.7-46.4,81.4-47.8,83.6z"/>
			<line class="st11" x1="-47" y1="77.2" x2="-47" y2="77.2"/>
		</g>
		<g>
			<path class="st9" d="M-63.1,76.6c-0.3,0.6-0.7,0.8-1.4,0.7c0.2-0.6,0.3-1,0.3-1S-63.7,76.3-63.1,76.6z"/>
			<path class="st10" d="M-58,80.4c0.5,1.1,0.9,2.1,1.1,3.1l-5.4,2.8c-0.7-0.7-1.4-1.6-1.9-2.7c-1.2-2.2-0.7-4.9-0.2-6.4
				c0.6,0.1,1.1-0.1,1.4-0.7C-61.7,77.1-59.2,78.2-58,80.4z"/>
			<line class="st11" x1="-63.1" y1="76.6" x2="-63.1" y2="76.6"/>
		</g>
		<g>
			<path class="st9" d="M-55,74.7c-0.5,0.4-1,0.3-1.5-0.1c0.5-0.4,0.8-0.7,0.8-0.7S-55.4,74.2-55,74.7z"/>
			<path class="st10" d="M-52.5,80.6c0,1.2-0.3,2.3-0.6,3.2l-6-0.3c-0.3-1-0.4-2.1-0.3-3.3c0.1-2.5,1.9-4.6,3-5.7
				c0.5,0.4,1,0.4,1.5,0.1C-54,75.9-52.4,78.1-52.5,80.6z"/>
			<line class="st11" x1="-55" y1="74.7" x2="-55" y2="74.7"/>
		</g>
		<g>
			<path class="st9" d="M-71.8,90.2c0.4,0.5,0.3,1-0.1,1.5c-0.4-0.5-0.7-0.8-0.7-0.8S-72.2,90.6-71.8,90.2z"/>
			<path class="st10" d="M-65.9,87.7c1.2,0.1,2.3,0.3,3.2,0.6l-0.3,6c-1,0.3-2.1,0.4-3.3,0.3c-2.5-0.1-4.6-1.9-5.7-3
				c0.4-0.5,0.4-1,0.1-1.5C-70.6,89.2-68.4,87.6-65.9,87.7z"/>
			<line class="st11" x1="-71.8" y1="90.2" x2="-71.8" y2="90.2"/>
		</g>
		<g>
			<path class="st9" d="M-69.3,82.2c0.1,0.6-0.2,1.1-0.8,1.3c-0.2-0.6-0.2-1-0.2-1S-69.9,82.3-69.3,82.2z"/>
			<path class="st10" d="M-62.9,83c1,0.6,1.9,1.4,2.5,2.2l-3.2,5.1c-1-0.3-2-0.7-3-1.4c-2.1-1.3-3-3.9-3.4-5.4
				c0.6-0.2,0.9-0.7,0.8-1.3C-67.8,81.9-65,81.7-62.9,83z"/>
			<line class="st11" x1="-69.3" y1="82.2" x2="-69.3" y2="82.2"/>
		</g>
		<g>
			<path class="st9" d="M-64.2,104.5c0.6-0.1,1.1,0.2,1.3,0.8c-0.6,0.2-1,0.2-1,0.2S-64.1,105.2-64.2,104.5z"/>
			<path class="st10" d="M-63.5,98.2c0.6-1,1.4-1.9,2.2-2.5l5.1,3.2c-0.3,1-0.7,2-1.4,3c-1.3,2.1-4,3-5.4,3.4
				c-0.2-0.6-0.7-0.9-1.3-0.8C-64.5,103-64.8,100.3-63.5,98.2z"/>
			<line class="st11" x1="-64.3" y1="104.5" x2="-64.2" y2="104.5"/>
		</g>
		<g>
			<path class="st9" d="M-69.9,98.4c0.6,0.3,0.8,0.7,0.7,1.4c-0.6-0.2-1-0.3-1-0.3S-70.1,99-69.9,98.4z"/>
			<path class="st10" d="M-66.1,93.3c1.1-0.6,2.1-0.9,3.1-1.1l2.8,5.4c-0.7,0.7-1.6,1.4-2.7,1.9c-2.2,1.2-4.9,0.7-6.4,0.2
				c0.1-0.6-0.1-1.1-0.7-1.4C-69.4,96.9-68.3,94.4-66.1,93.3z"/>
			<line class="st11" x1="-69.9" y1="98.4" x2="-69.9" y2="98.4"/>
		</g>
		<g>
			<path class="st9" d="M-48.1,105.2c0.3-0.6,0.7-0.8,1.4-0.7c-0.2,0.6-0.3,1-0.3,1S-47.5,105.4-48.1,105.2z"/>
			<path class="st10" d="M-53.2,101.3c-0.5-1.1-0.9-2.1-1.1-3.1l5.4-2.8c0.7,0.7,1.4,1.6,1.9,2.7c1.2,2.2,0.7,4.9,0.2,6.4
				c-0.6-0.1-1.1,0.1-1.4,0.7C-49.5,104.7-52,103.5-53.2,101.3z"/>
			<line class="st11" x1="-48.1" y1="105.2" x2="-48.1" y2="105.2"/>
		</g>
		<g>
			<path class="st9" d="M-56.3,107c0.5-0.4,1-0.3,1.5,0.1c-0.5,0.4-0.8,0.7-0.8,0.7S-55.8,107.5-56.3,107z"/>
			<path class="st10" d="M-58.8,101.1c0-1.2,0.3-2.3,0.6-3.2l6,0.3c0.3,1,0.4,2.1,0.3,3.3c-0.1,2.5-1.9,4.6-3,5.7
				c-0.5-0.4-1-0.4-1.5-0.1C-57.3,105.9-58.9,103.6-58.8,101.1z"/>
			<line class="st11" x1="-56.3" y1="107" x2="-56.3" y2="107"/>
		</g>
		<g>
			<path class="st9" d="M-39.5,91.5c-0.4-0.5-0.3-1,0.1-1.5c0.5,0.5,0.7,0.8,0.7,0.8S-39,91.1-39.5,91.5z"/>
			<path class="st10" d="M-45.4,94c-1.2-0.1-2.3-0.3-3.2-0.6l0.3-6c1-0.3,2.1-0.4,3.3-0.3c2.5,0.1,4.6,1.9,5.7,3
				c-0.4,0.5-0.4,1-0.1,1.5C-40.6,92.5-42.9,94.1-45.4,94z"/>
			<line class="st11" x1="-39.5" y1="91.5" x2="-39.5" y2="91.5"/>
		</g>
		<g>
			<path class="st9" d="M-42,99.5c-0.1-0.6,0.2-1.1,0.8-1.3c0.2,0.6,0.2,1,0.2,1S-41.3,99.4-42,99.5z"/>
			<path class="st10" d="M-48.3,98.7c-1-0.6-1.9-1.4-2.5-2.2l3.2-5.1c1,0.3,2,0.7,3,1.4c2.1,1.3,3,3.9,3.4,5.4
				c-0.6,0.2-0.9,0.7-0.8,1.3C-43.5,99.8-46.2,100.1-48.3,98.7z"/>
			<line class="st11" x1="-42" y1="99.5" x2="-42" y2="99.5"/>
		</g>
		<g>
			<path class="st9" d="M-41.3,83.4c-0.6-0.3-0.8-0.7-0.7-1.4c0.6,0.2,1,0.3,1,0.3S-41.1,82.8-41.3,83.4z"/>
			<path class="st10" d="M-45.2,88.5c-1.1,0.6-2.1,0.9-3.1,1.1l-2.8-5.4c0.7-0.7,1.6-1.4,2.7-1.9c2.2-1.2,4.9-0.7,6.4-0.2
				c-0.1,0.6,0.1,1.1,0.7,1.4C-41.8,84.8-43,87.3-45.2,88.5z"/>
			<line class="st11" x1="-41.3" y1="83.4" x2="-41.3" y2="83.4"/>
		</g>
	</g>
	<g>
		<g>
			<path class="st9" d="M-52.7,79.6c-0.4,0.2-0.8,0.1-1.1-0.3c0.4-0.2,0.7-0.4,0.7-0.4S-53,79.2-52.7,79.6z"/>
			<path class="st10" d="M-51.9,84.1c-0.2,0.8-0.5,1.6-0.9,2.2l-4.2-1.1c0-0.7,0-1.5,0.3-2.4c0.5-1.8,2-3,3-3.6
				c0.3,0.4,0.7,0.5,1.1,0.3C-52.2,80.5-51.4,82.3-51.9,84.1z"/>
			<line class="st11" x1="-52.7" y1="79.6" x2="-52.7" y2="79.6"/>
		</g>
		<g>
			<path class="st9" d="M-64,82.7c-0.1,0.5-0.3,0.7-0.8,0.8c0-0.5,0-0.8,0-0.8S-64.4,82.7-64,82.7z"/>
			<path class="st10" d="M-59.6,84.2c0.6,0.6,1.1,1.3,1.5,1.9l-3.1,3.1c-0.7-0.3-1.3-0.8-1.9-1.4c-1.3-1.3-1.6-3.2-1.6-4.3
				c0.5-0.1,0.7-0.3,0.8-0.8C-62.9,82.7-60.9,83-59.6,84.2z"/>
			<line class="st11" x1="-64" y1="82.7" x2="-64" y2="82.7"/>
		</g>
		<g>
			<path class="st9" d="M-58.8,79.6c-0.3,0.4-0.6,0.5-1.1,0.3c0.2-0.4,0.4-0.7,0.4-0.7S-59.2,79.4-58.8,79.6z"/>
			<path class="st10" d="M-55.8,83.1c0.2,0.8,0.3,1.6,0.3,2.4l-4.2,1.2c-0.4-0.6-0.7-1.4-1-2.2c-0.5-1.8,0.3-3.6,0.8-4.6
				c0.4,0.2,0.8,0.1,1.1-0.3C-57.8,80.2-56.2,81.4-55.8,83.1z"/>
			<line class="st11" x1="-58.8" y1="79.6" x2="-58.8" y2="79.6"/>
		</g>
		<g>
			<path class="st9" d="M-66.8,94c0.4,0.3,0.5,0.6,0.3,1.1c-0.4-0.2-0.7-0.4-0.7-0.4S-67.1,94.4-66.8,94z"/>
			<path class="st10" d="M-63.4,91c0.8-0.2,1.6-0.3,2.4-0.3l1.2,4.2c-0.6,0.4-1.4,0.7-2.2,1c-1.8,0.5-3.6-0.3-4.6-0.8
				c0.2-0.4,0.1-0.8-0.3-1.1C-66.3,93.1-65.1,91.5-63.4,91z"/>
			<line class="st11" x1="-66.8" y1="94" x2="-66.8" y2="94"/>
		</g>
		<g>
			<path class="st9" d="M-66.9,88c0.2,0.4,0.1,0.8-0.3,1.1c-0.2-0.4-0.4-0.7-0.4-0.7S-67.3,88.2-66.9,88z"/>
			<path class="st10" d="M-62.4,87.1c0.8,0.2,1.6,0.5,2.2,0.9l-1.1,4.2c-0.7,0-1.5,0-2.4-0.3c-1.8-0.4-3-2-3.5-2.9
				c0.4-0.3,0.5-0.7,0.3-1.1C-66,87.5-64.1,86.7-62.4,87.1z"/>
			<line class="st11" x1="-66.9" y1="88" x2="-66.9" y2="88"/>
		</g>
		<g>
			<path class="st9" d="M-58.5,102.2c0.4-0.2,0.8-0.1,1.1,0.3c-0.4,0.2-0.7,0.4-0.7,0.4S-58.3,102.6-58.5,102.2z"/>
			<path class="st10" d="M-59.4,97.6c0.2-0.8,0.5-1.6,0.9-2.2l4.2,1.1c0,0.7,0,1.5-0.3,2.4c-0.5,1.8-2,3-3,3.6
				c-0.3-0.4-0.7-0.5-1.1-0.3C-59,101.2-59.8,99.4-59.4,97.6z"/>
			<line class="st11" x1="-58.5" y1="102.2" x2="-58.5" y2="102.2"/>
		</g>
		<g>
			<path class="st9" d="M-63.8,99.2c0.5,0.1,0.7,0.3,0.8,0.8c-0.5,0-0.8,0-0.8,0S-63.8,99.7-63.8,99.2z"/>
			<path class="st10" d="M-62.2,94.8c0.6-0.6,1.3-1.1,1.9-1.4l3.1,3.1c-0.3,0.7-0.8,1.3-1.4,1.9c-1.3,1.3-3.2,1.6-4.3,1.6
				c-0.1-0.5-0.3-0.7-0.8-0.8C-63.8,98.1-63.5,96.2-62.2,94.8z"/>
			<line class="st11" x1="-63.8" y1="99.2" x2="-63.8" y2="99.2"/>
		</g>
		<g>
			<path class="st9" d="M-47.3,99c0.1-0.5,0.3-0.7,0.8-0.8c0,0.5,0,0.8,0,0.8S-46.8,99-47.3,99z"/>
			<path class="st10" d="M-51.6,97.5c-0.6-0.6-1.1-1.3-1.5-1.9l3.1-3.1c0.7,0.3,1.3,0.8,1.9,1.4c1.3,1.3,1.5,3.2,1.6,4.3
				c-0.5,0.1-0.7,0.3-0.8,0.8C-48.3,99-50.3,98.8-51.6,97.5z"/>
			<line class="st11" x1="-47.3" y1="99" x2="-47.3" y2="99"/>
		</g>
		<g>
			<path class="st9" d="M-52.5,102.1c0.3-0.4,0.6-0.5,1.1-0.3c-0.2,0.4-0.4,0.7-0.4,0.7S-52.1,102.3-52.5,102.1z"/>
			<path class="st10" d="M-55.5,98.6c-0.2-0.8-0.3-1.6-0.3-2.4l4.2-1.2c0.4,0.6,0.7,1.4,1,2.2c0.5,1.8-0.3,3.6-0.8,4.6
				c-0.4-0.2-0.8-0.1-1.1,0.3C-53.4,101.5-55,100.3-55.5,98.6z"/>
			<line class="st11" x1="-52.5" y1="102.1" x2="-52.5" y2="102.1"/>
		</g>
		<g>
			<path class="st9" d="M-44.4,87.7c-0.4-0.3-0.5-0.6-0.3-1.1C-44.3,86.9-44,87-44,87S-44.1,87.3-44.4,87.7z"/>
			<path class="st10" d="M-47.9,90.7c-0.8,0.2-1.6,0.3-2.4,0.3l-1.2-4.2c0.6-0.4,1.4-0.7,2.2-1c1.8-0.5,3.6,0.3,4.5,0.8
				c-0.2,0.4-0.1,0.8,0.3,1.1C-44.9,88.6-46.1,90.2-47.9,90.7z"/>
			<line class="st11" x1="-44.4" y1="87.7" x2="-44.4" y2="87.7"/>
		</g>
		<g>
			<path class="st9" d="M-44.3,93.8c-0.2-0.4-0.1-0.8,0.3-1.1c0.2,0.4,0.4,0.7,0.4,0.7S-43.9,93.5-44.3,93.8z"/>
			<path class="st10" d="M-48.8,94.6c-0.8-0.2-1.6-0.5-2.2-0.9l1.1-4.2c0.7,0,1.5,0,2.4,0.3c1.8,0.4,3,2,3.5,2.9
				c-0.4,0.3-0.5,0.7-0.3,1.1C-45.3,94.3-47.1,95.1-48.8,94.6z"/>
			<line class="st11" x1="-44.3" y1="93.8" x2="-44.3" y2="93.8"/>
		</g>
		<g>
			<path class="st9" d="M-47.5,82.5c-0.5-0.1-0.7-0.3-0.8-0.8c0.5,0,0.8,0,0.8,0S-47.5,82.1-47.5,82.5z"/>
			<path class="st10" d="M-49,86.9c-0.6,0.6-1.3,1.1-1.9,1.4l-3.1-3.1c0.3-0.7,0.8-1.3,1.4-1.9c1.3-1.3,3.2-1.6,4.3-1.6
				c0.1,0.5,0.3,0.7,0.8,0.8C-47.5,83.6-47.7,85.6-49,86.9z"/>
			<line class="st11" x1="-47.5" y1="82.5" x2="-47.5" y2="82.5"/>
		</g>
	</g>
	<g>
		<path class="st12" d="M-55.7,90.9c-0.5,0.1-0.8,0.3-1,0.7l0,0c-0.3,0.4-0.8,0.8-1.2-0.3c-0.2-0.6,0.1-0.9,0.7-1.1
			C-56.9,90.8-56.3,90.8-55.7,90.9z"/>
		<path class="st13" d="M-56.4,93.9c-4-0.7-4.2-2.8-1.7-5.9c0.1,0.9,0.4,1.6,0.8,2.2c-0.6,0.2-1,0.5-0.7,1.1c0.4,1,1,0.7,1.2,0.3
			c0,0,0,0.1,0,0.1C-56.9,92.6-56.8,93.3-56.4,93.9z"/>
	</g>
	<g>
		<path class="st12" d="M-55.7,90.9c-0.4,0.3-0.5,0.7-0.5,1.2l0,0c0,0.5-0.3,1.1-1.2,0.4c-0.5-0.4-0.4-0.8,0.1-1.3
			C-56.8,91.4-56.3,91.2-55.7,90.9z"/>
		<path class="st13" d="M-54.8,93.9c-3.8,1.4-5-0.3-4.4-4.2c0.5,0.7,1.1,1.2,1.8,1.5c-0.5,0.5-0.6,0.9-0.1,1.3
			c0.9,0.7,1.2,0.1,1.2-0.4c0,0,0,0.1,0,0.1C-55.9,93-55.4,93.5-54.8,93.9z"/>
	</g>
	<g>
		<path class="st12" d="M-55.7,90.9c-0.2,0.5-0.1,0.9,0.1,1.2l0,0c0.2,0.5,0.2,1.1-0.9,0.9c-0.6-0.1-0.7-0.5-0.6-1.2
			C-56.5,91.8-56.1,91.4-55.7,90.9z"/>
		<path class="st13" d="M-53.4,93c-2.6,3.1-4.5,2.3-5.9-1.5c0.8,0.3,1.6,0.5,2.3,0.4c-0.2,0.6-0.1,1.1,0.6,1.2
			c1.1,0.1,1.1-0.5,0.9-0.9c0,0,0,0.1,0.1,0.1C-54.8,92.8-54.1,93-53.4,93z"/>
	</g>
	<g>
		<path class="st12" d="M-55.7,90.9c0.1,0.5,0.3,0.8,0.7,1l0,0c0.4,0.3,0.8,0.8-0.3,1.2c-0.6,0.2-0.9-0.1-1.1-0.7
			C-55.9,92.1-55.8,91.5-55.7,90.9z"/>
		<path class="st13" d="M-52.7,91.6c-0.7,4-2.8,4.2-5.9,1.7c0.9-0.1,1.6-0.4,2.2-0.8c0.2,0.6,0.5,1,1.1,0.7c1-0.4,0.7-0.9,0.3-1.2
			c0,0,0.1,0,0.1,0.1C-54,92.1-53.3,91.9-52.7,91.6z"/>
	</g>
	<g>
		<path class="st12" d="M-55.7,90.9c0.3,0.4,0.7,0.5,1.2,0.5l0,0c0.5,0.1,1,0.3,0.4,1.2c-0.4,0.5-0.8,0.4-1.3-0.1
			C-55.3,92-55.5,91.4-55.7,90.9z"/>
		<path class="st13" d="M-52.8,89.9c1.4,3.8-0.3,5-4.2,4.4c0.7-0.5,1.2-1.1,1.5-1.8c0.5,0.5,0.9,0.6,1.3,0.1
			c0.7-0.9,0.1-1.2-0.4-1.2c0,0,0.1,0,0.1,0C-53.7,91-53.1,90.6-52.8,89.9z"/>
	</g>
	<g>
		<path class="st12" d="M-55.7,90.9c0.5,0.2,0.9,0.1,1.2-0.1l0,0c0.5-0.2,1.1-0.2,0.9,0.9c-0.1,0.6-0.5,0.7-1.2,0.6
			C-54.8,91.6-55.2,91.2-55.7,90.9z"/>
		<path class="st13" d="M-53.6,88.6c3.1,2.6,2.3,4.5-1.5,5.9c0.3-0.8,0.5-1.6,0.4-2.3c0.6,0.2,1.1,0.1,1.2-0.6
			c0.1-1.1-0.5-1.1-0.9-0.9c0,0,0.1,0,0.1-0.1C-53.9,90-53.6,89.3-53.6,88.6z"/>
	</g>
	<g>
		<path class="st12" d="M-55.7,90.9c0.5-0.1,0.8-0.3,1-0.7l0,0c0.3-0.4,0.8-0.8,1.2,0.3c0.2,0.6-0.1,0.9-0.7,1.1
			C-54.5,91-55.1,90.9-55.7,90.9z"/>
		<path class="st13" d="M-55.1,87.8c4,0.7,4.2,2.8,1.7,5.9c-0.1-0.9-0.4-1.6-0.8-2.2c0.6-0.2,1-0.5,0.7-1.1c-0.4-1-1-0.7-1.2-0.3
			c0,0,0-0.1,0-0.1C-54.6,89.2-54.7,88.4-55.1,87.8z"/>
	</g>
	<g>
		<path class="st12" d="M-55.7,90.9c0.4-0.3,0.5-0.7,0.5-1.2l0,0c0-0.5,0.3-1.1,1.2-0.4c0.5,0.4,0.4,0.8-0.1,1.3
			C-54.6,90.4-55.2,90.6-55.7,90.9z"/>
		<path class="st13" d="M-56.7,87.9c3.8-1.4,5,0.3,4.4,4.2c-0.5-0.7-1.1-1.2-1.8-1.5c0.5-0.5,0.6-0.9,0.1-1.3
			c-0.9-0.7-1.2-0.1-1.2,0.4c0,0,0-0.1,0-0.1C-55.6,88.8-56.1,88.2-56.7,87.9z"/>
	</g>
	<g>
		<path class="st12" d="M-55.7,90.9c0.2-0.5,0.1-0.9-0.1-1.2l0,0c-0.2-0.5-0.2-1.1,0.9-0.9c0.6,0.1,0.7,0.5,0.6,1.2
			C-55,89.9-55.4,90.4-55.7,90.9z"/>
		<path class="st13" d="M-58,88.8c2.6-3.1,4.5-2.3,5.9,1.5c-0.8-0.3-1.6-0.5-2.3-0.4c0.2-0.6,0.1-1.1-0.6-1.2
			c-1.1-0.1-1.1,0.5-0.9,0.9c0,0,0-0.1-0.1-0.1C-56.6,89-57.3,88.8-58,88.8z"/>
	</g>
	<g>
		<path class="st12" d="M-55.7,90.9c-0.1-0.5-0.3-0.8-0.7-1l0,0c-0.4-0.3-0.8-0.8,0.3-1.2c0.6-0.2,0.9,0.1,1.1,0.7
			C-55.6,89.7-55.7,90.3-55.7,90.9z"/>
		<path class="st13" d="M-58.8,90.2c0.7-4,2.8-4.2,5.9-1.7c-0.9,0.1-1.6,0.4-2.2,0.8c-0.2-0.6-0.5-1-1.1-0.7c-1,0.4-0.7,0.9-0.3,1.2
			c0,0-0.1,0-0.1-0.1C-57.5,89.7-58.2,89.9-58.8,90.2z"/>
	</g>
	<g>
		<path class="st12" d="M-55.7,90.9c-0.3-0.4-0.7-0.5-1.2-0.5l0,0c-0.5-0.1-1-0.3-0.4-1.2c0.4-0.5,0.8-0.4,1.3,0.1
			C-56.2,89.8-56,90.3-55.7,90.9z"/>
		<path class="st13" d="M-58.7,91.8c-1.4-3.8,0.3-5,4.2-4.4c-0.7,0.5-1.2,1.1-1.5,1.8c-0.5-0.5-0.9-0.6-1.3-0.1
			c-0.7,0.9-0.1,1.2,0.4,1.2c0,0-0.1,0-0.1,0C-57.8,90.7-58.4,91.2-58.7,91.8z"/>
	</g>
	<g>
		<path class="st12" d="M-55.7,90.9c-0.5-0.2-0.9-0.1-1.2,0.1l0,0c-0.5,0.2-1.1,0.2-0.9-0.9c0.1-0.6,0.5-0.7,1.2-0.6
			C-56.7,90.2-56.2,90.6-55.7,90.9z"/>
		<path class="st13" d="M-57.8,93.2c-3.1-2.6-2.3-4.5,1.5-5.9c-0.3,0.8-0.5,1.6-0.4,2.3c-0.6-0.2-1.1-0.1-1.2,0.6
			c-0.1,1.1,0.5,1.1,0.9,0.9c0,0-0.1,0-0.1,0.1C-57.6,91.8-57.8,92.5-57.8,93.2z"/>
	</g>
	<g>
		<path class="st12" d="M-57.5,90.3c-0.5-0.2-0.9-0.1-1.2,0.1l0,0c-0.5,0.2-1.1,0.2-0.9-0.9c0.1-0.6,0.5-0.7,1.2-0.6
			C-58.5,89.5-58,89.9-57.5,90.3z"/>
		<path class="st13" d="M-59.7,92.6c-3.1-2.6-2.3-4.5,1.5-5.9c-0.3,0.8-0.5,1.6-0.4,2.3c-0.6-0.2-1.1-0.1-1.2,0.6
			c-0.1,1.1,0.5,1.1,0.9,0.9c0,0-0.1,0-0.1,0.1C-59.4,91.2-59.7,91.9-59.7,92.6z"/>
	</g>
	<g>
		<path class="st12" d="M-57.2,92.1c-0.4,0.3-0.5,0.7-0.5,1.2l0,0c0,0.5-0.3,1.1-1.2,0.4c-0.5-0.4-0.4-0.8,0.1-1.3
			C-58.3,92.6-57.7,92.4-57.2,92.1z"/>
		<path class="st13" d="M-56.2,95.1c-3.8,1.4-5-0.3-4.4-4.2c0.5,0.7,1.1,1.2,1.8,1.5c-0.5,0.5-0.6,0.9-0.1,1.3
			c0.9,0.7,1.2,0.1,1.2-0.4c0,0,0,0.1,0,0.1C-57.3,94.2-56.9,94.8-56.2,95.1z"/>
	</g>
	<g>
		<path class="st12" d="M-55.4,92.8c0.1,0.5,0.3,0.8,0.7,1l0,0c0.4,0.3,0.8,0.8-0.3,1.2c-0.6,0.2-0.9-0.1-1.1-0.7
			C-55.5,94-55.4,93.4-55.4,92.8z"/>
		<path class="st13" d="M-52.3,93.4c-0.7,4-2.8,4.2-5.9,1.7c0.9-0.1,1.6-0.4,2.2-0.8c0.2,0.6,0.5,1,1.1,0.7c1-0.4,0.7-0.9,0.3-1.2
			c0,0,0.1,0,0.1,0.1C-53.7,93.9-52.9,93.8-52.3,93.4z"/>
	</g>
	<g>
		<path class="st12" d="M-53.9,91.5c0.5,0.2,0.9,0.1,1.2-0.1l0,0c0.5-0.2,1.1-0.2,0.9,0.9c-0.1,0.6-0.5,0.7-1.2,0.6
			C-53,92.2-53.4,91.9-53.9,91.5z"/>
		<path class="st13" d="M-51.8,89.2c3.1,2.6,2.3,4.5-1.5,5.9c0.3-0.8,0.5-1.6,0.4-2.3c0.6,0.2,1.1,0.1,1.2-0.6
			c0.1-1.1-0.5-1.1-0.9-0.9c0,0,0.1,0,0.1-0.1C-52.1,90.6-51.8,89.9-51.8,89.2z"/>
	</g>
	<g>
		<path class="st12" d="M-54.3,89.6c0.4-0.3,0.5-0.7,0.5-1.2l0,0c0-0.5,0.3-1.1,1.2-0.4c0.5,0.4,0.4,0.8-0.1,1.3
			C-53.2,89.2-53.7,89.4-54.3,89.6z"/>
		<path class="st13" d="M-55.2,86.7c3.8-1.4,5,0.3,4.4,4.2c-0.5-0.7-1.1-1.2-1.8-1.5c0.5-0.5,0.6-0.9,0.1-1.3
			c-0.9-0.7-1.2-0.1-1.2,0.4c0,0,0-0.1,0-0.1C-54.1,87.6-54.6,87-55.2,86.7z"/>
	</g>
	<g>
		<path class="st12" d="M-56.1,89c-0.1-0.5-0.3-0.8-0.7-1l0,0c-0.4-0.3-0.8-0.8,0.3-1.2c0.6-0.2,0.9,0.1,1.1,0.7
			C-56,87.8-56,88.4-56.1,89z"/>
		<path class="st13" d="M-59.2,88.3c0.7-4,2.8-4.2,5.9-1.7c-0.9,0.1-1.6,0.4-2.2,0.8c-0.2-0.6-0.5-1-1.1-0.7c-1,0.4-0.7,0.9-0.3,1.2
			c0,0-0.1,0-0.1-0.1C-57.8,87.8-58.5,88-59.2,88.3z"/>
	</g>
</g>
<g>
	<path class="st14" d="M-21.1,58.5c0,0.1-0.1,0.2-0.2,0.2s-0.2-0.1-0.2-0.2c0-0.1,0.1-0.2,0.2-0.2C-21.2,58.3-21.1,58.4-21.1,58.5z"
		/>
	<path class="st14" d="M-21.3,58.1c0-0.1,0.1-0.2,0.2-0.2c0,0,0,0,0,0c0,0,0,0,0-0.1c0-0.1,0.1-0.2,0.2-0.2s0.2,0.1,0.2,0.2
		c0,0.1-0.1,0.2-0.2,0.2c0,0,0,0,0,0c0,0,0,0,0,0c0,0.1-0.1,0.2-0.2,0.2C-21.3,58.3-21.3,58.2-21.3,58.1z"/>
	<path class="st14" d="M-20.9,58.5c-0.1,0-0.2-0.1-0.2-0.2c0-0.1,0.1-0.2,0.2-0.2s0.2,0.1,0.2,0.2C-20.7,58.5-20.8,58.5-20.9,58.5z"
		/>
	<path class="st14" d="M-20.6,58.8c0,0.1-0.1,0.2-0.2,0.2c-0.1,0-0.2-0.1-0.2-0.2c0-0.1,0.1-0.2,0.2-0.2S-20.6,58.7-20.6,58.8z"/>
	<path class="st14" d="M-20.8,57.7c0-0.1,0.1-0.2,0.2-0.2s0.2,0.1,0.2,0.2c0,0.1-0.1,0.2-0.2,0.2C-20.7,57.8-20.8,57.8-20.8,57.7z"
		/>
	<path class="st14" d="M-20.5,58.3c-0.1,0-0.2-0.1-0.2-0.2c0-0.1,0.1-0.2,0.2-0.2s0.2,0.1,0.2,0.2C-20.3,58.2-20.4,58.3-20.5,58.3z"
		/>
	<path class="st14" d="M-20.2,58.6c0,0.1-0.1,0.2-0.2,0.2s-0.2-0.1-0.2-0.2c0-0.1,0.1-0.2,0.2-0.2C-20.2,58.4-20.2,58.5-20.2,58.6z"
		/>
	<path class="st14" d="M-20.4,57.5c0-0.1,0.1-0.2,0.2-0.2s0.2,0.1,0.2,0.2c0,0.1-0.1,0.2-0.2,0.2C-20.3,57.7-20.4,57.6-20.4,57.5z"
		/>
	<path class="st14" d="M-20.4,57.1c0-0.1,0.1-0.2,0.2-0.2S-20,57-20,57.1c0,0.1-0.1,0.2-0.2,0.2C-20.3,57.3-20.4,57.2-20.4,57.1z"/>
	<path class="st14" d="M-20,57.8c0.1,0.1,0,0.2,0,0.2c-0.1,0.1-0.2,0-0.2,0s0-0.2,0-0.2C-20.1,57.7-20,57.8-20,57.8z"/>
	<path class="st14" d="M-20.1,56.9c0-0.1,0.1-0.2,0.2-0.2s0.2,0.1,0.2,0.2c0,0.1-0.1,0.2-0.2,0.2S-20.1,57-20.1,56.9z"/>
	<path class="st14" d="M-19.9,57.5c-0.1,0-0.1-0.2-0.1-0.2c0-0.1,0.1-0.1,0.2-0.1c0.1,0,0.1,0.2,0.1,0.2
		C-19.7,57.6-19.8,57.6-19.9,57.5z"/>
	<path class="st14" d="M-19.8,56.4c0-0.1,0.1-0.2,0.2-0.2c0.1,0,0.2,0.1,0.2,0.2c0,0.1-0.1,0.2-0.2,0.2
		C-19.7,56.5-19.8,56.5-19.8,56.4z"/>
	<path class="st14" d="M-19.5,56.6c0.1,0,0.2,0.1,0.2,0.2c0,0.1-0.1,0.2-0.2,0.2s-0.2-0.1-0.2-0.2C-19.7,56.7-19.6,56.6-19.5,56.6z"
		/>
	<path class="st14" d="M-19.5,57.7c0.1,0.1,0,0.2,0,0.2c-0.1,0.1-0.2,0-0.2,0s0-0.2,0-0.2C-19.6,57.6-19.5,57.6-19.5,57.7z"/>
	<path class="st14" d="M-19.3,57.3c0,0.1-0.1,0.1-0.2,0.1c-0.1,0-0.1-0.2-0.1-0.2c0-0.1,0.1-0.1,0.2-0.1
		C-19.3,57.2-19.2,57.3-19.3,57.3z"/>
	<path class="st14" d="M-19.3,56.3c0-0.1,0-0.2,0-0.2c0.1,0,0.2,0,0.2,0c0,0.1,0,0.2,0,0.2C-19.2,56.4-19.3,56.4-19.3,56.3z"/>
	<path class="st14" d="M-19.2,56.8c-0.1,0-0.1-0.1-0.1-0.2s0.1-0.1,0.2-0.1c0.1,0,0.1,0.1,0.1,0.2C-19,56.8-19.1,56.9-19.2,56.8z"/>
	<path class="st14" d="M-18.8,57.2c0,0.1-0.1,0.1-0.2,0.1c-0.1,0-0.1-0.1-0.1-0.2s0.1-0.1,0.2-0.1C-18.7,57-18.7,57.1-18.8,57.2z"/>
	<path class="st14" d="M-19,55.6c0-0.1,0-0.2,0-0.2c0.1,0,0.2,0,0.2,0c0,0.1,0,0.2,0,0.2C-18.8,55.7-18.9,55.7-19,55.6z"/>
	<path class="st14" d="M-18.9,56c0-0.1,0-0.2,0-0.2c0.1,0,0.2,0,0.2,0c0,0.1,0,0.2,0,0.2C-18.7,56.1-18.8,56.1-18.9,56z"/>
	<path class="st14" d="M-18.6,56.4c0,0.1-0.1,0.2-0.2,0.2c-0.1,0-0.2-0.1-0.1-0.2c0-0.1,0.1-0.2,0.2-0.2
		C-18.6,56.2-18.5,56.3-18.6,56.4z"/>
	<path class="st14" d="M-18.4,56.9c0,0.1-0.1,0.1-0.2,0.1c-0.1,0-0.1-0.1-0.1-0.2s0.1-0.1,0.2-0.1S-18.4,56.8-18.4,56.9z"/>
	<path class="st14" d="M-18.6,55.3c0-0.1,0-0.2,0-0.2c0.1,0,0.2,0,0.2,0c0,0.1,0,0.2,0,0.2C-18.5,55.4-18.6,55.3-18.6,55.3z"/>
	<path class="st14" d="M-18.4,55.5c0.1,0,0.2,0.1,0.1,0.2c0,0.1-0.1,0.2-0.2,0.2c-0.1,0-0.2-0.1-0.1-0.2S-18.5,55.5-18.4,55.5z"/>
	<path class="st14" d="M-18.1,56.2c0,0.1-0.1,0.2-0.2,0.2c-0.1,0-0.2-0.1-0.1-0.2c0-0.1,0.1-0.2,0.2-0.2
		C-18.1,56-18.1,56.1-18.1,56.2z"/>
	<path class="st14" d="M-18.2,55.3c-0.1-0.1-0.1-0.2,0-0.2S-18,55-18,55s0.1,0.2,0,0.2C-18,55.4-18.1,55.3-18.2,55.3z"/>
	<path class="st14" d="M-18.1,55.7c-0.1-0.1-0.1-0.2,0-0.2s0.2-0.1,0.2,0s0.1,0.2,0,0.2S-18,55.8-18.1,55.7z"/>
	<path class="st14" d="M-17.7,55.9c0.1,0.1,0.1,0.2,0,0.2s-0.2,0.1-0.2,0s-0.1-0.2,0-0.2C-17.9,55.8-17.8,55.8-17.7,55.9z"/>
	<path class="st14" d="M-18,54.6c0-0.1,0-0.2,0-0.2c0.1,0,0.2,0,0.2,0c0,0.1,0,0.2,0,0.2C-17.8,54.7-17.9,54.7-18,54.6z"/>
	<path class="st14" d="M-17.5,54.9c0,0.1,0,0.2-0.1,0.2c-0.1,0-0.2,0-0.2-0.1c0-0.1,0-0.2,0.1-0.2C-17.7,54.8-17.6,54.8-17.5,54.9z"
		/>
	<path class="st14" d="M-17.4,55.3c0,0.1,0,0.2-0.1,0.2c-0.1,0-0.2,0-0.2-0.1c0-0.1,0-0.2,0.1-0.2C-17.5,55.2-17.4,55.2-17.4,55.3z"
		/>
	<path class="st14" d="M-17.6,54.1c0-0.1,0-0.2,0-0.2c0.1,0,0.2,0,0.2,0c0,0.1,0,0.2,0,0.2c0,0,0,0,0,0c0.1,0,0.1,0,0.1,0.1
		c0,0.1,0,0.2-0.1,0.2c-0.1,0-0.2,0-0.2-0.1c0-0.1,0-0.2,0.1-0.2c0,0,0,0,0,0C-17.5,54.2-17.6,54.2-17.6,54.1z"/>
	<path class="st14" d="M-17.1,54.8c0,0.1,0,0.2-0.1,0.2c-0.1,0-0.2,0-0.2-0.1c0-0.1,0-0.2,0.1-0.2C-17.2,54.6-17.1,54.7-17.1,54.8z"
		/>
	<path class="st14" d="M-17.2,53.7c0-0.1,0-0.2,0-0.2c0.1,0,0.2,0,0.2,0c0,0.1,0,0.2,0,0.2C-17.1,53.8-17.2,53.8-17.2,53.7z"/>
	<path class="st14" d="M-16.9,53.9c0,0.1,0,0.2-0.1,0.2c-0.1,0-0.2,0-0.2-0.1c0-0.1,0-0.2,0.1-0.2C-17,53.8-16.9,53.8-16.9,53.9z"/>
	<path class="st14" d="M-16.7,54.3c0,0.1,0,0.2-0.1,0.2c-0.1,0-0.2,0-0.2-0.1c0-0.1,0-0.2,0.1-0.2C-16.9,54.2-16.8,54.2-16.7,54.3z"
		/>
	<path class="st14" d="M-16.9,53.5c0-0.1,0-0.2,0-0.2c0.1,0,0.2,0,0.2,0c0,0.1,0,0.2,0,0.2C-16.7,53.5-16.8,53.5-16.9,53.5z"/>
	<path class="st14" d="M-16.3,54.5c0,0.1,0,0.2-0.1,0.2c-0.1,0-0.2,0-0.2-0.1c0-0.1,0-0.2,0.1-0.2C-16.4,54.3-16.3,54.4-16.3,54.5z"
		/>
	<path class="st14" d="M-16.3,53.9c0,0.1,0,0.2-0.1,0.2c-0.1,0-0.2,0-0.2-0.1c0,0,0-0.1,0-0.1c-0.1,0-0.1,0-0.2-0.1
		c0-0.1,0-0.2,0.1-0.2c0.1,0,0.2,0,0.2,0.1c0,0,0,0.1,0,0.1C-16.4,53.8-16.3,53.9-16.3,53.9z"/>
	<path class="st14" d="M-16.5,53C-16.5,52.9-16.4,52.9-16.5,53C-16.4,52.9-16.5,52.9-16.5,53c0-0.1,0-0.2,0-0.3c0.1,0,0.2,0,0.2,0
		c0,0.1,0,0.2,0,0.2c0,0,0,0,0,0c0,0,0,0,0,0c0,0.1,0,0.2,0,0.2c-0.1,0-0.2,0-0.2,0C-16.6,53.1-16.5,53-16.5,53z"/>
	<path class="st14" d="M-16.1,53.7c-0.1,0-0.2,0-0.2-0.1c0-0.1,0-0.2,0.1-0.2c0.1,0,0.2,0,0.2,0.1C-15.9,53.6-16,53.7-16.1,53.7z"/>
	<path class="st14" d="M-15.7,53.7c0.1,0.1,0,0.2,0,0.2c-0.1,0-0.2,0-0.2,0c0-0.1,0-0.2,0-0.2C-15.9,53.6-15.8,53.6-15.7,53.7z"/>
	<path class="st14" d="M-16,53.2c0-0.1,0-0.2,0-0.2c0.1-0.1,0.2,0,0.2,0c0.1,0.1,0,0.2,0,0.2C-15.9,53.3-15.9,53.3-16,53.2z"/>
	<path class="st14" d="M-15.5,53.3c0.1,0.1,0,0.2,0,0.2c-0.1,0-0.2,0-0.2,0c-0.1-0.1,0-0.2,0-0.2C-15.6,53.2-15.5,53.3-15.5,53.3z"
		/>
	<path class="st15" d="M-13.3,49.3c-11.9-5.2-23.8,12.1-8.6,10l0.7,0.7C-19.6,72.2-6.2,59-13.3,49.3z M-15.1,53.3l-0.8,0.9
		c0,0,0,0,0-0.1c0-0.1-0.1-0.1-0.2-0.1c-0.1,0-0.1,0.1-0.1,0.2c0,0.1,0.1,0.1,0.2,0.1l-2,2.2c0,0,0,0,0,0c0-0.1-0.1-0.2-0.1-0.2
		s-0.2,0.1-0.2,0.2s0.1,0.2,0.1,0.2c0,0,0,0,0.1,0l-0.9,1c0-0.1,0-0.2,0-0.2c-0.1-0.1-0.2-0.1-0.2,0c-0.1,0.1-0.1,0.2,0,0.2
		c0.1,0.1,0.2,0.1,0.2,0c0,0,0,0,0,0l-0.7,0.7c0-0.1,0-0.1,0-0.2c-0.1-0.1-0.2-0.1-0.2,0s-0.1,0.2,0,0.2s0.2,0.1,0.2,0l-0.5,0.5
		c-0.1,0.2-0.3,0.2-0.5,0.2c-0.1,0-0.3,0-0.4-0.1c0,0,0,0,0,0c0.1,0,0.2-0.1,0.2-0.2c0-0.1-0.1-0.2-0.2-0.2s-0.2,0.1-0.2,0.2
		c0,0,0,0,0,0c-0.2-0.3-0.2-0.7,0-1l2.1-2.3c0,0,0,0.1,0,0.2c0,0.1,0.2,0.1,0.2,0c0.1,0,0.1-0.2,0-0.2c0-0.1-0.1-0.1-0.2,0l0.9-0.9
		c0,0,0,0.1,0,0.1c0,0.1,0.2,0.1,0.2,0c0.1,0,0.1-0.2,0-0.2c0-0.1-0.1-0.1-0.2-0.1l2-2.2c0.3-0.3,0.7-0.3,1,0
		C-14.9,52.6-14.9,53-15.1,53.3z"/>
	<path class="st16" d="M-21.2,60c-2.8,2.9-4.9,5.9-5.7,9.1l-0.7-0.4c1.1-2.8,3.2-6,5.7-9.4L-21.2,60z"/>
	<path class="st17" d="M-21.5,49.5c-4.2,2.8-4.8,5.7-0.9,8.6"/>
	<path class="st17" d="M-18,48.9c-4.2,1.8-6.2,5.9-4.3,8.9"/>
	<path class="st17" d="M-17.4,50.1c-3,2.1-4.5,4.7-3.8,7.3"/>
	<path class="st17" d="M-13.3,52.1c-0.5,2.7-1.6,5.1-5.4,6.5"/>
	<path class="st17" d="M-12,54.8c0,1.2-3.3,5.1-6.7,4.7"/>
	<path class="st17" d="M-11.8,57.5c-1.4,2.4-3.5,3.8-7,3"/>
	<path class="st17" d="M-19.8,61.7c0.8,1.4,2.6,1.7,5.6,0.8"/>
	<path class="st17" d="M-26.5,52.7c-1.8,3-1,5,3.2,6"/>
	<path class="st18" d="M-15.2,52.3c-0.3-0.3-0.8-0.2-1,0l-2,2.2c0.1,0,0.1,0,0.2,0.1c0,0.1,0,0.2,0,0.2c-0.1,0-0.2,0-0.2,0
		c0,0,0-0.1,0-0.1l-0.9,0.9c0.1,0,0.2,0,0.2,0c0,0.1,0,0.2,0,0.2c-0.1,0-0.2,0-0.2,0c0,0,0-0.1,0-0.2l-2.1,2.3c-0.2,0.3-0.2,0.7,0,1
		c0,0,0,0,0,0c0-0.1,0.1-0.2,0.2-0.2s0.2,0.1,0.2,0.2c0,0.1-0.1,0.2-0.2,0.2c0,0,0,0,0,0c0.1,0.1,0.3,0.1,0.4,0.1
		c0.2,0,0.4-0.1,0.5-0.2l0.5-0.5c-0.1,0.1-0.2,0-0.2,0s0-0.2,0-0.2c0.1-0.1,0.2,0,0.2,0c0,0.1,0,0.2,0,0.2l0.7-0.7c0,0,0,0,0,0
		c-0.1,0.1-0.2,0-0.2,0c-0.1-0.1,0-0.2,0-0.2c0.1-0.1,0.2,0,0.2,0c0,0.1,0,0.2,0,0.2l0.9-1c0,0,0,0-0.1,0c-0.1,0-0.2-0.1-0.1-0.2
		c0-0.1,0.1-0.2,0.2-0.2c0.1,0,0.2,0.1,0.1,0.2c0,0,0,0,0,0l2-2.2c-0.1,0-0.1,0-0.2-0.1c0-0.1,0-0.2,0.1-0.2c0.1,0,0.2,0,0.2,0.1
		c0,0,0,0,0,0.1l0.8-0.9C-14.9,53-14.9,52.6-15.2,52.3z M-16,53c0.1-0.1,0.2,0,0.2,0c0.1,0.1,0,0.2,0,0.2c-0.1,0-0.2,0-0.2,0
		C-16.1,53.1-16,53-16,53z M-16.5,52.9c0-0.1,0-0.2,0-0.2c0.1,0,0.2,0,0.2,0c0,0.1,0,0.2,0,0.2c0,0,0,0,0,0c0,0,0,0,0,0
		c0,0.1,0,0.2,0,0.2c-0.1,0-0.2,0-0.2,0C-16.6,53.1-16.5,53-16.5,52.9C-16.5,52.9-16.4,52.9-16.5,52.9
		C-16.5,52.9-16.5,52.9-16.5,52.9z M-16.8,53.2c0.1,0,0.2,0,0.2,0c0,0.1,0,0.2,0,0.2c-0.1,0-0.2,0-0.2,0S-16.9,53.3-16.8,53.2z
		 M-16.9,54.2c-0.1,0-0.2,0-0.2-0.1c0-0.1,0-0.2,0.1-0.2c0.1,0,0.2,0,0.2,0.1C-16.8,54-16.9,54.1-16.9,54.2z M-17.2,53.5
		c0.1,0,0.2,0,0.2,0c0,0.1,0,0.2,0,0.2c-0.1,0-0.2,0-0.2,0C-17.3,53.7-17.3,53.5-17.2,53.5z M-17.5,53.9c0.1,0,0.2,0,0.2,0
		c0,0.1,0,0.2,0,0.2c0,0,0,0,0,0c0.1,0,0.1,0,0.1,0.1c0,0.1,0,0.2-0.1,0.2c-0.1,0-0.2,0-0.2-0.1c0-0.1,0-0.2,0.1-0.2c0,0,0,0,0,0
		c0,0-0.1,0-0.1-0.1C-17.6,54-17.6,53.9-17.5,53.9z M-17.6,55.1c-0.1,0-0.2,0-0.2-0.1c0-0.1,0-0.2,0.1-0.2c0.1,0,0.2,0,0.2,0.1
		C-17.5,55-17.5,55.1-17.6,55.1z M-17.9,54.3c0.1,0,0.2,0,0.2,0c0,0.1,0,0.2,0,0.2c-0.1,0-0.2,0-0.2,0C-18,54.5-18,54.4-17.9,54.3z
		 M-18.2,55C-18.1,55-18,55-18,55s0.1,0.2,0,0.2s-0.2,0.1-0.2,0C-18.3,55.2-18.3,55.1-18.2,55z M-18.2,55.7c0,0.1-0.1,0.2-0.2,0.2
		c-0.1,0-0.2-0.1-0.1-0.2c0-0.1,0.1-0.2,0.2-0.2C-18.3,55.5-18.2,55.6-18.2,55.7z M-18.6,55c0.1,0,0.2,0,0.2,0c0,0.1,0,0.2,0,0.2
		c-0.1,0-0.2,0-0.2,0C-18.7,55.2-18.6,55.1-18.6,55z M-19,55.6c0-0.1,0-0.2,0-0.2c0.1,0,0.2,0,0.2,0c0,0.1,0,0.2,0,0.2
		C-18.8,55.7-18.9,55.7-19,55.6z M-18.9,55.8c0.1,0,0.2,0,0.2,0c0,0.1,0,0.2,0,0.2c-0.1,0-0.2,0-0.2,0S-18.9,55.8-18.9,55.8z
		 M-18.6,56.4c0,0.1-0.1,0.2-0.2,0.2c-0.1,0-0.2-0.1-0.1-0.2c0-0.1,0.1-0.2,0.2-0.2C-18.6,56.2-18.5,56.3-18.6,56.4z M-19.3,56
		c0.1,0,0.2,0,0.2,0c0,0.1,0,0.2,0,0.2c-0.1,0-0.2,0-0.2,0S-19.4,56.1-19.3,56z M-19.3,56.8c0,0.1-0.1,0.2-0.2,0.2s-0.2-0.1-0.2-0.2
		c0-0.1,0.1-0.2,0.2-0.2S-19.3,56.7-19.3,56.8z M-19.6,56.2c0.1,0,0.2,0.1,0.2,0.2c0,0.1-0.1,0.2-0.2,0.2s-0.2-0.1-0.2-0.2
		S-19.7,56.2-19.6,56.2z M-20,56.7c0.1,0,0.2,0.1,0.2,0.2c0,0.1-0.1,0.2-0.2,0.2s-0.2-0.1-0.2-0.2C-20.1,56.8-20,56.7-20,56.7z
		 M-20.2,56.9c0.1,0,0.2,0.1,0.2,0.2c0,0.1-0.1,0.2-0.2,0.2s-0.2-0.1-0.2-0.2C-20.4,57-20.3,56.9-20.2,56.9z M-20.2,57.3
		c0.1,0,0.2,0.1,0.2,0.2c0,0.1-0.1,0.2-0.2,0.2s-0.2-0.1-0.2-0.2C-20.4,57.4-20.3,57.3-20.2,57.3z M-20.6,57.5
		c0.1,0,0.2,0.1,0.2,0.2c0,0.1-0.1,0.2-0.2,0.2s-0.2-0.1-0.2-0.2S-20.7,57.5-20.6,57.5z M-21.2,57.9C-21.1,57.9-21.1,57.9-21.2,57.9
		C-21.1,57.9-21.1,57.9-21.2,57.9c0-0.1,0.1-0.2,0.2-0.2s0.2,0.1,0.2,0.2c0,0.1-0.1,0.2-0.2,0.2c0,0,0,0,0,0c0,0,0,0,0,0
		c0,0.1-0.1,0.2-0.2,0.2s-0.2-0.1-0.2-0.2C-21.3,58-21.3,57.9-21.2,57.9z M-21.3,58.7c-0.1,0-0.2-0.1-0.2-0.2c0-0.1,0.1-0.2,0.2-0.2
		s0.2,0.1,0.2,0.2C-21.1,58.6-21.2,58.7-21.3,58.7z M-21.1,58.3c0-0.1,0.1-0.2,0.2-0.2s0.2,0.1,0.2,0.2c0,0.1-0.1,0.2-0.2,0.2
		C-21,58.5-21.1,58.5-21.1,58.3z M-20.8,58.9c-0.1,0-0.2-0.1-0.2-0.2c0-0.1,0.1-0.2,0.2-0.2s0.2,0.1,0.2,0.2S-20.7,58.9-20.8,58.9z
		 M-20.6,58.2c0-0.1,0.1-0.2,0.2-0.2s0.2,0.1,0.2,0.2c0,0.1-0.1,0.2-0.2,0.2S-20.6,58.2-20.6,58.2z M-20.4,58.8
		c-0.1,0-0.2-0.1-0.2-0.2c0-0.1,0.1-0.2,0.2-0.2s0.2,0.1,0.2,0.2C-20.2,58.7-20.2,58.8-20.4,58.8z M-20,58.1c-0.1,0.1-0.2,0-0.2,0
		s0-0.2,0-0.2c0.1-0.1,0.2,0,0.2,0C-19.9,57.9-19.9,58-20,58.1z M-19.9,57.5c-0.1,0-0.1-0.2-0.1-0.2c0-0.1,0.1-0.1,0.2-0.1
		c0.1,0,0.1,0.2,0.1,0.2C-19.7,57.6-19.8,57.6-19.9,57.5z M-19.5,57.9c-0.1,0.1-0.2,0-0.2,0s0-0.2,0-0.2c0.1-0.1,0.2,0,0.2,0
		C-19.4,57.8-19.4,57.9-19.5,57.9z M-19.3,57.3c0,0.1-0.1,0.1-0.2,0.1c-0.1,0-0.1-0.2-0.1-0.2c0-0.1,0.1-0.1,0.2-0.1
		C-19.3,57.2-19.2,57.3-19.3,57.3z M-19.2,56.8c-0.1,0-0.1-0.1-0.1-0.2s0.1-0.1,0.2-0.1c0.1,0,0.1,0.1,0.1,0.2
		C-19,56.8-19.1,56.9-19.2,56.8z M-18.8,57.2c0,0.1-0.1,0.1-0.2,0.1c-0.1,0-0.1-0.1-0.1-0.2s0.1-0.1,0.2-0.1
		C-18.7,57-18.7,57.1-18.8,57.2z M-18.4,56.9c0,0.1-0.1,0.1-0.2,0.1c-0.1,0-0.1-0.1-0.1-0.2s0.1-0.1,0.2-0.1S-18.4,56.8-18.4,56.9z
		 M-18.3,56.4c-0.1,0-0.2-0.1-0.1-0.2c0-0.1,0.1-0.2,0.2-0.2c0.1,0,0.2,0.1,0.1,0.2S-18.2,56.4-18.3,56.4z M-18.1,55.7
		c-0.1-0.1-0.1-0.2,0-0.2s0.2-0.1,0.2,0s0.1,0.2,0,0.2S-18,55.8-18.1,55.7z M-17.8,56.1c-0.1,0.1-0.2,0.1-0.2,0s-0.1-0.2,0-0.2
		s0.2-0.1,0.2,0C-17.7,55.9-17.7,56-17.8,56.1z M-17.5,55.5c-0.1,0-0.2,0-0.2-0.1c0-0.1,0-0.2,0.1-0.2c0.1,0,0.2,0,0.2,0.1
		C-17.4,55.4-17.4,55.5-17.5,55.5z M-17.2,55c-0.1,0-0.2,0-0.2-0.1c0-0.1,0-0.2,0.1-0.2c0.1,0,0.2,0,0.2,0.1
		C-17.1,54.8-17.1,55-17.2,55z M-16.8,54.5c-0.1,0-0.2,0-0.2-0.1c0-0.1,0-0.2,0.1-0.2c0.1,0,0.2,0,0.2,0.1
		C-16.7,54.4-16.7,54.5-16.8,54.5z M-16.3,54.5c0,0.1,0,0.2-0.1,0.2c-0.1,0-0.2,0-0.2-0.1c0-0.1,0-0.2,0.1-0.2
		C-16.4,54.3-16.3,54.4-16.3,54.5z M-16.4,54.2c-0.1,0-0.2,0-0.2-0.1c0,0,0-0.1,0-0.1c-0.1,0-0.1,0-0.2-0.1c0-0.1,0-0.2,0.1-0.2
		c0.1,0,0.2,0,0.2,0.1c0,0,0,0.1,0,0.1c0.1,0,0.1,0,0.2,0.1C-16.2,54-16.3,54.1-16.4,54.2z M-16.3,53.6c0-0.1,0-0.2,0.1-0.2
		c0.1,0,0.2,0,0.2,0.1c0,0.1,0,0.2-0.1,0.2C-16.2,53.7-16.3,53.7-16.3,53.6z M-15.8,54c-0.1,0-0.2,0-0.2,0c0-0.1,0-0.2,0-0.2
		c0.1-0.1,0.2,0,0.2,0C-15.7,53.8-15.7,53.9-15.8,54z M-15.5,53.6c-0.1,0-0.2,0-0.2,0c-0.1-0.1,0-0.2,0-0.2c0.1,0,0.2,0,0.2,0
		C-15.4,53.4-15.4,53.5-15.5,53.6z"/>
	<path class="st11" d="M-21.3,58.7c-0.1,0-0.2-0.1-0.2-0.2c0-0.1,0.1-0.2,0.2-0.2s0.2,0.1,0.2,0.2C-21.1,58.6-21.2,58.7-21.3,58.7z"
		/>
	<path class="st11" d="M-21,58.9c0,0.1-0.1,0.2-0.2,0.2c0,0,0,0,0,0c0,0,0,0-0.1-0.1c0,0,0,0-0.1-0.1c0,0,0,0,0,0
		c0-0.1,0.1-0.2,0.2-0.2C-21.1,58.8-21,58.8-21,58.9z"/>
	<path class="st11" d="M-21.3,58.1c0-0.1,0.1-0.2,0.2-0.2c0,0,0,0,0,0c0,0,0,0,0-0.1c0-0.1,0.1-0.2,0.2-0.2s0.2,0.1,0.2,0.2
		c0,0.1-0.1,0.2-0.2,0.2c0,0,0,0,0,0c0,0,0,0,0,0c0,0.1-0.1,0.2-0.2,0.2C-21.3,58.3-21.3,58.2-21.3,58.1z"/>
	<path class="st11" d="M-20.7,58.3c0,0.1-0.1,0.2-0.2,0.2s-0.2-0.1-0.2-0.2c0-0.1,0.1-0.2,0.2-0.2C-20.8,58.2-20.7,58.3-20.7,58.3z"
		/>
	<path class="st11" d="M-20.6,58.8c0,0.1-0.1,0.2-0.2,0.2c-0.1,0-0.2-0.1-0.2-0.2c0-0.1,0.1-0.2,0.2-0.2S-20.6,58.7-20.6,58.8z"/>
	<path class="st11" d="M-20.8,57.7c0-0.1,0.1-0.2,0.2-0.2s0.2,0.1,0.2,0.2c0,0.1-0.1,0.2-0.2,0.2C-20.7,57.8-20.8,57.8-20.8,57.7z"
		/>
	<path class="st11" d="M-20.5,58.3c-0.1,0-0.2-0.1-0.2-0.2c0-0.1,0.1-0.2,0.2-0.2s0.2,0.1,0.2,0.2C-20.3,58.2-20.4,58.3-20.5,58.3z"
		/>
	<path class="st11" d="M-20.2,58.6c0,0.1-0.1,0.2-0.2,0.2s-0.2-0.1-0.2-0.2c0-0.1,0.1-0.2,0.2-0.2C-20.2,58.4-20.2,58.5-20.2,58.6z"
		/>
	<path class="st11" d="M-20.4,57.5c0-0.1,0.1-0.2,0.2-0.2s0.2,0.1,0.2,0.2c0,0.1-0.1,0.2-0.2,0.2C-20.3,57.7-20.4,57.6-20.4,57.5z"
		/>
	<path class="st11" d="M-20.4,57.1c0-0.1,0.1-0.2,0.2-0.2S-20,57-20,57.1c0,0.1-0.1,0.2-0.2,0.2C-20.3,57.3-20.4,57.2-20.4,57.1z"/>
	<path class="st11" d="M-20,58.1c-0.1,0.1-0.2,0-0.2,0s0-0.2,0-0.2c0.1-0.1,0.2,0,0.2,0C-19.9,57.9-19.9,58-20,58.1z"/>
	<path class="st11" d="M-20.1,56.9c0-0.1,0.1-0.2,0.2-0.2s0.2,0.1,0.2,0.2c0,0.1-0.1,0.2-0.2,0.2S-20.1,57-20.1,56.9z"/>
	<path class="st11" d="M-19.8,58.2c0,0.1,0,0.2,0,0.2l0,0c0,0,0,0,0,0c-0.1,0.1-0.2,0-0.2,0s0-0.2,0-0.2
		C-19.9,58.2-19.8,58.2-19.8,58.2z"/>
	<path class="st11" d="M-19.7,57.2c0.1,0,0.1,0.2,0.1,0.2c0,0.1-0.1,0.1-0.2,0.1c-0.1,0-0.1-0.2-0.1-0.2
		C-19.9,57.2-19.8,57.2-19.7,57.2z"/>
	<path class="st11" d="M-19.8,56.4c0-0.1,0.1-0.2,0.2-0.2c0.1,0,0.2,0.1,0.2,0.2c0,0.1-0.1,0.2-0.2,0.2
		C-19.7,56.5-19.8,56.5-19.8,56.4z"/>
	<path class="st11" d="M-19.5,56.6c0.1,0,0.2,0.1,0.2,0.2c0,0.1-0.1,0.2-0.2,0.2s-0.2-0.1-0.2-0.2C-19.7,56.7-19.6,56.6-19.5,56.6z"
		/>
	<path class="st11" d="M-19.5,57.7c0.1,0.1,0,0.2,0,0.2c-0.1,0.1-0.2,0-0.2,0s0-0.2,0-0.2C-19.6,57.6-19.5,57.6-19.5,57.7z"/>
	<path class="st11" d="M-19.3,57.3c0,0.1-0.1,0.1-0.2,0.1c-0.1,0-0.1-0.2-0.1-0.2c0-0.1,0.1-0.1,0.2-0.1
		C-19.3,57.2-19.2,57.3-19.3,57.3z"/>
	<path class="st11" d="M-19.1,57.5c0,0.1,0,0.2,0,0.2c0,0,0,0,0,0c0,0,0,0,0,0c-0.1,0.1-0.2,0-0.2,0c-0.1-0.1,0-0.2,0-0.2
		C-19.2,57.4-19.1,57.4-19.1,57.5z"/>
	<path class="st11" d="M-19.3,56.3c0-0.1,0-0.2,0-0.2c0.1,0,0.2,0,0.2,0c0,0.1,0,0.2,0,0.2C-19.2,56.4-19.3,56.4-19.3,56.3z"/>
	<path class="st11" d="M-19.3,56.6c0-0.1,0.1-0.1,0.2-0.1c0.1,0,0.1,0.1,0.1,0.2c0,0.1-0.1,0.1-0.2,0.1S-19.3,56.7-19.3,56.6z"/>
	<path class="st11" d="M-19.2,55.9c0,0,0-0.1,0-0.2l0.1-0.1c0.1,0,0.2,0,0.2,0c0,0.1,0,0.2,0,0.2C-19,56-19.1,55.9-19.2,55.9z"/>
	<path class="st11" d="M-18.8,57.2c0,0.1-0.1,0.1-0.2,0.1c-0.1,0-0.1-0.1-0.1-0.2s0.1-0.1,0.2-0.1C-18.7,57-18.7,57.1-18.8,57.2z"/>
	<path class="st11" d="M-19,55.6c0-0.1,0-0.2,0-0.2c0.1,0,0.2,0,0.2,0c0,0.1,0,0.2,0,0.2C-18.8,55.7-18.9,55.7-19,55.6z"/>
	<path class="st11" d="M-18.9,56c0-0.1,0-0.2,0-0.2c0.1,0,0.2,0,0.2,0c0,0.1,0,0.2,0,0.2C-18.7,56.1-18.8,56.1-18.9,56z"/>
	<path class="st11" d="M-18.9,56.4c0-0.1,0.1-0.2,0.2-0.2c0.1,0,0.2,0.1,0.1,0.2c0,0.1-0.1,0.2-0.2,0.2
		C-18.8,56.6-18.9,56.5-18.9,56.4z"/>
	<path class="st11" d="M-18.4,56.9c0,0.1-0.1,0.1-0.2,0.1c-0.1,0-0.1-0.1-0.1-0.2s0.1-0.1,0.2-0.1S-18.4,56.8-18.4,56.9z"/>
	<path class="st11" d="M-18.6,55.3c0-0.1,0-0.2,0-0.2c0.1,0,0.2,0,0.2,0c0,0.1,0,0.2,0,0.2C-18.5,55.4-18.6,55.3-18.6,55.3z"/>
	<path class="st11" d="M-18.4,55.5c0.1,0,0.2,0.1,0.1,0.2c0,0.1-0.1,0.2-0.2,0.2c-0.1,0-0.2-0.1-0.1-0.2S-18.5,55.5-18.4,55.5z"/>
	<path class="st11" d="M-18.4,56.2c0-0.1,0.1-0.2,0.2-0.2c0.1,0,0.2,0.1,0.1,0.2s-0.1,0.2-0.2,0.2C-18.4,56.3-18.4,56.3-18.4,56.2z"
		/>
	<path class="st11" d="M-18,56.5C-18,56.6-18,56.6-18,56.5l-0.1,0.1c0,0,0,0-0.1,0c-0.1,0-0.2-0.1-0.1-0.2c0-0.1,0.1-0.2,0.2-0.2
		C-18.1,56.4-18,56.5-18,56.5z"/>
	<path class="st11" d="M-18.3,54.8c0,0,0-0.1,0-0.1l0.1-0.1c0.1,0,0.1,0,0.2,0.1c0,0.1,0,0.2,0,0.2C-18.1,54.9-18.2,54.9-18.3,54.8z
		"/>
	<path class="st11" d="M-18.2,55.3c-0.1-0.1-0.1-0.2,0-0.2S-18,55-18,55s0.1,0.2,0,0.2C-18,55.4-18.1,55.3-18.2,55.3z"/>
	<path class="st11" d="M-18.1,55.7c-0.1-0.1-0.1-0.2,0-0.2s0.2-0.1,0.2,0s0.1,0.2,0,0.2S-18,55.8-18.1,55.7z"/>
	<path class="st11" d="M-17.7,55.9c0.1,0.1,0.1,0.2,0,0.2s-0.2,0.1-0.2,0s-0.1-0.2,0-0.2C-17.9,55.8-17.8,55.8-17.7,55.9z"/>
	<path class="st11" d="M-18,54.6c0-0.1,0-0.2,0-0.2c0.1,0,0.2,0,0.2,0c0,0.1,0,0.2,0,0.2C-17.8,54.7-17.9,54.7-18,54.6z"/>
	<path class="st11" d="M-17.9,55c0-0.1,0-0.2,0.1-0.2c0.1,0,0.2,0,0.2,0.1c0,0.1,0,0.2-0.1,0.2C-17.7,55.2-17.8,55.1-17.9,55z"/>
	<path class="st11" d="M-17.4,55.3c0,0.1,0,0.2-0.1,0.2c-0.1,0-0.2,0-0.2-0.1c0-0.1,0-0.2,0.1-0.2C-17.5,55.2-17.4,55.2-17.4,55.3z"
		/>
	<path class="st11" d="M-17.6,54.1c0-0.1,0-0.2,0-0.2c0.1,0,0.2,0,0.2,0c0,0.1,0,0.2,0,0.2c0,0,0,0,0,0c0.1,0,0.1,0,0.1,0.1
		c0,0.1,0,0.2-0.1,0.2c-0.1,0-0.2,0-0.2-0.1c0-0.1,0-0.2,0.1-0.2c0,0,0,0,0,0C-17.5,54.2-17.6,54.2-17.6,54.1z"/>
	<path class="st11" d="M-17.1,54.8c0,0.1,0,0.2-0.1,0.2c-0.1,0-0.2,0-0.2-0.1c0-0.1,0-0.2,0.1-0.2C-17.2,54.6-17.1,54.7-17.1,54.8z"
		/>
	<path class="st11" d="M-17.2,53.7c0-0.1,0-0.2,0-0.2c0.1,0,0.2,0,0.2,0c0,0.1,0,0.2,0,0.2C-17.1,53.8-17.2,53.8-17.2,53.7z"/>
	<path class="st11" d="M-16.9,53.9c0,0.1,0,0.2-0.1,0.2c-0.1,0-0.2,0-0.2-0.1c0-0.1,0-0.2,0.1-0.2C-17,53.8-16.9,53.8-16.9,53.9z"/>
	<path class="st11" d="M-16.7,54.3c0,0.1,0,0.2-0.1,0.2c-0.1,0-0.2,0-0.2-0.1c0-0.1,0-0.2,0.1-0.2C-16.9,54.2-16.8,54.2-16.7,54.3z"
		/>
	<path class="st11" d="M-16.9,53.5c0-0.1,0-0.2,0-0.2c0.1,0,0.2,0,0.2,0c0,0.1,0,0.2,0,0.2C-16.7,53.5-16.8,53.5-16.9,53.5z"/>
	<path class="st11" d="M-16.3,54.5c0,0.1,0,0.2-0.1,0.2c-0.1,0-0.2,0-0.2-0.1c0-0.1,0-0.2,0.1-0.2C-16.4,54.3-16.3,54.4-16.3,54.5z"
		/>
	<path class="st11" d="M-16.6,53.9c-0.1,0-0.1,0-0.2-0.1c0-0.1,0-0.2,0.1-0.2c0.1,0,0.2,0,0.2,0.1c0,0,0,0.1,0,0.1
		c0.1,0,0.1,0,0.2,0.1c0,0.1,0,0.2-0.1,0.2c-0.1,0-0.2,0-0.2-0.1C-16.6,54-16.6,54-16.6,53.9z"/>
	<path class="st11" d="M-16.5,53C-16.5,52.9-16.4,52.9-16.5,53C-16.4,52.9-16.5,52.9-16.5,53c0-0.1,0-0.2,0-0.3c0.1,0,0.2,0,0.2,0
		c0,0.1,0,0.2,0,0.2c0,0,0,0,0,0c0,0,0,0,0,0c0,0.1,0,0.2,0,0.2c-0.1,0-0.2,0-0.2,0C-16.6,53.1-16.5,53-16.5,53z"/>
	<path class="st11" d="M-16.2,53.4c0.1,0,0.2,0,0.2,0.1c0,0.1,0,0.2-0.1,0.2c-0.1,0-0.2,0-0.2-0.1C-16.3,53.5-16.3,53.4-16.2,53.4z"
		/>
	<path class="st11" d="M-16,54.2C-15.9,54.2-15.9,54.2-16,54.2l-0.1,0.2c-0.1,0-0.1,0-0.2-0.1c0-0.1,0-0.2,0.1-0.2
		C-16.1,54-16,54.1-16,54.2z"/>
	<path class="st11" d="M-15.7,53.7c0.1,0.1,0,0.2,0,0.2c-0.1,0-0.2,0-0.2,0c0-0.1,0-0.2,0-0.2C-15.9,53.6-15.8,53.6-15.7,53.7z"/>
	<path class="st11" d="M-16,53.2c0-0.1,0-0.2,0-0.2c0.1-0.1,0.2,0,0.2,0c0.1,0.1,0,0.2,0,0.2C-15.9,53.3-15.9,53.3-16,53.2z"/>
	<path class="st11" d="M-15.5,53.6c-0.1,0-0.2,0-0.2,0c-0.1-0.1,0-0.2,0-0.2c0.1,0,0.2,0,0.2,0C-15.4,53.4-15.4,53.5-15.5,53.6z"/>
	<path class="st19" d="M-20.6,58.8c0,0.1-0.1,0.2-0.2,0.2c-0.1,0-0.2-0.1-0.2-0.2c0-0.1,0.1-0.2,0.2-0.2S-20.6,58.7-20.6,58.8z"/>
	<path class="st19" d="M-20.2,58.6c0,0.1-0.1,0.2-0.2,0.2s-0.2-0.1-0.2-0.2c0-0.1,0.1-0.2,0.2-0.2C-20.2,58.4-20.2,58.5-20.2,58.6z"
		/>
	<path class="st19" d="M-20.7,58.3c0,0.1-0.1,0.2-0.2,0.2s-0.2-0.1-0.2-0.2c0-0.1,0.1-0.2,0.2-0.2C-20.8,58.2-20.7,58.3-20.7,58.3z"
		/>
	<path class="st19" d="M-20.3,58.2c0,0.1-0.1,0.2-0.2,0.2c-0.1,0-0.2-0.1-0.2-0.2c0-0.1,0.1-0.2,0.2-0.2
		C-20.4,58-20.3,58.1-20.3,58.2z"/>
	<path class="st19" d="M-20.4,57.7c0,0.1-0.1,0.2-0.2,0.2s-0.2-0.1-0.2-0.2c0-0.1,0.1-0.2,0.2-0.2C-20.5,57.5-20.4,57.6-20.4,57.7z"
		/>
	<path class="st19" d="M-20,57.5c0,0.1-0.1,0.2-0.2,0.2s-0.2-0.1-0.2-0.2c0-0.1,0.1-0.2,0.2-0.2C-20.1,57.3-20,57.4-20,57.5z"/>
	<path class="st19" d="M-20,57.1c0,0.1-0.1,0.2-0.2,0.2s-0.2-0.1-0.2-0.2c0-0.1,0.1-0.2,0.2-0.2S-20,57-20,57.1z"/>
	<path class="st19" d="M-19.3,56.8c0,0.1-0.1,0.2-0.2,0.2s-0.2-0.1-0.2-0.2c0-0.1,0.1-0.2,0.2-0.2S-19.3,56.7-19.3,56.8z"/>
	<path class="st19" d="M-19.8,56.9c0,0.1-0.1,0.2-0.2,0.2s-0.2-0.1-0.2-0.2c0-0.1,0.1-0.2,0.2-0.2C-19.9,56.7-19.8,56.8-19.8,56.9z"
		/>
	<path class="st19" d="M-19.4,56.4c0,0.1-0.1,0.2-0.2,0.2s-0.2-0.1-0.2-0.2c0-0.1,0.1-0.2,0.2-0.2C-19.5,56.2-19.4,56.3-19.4,56.4z"
		/>
	<path class="st19" d="M-19.1,56.3c-0.1,0-0.2,0-0.2,0c0-0.1,0-0.2,0-0.2c0.1,0,0.2,0,0.2,0C-19,56.2-19,56.3-19.1,56.3z"/>
	<path class="st19" d="M-18.6,56.1c-0.1,0-0.2,0-0.2,0s0-0.2,0-0.2c0.1,0,0.2,0,0.2,0C-18.6,55.9-18.6,56-18.6,56.1z"/>
	<path class="st19" d="M-19,55.9c-0.1,0-0.2,0-0.2,0c0,0,0-0.1,0-0.2c0,0,0,0,0.1-0.1l0,0c0.1,0,0.2,0,0.2,0
		C-18.9,55.8-18.9,55.8-19,55.9z"/>
	<path class="st19" d="M-18.7,55.6c-0.1,0-0.2,0-0.2,0c0-0.1,0-0.2,0-0.2c0.1,0,0.2,0,0.2,0C-18.6,55.5-18.6,55.6-18.7,55.6z"/>
	<path class="st19" d="M-18.4,55.3c-0.1,0-0.2,0-0.2,0c0-0.1,0-0.2,0-0.2c0.1,0,0.2,0,0.2,0C-18.3,55.2-18.3,55.2-18.4,55.3z"/>
	<path class="st19" d="M-18,54.8c-0.1,0-0.2,0-0.2,0c0,0,0-0.1,0-0.1c0,0,0-0.1,0.1-0.1c0,0,0,0,0.1,0c0.1,0,0.1,0,0.2,0.1
		C-17.9,54.7-18,54.8-18,54.8z"/>
	<path class="st19" d="M-17.7,54.6c-0.1,0-0.2,0-0.2,0c0-0.1,0-0.2,0-0.2c0.1,0,0.2,0,0.2,0C-17.6,54.5-17.6,54.6-17.7,54.6z"/>
	<path class="st19" d="M-16.6,53.5c-0.1,0-0.2,0-0.2,0c0-0.1,0-0.2,0-0.2c0.1,0,0.2,0,0.2,0S-16.6,53.4-16.6,53.5z"/>
	<path class="st19" d="M-16.3,53.2c-0.1,0-0.2,0-0.2,0c0-0.1,0-0.2,0-0.2c0,0,0,0,0,0c0.1,0,0.1,0,0.2,0c0,0,0,0,0,0
		C-16.2,53.1-16.2,53.2-16.3,53.2z"/>
	<path class="st19" d="M-17,53.8c-0.1,0-0.2,0-0.2,0c0-0.1,0-0.2,0-0.2c0.1,0,0.2,0,0.2,0C-16.9,53.6-16.9,53.7-17,53.8z"/>
	<path class="st19" d="M-17.4,54.2C-17.4,54.2-17.4,54.2-17.4,54.2c-0.1,0-0.1,0-0.1,0c0,0-0.1,0-0.1-0.1c0-0.1,0-0.2,0-0.2
		c0.1,0,0.2,0,0.2,0C-17.3,54-17.3,54.1-17.4,54.2z"/>
	<path class="st19" d="M-15.8,53.2c-0.1,0-0.2,0-0.2,0c0-0.1,0-0.2,0-0.2c0.1-0.1,0.2,0,0.2,0C-15.7,53.1-15.7,53.2-15.8,53.2z"/>
	<path class="st19" d="M-16.2,52.9C-16.2,52.9-16.3,52.9-16.2,52.9c-0.1,0-0.1,0-0.2,0c0,0,0,0,0,0c0-0.1,0-0.2,0-0.2
		c0.1,0,0.2,0,0.2,0C-16.1,52.8-16.2,52.9-16.2,52.9z"/>
	<path class="st19" d="M-15.5,53.6c-0.1,0-0.2,0-0.2,0c-0.1-0.1,0-0.2,0-0.2c0.1,0,0.2,0,0.2,0C-15.4,53.4-15.4,53.5-15.5,53.6z"/>
	<path class="st19" d="M-15.8,54c-0.1,0-0.2,0-0.2,0c0-0.1,0-0.2,0-0.2c0.1-0.1,0.2,0,0.2,0C-15.7,53.8-15.7,53.9-15.8,54z"/>
	<path class="st19" d="M-15.9,54.3c0,0.1,0,0.1-0.1,0.2c0,0,0,0,0,0c-0.1,0-0.1,0-0.2-0.1c0-0.1,0-0.2,0.1-0.2
		C-16.1,54-16,54.1-15.9,54.3C-15.9,54.2-15.9,54.2-15.9,54.3z"/>
	<path class="st19" d="M-16.4,54.2c-0.1,0-0.2,0-0.2-0.1c0,0,0-0.1,0-0.1s0-0.1,0.1-0.1c0,0,0,0,0,0c0.1,0,0.1,0,0.2,0.1
		C-16.2,54-16.3,54.1-16.4,54.2z"/>
	<path class="st19" d="M-16.1,53.7c-0.1,0-0.2,0-0.2-0.1c0-0.1,0-0.2,0.1-0.2c0.1,0,0.2,0,0.2,0.1C-15.9,53.6-16,53.7-16.1,53.7z"/>
	<path class="st19" d="M-16.5,53.8C-16.5,53.9-16.5,53.9-16.5,53.8c-0.1,0.1-0.1,0.1-0.1,0.1c-0.1,0-0.1,0-0.2-0.1
		c0-0.1,0-0.2,0.1-0.2c0.1,0,0.2,0,0.2,0.1C-16.4,53.8-16.4,53.8-16.5,53.8z"/>
	<path class="st19" d="M-16.9,54.2c-0.1,0-0.2,0-0.2-0.1c0-0.1,0-0.2,0.1-0.2c0.1,0,0.2,0,0.2,0.1C-16.8,54-16.9,54.1-16.9,54.2z"/>
	<path class="st19" d="M-16.8,54.5c-0.1,0-0.2,0-0.2-0.1c0-0.1,0-0.2,0.1-0.2c0.1,0,0.2,0,0.2,0.1C-16.7,54.4-16.7,54.5-16.8,54.5z"
		/>
	<path class="st19" d="M-16.4,54.7c-0.1,0-0.2,0-0.2-0.1c0-0.1,0-0.2,0.1-0.2c0.1,0,0.2,0,0.2,0.1C-16.2,54.5-16.3,54.6-16.4,54.7z"
		/>
	<path class="st19" d="M-17.2,55c-0.1,0-0.2,0-0.2-0.1c0-0.1,0-0.2,0.1-0.2c0.1,0,0.2,0,0.2,0.1C-17.1,54.8-17.1,55-17.2,55z"/>
	<path class="st19" d="M-17.3,54.5c-0.1,0-0.2,0-0.2-0.1c0-0.1,0-0.2,0.1-0.2c0,0,0,0,0,0c0,0,0,0,0.1,0c0.1,0,0.1,0,0.1,0.1
		C-17.2,54.4-17.2,54.5-17.3,54.5z"/>
	<path class="st19" d="M-17.6,55.1c-0.1,0-0.2,0-0.2-0.1c0-0.1,0-0.2,0.1-0.2c0.1,0,0.2,0,0.2,0.1C-17.5,55-17.5,55.1-17.6,55.1z"/>
	<path class="st19" d="M-17.5,55.5c-0.1,0-0.2,0-0.2-0.1c0-0.1,0-0.2,0.1-0.2c0.1,0,0.2,0,0.2,0.1C-17.4,55.4-17.4,55.5-17.5,55.5z"
		/>
	<path class="st19" d="M-17.8,56.1c-0.1,0.1-0.2,0.1-0.2,0s-0.1-0.2,0-0.2s0.2-0.1,0.2,0C-17.7,55.9-17.7,56-17.8,56.1z"/>
	<path class="st19" d="M-17.8,55.7c-0.1,0.1-0.2,0.1-0.2,0s-0.1-0.2,0-0.2s0.2-0.1,0.2,0C-17.8,55.5-17.8,55.6-17.8,55.7z"/>
	<path class="st19" d="M-18.2,55.7c0,0.1-0.1,0.2-0.2,0.2c-0.1,0-0.2-0.1-0.1-0.2c0-0.1,0.1-0.2,0.2-0.2
		C-18.3,55.5-18.2,55.6-18.2,55.7z"/>
	<path class="st19" d="M-18.1,56.2c0,0.1-0.1,0.2-0.2,0.2c-0.1,0-0.2-0.1-0.1-0.2c0-0.1,0.1-0.2,0.2-0.2
		C-18.1,56-18.1,56.1-18.1,56.2z"/>
	<path class="st19" d="M-18.6,56.4c0,0.1-0.1,0.2-0.2,0.2c-0.1,0-0.2-0.1-0.1-0.2c0-0.1,0.1-0.2,0.2-0.2
		C-18.6,56.2-18.5,56.3-18.6,56.4z"/>
	<path class="st19" d="M-18,56.5C-18,56.6-18,56.6-18,56.5c0,0.1-0.1,0.1-0.1,0.1c0,0,0,0-0.1,0c-0.1,0-0.2-0.1-0.1-0.2
		c0-0.1,0.1-0.2,0.2-0.2C-18.1,56.4-18,56.5-18,56.5z"/>
	<path class="st19" d="M-18.4,56.9c0,0.1-0.1,0.1-0.2,0.1c-0.1,0-0.1-0.1-0.1-0.2s0.1-0.1,0.2-0.1S-18.4,56.8-18.4,56.9z"/>
	<path class="st19" d="M-19,56.8c0,0.1-0.1,0.1-0.2,0.1c-0.1,0-0.1-0.1-0.1-0.2s0.1-0.1,0.2-0.1C-19,56.6-18.9,56.7-19,56.8z"/>
	<path class="st19" d="M-18.8,57.2c0,0.1-0.1,0.1-0.2,0.1c-0.1,0-0.1-0.1-0.1-0.2s0.1-0.1,0.2-0.1C-18.7,57-18.7,57.1-18.8,57.2z"/>
	<path class="st19" d="M-19.3,57.3c0,0.1-0.1,0.1-0.2,0.1c-0.1,0-0.1-0.2-0.1-0.2c0-0.1,0.1-0.1,0.2-0.1
		C-19.3,57.2-19.2,57.3-19.3,57.3z"/>
	<path class="st19" d="M-19.6,57.5c0,0.1-0.1,0.1-0.2,0.1c-0.1,0-0.1-0.2-0.1-0.2c0-0.1,0.1-0.1,0.2-0.1
		C-19.6,57.3-19.6,57.4-19.6,57.5z"/>
	<path class="st19" d="M-19.5,57.9c-0.1,0.1-0.2,0-0.2,0s0-0.2,0-0.2c0.1-0.1,0.2,0,0.2,0C-19.4,57.8-19.4,57.9-19.5,57.9z"/>
	<path class="st19" d="M-20,58.1c-0.1,0.1-0.2,0-0.2,0s0-0.2,0-0.2c0.1-0.1,0.2,0,0.2,0C-19.9,57.9-19.9,58-20,58.1z"/>
	<path class="st19" d="M-19.8,58.5L-19.8,58.5C-19.8,58.5-19.8,58.5-19.8,58.5c-0.1,0.1-0.2,0.1-0.3,0s0-0.2,0-0.2
		c0.1-0.1,0.2,0,0.2,0C-19.7,58.3-19.7,58.4-19.8,58.5z"/>
	<path class="st19" d="M-19.1,57.7L-19.1,57.7C-19.1,57.7-19.1,57.7-19.1,57.7c-0.1,0.1-0.2,0.1-0.3,0c-0.1-0.1,0-0.2,0-0.2
		c0.1-0.1,0.2,0,0.2,0C-19,57.5-19,57.6-19.1,57.7z"/>
	<path class="st19" d="M-18,55.3c-0.1,0.1-0.2,0.1-0.2,0s-0.1-0.2,0-0.2S-18,55-18,55S-17.9,55.2-18,55.3z"/>
	<path class="st19" d="M-21,58.9c0,0.1-0.1,0.2-0.2,0.2c0,0,0,0,0,0c-0.1,0-0.1-0.1-0.1-0.1c0,0,0,0,0,0c0-0.1,0.1-0.2,0.2-0.2
		C-21.1,58.8-21,58.8-21,58.9z"/>
	<path class="st19" d="M-21,58.1c0,0.1-0.1,0.2-0.2,0.2s-0.2-0.1-0.2-0.2c0-0.1,0.1-0.2,0.2-0.2c0,0,0,0,0,0
		C-21.1,57.9-21,58-21,58.1C-21,58.1-21,58.1-21,58.1z"/>
	<path class="st19" d="M-21.1,58.5c0,0.1-0.1,0.2-0.2,0.2s-0.2-0.1-0.2-0.2c0-0.1,0.1-0.2,0.2-0.2C-21.2,58.3-21.1,58.4-21.1,58.5z"
		/>
	<path class="st19" d="M-20.8,57.9c0,0.1-0.1,0.2-0.2,0.2c0,0,0,0,0,0c0,0-0.1-0.1-0.1-0.1c0,0,0,0,0-0.1c0-0.1,0.1-0.2,0.2-0.2
		C-20.9,57.7-20.8,57.8-20.8,57.9z"/>
</g>
<g>
	<path class="st20" d="M170.3-137.8v4h-2.8c-0.6,0-0.6-4,0-4H170.3z"/>
	<line class="st21" x1="167.6" y1="-137.8" x2="167.5" y2="-137.8"/>
	<path class="st20" d="M186.3-124.9h-5.1c-0.6,0-1.1-0.5-1.1-1.1l0,0c0-0.6,0.5-1.1,1.1-1.1h5.1c0.6,0,1.1,0.5,1.1,1.1l0,0
		C187.4-125.4,186.9-124.9,186.3-124.9z"/>
	<line class="st22" x1="164.3" y1="-134.3" x2="156.3" y2="-131.9"/>
	<line class="st22" x1="155.6" y1="-137" x2="163.6" y2="-136.2"/>
	<line class="st22" x1="157" y1="-142.2" x2="164.4" y2="-137.3"/>
	<line class="st21" x1="172.2" y1="-126.4" x2="173.1" y2="-126.4"/>
	<path class="st23" d="M193-99.3c-0.4,0.4-1,0.7-1.6,0.7h-15.7c-0.7,0-1.3-0.3-1.7-0.8l4.7-25.4h9.5L193-99.3z"/>
	<line class="st21" x1="181.4" y1="-127.1" x2="181.4" y2="-124.8"/>
	<line class="st21" x1="183.5" y1="-127.2" x2="183.5" y2="-124.9"/>
	<line class="st21" x1="185.6" y1="-127.2" x2="185.6" y2="-124.9"/>
	<polygon class="st20" points="186.4,-137.8 186.4,-127.1 181.4,-127.1 176.6,-132.2 173.2,-132.2 172.2,-132.2 170.3,-133.8 
		170.3,-137.8 	"/>
	<path class="st21" d="M173.2-132.2c1.9,2,2.2,3.9,0,5.7"/>
	<path class="st21" d="M172.2-132.2c1.9,2,2.2,3.9,0,5.7"/>
</g>
<g>
	<path class="st24" d="M87.6,46.7H19c0-10.5,15.4-19,34.3-19S87.6,36.2,87.6,46.7z"/>
	<path class="st24" d="M77.6,75.4H28.5c-5.5,0-9.9-4.4-9.9-9.9v0h69v0C87.6,71,83.1,75.4,77.6,75.4z"/>
	<g>
		<g>
			<g>
				<path class="st25" d="M65.3,69.3c2,0.2,4.1,0.2,6.2,0c-0.4-1.6-0.8-3.1-1.3-4.7c-0.2,0.1-0.4,0.2-0.6,0.3c-0.4,0.2,0.5-0.1,0,0
					c-0.2,0.1-0.4,0.1-0.6,0.2c-0.1,0-0.4,0-0.5,0.1c0.4-0.1,0.5-0.1,0.2,0c-0.1,0-0.2,0-0.3,0c-0.2,0-0.3,0-0.5,0
					c-0.4,0-0.8,0-1.2-0.1c-0.2,0-0.1,0,0.2,0c-0.1,0-0.3,0-0.4-0.1c-0.2,0-0.4-0.1-0.7-0.1c-0.4-0.1-0.9-0.2-1.3-0.3
					c-1.1-0.2-2.1-0.4-3.2-0.4c-1,0-1.9,0.7-2.3,1.5c-0.4,1-0.1,1.9,0.5,2.7c0.9,1.1,2.3,1.2,3.5,1.3c1,0.1,2.1,0.3,3.1,0.4
					c0.6,0.1,1.4-0.3,1.8-0.7c0.4-0.4,0.8-1.1,0.7-1.8c0-0.6-0.2-1.3-0.7-1.8c-0.5-0.5-1.1-0.6-1.8-0.7c-0.8-0.1-1.7-0.2-2.5-0.3
					c-0.2,0-0.4,0-0.6-0.1c-0.1,0-0.3,0-0.4,0c0.1,0,0.3,0,0.4,0.1c0,0-0.4-0.1-0.4-0.1c0.4,0.2,0.5,0.2,0.2,0.1
					c0.3,0.3,0.4,0.3,0.2,0.1c-0.6,1.4-1.2,2.8-1.8,4.3c0.3,0,0.5,0,0.8,0.1c0.3,0,0.3,0-0.1,0c0.1,0,0.3,0,0.4,0.1
					c0.4,0.1,0.9,0.2,1.3,0.2c1.1,0.2,2.2,0.4,3.3,0.5c1.9,0.2,4-0.1,5.7-1.2c0.9-0.6,1.5-1.7,1.1-2.8c-0.3-1-1.3-1.9-2.4-1.8
					c-2,0.2-4.1,0.2-6.2,0c-1.3-0.1-2.6,1.2-2.5,2.5C62.9,68.3,63.9,69.2,65.3,69.3L65.3,69.3z"/>
			</g>
		</g>
		<g>
			<g>
				<path class="st25" d="M53.9,67c0.6-0.1,0.9,0,1.5,0.2c0.5,0.2,1,0.4,1.5,0.7c1.2,0.6,2.3,1.1,3.5,1.6c0-0.6,0-1.3,0-1.9
					c-0.2,0.1-0.2,0-0.4,0c-0.2-0.1-0.5-0.2-0.7-0.3c-0.5-0.2-1-0.4-1.5-0.6c-0.9-0.4-1.8-0.8-2.7-1.2c-0.5-0.2-1.1-0.1-1.4,0.4
					c-0.3,0.4-0.1,1.1,0.4,1.4c1.1,0.5,2.2,1,3.3,1.5c0.5,0.2,1.1,0.4,1.6,0.6c0.6,0.2,1.3,0.4,1.9,0.2c0.4-0.1,0.7-0.5,0.7-1
					c0-0.5-0.3-0.8-0.7-1c-1.1-0.5-2.3-1-3.4-1.5c-1.1-0.6-2.3-1.1-3.6-1c-0.5,0.1-1,0.4-1,1C52.9,66.5,53.4,67,53.9,67L53.9,67z"/>
			</g>
		</g>
		<g>
			<g>
				<path class="st25" d="M40.1,70.3c2.3,0.2,4.6-0.1,6.8-0.9c2-0.7,3.8-2.1,6-2.5c-0.3-0.6-0.6-1.1-1-1.7c-0.3,0.3-0.8,0.4-1.3,0.5
					c-0.6,0.2-1.2,0.5-1.8,0.7c-1.1,0.5-2.1,1-3.3,1.1c-1.3,0.1-1.3,2.1,0,2c1.5-0.1,2.8-0.7,4.1-1.2c0.6-0.3,1.2-0.5,1.9-0.7
					c0.7-0.2,1.3-0.4,1.8-0.9c0.7-0.8,0-1.8-1-1.7c-2.1,0.4-3.8,1.7-5.8,2.4c-2.1,0.8-4.2,1.1-6.4,0.9
					C38.8,68.2,38.8,70.2,40.1,70.3L40.1,70.3z"/>
			</g>
		</g>
		<g>
			<g>
				<path class="st25" d="M30.7,67.2c1.9,0.3,3.7,0.7,5.5,1.3c1.6,0.5,2.9,1.9,4.6,2.1c0.1-0.7,0.2-1.3,0.3-2
					c-0.8-0.1-1.7-0.1-2.5-0.2c-0.8-0.2-1.6-0.5-2.4-0.8c-0.8-0.3-1.6-0.6-2.4-0.9c-0.4-0.2-0.8-0.3-1.2-0.5c-0.1,0-0.5-0.2-0.5-0.2
					c-0.2-0.5-0.7-0.8-1.2-0.7c-0.5,0.1-0.9,0.7-0.7,1.2c0.3,1,1.2,1.3,2.1,1.7c1,0.4,2,0.8,2.9,1.2c0.9,0.3,1.9,0.8,2.8,1
					c1,0.2,2.1,0.2,3.2,0.3c1.1,0.1,1.4-1.8,0.3-2c-0.8-0.1-1.5-0.5-2.1-1c-0.8-0.5-1.6-0.9-2.4-1.1c-1.8-0.6-3.7-1-5.5-1.3
					c-0.5-0.1-1.1,0.1-1.2,0.7C29.9,66.5,30.2,67.2,30.7,67.2L30.7,67.2z"/>
			</g>
		</g>
		<g>
			<g>
				<path class="st25" d="M19.6,63.8c-0.7,0.6-1.4,1.2-2.1,1.8c-0.6,0.5-1.3,1.2-1.3,2c0,2.1,2.9,1.3,4.1,1c1.6-0.4,3.3-0.4,4.9-0.9
					c0.7-0.2,1.5-0.5,2.3-0.6c0.9-0.1,1.7-0.1,2.5-0.4c1.2-0.4,0.7-2.4-0.5-1.9c-0.9,0.3-2,0.2-2.9,0.4c-1,0.2-1.9,0.6-2.9,0.8
					c-1,0.2-2,0.2-3.1,0.4c-0.5,0.1-1,0.2-1.5,0.3c-0.2,0-0.4,0.1-0.6,0.1c-0.1,0-0.3,0-0.4,0c-0.3,0-0.3,0-0.1,0
					c0.1,0.1,0.2,0.2,0.4,0.4c0,0,0,0,0,0c0,0.2,0,0.4,0,0.5c0.1-0.5,0.8-0.9,1.2-1.2c0.6-0.5,1.1-0.9,1.7-1.4
					C22,64.4,20.6,63,19.6,63.8L19.6,63.8z"/>
			</g>
		</g>
		<g>
			<g>
				<path class="st25" d="M22.4,63.9c-0.6,0-1.2,0-1.8,0.1c-0.2,0-0.3,0.1-0.4,0.3c-0.1,0.1-0.2,0.3-0.3,0.4c0,0.2,0,0.4,0,0.5
					c0,0.2,0.1,0.3,0.3,0.4c0.1,0.1,0.2,0.2,0.3,0.2c0.1,0.1,0.2,0.1,0.3,0.1c0,0,0.1,0,0.1,0c0.1,0,0.3,0,0.4,0
					c0.2,0,0.5-0.1,0.7-0.3c0.2-0.2,0.3-0.5,0.3-0.7c0-0.3-0.1-0.5-0.3-0.7c-0.2-0.2-0.4-0.3-0.7-0.3c0,0-0.1,0-0.1,0
					c0.1,0,0.2,0,0.3,0c-0.1,0-0.1,0-0.1,0c0.1,0,0.2,0.1,0.2,0.1c-0.1,0-0.1-0.1-0.2-0.1c0.1,0.1,0.1,0.1,0.2,0.2c0,0,0,0,0,0
					c-0.1,0.6-0.3,1.1-0.4,1.7c0.1,0,0.2,0,0.2,0c-0.1,0-0.2,0-0.3,0c0.4-0.1,0.9-0.1,1.3,0c0.1,0,0.3,0,0.4-0.1
					c0.1,0,0.2-0.1,0.3-0.2c0.2-0.2,0.3-0.5,0.3-0.7c0-0.3-0.1-0.5-0.3-0.7c-0.1-0.1-0.1-0.1-0.2-0.2C22.7,64,22.6,63.9,22.4,63.9
					L22.4,63.9z"/>
			</g>
		</g>
		<g>
			<g>
				<path class="st25" d="M21.3,66.3c1.3,0,1.3-2,0-2C20,64.3,20,66.3,21.3,66.3L21.3,66.3z"/>
			</g>
		</g>
		<g>
			<g>
				<path class="st25" d="M21.2,65.8c1.5-0.1,2.9,0,4.4,0.3c1.5,0.3,3,0.7,4.5,0.6c0.5-0.1,1-0.4,1-1c0-0.5-0.5-1.1-1-1
					c-1.5,0.1-2.8-0.3-4.3-0.6c-1.5-0.3-3.1-0.4-4.6-0.3c-0.5,0-1,0.4-1,1C20.2,65.3,20.7,65.8,21.2,65.8L21.2,65.8z"/>
			</g>
		</g>
		<g>
			<g>
				<path class="st25" d="M29.3,63.9c-1.8,0-3.6-0.3-5.4-0.2c-1.6,0-3.7,0.3-4.8,1.6c-0.4,0.5-0.4,1.5,0.4,1.7
					c2.5,0.5,4.9-0.4,7.4-0.2c0.5,0,1-0.5,1-1c0-0.6-0.5-1-1-1c-2.3-0.2-4.6,0.7-6.8,0.3c0.1,0.6,0.3,1.1,0.4,1.7
					c0.4-0.5,1.1-0.7,1.8-0.9c0.7-0.2,1.4-0.2,2.1-0.2c1.6,0,3.3,0.3,4.9,0.2C30.5,65.9,30.6,63.9,29.3,63.9L29.3,63.9z"/>
			</g>
		</g>
		<g>
			<g>
				<path class="st25" d="M19.4,67.7c0.2,0,0.3,0,0.5-0.1c-0.1,0-0.2,0-0.3,0c0.5-0.1,1.1-0.1,1.6-0.2c0.3,0,0.5-0.1,0.7-0.3
					c0.2-0.2,0.3-0.5,0.3-0.7c0-0.3-0.1-0.5-0.3-0.7c-0.2-0.2-0.4-0.3-0.7-0.3c-0.8,0.1-1.6,0.2-2.4,0.3c-0.2,0-0.5,0.3-0.6,0.5
					c-0.1,0.2-0.2,0.5-0.1,0.8c0.1,0.2,0.2,0.5,0.5,0.6c0.1,0,0.2,0.1,0.2,0.1C19,67.8,19.2,67.8,19.4,67.7L19.4,67.7z"/>
			</g>
		</g>
		<g>
			<g>
				<path class="st25" d="M46.7,65.5c-2.9,0.9-6,1.5-8.9,0.3c-1.2-0.5-2.5-1.1-3.8-1.3c-0.7-0.1-1.4-0.1-2-0.2
					c-0.7-0.1-1.2-0.5-2-0.5c-1.3,0-1.3,2,0,2c0.7,0,1.3,0,2,0.1c0-0.7,0-1.3,0-2c-1.2,0.1-2.4,0-3.6-0.2c-1.3-0.2-1.8,1.7-0.5,1.9
					c1.8,0.4,3.5,0.2,5.3,0.1c1.9,0,3.7,0.4,5.6,0.2c1.1-0.1,1.4-1.7,0.3-2c-1.1-0.3-2.3-0.4-3.5-0.4c-1.3,0-1.3,2,0,2
					c2,0,4-0.1,6-0.1c2.1,0,4.2,0.2,6.2,0.3c-0.1-0.7-0.2-1.3-0.3-2c-3.3,1.2-7.1,1.3-10.6,1.2c-1.1,0-1.4,1.8-0.3,2
					c3.5,0.5,7,0.9,10.5,0.4C48.6,67.3,48,65.3,46.7,65.5c-3.1,0.4-6.3,0-9.4-0.4c-0.1,0.7-0.2,1.3-0.3,2c1.9,0,3.9,0,5.8-0.3
					c1.8-0.2,3.6-0.4,5.3-1c1.1-0.4,0.9-1.9-0.3-2c-2.1-0.1-4.2-0.3-6.2-0.3c-2,0-4,0.1-6,0.1c0,0.7,0,1.3,0,2c1,0,2,0.1,2.9,0.3
					c0.1-0.7,0.2-1.3,0.3-2c-1.8,0.2-3.5-0.3-5.3-0.2c-1.7,0-3.5,0.3-5.2-0.1c-0.2,0.6-0.4,1.3-0.5,1.9c1.4,0.3,2.7,0.4,4.1,0.3
					c1.3-0.1,1.3-1.9,0-2c-0.7-0.1-1.3-0.1-2-0.1c0,0.7,0,1.3,0,2c0.7,0,1.4,0.5,2.1,0.5c0.7,0.1,1.4,0.1,2.1,0.3
					c1.4,0.4,2.7,1.1,4.1,1.6c2.8,0.9,6.2,0.1,9-0.7C48.5,67.1,47.9,65.2,46.7,65.5L46.7,65.5z"/>
			</g>
		</g>
		<g>
			<g>
				<path class="st25" d="M52.6,63.8c-1.1-0.1-2.2,0-3.2,0.4c-0.5,0.2-1.1,0.5-1.5,0.9c0,0-0.5,0.7-0.5,0.7c0,0,0.2-0.2,0.2-0.2
					c0.1,0,0.2,0,0,0c0.1,0,0.2,0,0,0c-0.1,0-0.1,0-0.2,0c0.3,0.5,0.6,1,0.9,1.5c0.1-0.2,0.3-0.5,0.4-0.7c0.1-0.1,0.1-0.2,0.2-0.3
					c0,0,0.1-0.1,0.1-0.1c0.1-0.1-0.1,0.1,0,0c0.1-0.1,0,0,0,0c0,0,0.1-0.1,0.1-0.1c0.1,0,0.2-0.1,0.3-0.1c0.3-0.1,0.5-0.3,0.7-0.5
					c0.3-0.3,0.4-0.8,0.2-1.1c-0.1-0.4-0.5-0.6-0.9-0.6c-0.2,0-0.3,0-0.5,0c-0.1,0-0.1,0-0.2,0c0.2,0-0.1,0-0.1,0
					c-0.1,0.7-0.2,1.3-0.3,2c1.1,0.1,2.2,0.1,3.2,0.2c0.5,0,1-0.5,1-1c0-0.6-0.4-1-1-1c-1.1-0.1-2.2-0.1-3.2-0.2
					c-0.5,0-0.9,0.4-1,0.9c-0.1,0.5,0.2,1,0.7,1.1c0.4,0.1,0.9,0.1,1.3,0.1c-0.2-0.6-0.5-1.1-0.7-1.7c0.1,0,0.1-0.1,0,0
					c-0.1,0-0.1,0.1-0.2,0.1c-0.1,0-0.2,0.1-0.3,0.1c-0.3,0.1-0.5,0.3-0.7,0.5c-0.4,0.4-0.7,1-1,1.5c-0.4,0.7,0.1,1.5,0.9,1.5
					c0.7,0,1.4-0.2,1.7-0.8c0-0.1,0.1-0.2,0.1-0.3c0,0.1-0.1,0.1,0,0c0.1-0.1,0,0,0,0c0.2-0.2,0.4-0.3,0.7-0.4c0.1,0,0.1,0,0.2-0.1
					c-0.1,0-0.1,0,0,0c0.1,0,0.2-0.1,0.4-0.1c0.2-0.1,0.5-0.1,0.7-0.2c0.2,0-0.1,0,0,0c0.1,0,0.1,0,0.2,0c0.1,0,0.3,0,0.4,0
					c0.3,0,0.5,0,0.8,0c0.5,0.1,1-0.5,1-1C53.6,64.2,53.2,63.9,52.6,63.8L52.6,63.8z"/>
			</g>
		</g>
		<g>
			<g>
				<path class="st25" d="M61.1,63.7c-2.6,0-5.2,0.1-7.8-0.2c-1.1-0.1-1.3,1.7-0.3,2c1.8,0.4,3.5,0.8,5.3,1.3
					c0.8,0.2,1.7,0.5,2.5,0.8c0.4,0.1,0.9,0.3,1.3,0.5c0.1,0.1,0.4,0.2,0.6,0.2c0.2,0,0.1,0.2,0-0.1c0.4,1.2,2.3,0.7,1.9-0.5
					c-0.3-1-1.3-1.3-2.2-1.6c-1-0.3-1.9-0.7-2.9-0.9c-2-0.6-4-1.1-6-1.6c-0.1,0.7-0.2,1.3-0.3,2c2.6,0.3,5.2,0.2,7.8,0.2
					C62.4,65.7,62.4,63.7,61.1,63.7L61.1,63.7z"/>
			</g>
		</g>
		<g>
			<g>
				<path class="st25" d="M72.7,69.4c1.8-0.7,3.6-1.5,5.4-2.4c0.5-0.2,0.6-0.9,0.4-1.4c-0.3-0.5-0.9-0.6-1.4-0.4
					c-0.8,0.4-1.7,0.8-2.5,1.2c-0.2,0.1-0.4,0.2-0.6,0.3c-0.1,0-0.2,0.1-0.3,0.1c0,0-0.4,0.2-0.2,0.1c-0.4,0.2-0.9,0.4-1.3,0.5
					c-0.5,0.2-0.9,0.7-0.7,1.2C71.6,69.1,72.2,69.6,72.7,69.4L72.7,69.4z"/>
			</g>
		</g>
		<g>
			<g>
				<path class="st25" d="M62,65.6c4.1-0.4,8.1,0.4,12.2,0.1c1.3-0.1,1.3-2.1,0-2C70.1,64,66,63.3,62,63.6
					C60.7,63.7,60.7,65.7,62,65.6L62,65.6z"/>
			</g>
		</g>
		<g>
			<g>
				<path class="st25" d="M77.2,63.7c-1.3,0-2.5,0-3.8,0c-0.4,0-0.9,0.3-1,0.7c-0.1,0.4,0.1,0.9,0.5,1.1c0,0,0.1,0.1,0.1,0.1
					c0.1,0-0.1-0.1-0.1,0c0.1,0.2,0.1,0-0.2-0.5c0.1-0.2,0.1-0.3,0.2-0.5c0,0-0.1,0.1-0.1,0.1c-0.2,0.2-0.4,0.4-0.6,0.6
					c-0.3,0.3-0.4,0.6-0.3,1c0.1,0.3,0.4,0.6,0.7,0.7c0.4,0.1,0.9,0.1,1.3,0.1c0.4,0,0.9-0.1,1.3-0.2c0.1,0,0.2,0,0.2,0
					c0.1,0,0.1,0,0,0c0.1,0,0.1,0,0.2,0c0.2,0,0.4,0,0.6,0c0.4,0,0.9,0,1.3-0.1c0.5-0.1,0.9-0.7,0.7-1.2c-0.2-0.5-0.7-0.8-1.2-0.7
					c0,0-0.3,0.1-0.2,0c0.1,0-0.2,0-0.2,0c-0.2,0-0.3,0-0.5,0c-0.4,0-0.8,0-1.2,0.1c-0.2,0-0.3,0.1-0.5,0.1c0,0-0.3,0-0.2,0
					c0.1,0-0.2,0-0.2,0c-0.2,0-0.3,0-0.5,0c-0.1,0-0.2,0-0.2,0c-0.1,0-0.1,0-0.2,0c0.1,0,0.1,0,0,0c0.1,0.6,0.3,1.1,0.4,1.7
					c0.4-0.4,0.9-0.8,1.1-1.3c0.2-0.7-0.2-1.3-0.8-1.6c-0.2,0.6-0.3,1.2-0.5,1.9c1.3,0,2.5,0,3.8,0c0.5,0,1-0.5,1-1
					C78.2,64.1,77.7,63.7,77.2,63.7L77.2,63.7z"/>
			</g>
		</g>
		<g>
			<g>
				<path class="st25" d="M85.4,63.8c-1.3,0-2.7,0-4-0.1c-0.6,0-1.2-0.1-1.8-0.1c-0.7-0.1-1.3-0.2-2-0.1c-0.5,0.1-1,0.4-1,1
					c0,0.5,0.5,1.1,1,1c0.6-0.1,1.2,0,1.7,0.1c0.7,0.1,1.4,0.2,2.1,0.2c1.3,0,2.7,0,4,0.1C86.7,65.8,86.7,63.8,85.4,63.8L85.4,63.8z
					"/>
			</g>
		</g>
		<g>
			<g>
				<path class="st25" d="M77.9,66.7c0.2,0.3,0.4,0.5,0.7,0.6c0.2-0.6,0.3-1.2,0.5-1.9c0.1,0,0,0-0.1-0.1c-0.2,0.6-0.3,1.2-0.5,1.9
					c2.8,0.3,5.5,0.1,8.3-0.4c0.5-0.1,0.8-0.7,0.7-1.2c-0.2-0.6-0.7-0.8-1.2-0.7c-2.5,0.5-5.2,0.6-7.7,0.4c-0.4,0-0.9,0.3-1,0.7
					c-0.1,0.4,0.1,0.9,0.5,1.1c0.3,0.2,0.7,0.3,1.1,0.3c1,0.1,1.4-1.4,0.5-1.9c-0.1-0.1-0.1,0,0.1,0.1c-0.3-0.4-0.9-0.6-1.4-0.4
					C77.8,65.6,77.5,66.3,77.9,66.7L77.9,66.7z"/>
			</g>
		</g>
		<g>
			<g>
				<path class="st25" d="M85.6,66c0.1,0.1,0.2,0.2,0.4,0.2c-0.1-0.1-0.1-0.1-0.2-0.2c0.2,0.2,0.4,0.3,0.6,0.6
					c-0.1-0.1-0.1-0.1-0.2-0.2c0.2,0.2,0.3,0.5,0.5,0.8c0.1,0.2,0.3,0.4,0.4,0.5c0.1,0.2,0.3,0.3,0.5,0.4c0.1,0,0.2,0.1,0.2,0.1
					c0.1,0,0.2,0,0.3,0c0.2,0,0.4-0.1,0.6-0.2c0.1-0.1,0.2-0.2,0.3-0.4c0.1-0.2,0.1-0.5,0.1-0.7c-0.1-0.2-0.2-0.4-0.4-0.6
					c-0.1-0.1-0.3-0.2-0.4-0.3c0.1,0.1,0.1,0.1,0.2,0.2c0,0-0.1,0-0.1-0.1c0.1,0.1,0.1,0.1,0.2,0.2c0,0,0,0,0-0.1
					c0,0.1,0.1,0.2,0.1,0.2c0,0,0,0,0-0.1c0,0.1,0,0.2,0,0.3c0,0,0,0,0-0.1c0,0.1,0,0.2,0,0.3c0,0,0,0,0-0.1c0,0.1-0.1,0.2-0.1,0.2
					c0,0,0,0,0,0c-0.1,0.1-0.1,0.1-0.2,0.2c0,0,0,0,0,0c-0.1,0.1-0.1,0.1-0.2,0.2c0,0,0,0,0,0c-0.1,0-0.2,0.1-0.2,0.1c0,0,0,0,0,0
					c-0.1,0-0.2,0-0.3,0c0,0,0,0,0,0c-0.1,0-0.2,0-0.3,0c0,0,0,0,0,0c-0.1,0-0.2-0.1-0.2-0.1c0,0,0,0,0.1,0
					c-0.1-0.1-0.1-0.1-0.2-0.2c0,0,0,0,0,0c-0.1-0.1-0.1-0.1-0.2-0.2c0,0,0,0,0,0.1c0-0.1-0.1-0.2-0.1-0.2c0,0.1,0.1,0.2,0.1,0.3
					c0.1,0.2,0.1,0.4,0.2,0.5c0.2,0.4,0.5,0.7,0.9,0.8c0.6,0.2,1.3-0.2,1.5-0.8c0.2-0.6-0.2-1.3-0.8-1.5c-0.5-0.2-1.1,0.2-1.2,0.7
					c-0.1,0.5,0.2,1.1,0.7,1.2c0,0,0,0,0,0c-0.1,0-0.2-0.1-0.2-0.1c0,0,0,0,0,0c-0.1-0.1-0.1-0.1-0.2-0.2c0,0,0,0,0,0
					c-0.1-0.1-0.1-0.1-0.2-0.2c0,0,0,0,0,0c0-0.1-0.1-0.2-0.1-0.2c0,0,0,0,0,0c0-0.1,0-0.2,0-0.3c0,0,0,0,0,0.1c0-0.1,0-0.2,0-0.3
					c0,0,0,0,0,0.1c0-0.1,0.1-0.2,0.1-0.2c0,0,0,0,0,0C88,67.1,88,67,88.1,67c0,0,0,0,0,0c0.1-0.1,0.1-0.1,0.2-0.2c0,0,0,0-0.1,0
					c0.1,0,0.2-0.1,0.2-0.1c0,0,0,0-0.1,0c0.1,0,0.2,0,0.3,0c0,0,0,0-0.1,0c0.1,0,0.2,0,0.3,0c0,0,0,0-0.1,0c0.1,0,0.2,0.1,0.2,0.1
					c0,0-0.1,0-0.1-0.1c0.1,0.1,0.1,0.1,0.2,0.2c0,0-0.1-0.1-0.1-0.1c0.1,0.1,0.1,0.1,0.2,0.2c-0.1-0.1-0.1-0.2-0.2-0.3
					c0,0.1,0.1,0.2,0.1,0.2c-0.1-0.2-0.1-0.5-0.3-0.7c-0.3-0.5-1-0.8-1.6-0.4c-0.5,0.3-0.7,0.8-0.5,1.4c0.1,0.2,0.2,0.4,0.4,0.6
					c0.1,0.1,0.3,0.2,0.4,0.3c-0.1-0.1-0.1-0.1-0.2-0.2c0,0,0.1,0,0.1,0.1c-0.1-0.1-0.1-0.1-0.2-0.2c0,0,0,0,0,0.1
					c0-0.1-0.1-0.2-0.1-0.2c0,0,0,0,0,0c0.5-0.4,1-0.8,1.5-1.1c0,0,0,0,0,0c0.1,0.1,0.1,0.1,0.2,0.2c-0.1-0.1-0.3-0.3-0.4-0.4
					c0.1,0.1,0.1,0.1,0.2,0.2c-0.3-0.4-0.5-0.8-0.8-1.1c-0.3-0.4-0.7-0.7-1.1-0.9c-0.5-0.3-1.1-0.1-1.4,0.4
					C85,65.1,85.1,65.8,85.6,66L85.6,66z"/>
			</g>
		</g>
		<g>
			<g>
				<path class="st25" d="M89.1,66.7c-0.6,0-1.2,0-1.8-0.1c-0.6-0.1-1.1-0.3-1.7-0.4c-1.3-0.3-2.6-0.4-3.8-0.4c-0.5,0-1,0.5-1,1
					c0,0.6,0.5,1,1,1c1.2,0.1,2.4,0.1,3.6,0.4c0.6,0.1,1.1,0.3,1.7,0.4c0.7,0.1,1.4,0.2,2,0.1c0.5,0,1-0.5,1-1
					C90.1,67.2,89.7,66.7,89.1,66.7L89.1,66.7z"/>
			</g>
		</g>
		<g>
			<g>
				<path class="st25" d="M79.8,67.4c0.1,0,0.4,0,0.5,0.1c0.2,0.1,0.5,0.1,0.7,0.2c0.6,0.1,1.1,0.2,1.7,0.2c1,0,2,0,3,0.2
					c0.5,0.1,1.1-0.2,1.2-0.7c0.1-0.5-0.2-1.1-0.7-1.2c-1.1-0.3-2.3-0.3-3.5-0.3c-0.6,0-0.9-0.1-1.5-0.2c-0.7-0.2-1.3-0.3-2-0.2
					c-0.5,0.1-0.9,0.8-0.7,1.2C78.7,67.3,79.2,67.5,79.8,67.4L79.8,67.4z"/>
			</g>
		</g>
		<g>
			<g>
				<path class="st25" d="M86.1,66.6c-1,0.1-2-0.4-3.1-0.6c-1.1-0.3-2.3-0.4-3.4-0.3c-0.5,0-0.9,0.3-1,0.9c-0.1,0.4,0.2,1,0.7,1.1
					c1.3,0.2,2.6,0.4,3.9,0.5c0.5,0.1,1.1-0.1,1.2-0.7c0.1-0.5-0.1-1.2-0.7-1.2c-1.3-0.2-2.6-0.4-3.9-0.5c-0.1,0.7-0.2,1.3-0.3,2
					c1.1-0.1,2,0,3.1,0.3c1.1,0.3,2.2,0.8,3.4,0.7c0.5-0.1,1-0.4,1-1C87.1,67.1,86.7,66.5,86.1,66.6L86.1,66.6z"/>
			</g>
		</g>
		<g>
			<path class="st26" d="M29.5,67c7.6,4.7,15.5,4.6,23.6,0"/>
			<path class="st26" d="M77.3,67.5c-7.5,4.4-15.7,3.7-24.2-0.5"/>
			<path class="st26" d="M85.8,63.5c8.6,6,4.2,6.6-8.4,3.8"/>
			<path class="st26" d="M20,63.5c-8.3,6.4-3.4,6.8,9.5,3.5"/>
		</g>
		<line class="st26" x1="20" y1="63.5" x2="85.8" y2="63.5"/>
	</g>
	<path class="st27" d="M83.3,63.5H22.9c-3.1,0-5.6-2.5-5.6-5.6v0c0-3.1,2.5-5.6,5.6-5.6h60.4c3.1,0,5.6,2.5,5.6,5.6v0
		C88.8,61,86.3,63.5,83.3,63.5z"/>
	<polygon class="st28" points="53.1,57.9 85.1,52.3 21.1,52.3 	"/>
	<path class="st29" d="M83,51.9H23.2c-1.3,0-2.4-1.1-2.4-2.4v0c0-1.3,1.1-2.4,2.4-2.4H83c1.3,0,2.4,1.1,2.4,2.4v0
		C85.4,50.8,84.3,51.9,83,51.9z"/>
	<path class="st30" d="M56.1,36.6c0,1.1-1.5,1.9-2.5,1.9c-1.1,0-1.9-0.9-1.9-1.9c0-1.1,0.9-1.9,1.9-1.9
		C54.7,34.7,56.1,35.5,56.1,36.6z"/>
	<path class="st30" d="M73.4,34.9c0,1.1-1.5,1.9-2.5,1.9c-1.1,0-1.9-0.9-1.9-1.9c0-1.1,0.9-1.9,1.9-1.9C71.9,33,73.4,33.9,73.4,34.9
		z"/>
	<path class="st30" d="M66.7,39.1c0,1.1-1.5,1.9-2.5,1.9c-1.1,0-1.9-0.9-1.9-1.9c0-1.1,0.9-1.9,1.9-1.9C65.3,37.2,66.7,38,66.7,39.1
		z"/>
	<path class="st30" d="M58,42.3c0,1.1-1.5,1.9-2.5,1.9c-1.1,0-1.9-0.9-1.9-1.9c0-1.1,0.9-1.9,1.9-1.9C56.5,40.4,58,41.2,58,42.3z"/>
	<path class="st30" d="M80.4,42.3c0,1.1-1.5,1.9-2.5,1.9s-1.9-0.9-1.9-1.9c0-1.1,0.9-1.9,1.9-1.9S80.4,41.2,80.4,42.3z"/>
	<path class="st30" d="M60.6,31.9c0,1.1-1.5,1.9-2.5,1.9c-1.1,0-1.9-0.9-1.9-1.9s0.9-1.9,1.9-1.9C59.1,29.9,60.6,30.8,60.6,31.9z"/>
	<path class="st30" d="M33.6,37.2c0,1.1-1.5,1.9-2.5,1.9c-1.1,0-1.9-0.9-1.9-1.9c0-1.1,0.9-1.9,1.9-1.9
		C32.1,35.3,33.6,36.1,33.6,37.2z"/>
	<path class="st30" d="M49.7,38.5c0,1.1-1.5,1.9-2.5,1.9c-1.1,0-1.9-0.9-1.9-1.9c0-1.1,0.9-1.9,1.9-1.9
		C48.3,36.6,49.7,37.4,49.7,38.5z"/>
	<path class="st30" d="M43.2,41.6c0,1.1-1.5,1.9-2.5,1.9c-1.1,0-1.9-0.9-1.9-1.9s0.9-1.9,1.9-1.9C41.8,39.7,43.2,40.6,43.2,41.6z"/>
	<path class="st30" d="M44.6,32.7c0,1.1-1.5,1.9-2.5,1.9c-1.1,0-1.9-0.9-1.9-1.9c0-1.1,0.9-1.9,1.9-1.9
		C43.1,30.8,44.6,31.7,44.6,32.7z"/>
	<path class="st30" d="M35.8,43.6c0,1.1-1.5,1.9-2.5,1.9c-1.1,0-1.9-0.9-1.9-1.9c0-1.1,0.9-1.9,1.9-1.9
		C34.4,41.6,35.8,42.5,35.8,43.6z"/>
</g>
</svg>
