<?xml version="1.0" encoding="utf-8"?>
<!-- Generator: Adobe Illustrator 28.1.0, SVG Export Plug-In . SVG Version: 6.00 Build 0)  -->
<svg version="1.1" id="Laag_1" xmlns="http://www.w3.org/2000/svg" xmlns:xlink="http://www.w3.org/1999/xlink" x="0px" y="0px"
	 viewBox="0 0 14.94 30.23" enable-background="new 0 0 14.94 30.23" xml:space="preserve">
<path fill="none" stroke="#000000" stroke-width="3" stroke-miterlimit="10" d="M71.59,179.06h-323.72c-11.82,0-21.4-9.58-21.4-21.4
	v-74.1c0-11.82,9.58-21.4,21.4-21.4H71.59c11.82,0,21.4,9.58,21.4,21.4v74.1C92.99,169.48,83.41,179.06,71.59,179.06z"/>
<path fill="none" stroke="#000000" stroke-width="3" stroke-miterlimit="10" d="M71.59,179.41h-323.72c-11.82,0-21.4-9.58-21.4-21.4
	v-74.1c0-11.82,9.58-21.4,21.4-21.4H71.59c11.82,0,21.4,9.58,21.4,21.4v74.1C92.99,169.83,83.41,179.41,71.59,179.41z"/>
<circle fill="none" stroke="#000000" stroke-width="3" stroke-miterlimit="10" cx="-218.91" cy="120.97" r="45.16"/>
<text transform="matrix(1 0 0 1 -184.0198 81.3897)" font-family="'AmericanTypewriter-Bold'" font-size="19px">Plantnaam</text>
<g>
	<g>
		<line fill="none" stroke="#000000" stroke-width="3" stroke-miterlimit="10" x1="-252.35" y1="151.31" x2="-247.93" y2="147.25"/>
		
			<line fill="none" stroke="#000000" stroke-width="3" stroke-miterlimit="10" stroke-dasharray="11.187,11.187" x1="-239.69" y1="139.69" x2="-194.36" y2="98.08"/>
		<line fill="none" stroke="#000000" stroke-width="3" stroke-miterlimit="10" x1="-190.24" y1="94.3" x2="-185.82" y2="90.24"/>
	</g>
</g>
<g>
	<g>
		<line fill="none" stroke="#000000" stroke-width="3" stroke-miterlimit="10" x1="-254.57" y1="92.8" x2="-249.88" y2="96.54"/>
		
			<line fill="none" stroke="#000000" stroke-width="3" stroke-miterlimit="10" stroke-dasharray="11.1839,11.1839" x1="-241.14" y1="103.52" x2="-193.08" y2="141.9"/>
		<line fill="none" stroke="#000000" stroke-width="3" stroke-miterlimit="10" x1="-188.71" y1="145.39" x2="-184.02" y2="149.14"/>
	</g>
</g>
<rect x="-167.25" y="91.5" fill="none" width="62.14" height="74.77"/>
<text transform="matrix(1 0 0 1 -167.2502 96.8799)"><tspan x="0" y="0" font-family="'AmericanTypewriter-Bold'" font-size="8px">Hier komt </tspan><tspan x="0" y="9.6" font-family="'AmericanTypewriter-Bold'" font-size="8px">informatie </tspan><tspan x="0" y="19.2" font-family="'AmericanTypewriter-Bold'" font-size="8px">over bijvoor</tspan><tspan x="48.89" y="19.2" font-family="'AmericanTypewriter-Bold'" font-size="8px">-</tspan><tspan x="0" y="28.8" font-family="'AmericanTypewriter-Bold'" font-size="8px">beld land van </tspan><tspan x="0" y="38.4" font-family="'AmericanTypewriter-Bold'" font-size="8px">oorsprong. Of </tspan><tspan x="0" y="48" font-family="'AmericanTypewriter-Bold'" font-size="8px">waar de plant </tspan><tspan x="0" y="57.6" font-family="'AmericanTypewriter-Bold'" font-size="8px">allemaal te </tspan><tspan x="0" y="67.2" font-family="'AmericanTypewriter-Bold'" font-size="8px">vinden is </tspan></text>
<g id="druppels_00000048486908586893593170000014735733989431353246_">
	<g id="druppel__x28_grijs_x29__00000161628776745094902130000004016714849292852880_">
		<path fill="#DADADA" d="M75.57,96.83c0,3.93-3.19,7.12-7.12,7.12s-7.12-3.19-7.12-7.12c0-3.93,6.81-12.85,6.81-12.85
			S75.57,92.9,75.57,96.83z"/>
		<path fill="#DADADA" stroke="#F6F6F6" stroke-miterlimit="10" d="M63.21,97.93c-0.13,1.81,1.25,3.41,3.06,3.55
			c0.45,0.03,0.91-0.03,1.33-0.17"/>
	</g>
	<g id="druppel_00000157998952096770827000000001083274660296423586_">
		<path fill="#DADADA" d="M59.89,96.83c0,3.93-3.19,7.12-7.12,7.12s-7.12-3.19-7.12-7.12c0-3.93,6.81-12.85,6.81-12.85
			S59.89,92.9,59.89,96.83z"/>
		<path fill="#DADADA" stroke="#F6F6F6" stroke-miterlimit="10" d="M47.53,97.93c-0.13,1.81,1.25,3.41,3.06,3.55
			c0.45,0.03,0.91-0.03,1.33-0.17"/>
	</g>
	<g id="druppel_00000142177999473498385870000006106767161939359407_">
		<path fill="#009FE3" d="M44.09,96.83c0,3.93-3.19,7.12-7.12,7.12s-7.12-3.19-7.12-7.12c0-3.93,6.81-12.85,6.81-12.85
			S44.09,92.9,44.09,96.83z"/>
		<path fill="#009FE3" stroke="#F6F6F6" stroke-miterlimit="10" d="M31.74,97.93c-0.13,1.81,1.25,3.41,3.06,3.55
			c0.45,0.03,0.91-0.03,1.33-0.17"/>
	</g>
	<g id="druppel_00000181054631951297323610000013617573203088376725_">
		<path fill="#009FE3" d="M28.3,96.83c0,3.93-3.19,7.12-7.12,7.12s-7.12-3.19-7.12-7.12c0-3.93,6.81-12.85,6.81-12.85
			S28.3,92.9,28.3,96.83z"/>
		<path fill="#009FE3" stroke="#F6F6F6" stroke-miterlimit="10" d="M15.95,97.93c-0.13,1.81,1.25,3.41,3.06,3.55
			c0.45,0.03,0.91-0.03,1.33-0.17"/>
	</g>
	<g id="druppel_00000057119746680860226770000016501659744054151335_">
		<path fill="#009FE3" d="M12.36,96.83c0,3.93-3.19,7.12-7.12,7.12s-7.12-3.19-7.12-7.12c0-3.93,6.81-12.85,6.81-12.85
			S12.36,92.9,12.36,96.83z"/>
		<path fill="#009FE3" stroke="#F6F6F6" stroke-miterlimit="10" d="M0.01,97.93c-0.13,1.81,1.25,3.41,3.06,3.55
			c0.45,0.03,0.91-0.03,1.33-0.17"/>
	</g>
</g>
<g>
	<circle fill="#FFED00" stroke="#000000" stroke-miterlimit="10" cx="52.84" cy="10.13" r="5.07"/>
	<g>
		
			<line fill="none" stroke="#000000" stroke-miterlimit="10" stroke-dasharray="4.4257" x1="52.84" y1="-1.28" x2="52.84" y2="3.14"/>
	</g>
	<g>
		
			<line fill="none" stroke="#000000" stroke-miterlimit="10" stroke-dasharray="4.4257" x1="47.14" y1="0.24" x2="49.35" y2="4.08"/>
	</g>
	<g>
		<line fill="none" stroke="#000000" stroke-miterlimit="10" stroke-dasharray="4.4257" x1="42.96" y1="4.42" x2="46.8" y2="6.63"/>
	</g>
	<g>
		
			<line fill="none" stroke="#000000" stroke-miterlimit="10" stroke-dasharray="4.4257" x1="41.43" y1="10.13" x2="45.86" y2="10.13"/>
	</g>
	<g>
		
			<line fill="none" stroke="#000000" stroke-miterlimit="10" stroke-dasharray="4.4257" x1="42.96" y1="15.83" x2="46.8" y2="13.62"/>
	</g>
	<g>
		
			<line fill="none" stroke="#000000" stroke-miterlimit="10" stroke-dasharray="4.4257" x1="47.14" y1="20.01" x2="49.35" y2="16.18"/>
	</g>
	<g>
		
			<line fill="none" stroke="#000000" stroke-miterlimit="10" stroke-dasharray="4.4257" x1="52.84" y1="21.54" x2="52.84" y2="17.11"/>
	</g>
	<g>
		
			<line fill="none" stroke="#000000" stroke-miterlimit="10" stroke-dasharray="4.4257" x1="58.55" y1="20.01" x2="56.34" y2="16.18"/>
	</g>
	<g>
		
			<line fill="none" stroke="#000000" stroke-miterlimit="10" stroke-dasharray="4.4257" x1="62.73" y1="15.83" x2="58.89" y2="13.62"/>
	</g>
	<g>
		
			<line fill="none" stroke="#000000" stroke-miterlimit="10" stroke-dasharray="4.4257" x1="64.26" y1="10.13" x2="59.83" y2="10.13"/>
	</g>
	<g>
		
			<line fill="none" stroke="#000000" stroke-miterlimit="10" stroke-dasharray="4.4257" x1="62.73" y1="4.42" x2="58.89" y2="6.63"/>
	</g>
	<g>
		
			<line fill="none" stroke="#000000" stroke-miterlimit="10" stroke-dasharray="4.4257" x1="58.55" y1="0.24" x2="56.34" y2="4.08"/>
	</g>
</g>
<g>
	<path fill="#FFFFFF" stroke="#000000" stroke-miterlimit="10" d="M49.27-11.88H39.12c-1.97,0-3.57-1.6-3.57-3.57v0
		c0-1.97,1.6-3.57,3.57-3.57h10.15c1.97,0,3.57,1.6,3.57,3.57v0C52.84-13.48,51.24-11.88,49.27-11.88z"/>
	<g>
		
			<line fill="none" stroke="#000000" stroke-miterlimit="10" stroke-dasharray="3.5812" x1="38.53" y1="-24.96" x2="42.11" y2="-24.96"/>
	</g>
	<circle fill="#FFED00" stroke="#000000" stroke-miterlimit="10" cx="49.74" cy="-24.96" r="6.18"/>
	<circle fill="#FFFFFF" stroke="#000000" stroke-miterlimit="10" cx="38.35" cy="-19.97" r="3.85"/>
	<circle fill="#FFFFFF" stroke="#000000" stroke-miterlimit="10" cx="42.8" cy="-22.14" r="4.44"/>
	<circle fill="#FFFFFF" stroke="#000000" stroke-miterlimit="10" cx="49.56" cy="-19.33" r="4.15"/>
	<circle fill="#FFFFFF" stroke="#000000" stroke-miterlimit="10" cx="42.73" cy="-16.05" r="4.25"/>
	<circle fill="#FFFFFF" stroke="#000000" stroke-miterlimit="10" cx="52.25" cy="-16.58" r="4.25"/>
	<circle fill="#FFFFFF" stroke="#000000" stroke-miterlimit="10" cx="36.3" cy="-15.85" r="3.48"/>
	<g>
		
			<line fill="none" stroke="#000000" stroke-miterlimit="10" stroke-dasharray="3.5812" x1="49.74" y1="-36.17" x2="49.74" y2="-32.59"/>
	</g>
	<g>
		
			<line fill="none" stroke="#000000" stroke-miterlimit="10" stroke-dasharray="3.5812" x1="44.14" y1="-34.67" x2="45.93" y2="-31.56"/>
	</g>
	<g>
		
			<line fill="none" stroke="#000000" stroke-miterlimit="10" stroke-dasharray="3.5812" x1="40.03" y1="-30.56" x2="43.14" y2="-28.77"/>
	</g>
	<g>
		
			<line fill="none" stroke="#000000" stroke-miterlimit="10" stroke-dasharray="3.5812" x1="59.45" y1="-19.35" x2="56.35" y2="-21.14"/>
	</g>
	<g>
		
			<line fill="none" stroke="#000000" stroke-miterlimit="10" stroke-dasharray="3.5812" x1="60.95" y1="-24.96" x2="57.37" y2="-24.96"/>
	</g>
	<g>
		
			<line fill="none" stroke="#000000" stroke-miterlimit="10" stroke-dasharray="3.5812" x1="59.45" y1="-30.56" x2="56.35" y2="-28.77"/>
	</g>
	<g>
		
			<line fill="none" stroke="#000000" stroke-miterlimit="10" stroke-dasharray="3.5812" x1="55.35" y1="-34.67" x2="53.56" y2="-31.56"/>
	</g>
</g>
<g>
	<path fill="#DADADA" stroke="#B2B2B2" stroke-miterlimit="10" d="M12.49-9.66H2.35c-1.97,0-3.57-1.6-3.57-3.57v0
		c0-1.97,1.6-3.57,3.57-3.57h10.15c1.97,0,3.57,1.6,3.57,3.57v0C16.07-11.26,14.47-9.66,12.49-9.66z"/>
	<circle fill="#DADADA" stroke="#B2B2B2" stroke-miterlimit="10" cx="1.58" cy="-17.75" r="3.85"/>
	<circle fill="#DADADA" stroke="#B2B2B2" stroke-miterlimit="10" cx="6.02" cy="-19.92" r="4.44"/>
	<circle fill="#DADADA" stroke="#B2B2B2" stroke-miterlimit="10" cx="12.78" cy="-17.1" r="4.15"/>
	<circle fill="#DADADA" stroke="#B2B2B2" stroke-miterlimit="10" cx="5.95" cy="-13.82" r="4.25"/>
	<circle fill="#DADADA" stroke="#B2B2B2" stroke-miterlimit="10" cx="15.48" cy="-14.36" r="4.25"/>
	<circle fill="#DADADA" stroke="#B2B2B2" stroke-miterlimit="10" cx="-0.48" cy="-13.62" r="3.48"/>
</g>
<path fill="#FFED00" stroke="#000000" stroke-miterlimit="10" d="M-33,24.02l3.96-0.03v12.48c0.14-0.02,0.26-0.1,0.34-0.23
	l7.96-13.54c0.19-0.32-0.04-0.72-0.41-0.72l-4.04-0.03V9.41c-0.19-0.03-0.38,0.05-0.49,0.24l-7.75,13.67
	C-33.6,23.63-33.37,24.03-33,24.02z"/>
<path fill="#FFED00" stroke="#000000" stroke-miterlimit="10" d="M-107.32,13.34l3.96-0.03v12.48c0.14-0.02,0.26-0.1,0.34-0.23
	l7.96-13.54c0.19-0.32-0.04-0.72-0.41-0.72l-4.04-0.03V-1.28c-0.19-0.03-0.38,0.05-0.49,0.24l-7.75,13.67
	C-107.93,12.94-107.69,13.34-107.32,13.34z"/>
<path fill="#DADADA" stroke="#B2B2B2" stroke-miterlimit="10" d="M-89.89,13.34l3.96-0.03v12.48c0.14-0.02,0.26-0.1,0.34-0.23
	l7.96-13.54c0.19-0.32-0.04-0.72-0.41-0.72l-4.04-0.03V-1.28c-0.19-0.03-0.38,0.05-0.49,0.24l-7.75,13.67
	C-90.5,12.94-90.26,13.34-89.89,13.34z"/>
<path fill="#DADADA" stroke="#B2B2B2" stroke-miterlimit="10" d="M-73.01,13.34l3.96-0.03v12.48c0.14-0.02,0.26-0.1,0.34-0.23
	l7.96-13.54c0.19-0.32-0.04-0.72-0.41-0.72l-4.04-0.03V-1.28c-0.19-0.03-0.38,0.05-0.49,0.24l-7.75,13.67
	C-73.61,12.94-73.38,13.34-73.01,13.34z"/>
<path fill="#DADADA" stroke="#B2B2B2" stroke-miterlimit="10" d="M1.55,15.81l3.96-0.03v12.48c0.14-0.02,0.26-0.1,0.34-0.23
	l7.96-13.54c0.19-0.32-0.04-0.72-0.41-0.72l-4.04-0.03V1.19C9.18,1.17,8.98,1.25,8.88,1.43L1.13,15.1
	C0.94,15.42,1.18,15.81,1.55,15.81z"/>
<text transform="matrix(1 0 0 1 -47.7042 96.468)" font-family="'AmericanTypewriter-Bold'" font-size="12.4096px">water</text>
<text transform="matrix(1 0 0 1 -61.7743 128.0577)" font-family="'AmericanTypewriter-Bold'" font-size="12.4096px">zonlicht</text>
<text transform="matrix(1 0 0 1 -90.0446 160.7483)" font-family="'AmericanTypewriter-Bold'" font-size="12.4096px">moeilijkheid</text>
<g>
	<g>
		<rect x="65.68" y="71.09" fill="none" width="11.63" height="13.11"/>
	</g>
</g>
<g>
	<g>
		<line fill="none" stroke="#000000" stroke-miterlimit="10" x1="68.94" y1="68.6" x2="68.94" y2="74.6"/>
		<line fill="none" stroke="#000000" stroke-miterlimit="10" x1="68.94" y1="75.71" x2="68.94" y2="81.71"/>
	</g>
</g>
<g>
	
		<line fill="none" stroke="#000000" stroke-miterlimit="10" stroke-dasharray="10.3377" x1="76.94" y1="75.16" x2="68.94" y2="81.71"/>
</g>
<g>
	
		<line fill="none" stroke="#000000" stroke-miterlimit="10" stroke-dasharray="10.3381" x1="68.94" y1="68.6" x2="76.94" y2="75.16"/>
</g>
<g>
	<g>
		
			<line fill="none" stroke="#312783" stroke-miterlimit="10" stroke-dasharray="8.2258" x1="63.38" y1="68.63" x2="70.95" y2="71.84"/>
	</g>
	<g>
		<line fill="none" stroke="#312783" stroke-miterlimit="10" stroke-dasharray="8.2258" x1="71.22" y1="73.79" x2="63.65" y2="77"/>
	</g>
	<circle fill="none" stroke="#312783" stroke-miterlimit="10" cx="72.03" cy="72.76" r="1.08"/>
	<g>
		<g>
			<line fill="none" stroke="#312783" stroke-miterlimit="10" x1="62.86" y1="70.8" x2="56.86" y2="70.8"/>
			<line fill="none" stroke="#312783" stroke-miterlimit="10" x1="55.55" y1="70.8" x2="49.55" y2="70.8"/>
		</g>
	</g>
	<g>
		<g>
			<line fill="none" stroke="#312783" stroke-miterlimit="10" x1="62.66" y1="74.7" x2="56.66" y2="74.7"/>
			<line fill="none" stroke="#312783" stroke-miterlimit="10" x1="55.55" y1="74.7" x2="49.55" y2="74.7"/>
		</g>
	</g>
</g>
</svg>
