<?xml version="1.0" encoding="utf-8"?>
<!-- Generator: Adobe Illustrator 28.1.0, SVG Export Plug-In . SVG Version: 6.00 Build 0)  -->
<svg version="1.1" id="Laag_1" xmlns="http://www.w3.org/2000/svg" xmlns:xlink="http://www.w3.org/1999/xlink" x="0px" y="0px"
	 viewBox="0 0 26.67 22.96" enable-background="new 0 0 26.67 22.96" xml:space="preserve">
<g>
	<path fill="none" stroke="#000000" stroke-width="3" stroke-miterlimit="10" d="M80.51,171.79H-243.2c-11.82,0-21.4-9.58-21.4-21.4
		v-74.1c0-11.82,9.58-21.4,21.4-21.4H80.51c11.82,0,21.4,9.58,21.4,21.4v74.1C101.91,162.21,92.33,171.79,80.51,171.79z"/>
	<path fill="none" stroke="#000000" stroke-width="3" stroke-miterlimit="10" d="M80.51,172.15H-243.2c-11.82,0-21.4-9.58-21.4-21.4
		v-74.1c0-11.82,9.58-21.4,21.4-21.4H80.51c11.82,0,21.4,9.58,21.4,21.4v74.1C101.91,162.57,92.33,172.15,80.51,172.15z"/>
	<circle fill="none" stroke="#000000" stroke-width="3" stroke-miterlimit="10" cx="-209.99" cy="113.7" r="45.16"/>
	<text transform="matrix(1 0 0 1 -175.1016 74.1218)" font-family="'AmericanTypewriter-Bold'" font-size="19px">Plantnaam</text>
	<g>
		<g>
			
				<line fill="none" stroke="#000000" stroke-width="3" stroke-miterlimit="10" x1="-243.44" y1="144.04" x2="-239.02" y2="139.99"/>
			
				<line fill="none" stroke="#000000" stroke-width="3" stroke-miterlimit="10" stroke-dasharray="11.187,11.187" x1="-230.77" y1="132.42" x2="-185.45" y2="90.82"/>
			<line fill="none" stroke="#000000" stroke-width="3" stroke-miterlimit="10" x1="-181.33" y1="87.03" x2="-176.9" y2="82.98"/>
		</g>
	</g>
	<g>
		<g>
			<line fill="none" stroke="#000000" stroke-width="3" stroke-miterlimit="10" x1="-245.65" y1="85.53" x2="-240.96" y2="89.27"/>
			
				<line fill="none" stroke="#000000" stroke-width="3" stroke-miterlimit="10" stroke-dasharray="11.1839,11.1839" x1="-232.23" y1="96.25" x2="-184.16" y2="134.64"/>
			<line fill="none" stroke="#000000" stroke-width="3" stroke-miterlimit="10" x1="-179.79" y1="138.13" x2="-175.1" y2="141.87"/>
		</g>
	</g>
	<rect x="-158.33" y="84.23" fill="none" width="62.14" height="74.77"/>
	<text transform="matrix(1 0 0 1 -158.332 89.612)"><tspan x="0" y="0" font-family="'AmericanTypewriter-Bold'" font-size="8px">Hier komt </tspan><tspan x="0" y="9.6" font-family="'AmericanTypewriter-Bold'" font-size="8px">informatie </tspan><tspan x="0" y="19.2" font-family="'AmericanTypewriter-Bold'" font-size="8px">over bijvoor</tspan><tspan x="48.89" y="19.2" font-family="'AmericanTypewriter-Bold'" font-size="8px">-</tspan><tspan x="0" y="28.8" font-family="'AmericanTypewriter-Bold'" font-size="8px">beld land van </tspan><tspan x="0" y="38.4" font-family="'AmericanTypewriter-Bold'" font-size="8px">oorsprong. Of </tspan><tspan x="0" y="48" font-family="'AmericanTypewriter-Bold'" font-size="8px">waar de plant </tspan><tspan x="0" y="57.6" font-family="'AmericanTypewriter-Bold'" font-size="8px">allemaal te </tspan><tspan x="0" y="67.2" font-family="'AmericanTypewriter-Bold'" font-size="8px">vinden is </tspan></text>
	<g>
		<g id="druppels_00000048486908586893593170000014735733989431353246_">
			<g id="druppel__x28_grijs_x29__00000161628776745094902130000004016714849292852880_">
				<path fill="#DADADA" d="M84.48,89.57c0,3.93-3.19,7.12-7.12,7.12c-3.93,0-7.12-3.19-7.12-7.12s6.81-12.85,6.81-12.85
					S84.48,85.63,84.48,89.57z"/>
				<path fill="#DADADA" stroke="#F6F6F6" stroke-miterlimit="10" d="M72.13,90.66c-0.13,1.81,1.25,3.41,3.06,3.55
					c0.45,0.03,0.91-0.03,1.33-0.17"/>
			</g>
			<g id="druppel_00000157998952096770827000000001083274660296423586_">
				<path fill="#DADADA" d="M68.8,89.57c0,3.93-3.19,7.12-7.12,7.12s-7.12-3.19-7.12-7.12s6.81-12.85,6.81-12.85
					S68.8,85.63,68.8,89.57z"/>
				<path fill="#DADADA" stroke="#F6F6F6" stroke-miterlimit="10" d="M56.45,90.66c-0.13,1.81,1.25,3.41,3.06,3.55
					c0.45,0.03,0.91-0.03,1.33-0.17"/>
			</g>
			<g id="druppel_00000142177999473498385870000006106767161939359407_">
				<path fill="#009FE3" d="M53.01,89.57c0,3.93-3.19,7.12-7.12,7.12s-7.12-3.19-7.12-7.12s6.81-12.85,6.81-12.85
					S53.01,85.63,53.01,89.57z"/>
				<path fill="#009FE3" stroke="#F6F6F6" stroke-miterlimit="10" d="M40.66,90.66c-0.13,1.81,1.25,3.41,3.06,3.55
					c0.45,0.03,0.91-0.03,1.33-0.17"/>
			</g>
			<g id="druppel_00000181054631951297323610000013617573203088376725_">
				<path fill="#009FE3" d="M37.22,89.57c0,3.93-3.19,7.12-7.12,7.12s-7.12-3.19-7.12-7.12s6.81-12.85,6.81-12.85
					S37.22,85.63,37.22,89.57z"/>
				<path fill="#009FE3" stroke="#F6F6F6" stroke-miterlimit="10" d="M24.87,90.66c-0.13,1.81,1.25,3.41,3.06,3.55
					c0.45,0.03,0.91-0.03,1.33-0.17"/>
			</g>
			<g id="druppel_00000057119746680860226770000016501659744054151335_">
				<path fill="#009FE3" d="M21.28,89.57c0,3.93-3.19,7.12-7.12,7.12s-7.12-3.19-7.12-7.12s6.81-12.85,6.81-12.85
					S21.28,85.63,21.28,89.57z"/>
				<path fill="#009FE3" stroke="#F6F6F6" stroke-miterlimit="10" d="M8.93,90.66c-0.13,1.81,1.25,3.41,3.06,3.55
					c0.45,0.03,0.91-0.03,1.33-0.17"/>
			</g>
		</g>
		<g>
			<circle fill="#FFED00" stroke="#000000" stroke-miterlimit="10" cx="101.17" cy="12.96" r="5.07"/>
			<g>
				
					<line fill="none" stroke="#000000" stroke-miterlimit="10" stroke-dasharray="4.4257" x1="101.17" y1="1.55" x2="101.17" y2="5.98"/>
			</g>
			<g>
				
					<line fill="none" stroke="#000000" stroke-miterlimit="10" stroke-dasharray="4.4257" x1="95.46" y1="3.08" x2="97.67" y2="6.91"/>
			</g>
			<g>
				
					<line fill="none" stroke="#000000" stroke-miterlimit="10" stroke-dasharray="4.4257" x1="91.28" y1="7.26" x2="95.12" y2="9.47"/>
			</g>
			<g>
				
					<line fill="none" stroke="#000000" stroke-miterlimit="10" stroke-dasharray="4.4257" x1="89.76" y1="12.96" x2="94.18" y2="12.96"/>
			</g>
			<g>
				
					<line fill="none" stroke="#000000" stroke-miterlimit="10" stroke-dasharray="4.4257" x1="91.28" y1="18.67" x2="95.12" y2="16.45"/>
			</g>
			<g>
				
					<line fill="none" stroke="#000000" stroke-miterlimit="10" stroke-dasharray="4.4257" x1="95.46" y1="22.84" x2="97.67" y2="19.01"/>
			</g>
			<g>
				
					<line fill="none" stroke="#000000" stroke-miterlimit="10" stroke-dasharray="4.4257" x1="101.17" y1="24.37" x2="101.17" y2="19.95"/>
			</g>
			<g>
				
					<line fill="none" stroke="#000000" stroke-miterlimit="10" stroke-dasharray="4.4257" x1="106.87" y1="22.84" x2="104.66" y2="19.01"/>
			</g>
			<g>
				
					<line fill="none" stroke="#000000" stroke-miterlimit="10" stroke-dasharray="4.4257" x1="111.05" y1="18.67" x2="107.22" y2="16.45"/>
			</g>
			<g>
				
					<line fill="none" stroke="#000000" stroke-miterlimit="10" stroke-dasharray="4.4257" x1="112.58" y1="12.96" x2="108.15" y2="12.96"/>
			</g>
			<g>
				
					<line fill="none" stroke="#000000" stroke-miterlimit="10" stroke-dasharray="4.4257" x1="111.05" y1="7.26" x2="107.22" y2="9.47"/>
			</g>
			<g>
				
					<line fill="none" stroke="#000000" stroke-miterlimit="10" stroke-dasharray="4.4257" x1="106.87" y1="3.08" x2="104.66" y2="6.91"/>
			</g>
		</g>
		<g>
			<path fill="#FFFFFF" stroke="#000000" stroke-miterlimit="10" d="M73.32,24.29H63.18c-1.97,0-3.57-1.6-3.57-3.57v0
				c0-1.97,1.6-3.57,3.57-3.57h10.15c1.97,0,3.57,1.6,3.57,3.57v0C76.9,22.69,75.3,24.29,73.32,24.29z"/>
			<g>
				
					<line fill="none" stroke="#000000" stroke-miterlimit="10" stroke-dasharray="3.5812" x1="62.58" y1="11.21" x2="66.17" y2="11.21"/>
			</g>
			<circle fill="#FFED00" stroke="#000000" stroke-miterlimit="10" cx="73.79" cy="11.21" r="6.18"/>
			<circle fill="#FFFFFF" stroke="#000000" stroke-miterlimit="10" cx="62.41" cy="16.2" r="3.85"/>
			<circle fill="#FFFFFF" stroke="#000000" stroke-miterlimit="10" cx="66.85" cy="14.02" r="4.44"/>
			<circle fill="#FFFFFF" stroke="#000000" stroke-miterlimit="10" cx="73.61" cy="16.84" r="4.15"/>
			<circle fill="#FFFFFF" stroke="#000000" stroke-miterlimit="10" cx="66.78" cy="20.12" r="4.25"/>
			<circle fill="#FFFFFF" stroke="#000000" stroke-miterlimit="10" cx="76.31" cy="19.59" r="4.25"/>
			<circle fill="#FFFFFF" stroke="#000000" stroke-miterlimit="10" cx="60.35" cy="20.32" r="3.48"/>
			<g>
				<line fill="none" stroke="#000000" stroke-miterlimit="10" stroke-dasharray="3.5812" x1="73.79" y1="0" x2="73.79" y2="3.58"/>
			</g>
			<g>
				
					<line fill="none" stroke="#000000" stroke-miterlimit="10" stroke-dasharray="3.5812" x1="68.19" y1="1.5" x2="69.98" y2="4.6"/>
			</g>
			<g>
				
					<line fill="none" stroke="#000000" stroke-miterlimit="10" stroke-dasharray="3.5812" x1="64.09" y1="5.6" x2="67.19" y2="7.4"/>
			</g>
			<g>
				
					<line fill="none" stroke="#000000" stroke-miterlimit="10" stroke-dasharray="3.5812" x1="83.5" y1="16.81" x2="80.4" y2="15.02"/>
			</g>
			<g>
				
					<line fill="none" stroke="#000000" stroke-miterlimit="10" stroke-dasharray="3.5812" x1="85" y1="11.21" x2="81.42" y2="11.21"/>
			</g>
			<g>
				<line fill="none" stroke="#000000" stroke-miterlimit="10" stroke-dasharray="3.5812" x1="83.5" y1="5.6" x2="80.4" y2="7.4"/>
			</g>
			<g>
				<line fill="none" stroke="#000000" stroke-miterlimit="10" stroke-dasharray="3.5812" x1="79.4" y1="1.5" x2="77.61" y2="4.6"/>
			</g>
		</g>
		<g>
			<path fill="#DADADA" stroke="#B2B2B2" stroke-miterlimit="10" d="M17.93,18.52H7.78c-1.97,0-3.57-1.6-3.57-3.57v0
				c0-1.97,1.6-3.57,3.57-3.57h10.15c1.97,0,3.57,1.6,3.57,3.57v0C21.5,16.92,19.9,18.52,17.93,18.52z"/>
			<circle fill="#DADADA" stroke="#B2B2B2" stroke-miterlimit="10" cx="7.01" cy="10.43" r="3.85"/>
			<circle fill="#DADADA" stroke="#B2B2B2" stroke-miterlimit="10" cx="11.45" cy="8.26" r="4.44"/>
			<circle fill="#DADADA" stroke="#B2B2B2" stroke-miterlimit="10" cx="18.21" cy="11.07" r="4.15"/>
			<circle fill="#DADADA" stroke="#B2B2B2" stroke-miterlimit="10" cx="11.38" cy="14.35" r="4.25"/>
			<circle fill="#DADADA" stroke="#B2B2B2" stroke-miterlimit="10" cx="20.91" cy="13.82" r="4.25"/>
			<circle fill="#DADADA" stroke="#B2B2B2" stroke-miterlimit="10" cx="4.96" cy="14.55" r="3.48"/>
		</g>
		<g>
			<path fill="#FFED00" stroke="#000000" stroke-miterlimit="10" d="M5.9,152.07l3.96-0.03v12.48c0.14-0.02,0.26-0.1,0.34-0.23
				l7.96-13.54c0.19-0.32-0.04-0.72-0.41-0.72l-4.04-0.03v-12.54c-0.19-0.03-0.38,0.05-0.49,0.24l-7.75,13.67
				C5.3,151.67,5.53,152.07,5.9,152.07z"/>
			<path fill="#FFED00" stroke="#000000" stroke-miterlimit="10" d="M22.54,151.03L26.5,151v12.48c0.14-0.02,0.26-0.1,0.34-0.23
				l7.96-13.54c0.19-0.32-0.04-0.72-0.41-0.72l-4.04-0.03v-12.54c-0.19-0.03-0.38,0.05-0.49,0.24l-7.75,13.67
				C21.94,150.64,22.17,151.03,22.54,151.03z"/>
			<path fill="#DADADA" stroke="#B2B2B2" stroke-miterlimit="10" d="M39.97,151.03l3.96-0.03v12.48c0.14-0.02,0.26-0.1,0.34-0.23
				l7.96-13.54c0.19-0.32-0.04-0.72-0.41-0.72l-4.04-0.03v-12.54c-0.19-0.03-0.38,0.05-0.49,0.24l-7.75,13.67
				C39.37,150.64,39.6,151.03,39.97,151.03z"/>
			<path fill="#DADADA" stroke="#B2B2B2" stroke-miterlimit="10" d="M56.85,151.03l3.96-0.03v12.48c0.14-0.02,0.26-0.1,0.34-0.23
				l7.96-13.54c0.19-0.32-0.04-0.72-0.41-0.72l-4.04-0.03v-12.54c-0.19-0.03-0.38,0.05-0.49,0.24l-7.75,13.67
				C56.25,150.64,56.49,151.03,56.85,151.03z"/>
			<path fill="#DADADA" stroke="#B2B2B2" stroke-miterlimit="10" d="M73.85,151.03l3.96-0.03v12.48c0.14-0.02,0.26-0.1,0.34-0.23
				l7.96-13.54c0.19-0.32-0.04-0.72-0.41-0.72l-4.04-0.03v-12.54c-0.19-0.03-0.38,0.05-0.49,0.24l-7.75,13.67
				C73.25,150.64,73.48,151.03,73.85,151.03z"/>
		</g>
		<text transform="matrix(1 0 0 1 -38.7861 89.2001)" font-family="'AmericanTypewriter-Bold'" font-size="12.4096px">water</text>
		<text transform="matrix(1 0 0 1 -52.8562 120.7898)" font-family="'AmericanTypewriter-Bold'" font-size="12.4096px">zonlicht</text>
		<text transform="matrix(1 0 0 1 -81.1265 153.4804)" font-family="'AmericanTypewriter-Bold'" font-size="12.4096px">moeilijkheid</text>
	</g>
	<g>
		<g>
			<rect x="74.59" y="63.83" fill="none" width="11.63" height="13.11"/>
		</g>
	</g>
	<g>
		<g>
			<line fill="none" stroke="#000000" stroke-miterlimit="10" x1="77.86" y1="61.34" x2="77.86" y2="67.34"/>
			<line fill="none" stroke="#000000" stroke-miterlimit="10" x1="77.86" y1="68.44" x2="77.86" y2="74.44"/>
		</g>
	</g>
	<g>
		
			<line fill="none" stroke="#000000" stroke-miterlimit="10" stroke-dasharray="10.3377" x1="85.85" y1="67.89" x2="77.86" y2="74.44"/>
	</g>
	<g>
		
			<line fill="none" stroke="#000000" stroke-miterlimit="10" stroke-dasharray="10.3381" x1="77.86" y1="61.34" x2="85.85" y2="67.89"/>
	</g>
	<g>
		<g>
			
				<line fill="none" stroke="#312783" stroke-miterlimit="10" stroke-dasharray="8.2258" x1="72.29" y1="61.36" x2="79.87" y2="64.57"/>
		</g>
		<g>
			
				<line fill="none" stroke="#312783" stroke-miterlimit="10" stroke-dasharray="8.2258" x1="80.14" y1="66.52" x2="72.56" y2="69.74"/>
		</g>
		<circle fill="none" stroke="#312783" stroke-miterlimit="10" cx="80.95" cy="65.49" r="1.08"/>
		<g>
			<g>
				<line fill="none" stroke="#312783" stroke-miterlimit="10" x1="71.78" y1="63.53" x2="65.78" y2="63.53"/>
				<line fill="none" stroke="#312783" stroke-miterlimit="10" x1="64.47" y1="63.53" x2="58.47" y2="63.53"/>
			</g>
		</g>
		<g>
			<g>
				<line fill="none" stroke="#312783" stroke-miterlimit="10" x1="71.58" y1="67.43" x2="65.58" y2="67.43"/>
				<line fill="none" stroke="#312783" stroke-miterlimit="10" x1="64.47" y1="67.43" x2="58.47" y2="67.43"/>
			</g>
		</g>
	</g>
</g>
</svg>
