<?xml version="1.0" encoding="utf-8"?>
<!-- Generator: Adobe Illustrator 28.1.0, SVG Export Plug-In . SVG Version: 6.00 Build 0)  -->
<svg version="1.1" id="Laag_1" xmlns="http://www.w3.org/2000/svg" xmlns:xlink="http://www.w3.org/1999/xlink" x="0px" y="0px"
	 viewBox="0 0 18.85 22.96" enable-background="new 0 0 18.85 22.96" xml:space="preserve">
<g id="druppel__x28_grijs_x29__00000092420785157848221220000001653088197177044145_">
	<path fill="#DADADA" d="M101.43,50.12c0,3.93-3.19,7.12-7.12,7.12s-7.12-3.19-7.12-7.12s6.81-12.85,6.81-12.85
		S101.43,46.19,101.43,50.12z"/>
	<path fill="#DADADA" stroke="#F6F6F6" stroke-miterlimit="10" d="M89.07,51.22c-0.13,1.81,1.25,3.41,3.06,3.55
		c0.45,0.03,0.91-0.03,1.33-0.17"/>
</g>
<g id="druppel_00000146484620709764125070000017051474058803480732_">
	<path fill="#DADADA" d="M85.75,50.12c0,3.93-3.19,7.12-7.12,7.12c-3.93,0-7.12-3.19-7.12-7.12s6.81-12.85,6.81-12.85
		S85.75,46.19,85.75,50.12z"/>
	<path fill="#DADADA" stroke="#F6F6F6" stroke-miterlimit="10" d="M73.4,51.22c-0.13,1.81,1.25,3.41,3.06,3.55
		c0.45,0.03,0.91-0.03,1.33-0.17"/>
</g>
<g id="druppel_00000145036410012814404760000012718780448493993113_">
	<path fill="#DADADA" d="M69.96,50.12c0,3.93-3.19,7.12-7.12,7.12s-7.12-3.19-7.12-7.12s6.81-12.85,6.81-12.85
		S69.96,46.19,69.96,50.12z"/>
	<path fill="#DADADA" stroke="#F6F6F6" stroke-miterlimit="10" d="M57.6,51.22c-0.13,1.81,1.25,3.41,3.06,3.55
		c0.45,0.03,0.91-0.03,1.33-0.17"/>
</g>
<g id="druppel_00000115504743379325096370000016539885234564328324_">
	<path fill="#DADADA" d="M16.55,14.35c0,3.93-3.19,7.12-7.12,7.12s-7.12-3.19-7.12-7.12S9.12,1.5,9.12,1.5S16.55,10.42,16.55,14.35z
		"/>
	<path fill="#DADADA" stroke="#F6F6F6" stroke-miterlimit="10" d="M4.19,15.44c-0.13,1.81,1.25,3.41,3.06,3.55
		c0.45,0.03,0.91-0.03,1.33-0.17"/>
</g>
<g id="druppel_00000096039755935346942810000010415335647183716497_">
	<path fill="#009FE3" d="M-27.52,25.83c0,3.93-3.19,7.12-7.12,7.12s-7.12-3.19-7.12-7.12s6.81-12.85,6.81-12.85
		S-27.52,21.9-27.52,25.83z"/>
	<path fill="#009FE3" stroke="#F6F6F6" stroke-miterlimit="10" d="M-39.88,26.92c-0.13,1.81,1.25,3.41,3.06,3.55
		c0.45,0.03,0.91-0.03,1.33-0.17"/>
</g>
<text transform="matrix(1 0 0 1 -90.0437 45.3869)" font-family="'AmericanTypewriter-Bold'" font-size="12.4096px">water</text>
</svg>
