<?xml version="1.0" encoding="utf-8"?>
<!-- Generator: Adobe Illustrator 28.1.0, SVG Export Plug-In . SVG Version: 6.00 Build 0)  -->
<svg version="1.1" id="Laag_1" xmlns="http://www.w3.org/2000/svg" xmlns:xlink="http://www.w3.org/1999/xlink" x="0px" y="0px"
	 viewBox="0 0 15.18 29.55" enable-background="new 0 0 15.18 29.55" xml:space="preserve">
<path fill="none" stroke="#000000" stroke-width="3" stroke-miterlimit="10" d="M71.83,171.97h-323.72c-11.82,0-21.4-9.58-21.4-21.4
	v-74.1c0-11.82,9.58-21.4,21.4-21.4H71.83c11.82,0,21.4,9.58,21.4,21.4v74.1C93.23,162.39,83.65,171.97,71.83,171.97z"/>
<path fill="none" stroke="#000000" stroke-width="3" stroke-miterlimit="10" d="M71.83,172.32h-323.72c-11.82,0-21.4-9.58-21.4-21.4
	v-74.1c0-11.82,9.58-21.4,21.4-21.4H71.83c11.82,0,21.4,9.58,21.4,21.4v74.1C93.23,162.74,83.65,172.32,71.83,172.32z"/>
<circle fill="none" stroke="#000000" stroke-width="3" stroke-miterlimit="10" cx="-218.67" cy="113.87" r="45.16"/>
<text transform="matrix(1 0 0 1 -183.7813 74.2966)" font-family="'AmericanTypewriter-Bold'" font-size="19px">Plantnaam</text>
<g>
	<g>
		<line fill="none" stroke="#000000" stroke-width="3" stroke-miterlimit="10" x1="-252.12" y1="144.22" x2="-247.7" y2="140.16"/>
		
			<line fill="none" stroke="#000000" stroke-width="3" stroke-miterlimit="10" stroke-dasharray="11.187,11.187" x1="-239.45" y1="132.6" x2="-194.13" y2="90.99"/>
		<line fill="none" stroke="#000000" stroke-width="3" stroke-miterlimit="10" x1="-190" y1="87.21" x2="-185.58" y2="83.15"/>
	</g>
</g>
<g>
	<g>
		<line fill="none" stroke="#000000" stroke-width="3" stroke-miterlimit="10" x1="-254.33" y1="85.7" x2="-249.64" y2="89.45"/>
		
			<line fill="none" stroke="#000000" stroke-width="3" stroke-miterlimit="10" stroke-dasharray="11.1839,11.1839" x1="-240.9" y1="96.43" x2="-192.84" y2="134.81"/>
		<line fill="none" stroke="#000000" stroke-width="3" stroke-miterlimit="10" x1="-188.47" y1="138.3" x2="-183.78" y2="142.04"/>
	</g>
</g>
<rect x="-167.01" y="84.4" fill="none" width="62.14" height="74.77"/>
<text transform="matrix(1 0 0 1 -167.0117 89.7869)"><tspan x="0" y="0" font-family="'AmericanTypewriter-Bold'" font-size="8px">Hier komt </tspan><tspan x="0" y="9.6" font-family="'AmericanTypewriter-Bold'" font-size="8px">informatie </tspan><tspan x="0" y="19.2" font-family="'AmericanTypewriter-Bold'" font-size="8px">over bijvoor</tspan><tspan x="48.89" y="19.2" font-family="'AmericanTypewriter-Bold'" font-size="8px">-</tspan><tspan x="0" y="28.8" font-family="'AmericanTypewriter-Bold'" font-size="8px">beld land van </tspan><tspan x="0" y="38.4" font-family="'AmericanTypewriter-Bold'" font-size="8px">oorsprong. Of </tspan><tspan x="0" y="48" font-family="'AmericanTypewriter-Bold'" font-size="8px">waar de plant </tspan><tspan x="0" y="57.6" font-family="'AmericanTypewriter-Bold'" font-size="8px">allemaal te </tspan><tspan x="0" y="67.2" font-family="'AmericanTypewriter-Bold'" font-size="8px">vinden is </tspan></text>
<g id="druppels_00000048486908586893593170000014735733989431353246_">
	<g id="druppel__x28_grijs_x29__00000161628776745094902130000004016714849292852880_">
		<path fill="#DADADA" d="M75.8,89.74c0,3.93-3.19,7.12-7.12,7.12c-3.93,0-7.12-3.19-7.12-7.12s6.81-12.85,6.81-12.85
			S75.8,85.81,75.8,89.74z"/>
		<path fill="#DADADA" stroke="#F6F6F6" stroke-miterlimit="10" d="M63.45,90.84c-0.13,1.81,1.25,3.41,3.06,3.55
			c0.45,0.03,0.91-0.03,1.33-0.17"/>
	</g>
	<g id="druppel_00000157998952096770827000000001083274660296423586_">
		<path fill="#DADADA" d="M60.13,89.74c0,3.93-3.19,7.12-7.12,7.12s-7.12-3.19-7.12-7.12s6.81-12.85,6.81-12.85
			S60.13,85.81,60.13,89.74z"/>
		<path fill="#DADADA" stroke="#F6F6F6" stroke-miterlimit="10" d="M47.77,90.84c-0.13,1.81,1.25,3.41,3.06,3.55
			c0.45,0.03,0.91-0.03,1.33-0.17"/>
	</g>
	<g id="druppel_00000142177999473498385870000006106767161939359407_">
		<path fill="#009FE3" d="M44.33,89.74c0,3.93-3.19,7.12-7.12,7.12s-7.12-3.19-7.12-7.12s6.81-12.85,6.81-12.85
			S44.33,85.81,44.33,89.74z"/>
		<path fill="#009FE3" stroke="#F6F6F6" stroke-miterlimit="10" d="M31.98,90.84c-0.13,1.81,1.25,3.41,3.06,3.55
			c0.45,0.03,0.91-0.03,1.33-0.17"/>
	</g>
	<g id="druppel_00000181054631951297323610000013617573203088376725_">
		<path fill="#009FE3" d="M28.54,89.74c0,3.93-3.19,7.12-7.12,7.12s-7.12-3.19-7.12-7.12s6.81-12.85,6.81-12.85
			S28.54,85.81,28.54,89.74z"/>
		<path fill="#009FE3" stroke="#F6F6F6" stroke-miterlimit="10" d="M16.19,90.84c-0.13,1.81,1.25,3.41,3.06,3.55
			c0.45,0.03,0.91-0.03,1.33-0.17"/>
	</g>
	<g id="druppel_00000057119746680860226770000016501659744054151335_">
		<path fill="#009FE3" d="M12.6,89.74c0,3.93-3.19,7.12-7.12,7.12s-7.12-3.19-7.12-7.12s6.81-12.85,6.81-12.85
			S12.6,85.81,12.6,89.74z"/>
		<path fill="#009FE3" stroke="#F6F6F6" stroke-miterlimit="10" d="M0.25,90.84c-0.13,1.81,1.25,3.41,3.06,3.55
			c0.45,0.03,0.91-0.03,1.33-0.17"/>
	</g>
</g>
<g>
	<circle fill="#FFED00" stroke="#000000" stroke-miterlimit="10" cx="77.54" cy="-36.76" r="5.07"/>
	<g>
		
			<line fill="none" stroke="#000000" stroke-miterlimit="10" stroke-dasharray="4.4257" x1="77.54" y1="-48.17" x2="77.54" y2="-43.75"/>
	</g>
	<g>
		
			<line fill="none" stroke="#000000" stroke-miterlimit="10" stroke-dasharray="4.4257" x1="71.84" y1="-46.64" x2="74.05" y2="-42.81"/>
	</g>
	<g>
		
			<line fill="none" stroke="#000000" stroke-miterlimit="10" stroke-dasharray="4.4257" x1="67.66" y1="-42.47" x2="71.49" y2="-40.25"/>
	</g>
	<g>
		
			<line fill="none" stroke="#000000" stroke-miterlimit="10" stroke-dasharray="4.4257" x1="66.13" y1="-36.76" x2="70.56" y2="-36.76"/>
	</g>
	<g>
		
			<line fill="none" stroke="#000000" stroke-miterlimit="10" stroke-dasharray="4.4257" x1="67.66" y1="-31.06" x2="71.49" y2="-33.27"/>
	</g>
	<g>
		
			<line fill="none" stroke="#000000" stroke-miterlimit="10" stroke-dasharray="4.4257" x1="71.84" y1="-26.88" x2="74.05" y2="-30.71"/>
	</g>
	<g>
		
			<line fill="none" stroke="#000000" stroke-miterlimit="10" stroke-dasharray="4.4257" x1="77.54" y1="-25.35" x2="77.54" y2="-29.78"/>
	</g>
	<g>
		
			<line fill="none" stroke="#000000" stroke-miterlimit="10" stroke-dasharray="4.4257" x1="83.25" y1="-26.88" x2="81.03" y2="-30.71"/>
	</g>
	<g>
		
			<line fill="none" stroke="#000000" stroke-miterlimit="10" stroke-dasharray="4.4257" x1="87.42" y1="-31.06" x2="83.59" y2="-33.27"/>
	</g>
	<g>
		
			<line fill="none" stroke="#000000" stroke-miterlimit="10" stroke-dasharray="4.4257" x1="88.95" y1="-36.76" x2="84.53" y2="-36.76"/>
	</g>
	<g>
		
			<line fill="none" stroke="#000000" stroke-miterlimit="10" stroke-dasharray="4.4257" x1="87.42" y1="-42.47" x2="83.59" y2="-40.25"/>
	</g>
	<g>
		
			<line fill="none" stroke="#000000" stroke-miterlimit="10" stroke-dasharray="4.4257" x1="83.25" y1="-46.64" x2="81.03" y2="-42.81"/>
	</g>
</g>
<g>
	<path fill="#FFFFFF" stroke="#000000" stroke-miterlimit="10" d="M49.51-18.97H39.36c-1.97,0-3.57-1.6-3.57-3.57v0
		c0-1.97,1.6-3.57,3.57-3.57h10.15c1.97,0,3.57,1.6,3.57,3.57v0C53.08-20.57,51.48-18.97,49.51-18.97z"/>
	<g>
		
			<line fill="none" stroke="#000000" stroke-miterlimit="10" stroke-dasharray="3.5812" x1="38.77" y1="-32.05" x2="42.35" y2="-32.05"/>
	</g>
	<circle fill="#FFED00" stroke="#000000" stroke-miterlimit="10" cx="49.98" cy="-32.05" r="6.18"/>
	<circle fill="#FFFFFF" stroke="#000000" stroke-miterlimit="10" cx="38.59" cy="-27.06" r="3.85"/>
	<circle fill="#FFFFFF" stroke="#000000" stroke-miterlimit="10" cx="43.03" cy="-29.24" r="4.44"/>
	<circle fill="#FFFFFF" stroke="#000000" stroke-miterlimit="10" cx="49.8" cy="-26.42" r="4.15"/>
	<circle fill="#FFFFFF" stroke="#000000" stroke-miterlimit="10" cx="42.96" cy="-23.14" r="4.25"/>
	<circle fill="#FFFFFF" stroke="#000000" stroke-miterlimit="10" cx="52.49" cy="-23.67" r="4.25"/>
	<circle fill="#FFFFFF" stroke="#000000" stroke-miterlimit="10" cx="36.54" cy="-22.94" r="3.48"/>
	<g>
		
			<line fill="none" stroke="#000000" stroke-miterlimit="10" stroke-dasharray="3.5812" x1="49.98" y1="-43.26" x2="49.98" y2="-39.68"/>
	</g>
	<g>
		
			<line fill="none" stroke="#000000" stroke-miterlimit="10" stroke-dasharray="3.5812" x1="44.38" y1="-41.76" x2="46.17" y2="-38.66"/>
	</g>
	<g>
		
			<line fill="none" stroke="#000000" stroke-miterlimit="10" stroke-dasharray="3.5812" x1="40.27" y1="-37.66" x2="43.37" y2="-35.87"/>
	</g>
	<g>
		
			<line fill="none" stroke="#000000" stroke-miterlimit="10" stroke-dasharray="3.5812" x1="59.69" y1="-26.45" x2="56.59" y2="-28.24"/>
	</g>
	<g>
		
			<line fill="none" stroke="#000000" stroke-miterlimit="10" stroke-dasharray="3.5812" x1="61.19" y1="-32.05" x2="57.61" y2="-32.05"/>
	</g>
	<g>
		
			<line fill="none" stroke="#000000" stroke-miterlimit="10" stroke-dasharray="3.5812" x1="59.69" y1="-37.66" x2="56.59" y2="-35.87"/>
	</g>
	<g>
		
			<line fill="none" stroke="#000000" stroke-miterlimit="10" stroke-dasharray="3.5812" x1="55.59" y1="-41.76" x2="53.8" y2="-38.66"/>
	</g>
</g>
<g>
	<path fill="#DADADA" stroke="#B2B2B2" stroke-miterlimit="10" d="M12.73-16.75H2.59c-1.97,0-3.57-1.6-3.57-3.57v0
		c0-1.97,1.6-3.57,3.57-3.57h10.15c1.97,0,3.57,1.6,3.57,3.57v0C16.31-18.35,14.71-16.75,12.73-16.75z"/>
	<circle fill="#DADADA" stroke="#B2B2B2" stroke-miterlimit="10" cx="1.82" cy="-24.84" r="3.85"/>
	<circle fill="#DADADA" stroke="#B2B2B2" stroke-miterlimit="10" cx="6.26" cy="-27.01" r="4.44"/>
	<circle fill="#DADADA" stroke="#B2B2B2" stroke-miterlimit="10" cx="13.02" cy="-24.2" r="4.15"/>
	<circle fill="#DADADA" stroke="#B2B2B2" stroke-miterlimit="10" cx="6.19" cy="-20.92" r="4.25"/>
	<circle fill="#DADADA" stroke="#B2B2B2" stroke-miterlimit="10" cx="15.71" cy="-21.45" r="4.25"/>
	<circle fill="#DADADA" stroke="#B2B2B2" stroke-miterlimit="10" cx="-0.24" cy="-20.71" r="3.48"/>
</g>
<path fill="#FFED00" stroke="#000000" stroke-miterlimit="10" d="M-107.09,6.25l3.96-0.03V18.7c0.14-0.02,0.26-0.1,0.34-0.23
	l7.96-13.54c0.19-0.32-0.04-0.72-0.41-0.72l-4.04-0.03V-8.37c-0.19-0.03-0.38,0.05-0.49,0.24l-7.75,13.67
	C-107.69,5.85-107.45,6.25-107.09,6.25z"/>
<path fill="#DADADA" stroke="#B2B2B2" stroke-miterlimit="10" d="M-89.65,6.25l3.96-0.03V18.7c0.14-0.02,0.26-0.1,0.34-0.23
	l7.96-13.54C-77.2,4.6-77.43,4.2-77.8,4.2l-4.04-0.03V-8.37c-0.19-0.03-0.38,0.05-0.49,0.24l-7.75,13.67
	C-90.26,5.85-90.02,6.25-89.65,6.25z"/>
<path fill="#DADADA" stroke="#B2B2B2" stroke-miterlimit="10" d="M-35.74,28.99l3.96-0.03v12.48c0.14-0.02,0.26-0.1,0.34-0.23
	l7.96-13.54c0.19-0.32-0.04-0.72-0.41-0.72l-4.04-0.03V14.37c-0.19-0.03-0.38,0.05-0.49,0.24l-7.75,13.67
	C-36.34,28.6-36.11,28.99-35.74,28.99z"/>
<text transform="matrix(1 0 0 1 -47.4657 89.3749)" font-family="'AmericanTypewriter-Bold'" font-size="12.4096px">water</text>
<text transform="matrix(1 0 0 1 -61.5358 120.9647)" font-family="'AmericanTypewriter-Bold'" font-size="12.4096px">zonlicht</text>
<text transform="matrix(1 0 0 1 -89.8061 153.6553)" font-family="'AmericanTypewriter-Bold'" font-size="12.4096px">moeilijkheid</text>
<g>
	<g>
		<rect x="65.91" y="64" fill="none" width="11.63" height="13.11"/>
	</g>
</g>
<g>
	
		<line fill="none" stroke="#000000" stroke-linecap="round" stroke-linejoin="bevel" stroke-miterlimit="10" x1="-51.59" y1="-34.48" x2="-51.59" y2="-21.37"/>
	<g>
		
			<line fill="none" stroke="#000000" stroke-linecap="round" stroke-linejoin="bevel" stroke-dasharray="10.3377" x1="-43.59" y1="-27.92" x2="-51.59" y2="-21.37"/>
	</g>
	<g>
		
			<line fill="none" stroke="#000000" stroke-linecap="round" stroke-linejoin="bevel" stroke-dasharray="10.3381" x1="-51.59" y1="-34.48" x2="-43.59" y2="-27.92"/>
	</g>
</g>
<g>
	<g>
		<g>
			<path fill="#C6C6C6" stroke="#B2B2B2" stroke-miterlimit="10" d="M13.6,14.89L7.26,25.67V4.32l1.41-2.49
				c0.1-0.18,0.3-0.26,0.49-0.23v12.54l4.03,0.03C13.56,14.17,13.79,14.57,13.6,14.89z"/>
			<path fill="#FFED00" stroke="#000000" stroke-miterlimit="10" d="M7.26,4.32v21.35l-1.62,2.76c-0.08,0.14-0.2,0.22-0.34,0.24
				V16.18l-3.96,0.03c-0.37,0.01-0.6-0.39-0.42-0.71L7.26,4.32z"/>
		</g>
		
			<line fill="none" stroke="#B2B2B2" stroke-width="0.5" stroke-linecap="round" stroke-miterlimit="10" x1="7.26" y1="4.32" x2="7.26" y2="25.67"/>
	</g>
	
		<line fill="none" stroke="#B2B2B2" stroke-width="0.5" stroke-linecap="round" stroke-miterlimit="10" x1="7.82" y1="3.25" x2="7.26" y2="4.32"/>
	
		<line fill="none" stroke="#B2B2B2" stroke-width="0.5" stroke-linecap="round" stroke-miterlimit="10" x1="7.92" y1="24.54" x2="7.26" y2="25.67"/>
</g>
</svg>
