<?xml version="1.0" encoding="utf-8"?>
<!-- Generator: Adobe Illustrator 28.1.0, SVG Export Plug-In . SVG Version: 6.00 Build 0)  -->
<svg version="1.1" id="Laag_1" xmlns="http://www.w3.org/2000/svg" xmlns:xlink="http://www.w3.org/1999/xlink" x="0px" y="0px"
	 viewBox="0 0 18.73 24.73" enable-background="new 0 0 18.73 24.73" xml:space="preserve">
<g>
	<path fill="none" stroke="#1D1D1B" stroke-linecap="round" stroke-miterlimit="10" d="M62.64,92.97c0,0.34-0.28,0.62-0.62,0.62
		s-0.62-0.28-0.62-0.62c0-0.35,0.28-0.62,0.62-0.62S62.64,92.62,62.64,92.97z"/>
	<path fill="none" stroke="#1D1D1B" stroke-linecap="round" stroke-miterlimit="10" d="M61.88,91.56c0-0.34,0.28-0.62,0.62-0.62
		c0.06,0,0.12,0.01,0.18,0.03c-0.03-0.07-0.04-0.14-0.04-0.21c0-0.34,0.28-0.62,0.62-0.62c0.34,0,0.62,0.28,0.62,0.62
		c0,0.35-0.28,0.62-0.62,0.62c-0.06,0-0.12-0.01-0.18-0.03c0.03,0.06,0.04,0.13,0.04,0.2c0,0.34-0.28,0.62-0.62,0.62
		C62.16,92.18,61.88,91.9,61.88,91.56z"/>
	<path fill="none" stroke="#1D1D1B" stroke-linecap="round" stroke-miterlimit="10" d="M63.44,93.11c-0.34,0-0.62-0.28-0.62-0.62
		c0-0.34,0.28-0.62,0.62-0.62c0.34,0,0.62,0.28,0.62,0.62C64.06,92.83,63.78,93.11,63.44,93.11z"/>
	<path fill="none" stroke="#1D1D1B" stroke-linecap="round" stroke-miterlimit="10" d="M64.51,93.96c0,0.34-0.28,0.62-0.62,0.62
		c-0.35,0-0.62-0.28-0.62-0.62c0-0.35,0.28-0.62,0.62-0.62C64.23,93.33,64.51,93.61,64.51,93.96z"/>
	<path fill="none" stroke="#1D1D1B" stroke-linecap="round" stroke-miterlimit="10" d="M63.89,90.04c0-0.35,0.28-0.62,0.62-0.62
		c0.34,0,0.62,0.28,0.62,0.62c0,0.34-0.28,0.62-0.62,0.62C64.17,90.66,63.89,90.39,63.89,90.04z"/>
	<path fill="none" stroke="#1D1D1B" stroke-linecap="round" stroke-miterlimit="10" d="M65.04,92.38c-0.35,0-0.62-0.28-0.62-0.62
		c0-0.34,0.28-0.62,0.62-0.62c0.34,0,0.62,0.28,0.62,0.62C65.66,92.1,65.38,92.38,65.04,92.38z"/>
	<path fill="none" stroke="#1D1D1B" stroke-linecap="round" stroke-miterlimit="10" d="M66.1,93.33c0,0.34-0.28,0.62-0.62,0.62
		c-0.34,0-0.62-0.28-0.62-0.62c0-0.34,0.28-0.62,0.62-0.62C65.82,92.71,66.1,92.99,66.1,93.33z"/>
	<path fill="none" stroke="#1D1D1B" stroke-linecap="round" stroke-miterlimit="10" d="M65.31,89.39c0-0.35,0.28-0.62,0.62-0.62
		c0.34,0,0.62,0.28,0.62,0.62c0,0.34-0.28,0.62-0.62,0.62C65.6,90.01,65.31,89.74,65.31,89.39z"/>
	<path fill="none" stroke="#1D1D1B" stroke-linecap="round" stroke-miterlimit="10" d="M65.31,87.91c0-0.34,0.28-0.62,0.62-0.62
		c0.34,0,0.62,0.28,0.62,0.62c0,0.35-0.28,0.62-0.62,0.62C65.6,88.53,65.31,88.25,65.31,87.91z"/>
	<path fill="none" stroke="#1D1D1B" stroke-linecap="round" stroke-miterlimit="10" d="M66.92,90.56c0.21,0.27,0.16,0.66-0.12,0.87
		c-0.27,0.21-0.67,0.16-0.87-0.12c-0.21-0.27-0.16-0.66,0.12-0.87C66.32,90.23,66.71,90.28,66.92,90.56z"/>
	<path fill="none" stroke="#1D1D1B" stroke-linecap="round" stroke-miterlimit="10" d="M66.28,87.03c0-0.34,0.28-0.62,0.62-0.62
		c0.34,0,0.62,0.28,0.62,0.62c0,0.35-0.28,0.62-0.62,0.62C66.56,87.65,66.28,87.38,66.28,87.03z"/>
	<path fill="none" stroke="#1D1D1B" stroke-linecap="round" stroke-miterlimit="10" d="M67.25,89.57c-0.31-0.16-0.44-0.53-0.28-0.84
		c0.15-0.31,0.52-0.43,0.83-0.28c0.31,0.15,0.43,0.53,0.28,0.84C67.93,89.59,67.56,89.72,67.25,89.57z"/>
	<path fill="none" stroke="#1D1D1B" stroke-linecap="round" stroke-miterlimit="10" d="M67.61,85.23c0-0.34,0.28-0.62,0.62-0.62
		c0.35,0,0.62,0.28,0.62,0.62c0,0.35-0.28,0.62-0.62,0.62C67.88,85.85,67.61,85.57,67.61,85.23z"/>
	<path fill="none" stroke="#1D1D1B" stroke-linecap="round" stroke-miterlimit="10" d="M68.56,86.14c0.34,0,0.62,0.28,0.62,0.62
		c0,0.34-0.28,0.62-0.62,0.62c-0.34,0-0.62-0.28-0.62-0.62C67.94,86.42,68.22,86.14,68.56,86.14z"/>
	<path fill="none" stroke="#1D1D1B" stroke-linecap="round" stroke-miterlimit="10" d="M68.67,90.09c0.21,0.27,0.16,0.67-0.12,0.87
		c-0.27,0.21-0.67,0.16-0.87-0.12c-0.21-0.27-0.16-0.66,0.12-0.87C68.07,89.77,68.46,89.82,68.67,90.09z"/>
	<path fill="none" stroke="#1D1D1B" stroke-linecap="round" stroke-miterlimit="10" d="M69.39,88.79c-0.15,0.31-0.52,0.43-0.83,0.28
		c-0.31-0.16-0.44-0.53-0.28-0.84c0.15-0.31,0.52-0.43,0.83-0.28C69.41,88.1,69.54,88.48,69.39,88.79z"/>
	<path fill="none" stroke="#1D1D1B" stroke-linecap="round" stroke-miterlimit="10" d="M69.14,84.96c-0.2-0.28-0.13-0.67,0.15-0.87
		c0.28-0.2,0.67-0.13,0.87,0.15c0.2,0.28,0.13,0.67-0.15,0.87C69.73,85.31,69.34,85.25,69.14,84.96z"/>
	<path fill="none" stroke="#1D1D1B" stroke-linecap="round" stroke-miterlimit="10" d="M69.65,86.92c-0.31-0.15-0.43-0.52-0.28-0.83
		c0.15-0.31,0.52-0.44,0.83-0.28c0.31,0.15,0.43,0.52,0.28,0.83C70.33,86.95,69.96,87.08,69.65,86.92z"/>
	<path fill="none" stroke="#1D1D1B" stroke-linecap="round" stroke-miterlimit="10" d="M71.31,88.18c-0.15,0.31-0.52,0.43-0.83,0.28
		c-0.31-0.15-0.43-0.52-0.28-0.83c0.15-0.31,0.52-0.44,0.83-0.28C71.34,87.5,71.46,87.88,71.31,88.18z"/>
	<path fill="none" stroke="#1D1D1B" stroke-linecap="round" stroke-miterlimit="10" d="M70.56,82.45c-0.2-0.28-0.13-0.67,0.16-0.87
		c0.28-0.2,0.67-0.13,0.87,0.16c0.2,0.28,0.13,0.67-0.16,0.87S70.76,82.73,70.56,82.45z"/>
	<path fill="none" stroke="#1D1D1B" stroke-linecap="round" stroke-miterlimit="10" d="M70.8,84.04c-0.2-0.28-0.13-0.67,0.15-0.87
		c0.28-0.2,0.67-0.13,0.87,0.15c0.2,0.28,0.13,0.67-0.15,0.87C71.38,84.38,70.99,84.32,70.8,84.04z"/>
	<path fill="none" stroke="#1D1D1B" stroke-linecap="round" stroke-miterlimit="10" d="M72.01,85.46c-0.04,0.34-0.34,0.59-0.68,0.56
		c-0.34-0.04-0.59-0.34-0.56-0.68c0.04-0.34,0.34-0.59,0.68-0.56C71.79,84.82,72.04,85.12,72.01,85.46z"/>
	<path fill="none" stroke="#1D1D1B" stroke-linecap="round" stroke-miterlimit="10" d="M72.57,87.04c-0.15,0.31-0.52,0.43-0.83,0.28
		c-0.31-0.15-0.43-0.52-0.28-0.83c0.15-0.31,0.52-0.44,0.83-0.28C72.6,86.36,72.72,86.73,72.57,87.04z"/>
	<path fill="none" stroke="#1D1D1B" stroke-linecap="round" stroke-miterlimit="10" d="M71.81,81.22c-0.2-0.28-0.13-0.67,0.15-0.87
		c0.28-0.2,0.67-0.13,0.87,0.15c0.2,0.28,0.13,0.67-0.15,0.87C72.4,81.57,72.01,81.5,71.81,81.22z"/>
	<path fill="none" stroke="#1D1D1B" stroke-linecap="round" stroke-miterlimit="10" d="M72.75,82.1c0.34,0.04,0.59,0.34,0.56,0.68
		c-0.04,0.34-0.34,0.59-0.69,0.56c-0.34-0.04-0.59-0.34-0.55-0.68C72.1,82.31,72.4,82.06,72.75,82.1z"/>
	<path fill="none" stroke="#1D1D1B" stroke-linecap="round" stroke-miterlimit="10" d="M73.74,84.67c-0.04,0.34-0.34,0.59-0.68,0.56
		c-0.34-0.04-0.59-0.34-0.56-0.68c0.04-0.34,0.34-0.59,0.69-0.56C73.52,84.02,73.78,84.32,73.74,84.67z"/>
	<path fill="none" stroke="#1D1D1B" stroke-linecap="round" stroke-miterlimit="10" d="M73.24,81.29c-0.23-0.25-0.22-0.65,0.03-0.88
		c0.25-0.24,0.65-0.22,0.88,0.03c0.23,0.25,0.22,0.65-0.03,0.88C73.87,81.56,73.47,81.54,73.24,81.29z"/>
	<path fill="none" stroke="#1D1D1B" stroke-linecap="round" stroke-miterlimit="10" d="M73.73,82.73c-0.23-0.25-0.22-0.65,0.03-0.88
		c0.25-0.23,0.64-0.22,0.88,0.03c0.23,0.25,0.22,0.65-0.03,0.88C74.36,82.99,73.97,82.98,73.73,82.73z"/>
	<path fill="none" stroke="#1D1D1B" stroke-linecap="round" stroke-miterlimit="10" d="M75,83.38c0.23,0.25,0.22,0.65-0.04,0.88
		c-0.25,0.23-0.65,0.22-0.88-0.03c-0.24-0.25-0.22-0.65,0.03-0.88C74.37,83.11,74.76,83.13,75,83.38z"/>
	<path fill="none" stroke="#1D1D1B" stroke-linecap="round" stroke-miterlimit="10" d="M74.2,78.72c-0.2-0.28-0.13-0.67,0.15-0.87
		c0.28-0.2,0.67-0.13,0.87,0.16c0.2,0.28,0.13,0.67-0.15,0.87C74.78,79.07,74.39,79,74.2,78.72z"/>
	<path fill="none" stroke="#1D1D1B" stroke-linecap="round" stroke-miterlimit="10" d="M75.73,79.9c0.14,0.31,0.01,0.68-0.31,0.82
		c-0.31,0.15-0.68,0.01-0.82-0.3c-0.15-0.31-0.01-0.68,0.3-0.83C75.22,79.45,75.58,79.59,75.73,79.9z"/>
	<path fill="none" stroke="#1D1D1B" stroke-linecap="round" stroke-miterlimit="10" d="M76.24,81.36c0.14,0.31,0.01,0.69-0.31,0.83
		c-0.31,0.15-0.68,0.01-0.83-0.3c-0.14-0.31-0.01-0.69,0.31-0.83C75.73,80.91,76.09,81.05,76.24,81.36z"/>
	<path fill="none" stroke="#1D1D1B" stroke-linecap="round" stroke-miterlimit="10" d="M75.52,77c-0.2-0.28-0.13-0.67,0.16-0.87
		c0.28-0.2,0.67-0.13,0.87,0.16c0.2,0.28,0.13,0.67-0.16,0.86c-0.05,0.04-0.1,0.06-0.16,0.08c0.22,0.02,0.42,0.15,0.52,0.36
		c0.15,0.31,0.01,0.69-0.3,0.83c-0.31,0.15-0.69,0.01-0.83-0.3c-0.15-0.31-0.01-0.69,0.3-0.83c0.03-0.01,0.06-0.03,0.08-0.03
		C75.82,77.25,75.64,77.17,75.52,77z"/>
	<path fill="none" stroke="#1D1D1B" stroke-linecap="round" stroke-miterlimit="10" d="M77.33,79.39c0.14,0.31,0.01,0.68-0.31,0.83
		c-0.31,0.14-0.68,0-0.83-0.31c-0.14-0.31-0.01-0.68,0.31-0.83C76.81,78.94,77.18,79.07,77.33,79.39z"/>
	<path fill="none" stroke="#1D1D1B" stroke-linecap="round" stroke-miterlimit="10" d="M76.84,75.65c-0.2-0.28-0.13-0.67,0.16-0.87
		c0.28-0.2,0.67-0.13,0.87,0.15c0.2,0.28,0.13,0.67-0.16,0.87S77.04,75.93,76.84,75.65z"/>
	<path fill="none" stroke="#1D1D1B" stroke-linecap="round" stroke-miterlimit="10" d="M78.24,76.39c0.14,0.31,0.01,0.68-0.31,0.82
		c-0.31,0.15-0.68,0.01-0.83-0.3c-0.14-0.31-0.01-0.68,0.31-0.83C77.73,75.94,78.09,76.07,78.24,76.39z"/>
	<path fill="none" stroke="#1D1D1B" stroke-linecap="round" stroke-miterlimit="10" d="M78.66,77.74c0.14,0.31,0.01,0.68-0.31,0.83
		c-0.31,0.14-0.68,0.01-0.82-0.31c-0.15-0.31-0.01-0.68,0.3-0.83C78.14,77.29,78.51,77.43,78.66,77.74z"/>
	<path fill="none" stroke="#1D1D1B" stroke-linecap="round" stroke-miterlimit="10" d="M78.1,74.58c-0.2-0.28-0.13-0.67,0.15-0.87
		c0.28-0.2,0.67-0.13,0.87,0.15c0.2,0.28,0.13,0.67-0.15,0.87C78.68,74.93,78.3,74.87,78.1,74.58z"/>
	<path fill="none" stroke="#1D1D1B" stroke-linecap="round" stroke-miterlimit="10" d="M80.31,78.28c0.14,0.31,0.01,0.68-0.31,0.82
		c-0.31,0.15-0.68,0.01-0.83-0.3c-0.14-0.31-0.01-0.68,0.31-0.83C79.79,77.83,80.16,77.96,80.31,78.28z"/>
	<path fill="none" stroke="#1D1D1B" stroke-linecap="round" stroke-miterlimit="10" d="M80.31,76.39c0.14,0.31,0.01,0.68-0.31,0.82
		c-0.31,0.15-0.68,0.01-0.83-0.3c-0.08-0.17-0.07-0.35,0-0.51c-0.27,0.05-0.55-0.09-0.67-0.35c-0.15-0.31-0.01-0.68,0.3-0.83
		c0.31-0.14,0.69-0.01,0.83,0.31c0.08,0.17,0.08,0.36,0.01,0.51C79.91,75.99,80.18,76.13,80.31,76.39z"/>
	<path fill="none" stroke="#1D1D1B" stroke-linecap="round" stroke-miterlimit="10" d="M79.62,72.76c0.03-0.02,0.06-0.04,0.1-0.06
		c-0.05-0.03-0.09-0.08-0.12-0.13c-0.2-0.28-0.13-0.67,0.16-0.87c0.28-0.2,0.67-0.13,0.87,0.16s0.13,0.67-0.16,0.87
		c-0.03,0.02-0.06,0.04-0.09,0.06c0.04,0.04,0.08,0.08,0.11,0.12c0.2,0.28,0.13,0.67-0.15,0.87c-0.28,0.2-0.67,0.13-0.87-0.16
		C79.27,73.35,79.34,72.96,79.62,72.76z"/>
	<path fill="none" stroke="#1D1D1B" stroke-linecap="round" stroke-miterlimit="10" d="M81.05,75.53c-0.31,0.14-0.68,0.01-0.83-0.31
		c-0.14-0.31-0.01-0.68,0.31-0.83c0.31-0.14,0.68-0.01,0.83,0.31C81.5,75.01,81.36,75.38,81.05,75.53z"/>
	<path fill="none" stroke="#1D1D1B" stroke-linecap="round" stroke-miterlimit="10" d="M82.33,75.55c0.2,0.28,0.13,0.67-0.16,0.87
		c-0.28,0.2-0.67,0.13-0.87-0.16c-0.2-0.28-0.13-0.67,0.16-0.86C81.74,75.2,82.12,75.27,82.33,75.55z"/>
	<path fill="none" stroke="#1D1D1B" stroke-linecap="round" stroke-miterlimit="10" d="M81.3,73.63c-0.2-0.28-0.13-0.67,0.16-0.86
		c0.28-0.2,0.67-0.13,0.87,0.15c0.2,0.28,0.13,0.67-0.16,0.87C81.89,73.98,81.5,73.91,81.3,73.63z"/>
	<path fill="none" stroke="#1D1D1B" stroke-linecap="round" stroke-miterlimit="10" d="M83.23,74.21c0.2,0.28,0.13,0.67-0.16,0.87
		c-0.28,0.2-0.67,0.13-0.87-0.16c-0.2-0.28-0.13-0.67,0.16-0.87C82.64,73.86,83.03,73.93,83.23,74.21z"/>
	<path fill="#E5007E" stroke="#1D1D1B" stroke-width="0.75" stroke-linecap="round" stroke-miterlimit="10" d="M91.2,59.5
		C47.96,40.38,4.55,103.73,59.96,95.97l2.54,2.44C68.18,143.09,117.19,94.71,91.2,59.5z M84.52,74.25l-2.99,3.3
		c0.01-0.1-0.01-0.2-0.06-0.29c-0.15-0.31-0.51-0.45-0.83-0.3c-0.31,0.14-0.45,0.51-0.3,0.82c0.12,0.26,0.39,0.4,0.66,0.35
		l-7.16,7.89c0.01-0.03,0.02-0.07,0.02-0.1c0.04-0.34-0.22-0.65-0.56-0.68c-0.34-0.04-0.65,0.22-0.68,0.56
		c-0.04,0.34,0.22,0.65,0.56,0.68c0.1,0.01,0.19-0.01,0.27-0.03l-3.31,3.64c0.17-0.22,0.18-0.53,0.01-0.76
		c-0.21-0.27-0.59-0.33-0.87-0.12c-0.27,0.21-0.32,0.59-0.12,0.87c0.21,0.27,0.6,0.32,0.87,0.12c0.03-0.03,0.06-0.05,0.09-0.08
		l-2.47,2.72c0.17-0.22,0.18-0.52,0.01-0.75c-0.21-0.28-0.6-0.33-0.87-0.12c-0.28,0.21-0.33,0.6-0.12,0.87
		c0.21,0.28,0.6,0.33,0.87,0.12l-1.63,1.8c-0.52,0.58-1.24,0.87-1.97,0.87c-0.52,0-1.05-0.15-1.5-0.47
		c0.03,0.01,0.05,0.01,0.08,0.01c0.34,0,0.62-0.28,0.62-0.62c0-0.35-0.28-0.62-0.62-0.62c-0.34,0-0.62,0.28-0.62,0.62
		c0,0.04,0.01,0.09,0.01,0.13c-0.84-1-0.83-2.49,0.07-3.49l7.62-8.4c-0.1,0.19-0.09,0.43,0.05,0.62c0.2,0.28,0.58,0.35,0.86,0.16
		c0.28-0.2,0.35-0.58,0.16-0.87c-0.19-0.27-0.54-0.34-0.82-0.19l3.13-3.44c-0.03,0.15,0.01,0.31,0.1,0.44
		c0.2,0.28,0.58,0.35,0.87,0.16c0.28-0.2,0.35-0.58,0.15-0.87c-0.15-0.22-0.41-0.31-0.65-0.25l7.16-7.88
		c0.99-1.09,2.67-1.17,3.75-0.18C85.43,71.48,85.51,73.16,84.52,74.25z"/>
	<path fill="#B17F49" stroke="#1D1D1B" stroke-linecap="round" stroke-miterlimit="10" d="M62.5,98.41
		c-10.03,10.46-17.77,21.37-20.83,33.22l-2.52-1.53c4-10.1,11.7-21.8,20.82-34.12L62.5,98.41z"/>
	<path fill="none" stroke="#B5B5B5" stroke-width="0.25" stroke-miterlimit="10" d="M61.23,60.17C46,70.5,43.85,80.9,57.84,91.39"/>
	<path fill="none" stroke="#B5B5B5" stroke-width="0.25" stroke-miterlimit="10" d="M74.19,57.95
		C58.88,64.68,51.65,79.54,58.43,90.5"/>
	<path fill="none" stroke="#B5B5B5" stroke-width="0.25" stroke-miterlimit="10" d="M76.19,62.31
		c-10.8,7.77-16.26,17.03-13.68,26.63"/>
	<path fill="none" stroke="#B5B5B5" stroke-width="0.25" stroke-miterlimit="10" d="M91.19,69.79C89.37,79.6,85.33,88.5,71.6,93.46"
		/>
	<path fill="none" stroke="#B5B5B5" stroke-width="0.25" stroke-miterlimit="10" d="M96.01,79.33c0.09,4.47-12.21,18.72-24.41,17.3"
		/>
	<path fill="none" stroke="#B5B5B5" stroke-width="0.25" stroke-miterlimit="10" d="M96.75,89.39c-5.24,8.91-12.84,13.96-25.45,10.8
		"/>
	<path fill="none" stroke="#B5B5B5" stroke-width="0.25" stroke-miterlimit="10" d="M67.61,104.78c2.89,5.2,9.67,6.21,20.34,3.03"/>
	<path fill="none" stroke="#B5B5B5" stroke-width="0.25" stroke-miterlimit="10" d="M43.04,71.74
		c-6.72,10.79-3.54,18.28,11.82,21.72"/>
	<path fill="#7E4E24" stroke="#1D1D1B" stroke-width="0.25" stroke-miterlimit="10" d="M84.34,70.49c-1.08-0.99-2.77-0.91-3.75,0.18
		l-7.16,7.88c0.24-0.06,0.5,0.04,0.65,0.25c0.2,0.28,0.13,0.67-0.15,0.87c-0.28,0.2-0.67,0.13-0.87-0.16
		c-0.1-0.14-0.13-0.29-0.1-0.44l-3.13,3.44c0.28-0.16,0.63-0.08,0.82,0.19c0.2,0.28,0.13,0.67-0.16,0.87
		c-0.28,0.2-0.67,0.13-0.86-0.16c-0.14-0.19-0.15-0.43-0.05-0.62l-7.62,8.4c-0.9,1-0.91,2.48-0.07,3.49c0-0.04-0.01-0.09-0.01-0.13
		c0-0.35,0.28-0.62,0.62-0.62c0.34,0,0.62,0.28,0.62,0.62c0,0.34-0.28,0.62-0.62,0.62c-0.03,0-0.05,0-0.08-0.01
		c0.45,0.32,0.98,0.47,1.5,0.47c0.73,0,1.45-0.29,1.97-0.87l1.63-1.8c-0.27,0.21-0.67,0.16-0.87-0.12
		c-0.21-0.27-0.16-0.66,0.12-0.87c0.27-0.21,0.66-0.16,0.87,0.12c0.17,0.23,0.16,0.53-0.01,0.75l2.47-2.72
		c-0.03,0.03-0.06,0.06-0.09,0.08c-0.27,0.21-0.67,0.16-0.87-0.12c-0.21-0.28-0.16-0.67,0.12-0.87c0.28-0.21,0.67-0.16,0.87,0.12
		c0.18,0.23,0.17,0.54-0.01,0.76l3.31-3.64c-0.09,0.03-0.18,0.04-0.27,0.03c-0.34-0.04-0.59-0.34-0.56-0.68
		c0.04-0.34,0.34-0.59,0.68-0.56c0.34,0.04,0.59,0.34,0.56,0.68c0,0.04-0.01,0.07-0.02,0.1L81,78.13c-0.27,0.05-0.54-0.1-0.66-0.35
		c-0.15-0.31-0.01-0.68,0.3-0.82c0.31-0.15,0.68-0.01,0.83,0.3c0.05,0.1,0.06,0.2,0.06,0.29l2.99-3.3
		C85.51,73.16,85.43,71.48,84.34,70.49z M81.46,72.76c0.28-0.2,0.67-0.13,0.87,0.15c0.2,0.28,0.13,0.67-0.16,0.87
		c-0.28,0.2-0.67,0.13-0.87-0.16C81.11,73.35,81.18,72.96,81.46,72.76z M79.59,72.58c-0.2-0.28-0.13-0.67,0.16-0.87
		c0.28-0.2,0.67-0.13,0.87,0.16s0.13,0.67-0.16,0.87c-0.03,0.02-0.06,0.04-0.09,0.06c0.04,0.04,0.08,0.08,0.11,0.12
		c0.2,0.28,0.13,0.67-0.15,0.87c-0.28,0.2-0.67,0.13-0.87-0.16c-0.2-0.28-0.13-0.67,0.15-0.86c0.03-0.02,0.06-0.04,0.1-0.06
		C79.67,72.68,79.63,72.63,79.59,72.58z M78.25,73.72c0.28-0.2,0.67-0.13,0.87,0.15c0.2,0.28,0.13,0.67-0.15,0.87
		c-0.28,0.2-0.67,0.13-0.87-0.15S77.97,73.91,78.25,73.72z M77.93,77.21c-0.31,0.15-0.68,0.01-0.83-0.3
		c-0.14-0.31-0.01-0.68,0.31-0.83c0.31-0.14,0.68-0.01,0.83,0.31C78.38,76.7,78.24,77.07,77.93,77.21z M77,74.78
		c0.28-0.2,0.67-0.13,0.87,0.15c0.2,0.28,0.13,0.67-0.16,0.87s-0.67,0.13-0.87-0.15C76.65,75.36,76.72,74.98,77,74.78z M75.68,76.14
		c0.28-0.2,0.67-0.13,0.87,0.16c0.2,0.28,0.13,0.67-0.16,0.86c-0.05,0.04-0.1,0.06-0.16,0.08c0.22,0.02,0.42,0.15,0.52,0.36
		c0.15,0.31,0.01,0.69-0.3,0.83c-0.31,0.15-0.69,0.01-0.83-0.3c-0.15-0.31-0.01-0.69,0.3-0.83c0.03-0.01,0.06-0.03,0.08-0.03
		c-0.19-0.01-0.37-0.09-0.48-0.26C75.33,76.72,75.4,76.33,75.68,76.14z M75.42,80.72c-0.31,0.15-0.68,0.01-0.82-0.3
		c-0.15-0.31-0.01-0.68,0.3-0.83c0.31-0.14,0.68-0.01,0.83,0.31C75.87,80.21,75.74,80.58,75.42,80.72z M74.35,77.85
		c0.28-0.2,0.67-0.13,0.87,0.16c0.2,0.28,0.13,0.67-0.15,0.87c-0.28,0.2-0.67,0.13-0.87-0.16C74,78.44,74.07,78.06,74.35,77.85z
		 M73.27,80.41c0.25-0.24,0.65-0.22,0.88,0.03c0.23,0.25,0.22,0.65-0.03,0.88c-0.25,0.24-0.64,0.22-0.88-0.03
		C73,81.04,73.01,80.65,73.27,80.41z M73.31,82.78c-0.04,0.34-0.34,0.59-0.69,0.56c-0.34-0.04-0.59-0.34-0.55-0.68
		c0.04-0.34,0.34-0.59,0.68-0.56C73.09,82.13,73.34,82.43,73.31,82.78z M71.97,80.36c0.28-0.2,0.67-0.13,0.87,0.15
		c0.2,0.28,0.13,0.67-0.15,0.87c-0.28,0.2-0.67,0.13-0.87-0.15C71.62,80.94,71.68,80.55,71.97,80.36z M70.56,82.45
		c-0.2-0.28-0.13-0.67,0.16-0.87c0.28-0.2,0.67-0.13,0.87,0.16c0.2,0.28,0.13,0.67-0.16,0.87S70.76,82.73,70.56,82.45z M70.95,83.17
		c0.28-0.2,0.67-0.13,0.87,0.15c0.2,0.28,0.13,0.67-0.15,0.87c-0.28,0.2-0.67,0.13-0.87-0.15C70.6,83.75,70.67,83.37,70.95,83.17z
		 M72.01,85.46c-0.04,0.34-0.34,0.59-0.68,0.56c-0.34-0.04-0.59-0.34-0.56-0.68c0.04-0.34,0.34-0.59,0.68-0.56
		C71.79,84.82,72.04,85.12,72.01,85.46z M69.3,84.1c0.28-0.2,0.67-0.13,0.87,0.15c0.2,0.28,0.13,0.67-0.15,0.87
		c-0.28,0.2-0.67,0.13-0.87-0.15C68.95,84.68,69.01,84.29,69.3,84.1z M69.18,86.76c0,0.34-0.28,0.62-0.62,0.62
		c-0.34,0-0.62-0.28-0.62-0.62c0-0.34,0.28-0.62,0.62-0.62C68.9,86.14,69.18,86.42,69.18,86.76z M68.23,84.61
		c0.35,0,0.62,0.28,0.62,0.62c0,0.35-0.28,0.62-0.62,0.62c-0.34,0-0.62-0.28-0.62-0.62C67.61,84.88,67.88,84.61,68.23,84.61z
		 M66.91,86.41c0.34,0,0.62,0.28,0.62,0.62c0,0.35-0.28,0.62-0.62,0.62c-0.34,0-0.62-0.28-0.62-0.62
		C66.28,86.69,66.56,86.41,66.91,86.41z M65.94,87.29c0.34,0,0.62,0.28,0.62,0.62c0,0.35-0.28,0.62-0.62,0.62
		c-0.34,0-0.62-0.28-0.62-0.62C65.31,87.56,65.6,87.29,65.94,87.29z M65.94,88.77c0.34,0,0.62,0.28,0.62,0.62
		c0,0.34-0.28,0.62-0.62,0.62c-0.34,0-0.62-0.28-0.62-0.62C65.31,89.05,65.6,88.77,65.94,88.77z M64.51,89.42
		c0.34,0,0.62,0.28,0.62,0.62c0,0.34-0.28,0.62-0.62,0.62c-0.34,0-0.62-0.28-0.62-0.62C63.89,89.7,64.17,89.42,64.51,89.42z
		 M62.5,90.94c0.06,0,0.12,0.01,0.18,0.03c-0.03-0.07-0.04-0.14-0.04-0.21c0-0.34,0.28-0.62,0.62-0.62c0.34,0,0.62,0.28,0.62,0.62
		c0,0.35-0.28,0.62-0.62,0.62c-0.06,0-0.12-0.01-0.18-0.03c0.03,0.06,0.04,0.13,0.04,0.2c0,0.34-0.28,0.62-0.62,0.62
		c-0.34,0-0.62-0.28-0.62-0.62C61.88,91.22,62.16,90.94,62.5,90.94z M62.02,93.59c-0.34,0-0.62-0.28-0.62-0.62
		c0-0.35,0.28-0.62,0.62-0.62s0.62,0.28,0.62,0.62C62.64,93.31,62.36,93.59,62.02,93.59z M62.82,92.48c0-0.34,0.28-0.62,0.62-0.62
		c0.34,0,0.62,0.28,0.62,0.62c0,0.35-0.28,0.62-0.62,0.62C63.1,93.11,62.82,92.83,62.82,92.48z M63.89,94.58
		c-0.35,0-0.62-0.28-0.62-0.62c0-0.35,0.28-0.62,0.62-0.62c0.34,0,0.62,0.28,0.62,0.62C64.51,94.3,64.23,94.58,63.89,94.58z
		 M64.41,91.76c0-0.34,0.28-0.62,0.62-0.62c0.34,0,0.62,0.28,0.62,0.62c0,0.34-0.28,0.62-0.62,0.62
		C64.69,92.38,64.41,92.1,64.41,91.76z M65.48,93.96c-0.34,0-0.62-0.28-0.62-0.62c0-0.34,0.28-0.62,0.62-0.62
		c0.34,0,0.62,0.28,0.62,0.62C66.1,93.68,65.82,93.96,65.48,93.96z M66.8,91.43c-0.27,0.21-0.67,0.16-0.87-0.12
		c-0.21-0.27-0.16-0.66,0.12-0.87c0.27-0.21,0.67-0.16,0.87,0.12C67.13,90.83,67.07,91.22,66.8,91.43z M67.25,89.57
		c-0.31-0.16-0.44-0.53-0.28-0.84c0.15-0.31,0.52-0.43,0.83-0.28c0.31,0.15,0.43,0.53,0.28,0.84
		C67.93,89.59,67.56,89.72,67.25,89.57z M68.55,90.97c-0.27,0.21-0.67,0.16-0.87-0.12c-0.21-0.27-0.16-0.66,0.12-0.87
		c0.27-0.21,0.67-0.15,0.87,0.12C68.88,90.37,68.83,90.76,68.55,90.97z M69.39,88.79c-0.15,0.31-0.52,0.43-0.83,0.28
		c-0.31-0.16-0.44-0.53-0.28-0.84c0.15-0.31,0.52-0.43,0.83-0.28C69.41,88.1,69.54,88.48,69.39,88.79z M69.65,86.92
		c-0.31-0.15-0.43-0.52-0.28-0.83c0.15-0.31,0.52-0.44,0.83-0.28c0.31,0.15,0.43,0.52,0.28,0.83
		C70.33,86.95,69.96,87.08,69.65,86.92z M71.31,88.18c-0.15,0.31-0.52,0.43-0.83,0.28c-0.31-0.15-0.43-0.52-0.28-0.83
		c0.15-0.31,0.52-0.44,0.83-0.28C71.34,87.5,71.46,87.88,71.31,88.18z M72.57,87.04c-0.15,0.31-0.52,0.43-0.83,0.28
		c-0.31-0.15-0.43-0.52-0.28-0.83c0.15-0.31,0.52-0.44,0.83-0.28C72.6,86.36,72.72,86.73,72.57,87.04z M73.06,85.23
		c-0.34-0.04-0.59-0.34-0.56-0.68c0.04-0.34,0.34-0.59,0.69-0.56c0.34,0.04,0.59,0.34,0.55,0.68C73.7,85.01,73.4,85.26,73.06,85.23z
		 M73.73,82.73c-0.23-0.25-0.22-0.65,0.03-0.88c0.25-0.23,0.64-0.22,0.88,0.03c0.23,0.25,0.22,0.65-0.03,0.88
		C74.36,82.99,73.97,82.98,73.73,82.73z M74.96,84.26c-0.25,0.23-0.65,0.22-0.88-0.03c-0.24-0.25-0.22-0.65,0.03-0.88
		c0.25-0.23,0.65-0.22,0.88,0.03C75.23,83.63,75.22,84.03,74.96,84.26z M75.93,82.19c-0.31,0.15-0.68,0.01-0.83-0.3
		c-0.14-0.31-0.01-0.69,0.31-0.83c0.31-0.15,0.68-0.01,0.83,0.3C76.38,81.67,76.24,82.05,75.93,82.19z M77.02,80.21
		c-0.31,0.14-0.68,0-0.83-0.31c-0.14-0.31-0.01-0.68,0.31-0.83c0.31-0.14,0.68-0.01,0.83,0.31C77.47,79.7,77.33,80.07,77.02,80.21z
		 M78.35,78.56c-0.31,0.14-0.68,0.01-0.82-0.31c-0.15-0.31-0.01-0.68,0.3-0.83c0.31-0.14,0.68-0.01,0.83,0.31
		C78.8,78.05,78.66,78.42,78.35,78.56z M80.31,78.28c0.14,0.31,0.01,0.68-0.31,0.82c-0.31,0.15-0.68,0.01-0.83-0.3
		c-0.14-0.31-0.01-0.68,0.31-0.83C79.79,77.83,80.16,77.96,80.31,78.28z M80,77.21c-0.31,0.15-0.68,0.01-0.83-0.3
		c-0.08-0.17-0.07-0.35,0-0.51c-0.27,0.05-0.55-0.09-0.67-0.35c-0.15-0.31-0.01-0.68,0.3-0.83c0.31-0.14,0.69-0.01,0.83,0.31
		c0.08,0.17,0.08,0.36,0.01,0.51c0.27-0.05,0.54,0.1,0.67,0.35C80.45,76.7,80.31,77.07,80,77.21z M80.22,75.22
		c-0.14-0.31-0.01-0.68,0.31-0.83c0.31-0.14,0.68-0.01,0.83,0.31c0.14,0.31,0.01,0.68-0.31,0.83
		C80.73,75.67,80.37,75.53,80.22,75.22z M82.17,76.42c-0.28,0.2-0.67,0.13-0.87-0.16c-0.2-0.28-0.13-0.67,0.16-0.86
		c0.28-0.2,0.67-0.13,0.87,0.15C82.52,75.83,82.45,76.22,82.17,76.42z M83.07,75.08c-0.28,0.2-0.67,0.13-0.87-0.16
		c-0.2-0.28-0.13-0.67,0.16-0.87c0.28-0.2,0.67-0.13,0.87,0.16C83.43,74.49,83.35,74.88,83.07,75.08z"/>
	<path fill="none" stroke="#1D1D1B" stroke-width="0.25" stroke-miterlimit="10" d="M62.02,93.59c-0.34,0-0.62-0.28-0.62-0.62
		c0-0.35,0.28-0.62,0.62-0.62s0.62,0.28,0.62,0.62C62.64,93.31,62.36,93.59,62.02,93.59z"/>
	<path fill="none" stroke="#1D1D1B" stroke-width="0.25" stroke-miterlimit="10" d="M63.12,94.55c0,0.34-0.28,0.62-0.62,0.62
		c-0.03,0-0.05,0-0.08-0.01c-0.1-0.07-0.19-0.14-0.28-0.22c-0.09-0.09-0.18-0.17-0.25-0.27c0-0.04-0.01-0.09-0.01-0.13
		c0-0.35,0.28-0.62,0.62-0.62C62.85,93.92,63.12,94.2,63.12,94.55z"/>
	<path fill="none" stroke="#1D1D1B" stroke-width="0.25" stroke-miterlimit="10" d="M61.88,91.56c0-0.34,0.28-0.62,0.62-0.62
		c0.06,0,0.12,0.01,0.18,0.03c-0.03-0.07-0.04-0.14-0.04-0.21c0-0.34,0.28-0.62,0.62-0.62c0.34,0,0.62,0.28,0.62,0.62
		c0,0.35-0.28,0.62-0.62,0.62c-0.06,0-0.12-0.01-0.18-0.03c0.03,0.06,0.04,0.13,0.04,0.2c0,0.34-0.28,0.62-0.62,0.62
		C62.16,92.18,61.88,91.9,61.88,91.56z"/>
	<path fill="none" stroke="#1D1D1B" stroke-width="0.25" stroke-miterlimit="10" d="M64.06,92.48c0,0.35-0.28,0.62-0.62,0.62
		c-0.34,0-0.62-0.28-0.62-0.62c0-0.34,0.28-0.62,0.62-0.62C63.78,91.86,64.06,92.14,64.06,92.48z"/>
	<path fill="none" stroke="#1D1D1B" stroke-width="0.25" stroke-miterlimit="10" d="M64.51,93.96c0,0.34-0.28,0.62-0.62,0.62
		c-0.35,0-0.62-0.28-0.62-0.62c0-0.35,0.28-0.62,0.62-0.62C64.23,93.33,64.51,93.61,64.51,93.96z"/>
	<path fill="none" stroke="#1D1D1B" stroke-width="0.25" stroke-miterlimit="10" d="M63.89,90.04c0-0.35,0.28-0.62,0.62-0.62
		c0.34,0,0.62,0.28,0.62,0.62c0,0.34-0.28,0.62-0.62,0.62C64.17,90.66,63.89,90.39,63.89,90.04z"/>
	<path fill="none" stroke="#1D1D1B" stroke-width="0.25" stroke-miterlimit="10" d="M65.04,92.38c-0.35,0-0.62-0.28-0.62-0.62
		c0-0.34,0.28-0.62,0.62-0.62c0.34,0,0.62,0.28,0.62,0.62C65.66,92.1,65.38,92.38,65.04,92.38z"/>
	<path fill="none" stroke="#1D1D1B" stroke-width="0.25" stroke-miterlimit="10" d="M66.1,93.33c0,0.34-0.28,0.62-0.62,0.62
		c-0.34,0-0.62-0.28-0.62-0.62c0-0.34,0.28-0.62,0.62-0.62C65.82,92.71,66.1,92.99,66.1,93.33z"/>
	<path fill="none" stroke="#1D1D1B" stroke-width="0.25" stroke-miterlimit="10" d="M65.31,89.39c0-0.35,0.28-0.62,0.62-0.62
		c0.34,0,0.62,0.28,0.62,0.62c0,0.34-0.28,0.62-0.62,0.62C65.6,90.01,65.31,89.74,65.31,89.39z"/>
	<path fill="none" stroke="#1D1D1B" stroke-width="0.25" stroke-miterlimit="10" d="M65.31,87.91c0-0.34,0.28-0.62,0.62-0.62
		c0.34,0,0.62,0.28,0.62,0.62c0,0.35-0.28,0.62-0.62,0.62C65.6,88.53,65.31,88.25,65.31,87.91z"/>
	<path fill="none" stroke="#1D1D1B" stroke-width="0.25" stroke-miterlimit="10" d="M66.8,91.43c-0.27,0.21-0.67,0.16-0.87-0.12
		c-0.21-0.27-0.16-0.66,0.12-0.87c0.27-0.21,0.67-0.16,0.87,0.12C67.13,90.83,67.07,91.22,66.8,91.43z"/>
	<path fill="none" stroke="#1D1D1B" stroke-width="0.25" stroke-miterlimit="10" d="M66.28,87.03c0-0.34,0.28-0.62,0.62-0.62
		c0.34,0,0.62,0.28,0.62,0.62c0,0.35-0.28,0.62-0.62,0.62C66.56,87.65,66.28,87.38,66.28,87.03z"/>
	<path fill="none" stroke="#1D1D1B" stroke-width="0.25" stroke-miterlimit="10" d="M67.65,92.08c0.17,0.23,0.16,0.53-0.01,0.75
		l-0.07,0.08c-0.02,0.02-0.03,0.04-0.05,0.05c-0.27,0.21-0.67,0.16-0.87-0.12c-0.21-0.27-0.16-0.66,0.12-0.87
		C67.05,91.76,67.44,91.81,67.65,92.08z"/>
	<path fill="none" stroke="#1D1D1B" stroke-width="0.25" stroke-miterlimit="10" d="M67.8,88.45c0.31,0.15,0.43,0.53,0.28,0.84
		c-0.15,0.31-0.52,0.43-0.83,0.28c-0.31-0.16-0.44-0.53-0.28-0.84C67.12,88.43,67.5,88.3,67.8,88.45z"/>
	<path fill="none" stroke="#1D1D1B" stroke-width="0.25" stroke-miterlimit="10" d="M67.61,85.23c0-0.34,0.28-0.62,0.62-0.62
		c0.35,0,0.62,0.28,0.62,0.62c0,0.35-0.28,0.62-0.62,0.62C67.88,85.85,67.61,85.57,67.61,85.23z"/>
	<path fill="none" stroke="#1D1D1B" stroke-width="0.25" stroke-miterlimit="10" d="M68.56,86.14c0.34,0,0.62,0.28,0.62,0.62
		c0,0.34-0.28,0.62-0.62,0.62c-0.34,0-0.62-0.28-0.62-0.62C67.94,86.42,68.22,86.14,68.56,86.14z"/>
	<path fill="none" stroke="#1D1D1B" stroke-width="0.25" stroke-miterlimit="10" d="M68.67,90.09c0.21,0.27,0.16,0.67-0.12,0.87
		c-0.27,0.21-0.67,0.16-0.87-0.12c-0.21-0.27-0.16-0.66,0.12-0.87C68.07,89.77,68.46,89.82,68.67,90.09z"/>
	<path fill="none" stroke="#1D1D1B" stroke-width="0.25" stroke-miterlimit="10" d="M69.39,88.79c-0.15,0.31-0.52,0.43-0.83,0.28
		c-0.31-0.16-0.44-0.53-0.28-0.84c0.15-0.31,0.52-0.43,0.83-0.28C69.41,88.1,69.54,88.48,69.39,88.79z"/>
	<path fill="none" stroke="#1D1D1B" stroke-width="0.25" stroke-miterlimit="10" d="M70.15,89.32c0.18,0.23,0.17,0.54-0.01,0.76
		c-0.01,0.01-0.02,0.02-0.03,0.03c-0.03,0.03-0.06,0.06-0.09,0.08c-0.27,0.21-0.67,0.16-0.87-0.12c-0.21-0.28-0.16-0.67,0.12-0.87
		C69.55,89,69.94,89.05,70.15,89.32z"/>
	<path fill="none" stroke="#1D1D1B" stroke-width="0.25" stroke-miterlimit="10" d="M69.14,84.96c-0.2-0.28-0.13-0.67,0.15-0.87
		c0.28-0.2,0.67-0.13,0.87,0.15c0.2,0.28,0.13,0.67-0.15,0.87C69.73,85.31,69.34,85.25,69.14,84.96z"/>
	<path fill="none" stroke="#1D1D1B" stroke-width="0.25" stroke-miterlimit="10" d="M69.37,86.09c0.15-0.31,0.52-0.44,0.83-0.28
		c0.31,0.15,0.43,0.52,0.28,0.83c-0.15,0.31-0.52,0.43-0.83,0.28S69.22,86.4,69.37,86.09z"/>
	<path fill="none" stroke="#1D1D1B" stroke-width="0.25" stroke-miterlimit="10" d="M69.63,83.41c-0.14-0.19-0.15-0.43-0.05-0.62
		l0.25-0.28c0.28-0.16,0.63-0.08,0.82,0.19c0.2,0.28,0.13,0.67-0.16,0.87C70.22,83.76,69.83,83.69,69.63,83.41z"/>
	<path fill="none" stroke="#1D1D1B" stroke-width="0.25" stroke-miterlimit="10" d="M71.31,88.18c-0.15,0.31-0.52,0.43-0.83,0.28
		c-0.31-0.15-0.43-0.52-0.28-0.83c0.15-0.31,0.52-0.44,0.83-0.28C71.34,87.5,71.46,87.88,71.31,88.18z"/>
	<path fill="none" stroke="#1D1D1B" stroke-width="0.25" stroke-miterlimit="10" d="M70.56,82.45c-0.2-0.28-0.13-0.67,0.16-0.87
		c0.28-0.2,0.67-0.13,0.87,0.16c0.2,0.28,0.13,0.67-0.16,0.87S70.76,82.73,70.56,82.45z"/>
	<path fill="none" stroke="#1D1D1B" stroke-width="0.25" stroke-miterlimit="10" d="M70.8,84.04c-0.2-0.28-0.13-0.67,0.15-0.87
		c0.28-0.2,0.67-0.13,0.87,0.15c0.2,0.28,0.13,0.67-0.15,0.87C71.38,84.38,70.99,84.32,70.8,84.04z"/>
	<path fill="none" stroke="#1D1D1B" stroke-width="0.25" stroke-miterlimit="10" d="M70.77,85.34c0.04-0.34,0.34-0.59,0.68-0.56
		c0.34,0.04,0.59,0.34,0.56,0.68c-0.04,0.34-0.34,0.59-0.68,0.56C70.98,85.99,70.74,85.68,70.77,85.34z"/>
	<path fill="none" stroke="#1D1D1B" stroke-width="0.25" stroke-miterlimit="10" d="M72.57,87.04c-0.15,0.31-0.52,0.43-0.83,0.28
		c-0.31-0.15-0.43-0.52-0.28-0.83c0.15-0.31,0.52-0.44,0.83-0.28C72.6,86.36,72.72,86.73,72.57,87.04z"/>
	<path fill="none" stroke="#1D1D1B" stroke-width="0.25" stroke-miterlimit="10" d="M71.81,81.22c-0.2-0.28-0.13-0.67,0.15-0.87
		c0.28-0.2,0.67-0.13,0.87,0.15c0.2,0.28,0.13,0.67-0.15,0.87C72.4,81.57,72.01,81.5,71.81,81.22z"/>
	<path fill="none" stroke="#1D1D1B" stroke-width="0.25" stroke-miterlimit="10" d="M72.75,82.1c0.34,0.04,0.59,0.34,0.56,0.68
		c-0.04,0.34-0.34,0.59-0.69,0.56c-0.34-0.04-0.59-0.34-0.55-0.68C72.1,82.31,72.4,82.06,72.75,82.1z"/>
	<path fill="none" stroke="#1D1D1B" stroke-width="0.25" stroke-miterlimit="10" d="M72.5,84.55c0.04-0.34,0.34-0.59,0.69-0.56
		c0.34,0.04,0.59,0.34,0.55,0.68c-0.04,0.34-0.34,0.59-0.68,0.56C72.72,85.19,72.47,84.89,72.5,84.55z"/>
	<path fill="none" stroke="#1D1D1B" stroke-width="0.25" stroke-miterlimit="10" d="M73.86,85.91c0,0.04-0.01,0.07-0.02,0.1
		l-0.39,0.43c-0.09,0.03-0.18,0.04-0.27,0.03c-0.34-0.04-0.59-0.34-0.56-0.68c0.04-0.34,0.34-0.59,0.68-0.56
		C73.64,85.27,73.9,85.57,73.86,85.91z"/>
	<path fill="none" stroke="#1D1D1B" stroke-width="0.25" stroke-miterlimit="10" d="M73.06,79.52c-0.1-0.14-0.13-0.29-0.1-0.44
		l0.47-0.52c0.24-0.06,0.5,0.04,0.65,0.25c0.2,0.28,0.13,0.67-0.15,0.87C73.64,79.87,73.26,79.8,73.06,79.52z"/>
	<path fill="none" stroke="#1D1D1B" stroke-width="0.25" stroke-miterlimit="10" d="M73.24,81.29c-0.23-0.25-0.22-0.65,0.03-0.88
		c0.25-0.24,0.65-0.22,0.88,0.03c0.23,0.25,0.22,0.65-0.03,0.88C73.87,81.56,73.47,81.54,73.24,81.29z"/>
	<path fill="none" stroke="#1D1D1B" stroke-width="0.25" stroke-miterlimit="10" d="M73.73,82.73c-0.23-0.25-0.22-0.65,0.03-0.88
		c0.25-0.23,0.64-0.22,0.88,0.03c0.23,0.25,0.22,0.65-0.03,0.88C74.36,82.99,73.97,82.98,73.73,82.73z"/>
	<path fill="none" stroke="#1D1D1B" stroke-width="0.25" stroke-miterlimit="10" d="M75,83.38c0.23,0.25,0.22,0.65-0.04,0.88
		c-0.25,0.23-0.65,0.22-0.88-0.03c-0.24-0.25-0.22-0.65,0.03-0.88C74.37,83.11,74.76,83.13,75,83.38z"/>
	<path fill="none" stroke="#1D1D1B" stroke-width="0.25" stroke-miterlimit="10" d="M74.2,78.72c-0.2-0.28-0.13-0.67,0.15-0.87
		c0.28-0.2,0.67-0.13,0.87,0.16c0.2,0.28,0.13,0.67-0.15,0.87C74.78,79.07,74.39,79,74.2,78.72z"/>
	<path fill="none" stroke="#1D1D1B" stroke-width="0.25" stroke-miterlimit="10" d="M74.6,80.42c-0.15-0.31-0.01-0.68,0.3-0.83
		c0.31-0.14,0.68-0.01,0.83,0.31c0.14,0.31,0.01,0.68-0.31,0.82C75.11,80.87,74.74,80.73,74.6,80.42z"/>
	<path fill="none" stroke="#1D1D1B" stroke-width="0.25" stroke-miterlimit="10" d="M76.24,81.36c0.14,0.31,0.01,0.69-0.31,0.83
		c-0.31,0.15-0.68,0.01-0.83-0.3c-0.14-0.31-0.01-0.69,0.31-0.83C75.73,80.91,76.09,81.05,76.24,81.36z"/>
	<path fill="none" stroke="#1D1D1B" stroke-width="0.25" stroke-miterlimit="10" d="M75.52,77c-0.2-0.28-0.13-0.67,0.16-0.87
		c0.28-0.2,0.67-0.13,0.87,0.16c0.2,0.28,0.13,0.67-0.16,0.86c-0.05,0.04-0.1,0.06-0.16,0.08c0.22,0.02,0.42,0.15,0.52,0.36
		c0.15,0.31,0.01,0.69-0.3,0.83c-0.31,0.15-0.69,0.01-0.83-0.3c-0.15-0.31-0.01-0.69,0.3-0.83c0.03-0.01,0.06-0.03,0.08-0.03
		C75.82,77.25,75.64,77.17,75.52,77z"/>
	<path fill="none" stroke="#1D1D1B" stroke-width="0.25" stroke-miterlimit="10" d="M77.33,79.39c0.14,0.31,0.01,0.68-0.31,0.83
		c-0.31,0.14-0.68,0-0.83-0.31c-0.14-0.31-0.01-0.68,0.31-0.83C76.81,78.94,77.18,79.07,77.33,79.39z"/>
	<path fill="none" stroke="#1D1D1B" stroke-width="0.25" stroke-miterlimit="10" d="M76.84,75.65c-0.2-0.28-0.13-0.67,0.16-0.87
		c0.28-0.2,0.67-0.13,0.87,0.15c0.2,0.28,0.13,0.67-0.16,0.87S77.04,75.93,76.84,75.65z"/>
	<path fill="none" stroke="#1D1D1B" stroke-width="0.25" stroke-miterlimit="10" d="M78.24,76.39c0.14,0.31,0.01,0.68-0.31,0.82
		c-0.31,0.15-0.68,0.01-0.83-0.3c-0.14-0.31-0.01-0.68,0.31-0.83C77.73,75.94,78.09,76.07,78.24,76.39z"/>
	<path fill="none" stroke="#1D1D1B" stroke-width="0.25" stroke-miterlimit="10" d="M78.66,77.74c0.14,0.31,0.01,0.68-0.31,0.83
		c-0.31,0.14-0.68,0.01-0.82-0.31c-0.15-0.31-0.01-0.68,0.3-0.83C78.14,77.29,78.51,77.43,78.66,77.74z"/>
	<path fill="none" stroke="#1D1D1B" stroke-width="0.25" stroke-miterlimit="10" d="M78.1,74.58c-0.2-0.28-0.13-0.67,0.15-0.87
		c0.28-0.2,0.67-0.13,0.87,0.15c0.2,0.28,0.13,0.67-0.15,0.87C78.68,74.93,78.3,74.87,78.1,74.58z"/>
	<path fill="none" stroke="#1D1D1B" stroke-width="0.25" stroke-miterlimit="10" d="M80.31,78.28c0.14,0.31,0.01,0.68-0.31,0.82
		c-0.31,0.15-0.68,0.01-0.83-0.3c-0.14-0.31-0.01-0.68,0.31-0.83C79.79,77.83,80.16,77.96,80.31,78.28z"/>
	<path fill="none" stroke="#1D1D1B" stroke-width="0.25" stroke-miterlimit="10" d="M79.17,76.39c-0.27,0.05-0.55-0.09-0.67-0.35
		c-0.15-0.31-0.01-0.68,0.3-0.83c0.31-0.14,0.69-0.01,0.83,0.31c0.08,0.17,0.08,0.36,0.01,0.51c0.27-0.05,0.54,0.1,0.67,0.35
		c0.14,0.31,0.01,0.68-0.31,0.82c-0.31,0.15-0.68,0.01-0.83-0.3C79.1,76.73,79.1,76.55,79.17,76.39z"/>
	<path fill="none" stroke="#1D1D1B" stroke-width="0.25" stroke-miterlimit="10" d="M79.62,72.76c0.03-0.02,0.06-0.04,0.1-0.06
		c-0.05-0.03-0.09-0.08-0.12-0.13c-0.2-0.28-0.13-0.67,0.16-0.87c0.28-0.2,0.67-0.13,0.87,0.16s0.13,0.67-0.16,0.87
		c-0.03,0.02-0.06,0.04-0.09,0.06c0.04,0.04,0.08,0.08,0.11,0.12c0.2,0.28,0.13,0.67-0.15,0.87c-0.28,0.2-0.67,0.13-0.87-0.16
		C79.27,73.35,79.34,72.96,79.62,72.76z"/>
	<path fill="none" stroke="#1D1D1B" stroke-width="0.25" stroke-miterlimit="10" d="M80.53,74.39c0.31-0.14,0.68-0.01,0.83,0.31
		c0.14,0.31,0.01,0.68-0.31,0.83c-0.31,0.14-0.68,0.01-0.83-0.31C80.08,74.91,80.22,74.54,80.53,74.39z"/>
	<path fill="none" stroke="#1D1D1B" stroke-width="0.25" stroke-miterlimit="10" d="M81.47,77.25c0.05,0.1,0.06,0.2,0.06,0.29
		L81,78.13c-0.27,0.05-0.54-0.1-0.66-0.35c-0.15-0.31-0.01-0.68,0.3-0.82C80.96,76.81,81.32,76.94,81.47,77.25z"/>
	<path fill="none" stroke="#1D1D1B" stroke-width="0.25" stroke-miterlimit="10" d="M82.33,75.55c0.2,0.28,0.13,0.67-0.16,0.87
		c-0.28,0.2-0.67,0.13-0.87-0.16c-0.2-0.28-0.13-0.67,0.16-0.86C81.74,75.2,82.12,75.27,82.33,75.55z"/>
	<path fill="none" stroke="#1D1D1B" stroke-width="0.25" stroke-miterlimit="10" d="M81.3,73.63c-0.2-0.28-0.13-0.67,0.16-0.86
		c0.28-0.2,0.67-0.13,0.87,0.15c0.2,0.28,0.13,0.67-0.16,0.87C81.89,73.98,81.5,73.91,81.3,73.63z"/>
	<path fill="none" stroke="#1D1D1B" stroke-width="0.25" stroke-miterlimit="10" d="M83.07,75.08c-0.28,0.2-0.67,0.13-0.87-0.16
		c-0.2-0.28-0.13-0.67,0.16-0.87c0.28-0.2,0.67-0.13,0.87,0.16C83.43,74.49,83.35,74.88,83.07,75.08z"/>
	<path fill="#D3D005" d="M64.51,93.96c0,0.34-0.28,0.62-0.62,0.62c-0.35,0-0.62-0.28-0.62-0.62c0-0.35,0.28-0.62,0.62-0.62
		C64.23,93.33,64.51,93.61,64.51,93.96z"/>
	<path fill="#D3D005" d="M66.1,93.33c0,0.34-0.28,0.62-0.62,0.62c-0.34,0-0.62-0.28-0.62-0.62c0-0.34,0.28-0.62,0.62-0.62
		C65.82,92.71,66.1,92.99,66.1,93.33z"/>
	<path fill="#D3D005" d="M64.06,92.48c0,0.35-0.28,0.62-0.62,0.62c-0.34,0-0.62-0.28-0.62-0.62c0-0.34,0.28-0.62,0.62-0.62
		C63.78,91.86,64.06,92.14,64.06,92.48z"/>
	<path fill="#D3D005" d="M65.66,91.76c0,0.34-0.28,0.62-0.62,0.62c-0.35,0-0.62-0.28-0.62-0.62c0-0.34,0.28-0.62,0.62-0.62
		C65.38,91.14,65.66,91.41,65.66,91.76z"/>
	<path fill="#D3D005" d="M65.13,90.04c0,0.34-0.28,0.62-0.62,0.62c-0.34,0-0.62-0.28-0.62-0.62c0-0.35,0.28-0.62,0.62-0.62
		C64.85,89.42,65.13,89.7,65.13,90.04z"/>
	<path fill="#D3D005" d="M66.56,89.39c0,0.34-0.28,0.62-0.62,0.62c-0.34,0-0.62-0.28-0.62-0.62c0-0.35,0.28-0.62,0.62-0.62
		C66.28,88.77,66.56,89.05,66.56,89.39z"/>
	<path fill="#D3D005" d="M66.56,87.91c0,0.35-0.28,0.62-0.62,0.62c-0.34,0-0.62-0.28-0.62-0.62c0-0.34,0.28-0.62,0.62-0.62
		C66.28,87.29,66.56,87.56,66.56,87.91z"/>
	<path fill="#D3D005" d="M69.18,86.76c0,0.34-0.28,0.62-0.62,0.62c-0.34,0-0.62-0.28-0.62-0.62c0-0.34,0.28-0.62,0.62-0.62
		C68.9,86.14,69.18,86.42,69.18,86.76z"/>
	<path fill="#D3D005" d="M67.53,87.03c0,0.35-0.28,0.62-0.62,0.62c-0.34,0-0.62-0.28-0.62-0.62c0-0.34,0.28-0.62,0.62-0.62
		C67.25,86.41,67.53,86.69,67.53,87.03z"/>
	<path fill="#D3D005" d="M68.85,85.23c0,0.35-0.28,0.62-0.62,0.62c-0.34,0-0.62-0.28-0.62-0.62c0-0.34,0.28-0.62,0.62-0.62
		C68.57,84.61,68.85,84.88,68.85,85.23z"/>
	<path fill="#D3D005" d="M70.01,85.11c-0.28,0.2-0.67,0.13-0.87-0.15c-0.2-0.28-0.13-0.67,0.15-0.87c0.28-0.2,0.67-0.13,0.87,0.15
		C70.36,84.53,70.29,84.92,70.01,85.11z"/>
	<path fill="#D3D005" d="M71.66,84.19c-0.28,0.2-0.67,0.13-0.87-0.15c-0.2-0.28-0.13-0.67,0.15-0.87c0.28-0.2,0.67-0.13,0.87,0.15
		C72.01,83.6,71.95,83.99,71.66,84.19z"/>
	<path fill="#D3D005" d="M70.49,83.57c-0.28,0.2-0.67,0.13-0.86-0.16c-0.14-0.19-0.15-0.43-0.05-0.62c0.04-0.1,0.11-0.18,0.2-0.25
		c0.02-0.01,0.03-0.02,0.05-0.03c0.28-0.16,0.63-0.08,0.82,0.19C70.85,82.98,70.78,83.37,70.49,83.57z"/>
	<path fill="#D3D005" d="M71.43,82.61c-0.28,0.2-0.67,0.13-0.87-0.16c-0.2-0.28-0.13-0.67,0.16-0.87c0.28-0.2,0.67-0.13,0.87,0.16
		C71.78,82.02,71.71,82.41,71.43,82.61z"/>
	<path fill="#D3D005" d="M72.68,81.38c-0.28,0.2-0.67,0.13-0.87-0.15c-0.2-0.28-0.13-0.67,0.15-0.87c0.28-0.2,0.67-0.13,0.87,0.15
		C73.03,80.79,72.96,81.18,72.68,81.38z"/>
	<path fill="#D3D005" d="M73.93,79.67c-0.28,0.2-0.67,0.13-0.87-0.16c-0.1-0.14-0.13-0.29-0.1-0.44c0.02-0.17,0.11-0.32,0.25-0.42
		c0.07-0.05,0.14-0.08,0.22-0.1c0.24-0.06,0.5,0.04,0.65,0.25C74.27,79.09,74.21,79.48,73.93,79.67z"/>
	<path fill="#D3D005" d="M75.07,78.88c-0.28,0.2-0.67,0.13-0.87-0.16c-0.2-0.28-0.13-0.67,0.15-0.87c0.28-0.2,0.67-0.13,0.87,0.16
		C75.41,78.29,75.35,78.68,75.07,78.88z"/>
	<path fill="#D3D005" d="M78.97,74.73c-0.28,0.2-0.67,0.13-0.87-0.15s-0.13-0.67,0.15-0.87c0.28-0.2,0.67-0.13,0.87,0.15
		C79.31,74.15,79.25,74.54,78.97,74.73z"/>
	<path fill="#D3D005" d="M80.33,73.78c-0.28,0.2-0.67,0.13-0.87-0.16c-0.2-0.28-0.13-0.67,0.15-0.86c0.03-0.02,0.06-0.04,0.1-0.06
		c0.22-0.11,0.47-0.07,0.66,0.09c0.04,0.04,0.08,0.08,0.11,0.12C80.68,73.2,80.61,73.59,80.33,73.78z"/>
	<path fill="#D3D005" d="M77.71,75.8c-0.28,0.2-0.67,0.13-0.87-0.15c-0.2-0.28-0.13-0.67,0.16-0.87c0.28-0.2,0.67-0.13,0.87,0.15
		C78.06,75.21,77.99,75.6,77.71,75.8z"/>
	<path fill="#D3D005" d="M76.39,77.15c-0.05,0.04-0.1,0.06-0.16,0.08c-0.07,0.03-0.15,0.04-0.23,0.03
		c-0.19-0.01-0.37-0.09-0.48-0.26c-0.2-0.28-0.13-0.67,0.16-0.87c0.28-0.2,0.67-0.13,0.87,0.16C76.74,76.57,76.67,76.96,76.39,77.15
		z"/>
	<path fill="#D3D005" d="M82.17,73.78c-0.28,0.2-0.67,0.13-0.87-0.16c-0.2-0.28-0.13-0.67,0.16-0.86c0.28-0.2,0.67-0.13,0.87,0.15
		C82.52,73.2,82.45,73.59,82.17,73.78z"/>
	<path fill="#D3D005" d="M80.46,72.74c-0.03,0.02-0.06,0.04-0.09,0.06c-0.22,0.1-0.48,0.07-0.66-0.09
		c-0.05-0.03-0.09-0.08-0.12-0.13c-0.2-0.28-0.13-0.67,0.16-0.87c0.28-0.2,0.67-0.13,0.87,0.16S80.74,72.54,80.46,72.74z"/>
	<path fill="#D3D005" d="M83.07,75.08c-0.28,0.2-0.67,0.13-0.87-0.16c-0.2-0.28-0.13-0.67,0.16-0.87c0.28-0.2,0.67-0.13,0.87,0.16
		C83.43,74.49,83.35,74.88,83.07,75.08z"/>
	<path fill="#D3D005" d="M82.17,76.42c-0.28,0.2-0.67,0.13-0.87-0.16c-0.2-0.28-0.13-0.67,0.16-0.86c0.28-0.2,0.67-0.13,0.87,0.15
		C82.52,75.83,82.45,76.22,82.17,76.42z"/>
	<path fill="#D3D005" d="M81.53,77.55c-0.02,0.23-0.15,0.43-0.36,0.53c-0.05,0.03-0.11,0.04-0.17,0.05
		c-0.27,0.05-0.54-0.1-0.66-0.35c-0.15-0.31-0.01-0.68,0.3-0.82c0.31-0.15,0.68-0.01,0.83,0.3C81.52,77.35,81.53,77.45,81.53,77.55z
		"/>
	<path fill="#D3D005" d="M80,77.21c-0.31,0.15-0.68,0.01-0.83-0.3c-0.08-0.17-0.07-0.35,0-0.51c0.06-0.13,0.17-0.25,0.31-0.31
		c0.06-0.02,0.11-0.04,0.16-0.05c0.27-0.05,0.54,0.1,0.67,0.35C80.45,76.7,80.31,77.07,80,77.21z"/>
	<path fill="#D3D005" d="M81.05,75.53c-0.31,0.14-0.68,0.01-0.83-0.31c-0.14-0.31-0.01-0.68,0.31-0.83
		c0.31-0.14,0.68-0.01,0.83,0.31C81.5,75.01,81.36,75.38,81.05,75.53z"/>
	<path fill="#D3D005" d="M79.64,76.03c-0.06,0.13-0.17,0.24-0.31,0.31c-0.05,0.03-0.11,0.04-0.16,0.05
		c-0.27,0.05-0.55-0.09-0.67-0.35c-0.15-0.31-0.01-0.68,0.3-0.83c0.31-0.14,0.69-0.01,0.83,0.31
		C79.72,75.69,79.71,75.88,79.64,76.03z"/>
	<path fill="#D3D005" d="M77.93,77.21c-0.31,0.15-0.68,0.01-0.83-0.3c-0.14-0.31-0.01-0.68,0.31-0.83c0.31-0.14,0.68-0.01,0.83,0.31
		C78.38,76.7,78.24,77.07,77.93,77.21z"/>
	<path fill="#D3D005" d="M78.35,78.56c-0.31,0.14-0.68,0.01-0.82-0.31c-0.15-0.31-0.01-0.68,0.3-0.83c0.31-0.14,0.68-0.01,0.83,0.31
		C78.8,78.05,78.66,78.42,78.35,78.56z"/>
	<path fill="#D3D005" d="M80,79.1c-0.31,0.15-0.68,0.01-0.83-0.3c-0.14-0.31-0.01-0.68,0.31-0.83c0.31-0.14,0.68-0.01,0.83,0.31
		C80.45,78.59,80.31,78.96,80,79.1z"/>
	<path fill="#D3D005" d="M77.02,80.21c-0.31,0.14-0.68,0-0.83-0.31c-0.14-0.31-0.01-0.68,0.31-0.83c0.31-0.14,0.68-0.01,0.83,0.31
		C77.47,79.7,77.33,80.07,77.02,80.21z"/>
	<path fill="#D3D005" d="M76.45,78.42c-0.31,0.15-0.69,0.01-0.83-0.3c-0.15-0.31-0.01-0.69,0.3-0.83c0.03-0.01,0.06-0.03,0.08-0.03
		c0.08-0.03,0.15-0.03,0.23-0.03c0.22,0.02,0.42,0.15,0.52,0.36C76.9,77.9,76.76,78.28,76.45,78.42z"/>
	<path fill="#D3D005" d="M75.42,80.72c-0.31,0.15-0.68,0.01-0.82-0.3c-0.15-0.31-0.01-0.68,0.3-0.83c0.31-0.14,0.68-0.01,0.83,0.31
		C75.87,80.21,75.74,80.58,75.42,80.72z"/>
	<path fill="#D3D005" d="M75.93,82.19c-0.31,0.15-0.68,0.01-0.83-0.3c-0.14-0.31-0.01-0.69,0.31-0.83c0.31-0.15,0.68-0.01,0.83,0.3
		C76.38,81.67,76.24,82.05,75.93,82.19z"/>
	<path fill="#D3D005" d="M74.96,84.26c-0.25,0.23-0.65,0.22-0.88-0.03c-0.24-0.25-0.22-0.65,0.03-0.88
		c0.25-0.23,0.65-0.22,0.88,0.03C75.23,83.63,75.22,84.03,74.96,84.26z"/>
	<path fill="#D3D005" d="M74.62,82.76c-0.25,0.23-0.64,0.22-0.88-0.03c-0.23-0.25-0.22-0.65,0.03-0.88
		c0.25-0.23,0.64-0.22,0.88,0.03C74.88,82.13,74.87,82.52,74.62,82.76z"/>
	<path fill="#D3D005" d="M73.31,82.78c-0.04,0.34-0.34,0.59-0.69,0.56c-0.34-0.04-0.59-0.34-0.55-0.68
		c0.04-0.34,0.34-0.59,0.68-0.56C73.09,82.13,73.34,82.43,73.31,82.78z"/>
	<path fill="#D3D005" d="M73.74,84.67c-0.04,0.34-0.34,0.59-0.68,0.56c-0.34-0.04-0.59-0.34-0.56-0.68
		c0.04-0.34,0.34-0.59,0.69-0.56C73.52,84.02,73.78,84.32,73.74,84.67z"/>
	<path fill="#D3D005" d="M72.01,85.46c-0.04,0.34-0.34,0.59-0.68,0.56c-0.34-0.04-0.59-0.34-0.56-0.68
		c0.04-0.34,0.34-0.59,0.68-0.56C71.79,84.82,72.04,85.12,72.01,85.46z"/>
	<path fill="#D3D005" d="M73.86,85.91c0,0.04-0.01,0.07-0.02,0.1c-0.06,0.2-0.2,0.36-0.39,0.43c-0.09,0.03-0.18,0.04-0.27,0.03
		c-0.34-0.04-0.59-0.34-0.56-0.68c0.04-0.34,0.34-0.59,0.68-0.56C73.64,85.27,73.9,85.57,73.86,85.91z"/>
	<path fill="#D3D005" d="M72.57,87.04c-0.15,0.31-0.52,0.43-0.83,0.28c-0.31-0.15-0.43-0.52-0.28-0.83
		c0.15-0.31,0.52-0.44,0.83-0.28C72.6,86.36,72.72,86.73,72.57,87.04z"/>
	<path fill="#D3D005" d="M70.48,86.64c-0.15,0.31-0.52,0.43-0.83,0.28s-0.43-0.52-0.28-0.83c0.15-0.31,0.52-0.44,0.83-0.28
		C70.51,85.96,70.64,86.33,70.48,86.64z"/>
	<path fill="#D3D005" d="M71.31,88.18c-0.15,0.31-0.52,0.43-0.83,0.28c-0.31-0.15-0.43-0.52-0.28-0.83
		c0.15-0.31,0.52-0.44,0.83-0.28C71.34,87.5,71.46,87.88,71.31,88.18z"/>
	<path fill="#D3D005" d="M69.39,88.79c-0.15,0.31-0.52,0.43-0.83,0.28c-0.31-0.16-0.44-0.53-0.28-0.84
		c0.15-0.31,0.52-0.43,0.83-0.28C69.41,88.1,69.54,88.48,69.39,88.79z"/>
	<path fill="#D3D005" d="M68.09,89.29c-0.15,0.31-0.52,0.43-0.83,0.28c-0.31-0.16-0.44-0.53-0.28-0.84
		c0.15-0.31,0.52-0.43,0.83-0.28C68.11,88.6,68.24,88.98,68.09,89.29z"/>
	<path fill="#D3D005" d="M68.55,90.97c-0.27,0.21-0.67,0.16-0.87-0.12c-0.21-0.27-0.16-0.66,0.12-0.87
		c0.27-0.21,0.67-0.15,0.87,0.12C68.88,90.37,68.83,90.76,68.55,90.97z"/>
	<path fill="#D3D005" d="M66.8,91.43c-0.27,0.21-0.67,0.16-0.87-0.12c-0.21-0.27-0.16-0.66,0.12-0.87c0.27-0.21,0.67-0.16,0.87,0.12
		C67.13,90.83,67.07,91.22,66.8,91.43z"/>
	<path fill="#D3D005" d="M67.65,92.83l-0.07,0.08c-0.02,0.02-0.03,0.04-0.05,0.05c-0.27,0.21-0.67,0.16-0.87-0.12
		c-0.21-0.27-0.16-0.66,0.12-0.87c0.27-0.21,0.66-0.16,0.87,0.12C67.82,92.31,67.81,92.61,67.65,92.83z"/>
	<path fill="#D3D005" d="M70.14,90.08c-0.01,0.01-0.02,0.02-0.03,0.03c-0.03,0.03-0.06,0.06-0.09,0.08
		c-0.27,0.21-0.67,0.16-0.87-0.12c-0.21-0.28-0.16-0.67,0.12-0.87c0.28-0.21,0.67-0.16,0.87,0.12
		C70.32,89.55,70.31,89.87,70.14,90.08z"/>
	<path fill="#D3D005" d="M74.12,81.32c-0.25,0.24-0.64,0.22-0.88-0.03c-0.23-0.25-0.22-0.65,0.03-0.88
		c0.25-0.24,0.65-0.22,0.88,0.03C74.38,80.7,74.37,81.09,74.12,81.32z"/>
	<path fill="#D3D005" d="M63.12,94.55c0,0.34-0.28,0.62-0.62,0.62c-0.03,0-0.05,0-0.08-0.01c-0.27-0.03-0.48-0.23-0.53-0.49
		c0-0.04-0.01-0.09-0.01-0.13c0-0.35,0.28-0.62,0.62-0.62C62.85,93.92,63.12,94.2,63.12,94.55z"/>
	<path fill="#D3D005" d="M63.12,91.56c0,0.34-0.28,0.62-0.62,0.62c-0.34,0-0.62-0.28-0.62-0.62c0-0.34,0.28-0.62,0.62-0.62
		c0.06,0,0.12,0.01,0.18,0.03c0.19,0.05,0.35,0.2,0.41,0.39C63.11,91.42,63.12,91.49,63.12,91.56z"/>
	<path fill="#D3D005" d="M62.64,92.97c0,0.34-0.28,0.62-0.62,0.62s-0.62-0.28-0.62-0.62c0-0.35,0.28-0.62,0.62-0.62
		S62.64,92.62,62.64,92.97z"/>
	<path fill="#D3D005" d="M63.89,90.76c0,0.35-0.28,0.62-0.62,0.62c-0.06,0-0.12-0.01-0.18-0.03c-0.19-0.06-0.34-0.2-0.41-0.39
		c-0.03-0.07-0.04-0.14-0.04-0.21c0-0.34,0.28-0.62,0.62-0.62C63.61,90.14,63.89,90.42,63.89,90.76z"/>
</g>
<g id="druppel__x28_grijs_x29__00000092420785157848221220000001653088197177044145_">
	<path fill="#D9D9D9" d="M5.19,80.17c0,3.93-3.19,7.12-7.12,7.12s-7.12-3.19-7.12-7.12s6.81-12.85,6.81-12.85S5.19,76.24,5.19,80.17
		z"/>
	<path fill="#D9D9D9" stroke="#F5F5F5" stroke-miterlimit="10" d="M-7.17,81.27c-0.13,1.81,1.25,3.41,3.06,3.55
		c0.45,0.03,0.91-0.03,1.33-0.17"/>
</g>
<g id="druppel_00000146484620709764125070000017051474058803480732_">
	<path fill="#D9D9D9" d="M-10.49,80.17c0,3.93-3.19,7.12-7.12,7.12s-7.12-3.19-7.12-7.12s6.81-12.85,6.81-12.85
		S-10.49,76.24-10.49,80.17z"/>
	<path fill="#D9D9D9" stroke="#F5F5F5" stroke-miterlimit="10" d="M-22.84,81.27c-0.13,1.81,1.25,3.41,3.06,3.55
		c0.45,0.03,0.91-0.03,1.33-0.17"/>
</g>
<g id="druppel_00000115504743379325096370000016539885234564328324_">
	<path fill="#D9D9D9" d="M-36.78,58.75c0,3.93-3.19,7.12-7.12,7.12s-7.12-3.19-7.12-7.12S-44.2,45.9-44.2,45.9
		S-36.78,54.82-36.78,58.75z"/>
	<path fill="#D9D9D9" stroke="#F5F5F5" stroke-miterlimit="10" d="M-49.13,59.85c-0.13,1.81,1.25,3.41,3.06,3.55
		c0.45,0.03,0.91-0.03,1.33-0.17"/>
</g>
<g>
	<path fill="#D9D9D9" d="M15.75,14.93c0,4-3.19,7.25-7.12,7.25V2.21C10.02,3.97,15.75,11.41,15.75,14.93z"/>
	<g id="druppel_00000096039755935346942810000010415335647183716497_">
		<path fill="#009EE2" d="M8.75,2.58v19.6c-3.93,0-7.12-3.18-7.12-7.12c0-3.93,6.82-12.85,6.82-12.85S8.56,2.34,8.75,2.58z"/>
		<path fill="#009EE2" stroke="#F5F5F5" stroke-miterlimit="10" d="M3.51,16.17c-0.13,1.81,1.25,3.41,3.06,3.55
			c0.45,0.03,0.91-0.03,1.33-0.17"/>
	</g>
</g>
<text transform="matrix(1 0 0 1 -112.783 58.3868)" fill="#1D1D1B" font-family="'AmericanTypewriter-Bold'" font-size="12.4096px">water</text>
</svg>
