<?xml version="1.0" encoding="utf-8"?>
<!-- Generator: Adobe Illustrator 28.1.0, SVG Export Plug-In . SVG Version: 6.00 Build 0)  -->
<svg version="1.1" id="Laag_1" xmlns="http://www.w3.org/2000/svg" xmlns:xlink="http://www.w3.org/1999/xlink" x="0px" y="0px"
	 viewBox="0 0 94.77 87.58" enable-background="new 0 0 94.77 87.58" xml:space="preserve">
<path fill="none" stroke="#000000" stroke-width="3" stroke-miterlimit="10" d="M482.41,390.7H158.69c-11.82,0-21.4-9.58-21.4-21.4
	v-74.1c0-11.82,9.58-21.4,21.4-21.4h323.72c11.82,0,21.4,9.58,21.4,21.4v74.1C503.8,381.12,494.22,390.7,482.41,390.7z"/>
<path fill="none" stroke="#000000" stroke-width="3" stroke-miterlimit="10" d="M482.41,391.05H158.69c-11.82,0-21.4-9.58-21.4-21.4
	v-74.1c0-11.82,9.58-21.4,21.4-21.4h323.72c11.82,0,21.4,9.58,21.4,21.4v74.1C503.8,381.47,494.22,391.05,482.41,391.05z"/>
<circle fill="none" stroke="#000000" stroke-width="3" stroke-miterlimit="10" cx="191.9" cy="332.6" r="45.16"/>
<text transform="matrix(1 0 0 1 226.7908 293.0266)" font-family="'AmericanTypewriter-Bold'" font-size="19px">Plantnaam</text>
<g>
	<g>
		<line fill="none" stroke="#000000" stroke-width="3" stroke-miterlimit="10" x1="158.46" y1="362.95" x2="162.88" y2="358.89"/>
		
			<line fill="none" stroke="#000000" stroke-width="3" stroke-miterlimit="10" stroke-dasharray="11.187,11.187" x1="171.12" y1="351.33" x2="216.45" y2="309.72"/>
		<line fill="none" stroke="#000000" stroke-width="3" stroke-miterlimit="10" x1="220.57" y1="305.94" x2="224.99" y2="301.88"/>
	</g>
</g>
<g>
	<g>
		<line fill="none" stroke="#000000" stroke-width="3" stroke-miterlimit="10" x1="156.24" y1="304.43" x2="160.93" y2="308.18"/>
		
			<line fill="none" stroke="#000000" stroke-width="3" stroke-miterlimit="10" stroke-dasharray="11.1839,11.1839" x1="169.67" y1="315.16" x2="217.73" y2="353.54"/>
		<line fill="none" stroke="#000000" stroke-width="3" stroke-miterlimit="10" x1="222.1" y1="357.03" x2="226.79" y2="360.77"/>
	</g>
</g>
<rect x="243.56" y="303.13" fill="none" width="62.14" height="74.77"/>
<text transform="matrix(1 0 0 1 243.5604 308.5168)"><tspan x="0" y="0" font-family="'AmericanTypewriter-Bold'" font-size="8px">Hier komt </tspan><tspan x="0" y="9.6" font-family="'AmericanTypewriter-Bold'" font-size="8px">informatie </tspan><tspan x="0" y="19.2" font-family="'AmericanTypewriter-Bold'" font-size="8px">over bijvoor</tspan><tspan x="48.89" y="19.2" font-family="'AmericanTypewriter-Bold'" font-size="8px">-</tspan><tspan x="0" y="28.8" font-family="'AmericanTypewriter-Bold'" font-size="8px">beld land van </tspan><tspan x="0" y="38.4" font-family="'AmericanTypewriter-Bold'" font-size="8px">oorsprong. Of </tspan><tspan x="0" y="48" font-family="'AmericanTypewriter-Bold'" font-size="8px">waar de plant </tspan><tspan x="0" y="57.6" font-family="'AmericanTypewriter-Bold'" font-size="8px">allemaal te </tspan><tspan x="0" y="67.2" font-family="'AmericanTypewriter-Bold'" font-size="8px">vinden is </tspan></text>
<g id="druppels_00000048486908586893593170000014735733989431353246_">
	<g id="druppel__x28_grijs_x29__00000161628776745094902130000004016714849292852880_">
		<path fill="#DADADA" d="M486.38,308.47c0,3.93-3.19,7.12-7.12,7.12s-7.12-3.19-7.12-7.12c0-3.93,6.81-12.85,6.81-12.85
			S486.38,304.54,486.38,308.47z"/>
		<path fill="#DADADA" stroke="#F6F6F6" stroke-miterlimit="10" d="M474.02,309.57c-0.13,1.81,1.25,3.41,3.06,3.55
			c0.45,0.03,0.91-0.03,1.33-0.17"/>
	</g>
	<g id="druppel_00000157998952096770827000000001083274660296423586_">
		<path fill="#DADADA" d="M470.7,308.47c0,3.93-3.19,7.12-7.12,7.12s-7.12-3.19-7.12-7.12c0-3.93,6.81-12.85,6.81-12.85
			S470.7,304.54,470.7,308.47z"/>
		<path fill="#DADADA" stroke="#F6F6F6" stroke-miterlimit="10" d="M458.34,309.57c-0.13,1.81,1.25,3.41,3.06,3.55
			c0.45,0.03,0.91-0.03,1.33-0.17"/>
	</g>
	<g id="druppel_00000142177999473498385870000006106767161939359407_">
		<path fill="#009FE3" d="M473.83,256.68c0,3.93-3.19,7.12-7.12,7.12c-3.93,0-7.12-3.19-7.12-7.12c0-3.93,6.81-12.85,6.81-12.85
			S473.83,252.75,473.83,256.68z"/>
		<path fill="#009FE3" stroke="#F6F6F6" stroke-miterlimit="10" d="M461.47,257.78c-0.13,1.81,1.25,3.41,3.06,3.55
			c0.45,0.03,0.91-0.03,1.33-0.17"/>
	</g>
	<g id="druppel_00000181054631951297323610000013617573203088376725_">
		<path fill="#009FE3" d="M439.11,308.47c0,3.93-3.19,7.12-7.12,7.12c-3.93,0-7.12-3.19-7.12-7.12c0-3.93,6.81-12.85,6.81-12.85
			S439.11,304.54,439.11,308.47z"/>
		<path fill="#009FE3" stroke="#F6F6F6" stroke-miterlimit="10" d="M426.76,309.57c-0.13,1.81,1.25,3.41,3.06,3.55
			c0.45,0.03,0.91-0.03,1.33-0.17"/>
	</g>
	<g id="druppel_00000057119746680860226770000016501659744054151335_">
		<path fill="#009FE3" d="M423.17,308.47c0,3.93-3.19,7.12-7.12,7.12c-3.93,0-7.12-3.19-7.12-7.12c0-3.93,6.81-12.85,6.81-12.85
			S423.17,304.54,423.17,308.47z"/>
		<path fill="#009FE3" stroke="#F6F6F6" stroke-miterlimit="10" d="M410.82,309.57c-0.13,1.81,1.25,3.41,3.06,3.55
			c0.45,0.03,0.91-0.03,1.33-0.17"/>
	</g>
</g>
<g>
	<circle fill="#FFED00" stroke="#000000" stroke-miterlimit="10" cx="468.18" cy="220.32" r="5.07"/>
	<g>
		
			<line fill="none" stroke="#000000" stroke-miterlimit="10" stroke-dasharray="4.4257" x1="468.18" y1="208.91" x2="468.18" y2="213.34"/>
	</g>
	<g>
		
			<line fill="none" stroke="#000000" stroke-miterlimit="10" stroke-dasharray="4.4257" x1="462.48" y1="210.44" x2="464.69" y2="214.27"/>
	</g>
	<g>
		
			<line fill="none" stroke="#000000" stroke-miterlimit="10" stroke-dasharray="4.4257" x1="458.3" y1="214.62" x2="462.13" y2="216.83"/>
	</g>
	<g>
		
			<line fill="none" stroke="#000000" stroke-miterlimit="10" stroke-dasharray="4.4257" x1="456.77" y1="220.32" x2="461.2" y2="220.32"/>
	</g>
	<g>
		
			<line fill="none" stroke="#000000" stroke-miterlimit="10" stroke-dasharray="4.4257" x1="458.3" y1="226.03" x2="462.13" y2="223.82"/>
	</g>
	<g>
		
			<line fill="none" stroke="#000000" stroke-miterlimit="10" stroke-dasharray="4.4257" x1="462.48" y1="230.21" x2="464.69" y2="226.37"/>
	</g>
	<g>
		
			<line fill="none" stroke="#000000" stroke-miterlimit="10" stroke-dasharray="4.4257" x1="468.18" y1="231.73" x2="468.18" y2="227.31"/>
	</g>
	<g>
		
			<line fill="none" stroke="#000000" stroke-miterlimit="10" stroke-dasharray="4.4257" x1="473.89" y1="230.21" x2="471.67" y2="226.37"/>
	</g>
	<g>
		
			<line fill="none" stroke="#000000" stroke-miterlimit="10" stroke-dasharray="4.4257" x1="478.06" y1="226.03" x2="474.23" y2="223.82"/>
	</g>
	<g>
		
			<line fill="none" stroke="#000000" stroke-miterlimit="10" stroke-dasharray="4.4257" x1="479.59" y1="220.32" x2="475.17" y2="220.32"/>
	</g>
	<g>
		
			<line fill="none" stroke="#000000" stroke-miterlimit="10" stroke-dasharray="4.4257" x1="478.06" y1="214.62" x2="474.23" y2="216.83"/>
	</g>
	<g>
		
			<line fill="none" stroke="#000000" stroke-miterlimit="10" stroke-dasharray="4.4257" x1="473.89" y1="210.44" x2="471.67" y2="214.27"/>
	</g>
</g>
<g>
	<path fill="#FFFFFF" stroke="#000000" stroke-miterlimit="10" d="M460.08,199.76h-10.15c-1.97,0-3.57-1.6-3.57-3.57v0
		c0-1.97,1.6-3.57,3.57-3.57h10.15c1.97,0,3.57,1.6,3.57,3.57v0C463.65,198.16,462.05,199.76,460.08,199.76z"/>
	<g>
		
			<line fill="none" stroke="#000000" stroke-miterlimit="10" stroke-dasharray="3.5812" x1="449.34" y1="186.68" x2="452.92" y2="186.68"/>
	</g>
	<circle fill="#FFED00" stroke="#000000" stroke-miterlimit="10" cx="460.55" cy="186.68" r="6.18"/>
	<circle fill="#FFFFFF" stroke="#000000" stroke-miterlimit="10" cx="449.16" cy="191.67" r="3.85"/>
	<circle fill="#FFFFFF" stroke="#000000" stroke-miterlimit="10" cx="453.61" cy="189.49" r="4.44"/>
	<circle fill="#FFFFFF" stroke="#000000" stroke-miterlimit="10" cx="460.37" cy="192.31" r="4.15"/>
	<circle fill="#FFFFFF" stroke="#000000" stroke-miterlimit="10" cx="453.54" cy="195.59" r="4.25"/>
	<circle fill="#FFFFFF" stroke="#000000" stroke-miterlimit="10" cx="463.06" cy="195.06" r="4.25"/>
	<circle fill="#FFFFFF" stroke="#000000" stroke-miterlimit="10" cx="447.11" cy="195.79" r="3.48"/>
	<g>
		
			<line fill="none" stroke="#000000" stroke-miterlimit="10" stroke-dasharray="3.5812" x1="460.55" y1="175.47" x2="460.55" y2="179.05"/>
	</g>
	<g>
		
			<line fill="none" stroke="#000000" stroke-miterlimit="10" stroke-dasharray="3.5812" x1="454.95" y1="176.97" x2="456.74" y2="180.07"/>
	</g>
	<g>
		
			<line fill="none" stroke="#000000" stroke-miterlimit="10" stroke-dasharray="3.5812" x1="450.85" y1="181.07" x2="453.95" y2="182.86"/>
	</g>
	<g>
		
			<line fill="none" stroke="#000000" stroke-miterlimit="10" stroke-dasharray="3.5812" x1="470.26" y1="192.28" x2="467.16" y2="190.49"/>
	</g>
	<g>
		
			<line fill="none" stroke="#000000" stroke-miterlimit="10" stroke-dasharray="3.5812" x1="471.76" y1="186.68" x2="468.18" y2="186.68"/>
	</g>
	<g>
		
			<line fill="none" stroke="#000000" stroke-miterlimit="10" stroke-dasharray="3.5812" x1="470.26" y1="181.07" x2="467.16" y2="182.86"/>
	</g>
	<g>
		
			<line fill="none" stroke="#000000" stroke-miterlimit="10" stroke-dasharray="3.5812" x1="466.16" y1="176.97" x2="464.37" y2="180.07"/>
	</g>
</g>
<g>
	<path fill="#DADADA" stroke="#B2B2B2" stroke-miterlimit="10" d="M351.99,176.22h-10.15c-1.97,0-3.57-1.6-3.57-3.57v0
		c0-1.97,1.6-3.57,3.57-3.57h10.15c1.97,0,3.57,1.6,3.57,3.57v0C355.56,174.62,353.96,176.22,351.99,176.22z"/>
	<circle fill="#DADADA" stroke="#B2B2B2" stroke-miterlimit="10" cx="341.07" cy="168.13" r="3.85"/>
	<circle fill="#DADADA" stroke="#B2B2B2" stroke-miterlimit="10" cx="345.51" cy="165.95" r="4.44"/>
	<circle fill="#DADADA" stroke="#B2B2B2" stroke-miterlimit="10" cx="352.28" cy="168.77" r="4.15"/>
	<circle fill="#DADADA" stroke="#B2B2B2" stroke-miterlimit="10" cx="345.44" cy="172.05" r="4.25"/>
	<circle fill="#DADADA" stroke="#B2B2B2" stroke-miterlimit="10" cx="354.97" cy="171.52" r="4.25"/>
	<circle fill="#DADADA" stroke="#B2B2B2" stroke-miterlimit="10" cx="339.02" cy="172.25" r="3.48"/>
</g>
<path fill="#FFED00" stroke="#000000" stroke-miterlimit="10" d="M303.49,224.98l3.96-0.03v12.48c0.14-0.02,0.26-0.1,0.34-0.23
	l7.96-13.54c0.19-0.32-0.04-0.72-0.41-0.72l-4.04-0.03v-12.54c-0.19-0.03-0.38,0.05-0.49,0.24l-7.75,13.67
	C302.88,224.58,303.12,224.98,303.49,224.98z"/>
<path fill="#DADADA" stroke="#B2B2B2" stroke-miterlimit="10" d="M320.92,224.98l3.96-0.03v12.48c0.14-0.02,0.26-0.1,0.34-0.23
	l7.96-13.54c0.19-0.32-0.04-0.72-0.41-0.72l-4.04-0.03v-12.54c-0.19-0.03-0.38,0.05-0.49,0.24l-7.75,13.67
	C320.32,224.58,320.55,224.98,320.92,224.98z"/>
<path fill="#DADADA" stroke="#B2B2B2" stroke-miterlimit="10" d="M374.83,247.72l3.96-0.03v12.48c0.14-0.02,0.26-0.1,0.34-0.23
	l7.96-13.54c0.19-0.32-0.04-0.72-0.41-0.72l-4.04-0.03V233.1c-0.19-0.03-0.38,0.05-0.49,0.24l-7.75,13.67
	C374.23,247.33,374.46,247.72,374.83,247.72z"/>
<text transform="matrix(1 0 0 1 363.1064 308.1049)" font-family="'AmericanTypewriter-Bold'" font-size="12.4096px">water</text>
<text transform="matrix(1 0 0 1 349.0363 339.6946)" font-family="'AmericanTypewriter-Bold'" font-size="12.4096px">zonlicht</text>
<text transform="matrix(1 0 0 1 320.766 372.3852)" font-family="'AmericanTypewriter-Bold'" font-size="12.4096px">moeilijkheid</text>
<g>
	<g>
		<rect x="476.49" y="282.73" fill="none" width="11.63" height="13.11"/>
	</g>
</g>
<g>
	
		<line fill="none" stroke="#000000" stroke-linecap="round" stroke-linejoin="bevel" stroke-miterlimit="10" x1="287.67" y1="158.49" x2="287.67" y2="171.6"/>
	<g>
		
			<line fill="none" stroke="#000000" stroke-linecap="round" stroke-linejoin="bevel" stroke-dasharray="10.3377" x1="295.66" y1="165.04" x2="287.67" y2="171.6"/>
	</g>
	<g>
		
			<line fill="none" stroke="#000000" stroke-linecap="round" stroke-linejoin="bevel" stroke-dasharray="10.3381" x1="287.67" y1="158.49" x2="295.66" y2="165.04"/>
	</g>
</g>
<g>
	<g>
		<g>
			<path fill="#C6C6C6" stroke="#B2B2B2" stroke-miterlimit="10" d="M398.02,233.35l-6.34,10.78v-21.35l1.41-2.49
				c0.1-0.18,0.3-0.26,0.49-0.23v12.54l4.03,0.03C397.98,232.63,398.21,233.03,398.02,233.35z"/>
			<path fill="#FFED00" stroke="#000000" stroke-miterlimit="10" d="M391.68,222.78v21.35l-1.62,2.76c-0.08,0.14-0.2,0.22-0.34,0.24
				v-12.49l-3.96,0.03c-0.37,0.01-0.6-0.39-0.42-0.71L391.68,222.78z"/>
		</g>
		
			<line fill="none" stroke="#B2B2B2" stroke-width="0.5" stroke-linecap="round" stroke-miterlimit="10" x1="391.68" y1="222.78" x2="391.68" y2="244.13"/>
	</g>
	
		<line fill="none" stroke="#B2B2B2" stroke-width="0.5" stroke-linecap="round" stroke-miterlimit="10" x1="392.24" y1="221.71" x2="391.68" y2="222.78"/>
	
		<line fill="none" stroke="#B2B2B2" stroke-width="0.5" stroke-linecap="round" stroke-miterlimit="10" x1="392.34" y1="242.99" x2="391.68" y2="244.13"/>
</g>
<polygon fill="#878787" stroke="#000000" stroke-linecap="round" stroke-linejoin="round" stroke-miterlimit="10" points="
	93.97,52.01 85.97,52.01 47.39,21.19 8.8,52.01 0.8,52.01 47.39,14.8 "/>
<path fill="#878787" stroke="#000000" stroke-linecap="round" stroke-linejoin="round" stroke-miterlimit="10" d="M47.39,26.24
	l-31.68,25.3v18.43c0,3.8,3.86,6.88,8.62,6.88h46.11c4.76,0,8.62-3.08,8.62-6.88V51.54L47.39,26.24z M56.67,69.53
	c0,2.09-1.69,3.79-3.78,3.79H41.88c-2.09,0-3.79-1.7-3.79-3.79V55.28c0-2.09,1.7-3.78,3.79-3.78h11.01c2.09,0,3.78,1.69,3.78,3.78
	V69.53z"/>
</svg>
