<?xml version="1.0" encoding="utf-8"?>
<!-- Generator: Adobe Illustrator 28.1.0, SVG Export Plug-In . SVG Version: 6.00 Build 0)  -->
<svg version="1.1" id="Laag_1" xmlns="http://www.w3.org/2000/svg" xmlns:xlink="http://www.w3.org/1999/xlink" x="0px" y="0px"
	 viewBox="0 0 48.73 64.22" enable-background="new 0 0 48.73 64.22" xml:space="preserve">
<path fill="none" stroke="#000000" stroke-width="3" stroke-miterlimit="10" d="M462.67,378.78H138.95c-11.82,0-21.4-9.58-21.4-21.4
	v-74.1c0-11.82,9.58-21.4,21.4-21.4h323.72c11.82,0,21.4,9.58,21.4,21.4v74.1C484.07,369.2,474.48,378.78,462.67,378.78z"/>
<path fill="none" stroke="#000000" stroke-width="3" stroke-miterlimit="10" d="M462.67,379.14H138.95c-11.82,0-21.4-9.58-21.4-21.4
	v-74.1c0-11.82,9.58-21.4,21.4-21.4h323.72c11.82,0,21.4,9.58,21.4,21.4v74.1C484.07,369.55,474.48,379.14,462.67,379.14z"/>
<circle fill="none" stroke="#000000" stroke-width="3" stroke-miterlimit="10" cx="172.16" cy="320.69" r="45.16"/>
<text transform="matrix(1 0 0 1 207.0526 281.1098)" font-family="'AmericanTypewriter-Bold'" font-size="19px">Plantnaam</text>
<g>
	<g>
		<line fill="none" stroke="#000000" stroke-width="3" stroke-miterlimit="10" x1="138.72" y1="351.03" x2="143.14" y2="346.97"/>
		
			<line fill="none" stroke="#000000" stroke-width="3" stroke-miterlimit="10" stroke-dasharray="11.187,11.187" x1="151.38" y1="339.41" x2="196.71" y2="297.8"/>
		<line fill="none" stroke="#000000" stroke-width="3" stroke-miterlimit="10" x1="200.83" y1="294.02" x2="205.25" y2="289.96"/>
	</g>
</g>
<g>
	<g>
		<line fill="none" stroke="#000000" stroke-width="3" stroke-miterlimit="10" x1="136.5" y1="292.52" x2="141.19" y2="296.26"/>
		
			<line fill="none" stroke="#000000" stroke-width="3" stroke-miterlimit="10" stroke-dasharray="11.1839,11.1839" x1="149.93" y1="303.24" x2="198" y2="341.62"/>
		<line fill="none" stroke="#000000" stroke-width="3" stroke-miterlimit="10" x1="202.36" y1="345.11" x2="207.05" y2="348.86"/>
	</g>
</g>
<rect x="223.82" y="291.22" fill="none" width="62.14" height="74.77"/>
<text transform="matrix(1 0 0 1 223.8222 296.6)"><tspan x="0" y="0" font-family="'AmericanTypewriter-Bold'" font-size="8px">Hier komt </tspan><tspan x="0" y="9.6" font-family="'AmericanTypewriter-Bold'" font-size="8px">informatie </tspan><tspan x="0" y="19.2" font-family="'AmericanTypewriter-Bold'" font-size="8px">over bijvoor</tspan><tspan x="48.89" y="19.2" font-family="'AmericanTypewriter-Bold'" font-size="8px">-</tspan><tspan x="0" y="28.8" font-family="'AmericanTypewriter-Bold'" font-size="8px">beld land van </tspan><tspan x="0" y="38.4" font-family="'AmericanTypewriter-Bold'" font-size="8px">oorsprong. Of </tspan><tspan x="0" y="48" font-family="'AmericanTypewriter-Bold'" font-size="8px">waar de plant </tspan><tspan x="0" y="57.6" font-family="'AmericanTypewriter-Bold'" font-size="8px">allemaal te </tspan><tspan x="0" y="67.2" font-family="'AmericanTypewriter-Bold'" font-size="8px">vinden is </tspan></text>
<g id="druppels_00000048486908586893593170000014735733989431353246_">
	<g id="druppel__x28_grijs_x29__00000161628776745094902130000004016714849292852880_">
		<path fill="#DADADA" d="M466.64,296.55c0,3.93-3.19,7.12-7.12,7.12s-7.12-3.19-7.12-7.12c0-3.93,6.81-12.85,6.81-12.85
			S466.64,292.62,466.64,296.55z"/>
		<path fill="#DADADA" stroke="#F6F6F6" stroke-miterlimit="10" d="M454.28,297.65c-0.13,1.81,1.25,3.41,3.06,3.55
			c0.45,0.03,0.91-0.03,1.33-0.17"/>
	</g>
	<g id="druppel_00000157998952096770827000000001083274660296423586_">
		<path fill="#DADADA" d="M450.96,296.55c0,3.93-3.19,7.12-7.12,7.12s-7.12-3.19-7.12-7.12c0-3.93,6.81-12.85,6.81-12.85
			S450.96,292.62,450.96,296.55z"/>
		<path fill="#DADADA" stroke="#F6F6F6" stroke-miterlimit="10" d="M438.61,297.65c-0.13,1.81,1.25,3.41,3.06,3.55
			c0.45,0.03,0.91-0.03,1.33-0.17"/>
	</g>
	<g id="druppel_00000142177999473498385870000006106767161939359407_">
		<path fill="#009FE3" d="M454.09,244.77c0,3.93-3.19,7.12-7.12,7.12s-7.12-3.19-7.12-7.12s6.81-12.85,6.81-12.85
			S454.09,240.84,454.09,244.77z"/>
		<path fill="#009FE3" stroke="#F6F6F6" stroke-miterlimit="10" d="M441.74,245.87c-0.13,1.81,1.25,3.41,3.06,3.55
			c0.45,0.03,0.91-0.03,1.33-0.17"/>
	</g>
	<g id="druppel_00000181054631951297323610000013617573203088376725_">
		<path fill="#009FE3" d="M419.37,296.55c0,3.93-3.19,7.12-7.12,7.12s-7.12-3.19-7.12-7.12c0-3.93,6.81-12.85,6.81-12.85
			S419.37,292.62,419.37,296.55z"/>
		<path fill="#009FE3" stroke="#F6F6F6" stroke-miterlimit="10" d="M407.02,297.65c-0.13,1.81,1.25,3.41,3.06,3.55
			c0.45,0.03,0.91-0.03,1.33-0.17"/>
	</g>
	<g id="druppel_00000057119746680860226770000016501659744054151335_">
		<path fill="#009FE3" d="M403.44,296.55c0,3.93-3.19,7.12-7.12,7.12c-3.93,0-7.12-3.19-7.12-7.12c0-3.93,6.81-12.85,6.81-12.85
			S403.44,292.62,403.44,296.55z"/>
		<path fill="#009FE3" stroke="#F6F6F6" stroke-miterlimit="10" d="M391.08,297.65c-0.13,1.81,1.25,3.41,3.06,3.55
			c0.45,0.03,0.91-0.03,1.33-0.17"/>
	</g>
</g>
<g>
	<circle fill="#FFED00" stroke="#000000" stroke-miterlimit="10" cx="448.44" cy="208.41" r="5.07"/>
	<g>
		
			<line fill="none" stroke="#000000" stroke-miterlimit="10" stroke-dasharray="4.4257" x1="448.44" y1="197" x2="448.44" y2="201.42"/>
	</g>
	<g>
		
			<line fill="none" stroke="#000000" stroke-miterlimit="10" stroke-dasharray="4.4257" x1="442.74" y1="198.53" x2="444.95" y2="202.36"/>
	</g>
	<g>
		
			<line fill="none" stroke="#000000" stroke-miterlimit="10" stroke-dasharray="4.4257" x1="438.56" y1="202.7" x2="442.39" y2="204.91"/>
	</g>
	<g>
		
			<line fill="none" stroke="#000000" stroke-miterlimit="10" stroke-dasharray="4.4257" x1="437.03" y1="208.41" x2="441.46" y2="208.41"/>
	</g>
	<g>
		
			<line fill="none" stroke="#000000" stroke-miterlimit="10" stroke-dasharray="4.4257" x1="438.56" y1="214.11" x2="442.39" y2="211.9"/>
	</g>
	<g>
		
			<line fill="none" stroke="#000000" stroke-miterlimit="10" stroke-dasharray="4.4257" x1="442.74" y1="218.29" x2="444.95" y2="214.46"/>
	</g>
	<g>
		
			<line fill="none" stroke="#000000" stroke-miterlimit="10" stroke-dasharray="4.4257" x1="448.44" y1="219.82" x2="448.44" y2="215.39"/>
	</g>
	<g>
		
			<line fill="none" stroke="#000000" stroke-miterlimit="10" stroke-dasharray="4.4257" x1="454.15" y1="218.29" x2="451.94" y2="214.46"/>
	</g>
	<g>
		
			<line fill="none" stroke="#000000" stroke-miterlimit="10" stroke-dasharray="4.4257" x1="458.33" y1="214.11" x2="454.49" y2="211.9"/>
	</g>
	<g>
		
			<line fill="none" stroke="#000000" stroke-miterlimit="10" stroke-dasharray="4.4257" x1="459.85" y1="208.41" x2="455.43" y2="208.41"/>
	</g>
	<g>
		
			<line fill="none" stroke="#000000" stroke-miterlimit="10" stroke-dasharray="4.4257" x1="458.33" y1="202.7" x2="454.49" y2="204.91"/>
	</g>
	<g>
		
			<line fill="none" stroke="#000000" stroke-miterlimit="10" stroke-dasharray="4.4257" x1="454.15" y1="198.53" x2="451.94" y2="202.36"/>
	</g>
</g>
<g>
	<path fill="#FFFFFF" stroke="#000000" stroke-miterlimit="10" d="M440.34,187.84H430.2c-1.97,0-3.57-1.6-3.57-3.57l0,0
		c0-1.97,1.6-3.57,3.57-3.57h10.15c1.97,0,3.57,1.6,3.57,3.57l0,0C443.92,186.24,442.32,187.84,440.34,187.84z"/>
	<g>
		
			<line fill="none" stroke="#000000" stroke-miterlimit="10" stroke-dasharray="3.5812" x1="429.61" y1="174.76" x2="433.19" y2="174.76"/>
	</g>
	<circle fill="#FFED00" stroke="#000000" stroke-miterlimit="10" cx="440.81" cy="174.76" r="6.18"/>
	<circle fill="#FFFFFF" stroke="#000000" stroke-miterlimit="10" cx="429.43" cy="179.75" r="3.85"/>
	<circle fill="#FFFFFF" stroke="#000000" stroke-miterlimit="10" cx="433.87" cy="177.58" r="4.44"/>
	<circle fill="#FFFFFF" stroke="#000000" stroke-miterlimit="10" cx="440.63" cy="180.39" r="4.15"/>
	<circle fill="#FFFFFF" stroke="#000000" stroke-miterlimit="10" cx="433.8" cy="183.67" r="4.25"/>
	<circle fill="#FFFFFF" stroke="#000000" stroke-miterlimit="10" cx="443.33" cy="183.14" r="4.25"/>
	<circle fill="#FFFFFF" stroke="#000000" stroke-miterlimit="10" cx="427.37" cy="183.87" r="3.48"/>
	<g>
		
			<line fill="none" stroke="#000000" stroke-miterlimit="10" stroke-dasharray="3.5812" x1="440.81" y1="163.55" x2="440.81" y2="167.13"/>
	</g>
	<g>
		
			<line fill="none" stroke="#000000" stroke-miterlimit="10" stroke-dasharray="3.5812" x1="435.21" y1="165.05" x2="437" y2="168.16"/>
	</g>
	<g>
		
			<line fill="none" stroke="#000000" stroke-miterlimit="10" stroke-dasharray="3.5812" x1="431.11" y1="169.16" x2="434.21" y2="170.95"/>
	</g>
	<g>
		
			<line fill="none" stroke="#000000" stroke-miterlimit="10" stroke-dasharray="3.5812" x1="450.52" y1="180.37" x2="447.42" y2="178.58"/>
	</g>
	<g>
		
			<line fill="none" stroke="#000000" stroke-miterlimit="10" stroke-dasharray="3.5812" x1="452.02" y1="174.76" x2="448.44" y2="174.76"/>
	</g>
	<g>
		
			<line fill="none" stroke="#000000" stroke-miterlimit="10" stroke-dasharray="3.5812" x1="450.52" y1="169.16" x2="447.42" y2="170.95"/>
	</g>
	<g>
		
			<line fill="none" stroke="#000000" stroke-miterlimit="10" stroke-dasharray="3.5812" x1="446.42" y1="165.05" x2="444.63" y2="168.16"/>
	</g>
</g>
<g>
	<path fill="#DADADA" stroke="#B2B2B2" stroke-miterlimit="10" d="M332.25,164.3H322.1c-1.97,0-3.57-1.6-3.57-3.57l0,0
		c0-1.97,1.6-3.57,3.57-3.57h10.15c1.97,0,3.57,1.6,3.57,3.57l0,0C335.83,162.7,334.22,164.3,332.25,164.3z"/>
	<circle fill="#DADADA" stroke="#B2B2B2" stroke-miterlimit="10" cx="321.34" cy="156.21" r="3.85"/>
	<circle fill="#DADADA" stroke="#B2B2B2" stroke-miterlimit="10" cx="325.78" cy="154.03" r="4.44"/>
	<circle fill="#DADADA" stroke="#B2B2B2" stroke-miterlimit="10" cx="332.54" cy="156.85" r="4.15"/>
	<circle fill="#DADADA" stroke="#B2B2B2" stroke-miterlimit="10" cx="325.71" cy="160.13" r="4.25"/>
	<circle fill="#DADADA" stroke="#B2B2B2" stroke-miterlimit="10" cx="335.23" cy="159.6" r="4.25"/>
	<circle fill="#DADADA" stroke="#B2B2B2" stroke-miterlimit="10" cx="319.28" cy="160.33" r="3.48"/>
</g>
<path fill="#FFED00" stroke="#000000" stroke-miterlimit="10" d="M283.75,213.06l3.96-0.03v12.48c0.14-0.02,0.26-0.1,0.34-0.23
	l7.96-13.54c0.19-0.32-0.04-0.72-0.41-0.72l-4.04-0.03v-12.54c-0.19-0.03-0.38,0.05-0.49,0.24l-7.75,13.67
	C283.15,212.66,283.38,213.06,283.75,213.06z"/>
<path fill="#DADADA" stroke="#B2B2B2" stroke-miterlimit="10" d="M301.18,213.06l3.96-0.03v12.48c0.14-0.02,0.26-0.1,0.34-0.23
	l7.96-13.54c0.19-0.32-0.04-0.72-0.41-0.72l-4.04-0.03v-12.54c-0.19-0.03-0.38,0.05-0.49,0.24l-7.75,13.67
	C300.58,212.66,300.81,213.06,301.18,213.06z"/>
<path fill="#DADADA" stroke="#B2B2B2" stroke-miterlimit="10" d="M355.09,235.8l3.96-0.03v12.48c0.14-0.02,0.26-0.1,0.34-0.23
	l7.96-13.54c0.19-0.32-0.04-0.72-0.41-0.72l-4.04-0.03v-12.54c-0.19-0.03-0.38,0.05-0.49,0.24l-7.75,13.67
	C354.49,235.41,354.73,235.81,355.09,235.8z"/>
<text transform="matrix(1 0 0 1 343.3682 296.1881)" font-family="'AmericanTypewriter-Bold'" font-size="12.4096px">water</text>
<text transform="matrix(1 0 0 1 329.2981 327.7778)" font-family="'AmericanTypewriter-Bold'" font-size="12.4096px">zonlicht</text>
<text transform="matrix(1 0 0 1 301.0278 360.4684)" font-family="'AmericanTypewriter-Bold'" font-size="12.4096px">moeilijkheid</text>
<g>
	<g>
		<rect x="456.75" y="270.81" fill="none" width="11.63" height="13.11"/>
	</g>
</g>
<g>
	
		<line fill="none" stroke="#000000" stroke-linecap="round" stroke-linejoin="bevel" stroke-miterlimit="10" x1="267.93" y1="146.57" x2="267.93" y2="159.68"/>
	<g>
		
			<line fill="none" stroke="#000000" stroke-linecap="round" stroke-linejoin="bevel" stroke-dasharray="10.3377" x1="275.93" y1="153.12" x2="267.93" y2="159.68"/>
	</g>
	<g>
		
			<line fill="none" stroke="#000000" stroke-linecap="round" stroke-linejoin="bevel" stroke-dasharray="10.3381" x1="267.93" y1="146.57" x2="275.93" y2="153.12"/>
	</g>
</g>
<g>
	<g>
		<g>
			<path fill="#C6C6C6" stroke="#B2B2B2" stroke-miterlimit="10" d="M378.28,221.43l-6.34,10.78v-21.35l1.41-2.49
				c0.1-0.18,0.3-0.26,0.49-0.23v12.54l4.03,0.03C378.24,220.71,378.47,221.11,378.28,221.43z"/>
			<path fill="#FFED00" stroke="#000000" stroke-miterlimit="10" d="M371.94,210.86v21.35l-1.62,2.76c-0.08,0.14-0.2,0.22-0.34,0.24
				v-12.49l-3.96,0.03c-0.37,0.01-0.6-0.39-0.42-0.71L371.94,210.86z"/>
		</g>
		
			<line fill="none" stroke="#B2B2B2" stroke-width="0.5" stroke-linecap="round" stroke-miterlimit="10" x1="371.94" y1="210.86" x2="371.94" y2="232.21"/>
	</g>
	
		<line fill="none" stroke="#B2B2B2" stroke-width="0.5" stroke-linecap="round" stroke-miterlimit="10" x1="372.51" y1="209.79" x2="371.94" y2="210.86"/>
	
		<line fill="none" stroke="#B2B2B2" stroke-width="0.5" stroke-linecap="round" stroke-miterlimit="10" x1="372.6" y1="231.08" x2="371.94" y2="232.21"/>
</g>
<g>
	<path fill="#FFED00" stroke="#000000" stroke-miterlimit="10" d="M46.97,25.02c0,6.4-2.71,12.15-7.06,16.18H9.87
		c-4.34-4.03-7.05-9.79-7.05-16.18c0-12.19,9.88-22.07,22.07-22.07C37.09,2.95,46.97,12.83,46.97,25.02z"/>
	<path fill="#B2B2B2" stroke="#000000" stroke-miterlimit="10" d="M32.4,57.85c-1.97,1.83-4.61,2.95-7.51,2.95s-5.54-1.12-7.51-2.95
		H32.4z"/>
	<rect x="11.81" y="45.3" fill="#B2B2B2" stroke="#000000" stroke-miterlimit="10" width="26.16" height="3.79"/>
	<rect x="14.64" y="51.62" fill="#B2B2B2" stroke="#000000" stroke-miterlimit="10" width="20.5" height="2.46"/>
</g>
</svg>
