<?xml version="1.0" encoding="utf-8"?>
<!-- Generator: Adobe Illustrator 28.1.0, SVG Export Plug-In . SVG Version: 6.00 Build 0)  -->
<svg version="1.1" id="Laag_1" xmlns="http://www.w3.org/2000/svg" xmlns:xlink="http://www.w3.org/1999/xlink" x="0px" y="0px"
	 viewBox="0 0 94.77 96" enable-background="new 0 0 94.77 96" xml:space="preserve">
<path fill="none" stroke="#000000" stroke-width="3" stroke-miterlimit="10" d="M482.41,399.11H158.69c-11.82,0-21.4-9.58-21.4-21.4
	v-74.1c0-11.82,9.58-21.4,21.4-21.4h323.72c11.82,0,21.4,9.58,21.4,21.4v74.1C503.8,389.53,494.22,399.11,482.41,399.11z"/>
<path fill="none" stroke="#000000" stroke-width="3" stroke-miterlimit="10" d="M482.41,399.47H158.69c-11.82,0-21.4-9.58-21.4-21.4
	v-74.1c0-11.82,9.58-21.4,21.4-21.4h323.72c11.82,0,21.4,9.58,21.4,21.4v74.1C503.8,389.89,494.22,399.47,482.41,399.47z"/>
<circle fill="none" stroke="#000000" stroke-width="3" stroke-miterlimit="10" cx="191.9" cy="341.02" r="45.16"/>
<text transform="matrix(1 0 0 1 226.7908 301.4453)" font-family="'AmericanTypewriter-Bold'" font-size="19px">Plantnaam</text>
<g>
	<g>
		<line fill="none" stroke="#000000" stroke-width="3" stroke-miterlimit="10" x1="158.46" y1="371.37" x2="162.88" y2="367.31"/>
		
			<line fill="none" stroke="#000000" stroke-width="3" stroke-miterlimit="10" stroke-dasharray="11.187,11.187" x1="171.12" y1="359.75" x2="216.45" y2="318.14"/>
		<line fill="none" stroke="#000000" stroke-width="3" stroke-miterlimit="10" x1="220.57" y1="314.36" x2="224.99" y2="310.3"/>
	</g>
</g>
<g>
	<g>
		<line fill="none" stroke="#000000" stroke-width="3" stroke-miterlimit="10" x1="156.24" y1="312.85" x2="160.93" y2="316.6"/>
		
			<line fill="none" stroke="#000000" stroke-width="3" stroke-miterlimit="10" stroke-dasharray="11.1839,11.1839" x1="169.67" y1="323.58" x2="217.73" y2="361.96"/>
		<line fill="none" stroke="#000000" stroke-width="3" stroke-miterlimit="10" x1="222.1" y1="365.45" x2="226.79" y2="369.19"/>
	</g>
</g>
<rect x="243.56" y="311.55" fill="none" width="62.14" height="74.77"/>
<text transform="matrix(1 0 0 1 243.5604 316.9355)"><tspan x="0" y="0" font-family="'AmericanTypewriter-Bold'" font-size="8px">Hier komt </tspan><tspan x="0" y="9.6" font-family="'AmericanTypewriter-Bold'" font-size="8px">informatie </tspan><tspan x="0" y="19.2" font-family="'AmericanTypewriter-Bold'" font-size="8px">over bijvoor</tspan><tspan x="48.89" y="19.2" font-family="'AmericanTypewriter-Bold'" font-size="8px">-</tspan><tspan x="0" y="28.8" font-family="'AmericanTypewriter-Bold'" font-size="8px">beld land van </tspan><tspan x="0" y="38.4" font-family="'AmericanTypewriter-Bold'" font-size="8px">oorsprong. Of </tspan><tspan x="0" y="48" font-family="'AmericanTypewriter-Bold'" font-size="8px">waar de plant </tspan><tspan x="0" y="57.6" font-family="'AmericanTypewriter-Bold'" font-size="8px">allemaal te </tspan><tspan x="0" y="67.2" font-family="'AmericanTypewriter-Bold'" font-size="8px">vinden is </tspan></text>
<g id="druppels_00000048486908586893593170000014735733989431353246_">
	<g id="druppel__x28_grijs_x29__00000161628776745094902130000004016714849292852880_">
		<path fill="#DADADA" d="M486.38,316.89c0,3.93-3.19,7.12-7.12,7.12s-7.12-3.19-7.12-7.12c0-3.93,6.81-12.85,6.81-12.85
			S486.38,312.96,486.38,316.89z"/>
		<path fill="#DADADA" stroke="#F6F6F6" stroke-miterlimit="10" d="M474.02,317.99c-0.13,1.81,1.25,3.41,3.06,3.55
			c0.45,0.03,0.91-0.03,1.33-0.17"/>
	</g>
	<g id="druppel_00000157998952096770827000000001083274660296423586_">
		<path fill="#DADADA" d="M470.7,316.89c0,3.93-3.19,7.12-7.12,7.12s-7.12-3.19-7.12-7.12c0-3.93,6.81-12.85,6.81-12.85
			S470.7,312.96,470.7,316.89z"/>
		<path fill="#DADADA" stroke="#F6F6F6" stroke-miterlimit="10" d="M458.34,317.99c-0.13,1.81,1.25,3.41,3.06,3.55
			c0.45,0.03,0.91-0.03,1.33-0.17"/>
	</g>
	<g id="druppel_00000142177999473498385870000006106767161939359407_">
		<path fill="#009FE3" d="M473.83,265.1c0,3.93-3.19,7.12-7.12,7.12c-3.93,0-7.12-3.19-7.12-7.12c0-3.93,6.81-12.85,6.81-12.85
			S473.83,261.17,473.83,265.1z"/>
		<path fill="#009FE3" stroke="#F6F6F6" stroke-miterlimit="10" d="M461.47,266.2c-0.13,1.81,1.25,3.41,3.06,3.55
			c0.45,0.03,0.91-0.03,1.33-0.17"/>
	</g>
	<g id="druppel_00000181054631951297323610000013617573203088376725_">
		<path fill="#009FE3" d="M439.11,316.89c0,3.93-3.19,7.12-7.12,7.12c-3.93,0-7.12-3.19-7.12-7.12c0-3.93,6.81-12.85,6.81-12.85
			S439.11,312.96,439.11,316.89z"/>
		<path fill="#009FE3" stroke="#F6F6F6" stroke-miterlimit="10" d="M426.76,317.99c-0.13,1.81,1.25,3.41,3.06,3.55
			c0.45,0.03,0.91-0.03,1.33-0.17"/>
	</g>
	<g id="druppel_00000057119746680860226770000016501659744054151335_">
		<path fill="#009FE3" d="M423.17,316.89c0,3.93-3.19,7.12-7.12,7.12c-3.93,0-7.12-3.19-7.12-7.12c0-3.93,6.81-12.85,6.81-12.85
			S423.17,312.96,423.17,316.89z"/>
		<path fill="#009FE3" stroke="#F6F6F6" stroke-miterlimit="10" d="M410.82,317.99c-0.13,1.81,1.25,3.41,3.06,3.55
			c0.45,0.03,0.91-0.03,1.33-0.17"/>
	</g>
</g>
<g>
	<circle fill="#FFED00" stroke="#000000" stroke-miterlimit="10" cx="468.18" cy="228.74" r="5.07"/>
	<g>
		
			<line fill="none" stroke="#000000" stroke-miterlimit="10" stroke-dasharray="4.4257" x1="468.18" y1="217.33" x2="468.18" y2="221.76"/>
	</g>
	<g>
		
			<line fill="none" stroke="#000000" stroke-miterlimit="10" stroke-dasharray="4.4257" x1="462.48" y1="218.86" x2="464.69" y2="222.69"/>
	</g>
	<g>
		
			<line fill="none" stroke="#000000" stroke-miterlimit="10" stroke-dasharray="4.4257" x1="458.3" y1="223.04" x2="462.13" y2="225.25"/>
	</g>
	<g>
		
			<line fill="none" stroke="#000000" stroke-miterlimit="10" stroke-dasharray="4.4257" x1="456.77" y1="228.74" x2="461.2" y2="228.74"/>
	</g>
	<g>
		
			<line fill="none" stroke="#000000" stroke-miterlimit="10" stroke-dasharray="4.4257" x1="458.3" y1="234.45" x2="462.13" y2="232.24"/>
	</g>
	<g>
		
			<line fill="none" stroke="#000000" stroke-miterlimit="10" stroke-dasharray="4.4257" x1="462.48" y1="238.62" x2="464.69" y2="234.79"/>
	</g>
	<g>
		
			<line fill="none" stroke="#000000" stroke-miterlimit="10" stroke-dasharray="4.4257" x1="468.18" y1="240.15" x2="468.18" y2="235.73"/>
	</g>
	<g>
		
			<line fill="none" stroke="#000000" stroke-miterlimit="10" stroke-dasharray="4.4257" x1="473.89" y1="238.62" x2="471.67" y2="234.79"/>
	</g>
	<g>
		
			<line fill="none" stroke="#000000" stroke-miterlimit="10" stroke-dasharray="4.4257" x1="478.06" y1="234.45" x2="474.23" y2="232.24"/>
	</g>
	<g>
		
			<line fill="none" stroke="#000000" stroke-miterlimit="10" stroke-dasharray="4.4257" x1="479.59" y1="228.74" x2="475.17" y2="228.74"/>
	</g>
	<g>
		
			<line fill="none" stroke="#000000" stroke-miterlimit="10" stroke-dasharray="4.4257" x1="478.06" y1="223.04" x2="474.23" y2="225.25"/>
	</g>
	<g>
		
			<line fill="none" stroke="#000000" stroke-miterlimit="10" stroke-dasharray="4.4257" x1="473.89" y1="218.86" x2="471.67" y2="222.69"/>
	</g>
</g>
<g>
	<path fill="#FFFFFF" stroke="#000000" stroke-miterlimit="10" d="M460.08,208.18h-10.15c-1.97,0-3.57-1.6-3.57-3.57l0,0
		c0-1.97,1.6-3.57,3.57-3.57h10.15c1.97,0,3.57,1.6,3.57,3.57l0,0C463.65,206.58,462.05,208.18,460.08,208.18z"/>
	<g>
		
			<line fill="none" stroke="#000000" stroke-miterlimit="10" stroke-dasharray="3.5812" x1="449.34" y1="195.1" x2="452.92" y2="195.1"/>
	</g>
	<circle fill="#FFED00" stroke="#000000" stroke-miterlimit="10" cx="460.55" cy="195.1" r="6.18"/>
	<circle fill="#FFFFFF" stroke="#000000" stroke-miterlimit="10" cx="449.16" cy="200.09" r="3.85"/>
	<circle fill="#FFFFFF" stroke="#000000" stroke-miterlimit="10" cx="453.61" cy="197.91" r="4.44"/>
	<circle fill="#FFFFFF" stroke="#000000" stroke-miterlimit="10" cx="460.37" cy="200.73" r="4.15"/>
	<circle fill="#FFFFFF" stroke="#000000" stroke-miterlimit="10" cx="453.54" cy="204.01" r="4.25"/>
	<circle fill="#FFFFFF" stroke="#000000" stroke-miterlimit="10" cx="463.06" cy="203.48" r="4.25"/>
	<circle fill="#FFFFFF" stroke="#000000" stroke-miterlimit="10" cx="447.11" cy="204.21" r="3.48"/>
	<g>
		
			<line fill="none" stroke="#000000" stroke-miterlimit="10" stroke-dasharray="3.5812" x1="460.55" y1="183.89" x2="460.55" y2="187.47"/>
	</g>
	<g>
		
			<line fill="none" stroke="#000000" stroke-miterlimit="10" stroke-dasharray="3.5812" x1="454.95" y1="185.39" x2="456.74" y2="188.49"/>
	</g>
	<g>
		
			<line fill="none" stroke="#000000" stroke-miterlimit="10" stroke-dasharray="3.5812" x1="450.85" y1="189.49" x2="453.95" y2="191.28"/>
	</g>
	<g>
		
			<line fill="none" stroke="#000000" stroke-miterlimit="10" stroke-dasharray="3.5812" x1="470.26" y1="200.7" x2="467.16" y2="198.91"/>
	</g>
	<g>
		
			<line fill="none" stroke="#000000" stroke-miterlimit="10" stroke-dasharray="3.5812" x1="471.76" y1="195.1" x2="468.18" y2="195.1"/>
	</g>
	<g>
		
			<line fill="none" stroke="#000000" stroke-miterlimit="10" stroke-dasharray="3.5812" x1="470.26" y1="189.49" x2="467.16" y2="191.28"/>
	</g>
	<g>
		
			<line fill="none" stroke="#000000" stroke-miterlimit="10" stroke-dasharray="3.5812" x1="466.16" y1="185.39" x2="464.37" y2="188.49"/>
	</g>
</g>
<g>
	<path fill="#DADADA" stroke="#B2B2B2" stroke-miterlimit="10" d="M351.99,184.64h-10.15c-1.97,0-3.57-1.6-3.57-3.57l0,0
		c0-1.97,1.6-3.57,3.57-3.57h10.15c1.97,0,3.57,1.6,3.57,3.57l0,0C355.56,183.03,353.96,184.64,351.99,184.64z"/>
	<circle fill="#DADADA" stroke="#B2B2B2" stroke-miterlimit="10" cx="341.07" cy="176.55" r="3.85"/>
	<circle fill="#DADADA" stroke="#B2B2B2" stroke-miterlimit="10" cx="345.51" cy="174.37" r="4.44"/>
	<circle fill="#DADADA" stroke="#B2B2B2" stroke-miterlimit="10" cx="352.28" cy="177.19" r="4.15"/>
	<circle fill="#DADADA" stroke="#B2B2B2" stroke-miterlimit="10" cx="345.44" cy="180.47" r="4.25"/>
	<circle fill="#DADADA" stroke="#B2B2B2" stroke-miterlimit="10" cx="354.97" cy="179.93" r="4.25"/>
	<circle fill="#DADADA" stroke="#B2B2B2" stroke-miterlimit="10" cx="339.02" cy="180.67" r="3.48"/>
</g>
<path fill="#FFED00" stroke="#000000" stroke-miterlimit="10" d="M303.49,233.39l3.96-0.03v12.48c0.14-0.02,0.26-0.1,0.34-0.23
	l7.96-13.54c0.19-0.32-0.04-0.72-0.41-0.72l-4.04-0.03v-12.54c-0.19-0.03-0.38,0.05-0.49,0.24l-7.75,13.67
	C302.88,233,303.12,233.4,303.49,233.39z"/>
<path fill="#DADADA" stroke="#B2B2B2" stroke-miterlimit="10" d="M320.92,233.39l3.96-0.03v12.48c0.14-0.02,0.26-0.1,0.34-0.23
	l7.96-13.54c0.19-0.32-0.04-0.72-0.41-0.72l-4.04-0.03v-12.54c-0.19-0.03-0.38,0.05-0.49,0.24l-7.75,13.67
	C320.32,233,320.55,233.4,320.92,233.39z"/>
<path fill="#DADADA" stroke="#B2B2B2" stroke-miterlimit="10" d="M374.83,256.14l3.96-0.03v12.48c0.14-0.02,0.26-0.1,0.34-0.23
	l7.96-13.54c0.19-0.32-0.04-0.72-0.41-0.72l-4.04-0.03v-12.54c-0.19-0.03-0.38,0.05-0.49,0.24l-7.75,13.67
	C374.23,255.75,374.46,256.14,374.83,256.14z"/>
<text transform="matrix(1 0 0 1 363.1064 316.5235)" font-family="'AmericanTypewriter-Bold'" font-size="12.4096px">water</text>
<text transform="matrix(1 0 0 1 349.0363 348.1133)" font-family="'AmericanTypewriter-Bold'" font-size="12.4096px">zonlicht</text>
<text transform="matrix(1 0 0 1 320.766 380.8039)" font-family="'AmericanTypewriter-Bold'" font-size="12.4096px">moeilijkheid</text>
<g>
	<g>
		<rect x="476.49" y="291.15" fill="none" width="11.63" height="13.11"/>
	</g>
</g>
<g>
	
		<line fill="none" stroke="#000000" stroke-linecap="round" stroke-linejoin="bevel" stroke-miterlimit="10" x1="287.67" y1="166.9" x2="287.67" y2="180.01"/>
	<g>
		
			<line fill="none" stroke="#000000" stroke-linecap="round" stroke-linejoin="bevel" stroke-dasharray="10.3377" x1="295.66" y1="173.46" x2="287.67" y2="180.01"/>
	</g>
	<g>
		
			<line fill="none" stroke="#000000" stroke-linecap="round" stroke-linejoin="bevel" stroke-dasharray="10.3381" x1="287.67" y1="166.9" x2="295.66" y2="173.46"/>
	</g>
</g>
<g>
	<g>
		<g>
			<path fill="#C6C6C6" stroke="#B2B2B2" stroke-miterlimit="10" d="M398.02,241.76l-6.34,10.78v-21.35l1.41-2.49
				c0.1-0.18,0.3-0.26,0.49-0.23v12.54l4.03,0.03C397.98,241.04,398.21,241.44,398.02,241.76z"/>
			<path fill="#FFED00" stroke="#000000" stroke-miterlimit="10" d="M391.68,231.19v21.35l-1.62,2.76c-0.08,0.14-0.2,0.22-0.34,0.24
				v-12.49l-3.96,0.03c-0.37,0.01-0.6-0.39-0.42-0.71L391.68,231.19z"/>
		</g>
		
			<line fill="none" stroke="#B2B2B2" stroke-width="0.5" stroke-linecap="round" stroke-miterlimit="10" x1="391.68" y1="231.19" x2="391.68" y2="252.54"/>
	</g>
	
		<line fill="none" stroke="#B2B2B2" stroke-width="0.5" stroke-linecap="round" stroke-miterlimit="10" x1="392.24" y1="230.13" x2="391.68" y2="231.19"/>
	
		<line fill="none" stroke="#B2B2B2" stroke-width="0.5" stroke-linecap="round" stroke-miterlimit="10" x1="392.34" y1="251.41" x2="391.68" y2="252.54"/>
</g>
<g>
	<polygon fill="#EDEDED" stroke="#000000" stroke-linecap="round" stroke-miterlimit="10" points="52.44,45.57 38.94,87.71 
		25.13,82.5 38.62,40.36 	"/>
	<line fill="none" stroke="#000000" stroke-linecap="round" stroke-miterlimit="10" x1="60.58" y1="82.52" x2="60.52" y2="82.5"/>
	<polyline fill="none" stroke="#000000" stroke-linecap="round" stroke-miterlimit="10" points="74.15,40.41 74.07,40.38 
		74.01,40.36 	"/>
	<g>
		<polygon fill="#FFFFFF" stroke="#000000" stroke-linecap="round" stroke-miterlimit="10" points="38.62,40.36 25.13,82.5 
			3.39,87.71 16.89,45.57 		"/>
		<polygon fill="#FFFFFF" stroke="#000000" stroke-linecap="round" stroke-miterlimit="10" points="74.17,40.36 74.15,40.41 
			60.68,82.5 60.58,82.52 38.94,87.71 52.44,45.57 74.07,40.38 		"/>
		<polygon fill="#DADADA" stroke="#000000" stroke-linecap="round" stroke-miterlimit="10" points="87.83,45.57 74.33,87.71 
			60.58,82.52 60.68,82.5 74.15,40.41 		"/>
	</g>
	<path fill="#A42523" stroke="#000000" stroke-linecap="round" stroke-miterlimit="10" d="M52.44,8.89
		c-9.79,0-17.72,7.94-17.72,17.73c0,9.79,11.03,22.21,17.72,30.57c5.84-7.3,17.73-20.78,17.73-30.57
		C70.17,16.83,62.24,8.89,52.44,8.89z M52.44,34.35c-4.57,0-8.28-3.71-8.28-8.28s3.71-8.28,8.28-8.28c4.58,0,8.28,3.71,8.28,8.28
		S57.02,34.35,52.44,34.35z"/>
</g>
</svg>
