<?xml version="1.0" encoding="utf-8"?>
<!-- Generator: Adobe Illustrator 28.1.0, SVG Export Plug-In . SVG Version: 6.00 Build 0)  -->
<svg version="1.1" id="Laag_1" xmlns="http://www.w3.org/2000/svg" xmlns:xlink="http://www.w3.org/1999/xlink" x="0px" y="0px"
	 viewBox="0 0 65.58 52.54" enable-background="new 0 0 65.58 52.54" xml:space="preserve">
<g>
	<rect x="13.92" y="38.22" fill="none" stroke="#3C3C3B" stroke-width="0.5" stroke-miterlimit="10" width="0.91" height="1.63"/>
	<rect x="13.87" y="40.84" fill="none" stroke="#3C3C3B" stroke-width="0.5" stroke-miterlimit="10" width="0.1" height="0.1"/>
	<g>
		<path fill="none" stroke="#3C3C3B" stroke-width="0.5" stroke-miterlimit="10" d="M23.45,18.54V42.7H13.17V18.54h0.88v-1.63h1
			v-1.63h0.96v-1.63h0.74v-1.63h0.96V10.6h1.2v1.41h0.96v1.63h0.74v1.63c0,0,0.77-0.37,0.96,0s0,1.63,0,1.63h1v1.63H23.45z"/>
		<path fill="none" stroke="#3C3C3B" stroke-width="0.5" stroke-miterlimit="10" d="M18.54,13.83h-0.45c0.3-0.35,0.3-0.7,0-1.04
			h0.45C18.23,13.14,18.23,13.48,18.54,13.83z"/>
		<rect x="16.58" y="15.64" fill="none" stroke="#3C3C3B" stroke-width="0.5" stroke-miterlimit="10" width="3.21" height="3.21"/>
		<rect x="14.14" y="19.95" fill="none" stroke="#3C3C3B" stroke-width="0.5" stroke-miterlimit="10" width="4.36" height="2.44"/>
		<rect x="20.3" y="19.95" fill="none" stroke="#3C3C3B" stroke-width="0.5" stroke-miterlimit="10" width="1.46" height="3.18"/>
		<rect x="15.56" y="24.52" fill="none" stroke="#3C3C3B" stroke-width="0.5" stroke-miterlimit="10" width="7.12" height="2.42"/>
		<rect x="13.79" y="27.84" fill="none" stroke="#3C3C3B" stroke-width="0.5" stroke-miterlimit="10" width="4.05" height="3.57"/>
		<rect x="19.01" y="27.97" fill="none" stroke="#3C3C3B" stroke-width="0.5" stroke-miterlimit="10" width="3.32" height="3.71"/>
		<rect x="16.59" y="36.97" fill="none" stroke="#3C3C3B" stroke-width="0.5" stroke-miterlimit="10" width="5.93" height="3.77"/>
		<rect x="13.17" y="37.32" fill="none" stroke="#3C3C3B" stroke-width="0.5" stroke-miterlimit="10" width="2.39" height="5.38"/>
		<rect x="13.86" y="32.28" fill="none" stroke="#3C3C3B" stroke-width="0.5" stroke-miterlimit="10" width="1.7" height="3.71"/>
		<rect x="16.59" y="32.84" fill="none" stroke="#3C3C3B" stroke-width="0.5" stroke-miterlimit="10" width="3.46" height="1.29"/>
		<rect x="21.03" y="33.31" fill="none" stroke="#3C3C3B" stroke-width="0.5" stroke-miterlimit="10" width="1.07" height="2.68"/>
	</g>
</g>
<g>
	<path fill="none" stroke="#3C3C3B" stroke-width="0.5" stroke-miterlimit="10" d="M33.53,19.78c-0.69,7.07-0.59,14.87,0,23.13
		h-9.83c0.1-9.04,0.5-22.24,0-23.13l2.69-8.06c0-0.06-0.01-0.11-0.01-0.17c0-1.2,0.98-2.17,2.18-2.17c1.2,0,2.17,0.98,2.17,2.17
		v0.02h0.06L33.53,19.78z"/>
	<rect x="27.23" y="12.18" fill="none" stroke="#3C3C3B" stroke-width="0.5" stroke-miterlimit="10" width="2.51" height="6.06"/>
	<rect x="24.52" y="20.38" fill="none" stroke="#3C3C3B" stroke-width="0.5" stroke-miterlimit="10" width="4.3" height="2.88"/>
	<rect x="30.35" y="20.38" fill="none" stroke="#3C3C3B" stroke-width="0.5" stroke-miterlimit="10" width="1.59" height="3.09"/>
	<rect x="28.61" y="25.1" fill="none" stroke="#3C3C3B" stroke-width="0.5" stroke-miterlimit="10" width="3.71" height="3.71"/>
	<rect x="24.52" y="25.1" fill="none" stroke="#3C3C3B" stroke-width="0.5" stroke-miterlimit="10" width="2.71" height="3.33"/>
	<rect x="24.52" y="30" fill="none" stroke="#3C3C3B" stroke-width="0.5" stroke-miterlimit="10" width="7.8" height="3.48"/>
	<rect x="25.05" y="34.54" fill="none" stroke="#3C3C3B" stroke-width="0.5" stroke-miterlimit="10" width="1.62" height="2.89"/>
	<rect x="23.69" y="38.63" fill="none" stroke="#3C3C3B" stroke-width="0.5" stroke-miterlimit="10" width="2.16" height="4.29"/>
	<rect x="28.61" y="35.36" fill="none" stroke="#3C3C3B" stroke-width="0.5" stroke-miterlimit="10" width="3.1" height="2.41"/>
	<rect x="27" y="38.63" fill="none" stroke="#3C3C3B" stroke-width="0.5" stroke-miterlimit="10" width="6.3" height="2.92"/>
	<rect x="24.17" y="39.36" fill="none" stroke="#3C3C3B" stroke-width="0.5" stroke-miterlimit="10" width="1.14" height="1.14"/>
	<rect x="24.17" y="41.44" fill="none" stroke="#3C3C3B" stroke-width="0.5" stroke-miterlimit="10" width="0.11" height="0.11"/>
</g>
<g>
	<rect x="45.2" y="37.58" fill="none" stroke="#3C3C3B" stroke-width="0.5" stroke-miterlimit="10" width="0.91" height="1.63"/>
	<rect x="45.15" y="40.2" fill="none" stroke="#3C3C3B" stroke-width="0.5" stroke-miterlimit="10" width="0.1" height="0.1"/>
	<g>
		<path fill="none" stroke="#3C3C3B" stroke-width="0.5" stroke-miterlimit="10" d="M54.73,17.9v24.16H44.46V17.9h0.88v-1.63h1
			v-1.63h0.96v-1.63h0.74v-1.63h0.96V9.96h1.2v1.41h0.96v1.63h0.74v1.63c0,0,0.77-0.37,0.96,0s0,1.63,0,1.63h1v1.63H54.73z"/>
		<path fill="none" stroke="#3C3C3B" stroke-width="0.5" stroke-miterlimit="10" d="M49.82,13.19h-0.45c0.3-0.35,0.3-0.7,0-1.04
			h0.45C49.52,12.5,49.52,12.85,49.82,13.19z"/>
		<rect x="47.86" y="15.01" fill="none" stroke="#3C3C3B" stroke-width="0.5" stroke-miterlimit="10" width="3.21" height="3.21"/>
		<rect x="45.42" y="19.31" fill="none" stroke="#3C3C3B" stroke-width="0.5" stroke-miterlimit="10" width="4.36" height="2.44"/>
		<rect x="51.58" y="19.31" fill="none" stroke="#3C3C3B" stroke-width="0.5" stroke-miterlimit="10" width="1.46" height="3.18"/>
		<rect x="46.85" y="23.88" fill="none" stroke="#3C3C3B" stroke-width="0.5" stroke-miterlimit="10" width="7.12" height="2.42"/>
		<rect x="45.07" y="27.21" fill="none" stroke="#3C3C3B" stroke-width="0.5" stroke-miterlimit="10" width="4.05" height="3.57"/>
		<rect x="50.3" y="27.33" fill="none" stroke="#3C3C3B" stroke-width="0.5" stroke-miterlimit="10" width="3.32" height="3.71"/>
		<rect x="47.88" y="36.33" fill="none" stroke="#3C3C3B" stroke-width="0.5" stroke-miterlimit="10" width="5.93" height="3.77"/>
		<rect x="44.46" y="36.68" fill="none" stroke="#3C3C3B" stroke-width="0.5" stroke-miterlimit="10" width="2.39" height="5.38"/>
		<rect x="45.15" y="31.64" fill="none" stroke="#3C3C3B" stroke-width="0.5" stroke-miterlimit="10" width="1.7" height="3.71"/>
		<rect x="47.88" y="32.2" fill="none" stroke="#3C3C3B" stroke-width="0.5" stroke-miterlimit="10" width="3.46" height="1.29"/>
		<rect x="52.31" y="32.67" fill="none" stroke="#3C3C3B" stroke-width="0.5" stroke-miterlimit="10" width="1.07" height="2.68"/>
	</g>
</g>
<g>
	<path fill="none" stroke="#3C3C3B" stroke-width="0.5" stroke-miterlimit="10" d="M43.17,19.15l1.09,23.1l-9.82,0.46l-1.09-23.1
		l0.27-0.01c3.17-2.62,4.71-5.53,4.16-8.83c0.65,1.61,1.39,3.14,2.24,4.54c0.85,1.4,1.81,2.69,2.9,3.85L43.17,19.15z"/>
	<g>
		
			<line fill="none" stroke="#3C3C3B" stroke-width="0.5" stroke-miterlimit="10" stroke-dasharray="9.5676" x1="33.34" y1="19.62" x2="42.9" y2="19.17"/>
	</g>
	
		<rect x="37.65" y="16.8" transform="matrix(0.9989 -0.0469 0.0469 0.9989 -0.7945 1.8242)" fill="none" stroke="#3C3C3B" stroke-width="0.5" stroke-miterlimit="10" width="1.59" height="2.05"/>
	
		<rect x="34.75" y="20.15" transform="matrix(0.9989 -0.0469 0.0469 0.9989 -0.9943 1.6998)" fill="none" stroke="#3C3C3B" stroke-width="0.5" stroke-miterlimit="10" width="1.9" height="3.74"/>
	
		<rect x="37.65" y="19.96" transform="matrix(0.9989 -0.0469 0.0469 0.9989 -0.9807 1.8929)" fill="none" stroke="#3C3C3B" stroke-width="0.5" stroke-miterlimit="10" width="4.34" height="3.74"/>
	
		<rect x="35.34" y="25.39" transform="matrix(0.9989 -0.0469 0.0469 0.9989 -1.1962 1.8525)" fill="none" stroke="#3C3C3B" stroke-width="0.5" stroke-miterlimit="10" width="7.01" height="2.01"/>
	
		<rect x="34.73" y="28.54" transform="matrix(0.9989 -0.0469 0.0469 0.9989 -1.3966 1.7181)" fill="none" stroke="#3C3C3B" stroke-width="0.5" stroke-miterlimit="10" width="2.32" height="4.13"/>
	
		<rect x="38.04" y="28.21" transform="matrix(0.9989 -0.0469 0.0469 0.9989 -1.375 1.9208)" fill="none" stroke="#3C3C3B" stroke-width="0.5" stroke-miterlimit="10" width="4.34" height="4.06"/>
	
		<rect x="39.91" y="33.22" transform="matrix(0.9989 -0.0469 0.0469 0.9989 -1.5951 1.9887)" fill="none" stroke="#3C3C3B" stroke-width="0.5" stroke-miterlimit="10" width="3.27" height="3.49"/>
	
		<rect x="35.15" y="33.76" transform="matrix(0.9989 -0.0469 0.0469 0.9989 -1.6219 1.7855)" fill="none" stroke="#3C3C3B" stroke-width="0.5" stroke-miterlimit="10" width="4.13" height="3.34"/>
	
		<rect x="34.34" y="39" transform="matrix(0.9989 -0.0469 0.0469 0.9989 -1.8776 1.7044)" fill="none" stroke="#3C3C3B" stroke-width="0.5" stroke-miterlimit="10" width="2.03" height="3.68"/>
	
		<rect x="37.43" y="38.76" transform="matrix(0.9989 -0.0469 0.0469 0.9989 -1.8356 1.939)" fill="none" stroke="#3C3C3B" stroke-width="0.5" stroke-miterlimit="10" width="5.88" height="2.6"/>
	
		<rect x="35.03" y="39.73" transform="matrix(0.9989 -0.0469 0.0469 0.9989 -1.8456 1.7022)" fill="none" stroke="#3C3C3B" stroke-width="0.5" stroke-miterlimit="10" width="0.58" height="0.85"/>
	
		<rect x="34.97" y="41.33" transform="matrix(0.9989 -0.0469 0.0469 0.9989 -1.9025 1.6883)" fill="none" stroke="#3C3C3B" stroke-width="0.5" stroke-miterlimit="10" width="0.05" height="0.05"/>
</g>
<g>
	<path fill="none" stroke="#3C3C3B" stroke-width="0.5" stroke-miterlimit="10" d="M64.81,19.14c-0.69,7.07-0.59,14.87,0,23.13
		h-9.83c0.1-9.04,0.5-22.24,0-23.13l2.69-8.06c0-0.06-0.01-0.11-0.01-0.17c0-1.2,0.98-2.17,2.18-2.17c1.2,0,2.17,0.98,2.17,2.17
		v0.02h0.06L64.81,19.14z"/>
	<rect x="58.51" y="11.54" fill="none" stroke="#3C3C3B" stroke-width="0.5" stroke-miterlimit="10" width="2.51" height="6.06"/>
	<rect x="55.8" y="19.74" fill="none" stroke="#3C3C3B" stroke-width="0.5" stroke-miterlimit="10" width="4.3" height="2.88"/>
	<rect x="61.64" y="19.74" fill="none" stroke="#3C3C3B" stroke-width="0.5" stroke-miterlimit="10" width="1.59" height="3.09"/>
	<rect x="59.9" y="24.46" fill="none" stroke="#3C3C3B" stroke-width="0.5" stroke-miterlimit="10" width="3.71" height="3.71"/>
	<rect x="55.8" y="24.46" fill="none" stroke="#3C3C3B" stroke-width="0.5" stroke-miterlimit="10" width="2.71" height="3.33"/>
	<rect x="55.8" y="29.36" fill="none" stroke="#3C3C3B" stroke-width="0.5" stroke-miterlimit="10" width="7.8" height="3.48"/>
	<rect x="56.33" y="33.91" fill="none" stroke="#3C3C3B" stroke-width="0.5" stroke-miterlimit="10" width="1.62" height="2.89"/>
	<rect x="54.98" y="37.99" fill="none" stroke="#3C3C3B" stroke-width="0.5" stroke-miterlimit="10" width="2.16" height="4.29"/>
	<rect x="59.9" y="34.72" fill="none" stroke="#3C3C3B" stroke-width="0.5" stroke-miterlimit="10" width="3.1" height="2.41"/>
	<rect x="58.28" y="37.99" fill="none" stroke="#3C3C3B" stroke-width="0.5" stroke-miterlimit="10" width="6.3" height="2.92"/>
	<rect x="55.45" y="38.72" fill="none" stroke="#3C3C3B" stroke-width="0.5" stroke-miterlimit="10" width="1.14" height="1.14"/>
	<rect x="55.45" y="40.8" fill="none" stroke="#3C3C3B" stroke-width="0.5" stroke-miterlimit="10" width="0.11" height="0.11"/>
</g>
<g>
	<path fill="none" stroke="#3C3C3B" stroke-width="0.5" stroke-miterlimit="10" d="M12.09,19.61l1.09,23.1l-9.82,0.46l-1.09-23.1
		l0.27-0.01c3.17-2.62,4.71-5.53,4.16-8.83c0.65,1.61,1.39,3.14,2.24,4.54c0.85,1.4,1.81,2.69,2.9,3.85L12.09,19.61z"/>
	<g>
		
			<line fill="none" stroke="#3C3C3B" stroke-width="0.5" stroke-miterlimit="10" stroke-dasharray="9.5676" x1="2.26" y1="20.07" x2="11.82" y2="19.62"/>
	</g>
	
		<rect x="6.57" y="17.26" transform="matrix(0.9989 -0.0469 0.0469 0.9989 -0.8503 0.366)" fill="none" stroke="#3C3C3B" stroke-width="0.5" stroke-miterlimit="10" width="1.59" height="2.05"/>
	
		<rect x="3.67" y="20.61" transform="matrix(0.9989 -0.0469 0.0469 0.9989 -1.0501 0.2415)" fill="none" stroke="#3C3C3B" stroke-width="0.5" stroke-miterlimit="10" width="1.9" height="3.74"/>
	
		<rect x="6.57" y="20.42" transform="matrix(0.9989 -0.0469 0.0469 0.9989 -1.0364 0.4347)" fill="none" stroke="#3C3C3B" stroke-width="0.5" stroke-miterlimit="10" width="4.34" height="3.74"/>
	
		<rect x="4.27" y="25.85" transform="matrix(0.9989 -0.0469 0.0469 0.9989 -1.2519 0.3943)" fill="none" stroke="#3C3C3B" stroke-width="0.5" stroke-miterlimit="10" width="7.01" height="2.01"/>
	
		<rect x="3.65" y="28.99" transform="matrix(0.9989 -0.0469 0.0469 0.9989 -1.4524 0.2599)" fill="none" stroke="#3C3C3B" stroke-width="0.5" stroke-miterlimit="10" width="2.32" height="4.13"/>
	
		<rect x="6.96" y="28.67" transform="matrix(0.9989 -0.0469 0.0469 0.9989 -1.4307 0.4625)" fill="none" stroke="#3C3C3B" stroke-width="0.5" stroke-miterlimit="10" width="4.34" height="4.06"/>
	
		<rect x="8.83" y="33.67" transform="matrix(0.9989 -0.0469 0.0469 0.9989 -1.6508 0.5305)" fill="none" stroke="#3C3C3B" stroke-width="0.5" stroke-miterlimit="10" width="3.27" height="3.49"/>
	
		<rect x="4.07" y="34.22" transform="matrix(0.9989 -0.0469 0.0469 0.9989 -1.6777 0.3273)" fill="none" stroke="#3C3C3B" stroke-width="0.5" stroke-miterlimit="10" width="4.13" height="3.34"/>
	
		<rect x="3.26" y="39.45" transform="matrix(0.9989 -0.0469 0.0469 0.9989 -1.9334 0.2461)" fill="none" stroke="#3C3C3B" stroke-width="0.5" stroke-miterlimit="10" width="2.03" height="3.68"/>
	
		<rect x="6.35" y="39.22" transform="matrix(0.9989 -0.0469 0.0469 0.9989 -1.8914 0.4808)" fill="none" stroke="#3C3C3B" stroke-width="0.5" stroke-miterlimit="10" width="5.88" height="2.6"/>
	
		<rect x="3.95" y="40.18" transform="matrix(0.9989 -0.0469 0.0469 0.9989 -1.9013 0.244)" fill="none" stroke="#3C3C3B" stroke-width="0.5" stroke-miterlimit="10" width="0.58" height="0.85"/>
	
		<rect x="3.89" y="41.79" transform="matrix(0.9989 -0.0469 0.0469 0.9989 -1.9582 0.23)" fill="none" stroke="#3C3C3B" stroke-width="0.5" stroke-miterlimit="10" width="0.05" height="0.05"/>
</g>
<text transform="matrix(0.999 0.0442 -0.0442 0.999 4.8086 28.1722)" fill="#009640" font-family="'AmericanTypewriter-Bold'" font-size="9.1537px" letter-spacing="21">	</text>
<g>
	<path fill="#008D36" stroke="#000000" stroke-width="0.25" stroke-miterlimit="10" d="M7.59,25.8l-1.3-0.14
		c-0.37-0.04-0.58,0.16-0.63,0.61c-0.01,0.1,0.04,0.16,0.15,0.17c0.03,0,0.08,0,0.15,0c0.07,0,0.11,0,0.15,0
		c0.24,0.03,0.34,0.23,0.3,0.61c-0.02,0.21-0.1,0.37-0.22,0.49c-0.12,0.12-0.28,0.17-0.46,0.15c-0.09-0.01-0.29-0.05-0.6-0.13
		C5,27.53,4.81,27.5,4.56,27.48c-0.27-0.03-0.48-0.04-0.63-0.04c-0.35,0.01-0.56,0.01-0.62,0c-0.2-0.02-0.36-0.1-0.47-0.24
		C2.73,27.07,2.68,26.9,2.7,26.7c0.05-0.46,0.24-0.67,0.59-0.63c0.04,0,0.1,0.02,0.18,0.03c0.08,0.02,0.15,0.03,0.18,0.03
		c0.12,0.01,0.23-0.04,0.32-0.17c0.02-0.04,0.08-0.15,0.17-0.35l1.75-3.69c0.2-0.42,0.41-0.67,0.61-0.76
		C6.68,21.11,7,21.1,7.48,21.16c0.55,0.06,0.89,0.13,1.02,0.21c0.14,0.08,0.23,0.29,0.29,0.61l0.81,4.29
		c0.06,0.34,0.16,0.52,0.29,0.53c0.04,0,0.11,0,0.21-0.01l0.11,0.01c0.36,0.04,0.52,0.27,0.48,0.7c-0.02,0.21-0.11,0.38-0.25,0.5
		c-0.14,0.12-0.32,0.16-0.53,0.14c-0.09-0.01-0.21-0.03-0.36-0.07c-0.18-0.05-0.3-0.08-0.36-0.09c-0.14-0.03-0.33-0.05-0.55-0.08
		c-0.25-0.03-0.41-0.04-0.5-0.03c-0.34,0.02-0.55,0.02-0.63,0.01c-0.18-0.02-0.31-0.1-0.41-0.25C7,27.5,6.96,27.32,6.98,27.12
		c0.04-0.38,0.18-0.56,0.43-0.54c0.03,0,0.08,0.01,0.15,0.03s0.11,0.03,0.15,0.03c0.12,0.01,0.19-0.05,0.21-0.19
		c0.02-0.18,0-0.33-0.06-0.45C7.79,25.88,7.7,25.82,7.59,25.8z M7.6,24.3l-0.26-2.05l-0.83,2.01c-0.01,0.02-0.01,0.04-0.02,0.07
		c-0.01,0.08,0.07,0.13,0.23,0.14l0.6,0.06c0.17,0.02,0.26-0.02,0.27-0.11C7.61,24.43,7.61,24.39,7.6,24.3z"/>
</g>
<g>
	<path fill="#008D36" stroke="#000000" stroke-width="0.25" stroke-miterlimit="10" d="M12.45,24.86l0.02,0.43
		c0.44-0.58,0.94-0.88,1.51-0.91c0.48-0.02,0.88,0.19,1.21,0.64c0.3-0.28,0.55-0.48,0.77-0.59c0.22-0.11,0.47-0.17,0.76-0.18
		c0.59-0.03,1.04,0.15,1.35,0.52c0.21,0.26,0.33,0.68,0.36,1.27l0.07,1.42c0.02,0.32,0.08,0.47,0.2,0.47c0.04,0,0.09-0.01,0.15-0.03
		c0.03-0.01,0.08-0.02,0.14-0.03c0.27-0.01,0.42,0.14,0.43,0.46c0.01,0.19-0.03,0.35-0.13,0.47c-0.09,0.12-0.22,0.19-0.38,0.2
		c-0.02,0-0.11,0-0.27-0.01l-0.21-0.02c-0.1-0.01-0.23-0.01-0.39,0c-0.2,0.01-0.39,0.03-0.57,0.06c-0.18,0.03-0.31,0.05-0.39,0.06
		c-0.15,0.01-0.27-0.04-0.38-0.15c-0.1-0.11-0.16-0.25-0.16-0.43c-0.01-0.29,0.09-0.45,0.32-0.51c0.12-0.02,0.19-0.06,0.2-0.11
		c0.02-0.05,0.02-0.19,0.01-0.41l-0.04-0.96c-0.02-0.4-0.07-0.67-0.16-0.81c-0.09-0.14-0.25-0.21-0.49-0.2
		c-0.53,0.02-0.77,0.41-0.74,1.16l0.04,0.86c0.01,0.21,0.03,0.34,0.05,0.4c0.02,0.06,0.07,0.09,0.15,0.1
		c0.19,0.04,0.3,0.19,0.31,0.45c0.02,0.42-0.14,0.64-0.49,0.66c-0.07,0-0.17,0-0.29-0.01c-0.21-0.02-0.34-0.03-0.41-0.03
		c-0.07,0-0.18,0.02-0.33,0.05c-0.14,0.03-0.25,0.05-0.33,0.05c-0.3,0.01-0.46-0.17-0.48-0.56c-0.01-0.28,0.07-0.45,0.26-0.51
		c0.1-0.03,0.16-0.11,0.16-0.23c0-0.17,0-0.27-0.01-0.31l-0.05-1.05c-0.02-0.35-0.07-0.6-0.16-0.73c-0.09-0.13-0.24-0.19-0.46-0.18
		c-0.55,0.03-0.8,0.41-0.77,1.16l0.05,1.12c0,0.1,0.02,0.16,0.05,0.19c0.03,0.03,0.09,0.05,0.19,0.06c0.24,0.03,0.37,0.19,0.39,0.47
		c0.02,0.4-0.14,0.61-0.48,0.63c-0.11,0.01-0.26,0-0.47-0.02s-0.37-0.02-0.47-0.01c-0.14,0.01-0.29,0.02-0.44,0.05
		c-0.25,0.04-0.4,0.07-0.47,0.07c-0.17,0.01-0.31-0.04-0.42-0.15c-0.11-0.11-0.17-0.26-0.17-0.44c-0.02-0.35,0.12-0.54,0.42-0.55
		c0.05,0,0.11,0.01,0.17,0.02s0.11,0.03,0.14,0.03c0.11-0.01,0.15-0.18,0.13-0.53l-0.07-1.51c-0.02-0.35-0.08-0.53-0.18-0.52
		c-0.02,0-0.07,0.01-0.14,0.04c-0.07,0.03-0.12,0.04-0.16,0.04c-0.3,0.01-0.45-0.15-0.47-0.5c-0.01-0.18,0.04-0.33,0.13-0.45
		c0.1-0.12,0.23-0.19,0.4-0.2c0.04,0,0.14,0.01,0.31,0.03c0.1,0.01,0.19,0.02,0.28,0.02c0.07,0,0.18-0.02,0.33-0.05
		c0.14-0.03,0.25-0.05,0.33-0.05C12.36,24.58,12.44,24.67,12.45,24.86z"/>
</g>
<g>
	<path fill="#008D36" stroke="#000000" stroke-width="0.25" stroke-miterlimit="10" d="M21.66,24.18c0.48,0,0.88,0.13,1.21,0.4
		c0.02-0.26,0.19-0.39,0.5-0.39c0.32,0,0.48,0.11,0.48,0.33c0,0.07-0.01,0.16-0.04,0.25c-0.02,0.11-0.03,0.22-0.03,0.32
		c0,0.02,0,0.07,0.01,0.15c0,0.08,0,0.15,0,0.21v0.04c0,0.33-0.16,0.49-0.49,0.49c-0.24,0-0.44-0.12-0.61-0.35
		c-0.21-0.29-0.47-0.43-0.77-0.43c-0.36,0-0.54,0.12-0.54,0.37c0,0.13,0.06,0.22,0.18,0.27c0.12,0.05,0.43,0.12,0.93,0.21
		c0.41,0.07,0.71,0.16,0.91,0.25c0.2,0.09,0.35,0.23,0.48,0.4c0.15,0.22,0.23,0.48,0.23,0.78c0,0.47-0.18,0.87-0.54,1.18
		c-0.36,0.32-0.82,0.47-1.36,0.47s-1.04-0.17-1.49-0.52c0,0.3-0.16,0.46-0.47,0.46c-0.34,0-0.5-0.14-0.5-0.41
		c0-0.06,0.01-0.16,0.02-0.29c0.01-0.13,0.02-0.23,0.02-0.29c0-0.06,0-0.14-0.01-0.25s-0.01-0.2-0.01-0.25
		c0-0.28,0.17-0.42,0.52-0.42c0.17,0,0.29,0.02,0.38,0.07s0.18,0.15,0.28,0.29c0.16,0.23,0.3,0.38,0.43,0.45s0.32,0.11,0.58,0.11
		c0.45,0,0.67-0.14,0.67-0.42c0-0.19-0.18-0.33-0.54-0.4l-0.54-0.11c-0.44-0.09-0.75-0.19-0.94-0.28c-0.18-0.09-0.33-0.24-0.43-0.44
		s-0.16-0.43-0.16-0.69c0-0.47,0.15-0.84,0.46-1.14S21.16,24.18,21.66,24.18z"/>
</g>
<g>
	<path fill="#008D36" stroke="#000000" stroke-width="0.25" stroke-miterlimit="10" d="M26.39,24.27l-0.05,0.38l-0.09,0.57
		l-0.11,0.62c-0.03,0.2-0.05,0.28-0.04,0.25c-0.05,0.36,0.04,0.56,0.27,0.59c0.22,0.03,0.35-0.12,0.4-0.44
		c0.01-0.05,0.01-0.09,0.01-0.11c0-0.03,0.01-0.07,0.02-0.12c0-0.04,0-0.07,0-0.09c0.05-0.33,0.24-0.47,0.57-0.43
		c0.39,0.06,0.54,0.39,0.45,1.01c-0.07,0.49-0.27,0.84-0.59,1.08c-0.33,0.23-0.75,0.31-1.27,0.24c-1.01-0.14-1.44-0.75-1.29-1.82
		c0.02-0.17,0.07-0.43,0.13-0.77s0.11-0.6,0.13-0.77l0.04-0.29c0.02-0.15,0.02-0.25,0-0.3c-0.02-0.04-0.08-0.07-0.19-0.09
		l-0.15-0.02c-0.12-0.02-0.21-0.07-0.27-0.17c-0.06-0.1-0.08-0.22-0.06-0.36c0.02-0.14,0.08-0.26,0.17-0.35
		c0.09-0.09,0.19-0.13,0.29-0.11l0.18,0.03c0.15,0.02,0.24-0.01,0.28-0.09c0.03-0.05,0.05-0.13,0.06-0.24l0.06-0.45
		c0.03-0.21,0.11-0.35,0.23-0.42c0.13-0.06,0.34-0.07,0.64-0.03c0.21,0.03,0.36,0.08,0.43,0.15c0.07,0.07,0.09,0.21,0.06,0.42
		l-0.07,0.5c-0.03,0.18-0.02,0.29,0,0.34c0.03,0.05,0.11,0.08,0.25,0.1l0.66,0.09c0.36,0.05,0.52,0.25,0.47,0.58
		c-0.05,0.33-0.23,0.46-0.57,0.42l-0.76-0.11c-0.13-0.02-0.21-0.01-0.24,0.03C26.42,24.12,26.4,24.18,26.39,24.27z"/>
</g>
<g>
	<path fill="#008D36" stroke="#000000" stroke-width="0.25" stroke-miterlimit="10" d="M32.52,25.14c0.04,0.26,0.03,0.44-0.02,0.53
		c-0.05,0.1-0.17,0.16-0.36,0.18l-2.25,0.32c-0.11,0.02-0.18,0.04-0.2,0.06c-0.02,0.03-0.03,0.08-0.02,0.17
		c0.04,0.26,0.15,0.46,0.34,0.61c0.19,0.15,0.41,0.21,0.66,0.17c0.26-0.04,0.5-0.21,0.73-0.54c0.16-0.22,0.35-0.35,0.57-0.38
		c0.18-0.03,0.34,0.01,0.47,0.09c0.13,0.09,0.2,0.21,0.23,0.37c0.05,0.36-0.1,0.69-0.46,0.99c-0.36,0.3-0.81,0.49-1.37,0.57
		c-0.73,0.1-1.35-0.04-1.84-0.42s-0.8-0.94-0.9-1.68c-0.1-0.74,0.03-1.38,0.4-1.89c0.37-0.52,0.9-0.83,1.6-0.92
		c0.65-0.09,1.2,0.02,1.64,0.34C32.17,24.04,32.43,24.51,32.52,25.14z M29.53,25.09c0.01,0.04,0.02,0.07,0.04,0.09
		s0.09,0.02,0.2,0.01l1.03-0.15c0.09-0.01,0.15-0.03,0.17-0.06c0.02-0.03,0.02-0.06,0.02-0.12c-0.02-0.16-0.11-0.29-0.27-0.39
		c-0.16-0.1-0.33-0.14-0.52-0.11c-0.25,0.03-0.43,0.16-0.56,0.37C29.54,24.87,29.51,24.99,29.53,25.09z"/>
</g>
<g>
	<path fill="#008D36" stroke="#000000" stroke-width="0.25" stroke-miterlimit="10" d="M34.99,25.47v0.79
		c0.09-0.32,0.19-0.55,0.31-0.7c0.27-0.34,0.65-0.51,1.15-0.51c0.34,0,0.63,0.11,0.86,0.33c0.23,0.22,0.35,0.49,0.35,0.81
		c0,0.25-0.07,0.46-0.22,0.63c-0.15,0.16-0.34,0.25-0.57,0.25c-0.17,0-0.32-0.06-0.44-0.17c-0.12-0.11-0.18-0.25-0.18-0.41
		c0-0.09,0.04-0.21,0.12-0.36h-0.06c-0.42,0-0.7,0.22-0.84,0.66c-0.11,0.35-0.17,0.76-0.17,1.22v0.35c0,0.22,0.02,0.37,0.06,0.43
		c0.02,0.04,0.07,0.06,0.13,0.06c0.06,0,0.13-0.01,0.23-0.04s0.17-0.04,0.22-0.04c0.14,0,0.25,0.05,0.35,0.14s0.14,0.21,0.14,0.35
		c0,0.18-0.06,0.33-0.18,0.45c-0.12,0.12-0.27,0.18-0.44,0.18c-0.09,0-0.27-0.02-0.52-0.05c-0.16-0.02-0.35-0.03-0.59-0.03
		s-0.44,0.01-0.62,0.03c-0.3,0.03-0.48,0.05-0.55,0.05c-0.38,0-0.58-0.21-0.58-0.62c0-0.35,0.15-0.52,0.45-0.52
		c0.05,0,0.11,0.01,0.17,0.03c0.06,0.02,0.11,0.03,0.14,0.03c0.11,0,0.16-0.17,0.16-0.52v-1.51c0-0.35-0.05-0.53-0.16-0.53
		c-0.02,0-0.07,0.01-0.14,0.03c-0.07,0.02-0.13,0.03-0.16,0.03c-0.3,0-0.45-0.17-0.45-0.51c0-0.19,0.05-0.34,0.15-0.46
		c0.1-0.12,0.23-0.18,0.38-0.18c0.06,0,0.15,0.01,0.26,0.04c0.11,0.02,0.22,0.04,0.32,0.04c0.07,0,0.18-0.01,0.33-0.04
		c0.14-0.02,0.25-0.04,0.32-0.04C34.9,25.18,34.99,25.27,34.99,25.47z"/>
</g>
<g>
	<path fill="#008D36" stroke="#000000" stroke-width="0.25" stroke-miterlimit="10" d="M39.88,25.21c0.5-0.02,0.97,0.14,1.41,0.5
		l-0.03-0.69c-0.01-0.23-0.1-0.34-0.26-0.33c-0.04,0-0.12,0.01-0.24,0.03c-0.08,0.03-0.17,0.05-0.25,0.05
		c-0.12,0.01-0.23-0.04-0.32-0.14c-0.09-0.1-0.14-0.22-0.15-0.38c-0.02-0.41,0.19-0.63,0.64-0.65c0.14-0.01,0.25-0.01,0.32,0
		c0.26,0.01,0.44,0.02,0.54,0.01c0.09,0,0.21-0.02,0.37-0.04c0.16-0.02,0.29-0.03,0.36-0.04c0.16-0.01,0.28,0.02,0.35,0.09
		c0.07,0.07,0.1,0.21,0.11,0.41l0.21,4.39c0.02,0.33,0.09,0.49,0.21,0.48c0.04,0,0.09-0.01,0.15-0.04c0.04-0.01,0.09-0.02,0.16-0.03
		c0.28-0.01,0.43,0.14,0.45,0.47c0.01,0.2-0.03,0.36-0.13,0.49c-0.09,0.13-0.22,0.2-0.39,0.21l-0.06,0l-0.35-0.04
		c-0.08-0.01-0.19-0.01-0.34,0c-0.17,0.01-0.31,0.02-0.42,0.04c-0.16,0.03-0.25,0.04-0.27,0.04c-0.2,0.01-0.31-0.1-0.32-0.33
		l-0.02-0.36c-0.32,0.59-0.81,0.9-1.5,0.93c-0.61,0.03-1.12-0.19-1.53-0.66c-0.41-0.47-0.64-1.07-0.67-1.81
		c-0.04-0.75,0.13-1.37,0.49-1.85S39.25,25.24,39.88,25.21z M40.28,26.41c-0.24,0.01-0.44,0.13-0.58,0.37
		c-0.14,0.23-0.22,0.54-0.22,0.93l0.01,0.12c0.02,0.39,0.11,0.7,0.27,0.92c0.17,0.22,0.38,0.32,0.64,0.31
		c0.29-0.01,0.52-0.15,0.69-0.4c0.17-0.25,0.25-0.58,0.23-0.99c-0.02-0.39-0.12-0.7-0.31-0.93C40.82,26.5,40.58,26.39,40.28,26.41z"
		/>
</g>
<g>
	<path fill="#008D36" stroke="#000000" stroke-width="0.25" stroke-miterlimit="10" d="M47.98,29.42c-0.51-0.02-0.84-0.24-1-0.66
		c-0.45,0.39-0.98,0.57-1.57,0.54c-0.49-0.02-0.88-0.17-1.15-0.44c-0.28-0.27-0.41-0.62-0.39-1.05c0.03-0.65,0.33-1.06,0.9-1.23
		c0.25-0.07,0.53-0.13,0.85-0.17c0.44-0.05,0.75-0.13,0.91-0.22c0.16-0.09,0.25-0.23,0.26-0.43c0.01-0.14-0.05-0.26-0.17-0.37
		c-0.12-0.1-0.26-0.16-0.44-0.16c-0.21-0.01-0.31,0.05-0.32,0.18c0,0.04,0,0.09,0,0.13l0,0.04c-0.01,0.17-0.09,0.32-0.24,0.43
		c-0.15,0.11-0.33,0.16-0.55,0.15c-0.25-0.01-0.45-0.09-0.6-0.25c-0.15-0.16-0.23-0.35-0.22-0.57c0.01-0.33,0.2-0.59,0.56-0.77
		c0.36-0.18,0.85-0.25,1.47-0.22c0.67,0.03,1.16,0.15,1.48,0.37c0.34,0.24,0.5,0.66,0.48,1.27l-0.09,1.92
		c-0.01,0.2,0.04,0.3,0.14,0.3c0.05,0,0.1,0,0.14,0c0.02-0.01,0.04-0.01,0.06-0.01c0.14,0.01,0.26,0.06,0.36,0.16
		c0.09,0.1,0.14,0.23,0.13,0.37c-0.01,0.2-0.11,0.37-0.3,0.49C48.5,29.38,48.26,29.43,47.98,29.42z M46.72,27.37l0.01-0.2
		c-0.04,0.02-0.32,0.09-0.83,0.2c-0.35,0.07-0.52,0.2-0.53,0.38c-0.01,0.29,0.15,0.44,0.48,0.45C46.4,28.21,46.69,27.94,46.72,27.37
		z"/>
</g>
<g>
	<path fill="#008D36" stroke="#000000" stroke-width="0.25" stroke-miterlimit="10" d="M51.19,24.21l0.02,0.43
		c0.44-0.58,0.94-0.88,1.51-0.91c0.48-0.02,0.88,0.19,1.21,0.64c0.3-0.28,0.55-0.48,0.77-0.59c0.22-0.11,0.47-0.17,0.76-0.18
		c0.59-0.03,1.04,0.15,1.35,0.52c0.21,0.26,0.33,0.68,0.36,1.27l0.07,1.42c0.02,0.32,0.08,0.47,0.2,0.47c0.04,0,0.09-0.01,0.15-0.03
		c0.03-0.01,0.08-0.02,0.14-0.02c0.27-0.01,0.42,0.14,0.43,0.46c0.01,0.19-0.03,0.35-0.13,0.47c-0.09,0.12-0.22,0.19-0.38,0.19
		c-0.02,0-0.11,0-0.27-0.01l-0.21-0.02c-0.1-0.01-0.23-0.01-0.39,0c-0.2,0.01-0.39,0.03-0.58,0.06c-0.18,0.03-0.31,0.05-0.39,0.06
		c-0.15,0.01-0.27-0.04-0.38-0.15s-0.16-0.25-0.16-0.42c-0.01-0.29,0.09-0.46,0.32-0.51c0.12-0.02,0.19-0.06,0.2-0.11
		c0.02-0.05,0.02-0.19,0.01-0.41l-0.04-0.96c-0.02-0.4-0.07-0.67-0.16-0.81c-0.09-0.14-0.25-0.21-0.49-0.2
		c-0.53,0.02-0.77,0.41-0.74,1.16l0.04,0.86c0.01,0.21,0.03,0.34,0.05,0.4c0.02,0.05,0.07,0.09,0.15,0.1
		c0.19,0.03,0.3,0.19,0.31,0.45c0.02,0.42-0.14,0.64-0.49,0.66c-0.07,0-0.16,0-0.29-0.01c-0.21-0.02-0.34-0.03-0.41-0.03
		c-0.07,0-0.18,0.02-0.33,0.05c-0.14,0.03-0.25,0.05-0.33,0.05c-0.3,0.01-0.46-0.17-0.48-0.56c-0.01-0.28,0.07-0.45,0.26-0.51
		c0.1-0.03,0.16-0.11,0.16-0.23c0-0.17,0-0.27-0.01-0.31l-0.05-1.05c-0.02-0.35-0.07-0.6-0.16-0.73c-0.09-0.13-0.24-0.19-0.46-0.18
		c-0.55,0.03-0.8,0.41-0.77,1.16l0.05,1.12c0,0.1,0.02,0.16,0.05,0.19c0.03,0.03,0.09,0.05,0.19,0.06c0.24,0.03,0.37,0.19,0.39,0.47
		c0.02,0.4-0.14,0.61-0.48,0.63c-0.11,0-0.26,0-0.47-0.02c-0.21-0.01-0.37-0.02-0.47-0.02c-0.14,0.01-0.29,0.02-0.44,0.05
		c-0.25,0.04-0.4,0.07-0.47,0.07c-0.17,0.01-0.31-0.04-0.42-0.15s-0.17-0.25-0.17-0.43c-0.02-0.35,0.12-0.54,0.42-0.55
		c0.05,0,0.11,0.01,0.17,0.02s0.11,0.03,0.14,0.03c0.11,0,0.15-0.18,0.13-0.53l-0.07-1.51c-0.02-0.35-0.08-0.53-0.18-0.52
		c-0.02,0-0.07,0.01-0.14,0.04c-0.07,0.03-0.12,0.04-0.16,0.04c-0.3,0.01-0.45-0.15-0.47-0.5c-0.01-0.18,0.04-0.33,0.13-0.45
		c0.1-0.12,0.23-0.19,0.4-0.19c0.04,0,0.14,0.01,0.31,0.03c0.1,0.01,0.19,0.02,0.28,0.02c0.07,0,0.18-0.02,0.33-0.05
		c0.14-0.03,0.25-0.05,0.33-0.05C51.09,23.94,51.18,24.03,51.19,24.21z"/>
</g>
<g>
	<path fill="#008D36" stroke="#000000" stroke-width="0.25" stroke-miterlimit="10" d="M61.04,23.32c0.47,0.07,0.85,0.26,1.14,0.57
		c0.06-0.25,0.25-0.36,0.55-0.32c0.31,0.04,0.45,0.18,0.42,0.4c-0.01,0.07-0.04,0.15-0.07,0.24c-0.03,0.11-0.06,0.21-0.07,0.31
		c0,0.02-0.01,0.07-0.01,0.15c-0.01,0.08-0.02,0.15-0.03,0.21l-0.01,0.04c-0.05,0.33-0.23,0.46-0.56,0.42
		c-0.23-0.03-0.42-0.18-0.56-0.44c-0.17-0.31-0.4-0.49-0.71-0.53c-0.36-0.05-0.55,0.05-0.59,0.29c-0.02,0.13,0.03,0.23,0.14,0.3
		c0.11,0.07,0.41,0.18,0.89,0.34c0.4,0.13,0.68,0.26,0.86,0.38c0.18,0.12,0.32,0.27,0.42,0.46c0.12,0.24,0.16,0.51,0.12,0.81
		c-0.07,0.47-0.3,0.83-0.71,1.09c-0.41,0.26-0.88,0.35-1.42,0.28c-0.54-0.08-1.01-0.32-1.4-0.73c-0.04,0.3-0.22,0.43-0.52,0.39
		c-0.33-0.05-0.48-0.21-0.44-0.48c0.01-0.06,0.03-0.16,0.06-0.28c0.03-0.13,0.05-0.22,0.06-0.28c0.01-0.06,0.02-0.14,0.02-0.25
		c0.01-0.11,0.01-0.2,0.02-0.25c0.04-0.28,0.23-0.39,0.57-0.34c0.17,0.02,0.29,0.07,0.37,0.13c0.08,0.06,0.16,0.17,0.24,0.33
		c0.12,0.25,0.24,0.42,0.36,0.51c0.12,0.09,0.3,0.15,0.56,0.19c0.44,0.06,0.68-0.04,0.72-0.32c0.03-0.19-0.13-0.35-0.48-0.47
		l-0.52-0.19c-0.42-0.15-0.72-0.29-0.89-0.41c-0.17-0.12-0.29-0.28-0.37-0.5c-0.08-0.21-0.1-0.45-0.06-0.71
		c0.07-0.46,0.27-0.81,0.62-1.06S60.55,23.25,61.04,23.32z"/>
</g>
<g>
	<path stroke="#008D36" stroke-width="0.1" stroke-miterlimit="10" d="M12.89,33.44c0.61-0.22,1.2-0.19,1.76,0.07
		c-0.07-0.36,0.04-0.6,0.34-0.7c0.36-0.13,0.61-0.02,0.73,0.33c0.02,0.06,0.05,0.18,0.09,0.36c0.06,0.28,0.11,0.46,0.14,0.55
		c0.04,0.11,0.07,0.18,0.1,0.23c0.08,0.18,0.12,0.29,0.13,0.31c0.05,0.15,0.03,0.3-0.06,0.45c-0.1,0.15-0.25,0.26-0.46,0.34
		c-0.34,0.12-0.6,0.03-0.79-0.28s-0.37-0.5-0.55-0.58c-0.18-0.08-0.41-0.07-0.69,0.04c-0.38,0.14-0.61,0.42-0.69,0.85
		c-0.08,0.43-0.01,0.97,0.23,1.61c0.2,0.55,0.45,0.94,0.76,1.18c0.31,0.23,0.65,0.29,1,0.16c0.23-0.08,0.39-0.21,0.5-0.4
		c0.1-0.18,0.12-0.38,0.05-0.58c-0.09-0.25-0.23-0.33-0.44-0.26c-0.01,0-0.03,0.01-0.05,0.02c-0.02,0.01-0.04,0.02-0.06,0.03
		c-0.09,0.04-0.14,0.07-0.15,0.07c-0.12,0.04-0.24,0.03-0.35-0.05c-0.12-0.07-0.21-0.19-0.26-0.34c-0.06-0.18-0.05-0.34,0.03-0.48
		c0.08-0.15,0.21-0.25,0.4-0.32c0.12-0.04,0.31-0.09,0.57-0.15c0.26-0.06,0.45-0.11,0.58-0.15c0.19-0.07,0.4-0.16,0.62-0.27
		c0.18-0.09,0.3-0.15,0.37-0.17c0.19-0.07,0.36-0.06,0.51,0.01c0.15,0.07,0.27,0.21,0.33,0.4c0.06,0.17,0.07,0.33,0.03,0.47
		c-0.04,0.14-0.12,0.24-0.25,0.28l-0.22,0.06c-0.16,0.06-0.19,0.22-0.1,0.48c0.04,0.11,0.08,0.23,0.13,0.35l0.15,0.37
		c0.05,0.13,0.1,0.25,0.14,0.36c0.14,0.39-0.01,0.67-0.44,0.82c-0.41,0.15-0.67,0.08-0.77-0.21l-0.02-0.05
		c-0.29,0.47-0.69,0.79-1.2,0.97c-0.45,0.16-0.92,0.19-1.4,0.1c-0.48-0.1-0.88-0.3-1.2-0.62c-0.41-0.4-0.73-0.92-0.96-1.57
		c-0.35-0.98-0.4-1.84-0.15-2.58S12.1,33.72,12.89,33.44z"/>
</g>
<g>
	<path stroke="#008D36" stroke-width="0.1" stroke-miterlimit="10" d="M20.14,32.62l-0.07,0.79c0.11-0.31,0.24-0.53,0.37-0.67
		c0.3-0.32,0.7-0.45,1.19-0.41c0.34,0.03,0.62,0.16,0.83,0.4c0.21,0.24,0.31,0.52,0.28,0.84c-0.02,0.25-0.12,0.46-0.28,0.61
		c-0.16,0.15-0.36,0.22-0.59,0.2c-0.17-0.02-0.31-0.08-0.42-0.21c-0.11-0.12-0.16-0.26-0.15-0.42c0.01-0.09,0.06-0.2,0.15-0.35
		l-0.06,0c-0.41-0.04-0.71,0.16-0.89,0.59c-0.14,0.34-0.23,0.74-0.27,1.2l-0.03,0.35c-0.02,0.22-0.01,0.37,0.02,0.43
		c0.02,0.04,0.06,0.06,0.13,0.07c0.05,0,0.13,0,0.23-0.02c0.1-0.02,0.18-0.02,0.23-0.02c0.13,0.01,0.25,0.07,0.33,0.17
		c0.09,0.1,0.13,0.22,0.11,0.36c-0.02,0.18-0.09,0.32-0.22,0.43c-0.13,0.11-0.28,0.16-0.46,0.14c-0.09-0.01-0.26-0.04-0.51-0.09
		c-0.15-0.03-0.35-0.06-0.58-0.08c-0.24-0.02-0.44-0.03-0.62-0.03c-0.3,0-0.48,0-0.55,0c-0.38-0.03-0.56-0.26-0.52-0.67
		c0.03-0.35,0.19-0.51,0.49-0.48c0.05,0,0.1,0.02,0.16,0.05c0.06,0.03,0.1,0.04,0.14,0.04c0.11,0.01,0.17-0.16,0.2-0.51l0.13-1.5
		c0.03-0.35-0.01-0.53-0.11-0.54c-0.02,0-0.07,0-0.15,0.02c-0.07,0.02-0.13,0.02-0.16,0.02c-0.3-0.03-0.43-0.21-0.4-0.55
		c0.02-0.19,0.08-0.33,0.19-0.44c0.11-0.11,0.24-0.16,0.4-0.14c0.06,0.01,0.15,0.03,0.26,0.06c0.11,0.04,0.21,0.06,0.31,0.06
		c0.08,0.01,0.18,0,0.33-0.01c0.14-0.01,0.25-0.02,0.32-0.01C20.07,32.33,20.16,32.43,20.14,32.62z"/>
</g>
<g>
	<path stroke="#008D36" stroke-width="0.1" stroke-miterlimit="10" d="M25.3,38.62c-0.72,0.26-1.36,0.25-1.9-0.02
		c-0.54-0.27-0.94-0.77-1.21-1.52c-0.26-0.74-0.27-1.38-0.03-1.93c0.24-0.55,0.72-0.95,1.43-1.21c0.7-0.25,1.32-0.24,1.86,0.03
		c0.55,0.27,0.95,0.76,1.2,1.47c0.27,0.75,0.28,1.4,0.04,1.96C26.46,37.97,26,38.37,25.3,38.62z M23.98,35.03
		c-0.26,0.09-0.42,0.28-0.49,0.55c-0.07,0.28-0.03,0.61,0.11,1.01c0.14,0.4,0.33,0.68,0.55,0.85c0.23,0.17,0.48,0.21,0.75,0.11
		c0.54-0.19,0.67-0.71,0.36-1.55C24.96,35.15,24.54,34.83,23.98,35.03z"/>
</g>
<g>
	<path stroke="#008D36" stroke-width="0.1" stroke-miterlimit="10" d="M32.19,34.55c-0.01,0.26-0.05,0.43-0.12,0.52
		c-0.07,0.08-0.2,0.12-0.39,0.11l-2.27-0.12c-0.11-0.01-0.18,0-0.21,0.02c-0.03,0.02-0.05,0.07-0.05,0.16
		c-0.01,0.26,0.06,0.48,0.22,0.66c0.16,0.18,0.36,0.28,0.62,0.29c0.26,0.01,0.53-0.12,0.82-0.39c0.2-0.19,0.41-0.28,0.63-0.27
		c0.19,0.01,0.33,0.07,0.44,0.18s0.16,0.25,0.15,0.41c-0.02,0.36-0.23,0.65-0.64,0.89c-0.41,0.23-0.89,0.33-1.46,0.3
		c-0.74-0.04-1.31-0.29-1.73-0.76c-0.42-0.47-0.61-1.07-0.57-1.82c0.04-0.75,0.29-1.34,0.75-1.78c0.46-0.44,1.04-0.64,1.75-0.6
		c0.66,0.03,1.17,0.25,1.55,0.65C32.05,33.4,32.22,33.92,32.19,34.55z M29.26,33.93c0,0.04,0.01,0.07,0.02,0.09s0.08,0.04,0.19,0.05
		l1.04,0.05c0.09,0,0.15,0,0.17-0.02c0.02-0.02,0.04-0.06,0.04-0.11c0.01-0.16-0.06-0.31-0.19-0.43c-0.14-0.13-0.3-0.2-0.49-0.21
		c-0.25-0.01-0.45,0.07-0.62,0.26C29.32,33.73,29.26,33.84,29.26,33.93z"/>
</g>
<g>
	<path stroke="#008D36" stroke-width="0.1" stroke-miterlimit="10" d="M35.45,32.87l-0.02,0.45c0.5-0.53,1.06-0.78,1.66-0.75
		c0.64,0.03,1.09,0.3,1.33,0.79c0.13,0.25,0.18,0.65,0.15,1.18l-0.07,1.39c-0.02,0.32,0.04,0.48,0.16,0.48
		c0.03,0,0.08-0.01,0.14-0.02c0.03-0.01,0.08-0.01,0.14-0.01c0.27,0.01,0.4,0.18,0.38,0.5c-0.02,0.43-0.22,0.63-0.59,0.61
		c-0.1,0-0.25-0.02-0.44-0.06c-0.2-0.04-0.35-0.05-0.45-0.06c-0.15-0.01-0.32,0-0.49,0.01c-0.17,0.02-0.32,0.02-0.43,0.02
		c-0.37-0.02-0.54-0.22-0.52-0.6c0.02-0.33,0.15-0.5,0.41-0.5c0.17,0,0.26-0.08,0.26-0.22l0.07-1.3c0.02-0.36-0.02-0.61-0.1-0.76
		c-0.08-0.15-0.24-0.23-0.46-0.24c-0.25-0.01-0.47,0.06-0.64,0.23c-0.17,0.17-0.27,0.38-0.28,0.65l-0.05,0.97
		c-0.01,0.28-0.01,0.45,0.01,0.51c0.02,0.06,0.09,0.1,0.21,0.13c0.22,0.04,0.33,0.22,0.31,0.52c-0.02,0.39-0.19,0.58-0.52,0.56
		c-0.09,0-0.21-0.02-0.34-0.05c-0.23-0.04-0.4-0.07-0.51-0.07c-0.11-0.01-0.28,0-0.5,0.01c-0.22,0.01-0.39,0.02-0.5,0.01
		c-0.39-0.02-0.57-0.24-0.55-0.65c0.02-0.35,0.17-0.51,0.47-0.5c0.05,0,0.1,0.02,0.17,0.04c0.06,0.03,0.11,0.04,0.14,0.04
		c0.1,0.01,0.17-0.17,0.18-0.51l0.08-1.51c0.02-0.35-0.03-0.53-0.13-0.54c-0.02,0-0.07,0.01-0.15,0.02
		c-0.07,0.02-0.13,0.03-0.16,0.02c-0.3-0.02-0.44-0.19-0.42-0.53c0.01-0.19,0.07-0.33,0.18-0.45c0.11-0.11,0.25-0.16,0.41-0.16
		c0.05,0,0.15,0.02,0.31,0.06c0.09,0.02,0.17,0.04,0.24,0.04c0.07,0,0.2,0,0.38-0.02c0.18-0.02,0.28-0.02,0.3-0.02
		C35.38,32.6,35.46,32.69,35.45,32.87z"/>
</g>
</svg>
