<?xml version="1.0" encoding="utf-8"?>
<!-- Generator: Adobe Illustrator 28.1.0, SVG Export Plug-In . SVG Version: 6.00 Build 0)  -->
<svg version="1.1" id="Laag_1" xmlns="http://www.w3.org/2000/svg" xmlns:xlink="http://www.w3.org/1999/xlink" x="0px" y="0px"
	 viewBox="0 0 14.94 15.13" enable-background="new 0 0 14.94 15.13" xml:space="preserve">
<path fill="none" stroke="#000000" stroke-width="3" stroke-miterlimit="10" d="M71.59,171.97h-323.72c-11.82,0-21.4-9.58-21.4-21.4
	v-74.1c0-11.82,9.58-21.4,21.4-21.4H71.59c11.82,0,21.4,9.58,21.4,21.4v74.1C92.99,162.39,83.41,171.97,71.59,171.97z"/>
<path fill="none" stroke="#000000" stroke-width="3" stroke-miterlimit="10" d="M71.59,172.32h-323.72c-11.82,0-21.4-9.58-21.4-21.4
	v-74.1c0-11.82,9.58-21.4,21.4-21.4H71.59c11.82,0,21.4,9.58,21.4,21.4v74.1C92.99,162.74,83.41,172.32,71.59,172.32z"/>
<circle fill="none" stroke="#000000" stroke-width="3" stroke-miterlimit="10" cx="-218.91" cy="113.87" r="45.16"/>
<text transform="matrix(1 0 0 1 -184.0198 74.2966)" font-family="'AmericanTypewriter-Bold'" font-size="19px">Plantnaam</text>
<g>
	<g>
		<line fill="none" stroke="#000000" stroke-width="3" stroke-miterlimit="10" x1="-252.35" y1="144.22" x2="-247.93" y2="140.16"/>
		
			<line fill="none" stroke="#000000" stroke-width="3" stroke-miterlimit="10" stroke-dasharray="11.187,11.187" x1="-239.69" y1="132.6" x2="-194.36" y2="90.99"/>
		<line fill="none" stroke="#000000" stroke-width="3" stroke-miterlimit="10" x1="-190.24" y1="87.21" x2="-185.82" y2="83.15"/>
	</g>
</g>
<g>
	<g>
		<line fill="none" stroke="#000000" stroke-width="3" stroke-miterlimit="10" x1="-254.57" y1="85.7" x2="-249.88" y2="89.45"/>
		
			<line fill="none" stroke="#000000" stroke-width="3" stroke-miterlimit="10" stroke-dasharray="11.1839,11.1839" x1="-241.14" y1="96.43" x2="-193.08" y2="134.81"/>
		<line fill="none" stroke="#000000" stroke-width="3" stroke-miterlimit="10" x1="-188.71" y1="138.3" x2="-184.02" y2="142.04"/>
	</g>
</g>
<rect x="-167.25" y="84.4" fill="none" width="62.14" height="74.77"/>
<text transform="matrix(1 0 0 1 -167.2502 89.7869)"><tspan x="0" y="0" font-family="'AmericanTypewriter-Bold'" font-size="8px">Hier komt </tspan><tspan x="0" y="9.6" font-family="'AmericanTypewriter-Bold'" font-size="8px">informatie </tspan><tspan x="0" y="19.2" font-family="'AmericanTypewriter-Bold'" font-size="8px">over bijvoor</tspan><tspan x="48.89" y="19.2" font-family="'AmericanTypewriter-Bold'" font-size="8px">-</tspan><tspan x="0" y="28.8" font-family="'AmericanTypewriter-Bold'" font-size="8px">beld land van </tspan><tspan x="0" y="38.4" font-family="'AmericanTypewriter-Bold'" font-size="8px">oorsprong. Of </tspan><tspan x="0" y="48" font-family="'AmericanTypewriter-Bold'" font-size="8px">waar de plant </tspan><tspan x="0" y="57.6" font-family="'AmericanTypewriter-Bold'" font-size="8px">allemaal te </tspan><tspan x="0" y="67.2" font-family="'AmericanTypewriter-Bold'" font-size="8px">vinden is </tspan></text>
<g id="druppels_00000048486908586893593170000014735733989431353246_">
	<g id="druppel__x28_grijs_x29__00000161628776745094902130000004016714849292852880_">
		<path fill="#DADADA" d="M75.57,89.74c0,3.93-3.19,7.12-7.12,7.12s-7.12-3.19-7.12-7.12s6.81-12.85,6.81-12.85
			S75.57,85.81,75.57,89.74z"/>
		<path fill="#DADADA" stroke="#F6F6F6" stroke-miterlimit="10" d="M63.21,90.84c-0.13,1.81,1.25,3.41,3.06,3.55
			c0.45,0.03,0.91-0.03,1.33-0.17"/>
	</g>
	<g id="druppel_00000157998952096770827000000001083274660296423586_">
		<path fill="#DADADA" d="M59.89,89.74c0,3.93-3.19,7.12-7.12,7.12s-7.12-3.19-7.12-7.12s6.81-12.85,6.81-12.85
			S59.89,85.81,59.89,89.74z"/>
		<path fill="#DADADA" stroke="#F6F6F6" stroke-miterlimit="10" d="M47.53,90.84c-0.13,1.81,1.25,3.41,3.06,3.55
			c0.45,0.03,0.91-0.03,1.33-0.17"/>
	</g>
	<g id="druppel_00000142177999473498385870000006106767161939359407_">
		<path fill="#009FE3" d="M44.09,89.74c0,3.93-3.19,7.12-7.12,7.12s-7.12-3.19-7.12-7.12s6.81-12.85,6.81-12.85
			S44.09,85.81,44.09,89.74z"/>
		<path fill="#009FE3" stroke="#F6F6F6" stroke-miterlimit="10" d="M31.74,90.84c-0.13,1.81,1.25,3.41,3.06,3.55
			c0.45,0.03,0.91-0.03,1.33-0.17"/>
	</g>
	<g id="druppel_00000181054631951297323610000013617573203088376725_">
		<path fill="#009FE3" d="M28.3,89.74c0,3.93-3.19,7.12-7.12,7.12s-7.12-3.19-7.12-7.12s6.81-12.85,6.81-12.85
			S28.3,85.81,28.3,89.74z"/>
		<path fill="#009FE3" stroke="#F6F6F6" stroke-miterlimit="10" d="M15.95,90.84c-0.13,1.81,1.25,3.41,3.06,3.55
			c0.45,0.03,0.91-0.03,1.33-0.17"/>
	</g>
	<g id="druppel_00000057119746680860226770000016501659744054151335_">
		<path fill="#009FE3" d="M12.36,89.74c0,3.93-3.19,7.12-7.12,7.12s-7.12-3.19-7.12-7.12s6.81-12.85,6.81-12.85
			S12.36,85.81,12.36,89.74z"/>
		<path fill="#009FE3" stroke="#F6F6F6" stroke-miterlimit="10" d="M0.01,90.84c-0.13,1.81,1.25,3.41,3.06,3.55
			c0.45,0.03,0.91-0.03,1.33-0.17"/>
	</g>
</g>
<g>
	<circle fill="#FFED00" stroke="#000000" stroke-miterlimit="10" cx="52.84" cy="3.03" r="5.07"/>
	<g>
		
			<line fill="none" stroke="#000000" stroke-miterlimit="10" stroke-dasharray="4.4257" x1="52.84" y1="-8.38" x2="52.84" y2="-3.95"/>
	</g>
	<g>
		
			<line fill="none" stroke="#000000" stroke-miterlimit="10" stroke-dasharray="4.4257" x1="47.14" y1="-6.85" x2="49.35" y2="-3.02"/>
	</g>
	<g>
		
			<line fill="none" stroke="#000000" stroke-miterlimit="10" stroke-dasharray="4.4257" x1="42.96" y1="-2.67" x2="46.8" y2="-0.46"/>
	</g>
	<g>
		
			<line fill="none" stroke="#000000" stroke-miterlimit="10" stroke-dasharray="4.4257" x1="41.43" y1="3.03" x2="45.86" y2="3.03"/>
	</g>
	<g>
		<line fill="none" stroke="#000000" stroke-miterlimit="10" stroke-dasharray="4.4257" x1="42.96" y1="8.74" x2="46.8" y2="6.53"/>
	</g>
	<g>
		
			<line fill="none" stroke="#000000" stroke-miterlimit="10" stroke-dasharray="4.4257" x1="47.14" y1="12.92" x2="49.35" y2="9.08"/>
	</g>
	<g>
		
			<line fill="none" stroke="#000000" stroke-miterlimit="10" stroke-dasharray="4.4257" x1="52.84" y1="14.44" x2="52.84" y2="10.02"/>
	</g>
	<g>
		
			<line fill="none" stroke="#000000" stroke-miterlimit="10" stroke-dasharray="4.4257" x1="58.55" y1="12.92" x2="56.34" y2="9.08"/>
	</g>
	<g>
		
			<line fill="none" stroke="#000000" stroke-miterlimit="10" stroke-dasharray="4.4257" x1="62.73" y1="8.74" x2="58.89" y2="6.53"/>
	</g>
	<g>
		
			<line fill="none" stroke="#000000" stroke-miterlimit="10" stroke-dasharray="4.4257" x1="64.26" y1="3.03" x2="59.83" y2="3.03"/>
	</g>
	<g>
		
			<line fill="none" stroke="#000000" stroke-miterlimit="10" stroke-dasharray="4.4257" x1="62.73" y1="-2.67" x2="58.89" y2="-0.46"/>
	</g>
	<g>
		
			<line fill="none" stroke="#000000" stroke-miterlimit="10" stroke-dasharray="4.4257" x1="58.55" y1="-6.85" x2="56.34" y2="-3.02"/>
	</g>
</g>
<g>
	<path fill="#FFFFFF" stroke="#000000" stroke-miterlimit="10" d="M49.27-18.97H39.12c-1.97,0-3.57-1.6-3.57-3.57v0
		c0-1.97,1.6-3.57,3.57-3.57h10.15c1.97,0,3.57,1.6,3.57,3.57v0C52.84-20.57,51.24-18.97,49.27-18.97z"/>
	<g>
		
			<line fill="none" stroke="#000000" stroke-miterlimit="10" stroke-dasharray="3.5812" x1="38.53" y1="-32.05" x2="42.11" y2="-32.05"/>
	</g>
	<circle fill="#FFED00" stroke="#000000" stroke-miterlimit="10" cx="49.74" cy="-32.05" r="6.18"/>
	<circle fill="#FFFFFF" stroke="#000000" stroke-miterlimit="10" cx="38.35" cy="-27.06" r="3.85"/>
	<circle fill="#FFFFFF" stroke="#000000" stroke-miterlimit="10" cx="42.8" cy="-29.24" r="4.44"/>
	<circle fill="#FFFFFF" stroke="#000000" stroke-miterlimit="10" cx="49.56" cy="-26.42" r="4.15"/>
	<circle fill="#FFFFFF" stroke="#000000" stroke-miterlimit="10" cx="42.73" cy="-23.14" r="4.25"/>
	<circle fill="#FFFFFF" stroke="#000000" stroke-miterlimit="10" cx="52.25" cy="-23.67" r="4.25"/>
	<circle fill="#FFFFFF" stroke="#000000" stroke-miterlimit="10" cx="36.3" cy="-22.94" r="3.48"/>
	<g>
		
			<line fill="none" stroke="#000000" stroke-miterlimit="10" stroke-dasharray="3.5812" x1="49.74" y1="-43.26" x2="49.74" y2="-39.68"/>
	</g>
	<g>
		
			<line fill="none" stroke="#000000" stroke-miterlimit="10" stroke-dasharray="3.5812" x1="44.14" y1="-41.76" x2="45.93" y2="-38.66"/>
	</g>
	<g>
		
			<line fill="none" stroke="#000000" stroke-miterlimit="10" stroke-dasharray="3.5812" x1="40.03" y1="-37.66" x2="43.14" y2="-35.87"/>
	</g>
	<g>
		
			<line fill="none" stroke="#000000" stroke-miterlimit="10" stroke-dasharray="3.5812" x1="59.45" y1="-26.45" x2="56.35" y2="-28.24"/>
	</g>
	<g>
		
			<line fill="none" stroke="#000000" stroke-miterlimit="10" stroke-dasharray="3.5812" x1="60.95" y1="-32.05" x2="57.37" y2="-32.05"/>
	</g>
	<g>
		
			<line fill="none" stroke="#000000" stroke-miterlimit="10" stroke-dasharray="3.5812" x1="59.45" y1="-37.66" x2="56.35" y2="-35.87"/>
	</g>
	<g>
		
			<line fill="none" stroke="#000000" stroke-miterlimit="10" stroke-dasharray="3.5812" x1="55.35" y1="-41.76" x2="53.56" y2="-38.66"/>
	</g>
</g>
<g>
	<path fill="#DADADA" stroke="#B2B2B2" stroke-miterlimit="10" d="M12.49-16.75H2.35c-1.97,0-3.57-1.6-3.57-3.57v0
		c0-1.97,1.6-3.57,3.57-3.57h10.15c1.97,0,3.57,1.6,3.57,3.57v0C16.07-18.35,14.47-16.75,12.49-16.75z"/>
	<circle fill="#DADADA" stroke="#B2B2B2" stroke-miterlimit="10" cx="1.58" cy="-24.84" r="3.85"/>
	<circle fill="#DADADA" stroke="#B2B2B2" stroke-miterlimit="10" cx="6.02" cy="-27.01" r="4.44"/>
	<circle fill="#DADADA" stroke="#B2B2B2" stroke-miterlimit="10" cx="12.78" cy="-24.2" r="4.15"/>
	<circle fill="#DADADA" stroke="#B2B2B2" stroke-miterlimit="10" cx="5.95" cy="-20.92" r="4.25"/>
	<circle fill="#DADADA" stroke="#B2B2B2" stroke-miterlimit="10" cx="15.48" cy="-21.45" r="4.25"/>
	<circle fill="#DADADA" stroke="#B2B2B2" stroke-miterlimit="10" cx="-0.48" cy="-20.71" r="3.48"/>
</g>
<path fill="#FFED00" stroke="#000000" stroke-miterlimit="10" d="M-33,16.93l3.96-0.03v12.48c0.14-0.02,0.26-0.1,0.34-0.23
	l7.96-13.54c0.19-0.32-0.04-0.72-0.41-0.72l-4.04-0.03V2.31c-0.19-0.03-0.38,0.05-0.49,0.24l-7.75,13.67
	C-33.6,16.54-33.37,16.93-33,16.93z"/>
<path fill="#FFED00" stroke="#000000" stroke-miterlimit="10" d="M-107.32,6.25l3.96-0.03V18.7c0.14-0.02,0.26-0.1,0.34-0.23
	l7.96-13.54c0.19-0.32-0.04-0.72-0.41-0.72l-4.04-0.03V-8.37c-0.19-0.03-0.38,0.05-0.49,0.24l-7.75,13.67
	C-107.93,5.85-107.69,6.25-107.32,6.25z"/>
<path fill="#DADADA" stroke="#B2B2B2" stroke-miterlimit="10" d="M-89.89,6.25l3.96-0.03V18.7c0.14-0.02,0.26-0.1,0.34-0.23
	l7.96-13.54c0.19-0.32-0.04-0.72-0.41-0.72l-4.04-0.03V-8.37c-0.19-0.03-0.38,0.05-0.49,0.24l-7.75,13.67
	C-90.5,5.85-90.26,6.25-89.89,6.25z"/>
<path fill="#DADADA" stroke="#B2B2B2" stroke-miterlimit="10" d="M-73.01,6.25l3.96-0.03V18.7c0.14-0.02,0.26-0.1,0.34-0.23
	l7.96-13.54c0.19-0.32-0.04-0.72-0.41-0.72l-4.04-0.03V-8.37c-0.19-0.03-0.38,0.05-0.49,0.24l-7.75,13.67
	C-73.61,5.85-73.38,6.25-73.01,6.25z"/>
<text transform="matrix(1 0 0 1 -47.7042 89.3749)" font-family="'AmericanTypewriter-Bold'" font-size="12.4096px">water</text>
<text transform="matrix(1 0 0 1 -61.7743 120.9647)" font-family="'AmericanTypewriter-Bold'" font-size="12.4096px">zonlicht</text>
<text transform="matrix(1 0 0 1 -90.0446 153.6553)" font-family="'AmericanTypewriter-Bold'" font-size="12.4096px">moeilijkheid</text>
<g>
	<g>
		<rect x="65.68" y="64" fill="none" width="11.63" height="13.11"/>
	</g>
</g>
<g>
	
		<line fill="none" stroke="#000000" stroke-linecap="round" stroke-linejoin="bevel" stroke-miterlimit="10" x1="4.97" y1="1.01" x2="4.97" y2="14.12"/>
	<g>
		
			<line fill="none" stroke="#000000" stroke-linecap="round" stroke-linejoin="bevel" stroke-dasharray="10.3377" x1="12.96" y1="7.57" x2="4.97" y2="14.12"/>
	</g>
	<g>
		
			<line fill="none" stroke="#000000" stroke-linecap="round" stroke-linejoin="bevel" stroke-dasharray="10.3381" x1="4.97" y1="1.01" x2="12.96" y2="7.57"/>
	</g>
</g>
</svg>
