<?xml version="1.0" encoding="utf-8"?>
<!-- Generator: Adobe Illustrator 28.1.0, SVG Export Plug-In . SVG Version: 6.00 Build 0)  -->
<svg version="1.1" id="Laag_1" xmlns="http://www.w3.org/2000/svg" xmlns:xlink="http://www.w3.org/1999/xlink" x="0px" y="0px"
	 viewBox="0 0 69.21 129.15" enable-background="new 0 0 69.21 129.15" xml:space="preserve">
<g>
	<g>
		<path fill="#F8B133" stroke="#1D1D1B" stroke-width="0.5" stroke-miterlimit="10" d="M17.12,126.7h-3.23
			c-3.67,0-6.64-2.97-6.64-6.64v-9.26c0-0.28,0.23-0.51,0.51-0.51h15.38c0.28,0,0.51,0.23,0.51,0.51v9.35
			C23.66,123.78,20.73,126.7,17.12,126.7z"/>
		
			<rect x="14.1" y="93.79" fill="#009540" stroke="#1D1D1B" stroke-width="0.5" stroke-miterlimit="10" width="2.71" height="16.5"/>
		<path fill="#009540" stroke="#1D1D1B" stroke-width="0.5" stroke-miterlimit="10" d="M20.84,100.62l-4.16,3.17
			c-0.29,0.22-0.72,0.17-0.94-0.13l-0.2-0.26c-0.22-0.29-0.17-0.72,0.13-0.94l4.16-3.17c0.29-0.22,0.72-0.17,0.94,0.13l0.2,0.26
			C21.19,99.97,21.14,100.39,20.84,100.62z"/>
		<path fill="#009540" stroke="#1D1D1B" stroke-width="0.5" stroke-miterlimit="10" d="M14.39,105.95l-2.32-2.74
			c-0.15-0.17-0.13-0.44,0.05-0.58l0.31-0.26c0.17-0.15,0.44-0.13,0.58,0.05l2.32,2.74c0.15,0.17,0.13,0.44-0.05,0.58L14.98,106
			C14.8,106.15,14.54,106.13,14.39,105.95z"/>
		<path fill="#009540" stroke="#1D1D1B" stroke-width="0.5" stroke-miterlimit="10" d="M19.47,93.3l-2.09,5.56
			c-0.05,0.13-0.16,0.22-0.29,0.27v-2.66l1.34-3.55c0.08-0.23,0.34-0.35,0.57-0.26l0.21,0.08C19.44,92.82,19.56,93.08,19.47,93.3z"
			/>
		<path fill="#009540" stroke="#1D1D1B" stroke-width="0.5" stroke-miterlimit="10" d="M14.1,98.21v3.09
			c-0.25,0.05-0.5-0.11-0.57-0.36l-0.85-3.34c-0.07-0.26,0.08-0.52,0.34-0.59l0.25-0.06c0.26-0.07,0.53,0.08,0.59,0.34L14.1,98.21z"
			/>
	</g>
	<ellipse fill="#ECECEC" stroke="#1D1D1B" stroke-width="0.5" stroke-miterlimit="10" cx="15.43" cy="89.06" rx="2.44" ry="5.14"/>
	
		<ellipse transform="matrix(0.2486 -0.9686 0.9686 0.2486 -72.8361 84.2309)" fill="#E20613" stroke="#1D1D1B" stroke-width="0.5" stroke-miterlimit="10" cx="17.87" cy="89.06" rx="5.42" ry="2.44"/>
	
		<ellipse transform="matrix(0.9686 -0.2486 0.2486 0.9686 -21.7228 6.0685)" fill="#E20613" stroke="#1D1D1B" stroke-width="0.5" stroke-miterlimit="10" cx="13.17" cy="89.06" rx="2.44" ry="5.42"/>
</g>
<g>
	<path fill="#D9D9D9" stroke="#B1B1B1" stroke-miterlimit="10" d="M52.85,56.59H27.7c-1.97,0-3.57-1.6-3.57-3.57v-6.21
		c0-1.97,1.6-3.57,3.57-3.57h25.16c1.97,0,3.57,1.6,3.57,3.57v6.21C56.43,54.99,54.83,56.59,52.85,56.59z"/>
	<circle fill="#D9D9D9" stroke="#B1B1B1" stroke-miterlimit="10" cx="29.36" cy="41.48" r="7.19"/>
	<circle fill="#D9D9D9" stroke="#B1B1B1" stroke-miterlimit="10" cx="37.66" cy="37.42" r="8.3"/>
	<circle fill="#D9D9D9" stroke="#B1B1B1" stroke-miterlimit="10" cx="50.29" cy="42.68" r="7.75"/>
	<circle fill="#D9D9D9" stroke="#B1B1B1" stroke-miterlimit="10" cx="37.53" cy="48.81" r="7.94"/>
	<circle fill="#D9D9D9" stroke="#B1B1B1" stroke-miterlimit="10" cx="55.32" cy="47.81" r="7.94"/>
	<circle fill="#D9D9D9" stroke="#B1B1B1" stroke-miterlimit="10" cx="25.52" cy="49.19" r="6.51"/>
</g>
<line fill="none" stroke="#FFFFFF" stroke-width="2" stroke-miterlimit="10" x1="24.12" y1="74.57" x2="29.22" y2="65.46"/>
<circle fill="#FFFFFF" stroke="#FFFFFF" stroke-width="2" stroke-miterlimit="10" cx="22.84" cy="76.86" r="0.44"/>
<line fill="none" stroke="#FFFFFF" stroke-width="2" stroke-miterlimit="10" x1="36.48" y1="65.91" x2="31.39" y2="75.02"/>
<circle fill="#FFFFFF" stroke="#FFFFFF" stroke-width="2" stroke-miterlimit="10" cx="37.77" cy="63.62" r="0.44"/>
<line fill="none" stroke="#FFFFFF" stroke-width="2" stroke-miterlimit="10" x1="37.05" y1="79.6" x2="42.14" y2="70.5"/>
<circle fill="#FFFFFF" stroke="#FFFFFF" stroke-width="2" stroke-miterlimit="10" cx="35.76" cy="81.89" r="0.44"/>
<line fill="none" stroke="#FFFFFF" stroke-width="2" stroke-miterlimit="10" x1="50.57" y1="63.58" x2="45.47" y2="72.68"/>
<circle fill="#FFFFFF" stroke="#FFFFFF" stroke-width="2" stroke-miterlimit="10" cx="51.85" cy="61.28" r="0.44"/>
</svg>
