<?xml version="1.0" encoding="utf-8"?>
<!-- Generator: Adobe Illustrator 28.1.0, SVG Export Plug-In . SVG Version: 6.00 Build 0)  -->
<svg version="1.1" id="Laag_1" xmlns="http://www.w3.org/2000/svg" xmlns:xlink="http://www.w3.org/1999/xlink" x="0px" y="0px"
	 viewBox="0 0 36.08 52.54" enable-background="new 0 0 36.08 52.54" xml:space="preserve">
<g>
	<path fill="#B2B2B2" stroke="#000000" stroke-width="0.75" stroke-miterlimit="10" d="M6.58,47.06L6.58,47.06
		c-3.38-2.23-4.31-6.78-2.07-10.16l3.72-5.63c0.02-0.02,0.05-0.03,0.07-0.01l12.16,8.04c0.02,0.02,0.03,0.05,0.01,0.07l-3.72,5.62
		C14.52,48.36,9.96,49.29,6.58,47.06z"/>
	<path fill="#A48A7B" stroke="#000000" stroke-width="0.75" stroke-miterlimit="10" d="M33.75,9.27L18.29,32.65
		c-0.11-0.19-0.26-0.35-0.45-0.48l-1.97-1.3c-0.19-0.13-0.4-0.2-0.62-0.23L30.72,7.26c0.51-0.77,1.55-0.98,2.32-0.47l0.25,0.16
		C34.05,7.46,34.26,8.5,33.75,9.27z"/>
	<path fill="#B2B2B2" stroke="#000000" stroke-width="0.75" stroke-miterlimit="10" d="M18.17,34.3l-2.3,3.47
		c-0.44,0.67-1.34,0.85-2.01,0.41l-1.97-1.3c-0.67-0.44-0.85-1.34-0.41-2.01l2.3-3.47c0.31-0.47,0.86-0.7,1.39-0.64
		c0.21,0.02,0.42,0.1,0.62,0.23l1.97,1.3c0.19,0.13,0.34,0.29,0.45,0.48C18.48,33.24,18.48,33.83,18.17,34.3z"/>
</g>
</svg>
