<?xml version="1.0" encoding="utf-8"?>
<!-- Generator: Adobe Illustrator 28.1.0, SVG Export Plug-In . SVG Version: 6.00 Build 0)  -->
<svg version="1.1" id="Laag_1" xmlns="http://www.w3.org/2000/svg" xmlns:xlink="http://www.w3.org/1999/xlink" x="0px" y="0px"
	 viewBox="0 0 41.68 52.54" style="enable-background:new 0 0 41.68 52.54;" xml:space="preserve">
<style type="text/css">
	.st0{fill:#B2B2B2;stroke:#000000;stroke-width:0.5;stroke-miterlimit:10;}
	.st1{fill:#3AAA35;stroke:#000000;stroke-width:0.5;stroke-miterlimit:10;}
	.st2{fill:#F9B233;stroke:#000000;stroke-width:0.5;stroke-miterlimit:10;}
	.st3{fill:#009640;stroke:#000000;stroke-width:0.5;stroke-miterlimit:10;}
	.st4{fill:#EDEDED;stroke:#000000;stroke-width:0.5;stroke-miterlimit:10;}
	.st5{fill:#E30613;stroke:#000000;stroke-width:0.5;stroke-miterlimit:10;}
</style>
<rect x="3.88" y="1.99" class="st0" width="18.07" height="6.29"/>
<path class="st1" d="M31.78,30.89l0.13,0.86l3.45,1.69l-2.78,2.63l0,0.01l-11.55-5.67l9.32-8.88l3.45,1.69l-2.78,2.64l0.14,0.94
	l0.03,0c3.95-0.61,6.57-4.95,5.84-9.72c-0.73-4.78-4.52-8.15-8.48-7.54l-0.03,0l-0.62-4.06l0.03,0C33.75,4.6,39.33,9.56,40.4,16.57
	c1.07,7-2.77,13.42-8.59,14.31L31.78,30.89z"/>
<g>
	<g>
		<path class="st2" d="M12.24,51.18L12.24,51.18c-3.81,0-6.9-3.09-6.9-6.9v-3.9c0-1.68,1.37-3.05,3.05-3.05h7.76
			c1.68,0,3.05,1.37,3.05,3.05v3.86C19.19,48.07,16.08,51.18,12.24,51.18z"/>
		<rect x="11.12" y="23.38" class="st3" width="2.29" height="13.94"/>
		<path class="st3" d="M16.7,29.23l-3.29,2.51c-0.31,0.24-0.75,0.18-0.99-0.13l0,0c-0.24-0.31-0.18-0.75,0.13-0.99l3.29-2.51
			c0.31-0.24,0.75-0.18,0.99,0.13v0C17.07,28.55,17.01,28.99,16.7,29.23z"/>
		<path class="st3" d="M11.32,33.6l-1.88-2.22c-0.15-0.17-0.13-0.44,0.05-0.58l0.16-0.14c0.17-0.15,0.44-0.13,0.58,0.05l1.88,2.22
			c0.15,0.17,0.13,0.44-0.05,0.58l-0.16,0.14C11.73,33.8,11.47,33.78,11.32,33.6z"/>
		<path class="st3" d="M15.65,22.97l-1.76,4.69c-0.04,0.11-0.13,0.19-0.24,0.22v-2.25l1.13-3c0.07-0.2,0.29-0.29,0.48-0.22
			l0.18,0.07C15.63,22.56,15.73,22.78,15.65,22.97z"/>
		<path class="st3" d="M11.12,27.11v2.61c-0.21,0.04-0.42-0.09-0.48-0.3L9.92,26.6c-0.06-0.22,0.07-0.44,0.29-0.5l0.21-0.05
			c0.22-0.06,0.45,0.07,0.5,0.29L11.12,27.11z"/>
	</g>
	<ellipse class="st4" cx="12.24" cy="19.38" rx="2.06" ry="4.34"/>
	
		<ellipse transform="matrix(0.2486 -0.9686 0.9686 0.2486 -8.0295 28.4149)" class="st5" cx="14.3" cy="19.38" rx="4.58" ry="2.06"/>
	
		<ellipse transform="matrix(0.9686 -0.2486 0.2486 0.9686 -4.4935 3.1759)" class="st5" cx="10.33" cy="19.38" rx="2.06" ry="4.58"/>
</g>
</svg>
