<?xml version="1.0" encoding="utf-8"?>
<!-- Generator: Adobe Illustrator 28.1.0, SVG Export Plug-In . SVG Version: 6.00 Build 0)  -->
<svg version="1.1" id="Laag_1" xmlns="http://www.w3.org/2000/svg" xmlns:xlink="http://www.w3.org/1999/xlink" x="0px" y="0px"
	 viewBox="0 0 71 40.1" style="enable-background:new 0 0 71 40.1;" xml:space="preserve">
<style type="text/css">
	.st0{fill:#4A9D2D;stroke:#009FE3;stroke-width:0.25;stroke-miterlimit:10;}
	.st1{opacity:0.4;}
	.st2{fill:none;stroke:#C6C6C6;stroke-miterlimit:10;}
	.st3{fill:none;stroke:#000000;stroke-miterlimit:10;}
	.st4{fill:#009FE3;stroke:#009FE3;stroke-width:0.25;stroke-miterlimit:10;}
	.st5{fill:#F9B233;stroke:#000000;stroke-width:0.5;stroke-miterlimit:10;}
	.st6{fill:none;stroke:#009FE3;stroke-width:0.25;stroke-miterlimit:10;}
	.st7{fill:#9D9D9C;stroke:#000000;stroke-width:0.25;stroke-miterlimit:10;}
	.st8{fill:#008D36;stroke:#000000;stroke-width:0.25;stroke-miterlimit:10;}
	.st9{fill:#1E3C91;stroke:#000000;stroke-width:0.5;stroke-miterlimit:10;}
</style>
<g>
	<rect x="0.3" y="0.54" class="st0" width="69.85" height="39.56"/>
	<g class="st1">
		<line class="st2" x1="8.1" y1="0.54" x2="8.1" y2="40.1"/>
		<line class="st2" x1="15.9" y1="0.54" x2="15.9" y2="40.1"/>
		<line class="st2" x1="23.7" y1="0.54" x2="23.7" y2="40.1"/>
		<line class="st2" x1="31.49" y1="0.54" x2="31.49" y2="40.1"/>
		<line class="st2" x1="39.29" y1="0.54" x2="39.29" y2="40.1"/>
		<line class="st2" x1="47.09" y1="0.54" x2="47.09" y2="40.1"/>
		<line class="st2" x1="62.68" y1="0.54" x2="62.68" y2="40.1"/>
		<line class="st2" x1="54.88" y1="0.54" x2="54.88" y2="40.1"/>
		<line class="st2" x1="70.15" y1="7.14" x2="0.3" y2="7.14"/>
		<line class="st2" x1="70.31" y1="13.73" x2="0.46" y2="13.73"/>
		<line class="st2" x1="70.31" y1="20.32" x2="0.46" y2="20.32"/>
		<line class="st2" x1="70.31" y1="26.92" x2="0.46" y2="26.92"/>
		<line class="st2" x1="70.31" y1="33.51" x2="0.46" y2="33.51"/>
	</g>
	<line class="st2" x1="70.31" y1="40.1" x2="0.46" y2="40.1"/>
	<rect x="0.3" y="0.54" class="st3" width="70.17" height="39.56"/>
	<circle class="st4" cx="23.75" cy="20.4" r="0.46"/>
	<g>
		
			<rect x="12.28" y="13.16" transform="matrix(0.946 0.3242 -0.3242 0.946 6.9076 -4.6835)" class="st5" width="10.45" height="10.45"/>
		
			<rect x="13.69" y="14.57" transform="matrix(0.946 0.3242 -0.3242 0.946 6.9076 -4.6835)" class="st5" width="7.63" height="7.63"/>
		
			<rect x="15.13" y="15.97" transform="matrix(0.946 0.3242 -0.3242 0.946 6.8988 -4.6882)" class="st5" width="4.77" height="4.77"/>
		
			<rect x="16.28" y="17.12" transform="matrix(0.946 0.3242 -0.3242 0.946 6.8988 -4.6882)" class="st5" width="2.48" height="2.48"/>
		
			<rect x="17.27" y="18.14" transform="matrix(0.946 0.3242 -0.3242 0.946 6.9076 -4.6835)" class="st5" width="0.49" height="0.49"/>
	</g>
	<g>
		
			<rect x="10.93" y="11.65" transform="matrix(0.946 0.3242 -0.3242 0.946 6.8744 -4.7061)" class="st6" width="13.25" height="13.25"/>
		<circle class="st4" cx="21.57" cy="26.78" r="0.46"/>
		<circle class="st4" cx="25.9" cy="14.13" r="0.46"/>
		<circle class="st4" cx="9.07" cy="22.37" r="0.46"/>
		<circle class="st4" cx="15.39" cy="24.56" r="0.46"/>
		<circle class="st4" cx="21.44" cy="6.93" r="0.46"/>
		<circle class="st4" cx="11.22" cy="16.1" r="0.46"/>
		<circle class="st4" cx="13.37" cy="9.83" r="0.46"/>
		<line class="st6" x1="21.45" y1="6.93" x2="19.71" y2="12.01"/>
		<circle class="st4" cx="19.72" cy="11.93" r="0.46"/>
	</g>
	<g>
		<g>
			
				<rect x="34.52" y="26.19" transform="matrix(0.9999 0.0125 -0.0125 0.9999 0.3851 -0.484)" class="st6" width="8.61" height="8.61"/>
			<circle class="st4" cx="43.02" cy="34.93" r="0.3"/>
			<circle class="st4" cx="43.13" cy="26.24" r="0.3"/>
			<circle class="st4" cx="34.41" cy="34.75" r="0.3"/>
			<circle class="st4" cx="38.76" cy="34.81" r="0.3"/>
			<circle class="st4" cx="38.91" cy="22.7" r="0.3"/>
			<circle class="st4" cx="34.47" cy="30.44" r="0.3"/>
			<circle class="st4" cx="34.52" cy="26.13" r="0.3"/>
			<line class="st6" x1="38.92" y1="22.7" x2="38.88" y2="26.19"/>
			<circle class="st4" cx="38.87" cy="26.14" r="0.3"/>
		</g>
		<circle class="st4" cx="43.13" cy="30.55" r="0.3"/>
	</g>
	<g>
		<circle class="st7" cx="38.82" cy="30.74" r="2.73"/>
		<circle class="st8" cx="38.82" cy="30.74" r="2.37"/>
	</g>
	<g>
		<g>
			
				<rect x="44.12" y="11.76" transform="matrix(0.9728 -0.2317 0.2317 0.9728 -2.8805 12.2619)" class="st6" width="13.25" height="13.25"/>
			<circle class="st4" cx="58.69" cy="23.44" r="0.46"/>
			<circle class="st4" cx="55.59" cy="10.43" r="0.46"/>
			<circle class="st4" cx="45.77" cy="26.39" r="0.46"/>
			<circle class="st4" cx="52.28" cy="24.86" r="0.46"/>
			<circle class="st4" cx="47.96" cy="6.73" r="0.46"/>
			<circle class="st4" cx="44.23" cy="19.95" r="0.46"/>
			<circle class="st4" cx="42.69" cy="13.5" r="0.46"/>
			<line class="st6" x1="47.97" y1="6.72" x2="49.22" y2="11.95"/>
			<circle class="st4" cx="49.19" cy="11.87" r="0.46"/>
		</g>
		<circle class="st4" cx="57.2" cy="16.85" r="0.46"/>
	</g>
	<circle class="st9" cx="50.47" cy="18.7" r="5.03"/>
</g>
</svg>
