<?xml version="1.0" encoding="utf-8"?>
<!-- Generator: Adobe Illustrator 28.1.0, SVG Export Plug-In . SVG Version: 6.00 Build 0)  -->
<svg version="1.1" id="Laag_1" xmlns="http://www.w3.org/2000/svg" xmlns:xlink="http://www.w3.org/1999/xlink" x="0px" y="0px"
	 viewBox="0 0 33.91 26.23" enable-background="new 0 0 33.91 26.23" xml:space="preserve">
<path fill="none" stroke="#000000" stroke-width="3" stroke-miterlimit="10" d="M83.48,175.06h-323.72c-11.82,0-21.4-9.58-21.4-21.4
	v-74.1c0-11.82,9.58-21.4,21.4-21.4H83.48c11.82,0,21.4,9.58,21.4,21.4v74.1C104.88,165.48,95.3,175.06,83.48,175.06z"/>
<path fill="none" stroke="#000000" stroke-width="3" stroke-miterlimit="10" d="M83.48,175.42h-323.72c-11.82,0-21.4-9.58-21.4-21.4
	v-74.1c0-11.82,9.58-21.4,21.4-21.4H83.48c11.82,0,21.4,9.58,21.4,21.4v74.1C104.88,165.84,95.3,175.42,83.48,175.42z"/>
<circle fill="none" stroke="#000000" stroke-width="3" stroke-miterlimit="10" cx="-207.02" cy="116.97" r="45.16"/>
<text transform="matrix(1 0 0 1 -172.1333 77.3945)" font-family="'AmericanTypewriter-Bold'" font-size="19px">Plantnaam</text>
<g>
	<g>
		<line fill="none" stroke="#000000" stroke-width="3" stroke-miterlimit="10" x1="-240.47" y1="147.32" x2="-236.05" y2="143.26"/>
		
			<line fill="none" stroke="#000000" stroke-width="3" stroke-miterlimit="10" stroke-dasharray="11.187,11.187" x1="-227.81" y1="135.69" x2="-182.48" y2="94.09"/>
		<line fill="none" stroke="#000000" stroke-width="3" stroke-miterlimit="10" x1="-178.36" y1="90.31" x2="-173.94" y2="86.25"/>
	</g>
</g>
<g>
	<g>
		<line fill="none" stroke="#000000" stroke-width="3" stroke-miterlimit="10" x1="-242.68" y1="88.8" x2="-238" y2="92.55"/>
		
			<line fill="none" stroke="#000000" stroke-width="3" stroke-miterlimit="10" stroke-dasharray="11.1839,11.1839" x1="-229.26" y1="99.52" x2="-181.19" y2="137.91"/>
		<line fill="none" stroke="#000000" stroke-width="3" stroke-miterlimit="10" x1="-176.82" y1="141.4" x2="-172.13" y2="145.14"/>
	</g>
</g>
<rect x="-155.36" y="87.5" fill="none" width="62.14" height="74.77"/>
<text transform="matrix(1 0 0 1 -155.3637 92.8847)"><tspan x="0" y="0" font-family="'AmericanTypewriter-Bold'" font-size="8px">Hier komt </tspan><tspan x="0" y="9.6" font-family="'AmericanTypewriter-Bold'" font-size="8px">informatie </tspan><tspan x="0" y="19.2" font-family="'AmericanTypewriter-Bold'" font-size="8px">over bijvoor</tspan><tspan x="48.89" y="19.2" font-family="'AmericanTypewriter-Bold'" font-size="8px">-</tspan><tspan x="0" y="28.8" font-family="'AmericanTypewriter-Bold'" font-size="8px">beld land van </tspan><tspan x="0" y="38.4" font-family="'AmericanTypewriter-Bold'" font-size="8px">oorsprong. Of </tspan><tspan x="0" y="48" font-family="'AmericanTypewriter-Bold'" font-size="8px">waar de plant </tspan><tspan x="0" y="57.6" font-family="'AmericanTypewriter-Bold'" font-size="8px">allemaal te </tspan><tspan x="0" y="67.2" font-family="'AmericanTypewriter-Bold'" font-size="8px">vinden is </tspan></text>
<g id="druppels_00000048486908586893593170000014735733989431353246_">
	<g id="druppel__x28_grijs_x29__00000161628776745094902130000004016714849292852880_">
		<path fill="#DADADA" d="M87.45,92.84c0,3.93-3.19,7.12-7.12,7.12c-3.93,0-7.12-3.19-7.12-7.12c0-3.93,6.81-12.85,6.81-12.85
			S87.45,88.91,87.45,92.84z"/>
		<path fill="#DADADA" stroke="#F6F6F6" stroke-miterlimit="10" d="M75.1,93.94c-0.13,1.81,1.25,3.41,3.06,3.55
			c0.45,0.03,0.91-0.03,1.33-0.17"/>
	</g>
	<g id="druppel_00000157998952096770827000000001083274660296423586_">
		<path fill="#DADADA" d="M71.77,92.84c0,3.93-3.19,7.12-7.12,7.12s-7.12-3.19-7.12-7.12c0-3.93,6.81-12.85,6.81-12.85
			S71.77,88.91,71.77,92.84z"/>
		<path fill="#DADADA" stroke="#F6F6F6" stroke-miterlimit="10" d="M59.42,93.94c-0.13,1.81,1.25,3.41,3.06,3.55
			c0.45,0.03,0.91-0.03,1.33-0.17"/>
	</g>
	<g id="druppel_00000142177999473498385870000006106767161939359407_">
		<path fill="#009FE3" d="M55.98,92.84c0,3.93-3.19,7.12-7.12,7.12s-7.12-3.19-7.12-7.12c0-3.93,6.81-12.85,6.81-12.85
			S55.98,88.91,55.98,92.84z"/>
		<path fill="#009FE3" stroke="#F6F6F6" stroke-miterlimit="10" d="M43.63,93.94c-0.13,1.81,1.25,3.41,3.06,3.55
			c0.45,0.03,0.91-0.03,1.33-0.17"/>
	</g>
	<g id="druppel_00000181054631951297323610000013617573203088376725_">
		<path fill="#009FE3" d="M40.19,92.84c0,3.93-3.19,7.12-7.12,7.12s-7.12-3.19-7.12-7.12c0-3.93,6.81-12.85,6.81-12.85
			S40.19,88.91,40.19,92.84z"/>
		<path fill="#009FE3" stroke="#F6F6F6" stroke-miterlimit="10" d="M27.83,93.94c-0.13,1.81,1.25,3.41,3.06,3.55
			c0.45,0.03,0.91-0.03,1.33-0.17"/>
	</g>
	<g id="druppel_00000057119746680860226770000016501659744054151335_">
		<path fill="#009FE3" d="M24.25,92.84c0,3.93-3.19,7.12-7.12,7.12s-7.12-3.19-7.12-7.12c0-3.93,6.81-12.85,6.81-12.85
			S24.25,88.91,24.25,92.84z"/>
		<path fill="#009FE3" stroke="#F6F6F6" stroke-miterlimit="10" d="M11.9,93.94c-0.13,1.81,1.25,3.41,3.06,3.55
			c0.45,0.03,0.91-0.03,1.33-0.17"/>
	</g>
</g>
<g>
	<circle fill="#FFED00" stroke="#000000" stroke-miterlimit="10" cx="104.13" cy="16.23" r="5.07"/>
	<g>
		
			<line fill="none" stroke="#000000" stroke-miterlimit="10" stroke-dasharray="4.4257" x1="104.13" y1="4.82" x2="104.13" y2="9.25"/>
	</g>
	<g>
		
			<line fill="none" stroke="#000000" stroke-miterlimit="10" stroke-dasharray="4.4257" x1="98.43" y1="6.35" x2="100.64" y2="10.18"/>
	</g>
	<g>
		
			<line fill="none" stroke="#000000" stroke-miterlimit="10" stroke-dasharray="4.4257" x1="94.25" y1="10.53" x2="98.09" y2="12.74"/>
	</g>
	<g>
		
			<line fill="none" stroke="#000000" stroke-miterlimit="10" stroke-dasharray="4.4257" x1="92.72" y1="16.23" x2="97.15" y2="16.23"/>
	</g>
	<g>
		
			<line fill="none" stroke="#000000" stroke-miterlimit="10" stroke-dasharray="4.4257" x1="94.25" y1="21.94" x2="98.09" y2="19.73"/>
	</g>
	<g>
		
			<line fill="none" stroke="#000000" stroke-miterlimit="10" stroke-dasharray="4.4257" x1="98.43" y1="26.12" x2="100.64" y2="22.28"/>
	</g>
	<g>
		
			<line fill="none" stroke="#000000" stroke-miterlimit="10" stroke-dasharray="4.4257" x1="104.13" y1="27.64" x2="104.13" y2="23.22"/>
	</g>
	<g>
		
			<line fill="none" stroke="#000000" stroke-miterlimit="10" stroke-dasharray="4.4257" x1="109.84" y1="26.12" x2="107.63" y2="22.28"/>
	</g>
	<g>
		
			<line fill="none" stroke="#000000" stroke-miterlimit="10" stroke-dasharray="4.4257" x1="114.02" y1="21.94" x2="110.18" y2="19.73"/>
	</g>
	<g>
		
			<line fill="none" stroke="#000000" stroke-miterlimit="10" stroke-dasharray="4.4257" x1="115.55" y1="16.23" x2="111.12" y2="16.23"/>
	</g>
	<g>
		
			<line fill="none" stroke="#000000" stroke-miterlimit="10" stroke-dasharray="4.4257" x1="114.02" y1="10.53" x2="110.18" y2="12.74"/>
	</g>
	<g>
		
			<line fill="none" stroke="#000000" stroke-miterlimit="10" stroke-dasharray="4.4257" x1="109.84" y1="6.35" x2="107.63" y2="10.18"/>
	</g>
</g>
<g>
	<path fill="#FFFFFF" stroke="#000000" stroke-miterlimit="10" d="M19.7,24.96H9.55c-1.97,0-3.57-1.6-3.57-3.57v0
		c0-1.97,1.6-3.57,3.57-3.57H19.7c1.97,0,3.57,1.6,3.57,3.57v0C23.27,23.36,21.67,24.96,19.7,24.96z"/>
	<g>
		
			<line fill="none" stroke="#000000" stroke-miterlimit="10" stroke-dasharray="3.5812" x1="8.96" y1="11.88" x2="12.54" y2="11.88"/>
	</g>
	<circle fill="#FFED00" stroke="#000000" stroke-miterlimit="10" cx="20.17" cy="11.88" r="6.18"/>
	<circle fill="#FFFFFF" stroke="#000000" stroke-miterlimit="10" cx="8.78" cy="16.87" r="3.85"/>
	<circle fill="#FFFFFF" stroke="#000000" stroke-miterlimit="10" cx="13.23" cy="14.69" r="4.44"/>
	<circle fill="#FFFFFF" stroke="#000000" stroke-miterlimit="10" cx="19.99" cy="17.51" r="4.15"/>
	<circle fill="#FFFFFF" stroke="#000000" stroke-miterlimit="10" cx="13.16" cy="20.79" r="4.25"/>
	<circle fill="#FFFFFF" stroke="#000000" stroke-miterlimit="10" cx="22.68" cy="20.26" r="4.25"/>
	<circle fill="#FFFFFF" stroke="#000000" stroke-miterlimit="10" cx="6.73" cy="20.99" r="3.48"/>
	<g>
		
			<line fill="none" stroke="#000000" stroke-miterlimit="10" stroke-dasharray="3.5812" x1="20.17" y1="0.67" x2="20.17" y2="4.25"/>
	</g>
	<g>
		
			<line fill="none" stroke="#000000" stroke-miterlimit="10" stroke-dasharray="3.5812" x1="14.57" y1="2.17" x2="16.36" y2="5.27"/>
	</g>
	<g>
		
			<line fill="none" stroke="#000000" stroke-miterlimit="10" stroke-dasharray="3.5812" x1="10.47" y1="6.27" x2="13.57" y2="8.07"/>
	</g>
	<g>
		
			<line fill="none" stroke="#000000" stroke-miterlimit="10" stroke-dasharray="3.5812" x1="29.88" y1="17.48" x2="26.78" y2="15.69"/>
	</g>
	<g>
		
			<line fill="none" stroke="#000000" stroke-miterlimit="10" stroke-dasharray="3.5812" x1="31.38" y1="11.88" x2="27.8" y2="11.88"/>
	</g>
	<g>
		
			<line fill="none" stroke="#000000" stroke-miterlimit="10" stroke-dasharray="3.5812" x1="29.88" y1="6.27" x2="26.78" y2="8.07"/>
	</g>
	<g>
		
			<line fill="none" stroke="#000000" stroke-miterlimit="10" stroke-dasharray="3.5812" x1="25.78" y1="2.17" x2="23.99" y2="5.27"/>
	</g>
</g>
<g>
	<path fill="#DADADA" stroke="#B2B2B2" stroke-miterlimit="10" d="M24.38-13.65l-10.15,0c-1.97,0-3.57-1.6-3.57-3.57v0
		c0-1.97,1.6-3.57,3.57-3.57h10.15c1.97,0,3.57,1.6,3.57,3.57v0C27.95-15.25,26.35-13.65,24.38-13.65z"/>
	<circle fill="#DADADA" stroke="#B2B2B2" stroke-miterlimit="10" cx="13.46" cy="-21.74" r="3.85"/>
	<circle fill="#DADADA" stroke="#B2B2B2" stroke-miterlimit="10" cx="17.91" cy="-23.92" r="4.44"/>
	<circle fill="#DADADA" stroke="#B2B2B2" stroke-miterlimit="10" cx="24.67" cy="-21.1" r="4.15"/>
	<circle fill="#DADADA" stroke="#B2B2B2" stroke-miterlimit="10" cx="17.84" cy="-17.82" r="4.25"/>
	<circle fill="#DADADA" stroke="#B2B2B2" stroke-miterlimit="10" cx="27.36" cy="-18.35" r="4.25"/>
	<circle fill="#DADADA" stroke="#B2B2B2" stroke-miterlimit="10" cx="11.41" cy="-17.62" r="3.48"/>
</g>
<g>
	<path fill="#FFED00" stroke="#000000" stroke-miterlimit="10" d="M8.87,155.34l3.96-0.03v12.48c0.14-0.02,0.26-0.1,0.34-0.23
		l7.96-13.54c0.19-0.32-0.04-0.72-0.41-0.72l-4.04-0.03v-12.54c-0.19-0.03-0.38,0.05-0.49,0.24l-7.75,13.67
		C8.27,154.94,8.5,155.34,8.87,155.34z"/>
	<path fill="#FFED00" stroke="#000000" stroke-miterlimit="10" d="M25.51,154.3l3.96-0.03v12.48c0.14-0.02,0.26-0.1,0.34-0.23
		l7.96-13.54c0.19-0.32-0.04-0.72-0.41-0.72l-4.04-0.03v-12.54c-0.19-0.03-0.38,0.05-0.49,0.24l-7.75,13.67
		C24.9,153.91,25.14,154.31,25.51,154.3z"/>
	<path fill="#DADADA" stroke="#B2B2B2" stroke-miterlimit="10" d="M42.94,154.3l3.96-0.03v12.48c0.14-0.02,0.26-0.1,0.34-0.23
		l7.96-13.54c0.19-0.32-0.04-0.72-0.41-0.72l-4.04-0.03v-12.54c-0.19-0.03-0.38,0.05-0.49,0.24l-7.75,13.67
		C42.34,153.91,42.57,154.31,42.94,154.3z"/>
	<path fill="#DADADA" stroke="#B2B2B2" stroke-miterlimit="10" d="M59.82,154.3l3.96-0.03v12.48c0.14-0.02,0.26-0.1,0.34-0.23
		l7.96-13.54c0.19-0.32-0.04-0.72-0.41-0.72l-4.04-0.03v-12.54c-0.19-0.03-0.38,0.05-0.49,0.24l-7.75,13.67
		C59.22,153.91,59.45,154.31,59.82,154.3z"/>
	<path fill="#DADADA" stroke="#B2B2B2" stroke-miterlimit="10" d="M76.82,154.3l3.96-0.03v12.48c0.14-0.02,0.26-0.1,0.34-0.23
		l7.96-13.54c0.19-0.32-0.04-0.72-0.41-0.72l-4.04-0.03v-12.54c-0.19-0.03-0.38,0.05-0.49,0.24l-7.75,13.67
		C76.22,153.91,76.45,154.31,76.82,154.3z"/>
</g>
<text transform="matrix(1 0 0 1 -35.8178 92.4728)" font-family="'AmericanTypewriter-Bold'" font-size="12.4096px">water</text>
<text transform="matrix(1 0 0 1 -49.8878 124.0625)" font-family="'AmericanTypewriter-Bold'" font-size="12.4096px">zonlicht</text>
<text transform="matrix(1 0 0 1 -78.1581 156.7531)" font-family="'AmericanTypewriter-Bold'" font-size="12.4096px">moeilijkheid</text>
<g>
	<g>
		<rect x="77.56" y="67.1" fill="none" width="11.63" height="13.11"/>
	</g>
</g>
<g>
	<g>
		<line fill="none" stroke="#000000" stroke-miterlimit="10" x1="80.83" y1="64.61" x2="80.83" y2="70.61"/>
		<line fill="none" stroke="#000000" stroke-miterlimit="10" x1="80.83" y1="71.72" x2="80.83" y2="77.72"/>
	</g>
</g>
<g>
	
		<line fill="none" stroke="#000000" stroke-miterlimit="10" stroke-dasharray="10.3377" x1="88.82" y1="71.16" x2="80.83" y2="77.72"/>
</g>
<g>
	
		<line fill="none" stroke="#000000" stroke-miterlimit="10" stroke-dasharray="10.3381" x1="80.83" y1="64.61" x2="88.82" y2="71.16"/>
</g>
<g>
	<g>
		
			<line fill="none" stroke="#312783" stroke-miterlimit="10" stroke-dasharray="8.2258" x1="75.26" y1="64.63" x2="82.84" y2="67.84"/>
	</g>
	<g>
		
			<line fill="none" stroke="#312783" stroke-miterlimit="10" stroke-dasharray="8.2258" x1="83.1" y1="69.8" x2="75.53" y2="73.01"/>
	</g>
	<circle fill="none" stroke="#312783" stroke-miterlimit="10" cx="83.92" cy="68.76" r="1.08"/>
	<g>
		<g>
			<line fill="none" stroke="#312783" stroke-miterlimit="10" x1="74.75" y1="66.8" x2="68.75" y2="66.8"/>
			<line fill="none" stroke="#312783" stroke-miterlimit="10" x1="67.43" y1="66.8" x2="61.43" y2="66.8"/>
		</g>
	</g>
	<g>
		<g>
			<line fill="none" stroke="#312783" stroke-miterlimit="10" x1="74.55" y1="70.71" x2="68.55" y2="70.71"/>
			<line fill="none" stroke="#312783" stroke-miterlimit="10" x1="67.43" y1="70.71" x2="61.43" y2="70.71"/>
		</g>
	</g>
</g>
</svg>
