<?xml version="1.0" encoding="utf-8"?>
<!-- Generator: Adobe Illustrator 28.1.0, SVG Export Plug-In . SVG Version: 6.00 Build 0)  -->
<svg version="1.1" id="Laag_1" xmlns="http://www.w3.org/2000/svg" xmlns:xlink="http://www.w3.org/1999/xlink" x="0px" y="0px"
	 viewBox="0 0 39.87 74.9" enable-background="new 0 0 39.87 74.9" xml:space="preserve">
<g>
	<path fill="#FFFFFF" stroke="#1D1D1B" stroke-miterlimit="10" d="M75.31-21.09H65.17c-1.97,0-3.57-1.6-3.57-3.57v0
		c0-1.97,1.6-3.57,3.57-3.57h10.15c1.97,0,3.57,1.6,3.57,3.57v0C78.89-22.69,77.29-21.09,75.31-21.09z"/>
	<g>
		
			<line fill="none" stroke="#1D1D1B" stroke-miterlimit="10" stroke-dasharray="3.5812" x1="64.57" y1="-34.17" x2="68.16" y2="-34.17"/>
	</g>
	<circle fill="#FFEC00" stroke="#1D1D1B" stroke-miterlimit="10" cx="75.78" cy="-34.17" r="6.18"/>
	<circle fill="#FFFFFF" stroke="#1D1D1B" stroke-miterlimit="10" cx="64.4" cy="-29.18" r="3.85"/>
	<circle fill="#FFFFFF" stroke="#1D1D1B" stroke-miterlimit="10" cx="68.84" cy="-31.36" r="4.44"/>
	<circle fill="#FFFFFF" stroke="#1D1D1B" stroke-miterlimit="10" cx="75.6" cy="-28.54" r="4.15"/>
	<circle fill="#FFFFFF" stroke="#1D1D1B" stroke-miterlimit="10" cx="68.77" cy="-25.26" r="4.25"/>
	<circle fill="#FFFFFF" stroke="#1D1D1B" stroke-miterlimit="10" cx="78.29" cy="-25.79" r="4.25"/>
	<circle fill="#FFFFFF" stroke="#1D1D1B" stroke-miterlimit="10" cx="62.34" cy="-25.06" r="3.48"/>
	<g>
		
			<line fill="none" stroke="#1D1D1B" stroke-miterlimit="10" stroke-dasharray="3.5812" x1="75.78" y1="-45.38" x2="75.78" y2="-41.8"/>
	</g>
	<g>
		
			<line fill="none" stroke="#1D1D1B" stroke-miterlimit="10" stroke-dasharray="3.5812" x1="70.18" y1="-43.88" x2="71.97" y2="-40.78"/>
	</g>
	<g>
		
			<line fill="none" stroke="#1D1D1B" stroke-miterlimit="10" stroke-dasharray="3.5812" x1="66.08" y1="-39.78" x2="69.18" y2="-37.98"/>
	</g>
	<g>
		
			<line fill="none" stroke="#1D1D1B" stroke-miterlimit="10" stroke-dasharray="3.5812" x1="85.49" y1="-28.57" x2="82.39" y2="-30.36"/>
	</g>
	<g>
		
			<line fill="none" stroke="#1D1D1B" stroke-miterlimit="10" stroke-dasharray="3.5812" x1="86.99" y1="-34.17" x2="83.41" y2="-34.17"/>
	</g>
	<g>
		
			<line fill="none" stroke="#1D1D1B" stroke-miterlimit="10" stroke-dasharray="3.5812" x1="85.49" y1="-39.78" x2="82.39" y2="-37.98"/>
	</g>
	<g>
		
			<line fill="none" stroke="#1D1D1B" stroke-miterlimit="10" stroke-dasharray="3.5812" x1="81.39" y1="-43.88" x2="79.6" y2="-40.78"/>
	</g>
</g>
<g>
	<circle fill="#FFEC00" stroke="#1D1D1B" stroke-miterlimit="10" cx="22.59" cy="18.14" r="6.81"/>
	<g>
		
			<line fill="none" stroke="#1D1D1B" stroke-miterlimit="10" stroke-dasharray="5.9432" x1="22.59" y1="2.82" x2="22.59" y2="8.76"/>
	</g>
	<g>
		
			<line fill="none" stroke="#1D1D1B" stroke-miterlimit="10" stroke-dasharray="5.9432" x1="14.92" y1="4.87" x2="17.9" y2="10.02"/>
	</g>
	<g>
		
			<line fill="none" stroke="#1D1D1B" stroke-miterlimit="10" stroke-dasharray="5.9431" x1="9.32" y1="10.48" x2="14.46" y2="13.45"/>
	</g>
	<g>
		
			<line fill="none" stroke="#1D1D1B" stroke-miterlimit="10" stroke-dasharray="5.9432" x1="7.26" y1="18.14" x2="13.21" y2="18.14"/>
	</g>
	<g>
		
			<line fill="none" stroke="#1D1D1B" stroke-miterlimit="10" stroke-dasharray="5.9431" x1="9.32" y1="25.8" x2="14.46" y2="22.83"/>
	</g>
	<g>
		
			<line fill="none" stroke="#1D1D1B" stroke-miterlimit="10" stroke-dasharray="5.9432" x1="14.92" y1="31.41" x2="17.9" y2="26.26"/>
	</g>
	<g>
		
			<line fill="none" stroke="#1D1D1B" stroke-miterlimit="10" stroke-dasharray="5.9432" x1="22.59" y1="33.46" x2="22.59" y2="27.52"/>
	</g>
	<g>
		
			<line fill="none" stroke="#1D1D1B" stroke-miterlimit="10" stroke-dasharray="5.9432" x1="30.25" y1="31.41" x2="27.28" y2="26.26"/>
	</g>
	<g>
		
			<line fill="none" stroke="#1D1D1B" stroke-miterlimit="10" stroke-dasharray="5.9432" x1="35.86" y1="25.8" x2="30.71" y2="22.83"/>
	</g>
	<g>
		
			<line fill="none" stroke="#1D1D1B" stroke-miterlimit="10" stroke-dasharray="5.9432" x1="37.91" y1="18.14" x2="31.97" y2="18.14"/>
	</g>
	<g>
		
			<line fill="none" stroke="#1D1D1B" stroke-miterlimit="10" stroke-dasharray="5.9432" x1="35.86" y1="10.48" x2="30.71" y2="13.45"/>
	</g>
	<g>
		
			<line fill="none" stroke="#1D1D1B" stroke-miterlimit="10" stroke-dasharray="5.9432" x1="30.25" y1="4.87" x2="27.28" y2="10.02"/>
	</g>
</g>
<g>
	<g>
		<path fill="#F8B133" stroke="#1D1D1B" stroke-width="0.5" stroke-miterlimit="10" d="M12.78,72.45H9.55
			c-3.67,0-6.64-2.97-6.64-6.64v-9.26c0-0.28,0.23-0.51,0.51-0.51H18.8c0.28,0,0.51,0.23,0.51,0.51v9.35
			C19.32,69.52,16.39,72.45,12.78,72.45z"/>
		
			<rect x="9.76" y="39.54" fill="#009540" stroke="#1D1D1B" stroke-width="0.5" stroke-miterlimit="10" width="2.71" height="16.5"/>
		<path fill="#009540" stroke="#1D1D1B" stroke-width="0.5" stroke-miterlimit="10" d="M16.5,46.36l-4.16,3.17
			c-0.29,0.22-0.72,0.17-0.94-0.13l-0.2-0.26c-0.22-0.29-0.17-0.72,0.13-0.94l4.16-3.17c0.29-0.22,0.72-0.17,0.94,0.13l0.2,0.26
			C16.85,45.72,16.79,46.14,16.5,46.36z"/>
		<path fill="#009540" stroke="#1D1D1B" stroke-width="0.5" stroke-miterlimit="10" d="M10.05,51.7l-2.32-2.74
			c-0.15-0.17-0.13-0.44,0.05-0.58l0.31-0.26c0.17-0.15,0.44-0.13,0.58,0.05l2.32,2.74c0.15,0.17,0.13,0.44-0.05,0.58l-0.31,0.26
			C10.46,51.9,10.2,51.87,10.05,51.7z"/>
		<path fill="#009540" stroke="#1D1D1B" stroke-width="0.5" stroke-miterlimit="10" d="M15.13,39.05l-2.09,5.56
			c-0.05,0.13-0.16,0.22-0.29,0.27v-2.66l1.34-3.55c0.08-0.23,0.34-0.35,0.57-0.26l0.21,0.08C15.1,38.57,15.22,38.82,15.13,39.05z"
			/>
		<path fill="#009540" stroke="#1D1D1B" stroke-width="0.5" stroke-miterlimit="10" d="M9.76,43.96v3.09
			c-0.25,0.05-0.5-0.11-0.57-0.36l-0.85-3.34c-0.07-0.26,0.08-0.52,0.34-0.59l0.25-0.06c0.26-0.07,0.53,0.08,0.59,0.34L9.76,43.96z"
			/>
	</g>
	<ellipse fill="#ECECEC" stroke="#1D1D1B" stroke-width="0.5" stroke-miterlimit="10" cx="11.08" cy="34.8" rx="2.44" ry="5.14"/>
	
		<ellipse transform="matrix(0.2486 -0.9686 0.9686 0.2486 -23.5485 39.2559)" fill="#E20613" stroke="#1D1D1B" stroke-width="0.5" stroke-miterlimit="10" cx="13.53" cy="34.81" rx="5.42" ry="2.44"/>
	
		<ellipse transform="matrix(0.9686 -0.2486 0.2486 0.9686 -8.374 3.2864)" fill="#E20613" stroke="#1D1D1B" stroke-width="0.5" stroke-miterlimit="10" cx="8.83" cy="34.81" rx="2.44" ry="5.42"/>
</g>
<g>
	<path fill="#D9D9D9" stroke="#B1B1B1" stroke-miterlimit="10" d="M41.91-15.51H31.76c-1.97,0-3.57-1.6-3.57-3.57v0
		c0-1.97,1.6-3.57,3.57-3.57h10.15c1.97,0,3.57,1.6,3.57,3.57v0C45.48-17.11,43.88-15.51,41.91-15.51z"/>
	<circle fill="#D9D9D9" stroke="#B1B1B1" stroke-miterlimit="10" cx="30.99" cy="-23.6" r="3.85"/>
	<circle fill="#D9D9D9" stroke="#B1B1B1" stroke-miterlimit="10" cx="35.43" cy="-25.78" r="4.44"/>
	<circle fill="#D9D9D9" stroke="#B1B1B1" stroke-miterlimit="10" cx="42.19" cy="-22.96" r="4.15"/>
	<circle fill="#D9D9D9" stroke="#B1B1B1" stroke-miterlimit="10" cx="35.36" cy="-19.68" r="4.25"/>
	<circle fill="#D9D9D9" stroke="#B1B1B1" stroke-miterlimit="10" cx="44.89" cy="-20.21" r="4.25"/>
	<circle fill="#D9D9D9" stroke="#B1B1B1" stroke-miterlimit="10" cx="28.94" cy="-19.48" r="3.48"/>
</g>
</svg>
