<?xml version="1.0" encoding="utf-8"?>
<!-- Generator: Adobe Illustrator 28.1.0, SVG Export Plug-In . SVG Version: 6.00 Build 0)  -->
<svg version="1.1" id="Laag_1" xmlns="http://www.w3.org/2000/svg" xmlns:xlink="http://www.w3.org/1999/xlink" x="0px" y="0px"
	 viewBox="0 0 26.31 26.23" enable-background="new 0 0 26.31 26.23" xml:space="preserve">
<path fill="none" stroke="#000000" stroke-width="3" stroke-miterlimit="10" d="M79.3,175.06h-323.72c-11.82,0-21.4-9.58-21.4-21.4
	v-74.1c0-11.82,9.58-21.4,21.4-21.4H79.3c11.82,0,21.4,9.58,21.4,21.4v74.1C100.7,165.48,91.12,175.06,79.3,175.06z"/>
<path fill="none" stroke="#000000" stroke-width="3" stroke-miterlimit="10" d="M79.3,175.42h-323.72c-11.82,0-21.4-9.58-21.4-21.4
	v-74.1c0-11.82,9.58-21.4,21.4-21.4H79.3c11.82,0,21.4,9.58,21.4,21.4v74.1C100.7,165.84,91.12,175.42,79.3,175.42z"/>
<circle fill="none" stroke="#000000" stroke-width="3" stroke-miterlimit="10" cx="-211.21" cy="116.97" r="45.16"/>
<text transform="matrix(1 0 0 1 -176.3159 77.3945)" font-family="'AmericanTypewriter-Bold'" font-size="19px">Plantnaam</text>
<g>
	<g>
		<line fill="none" stroke="#000000" stroke-width="3" stroke-miterlimit="10" x1="-244.65" y1="147.32" x2="-240.23" y2="143.26"/>
		
			<line fill="none" stroke="#000000" stroke-width="3" stroke-miterlimit="10" stroke-dasharray="11.187,11.187" x1="-231.99" y1="135.69" x2="-186.66" y2="94.09"/>
		<line fill="none" stroke="#000000" stroke-width="3" stroke-miterlimit="10" x1="-182.54" y1="90.31" x2="-178.12" y2="86.25"/>
	</g>
</g>
<g>
	<g>
		<line fill="none" stroke="#000000" stroke-width="3" stroke-miterlimit="10" x1="-246.87" y1="88.8" x2="-242.18" y2="92.55"/>
		
			<line fill="none" stroke="#000000" stroke-width="3" stroke-miterlimit="10" stroke-dasharray="11.1839,11.1839" x1="-233.44" y1="99.52" x2="-185.37" y2="137.91"/>
		<line fill="none" stroke="#000000" stroke-width="3" stroke-miterlimit="10" x1="-181" y1="141.4" x2="-176.32" y2="145.14"/>
	</g>
</g>
<rect x="-159.55" y="87.5" fill="none" width="62.14" height="74.77"/>
<text transform="matrix(1 0 0 1 -159.5464 92.8847)"><tspan x="0" y="0" font-family="'AmericanTypewriter-Bold'" font-size="8px">Hier komt </tspan><tspan x="0" y="9.6" font-family="'AmericanTypewriter-Bold'" font-size="8px">informatie </tspan><tspan x="0" y="19.2" font-family="'AmericanTypewriter-Bold'" font-size="8px">over bijvoor</tspan><tspan x="48.89" y="19.2" font-family="'AmericanTypewriter-Bold'" font-size="8px">-</tspan><tspan x="0" y="28.8" font-family="'AmericanTypewriter-Bold'" font-size="8px">beld land van </tspan><tspan x="0" y="38.4" font-family="'AmericanTypewriter-Bold'" font-size="8px">oorsprong. Of </tspan><tspan x="0" y="48" font-family="'AmericanTypewriter-Bold'" font-size="8px">waar de plant </tspan><tspan x="0" y="57.6" font-family="'AmericanTypewriter-Bold'" font-size="8px">allemaal te </tspan><tspan x="0" y="67.2" font-family="'AmericanTypewriter-Bold'" font-size="8px">vinden is </tspan></text>
<g id="druppels_00000048486908586893593170000014735733989431353246_">
	<g id="druppel__x28_grijs_x29__00000161628776745094902130000004016714849292852880_">
		<path fill="#DADADA" d="M83.27,92.84c0,3.93-3.19,7.12-7.12,7.12s-7.12-3.19-7.12-7.12c0-3.93,6.81-12.85,6.81-12.85
			S83.27,88.91,83.27,92.84z"/>
		<path fill="#DADADA" stroke="#F6F6F6" stroke-miterlimit="10" d="M70.92,93.94c-0.13,1.81,1.25,3.41,3.06,3.55
			c0.45,0.03,0.91-0.03,1.33-0.17"/>
	</g>
	<g id="druppel_00000157998952096770827000000001083274660296423586_">
		<path fill="#DADADA" d="M67.59,92.84c0,3.93-3.19,7.12-7.12,7.12s-7.12-3.19-7.12-7.12c0-3.93,6.81-12.85,6.81-12.85
			S67.59,88.91,67.59,92.84z"/>
		<path fill="#DADADA" stroke="#F6F6F6" stroke-miterlimit="10" d="M55.24,93.94c-0.13,1.81,1.25,3.41,3.06,3.55
			c0.45,0.03,0.91-0.03,1.33-0.17"/>
	</g>
	<g id="druppel_00000142177999473498385870000006106767161939359407_">
		<path fill="#009FE3" d="M51.8,92.84c0,3.93-3.19,7.12-7.12,7.12s-7.12-3.19-7.12-7.12c0-3.93,6.81-12.85,6.81-12.85
			S51.8,88.91,51.8,92.84z"/>
		<path fill="#009FE3" stroke="#F6F6F6" stroke-miterlimit="10" d="M39.44,93.94c-0.13,1.81,1.25,3.41,3.06,3.55
			c0.45,0.03,0.91-0.03,1.33-0.17"/>
	</g>
	<g id="druppel_00000181054631951297323610000013617573203088376725_">
		<path fill="#009FE3" d="M36,92.84c0,3.93-3.19,7.12-7.12,7.12s-7.12-3.19-7.12-7.12c0-3.93,6.81-12.85,6.81-12.85
			S36,88.91,36,92.84z"/>
		<path fill="#009FE3" stroke="#F6F6F6" stroke-miterlimit="10" d="M23.65,93.94c-0.13,1.81,1.25,3.41,3.06,3.55
			c0.45,0.03,0.91-0.03,1.33-0.17"/>
	</g>
	<g id="druppel_00000057119746680860226770000016501659744054151335_">
		<path fill="#009FE3" d="M20.07,92.84c0,3.93-3.19,7.12-7.12,7.12s-7.12-3.19-7.12-7.12c0-3.93,6.81-12.85,6.81-12.85
			S20.07,88.91,20.07,92.84z"/>
		<path fill="#009FE3" stroke="#F6F6F6" stroke-miterlimit="10" d="M7.71,93.94c-0.13,1.81,1.25,3.41,3.06,3.55
			c0.45,0.03,0.91-0.03,1.33-0.17"/>
	</g>
</g>
<g>
	<circle fill="#FFED00" stroke="#000000" stroke-miterlimit="10" cx="12.77" cy="13.12" r="5.07"/>
	<g>
		
			<line fill="none" stroke="#000000" stroke-miterlimit="10" stroke-dasharray="4.4257" x1="12.77" y1="1.71" x2="12.77" y2="6.13"/>
	</g>
	<g>
		<line fill="none" stroke="#000000" stroke-miterlimit="10" stroke-dasharray="4.4257" x1="7.07" y1="3.23" x2="9.28" y2="7.07"/>
	</g>
	<g>
		<line fill="none" stroke="#000000" stroke-miterlimit="10" stroke-dasharray="4.4257" x1="2.89" y1="7.41" x2="6.72" y2="9.62"/>
	</g>
	<g>
		
			<line fill="none" stroke="#000000" stroke-miterlimit="10" stroke-dasharray="4.4257" x1="1.36" y1="13.12" x2="5.79" y2="13.12"/>
	</g>
	<g>
		
			<line fill="none" stroke="#000000" stroke-miterlimit="10" stroke-dasharray="4.4257" x1="2.89" y1="18.82" x2="6.72" y2="16.61"/>
	</g>
	<g>
		<line fill="none" stroke="#000000" stroke-miterlimit="10" stroke-dasharray="4.4257" x1="7.07" y1="23" x2="9.28" y2="19.17"/>
	</g>
	<g>
		
			<line fill="none" stroke="#000000" stroke-miterlimit="10" stroke-dasharray="4.4257" x1="12.77" y1="24.53" x2="12.77" y2="20.1"/>
	</g>
	<g>
		<line fill="none" stroke="#000000" stroke-miterlimit="10" stroke-dasharray="4.4257" x1="18.48" y1="23" x2="16.27" y2="19.17"/>
	</g>
	<g>
		
			<line fill="none" stroke="#000000" stroke-miterlimit="10" stroke-dasharray="4.4257" x1="22.65" y1="18.82" x2="18.82" y2="16.61"/>
	</g>
	<g>
		
			<line fill="none" stroke="#000000" stroke-miterlimit="10" stroke-dasharray="4.4257" x1="24.18" y1="13.12" x2="19.76" y2="13.12"/>
	</g>
	<g>
		
			<line fill="none" stroke="#000000" stroke-miterlimit="10" stroke-dasharray="4.4257" x1="22.65" y1="7.41" x2="18.82" y2="9.62"/>
	</g>
	<g>
		
			<line fill="none" stroke="#000000" stroke-miterlimit="10" stroke-dasharray="4.4257" x1="18.48" y1="3.23" x2="16.27" y2="7.07"/>
	</g>
</g>
<g>
	<path fill="#FFFFFF" stroke="#000000" stroke-miterlimit="10" d="M56.97-15.87H46.83c-1.97,0-3.57-1.6-3.57-3.57v0
		c0-1.97,1.6-3.57,3.57-3.57h10.15c1.97,0,3.57,1.6,3.57,3.57v0C60.55-17.47,58.95-15.87,56.97-15.87z"/>
	<g>
		
			<line fill="none" stroke="#000000" stroke-miterlimit="10" stroke-dasharray="3.5812" x1="46.24" y1="-28.95" x2="49.82" y2="-28.95"/>
	</g>
	<circle fill="#FFED00" stroke="#000000" stroke-miterlimit="10" cx="57.45" cy="-28.95" r="6.18"/>
	<circle fill="#FFFFFF" stroke="#000000" stroke-miterlimit="10" cx="46.06" cy="-23.96" r="3.85"/>
	<circle fill="#FFFFFF" stroke="#000000" stroke-miterlimit="10" cx="50.5" cy="-26.14" r="4.44"/>
	<circle fill="#FFFFFF" stroke="#000000" stroke-miterlimit="10" cx="57.26" cy="-23.32" r="4.15"/>
	<circle fill="#FFFFFF" stroke="#000000" stroke-miterlimit="10" cx="50.43" cy="-20.04" r="4.25"/>
	<circle fill="#FFFFFF" stroke="#000000" stroke-miterlimit="10" cx="59.96" cy="-20.57" r="4.25"/>
	<circle fill="#FFFFFF" stroke="#000000" stroke-miterlimit="10" cx="44" cy="-19.84" r="3.48"/>
	<g>
		
			<line fill="none" stroke="#000000" stroke-miterlimit="10" stroke-dasharray="3.5812" x1="57.45" y1="-40.16" x2="57.45" y2="-36.58"/>
	</g>
	<g>
		
			<line fill="none" stroke="#000000" stroke-miterlimit="10" stroke-dasharray="3.5812" x1="51.84" y1="-38.66" x2="53.63" y2="-35.56"/>
	</g>
	<g>
		
			<line fill="none" stroke="#000000" stroke-miterlimit="10" stroke-dasharray="3.5812" x1="47.74" y1="-34.56" x2="50.84" y2="-32.77"/>
	</g>
	<g>
		
			<line fill="none" stroke="#000000" stroke-miterlimit="10" stroke-dasharray="3.5812" x1="67.15" y1="-23.35" x2="64.05" y2="-25.14"/>
	</g>
	<g>
		
			<line fill="none" stroke="#000000" stroke-miterlimit="10" stroke-dasharray="3.5812" x1="68.66" y1="-28.95" x2="65.07" y2="-28.95"/>
	</g>
	<g>
		
			<line fill="none" stroke="#000000" stroke-miterlimit="10" stroke-dasharray="3.5812" x1="67.15" y1="-34.56" x2="64.05" y2="-32.77"/>
	</g>
	<g>
		
			<line fill="none" stroke="#000000" stroke-miterlimit="10" stroke-dasharray="3.5812" x1="63.05" y1="-38.66" x2="61.26" y2="-35.56"/>
	</g>
</g>
<g>
	<path fill="#DADADA" stroke="#B2B2B2" stroke-miterlimit="10" d="M20.2-13.65l-10.15,0c-1.97,0-3.57-1.6-3.57-3.57v0
		c0-1.97,1.6-3.57,3.57-3.57H20.2c1.97,0,3.57,1.6,3.57,3.57v0C23.77-15.25,22.17-13.65,20.2-13.65z"/>
	<circle fill="#DADADA" stroke="#B2B2B2" stroke-miterlimit="10" cx="9.28" cy="-21.74" r="3.85"/>
	<circle fill="#DADADA" stroke="#B2B2B2" stroke-miterlimit="10" cx="13.72" cy="-23.92" r="4.44"/>
	<circle fill="#DADADA" stroke="#B2B2B2" stroke-miterlimit="10" cx="20.48" cy="-21.1" r="4.15"/>
	<circle fill="#DADADA" stroke="#B2B2B2" stroke-miterlimit="10" cx="13.65" cy="-17.82" r="4.25"/>
	<circle fill="#DADADA" stroke="#B2B2B2" stroke-miterlimit="10" cx="23.18" cy="-18.35" r="4.25"/>
	<circle fill="#DADADA" stroke="#B2B2B2" stroke-miterlimit="10" cx="7.23" cy="-17.62" r="3.48"/>
</g>
<g>
	<path fill="#FFED00" stroke="#000000" stroke-miterlimit="10" d="M4.69,155.34l3.96-0.03v12.48c0.14-0.02,0.26-0.1,0.34-0.23
		l7.96-13.54c0.19-0.32-0.04-0.72-0.41-0.72l-4.04-0.03v-12.54c-0.19-0.03-0.38,0.05-0.49,0.24l-7.75,13.67
		C4.09,154.94,4.32,155.34,4.69,155.34z"/>
	<path fill="#FFED00" stroke="#000000" stroke-miterlimit="10" d="M21.32,154.3l3.96-0.03v12.48c0.14-0.02,0.26-0.1,0.34-0.23
		l7.96-13.54c0.19-0.32-0.04-0.72-0.41-0.72l-4.04-0.03v-12.54c-0.19-0.03-0.38,0.05-0.49,0.24l-7.75,13.67
		C20.72,153.91,20.96,154.31,21.32,154.3z"/>
	<path fill="#DADADA" stroke="#B2B2B2" stroke-miterlimit="10" d="M38.76,154.3l3.96-0.03v12.48c0.14-0.02,0.26-0.1,0.34-0.23
		l7.96-13.54c0.19-0.32-0.04-0.72-0.41-0.72l-4.04-0.03v-12.54c-0.19-0.03-0.38,0.05-0.49,0.24l-7.75,13.67
		C38.15,153.91,38.39,154.31,38.76,154.3z"/>
	<path fill="#DADADA" stroke="#B2B2B2" stroke-miterlimit="10" d="M55.64,154.3l3.96-0.03v12.48c0.14-0.02,0.26-0.1,0.34-0.23
		l7.96-13.54c0.19-0.32-0.04-0.72-0.41-0.72l-4.04-0.03v-12.54c-0.19-0.03-0.38,0.05-0.49,0.24l-7.75,13.67
		C55.04,153.91,55.27,154.31,55.64,154.3z"/>
	<path fill="#DADADA" stroke="#B2B2B2" stroke-miterlimit="10" d="M72.63,154.3l3.96-0.03v12.48c0.14-0.02,0.26-0.1,0.34-0.23
		l7.96-13.54c0.19-0.32-0.04-0.72-0.41-0.72l-4.04-0.03v-12.54c-0.19-0.03-0.38,0.05-0.49,0.24l-7.75,13.67
		C72.03,153.91,72.27,154.31,72.63,154.3z"/>
</g>
<text transform="matrix(1 0 0 1 -40.0004 92.4728)" font-family="'AmericanTypewriter-Bold'" font-size="12.4096px">water</text>
<text transform="matrix(1 0 0 1 -54.0705 124.0625)" font-family="'AmericanTypewriter-Bold'" font-size="12.4096px">zonlicht</text>
<text transform="matrix(1 0 0 1 -82.3408 156.7531)" font-family="'AmericanTypewriter-Bold'" font-size="12.4096px">moeilijkheid</text>
<g>
	<g>
		<rect x="73.38" y="67.1" fill="none" width="11.63" height="13.11"/>
	</g>
</g>
<g>
	<g>
		<line fill="none" stroke="#000000" stroke-miterlimit="10" x1="76.65" y1="64.61" x2="76.65" y2="70.61"/>
		<line fill="none" stroke="#000000" stroke-miterlimit="10" x1="76.65" y1="71.72" x2="76.65" y2="77.72"/>
	</g>
</g>
<g>
	
		<line fill="none" stroke="#000000" stroke-miterlimit="10" stroke-dasharray="10.3377" x1="84.64" y1="71.16" x2="76.65" y2="77.72"/>
</g>
<g>
	
		<line fill="none" stroke="#000000" stroke-miterlimit="10" stroke-dasharray="10.3381" x1="76.65" y1="64.61" x2="84.64" y2="71.16"/>
</g>
<g>
	<g>
		
			<line fill="none" stroke="#312783" stroke-miterlimit="10" stroke-dasharray="8.2258" x1="71.08" y1="64.63" x2="78.65" y2="67.84"/>
	</g>
	<g>
		
			<line fill="none" stroke="#312783" stroke-miterlimit="10" stroke-dasharray="8.2258" x1="78.92" y1="69.8" x2="71.35" y2="73.01"/>
	</g>
	<circle fill="none" stroke="#312783" stroke-miterlimit="10" cx="79.73" cy="68.76" r="1.08"/>
	<g>
		<g>
			<line fill="none" stroke="#312783" stroke-miterlimit="10" x1="70.57" y1="66.8" x2="64.57" y2="66.8"/>
			<line fill="none" stroke="#312783" stroke-miterlimit="10" x1="63.25" y1="66.8" x2="57.25" y2="66.8"/>
		</g>
	</g>
	<g>
		<g>
			<line fill="none" stroke="#312783" stroke-miterlimit="10" x1="70.36" y1="70.71" x2="64.36" y2="70.71"/>
			<line fill="none" stroke="#312783" stroke-miterlimit="10" x1="63.25" y1="70.71" x2="57.25" y2="70.71"/>
		</g>
	</g>
</g>
</svg>
